<svg xmlns="http://www.w3.org/2000/svg" xmlns:xlink="http://www.w3.org/1999/xlink" id="processonSvg1000" viewBox="68.0 22.0 888.0 636.0" width="888.0" height="636.0"><defs id="ProcessOnDefs1001"><marker id="ProcessOnMarker1035" markerUnits="userSpaceOnUse" orient="auto" markerWidth="14.118033988749895" markerHeight="9.174454630060925" viewBox="-0.5 -0.6881909602355868 14.118033988749895 9.174454630060925" refX="-0.5" refY="3.8990363547948754"><path id="ProcessOnPath1036" d="M12.0 3.8990363547948754L0.0 7.798072709589751V0.0Z" stroke="#323232" stroke-width="1.0" fill="#fff" transform="matrix(1.0,0.0,0.0,1.0,0.0,0.0)"/></marker><marker id="ProcessOnMarker1054" markerUnits="userSpaceOnUse" orient="auto" markerWidth="14.118033988749895" markerHeight="9.174454630060925" viewBox="-0.5 -0.6881909602355868 14.118033988749895 9.174454630060925" refX="-0.5" refY="3.8990363547948754"><path id="ProcessOnPath1055" d="M12.0 3.8990363547948754L0.0 7.798072709589751V0.0Z" stroke="#323232" stroke-width="1.0" fill="#fff" transform="matrix(1.0,0.0,0.0,1.0,0.0,0.0)"/></marker><marker id="ProcessOnMarker1061" markerUnits="userSpaceOnUse" orient="auto" markerWidth="13.144543434498276" markerHeight="18.246037666503607" viewBox="-0.29389262614623657 -0.4045084971874737 13.144543434498276 18.246037666503607" refX="12.0" refY="8.71851033606433"><path id="ProcessOnPath1062" d="M0 0L12.0 8.71851033606433L0 17.43702067212866" stroke="#66ffff" stroke-width="1.0" fill="none" transform="matrix(1.0,0.0,0.0,1.0,0.0,0.0)"/></marker><marker id="ProcessOnMarker1073" markerUnits="userSpaceOnUse" orient="auto" markerWidth="13.144543434498276" markerHeight="18.246037666503607" viewBox="-0.29389262614623657 -0.4045084971874737 13.144543434498276 18.246037666503607" refX="12.0" refY="8.71851033606433"><path id="ProcessOnPath1074" d="M0 0L12.0 8.71851033606433L0 17.43702067212866" stroke="#66ffff" stroke-width="1.0" fill="none" transform="matrix(1.0,0.0,0.0,1.0,0.0,0.0)"/></marker><marker id="ProcessOnMarker1088" markerUnits="userSpaceOnUse" orient="auto" markerWidth="13.144543434498276" markerHeight="18.246037666503607" viewBox="-0.29389262614623657 -0.4045084971874737 13.144543434498276 18.246037666503607" refX="12.0" refY="8.71851033606433"><path id="ProcessOnPath1089" d="M0 0L12.0 8.71851033606433L0 17.43702067212866" stroke="#323232" stroke-width="1.0" fill="none" transform="matrix(1.0,0.0,0.0,1.0,0.0,0.0)"/></marker><marker id="ProcessOnMarker1099" markerUnits="userSpaceOnUse" orient="auto" markerWidth="13.144543434498276" markerHeight="18.246037666503607" viewBox="-0.29389262614623657 -0.4045084971874737 13.144543434498276 18.246037666503607" refX="12.0" refY="8.71851033606433"><path id="ProcessOnPath1100" d="M0 0L12.0 8.71851033606433L0 17.43702067212866" stroke="#323232" stroke-width="1.0" fill="none" transform="matrix(1.0,0.0,0.0,1.0,0.0,0.0)"/></marker><marker id="ProcessOnMarker1118" markerUnits="userSpaceOnUse" orient="auto" markerWidth="13.144543434498276" markerHeight="18.246037666503607" viewBox="-0.29389262614623657 -0.4045084971874737 13.144543434498276 18.246037666503607" refX="12.0" refY="8.71851033606433"><path id="ProcessOnPath1119" d="M0 0L12.0 8.71851033606433L0 17.43702067212866" stroke="#323232" stroke-width="1.0" fill="none" transform="matrix(1.0,0.0,0.0,1.0,0.0,0.0)"/></marker><marker id="ProcessOnMarker1125" markerUnits="userSpaceOnUse" orient="auto" markerWidth="13.144543434498276" markerHeight="18.246037666503607" viewBox="-0.29389262614623657 -0.4045084971874737 13.144543434498276 18.246037666503607" refX="12.0" refY="8.71851033606433"><path id="ProcessOnPath1126" d="M0 0L12.0 8.71851033606433L0 17.43702067212866" stroke="#323232" stroke-width="1.0" fill="none" transform="matrix(1.0,0.0,0.0,1.0,0.0,0.0)"/></marker><marker id="ProcessOnMarker1132" markerUnits="userSpaceOnUse" orient="auto" markerWidth="13.144543434498276" markerHeight="18.246037666503607" viewBox="-0.29389262614623657 -0.4045084971874737 13.144543434498276 18.246037666503607" refX="12.0" refY="8.71851033606433"><path id="ProcessOnPath1133" d="M0 0L12.0 8.71851033606433L0 17.43702067212866" stroke="#323232" stroke-width="1.0" fill="none" transform="matrix(1.0,0.0,0.0,1.0,0.0,0.0)"/></marker><marker id="ProcessOnMarker1139" markerUnits="userSpaceOnUse" orient="auto" markerWidth="14.118033988749895" markerHeight="9.174454630060925" viewBox="-0.5 -0.6881909602355868 14.118033988749895 9.174454630060925" refX="-0.5" refY="3.8990363547948754"><path id="ProcessOnPath1140" d="M12.0 3.8990363547948754L0.0 7.798072709589751V0.0Z" stroke="#ffb366" stroke-width="1.0" fill="#fff" transform="matrix(1.0,0.0,0.0,1.0,0.0,0.0)"/></marker><marker id="ProcessOnMarker1143" markerUnits="userSpaceOnUse" orient="auto" markerWidth="14.118033988749895" markerHeight="9.174454630060925" viewBox="-0.5 -0.6881909602355868 14.118033988749895 9.174454630060925" refX="-0.5" refY="3.8990363547948754"><path id="ProcessOnPath1144" d="M12.0 3.8990363547948754L0.0 7.798072709589751V0.0Z" stroke="#ffb366" stroke-width="1.0" fill="#fff" transform="matrix(1.0,0.0,0.0,1.0,0.0,0.0)"/></marker><marker id="ProcessOnMarker1147" markerUnits="userSpaceOnUse" orient="auto" markerWidth="14.118033988749895" markerHeight="9.174454630060925" viewBox="-0.5 -0.6881909602355868 14.118033988749895 9.174454630060925" refX="-0.5" refY="3.8990363547948754"><path id="ProcessOnPath1148" d="M12.0 3.8990363547948754L0.0 7.798072709589751V0.0Z" stroke="#ffb366" stroke-width="1.0" fill="#fff" transform="matrix(1.0,0.0,0.0,1.0,0.0,0.0)"/></marker><marker id="ProcessOnMarker1151" markerUnits="userSpaceOnUse" orient="auto" markerWidth="14.118033988749895" markerHeight="9.174454630060925" viewBox="-0.5 -0.6881909602355868 14.118033988749895 9.174454630060925" refX="-0.5" refY="3.8990363547948754"><path id="ProcessOnPath1152" d="M12.0 3.8990363547948754L0.0 7.798072709589751V0.0Z" stroke="#ffb366" stroke-width="1.0" fill="#fff" transform="matrix(1.0,0.0,0.0,1.0,0.0,0.0)"/></marker><marker id="ProcessOnMarker1155" markerUnits="userSpaceOnUse" orient="auto" markerWidth="14.118033988749895" markerHeight="9.174454630060925" viewBox="-0.5 -0.6881909602355868 14.118033988749895 9.174454630060925" refX="-0.5" refY="3.8990363547948754"><path id="ProcessOnPath1156" d="M12.0 3.8990363547948754L0.0 7.798072709589751V0.0Z" stroke="#ffb366" stroke-width="1.0" fill="#fff" transform="matrix(1.0,0.0,0.0,1.0,0.0,0.0)"/></marker><marker id="ProcessOnMarker1159" markerUnits="userSpaceOnUse" orient="auto" markerWidth="14.118033988749895" markerHeight="9.174454630060925" viewBox="-0.5 -0.6881909602355868 14.118033988749895 9.174454630060925" refX="-0.5" refY="3.8990363547948754"><path id="ProcessOnPath1160" d="M12.0 3.8990363547948754L0.0 7.798072709589751V0.0Z" stroke="#ffb366" stroke-width="1.0" fill="#fff" transform="matrix(1.0,0.0,0.0,1.0,0.0,0.0)"/></marker></defs><g id="ProcessOnG1002"><path id="ProcessOnPath1003" d="M68.0 22.0H956.0V658.0H68.0V22.0Z" fill="none"/><g id="ProcessOnG1004"><g id="ProcessOnG1005" transform="matrix(1.0,0.0,0.0,1.0,324.0,487.0)" opacity="1.0"><path id="ProcessOnPath1006" d="M0.0 0.0L132.0 0.0L132.0 20.0L0.0 20.0Z" stroke="none" stroke-width="0.0" stroke-dasharray="none" opacity="1.0" fill="none"/><g id="ProcessOnG1007" transform="matrix(1.0,0.0,0.0,1.0,0.0,1.875)"><text id="ProcessOnText1008" fill="#000000" font-size="13" x="65.0" y="13.325" font-family="微软雅黑" font-weight="normal" font-style="normal" text-decoration="none" family="微软雅黑" text-anchor="middle" size="13">v1.ObjectReference</text></g></g><g id="ProcessOnG1009" transform="matrix(1.0,0.0,0.0,1.0,329.0,510.0)" opacity="1.0"><path id="ProcessOnPath1010" d="M0.0 0.0L84.0 0.0L84.0 32.0L0.0 32.0Z" stroke="#323232" stroke-width="2.0" stroke-dasharray="none" opacity="1.0" fill="#ffffff"/><g id="ProcessOnG1011" transform="matrix(1.0,0.0,0.0,1.0,10.0,7.875)"><text id="ProcessOnText1012" fill="#66ffff" font-size="13" x="31.0" y="13.325" font-family="微软雅黑" font-weight="normal" font-style="normal" text-decoration="none" family="微软雅黑" text-anchor="middle" size="13">Kind</text></g></g><g id="ProcessOnG1013" transform="matrix(1.0,0.0,0.0,1.0,329.0,542.0)" opacity="1.0"><path id="ProcessOnPath1014" d="M0.0 0.0L168.0 0.0L168.0 32.0L0.0 32.0Z" stroke="#323232" stroke-width="2.0" stroke-dasharray="none" opacity="1.0" fill="#ffffff"/><g id="ProcessOnG1015" transform="matrix(1.0,0.0,0.0,1.0,10.0,7.875)"><text id="ProcessOnText1016" fill="#000000" font-size="13" x="73.0" y="13.325" font-family="微软雅黑" font-weight="normal" font-style="normal" text-decoration="none" family="微软雅黑" text-anchor="middle" size="13">Namespace</text></g></g><g id="ProcessOnG1017" transform="matrix(1.0,0.0,0.0,1.0,329.0,574.0)" opacity="1.0"><path id="ProcessOnPath1018" d="M0.0 0.0L168.0 0.0L168.0 32.0L0.0 32.0Z" stroke="#323232" stroke-width="2.0" stroke-dasharray="none" opacity="1.0" fill="#ffffff"/><g id="ProcessOnG1019" transform="matrix(1.0,0.0,0.0,1.0,10.0,7.875)"><text id="ProcessOnText1020" fill="#000000" font-size="13" x="73.0" y="13.325" font-family="微软雅黑" font-weight="normal" font-style="normal" text-decoration="none" family="微软雅黑" text-anchor="middle" size="13">APIVersion</text></g></g><g id="ProcessOnG1021" transform="matrix(1.0,0.0,0.0,1.0,413.0,510.0)" opacity="1.0"><path id="ProcessOnPath1022" d="M0.0 0.0L84.0 0.0L84.0 32.0L0.0 32.0Z" stroke="#323232" stroke-width="2.0" stroke-dasharray="none" opacity="1.0" fill="#ffffff"/><g id="ProcessOnG1023" transform="matrix(1.0,0.0,0.0,1.0,10.0,7.875)"><text id="ProcessOnText1024" fill="#000000" font-size="13" x="31.0" y="13.325" font-family="微软雅黑" font-weight="normal" font-style="normal" text-decoration="none" family="微软雅黑" text-anchor="middle" size="13">Name</text></g></g><g id="ProcessOnG1025" transform="matrix(1.0,0.0,0.0,1.0,329.0,606.0)" opacity="1.0"><path id="ProcessOnPath1026" d="M0.0 0.0L168.0 0.0L168.0 32.0L0.0 32.0Z" stroke="#323232" stroke-width="2.0" stroke-dasharray="none" opacity="1.0" fill="#ffffff"/><g id="ProcessOnG1027" transform="matrix(1.0,0.0,0.0,1.0,10.0,7.875)"><text id="ProcessOnText1028" fill="#000000" font-size="13" x="73.0" y="13.325" font-family="微软雅黑" font-weight="normal" font-style="normal" text-decoration="none" family="微软雅黑" text-anchor="middle" size="13">...</text></g></g><g id="ProcessOnG1029" transform="matrix(1.0,0.0,0.0,1.0,118.0,304.0)" opacity="1.0"><path id="ProcessOnPath1030" d="M0.0 0.0L136.0 0.0L136.0 32.0L0.0 32.0Z" stroke="#323232" stroke-width="2.0" stroke-dasharray="10.0 4.0" opacity="1.0" fill="#ffffff"/><g id="ProcessOnG1031" transform="matrix(1.0,0.0,0.0,1.0,10.0,7.875)"><text id="ProcessOnText1032" fill="#000000" font-size="13" x="57.0" y="13.325" font-family="微软雅黑" font-weight="normal" font-style="normal" text-decoration="none" family="微软雅黑" text-anchor="middle" size="13">runtime.Object</text></g></g><g id="ProcessOnG1033"><path id="ProcessOnPath1034" d="M329.0 526.0C233.87986543323228 526.0 186.00000000000003 431.1201345667677 186.0 349.6180339887499" stroke="#323232" stroke-width="1.0" stroke-dasharray="none" fill="none" marker-end="url(#ProcessOnMarker1035)"/><g id="ProcessOnG1037" transform="matrix(1.0,0.0,0.0,1.0,221.82994953746214,460.2473047111317)"><path id="ProcessOnPath1038" d="M0 0H71.0V16.25H0Z" fill="#fff" transform="matrix(1.0,0.0,0.0,1.0,-35.5,0.0)"/><text id="ProcessOnText1039" fill="#000000" font-size="13" x="0.0" y="13.325" font-family="微软雅黑" font-weight="normal" font-style="normal" text-decoration="none" family="微软雅黑" text-anchor="middle" size="13">implements</text></g></g><g id="ProcessOnG1040" transform="matrix(1.0,0.0,0.0,1.0,682.0,397.0)" opacity="1.0"><path id="ProcessOnPath1041" d="M0.0 0.0L107.0 0.0L107.0 20.0L0.0 20.0Z" stroke="none" stroke-width="0.0" stroke-dasharray="none" opacity="1.0" fill="none"/><g id="ProcessOnG1042" transform="matrix(1.0,0.0,0.0,1.0,0.0,1.875)"><text id="ProcessOnText1043" fill="#000000" font-size="13" x="52.5" y="13.325" font-family="微软雅黑" font-weight="normal" font-style="normal" text-decoration="none" family="微软雅黑" text-anchor="middle" size="13">runtime.Scheme</text></g></g><g id="ProcessOnG1044" transform="matrix(1.0,0.0,0.0,1.0,682.0,417.0)" opacity="1.0"><path id="ProcessOnPath1045" d="M0.0 0.0L128.0 0.0L128.0 32.0L0.0 32.0Z" stroke="#323232" stroke-width="2.0" stroke-dasharray="none" opacity="1.0" fill="#ffffff"/></g><g id="ProcessOnG1046" transform="matrix(1.0,0.0,0.0,1.0,307.0,365.0)" opacity="1.0"><path id="ProcessOnPath1047" d="M0.0 0.0L78.0 0.0L78.0 20.0L0.0 20.0Z" stroke="none" stroke-width="0.0" stroke-dasharray="none" opacity="1.0" fill="none"/><g id="ProcessOnG1048" transform="matrix(1.0,0.0,0.0,1.0,0.0,1.875)"><text id="ProcessOnText1049" fill="#000000" font-size="13" x="38.0" y="13.325" font-family="微软雅黑" font-weight="normal" font-style="italic" text-decoration="none" family="微软雅黑" text-anchor="middle" size="13">RealObject</text></g></g><g id="ProcessOnG1050" transform="matrix(1.0,0.0,0.0,1.0,329.0,385.0)" opacity="1.0"><path id="ProcessOnPath1051" d="M0.0 0.0L128.0 0.0L128.0 32.0L0.0 32.0Z" stroke="#323232" stroke-width="2.0" stroke-dasharray="none" opacity="1.0" fill="#ffffff"/></g><g id="ProcessOnG1052"><path id="ProcessOnPath1053" d="M329.0 401.0C274.41062374417527 401.0 209.0 390.58937625582473 209.0 349.6180339887499" stroke="#323232" stroke-width="1.0" stroke-dasharray="none" fill="none" marker-end="url(#ProcessOnMarker1054)"/><g id="ProcessOnG1056" transform="matrix(1.0,0.0,0.0,1.0,248.52898390406574,382.548270344528)"><path id="ProcessOnPath1057" d="M0 0H71.0V16.25H0Z" fill="#fff" transform="matrix(1.0,0.0,0.0,1.0,-35.5,0.0)"/><text id="ProcessOnText1058" fill="#000000" font-size="13" x="0.0" y="13.325" font-family="微软雅黑" font-weight="normal" font-style="normal" text-decoration="none" family="微软雅黑" text-anchor="middle" size="13">implements</text></g></g><g id="ProcessOnG1059"><path id="ProcessOnPath1060" d="M393.0 417.0C393.0 455.2266922450792 371.0 471.7733077549208 371.0 510.0" stroke="#66ffff" stroke-width="1.0" stroke-dasharray="5.0 2.0" fill="none" marker-end="url(#ProcessOnMarker1061)"/><g id="ProcessOnG1063" transform="matrix(1.0,0.0,0.0,1.0,382.0,455.375)"><path id="ProcessOnPath1064" d="M0 0H127.0V16.25H0Z" fill="#fff" transform="matrix(1.0,0.0,0.0,1.0,-63.5,0.0)"/><text id="ProcessOnText1065" fill="#000000" font-size="13" x="0.0" y="13.325" font-family="微软雅黑" font-weight="normal" font-style="normal" text-decoration="none" family="微软雅黑" text-anchor="middle" size="13">1. GetObjectKind set</text></g></g><g id="ProcessOnG1066"><path id="ProcessOnPath1067" d="M457.0 401.0C547.9056653900075 401.0 591.0943346099925 433.0 682.0 433.0" stroke="#66ffff" stroke-width="1.0" stroke-dasharray="5.0 2.0" fill="none"/><g id="ProcessOnG1068" transform="matrix(1.0,0.0,0.0,1.0,569.5,408.875)"><path id="ProcessOnPath1069" d="M0 0H97.0V16.25H0Z" fill="#fff" transform="matrix(1.0,0.0,0.0,1.0,-48.5,0.0)"/><text id="ProcessOnText1070" fill="#000000" font-size="13" x="0.0" y="13.325" font-family="微软雅黑" font-weight="normal" font-style="normal" text-decoration="none" family="微软雅黑" text-anchor="middle" size="13">2. ObjectKinds()</text></g></g><g id="ProcessOnG1071"><path id="ProcessOnPath1072" d="M682.0 433.0C580.0 482.0 385.0 387.27233400736407 385.0 510.0" stroke="#66ffff" stroke-width="1.0" stroke-dasharray="5.0 2.0" fill="none" marker-end="url(#ProcessOnMarker1073)"/><g id="ProcessOnG1075" transform="matrix(1.0,0.0,0.0,1.0,495.25,435.72712525276154)"><path id="ProcessOnPath1076" d="M0 0H52.0V16.25H0Z" fill="#fff" transform="matrix(1.0,0.0,0.0,1.0,-26.0,0.0)"/><text id="ProcessOnText1077" fill="#000000" font-size="13" x="0.0" y="13.325" font-family="微软雅黑" font-weight="normal" font-style="normal" text-decoration="none" family="微软雅黑" text-anchor="middle" size="13">gvk.Kind</text></g></g><g id="ProcessOnG1078" transform="matrix(1.0,0.0,0.0,1.0,470.0,50.0)" opacity="1.0"><path id="ProcessOnPath1079" d="M0.0 0.0L136.0 0.0L136.0 32.0L0.0 32.0Z" stroke="#323232" stroke-width="2.0" stroke-dasharray="10.0 4.0" opacity="1.0" fill="#ffffff"/><g id="ProcessOnG1080" transform="matrix(1.0,0.0,0.0,1.0,10.0,7.875)"><text id="ProcessOnText1081" fill="#000000" font-size="13" x="57.0" y="13.325" font-family="微软雅黑" font-weight="normal" font-style="normal" text-decoration="none" family="微软雅黑" text-anchor="middle" size="13">metav1.Object</text></g></g><g id="ProcessOnG1082" transform="matrix(1.0,0.0,0.0,1.0,736.0,50.0)" opacity="1.0"><path id="ProcessOnPath1083" d="M0.0 0.0L200.0 0.0L200.0 32.0L0.0 32.0Z" stroke="#323232" stroke-width="2.0" stroke-dasharray="10.0 4.0" opacity="1.0" fill="#ffffff"/><g id="ProcessOnG1084" transform="matrix(1.0,0.0,0.0,1.0,10.0,7.875)"><text id="ProcessOnText1085" fill="#000000" font-size="13" x="89.0" y="13.325" font-family="微软雅黑" font-weight="normal" font-style="normal" text-decoration="none" family="微软雅黑" text-anchor="middle" size="13">metav1.ObjectMetaAccessor</text></g></g><g id="ProcessOnG1086"><path id="ProcessOnPath1087" d="M736.0 66.0C678.0 116.0 658.0 66.0 606.0 66.0" stroke="#323232" stroke-width="1.0" stroke-dasharray="5.0 2.0" fill="none" marker-end="url(#ProcessOnMarker1088)"/><g id="ProcessOnG1090" transform="matrix(1.0,0.0,0.0,1.0,668.75,76.625)"><path id="ProcessOnPath1091" d="M0 0H44.0V16.25H0Z" fill="#fff" transform="matrix(1.0,0.0,0.0,1.0,-22.0,0.0)"/><text id="ProcessOnText1092" fill="#000000" font-size="13" x="0.0" y="13.325" font-family="微软雅黑" font-weight="normal" font-style="normal" text-decoration="none" family="微软雅黑" text-anchor="middle" size="13">returns</text></g></g><g id="ProcessOnG1093" transform="matrix(1.0,0.0,0.0,1.0,611.0,136.0)" opacity="1.0"><path id="ProcessOnPath1094" d="M0.0 0.0L136.0 0.0L136.0 32.0L0.0 32.0Z" stroke="#323232" stroke-width="2.0" stroke-dasharray="10.0 4.0" opacity="1.0" fill="#ffffff"/><g id="ProcessOnG1095" transform="matrix(1.0,0.0,0.0,1.0,10.0,7.875)"><text id="ProcessOnText1096" fill="#000000" font-size="13" x="57.0" y="13.325" font-family="微软雅黑" font-weight="normal" font-style="normal" text-decoration="none" family="微软雅黑" text-anchor="middle" size="13">metav1.Common</text></g></g><g id="ProcessOnG1097"><path id="ProcessOnPath1098" d="M611.0 152.0C570.5445924504523 152.0 538.0 122.45540754954769 538.0 82.0" stroke="#323232" stroke-width="1.0" stroke-dasharray="5.0 2.0" fill="none" marker-end="url(#ProcessOnMarker1099)"/><g id="ProcessOnG1101" transform="matrix(1.0,0.0,0.0,1.0,559.3292221689196,124.04577783108039)"><path id="ProcessOnPath1102" d="M0 0H57.0V16.25H0Z" fill="#fff" transform="matrix(1.0,0.0,0.0,1.0,-28.5,0.0)"/><text id="ProcessOnText1103" fill="#000000" font-size="13" x="0.0" y="13.325" font-family="微软雅黑" font-weight="normal" font-style="normal" text-decoration="none" family="微软雅黑" text-anchor="middle" size="13">subset of</text></g></g><g id="ProcessOnG1104" transform="matrix(1.0,0.0,0.0,1.0,88.0,149.0)" opacity="1.0"><path id="ProcessOnPath1105" d="M0.0 0.0L136.0 0.0L136.0 32.0L0.0 32.0Z" stroke="#323232" stroke-width="2.0" stroke-dasharray="10.0 4.0" opacity="1.0" fill="#ffffff"/><g id="ProcessOnG1106" transform="matrix(1.0,0.0,0.0,1.0,10.0,7.875)"><text id="ProcessOnText1107" fill="#000000" font-size="13" x="57.0" y="13.325" font-family="微软雅黑" font-weight="normal" font-style="normal" text-decoration="none" family="微软雅黑" text-anchor="middle" size="13">metav1.List</text></g></g><g id="ProcessOnG1108" transform="matrix(1.0,0.0,0.0,1.0,291.0,149.0)" opacity="1.0"><path id="ProcessOnPath1109" d="M0.0 0.0L150.0 0.0L150.0 32.0L0.0 32.0Z" stroke="#323232" stroke-width="2.0" stroke-dasharray="10.0 4.0" opacity="1.0" fill="#ffffff"/><g id="ProcessOnG1110" transform="matrix(1.0,0.0,0.0,1.0,10.0,7.875)"><text id="ProcessOnText1111" fill="#000000" font-size="13" x="64.0" y="13.325" font-family="微软雅黑" font-weight="normal" font-style="normal" text-decoration="none" family="微软雅黑" text-anchor="middle" size="13">metav1.ListInterface</text></g></g><g id="ProcessOnG1112" transform="matrix(1.0,0.0,0.0,1.0,243.0,42.0)" opacity="1.0"><path id="ProcessOnPath1113" d="M0.0 0.0L180.0 0.0L180.0 32.0L0.0 32.0Z" stroke="#323232" stroke-width="2.0" stroke-dasharray="10.0 4.0" opacity="1.0" fill="#ffffff"/><g id="ProcessOnG1114" transform="matrix(1.0,0.0,0.0,1.0,10.0,7.875)"><text id="ProcessOnText1115" fill="#000000" font-size="13" x="79.0" y="13.325" font-family="微软雅黑" font-weight="normal" font-style="normal" text-decoration="none" family="微软雅黑" text-anchor="middle" size="13">metav1.ListMetaAccessor</text></g></g><g id="ProcessOnG1116"><path id="ProcessOnPath1117" d="M243.0 58.0C192.6412867519433 58.0 156.0 98.64128675194331 156.0 149.0" stroke="#323232" stroke-width="1.0" stroke-dasharray="5.0 2.0" fill="none" marker-end="url(#ProcessOnMarker1118)"/><g id="ProcessOnG1120" transform="matrix(1.0,0.0,0.0,1.0,180.61548253197873,76.49048253197874)"><path id="ProcessOnPath1121" d="M0 0H44.0V16.25H0Z" fill="#fff" transform="matrix(1.0,0.0,0.0,1.0,-22.0,0.0)"/><text id="ProcessOnText1122" fill="#000000" font-size="13" x="0.0" y="13.325" font-family="微软雅黑" font-weight="normal" font-style="normal" text-decoration="none" family="微软雅黑" text-anchor="middle" size="13">returns</text></g></g><g id="ProcessOnG1123"><path id="ProcessOnPath1124" d="M611.0 152.0C542.8014662914223 152.0 509.19853370857766 165.0 441.0 165.0" stroke="#323232" stroke-width="1.0" stroke-dasharray="5.0 2.0" fill="none" marker-end="url(#ProcessOnMarker1125)"/><g id="ProcessOnG1127" transform="matrix(1.0,0.0,0.0,1.0,526.0,150.375)"><path id="ProcessOnPath1128" d="M0 0H57.0V16.25H0Z" fill="#fff" transform="matrix(1.0,0.0,0.0,1.0,-28.5,0.0)"/><text id="ProcessOnText1129" fill="#000000" font-size="13" x="0.0" y="13.325" font-family="微软雅黑" font-weight="normal" font-style="normal" text-decoration="none" family="微软雅黑" text-anchor="middle" size="13">subset of</text></g></g><g id="ProcessOnG1130"><path id="ProcessOnPath1131" d="M611.0 152.0C477.0 197.0 183.0 302.0 156.0 181.0" stroke="#323232" stroke-width="1.0" stroke-dasharray="5.0 2.0" fill="none" marker-end="url(#ProcessOnMarker1132)"/><g id="ProcessOnG1134" transform="matrix(1.0,0.0,0.0,1.0,343.375,220.625)"><path id="ProcessOnPath1135" d="M0 0H57.0V16.25H0Z" fill="#fff" transform="matrix(1.0,0.0,0.0,1.0,-28.5,0.0)"/><text id="ProcessOnText1136" fill="#000000" font-size="13" x="0.0" y="13.325" font-family="微软雅黑" font-weight="normal" font-style="normal" text-decoration="none" family="微软雅黑" text-anchor="middle" size="13">subset of</text></g></g><g id="ProcessOnG1137"><path id="ProcessOnPath1138" d="M393.0 385.0C393.0 248.35915691126607 119.00000000000003 317.64084308873396 119.0 194.6180339887499" stroke="#ffb366" stroke-width="1.0" stroke-dasharray="5.0 2.0" fill="none" marker-end="url(#ProcessOnMarker1139)"/></g><g id="ProcessOnG1141"><path id="ProcessOnPath1142" d="M393.0 385.0C393.0 302.6883969297159 366.0 263.3116030702841 366.0 194.6180339887499" stroke="#ffb366" stroke-width="1.0" stroke-dasharray="5.0 2.0" fill="none" marker-end="url(#ProcessOnMarker1143)"/></g><g id="ProcessOnG1145"><path id="ProcessOnPath1146" d="M393.0 385.0C393.0 249.8585925779963 245.0 214.0 259.45371866226645 87.52996170516843" stroke="#ffb366" stroke-width="1.0" stroke-dasharray="5.0 2.0" fill="none" marker-end="url(#ProcessOnMarker1147)"/></g><g id="ProcessOnG1149"><path id="ProcessOnPath1150" d="M393.0 385.0C393.0 257.24398252919747 494.0 209.75601747080253 494.0 95.6180339887499" stroke="#ffb366" stroke-width="1.0" stroke-dasharray="5.0 2.0" fill="none" marker-end="url(#ProcessOnMarker1151)"/></g><g id="ProcessOnG1153"><path id="ProcessOnPath1154" d="M393.0 385.0C393.0 241.3977716050339 679.0 311.6022283949661 679.0 181.6180339887499" stroke="#ffb366" stroke-width="1.0" stroke-dasharray="5.0 2.0" fill="none" marker-end="url(#ProcessOnMarker1155)"/></g><g id="ProcessOnG1157"><path id="ProcessOnPath1158" d="M393.0 385.0C478.0 213.0 921.0 305.0 840.8503292909602 94.72498155157801" stroke="#ffb366" stroke-width="1.0" stroke-dasharray="5.0 2.0" fill="none" marker-end="url(#ProcessOnMarker1159)"/></g></g></g></svg>