<svg xmlns="http://www.w3.org/2000/svg" xmlns:xlink="http://www.w3.org/1999/xlink" id="processonSvg1000" viewBox="10.0 13.0 1298.0 1312.0" width="1298.0" height="1312.0"><defs id="ProcessOnDefs1001"><marker id="ProcessOnMarker1113" markerUnits="userSpaceOnUse" orient="auto" markerWidth="14.289086868996552" markerHeight="19.055054660878554" viewBox="-0.5877852522924731 -0.8090169943749475 14.289086868996552 19.055054660878554" refX="12.0" refY="8.71851033606433"><path id="ProcessOnPath1114" d="M0 0L12.0 8.71851033606433L0 17.43702067212866" stroke="#323232" stroke-width="2.0" fill="none" transform="matrix(1.0,0.0,0.0,1.0,0.0,0.0)"/></marker><marker id="ProcessOnMarker1161" markerUnits="userSpaceOnUse" orient="auto" markerWidth="14.289086868996552" markerHeight="19.055054660878554" viewBox="-0.5877852522924731 -0.8090169943749475 14.289086868996552 19.055054660878554" refX="12.0" refY="8.71851033606433"><path id="ProcessOnPath1162" d="M0 0L12.0 8.71851033606433L0 17.43702067212866" stroke="#323232" stroke-width="2.0" fill="none" transform="matrix(1.0,0.0,0.0,1.0,0.0,0.0)"/></marker><marker id="ProcessOnMarker1165" markerUnits="userSpaceOnUse" orient="auto" markerWidth="14.289086868996552" markerHeight="19.055054660878554" viewBox="-0.5877852522924731 -0.8090169943749475 14.289086868996552 19.055054660878554" refX="12.0" refY="8.71851033606433"><path id="ProcessOnPath1166" d="M0 0L12.0 8.71851033606433L0 17.43702067212866" stroke="#323232" stroke-width="2.0" fill="none" transform="matrix(1.0,0.0,0.0,1.0,0.0,0.0)"/></marker><marker id="ProcessOnMarker1177" markerUnits="userSpaceOnUse" orient="auto" markerWidth="14.289086868996552" markerHeight="19.055054660878554" viewBox="-0.5877852522924731 -0.8090169943749475 14.289086868996552 19.055054660878554" refX="12.0" refY="8.71851033606433"><path id="ProcessOnPath1178" d="M0 0L12.0 8.71851033606433L0 17.43702067212866" stroke="#323232" stroke-width="2.0" fill="none" transform="matrix(1.0,0.0,0.0,1.0,0.0,0.0)"/></marker><marker id="ProcessOnMarker1196" markerUnits="userSpaceOnUse" orient="auto" markerWidth="14.289086868996552" markerHeight="19.055054660878554" viewBox="-0.5877852522924731 -0.8090169943749475 14.289086868996552 19.055054660878554" refX="12.0" refY="8.71851033606433"><path id="ProcessOnPath1197" d="M0 0L12.0 8.71851033606433L0 17.43702067212866" stroke="#ffb366" stroke-width="2.0" fill="none" transform="matrix(1.0,0.0,0.0,1.0,0.0,0.0)"/></marker><marker id="ProcessOnMarker1219" markerUnits="userSpaceOnUse" orient="auto" markerWidth="14.289086868996552" markerHeight="19.055054660878554" viewBox="-0.5877852522924731 -0.8090169943749475 14.289086868996552 19.055054660878554" refX="12.0" refY="8.71851033606433"><path id="ProcessOnPath1220" d="M0 0L12.0 8.71851033606433L0 17.43702067212866" stroke="#ffb366" stroke-width="2.0" fill="none" transform="matrix(1.0,0.0,0.0,1.0,0.0,0.0)"/></marker><marker id="ProcessOnMarker1251" markerUnits="userSpaceOnUse" orient="auto" markerWidth="14.289086868996552" markerHeight="19.055054660878554" viewBox="-0.5877852522924731 -0.8090169943749475 14.289086868996552 19.055054660878554" refX="12.0" refY="8.71851033606433"><path id="ProcessOnPath1252" d="M0 0L12.0 8.71851033606433L0 17.43702067212866" stroke="#323232" stroke-width="2.0" fill="none" transform="matrix(1.0,0.0,0.0,1.0,0.0,0.0)"/></marker><marker id="ProcessOnMarker1271" markerUnits="userSpaceOnUse" orient="auto" markerWidth="14.289086868996552" markerHeight="19.055054660878554" viewBox="-0.5877852522924731 -0.8090169943749475 14.289086868996552 19.055054660878554" refX="12.0" refY="8.71851033606433"><path id="ProcessOnPath1272" d="M0 0L12.0 8.71851033606433L0 17.43702067212866" stroke="#323232" stroke-width="2.0" fill="none" transform="matrix(1.0,0.0,0.0,1.0,0.0,0.0)"/></marker></defs><g id="ProcessOnG1002"><path id="ProcessOnPath1003" d="M10.0 13.0H1308.0V1325.0H10.0V13.0Z" fill="none"/><g id="ProcessOnG1004"><g id="ProcessOnG1005" transform="matrix(1.0,0.0,0.0,1.0,132.0,103.0)" opacity="1.0"><path id="ProcessOnPath1006" d="M0.0 0.0L204.0 0.0L204.0 32.0L0.0 32.0Z" stroke="#323232" stroke-width="2.0" stroke-dasharray="none" opacity="1.0" fill="#ffffff"/><g id="ProcessOnG1007" transform="matrix(1.0,0.0,0.0,1.0,10.0,7.875)"><text id="ProcessOnText1008" fill="#000000" font-size="13" x="91.0" y="13.325" font-family="微软雅黑" font-weight="normal" font-style="normal" text-decoration="none" family="微软雅黑" text-anchor="middle" size="13">Name</text></g></g><g id="ProcessOnG1009" transform="matrix(1.0,0.0,0.0,1.0,132.0,81.0)" opacity="1.0"><path id="ProcessOnPath1010" d="M0.0 0.0L84.0 0.0L84.0 22.0L0.0 22.0Z" stroke="none" stroke-width="0.0" stroke-dasharray="none" opacity="1.0" fill="none"/><g id="ProcessOnG1011" transform="matrix(1.0,0.0,0.0,1.0,0.0,2.875)"><text id="ProcessOnText1012" fill="#000000" font-size="13" x="0.0" y="13.325" font-family="微软雅黑" font-weight="normal" font-style="normal" text-decoration="none" family="微软雅黑" text-anchor="start" size="13">ObjectMeta</text></g></g><g id="ProcessOnG1013" transform="matrix(1.0,0.0,0.0,1.0,132.0,135.0)" opacity="1.0"><path id="ProcessOnPath1014" d="M0.0 0.0L204.0 0.0L204.0 32.0L0.0 32.0Z" stroke="#323232" stroke-width="2.0" stroke-dasharray="none" opacity="1.0" fill="#ffffff"/><g id="ProcessOnG1015" transform="matrix(1.0,0.0,0.0,1.0,10.0,7.875)"><text id="ProcessOnText1016" fill="#000000" font-size="13" x="91.0" y="13.325" font-family="微软雅黑" font-weight="normal" font-style="normal" text-decoration="none" family="微软雅黑" text-anchor="middle" size="13">GenerateName</text></g></g><g id="ProcessOnG1017" transform="matrix(1.0,0.0,0.0,1.0,132.0,167.0)" opacity="1.0"><path id="ProcessOnPath1018" d="M0.0 0.0L204.0 0.0L204.0 32.0L0.0 32.0Z" stroke="#323232" stroke-width="2.0" stroke-dasharray="none" opacity="1.0" fill="#ffffff"/><g id="ProcessOnG1019" transform="matrix(1.0,0.0,0.0,1.0,10.0,7.875)"><text id="ProcessOnText1020" fill="#000000" font-size="13" x="91.0" y="13.325" font-family="微软雅黑" font-weight="normal" font-style="normal" text-decoration="none" family="微软雅黑" text-anchor="middle" size="13">Namespace</text></g></g><g id="ProcessOnG1021" transform="matrix(1.0,0.0,0.0,1.0,132.0,199.0)" opacity="1.0"><path id="ProcessOnPath1022" d="M0.0 0.0L204.0 0.0L204.0 32.0L0.0 32.0Z" stroke="#323232" stroke-width="2.0" stroke-dasharray="none" opacity="1.0" fill="#ffffff"/><g id="ProcessOnG1023" transform="matrix(1.0,0.0,0.0,1.0,10.0,7.875)"><text id="ProcessOnText1024" fill="#000000" font-size="13" x="91.0" y="13.325" font-family="微软雅黑" font-weight="normal" font-style="normal" text-decoration="none" family="微软雅黑" text-anchor="middle" size="13">SelfLink</text></g></g><g id="ProcessOnG1025" transform="matrix(1.0,0.0,0.0,1.0,132.0,231.0)" opacity="1.0"><path id="ProcessOnPath1026" d="M0.0 0.0L204.0 0.0L204.0 32.0L0.0 32.0Z" stroke="#323232" stroke-width="2.0" stroke-dasharray="none" opacity="1.0" fill="#ffffff"/><g id="ProcessOnG1027" transform="matrix(1.0,0.0,0.0,1.0,10.0,7.875)"><text id="ProcessOnText1028" fill="#000000" font-size="13" x="91.0" y="13.325" font-family="微软雅黑" font-weight="normal" font-style="normal" text-decoration="none" family="微软雅黑" text-anchor="middle" size="13">UID</text></g></g><g id="ProcessOnG1029" transform="matrix(1.0,0.0,0.0,1.0,132.0,263.0)" opacity="1.0"><path id="ProcessOnPath1030" d="M0.0 0.0L204.0 0.0L204.0 32.0L0.0 32.0Z" stroke="#323232" stroke-width="2.0" stroke-dasharray="none" opacity="1.0" fill="#ffffff"/><g id="ProcessOnG1031" transform="matrix(1.0,0.0,0.0,1.0,10.0,7.875)"><text id="ProcessOnText1032" fill="#000000" font-size="13" x="91.0" y="13.325" font-family="微软雅黑" font-weight="normal" font-style="normal" text-decoration="none" family="微软雅黑" text-anchor="middle" size="13">ResourceVersion</text></g></g><g id="ProcessOnG1033" transform="matrix(1.0,0.0,0.0,1.0,132.0,295.0)" opacity="1.0"><path id="ProcessOnPath1034" d="M0.0 0.0L204.0 0.0L204.0 32.0L0.0 32.0Z" stroke="#323232" stroke-width="2.0" stroke-dasharray="none" opacity="1.0" fill="#ffffff"/><g id="ProcessOnG1035" transform="matrix(1.0,0.0,0.0,1.0,10.0,7.875)"><text id="ProcessOnText1036" fill="#000000" font-size="13" x="91.0" y="13.325" font-family="微软雅黑" font-weight="normal" font-style="normal" text-decoration="none" family="微软雅黑" text-anchor="middle" size="13">Generation</text></g></g><g id="ProcessOnG1037" transform="matrix(1.0,0.0,0.0,1.0,132.0,327.0)" opacity="1.0"><path id="ProcessOnPath1038" d="M0.0 0.0L204.0 0.0L204.0 32.0L0.0 32.0Z" stroke="#323232" stroke-width="2.0" stroke-dasharray="none" opacity="1.0" fill="#ffffff"/><g id="ProcessOnG1039" transform="matrix(1.0,0.0,0.0,1.0,10.0,7.875)"><text id="ProcessOnText1040" fill="#000000" font-size="13" x="91.0" y="13.325" font-family="微软雅黑" font-weight="normal" font-style="normal" text-decoration="none" family="微软雅黑" text-anchor="middle" size="13">CreationTimestamp</text></g></g><g id="ProcessOnG1041" transform="matrix(1.0,0.0,0.0,1.0,132.0,359.0)" opacity="1.0"><path id="ProcessOnPath1042" d="M0.0 0.0L204.0 0.0L204.0 32.0L0.0 32.0Z" stroke="#323232" stroke-width="2.0" stroke-dasharray="none" opacity="1.0" fill="#ffffff"/><g id="ProcessOnG1043" transform="matrix(1.0,0.0,0.0,1.0,10.0,7.875)"><text id="ProcessOnText1044" fill="#000000" font-size="13" x="91.0" y="13.325" font-family="微软雅黑" font-weight="normal" font-style="normal" text-decoration="none" family="微软雅黑" text-anchor="middle" size="13">DeletionTimestamp</text></g></g><g id="ProcessOnG1045" transform="matrix(1.0,0.0,0.0,1.0,132.0,391.0)" opacity="1.0"><path id="ProcessOnPath1046" d="M0.0 0.0L204.0 0.0L204.0 32.0L0.0 32.0Z" stroke="#323232" stroke-width="2.0" stroke-dasharray="none" opacity="1.0" fill="#ffffff"/><g id="ProcessOnG1047" transform="matrix(1.0,0.0,0.0,1.0,10.0,7.875)"><text id="ProcessOnText1048" fill="#000000" font-size="13" x="91.0" y="13.325" font-family="微软雅黑" font-weight="normal" font-style="normal" text-decoration="none" family="微软雅黑" text-anchor="middle" size="13">DeletionGracePeriodSeconds</text></g></g><g id="ProcessOnG1049" transform="matrix(1.0,0.0,0.0,1.0,132.0,423.0)" opacity="1.0"><path id="ProcessOnPath1050" d="M0.0 0.0L204.0 0.0L204.0 32.0L0.0 32.0Z" stroke="#323232" stroke-width="2.0" stroke-dasharray="none" opacity="1.0" fill="#ffffff"/><g id="ProcessOnG1051" transform="matrix(1.0,0.0,0.0,1.0,10.0,7.875)"><text id="ProcessOnText1052" fill="#000000" font-size="13" x="91.0" y="13.325" font-family="微软雅黑" font-weight="normal" font-style="normal" text-decoration="none" family="微软雅黑" text-anchor="middle" size="13">Labels</text></g></g><g id="ProcessOnG1053" transform="matrix(1.0,0.0,0.0,1.0,132.0,455.0)" opacity="1.0"><path id="ProcessOnPath1054" d="M0.0 0.0L204.0 0.0L204.0 32.0L0.0 32.0Z" stroke="#323232" stroke-width="2.0" stroke-dasharray="none" opacity="1.0" fill="#ffffff"/><g id="ProcessOnG1055" transform="matrix(1.0,0.0,0.0,1.0,10.0,7.875)"><text id="ProcessOnText1056" fill="#000000" font-size="13" x="91.0" y="13.325" font-family="微软雅黑" font-weight="normal" font-style="normal" text-decoration="none" family="微软雅黑" text-anchor="middle" size="13">Annotations</text></g></g><g id="ProcessOnG1057" transform="matrix(1.0,0.0,0.0,1.0,132.0,487.0)" opacity="1.0"><path id="ProcessOnPath1058" d="M0.0 0.0L204.0 0.0L204.0 32.0L0.0 32.0Z" stroke="#323232" stroke-width="2.0" stroke-dasharray="none" opacity="1.0" fill="#ffffff"/><g id="ProcessOnG1059" transform="matrix(1.0,0.0,0.0,1.0,10.0,7.875)"><text id="ProcessOnText1060" fill="#000000" font-size="13" x="91.0" y="13.325" font-family="微软雅黑" font-weight="normal" font-style="normal" text-decoration="none" family="微软雅黑" text-anchor="middle" size="13">OwnerReferences</text></g></g><g id="ProcessOnG1061" transform="matrix(1.0,0.0,0.0,1.0,132.0,519.0)" opacity="1.0"><path id="ProcessOnPath1062" d="M0.0 0.0L204.0 0.0L204.0 32.0L0.0 32.0Z" stroke="#323232" stroke-width="2.0" stroke-dasharray="none" opacity="1.0" fill="#ffffff"/><g id="ProcessOnG1063" transform="matrix(1.0,0.0,0.0,1.0,10.0,7.875)"><text id="ProcessOnText1064" fill="#000000" font-size="13" x="91.0" y="13.325" font-family="微软雅黑" font-weight="normal" font-style="normal" text-decoration="none" family="微软雅黑" text-anchor="middle" size="13">Initializers</text></g></g><g id="ProcessOnG1065" transform="matrix(1.0,0.0,0.0,1.0,132.0,551.0)" opacity="1.0"><path id="ProcessOnPath1066" d="M0.0 0.0L204.0 0.0L204.0 32.0L0.0 32.0Z" stroke="#323232" stroke-width="2.0" stroke-dasharray="none" opacity="1.0" fill="#ffffff"/><g id="ProcessOnG1067" transform="matrix(1.0,0.0,0.0,1.0,10.0,7.875)"><text id="ProcessOnText1068" fill="#000000" font-size="13" x="91.0" y="13.325" font-family="微软雅黑" font-weight="normal" font-style="normal" text-decoration="none" family="微软雅黑" text-anchor="middle" size="13">Finalizers</text></g></g><g id="ProcessOnG1069" transform="matrix(1.0,0.0,0.0,1.0,132.0,583.0)" opacity="1.0"><path id="ProcessOnPath1070" d="M0.0 0.0L204.0 0.0L204.0 32.0L0.0 32.0Z" stroke="#323232" stroke-width="2.0" stroke-dasharray="none" opacity="1.0" fill="#ffffff"/><g id="ProcessOnG1071" transform="matrix(1.0,0.0,0.0,1.0,10.0,7.875)"><text id="ProcessOnText1072" fill="#000000" font-size="13" x="91.0" y="13.325" font-family="微软雅黑" font-weight="normal" font-style="normal" text-decoration="none" family="微软雅黑" text-anchor="middle" size="13">ClusterName</text></g></g><g id="ProcessOnG1073"><path id="ProcessOnPath1074" d="M30.0 660.0L647.0 660.0L647.0 660.0L1264.0 660.0" stroke="#323232" stroke-width="2.0" stroke-dasharray="10.0 4.0" fill="none"/></g><g id="ProcessOnG1075" transform="matrix(1.0,0.0,0.0,1.0,30.0,33.0)" opacity="1.0"><path id="ProcessOnPath1076" d="M0.0 0.0L140.0 0.0L140.0 31.0L0.0 31.0Z" stroke="none" stroke-width="0.0" stroke-dasharray="none" opacity="1.0" fill="none"/><g id="ProcessOnG1077" transform="matrix(1.0,0.0,0.0,1.0,0.0,3.0)"><text id="ProcessOnText1078" fill="#000000" font-size="20" x="0.0" y="20.5" font-family="微软雅黑" font-weight="bold" font-style="normal" text-decoration="none" family="微软雅黑" text-anchor="start" size="20">api/core/v1</text></g></g><g id="ProcessOnG1079" transform="matrix(1.0,0.0,0.0,1.0,30.0,667.0)" opacity="1.0"><path id="ProcessOnPath1080" d="M0.0 0.0L332.0 0.0L332.0 32.0L0.0 32.0Z" stroke="none" stroke-width="0.0" stroke-dasharray="none" opacity="1.0" fill="none"/><g id="ProcessOnG1081" transform="matrix(1.0,0.0,0.0,1.0,0.0,3.5)"><text id="ProcessOnText1082" fill="#000000" font-size="20" x="0.0" y="20.5" font-family="微软雅黑" font-weight="bold" font-style="normal" text-decoration="none" family="微软雅黑" text-anchor="start" size="20">apimachinery/pkg/api/meta/v1</text></g></g><g id="ProcessOnG1083" transform="matrix(1.0,0.0,0.0,1.0,170.0,758.0)" opacity="1.0"><path id="ProcessOnPath1084" d="M0.0 0.0L156.0 0.0L156.0 32.0L0.0 32.0Z" stroke="#323232" stroke-width="2.0" stroke-dasharray="none" opacity="1.0" fill="#ffffff"/><g id="ProcessOnG1085" transform="matrix(1.0,0.0,0.0,1.0,10.0,7.875)"><text id="ProcessOnText1086" fill="#000000" font-size="13" x="67.0" y="13.325" font-family="微软雅黑" font-weight="normal" font-style="normal" text-decoration="none" family="微软雅黑" text-anchor="middle" size="13">APIVersion</text></g></g><g id="ProcessOnG1087" transform="matrix(1.0,0.0,0.0,1.0,170.0,736.0)" opacity="1.0"><path id="ProcessOnPath1088" d="M0.0 0.0L111.0 0.0L111.0 22.0L0.0 22.0Z" stroke="none" stroke-width="0.0" stroke-dasharray="none" opacity="1.0" fill="none"/><g id="ProcessOnG1089" transform="matrix(1.0,0.0,0.0,1.0,0.0,2.875)"><text id="ProcessOnText1090" fill="#000000" font-size="13" x="0.0" y="13.325" font-family="微软雅黑" font-weight="normal" font-style="normal" text-decoration="none" family="微软雅黑" text-anchor="start" size="13">OwnerReference</text></g></g><g id="ProcessOnG1091" transform="matrix(1.0,0.0,0.0,1.0,170.0,790.0)" opacity="1.0"><path id="ProcessOnPath1092" d="M0.0 0.0L156.0 0.0L156.0 32.0L0.0 32.0Z" stroke="#323232" stroke-width="2.0" stroke-dasharray="none" opacity="1.0" fill="#ffffff"/><g id="ProcessOnG1093" transform="matrix(1.0,0.0,0.0,1.0,10.0,7.875)"><text id="ProcessOnText1094" fill="#000000" font-size="13" x="67.0" y="13.325" font-family="微软雅黑" font-weight="normal" font-style="normal" text-decoration="none" family="微软雅黑" text-anchor="middle" size="13">Kind</text></g></g><g id="ProcessOnG1095" transform="matrix(1.0,0.0,0.0,1.0,170.0,822.0)" opacity="1.0"><path id="ProcessOnPath1096" d="M0.0 0.0L156.0 0.0L156.0 32.0L0.0 32.0Z" stroke="#323232" stroke-width="2.0" stroke-dasharray="none" opacity="1.0" fill="#ffffff"/><g id="ProcessOnG1097" transform="matrix(1.0,0.0,0.0,1.0,10.0,7.875)"><text id="ProcessOnText1098" fill="#000000" font-size="13" x="67.0" y="13.325" font-family="微软雅黑" font-weight="normal" font-style="normal" text-decoration="none" family="微软雅黑" text-anchor="middle" size="13">Name</text></g></g><g id="ProcessOnG1099" transform="matrix(1.0,0.0,0.0,1.0,170.0,854.0)" opacity="1.0"><path id="ProcessOnPath1100" d="M0.0 0.0L156.0 0.0L156.0 32.0L0.0 32.0Z" stroke="#323232" stroke-width="2.0" stroke-dasharray="none" opacity="1.0" fill="#ffffff"/><g id="ProcessOnG1101" transform="matrix(1.0,0.0,0.0,1.0,10.0,7.875)"><text id="ProcessOnText1102" fill="#000000" font-size="13" x="67.0" y="13.325" font-family="微软雅黑" font-weight="normal" font-style="normal" text-decoration="none" family="微软雅黑" text-anchor="middle" size="13">UID</text></g></g><g id="ProcessOnG1103" transform="matrix(1.0,0.0,0.0,1.0,170.0,886.0)" opacity="1.0"><path id="ProcessOnPath1104" d="M0.0 0.0L156.0 0.0L156.0 32.0L0.0 32.0Z" stroke="#323232" stroke-width="2.0" stroke-dasharray="none" opacity="1.0" fill="#ffffff"/><g id="ProcessOnG1105" transform="matrix(1.0,0.0,0.0,1.0,10.0,7.875)"><text id="ProcessOnText1106" fill="#000000" font-size="13" x="67.0" y="13.325" font-family="微软雅黑" font-weight="normal" font-style="normal" text-decoration="none" family="微软雅黑" text-anchor="middle" size="13">Controller</text></g></g><g id="ProcessOnG1107" transform="matrix(1.0,0.0,0.0,1.0,170.0,918.0)" opacity="1.0"><path id="ProcessOnPath1108" d="M0.0 0.0L156.0 0.0L156.0 32.0L0.0 32.0Z" stroke="#323232" stroke-width="2.0" stroke-dasharray="none" opacity="1.0" fill="#ffffff"/><g id="ProcessOnG1109" transform="matrix(1.0,0.0,0.0,1.0,10.0,7.875)"><text id="ProcessOnText1110" fill="#000000" font-size="13" x="67.0" y="13.325" font-family="微软雅黑" font-weight="normal" font-style="normal" text-decoration="none" family="微软雅黑" text-anchor="middle" size="13">BlockOwnerDeletion</text></g></g><g id="ProcessOnG1111"><path id="ProcessOnPath1112" d="M132.0 503.0L102.0 503.0L102.0 760.0L170.46410161513776 760.0" stroke="#323232" stroke-width="2.0" stroke-dasharray="none" fill="none" marker-end="url(#ProcessOnMarker1113)"/></g><g id="ProcessOnG1115" transform="matrix(1.0,0.0,0.0,1.0,487.0,758.0)" opacity="1.0"><path id="ProcessOnPath1116" d="M0.0 0.0L156.0 0.0L156.0 32.0L0.0 32.0Z" stroke="#323232" stroke-width="2.0" stroke-dasharray="none" opacity="1.0" fill="#ffffff"/><g id="ProcessOnG1117" transform="matrix(1.0,0.0,0.0,1.0,10.0,7.875)"><text id="ProcessOnText1118" fill="#000000" font-size="13" x="67.0" y="13.325" font-family="微软雅黑" font-weight="normal" font-style="normal" text-decoration="none" family="微软雅黑" text-anchor="middle" size="13">Pending</text></g></g><g id="ProcessOnG1119" transform="matrix(1.0,0.0,0.0,1.0,487.0,736.0)" opacity="1.0"><path id="ProcessOnPath1120" d="M0.0 0.0L111.0 0.0L111.0 22.0L0.0 22.0Z" stroke="none" stroke-width="0.0" stroke-dasharray="none" opacity="1.0" fill="none"/><g id="ProcessOnG1121" transform="matrix(1.0,0.0,0.0,1.0,0.0,2.875)"><text id="ProcessOnText1122" fill="#000000" font-size="13" x="0.0" y="13.325" font-family="微软雅黑" font-weight="normal" font-style="normal" text-decoration="none" family="微软雅黑" text-anchor="start" size="13">Initializers</text></g></g><g id="ProcessOnG1123" transform="matrix(1.0,0.0,0.0,1.0,487.0,790.0)" opacity="1.0"><path id="ProcessOnPath1124" d="M0.0 0.0L156.0 0.0L156.0 32.0L0.0 32.0Z" stroke="#323232" stroke-width="2.0" stroke-dasharray="none" opacity="1.0" fill="#ffffff"/><g id="ProcessOnG1125" transform="matrix(1.0,0.0,0.0,1.0,10.0,7.875)"><text id="ProcessOnText1126" fill="#000000" font-size="13" x="67.0" y="13.325" font-family="微软雅黑" font-weight="normal" font-style="normal" text-decoration="none" family="微软雅黑" text-anchor="middle" size="13">Result</text></g></g><g id="ProcessOnG1127" transform="matrix(1.0,0.0,0.0,1.0,487.0,940.0)" opacity="1.0"><path id="ProcessOnPath1128" d="M0.0 0.0L156.0 0.0L156.0 32.0L0.0 32.0Z" stroke="#323232" stroke-width="2.0" stroke-dasharray="none" opacity="1.0" fill="#ffffff"/><g id="ProcessOnG1129" transform="matrix(1.0,0.0,0.0,1.0,10.0,7.875)"><text id="ProcessOnText1130" fill="#000000" font-size="13" x="67.0" y="13.325" font-family="微软雅黑" font-weight="normal" font-style="normal" text-decoration="none" family="微软雅黑" text-anchor="middle" size="13">TypeMeta</text></g></g><g id="ProcessOnG1131" transform="matrix(1.0,0.0,0.0,1.0,487.0,918.0)" opacity="1.0"><path id="ProcessOnPath1132" d="M0.0 0.0L111.0 0.0L111.0 22.0L0.0 22.0Z" stroke="none" stroke-width="0.0" stroke-dasharray="none" opacity="1.0" fill="none"/><g id="ProcessOnG1133" transform="matrix(1.0,0.0,0.0,1.0,0.0,2.875)"><text id="ProcessOnText1134" fill="#000000" font-size="13" x="0.0" y="13.325" font-family="微软雅黑" font-weight="normal" font-style="normal" text-decoration="none" family="微软雅黑" text-anchor="start" size="13">Status</text></g></g><g id="ProcessOnG1135" transform="matrix(1.0,0.0,0.0,1.0,487.0,972.0)" opacity="1.0"><path id="ProcessOnPath1136" d="M0.0 0.0L156.0 0.0L156.0 32.0L0.0 32.0Z" stroke="#323232" stroke-width="2.0" stroke-dasharray="none" opacity="1.0" fill="#ffffff"/><g id="ProcessOnG1137" transform="matrix(1.0,0.0,0.0,1.0,10.0,7.875)"><text id="ProcessOnText1138" fill="#000000" font-size="13" x="67.0" y="13.325" font-family="微软雅黑" font-weight="normal" font-style="normal" text-decoration="none" family="微软雅黑" text-anchor="middle" size="13">ListMeta</text></g></g><g id="ProcessOnG1139" transform="matrix(1.0,0.0,0.0,1.0,487.0,1004.0)" opacity="1.0"><path id="ProcessOnPath1140" d="M0.0 0.0L156.0 0.0L156.0 32.0L0.0 32.0Z" stroke="#323232" stroke-width="2.0" stroke-dasharray="none" opacity="1.0" fill="#ffffff"/><g id="ProcessOnG1141" transform="matrix(1.0,0.0,0.0,1.0,10.0,7.875)"><text id="ProcessOnText1142" fill="#000000" font-size="13" x="67.0" y="13.325" font-family="微软雅黑" font-weight="normal" font-style="normal" text-decoration="none" family="微软雅黑" text-anchor="middle" size="13">Status</text></g></g><g id="ProcessOnG1143" transform="matrix(1.0,0.0,0.0,1.0,487.0,1036.0)" opacity="1.0"><path id="ProcessOnPath1144" d="M0.0 0.0L156.0 0.0L156.0 32.0L0.0 32.0Z" stroke="#323232" stroke-width="2.0" stroke-dasharray="none" opacity="1.0" fill="#ffffff"/><g id="ProcessOnG1145" transform="matrix(1.0,0.0,0.0,1.0,10.0,7.875)"><text id="ProcessOnText1146" fill="#000000" font-size="13" x="67.0" y="13.325" font-family="微软雅黑" font-weight="normal" font-style="normal" text-decoration="none" family="微软雅黑" text-anchor="middle" size="13">Message</text></g></g><g id="ProcessOnG1147" transform="matrix(1.0,0.0,0.0,1.0,487.0,1068.0)" opacity="1.0"><path id="ProcessOnPath1148" d="M0.0 0.0L156.0 0.0L156.0 32.0L0.0 32.0Z" stroke="#323232" stroke-width="2.0" stroke-dasharray="none" opacity="1.0" fill="#ffffff"/><g id="ProcessOnG1149" transform="matrix(1.0,0.0,0.0,1.0,10.0,7.875)"><text id="ProcessOnText1150" fill="#000000" font-size="13" x="67.0" y="13.325" font-family="微软雅黑" font-weight="normal" font-style="normal" text-decoration="none" family="微软雅黑" text-anchor="middle" size="13">Reason</text></g></g><g id="ProcessOnG1151" transform="matrix(1.0,0.0,0.0,1.0,487.0,1100.0)" opacity="1.0"><path id="ProcessOnPath1152" d="M0.0 0.0L156.0 0.0L156.0 32.0L0.0 32.0Z" stroke="#323232" stroke-width="2.0" stroke-dasharray="none" opacity="1.0" fill="#ffffff"/><g id="ProcessOnG1153" transform="matrix(1.0,0.0,0.0,1.0,10.0,7.875)"><text id="ProcessOnText1154" fill="#000000" font-size="13" x="67.0" y="13.325" font-family="微软雅黑" font-weight="normal" font-style="normal" text-decoration="none" family="微软雅黑" text-anchor="middle" size="13">Details</text></g></g><g id="ProcessOnG1155" transform="matrix(1.0,0.0,0.0,1.0,487.0,1132.0)" opacity="1.0"><path id="ProcessOnPath1156" d="M0.0 0.0L156.0 0.0L156.0 32.0L0.0 32.0Z" stroke="#323232" stroke-width="2.0" stroke-dasharray="none" opacity="1.0" fill="#ffffff"/><g id="ProcessOnG1157" transform="matrix(1.0,0.0,0.0,1.0,10.0,7.875)"><text id="ProcessOnText1158" fill="#000000" font-size="13" x="67.0" y="13.325" font-family="微软雅黑" font-weight="normal" font-style="normal" text-decoration="none" family="微软雅黑" text-anchor="middle" size="13">Code</text></g></g><g id="ProcessOnG1159"><path id="ProcessOnPath1160" d="M336.0 535.0L348.73205080756884 535.0L348.73205080756884 760.0L487.46410161513774 760.0" stroke="#323232" stroke-width="2.0" stroke-dasharray="none" fill="none" marker-end="url(#ProcessOnMarker1161)"/></g><g id="ProcessOnG1163"><path id="ProcessOnPath1164" d="M487.0 806.0L457.0 806.0L457.0 942.052120859954L487.63815572471543 942.052120859954" stroke="#323232" stroke-width="2.0" stroke-dasharray="none" fill="none" marker-end="url(#ProcessOnMarker1165)"/></g><g id="ProcessOnG1167" transform="matrix(1.0,0.0,0.0,1.0,792.0,758.0)" opacity="1.0"><path id="ProcessOnPath1168" d="M0.0 0.0L156.0 0.0L156.0 32.0L0.0 32.0Z" stroke="#323232" stroke-width="2.0" stroke-dasharray="none" opacity="1.0" fill="#ffffff"/><g id="ProcessOnG1169" transform="matrix(1.0,0.0,0.0,1.0,10.0,7.875)"><text id="ProcessOnText1170" fill="#000000" font-size="13" x="67.0" y="13.325" font-family="微软雅黑" font-weight="normal" font-style="normal" text-decoration="none" family="微软雅黑" text-anchor="middle" size="13">Name</text></g></g><g id="ProcessOnG1171" transform="matrix(1.0,0.0,0.0,1.0,792.0,736.0)" opacity="1.0"><path id="ProcessOnPath1172" d="M0.0 0.0L111.0 0.0L111.0 22.0L0.0 22.0Z" stroke="none" stroke-width="0.0" stroke-dasharray="none" opacity="1.0" fill="none"/><g id="ProcessOnG1173" transform="matrix(1.0,0.0,0.0,1.0,0.0,2.875)"><text id="ProcessOnText1174" fill="#000000" font-size="13" x="0.0" y="13.325" font-family="微软雅黑" font-weight="normal" font-style="normal" text-decoration="none" family="微软雅黑" text-anchor="start" size="13">Initializer</text></g></g><g id="ProcessOnG1175"><path id="ProcessOnPath1176" d="M643.0 774.0L717.5 774.0L717.5 774.0L792.0 774.0" stroke="#323232" stroke-width="2.0" stroke-dasharray="none" fill="none" marker-end="url(#ProcessOnMarker1177)"/><g id="ProcessOnG1179" transform="matrix(1.0,0.0,0.0,1.0,717.5,765.875)"><path id="ProcessOnPath1180" d="M0 0H43.0V16.25H0Z" fill="#fff" transform="matrix(1.0,0.0,0.0,1.0,-21.5,0.0)"/><text id="ProcessOnText1181" fill="#000000" font-size="13" x="0.0" y="13.325" font-family="微软雅黑" font-weight="normal" font-style="normal" text-decoration="none" family="微软雅黑" text-anchor="middle" size="13">slice of</text></g></g><g id="ProcessOnG1182" transform="matrix(1.0,0.0,0.0,1.0,792.0,849.0)" opacity="1.0"><path id="ProcessOnPath1183" d="M0.0 0.0L156.0 0.0L156.0 32.0L0.0 32.0Z" stroke="#323232" stroke-width="2.0" stroke-dasharray="none" opacity="1.0" fill="#ffffff"/><g id="ProcessOnG1184" transform="matrix(1.0,0.0,0.0,1.0,10.0,7.875)"><text id="ProcessOnText1185" fill="#000000" font-size="13" x="67.0" y="13.325" font-family="微软雅黑" font-weight="normal" font-style="normal" text-decoration="none" family="微软雅黑" text-anchor="middle" size="13">Kind</text></g></g><g id="ProcessOnG1186" transform="matrix(1.0,0.0,0.0,1.0,792.0,827.0)" opacity="1.0"><path id="ProcessOnPath1187" d="M0.0 0.0L111.0 0.0L111.0 22.0L0.0 22.0Z" stroke="none" stroke-width="0.0" stroke-dasharray="none" opacity="1.0" fill="none"/><g id="ProcessOnG1188" transform="matrix(1.0,0.0,0.0,1.0,0.0,2.875)"><text id="ProcessOnText1189" fill="#000000" font-size="13" x="0.0" y="13.325" font-family="微软雅黑" font-weight="normal" font-style="normal" text-decoration="none" family="微软雅黑" text-anchor="start" size="13">TypeMeta</text></g></g><g id="ProcessOnG1190" transform="matrix(1.0,0.0,0.0,1.0,792.0,881.0)" opacity="1.0"><path id="ProcessOnPath1191" d="M0.0 0.0L156.0 0.0L156.0 32.0L0.0 32.0Z" stroke="#323232" stroke-width="2.0" stroke-dasharray="none" opacity="1.0" fill="#ffffff"/><g id="ProcessOnG1192" transform="matrix(1.0,0.0,0.0,1.0,10.0,7.875)"><text id="ProcessOnText1193" fill="#000000" font-size="13" x="67.0" y="13.325" font-family="微软雅黑" font-weight="normal" font-style="normal" text-decoration="none" family="微软雅黑" text-anchor="middle" size="13">APIVersion</text></g></g><g id="ProcessOnG1194"><path id="ProcessOnPath1195" d="M643.0 956.0L717.7657694675916 956.0L717.7657694675916 851.1130913087035L792.5315389351832 851.1130913087035" stroke="#ffb366" stroke-width="2.0" stroke-dasharray="none" fill="none" marker-end="url(#ProcessOnMarker1196)"/><g id="ProcessOnG1198" transform="matrix(1.0,0.0,0.0,1.0,717.7657694675916,895.4315456543517)"><path id="ProcessOnPath1199" d="M0 0H102.0V16.25H0Z" fill="#fff" transform="matrix(1.0,0.0,0.0,1.0,-51.0,0.0)"/><text id="ProcessOnText1200" fill="#ffb366" font-size="13" x="0.0" y="13.325" font-family="微软雅黑" font-weight="normal" font-style="normal" text-decoration="none" family="微软雅黑" text-anchor="middle" size="13">anonymous filed</text></g></g><g id="ProcessOnG1201" transform="matrix(1.0,0.0,0.0,1.0,792.0,972.0)" opacity="1.0"><path id="ProcessOnPath1202" d="M0.0 0.0L156.0 0.0L156.0 32.0L0.0 32.0Z" stroke="#323232" stroke-width="2.0" stroke-dasharray="none" opacity="1.0" fill="#ffffff"/><g id="ProcessOnG1203" transform="matrix(1.0,0.0,0.0,1.0,10.0,7.875)"><text id="ProcessOnText1204" fill="#000000" font-size="13" x="67.0" y="13.325" font-family="微软雅黑" font-weight="normal" font-style="normal" text-decoration="none" family="微软雅黑" text-anchor="middle" size="13">SelfLink</text></g></g><g id="ProcessOnG1205" transform="matrix(1.0,0.0,0.0,1.0,792.0,950.0)" opacity="1.0"><path id="ProcessOnPath1206" d="M0.0 0.0L111.0 0.0L111.0 22.0L0.0 22.0Z" stroke="none" stroke-width="0.0" stroke-dasharray="none" opacity="1.0" fill="none"/><g id="ProcessOnG1207" transform="matrix(1.0,0.0,0.0,1.0,0.0,2.875)"><text id="ProcessOnText1208" fill="#000000" font-size="13" x="0.0" y="13.325" font-family="微软雅黑" font-weight="normal" font-style="normal" text-decoration="none" family="微软雅黑" text-anchor="start" size="13">ListMeta</text></g></g><g id="ProcessOnG1209" transform="matrix(1.0,0.0,0.0,1.0,792.0,1004.0)" opacity="1.0"><path id="ProcessOnPath1210" d="M0.0 0.0L156.0 0.0L156.0 32.0L0.0 32.0Z" stroke="#323232" stroke-width="2.0" stroke-dasharray="none" opacity="1.0" fill="#ffffff"/><g id="ProcessOnG1211" transform="matrix(1.0,0.0,0.0,1.0,10.0,7.875)"><text id="ProcessOnText1212" fill="#000000" font-size="13" x="67.0" y="13.325" font-family="微软雅黑" font-weight="normal" font-style="normal" text-decoration="none" family="微软雅黑" text-anchor="middle" size="13">ResourceVersion</text></g></g><g id="ProcessOnG1213" transform="matrix(1.0,0.0,0.0,1.0,792.0,1036.0)" opacity="1.0"><path id="ProcessOnPath1214" d="M0.0 0.0L156.0 0.0L156.0 32.0L0.0 32.0Z" stroke="#323232" stroke-width="2.0" stroke-dasharray="none" opacity="1.0" fill="#ffffff"/><g id="ProcessOnG1215" transform="matrix(1.0,0.0,0.0,1.0,10.0,7.875)"><text id="ProcessOnText1216" fill="#000000" font-size="13" x="67.0" y="13.325" font-family="微软雅黑" font-weight="normal" font-style="normal" text-decoration="none" family="微软雅黑" text-anchor="middle" size="13">Continue</text></g></g><g id="ProcessOnG1217"><path id="ProcessOnPath1218" d="M643.0 988.0L717.766044443119 988.0L717.766044443119 974.2855752193731L792.532088886238 974.2855752193731" stroke="#ffb366" stroke-width="2.0" stroke-dasharray="none" fill="none" marker-end="url(#ProcessOnMarker1219)"/></g><g id="ProcessOnG1221" transform="matrix(1.0,0.0,0.0,1.0,792.0,1113.0)" opacity="1.0"><path id="ProcessOnPath1222" d="M0.0 0.0L156.0 0.0L156.0 32.0L0.0 32.0Z" stroke="#323232" stroke-width="2.0" stroke-dasharray="none" opacity="1.0" fill="#ffffff"/><g id="ProcessOnG1223" transform="matrix(1.0,0.0,0.0,1.0,10.0,7.875)"><text id="ProcessOnText1224" fill="#000000" font-size="13" x="67.0" y="13.325" font-family="微软雅黑" font-weight="normal" font-style="normal" text-decoration="none" family="微软雅黑" text-anchor="middle" size="13">Name</text></g></g><g id="ProcessOnG1225" transform="matrix(1.0,0.0,0.0,1.0,792.0,1091.0)" opacity="1.0"><path id="ProcessOnPath1226" d="M0.0 0.0L111.0 0.0L111.0 22.0L0.0 22.0Z" stroke="none" stroke-width="0.0" stroke-dasharray="none" opacity="1.0" fill="none"/><g id="ProcessOnG1227" transform="matrix(1.0,0.0,0.0,1.0,0.0,2.875)"><text id="ProcessOnText1228" fill="#000000" font-size="13" x="0.0" y="13.325" font-family="微软雅黑" font-weight="normal" font-style="normal" text-decoration="none" family="微软雅黑" text-anchor="start" size="13">StatusDetails</text></g></g><g id="ProcessOnG1229" transform="matrix(1.0,0.0,0.0,1.0,792.0,1145.0)" opacity="1.0"><path id="ProcessOnPath1230" d="M0.0 0.0L156.0 0.0L156.0 32.0L0.0 32.0Z" stroke="#323232" stroke-width="2.0" stroke-dasharray="none" opacity="1.0" fill="#ffffff"/><g id="ProcessOnG1231" transform="matrix(1.0,0.0,0.0,1.0,10.0,7.875)"><text id="ProcessOnText1232" fill="#000000" font-size="13" x="67.0" y="13.325" font-family="微软雅黑" font-weight="normal" font-style="normal" text-decoration="none" family="微软雅黑" text-anchor="middle" size="13">Group</text></g></g><g id="ProcessOnG1233" transform="matrix(1.0,0.0,0.0,1.0,792.0,1177.0)" opacity="1.0"><path id="ProcessOnPath1234" d="M0.0 0.0L156.0 0.0L156.0 32.0L0.0 32.0Z" stroke="#323232" stroke-width="2.0" stroke-dasharray="none" opacity="1.0" fill="#ffffff"/><g id="ProcessOnG1235" transform="matrix(1.0,0.0,0.0,1.0,10.0,7.875)"><text id="ProcessOnText1236" fill="#000000" font-size="13" x="67.0" y="13.325" font-family="微软雅黑" font-weight="normal" font-style="normal" text-decoration="none" family="微软雅黑" text-anchor="middle" size="13">Kind</text></g></g><g id="ProcessOnG1237" transform="matrix(1.0,0.0,0.0,1.0,792.0,1209.0)" opacity="1.0"><path id="ProcessOnPath1238" d="M0.0 0.0L156.0 0.0L156.0 32.0L0.0 32.0Z" stroke="#323232" stroke-width="2.0" stroke-dasharray="none" opacity="1.0" fill="#ffffff"/><g id="ProcessOnG1239" transform="matrix(1.0,0.0,0.0,1.0,10.0,7.875)"><text id="ProcessOnText1240" fill="#000000" font-size="13" x="67.0" y="13.325" font-family="微软雅黑" font-weight="normal" font-style="normal" text-decoration="none" family="微软雅黑" text-anchor="middle" size="13">UID</text></g></g><g id="ProcessOnG1241" transform="matrix(1.0,0.0,0.0,1.0,792.0,1241.0)" opacity="1.0"><path id="ProcessOnPath1242" d="M0.0 0.0L156.0 0.0L156.0 32.0L0.0 32.0Z" stroke="#323232" stroke-width="2.0" stroke-dasharray="none" opacity="1.0" fill="#ffffff"/><g id="ProcessOnG1243" transform="matrix(1.0,0.0,0.0,1.0,10.0,7.875)"><text id="ProcessOnText1244" fill="#000000" font-size="13" x="67.0" y="13.325" font-family="微软雅黑" font-weight="normal" font-style="normal" text-decoration="none" family="微软雅黑" text-anchor="middle" size="13">Causes</text></g></g><g id="ProcessOnG1245" transform="matrix(1.0,0.0,0.0,1.0,792.0,1273.0)" opacity="1.0"><path id="ProcessOnPath1246" d="M0.0 0.0L156.0 0.0L156.0 32.0L0.0 32.0Z" stroke="#323232" stroke-width="2.0" stroke-dasharray="none" opacity="1.0" fill="#ffffff"/><g id="ProcessOnG1247" transform="matrix(1.0,0.0,0.0,1.0,10.0,7.875)"><text id="ProcessOnText1248" fill="#000000" font-size="13" x="67.0" y="13.325" font-family="微软雅黑" font-weight="normal" font-style="normal" text-decoration="none" family="微软雅黑" text-anchor="middle" size="13">RetryAfterSeconds</text></g></g><g id="ProcessOnG1249"><path id="ProcessOnPath1250" d="M643.0 1116.0L717.7287280664334 1116.0L717.7287280664334 1115.7207293090532L792.4574561328669 1115.7207293090532" stroke="#323232" stroke-width="2.0" stroke-dasharray="none" fill="none" marker-end="url(#ProcessOnMarker1251)"/></g><g id="ProcessOnG1253" transform="matrix(1.0,0.0,0.0,1.0,1091.0,1113.0)" opacity="1.0"><path id="ProcessOnPath1254" d="M0.0 0.0L156.0 0.0L156.0 32.0L0.0 32.0Z" stroke="#323232" stroke-width="2.0" stroke-dasharray="none" opacity="1.0" fill="#ffffff"/><g id="ProcessOnG1255" transform="matrix(1.0,0.0,0.0,1.0,10.0,7.875)"><text id="ProcessOnText1256" fill="#000000" font-size="13" x="67.0" y="13.325" font-family="微软雅黑" font-weight="normal" font-style="normal" text-decoration="none" family="微软雅黑" text-anchor="middle" size="13">Type</text></g></g><g id="ProcessOnG1257" transform="matrix(1.0,0.0,0.0,1.0,1091.0,1091.0)" opacity="1.0"><path id="ProcessOnPath1258" d="M0.0 0.0L111.0 0.0L111.0 22.0L0.0 22.0Z" stroke="none" stroke-width="0.0" stroke-dasharray="none" opacity="1.0" fill="none"/><g id="ProcessOnG1259" transform="matrix(1.0,0.0,0.0,1.0,0.0,2.875)"><text id="ProcessOnText1260" fill="#000000" font-size="13" x="0.0" y="13.325" font-family="微软雅黑" font-weight="normal" font-style="normal" text-decoration="none" family="微软雅黑" text-anchor="start" size="13">StatusCause</text></g></g><g id="ProcessOnG1261" transform="matrix(1.0,0.0,0.0,1.0,1091.0,1145.0)" opacity="1.0"><path id="ProcessOnPath1262" d="M0.0 0.0L156.0 0.0L156.0 32.0L0.0 32.0Z" stroke="#323232" stroke-width="2.0" stroke-dasharray="none" opacity="1.0" fill="#ffffff"/><g id="ProcessOnG1263" transform="matrix(1.0,0.0,0.0,1.0,10.0,7.875)"><text id="ProcessOnText1264" fill="#000000" font-size="13" x="67.0" y="13.325" font-family="微软雅黑" font-weight="normal" font-style="normal" text-decoration="none" family="微软雅黑" text-anchor="middle" size="13">Message</text></g></g><g id="ProcessOnG1265" transform="matrix(1.0,0.0,0.0,1.0,1091.0,1177.0)" opacity="1.0"><path id="ProcessOnPath1266" d="M0.0 0.0L156.0 0.0L156.0 32.0L0.0 32.0Z" stroke="#323232" stroke-width="2.0" stroke-dasharray="none" opacity="1.0" fill="#ffffff"/><g id="ProcessOnG1267" transform="matrix(1.0,0.0,0.0,1.0,10.0,7.875)"><text id="ProcessOnText1268" fill="#000000" font-size="13" x="67.0" y="13.325" font-family="微软雅黑" font-weight="normal" font-style="normal" text-decoration="none" family="微软雅黑" text-anchor="middle" size="13">Field</text></g></g><g id="ProcessOnG1269"><path id="ProcessOnPath1270" d="M948.0 1257.0L1019.6720772546282 1257.0L1019.6720772546282 1113.958327832185L1091.3441545092564 1113.958327832185" stroke="#323232" stroke-width="2.0" stroke-dasharray="none" fill="none" marker-end="url(#ProcessOnMarker1271)"/></g><g id="ProcessOnG1273" transform="matrix(1.0,0.0,0.0,1.0,366.0,103.0)" opacity="1.0"><path id="ProcessOnPath1274" d="M0.0 0.0L885.0 0.0L885.0 32.0L0.0 32.0Z" stroke="none" stroke-width="0.0" stroke-dasharray="none" opacity="1.0" fill="none"/><g id="ProcessOnG1275" transform="matrix(1.0,0.0,0.0,1.0,0.0,7.875)"><text id="ProcessOnText1276" fill="#000000" font-size="13" x="0.0" y="13.325" font-family="微软雅黑" font-weight="bold" font-style="normal" text-decoration="none" family="微软雅黑" text-anchor="start" size="13">Name must be unique within a namespace.</text></g></g><g id="ProcessOnG1277" transform="matrix(1.0,0.0,0.0,1.0,366.0,135.0)" opacity="1.0"><path id="ProcessOnPath1278" d="M0.0 0.0L885.0 0.0L885.0 32.0L0.0 32.0Z" stroke="none" stroke-width="0.0" stroke-dasharray="none" opacity="1.0" fill="none"/><g id="ProcessOnG1279" transform="matrix(1.0,0.0,0.0,1.0,0.0,7.875)"><text id="ProcessOnText1280" fill="#000000" font-size="13" x="0.0" y="13.325" font-family="微软雅黑" font-weight="bold" font-style="normal" text-decoration="none" family="微软雅黑" text-anchor="start" size="13">GenerateName is an optional prefix, used by the server, to generate a unique name ONLY IF the Name field has not been provided.</text></g></g><g id="ProcessOnG1281" transform="matrix(1.0,0.0,0.0,1.0,366.0,167.0)" opacity="1.0"><path id="ProcessOnPath1282" d="M0.0 0.0L885.0 0.0L885.0 32.0L0.0 32.0Z" stroke="none" stroke-width="0.0" stroke-dasharray="none" opacity="1.0" fill="none"/><g id="ProcessOnG1283" transform="matrix(1.0,0.0,0.0,1.0,0.0,7.875)"><text id="ProcessOnText1284" fill="#000000" font-size="13" x="0.0" y="13.325" font-family="微软雅黑" font-weight="bold" font-style="normal" text-decoration="none" family="微软雅黑" text-anchor="start" size="13">Namespace defines the space within each name must be unique.</text></g></g><g id="ProcessOnG1285" transform="matrix(1.0,0.0,0.0,1.0,366.0,199.0)" opacity="1.0"><path id="ProcessOnPath1286" d="M0.0 0.0L885.0 0.0L885.0 32.0L0.0 32.0Z" stroke="none" stroke-width="0.0" stroke-dasharray="none" opacity="1.0" fill="none"/><g id="ProcessOnG1287" transform="matrix(1.0,0.0,0.0,1.0,0.0,7.875)"><text id="ProcessOnText1288" fill="#000000" font-size="13" x="0.0" y="13.325" font-family="微软雅黑" font-weight="bold" font-style="normal" text-decoration="none" family="微软雅黑" text-anchor="start" size="13">SelfLink is a URL representing this object.</text></g></g><g id="ProcessOnG1289" transform="matrix(1.0,0.0,0.0,1.0,366.0,231.0)" opacity="1.0"><path id="ProcessOnPath1290" d="M0.0 0.0L885.0 0.0L885.0 32.0L0.0 32.0Z" stroke="none" stroke-width="0.0" stroke-dasharray="none" opacity="1.0" fill="none"/><g id="ProcessOnG1291" transform="matrix(1.0,0.0,0.0,1.0,0.0,7.875)"><text id="ProcessOnText1292" fill="#000000" font-size="13" x="0.0" y="13.325" font-family="微软雅黑" font-weight="bold" font-style="normal" text-decoration="none" family="微软雅黑" text-anchor="start" size="13">UID is the unique in time and space value for this object.</text></g></g><g id="ProcessOnG1293" transform="matrix(1.0,0.0,0.0,1.0,366.0,263.0)" opacity="1.0"><path id="ProcessOnPath1294" d="M0.0 0.0L885.0 0.0L885.0 32.0L0.0 32.0Z" stroke="none" stroke-width="0.0" stroke-dasharray="none" opacity="1.0" fill="none"/><g id="ProcessOnG1295" transform="matrix(1.0,0.0,0.0,1.0,0.0,7.875)"><text id="ProcessOnText1296" fill="#000000" font-size="13" x="0.0" y="13.325" font-family="微软雅黑" font-weight="bold" font-style="normal" text-decoration="none" family="微软雅黑" text-anchor="start" size="13">An opaque value that represents the internal version of this object that can be used by clients to determine when objects have changed.</text></g></g><g id="ProcessOnG1297" transform="matrix(1.0,0.0,0.0,1.0,366.0,295.0)" opacity="1.0"><path id="ProcessOnPath1298" d="M0.0 0.0L885.0 0.0L885.0 32.0L0.0 32.0Z" stroke="none" stroke-width="0.0" stroke-dasharray="none" opacity="1.0" fill="none"/><g id="ProcessOnG1299" transform="matrix(1.0,0.0,0.0,1.0,0.0,7.875)"><text id="ProcessOnText1300" fill="#000000" font-size="13" x="0.0" y="13.325" font-family="微软雅黑" font-weight="bold" font-style="normal" text-decoration="none" family="微软雅黑" text-anchor="start" size="13">A sequence number representing a specific generation of the desired state. Populated by the system. Read-only.</text></g></g><g id="ProcessOnG1301" transform="matrix(1.0,0.0,0.0,1.0,366.0,327.0)" opacity="1.0"><path id="ProcessOnPath1302" d="M0.0 0.0L885.0 0.0L885.0 32.0L0.0 32.0Z" stroke="none" stroke-width="0.0" stroke-dasharray="none" opacity="1.0" fill="none"/><g id="ProcessOnG1303" transform="matrix(1.0,0.0,0.0,1.0,0.0,7.875)"><text id="ProcessOnText1304" fill="#000000" font-size="13" x="0.0" y="13.325" font-family="微软雅黑" font-weight="bold" font-style="normal" text-decoration="none" family="微软雅黑" text-anchor="start" size="13">CreationTimestamp is a timestamp representing the server time when this object was created.</text></g></g><g id="ProcessOnG1305" transform="matrix(1.0,0.0,0.0,1.0,366.0,359.0)" opacity="1.0"><path id="ProcessOnPath1306" d="M0.0 0.0L885.0 0.0L885.0 32.0L0.0 32.0Z" stroke="none" stroke-width="0.0" stroke-dasharray="none" opacity="1.0" fill="none"/><g id="ProcessOnG1307" transform="matrix(1.0,0.0,0.0,1.0,0.0,7.875)"><text id="ProcessOnText1308" fill="#000000" font-size="13" x="0.0" y="13.325" font-family="微软雅黑" font-weight="bold" font-style="normal" text-decoration="none" family="微软雅黑" text-anchor="start" size="13">DeletionTimestamp is RFC 3339 date and time at which this resource will be deleted.</text></g></g><g id="ProcessOnG1309" transform="matrix(1.0,0.0,0.0,1.0,366.0,391.0)" opacity="1.0"><path id="ProcessOnPath1310" d="M0.0 0.0L885.0 0.0L885.0 32.0L0.0 32.0Z" stroke="none" stroke-width="0.0" stroke-dasharray="none" opacity="1.0" fill="none"/><g id="ProcessOnG1311" transform="matrix(1.0,0.0,0.0,1.0,0.0,7.875)"><text id="ProcessOnText1312" fill="#000000" font-size="13" x="0.0" y="13.325" font-family="微软雅黑" font-weight="bold" font-style="normal" text-decoration="none" family="微软雅黑" text-anchor="start" size="13">Number of seconds allowed for this object to gracefully terminate before it will be removed from the system.</text></g></g><g id="ProcessOnG1313" transform="matrix(1.0,0.0,0.0,1.0,366.0,423.0)" opacity="1.0"><path id="ProcessOnPath1314" d="M0.0 0.0L885.0 0.0L885.0 32.0L0.0 32.0Z" stroke="none" stroke-width="0.0" stroke-dasharray="none" opacity="1.0" fill="none"/><g id="ProcessOnG1315" transform="matrix(1.0,0.0,0.0,1.0,0.0,7.875)"><text id="ProcessOnText1316" fill="#000000" font-size="13" x="0.0" y="13.325" font-family="微软雅黑" font-weight="bold" font-style="normal" text-decoration="none" family="微软雅黑" text-anchor="start" size="13">Map of string keys and values that can be used to organize and categorize(scope and select) objects.</text></g></g><g id="ProcessOnG1317" transform="matrix(1.0,0.0,0.0,1.0,366.0,455.0)" opacity="1.0"><path id="ProcessOnPath1318" d="M0.0 0.0L922.0 0.0L922.0 32.0L0.0 32.0Z" stroke="none" stroke-width="0.0" stroke-dasharray="none" opacity="1.0" fill="none"/><g id="ProcessOnG1319" transform="matrix(1.0,0.0,0.0,1.0,0.0,7.875)"><text id="ProcessOnText1320" fill="#000000" font-size="13" x="0.0" y="13.325" font-family="微软雅黑" font-weight="bold" font-style="normal" text-decoration="none" family="微软雅黑" text-anchor="start" size="13">Annotations is an unstructured key value map stored with a resource that may be set by external tools to store and retrieve arbitrary metadata.</text></g></g><g id="ProcessOnG1321" transform="matrix(1.0,0.0,0.0,1.0,366.0,487.0)" opacity="1.0"><path id="ProcessOnPath1322" d="M0.0 0.0L922.0 0.0L922.0 32.0L0.0 32.0Z" stroke="none" stroke-width="0.0" stroke-dasharray="none" opacity="1.0" fill="none"/><g id="ProcessOnG1323" transform="matrix(1.0,0.0,0.0,1.0,0.0,7.875)"><text id="ProcessOnText1324" fill="#000000" font-size="13" x="0.0" y="13.325" font-family="微软雅黑" font-weight="bold" font-style="normal" text-decoration="none" family="微软雅黑" text-anchor="start" size="13">List of objects depended by this object. If ALL objects in the list have been deleted, this object will be garbage collected.</text></g></g><g id="ProcessOnG1325" transform="matrix(1.0,0.0,0.0,1.0,366.0,519.0)" opacity="1.0"><path id="ProcessOnPath1326" d="M0.0 0.0L922.0 0.0L922.0 32.0L0.0 32.0Z" stroke="none" stroke-width="0.0" stroke-dasharray="none" opacity="1.0" fill="none"/><g id="ProcessOnG1327" transform="matrix(1.0,0.0,0.0,1.0,0.0,7.875)"><text id="ProcessOnText1328" fill="#000000" font-size="13" x="0.0" y="13.325" font-family="微软雅黑" font-weight="bold" font-style="normal" text-decoration="none" family="微软雅黑" text-anchor="start" size="13">An initializer is a controller which enforces some system invariant at object creation time.</text></g></g><g id="ProcessOnG1329" transform="matrix(1.0,0.0,0.0,1.0,366.0,551.0)" opacity="1.0"><path id="ProcessOnPath1330" d="M0.0 0.0L922.0 0.0L922.0 32.0L0.0 32.0Z" stroke="none" stroke-width="0.0" stroke-dasharray="none" opacity="1.0" fill="none"/><g id="ProcessOnG1331" transform="matrix(1.0,0.0,0.0,1.0,0.0,7.875)"><text id="ProcessOnText1332" fill="#000000" font-size="13" x="0.0" y="13.325" font-family="微软雅黑" font-weight="bold" font-style="normal" text-decoration="none" family="微软雅黑" text-anchor="start" size="13">Each entry is an identifier for the responsible component that will remove the entry from the list.</text></g></g><g id="ProcessOnG1333" transform="matrix(1.0,0.0,0.0,1.0,366.0,583.0)" opacity="1.0"><path id="ProcessOnPath1334" d="M0.0 0.0L922.0 0.0L922.0 32.0L0.0 32.0Z" stroke="none" stroke-width="0.0" stroke-dasharray="none" opacity="1.0" fill="none"/><g id="ProcessOnG1335" transform="matrix(1.0,0.0,0.0,1.0,0.0,7.875)"><text id="ProcessOnText1336" fill="#000000" font-size="13" x="0.0" y="13.325" font-family="微软雅黑" font-weight="bold" font-style="normal" text-decoration="none" family="微软雅黑" text-anchor="start" size="13">The name of the cluster which the object belongs to.</text></g></g></g></g></svg>