<svg xmlns="http://www.w3.org/2000/svg" xmlns:xlink="http://www.w3.org/1999/xlink" id="processonSvg1000" viewBox="185.0 78.0 434.0 321.125" width="434.0" height="321.125"><defs id="ProcessOnDefs1001"><marker id="ProcessOnMarker1015" markerUnits="userSpaceOnUse" orient="auto" markerWidth="14.289086868996552" markerHeight="19.055054660878554" viewBox="-0.5877852522924731 -0.8090169943749475 14.289086868996552 19.055054660878554" refX="12.0" refY="8.71851033606433"><path id="ProcessOnPath1016" d="M0 0L12.0 8.71851033606433L0 17.43702067212866" stroke="#323232" stroke-width="2.0" fill="none" transform="matrix(1.0,0.0,0.0,1.0,0.0,0.0)"/></marker><marker id="ProcessOnMarker1026" markerUnits="userSpaceOnUse" orient="auto" markerWidth="14.289086868996552" markerHeight="19.055054660878554" viewBox="-0.5877852522924731 -0.8090169943749475 14.289086868996552 19.055054660878554" refX="12.0" refY="8.71851033606433"><path id="ProcessOnPath1027" d="M0 0L12.0 8.71851033606433L0 17.43702067212866" stroke="#323232" stroke-width="2.0" fill="none" transform="matrix(1.0,0.0,0.0,1.0,0.0,0.0)"/></marker><marker id="ProcessOnMarker1037" markerUnits="userSpaceOnUse" orient="auto" markerWidth="14.289086868996552" markerHeight="19.055054660878554" viewBox="-0.5877852522924731 -0.8090169943749475 14.289086868996552 19.055054660878554" refX="12.0" refY="8.71851033606433"><path id="ProcessOnPath1038" d="M0 0L12.0 8.71851033606433L0 17.43702067212866" stroke="#323232" stroke-width="2.0" fill="none" transform="matrix(1.0,0.0,0.0,1.0,0.0,0.0)"/></marker><marker id="ProcessOnMarker1044" markerUnits="userSpaceOnUse" orient="auto" markerWidth="14.289086868996552" markerHeight="19.055054660878554" viewBox="-0.5877852522924731 -0.8090169943749475 14.289086868996552 19.055054660878554" refX="12.0" refY="8.71851033606433"><path id="ProcessOnPath1045" d="M0 0L12.0 8.71851033606433L0 17.43702067212866" stroke="#323232" stroke-width="2.0" fill="none" transform="matrix(1.0,0.0,0.0,1.0,0.0,0.0)"/></marker></defs><g id="ProcessOnG1002"><path id="ProcessOnPath1003" d="M185.0 78.0H619.0V399.125H185.0V78.0Z" fill="none"/><g id="ProcessOnG1004"><g id="ProcessOnG1005" transform="matrix(1.0,0.0,0.0,1.0,205.0,98.0)" opacity="1.0"><path id="ProcessOnPath1006" d="M0.0 0.0L118.0 0.0L118.0 32.0L0.0 32.0Z" stroke="#323232" stroke-width="2.0" stroke-dasharray="none" opacity="1.0" fill="#ffffff"/><g id="ProcessOnG1007" transform="matrix(1.0,0.0,0.0,1.0,10.0,7.875)"><text id="ProcessOnText1008" fill="#000000" font-size="13" x="48.0" y="13.325" font-family="微软雅黑" font-weight="normal" font-style="normal" text-decoration="none" family="微软雅黑" text-anchor="middle" size="13">Manager</text></g></g><g id="ProcessOnG1009" transform="matrix(1.0,0.0,0.0,1.0,205.0,204.0)" opacity="1.0"><path id="ProcessOnPath1010" d="M0.0 0.0L118.0 0.0L118.0 32.0L0.0 32.0Z" stroke="#323232" stroke-width="2.0" stroke-dasharray="none" opacity="1.0" fill="#ffffff"/><g id="ProcessOnG1011" transform="matrix(1.0,0.0,0.0,1.0,10.0,7.875)"><text id="ProcessOnText1012" fill="#000000" font-size="13" x="48.0" y="13.325" font-family="微软雅黑" font-weight="normal" font-style="normal" text-decoration="none" family="微软雅黑" text-anchor="middle" size="13">scrapePools</text></g></g><g id="ProcessOnG1013"><path id="ProcessOnPath1014" d="M264.0 130.0L264.0 167.0L264.0 167.0L264.0 204.0" stroke="#323232" stroke-width="2.0" stroke-dasharray="10.0 4.0" fill="none" marker-end="url(#ProcessOnMarker1015)"/><g id="ProcessOnG1017" transform="matrix(1.0,0.0,0.0,1.0,264.0,158.875)"><path id="ProcessOnPath1018" d="M0 0H76.0V16.25H0Z" fill="#fff" transform="matrix(1.0,0.0,0.0,1.0,-38.0,0.0)"/><text id="ProcessOnText1019" fill="#000000" font-size="13" x="0.0" y="13.325" font-family="微软雅黑" font-weight="normal" font-style="normal" text-decoration="none" family="微软雅黑" text-anchor="middle" size="13">ApplyConfig</text></g></g><g id="ProcessOnG1020" transform="matrix(1.0,0.0,0.0,1.0,205.0,309.0)" opacity="1.0"><path id="ProcessOnPath1021" d="M0.0 0.0L118.0 0.0L118.0 32.0L0.0 32.0Z" stroke="#323232" stroke-width="2.0" stroke-dasharray="none" opacity="1.0" fill="#ffffff"/><g id="ProcessOnG1022" transform="matrix(1.0,0.0,0.0,1.0,10.0,7.875)"><text id="ProcessOnText1023" fill="#000000" font-size="13" x="48.0" y="13.325" font-family="微软雅黑" font-weight="normal" font-style="normal" text-decoration="none" family="微软雅黑" text-anchor="middle" size="13">scrapeLoop</text></g></g><g id="ProcessOnG1024"><path id="ProcessOnPath1025" d="M264.0 236.0L264.0 272.5L264.0 272.5L264.0 309.0" stroke="#323232" stroke-width="2.0" stroke-dasharray="10.0 4.0" fill="none" marker-end="url(#ProcessOnMarker1026)"/><g id="ProcessOnG1028" transform="matrix(1.0,0.0,0.0,1.0,264.0,264.375)"><path id="ProcessOnPath1029" d="M0 0H38.0V16.25H0Z" fill="#fff" transform="matrix(1.0,0.0,0.0,1.0,-19.0,0.0)"/><text id="ProcessOnText1030" fill="#000000" font-size="13" x="0.0" y="13.325" font-family="微软雅黑" font-weight="normal" font-style="normal" text-decoration="none" family="微软雅黑" text-anchor="middle" size="13">reload</text></g></g><g id="ProcessOnG1031" transform="matrix(1.0,0.0,0.0,1.0,481.0,98.0)" opacity="1.0"><path id="ProcessOnPath1032" d="M0.0 0.0L118.0 0.0L118.0 32.0L0.0 32.0Z" stroke="#323232" stroke-width="2.0" stroke-dasharray="none" opacity="1.0" fill="#ffffff"/><g id="ProcessOnG1033" transform="matrix(1.0,0.0,0.0,1.0,10.0,7.875)"><text id="ProcessOnText1034" fill="#000000" font-size="13" x="48.0" y="13.325" font-family="微软雅黑" font-weight="normal" font-style="normal" text-decoration="none" family="微软雅黑" text-anchor="middle" size="13">Appender</text></g></g><g id="ProcessOnG1035"><path id="ProcessOnPath1036" d="M264.0 341.0L264.0 371.0L540.0 371.0L540.0 130.0" stroke="#323232" stroke-width="2.0" stroke-dasharray="10.0 4.0" fill="none" marker-end="url(#ProcessOnMarker1037)"/><g id="ProcessOnG1039" transform="matrix(1.0,0.0,0.0,1.0,507.5,362.875)"><path id="ProcessOnPath1040" d="M0 0H21.0V16.25H0Z" fill="#fff" transform="matrix(1.0,0.0,0.0,1.0,-10.5,0.0)"/><text id="ProcessOnText1041" fill="#000000" font-size="13" x="0.0" y="13.325" font-family="微软雅黑" font-weight="normal" font-style="normal" text-decoration="none" family="微软雅黑" text-anchor="middle" size="13">run</text></g></g><g id="ProcessOnG1042"><path id="ProcessOnPath1043" d="M323.0 114.0L402.0 114.0L402.0 114.0L481.0 114.0" stroke="#323232" stroke-width="2.0" stroke-dasharray="none" fill="none" marker-end="url(#ProcessOnMarker1044)"/></g></g></g></svg>