<svg xmlns="http://www.w3.org/2000/svg" xmlns:xlink="http://www.w3.org/1999/xlink" id="processonSvg1000" viewBox="238.0 58.0 530.0 451.0" width="530.0" height="451.0"><defs id="ProcessOnDefs1001"><marker id="ProcessOnMarker1015" markerUnits="userSpaceOnUse" orient="auto" markerWidth="16.23606797749979" markerHeight="10.550836550532098" viewBox="-1.0 -1.3763819204711736 16.23606797749979 10.550836550532098" refX="-1.0" refY="3.8990363547948754"><path id="ProcessOnPath1016" d="M12.0 3.8990363547948754L0.0 7.798072709589751V0.0Z" stroke="#323232" stroke-width="2.0" fill="#323232" transform="matrix(1.0,0.0,0.0,1.0,0.0,0.0)"/></marker><marker id="ProcessOnMarker1027" markerUnits="userSpaceOnUse" orient="auto" markerWidth="16.23606797749979" markerHeight="10.550836550532098" viewBox="-1.0 -1.3763819204711736 16.23606797749979 10.550836550532098" refX="-1.0" refY="3.8990363547948754"><path id="ProcessOnPath1028" d="M12.0 3.8990363547948754L0.0 7.798072709589751V0.0Z" stroke="#323232" stroke-width="2.0" fill="#323232" transform="matrix(1.0,0.0,0.0,1.0,0.0,0.0)"/></marker><marker id="ProcessOnMarker1046" markerUnits="userSpaceOnUse" orient="auto" markerWidth="16.23606797749979" markerHeight="10.550836550532098" viewBox="-1.0 -1.3763819204711736 16.23606797749979 10.550836550532098" refX="-1.0" refY="3.8990363547948754"><path id="ProcessOnPath1047" d="M12.0 3.8990363547948754L0.0 7.798072709589751V0.0Z" stroke="#323232" stroke-width="2.0" fill="#323232" transform="matrix(1.0,0.0,0.0,1.0,0.0,0.0)"/></marker><marker id="ProcessOnMarker1058" markerUnits="userSpaceOnUse" orient="auto" markerWidth="16.23606797749979" markerHeight="10.550836550532098" viewBox="-1.0 -1.3763819204711736 16.23606797749979 10.550836550532098" refX="-1.0" refY="3.8990363547948754"><path id="ProcessOnPath1059" d="M12.0 3.8990363547948754L0.0 7.798072709589751V0.0Z" stroke="#323232" stroke-width="2.0" fill="#323232" transform="matrix(1.0,0.0,0.0,1.0,0.0,0.0)"/></marker><marker id="ProcessOnMarker1069" markerUnits="userSpaceOnUse" orient="auto" markerWidth="16.23606797749979" markerHeight="10.550836550532098" viewBox="-1.0 -1.3763819204711736 16.23606797749979 10.550836550532098" refX="-1.0" refY="3.8990363547948754"><path id="ProcessOnPath1070" d="M12.0 3.8990363547948754L0.0 7.798072709589751V0.0Z" stroke="#323232" stroke-width="2.0" fill="#323232" transform="matrix(1.0,0.0,0.0,1.0,0.0,0.0)"/></marker><marker id="ProcessOnMarker1088" markerUnits="userSpaceOnUse" orient="auto" markerWidth="16.23606797749979" markerHeight="10.550836550532098" viewBox="-1.0 -1.3763819204711736 16.23606797749979 10.550836550532098" refX="-1.0" refY="3.8990363547948754"><path id="ProcessOnPath1089" d="M12.0 3.8990363547948754L0.0 7.798072709589751V0.0Z" stroke="#323232" stroke-width="2.0" fill="#323232" transform="matrix(1.0,0.0,0.0,1.0,0.0,0.0)"/></marker><marker id="ProcessOnMarker1101" markerUnits="userSpaceOnUse" orient="auto" markerWidth="16.23606797749979" markerHeight="10.550836550532098" viewBox="-1.0 -1.3763819204711736 16.23606797749979 10.550836550532098" refX="-1.0" refY="3.8990363547948754"><path id="ProcessOnPath1102" d="M12.0 3.8990363547948754L0.0 7.798072709589751V0.0Z" stroke="#323232" stroke-width="2.0" fill="#323232" transform="matrix(1.0,0.0,0.0,1.0,0.0,0.0)"/></marker></defs><g id="ProcessOnG1002"><path id="ProcessOnPath1003" d="M238.0 58.0H768.0V509.0H238.0V58.0Z" fill="none"/><g id="ProcessOnG1004"><g id="ProcessOnG1005" transform="matrix(1.0,0.0,0.0,1.0,258.0,110.0)" opacity="1.0"><path id="ProcessOnPath1006" d="M6.6000000000000005 0.0L13.4 0.0L13.4 369.0L20.0 369.0L10.0 379.0L0.0 369.0L6.6000000000000005 369.0L6.6000000000000005 0.0Z" stroke="#323232" stroke-width="2.0" stroke-dasharray="none" opacity="1.0" fill="#ffffff"/></g><g id="ProcessOnG1007" transform="matrix(1.0,0.0,0.0,1.0,618.0,110.0)" opacity="1.0"><path id="ProcessOnPath1008" d="M6.6000000000000005 0.0L13.4 0.0L13.4 369.0L20.0 369.0L10.0 379.0L0.0 369.0L6.6000000000000005 369.0L6.6000000000000005 0.0Z" stroke="#323232" stroke-width="2.0" stroke-dasharray="none" opacity="1.0" fill="#ffffff"/></g><g id="ProcessOnG1009" transform="matrix(1.0,0.0,0.0,1.0,281.0,164.0)" opacity="1.0"><path id="ProcessOnPath1010" d="M0.0 0.0L74.0 0.0L74.0 32.0L0.0 32.0Z" stroke="#323232" stroke-width="2.0" stroke-dasharray="none" opacity="1.0" fill="#ffffff"/><g id="ProcessOnG1011" transform="matrix(1.0,0.0,0.0,1.0,10.0,7.875)"><text id="ProcessOnText1012" fill="#000000" font-size="13" x="26.0" y="13.325" font-family="微软雅黑" font-weight="normal" font-style="normal" text-decoration="none" family="微软雅黑" text-anchor="middle" size="13">rcvfrom</text></g></g><g id="ProcessOnG1013"><path id="ProcessOnPath1014" d="M354.075961234939 168.86824088833464L447.5 168.86824088833464L447.5 168.86824088833464L525.6879707875612 168.86824088833464" stroke="#323232" stroke-width="2.0" stroke-dasharray="none" fill="none" marker-end="url(#ProcessOnMarker1015)"/><g id="ProcessOnG1017" transform="matrix(1.0,0.0,0.0,1.0,439.8819660112501,160.74324088833464)"><path id="ProcessOnPath1018" d="M0 0H39.0V16.25H0Z" fill="#fff" transform="matrix(1.0,0.0,0.0,1.0,-19.5,0.0)"/><text id="ProcessOnText1019" fill="#000000" font-size="13" x="0.0" y="13.325" font-family="微软雅黑" font-weight="normal" font-style="normal" text-decoration="none" family="微软雅黑" text-anchor="middle" size="13">syscall</text></g></g><g id="ProcessOnG1020" transform="matrix(1.0,0.0,0.0,1.0,540.0,164.0)" opacity="1.0"><path id="ProcessOnPath1021" d="M0.0 0.0L74.0 0.0L74.0 32.0L0.0 32.0Z" stroke="#323232" stroke-width="2.0" stroke-dasharray="none" opacity="1.0" fill="#ffffff"/><g id="ProcessOnG1022" transform="matrix(1.0,0.0,0.0,1.0,10.0,-0.25)"><text id="ProcessOnText1023" fill="#000000" font-size="13" x="26.0" y="13.325" font-family="微软雅黑" font-weight="normal" font-style="normal" text-decoration="none" family="微软雅黑" text-anchor="middle" size="13">no </text><text id="ProcessOnText1024" fill="#000000" font-size="13" x="26.0" y="29.575" font-family="微软雅黑" font-weight="normal" font-style="normal" text-decoration="none" family="微软雅黑" text-anchor="middle" size="13">ready</text></g></g><g id="ProcessOnG1025"><path id="ProcessOnPath1026" d="M540.6984631039295 192.28989928337165L447.48320614818033 192.28989928337165L447.48320614818033 192.0L369.5040171699309 192.0" stroke="#323232" stroke-width="2.0" stroke-dasharray="none" fill="none" marker-end="url(#ProcessOnMarker1027)"/><g id="ProcessOnG1029" transform="matrix(1.0,0.0,0.0,1.0,454.9562904952444,184.16489928337165)"><path id="ProcessOnPath1030" d="M0 0H17.0V16.25H0Z" fill="#fff" transform="matrix(1.0,0.0,0.0,1.0,-8.5,0.0)"/><text id="ProcessOnText1031" fill="#000000" font-size="13" x="0.0" y="13.325" font-family="微软雅黑" font-weight="normal" font-style="normal" text-decoration="none" family="微软雅黑" text-anchor="middle" size="13">err</text></g></g><g id="ProcessOnG1032" transform="matrix(1.0,0.0,0.0,1.0,307.0,78.0)" opacity="1.0"><path id="ProcessOnPath1033" d="M0.0 0.0L110.0 0.0L110.0 36.0L0.0 36.0Z" stroke="#323232" stroke-width="2.0" stroke-dasharray="10.0 4.0" opacity="1.0" fill="#ffffff"/><g id="ProcessOnG1034" transform="matrix(1.0,0.0,0.0,1.0,10.0,8.0)"><text id="ProcessOnText1035" fill="#000000" font-size="16" x="44.0" y="16.4" font-family="微软雅黑" font-weight="normal" font-style="normal" text-decoration="none" family="微软雅黑" text-anchor="middle" size="16">application</text></g></g><g id="ProcessOnG1036" transform="matrix(1.0,0.0,0.0,1.0,481.0,81.0)" opacity="1.0"><path id="ProcessOnPath1037" d="M0.0 0.0L110.0 0.0L110.0 36.0L0.0 36.0Z" stroke="#323232" stroke-width="2.0" stroke-dasharray="10.0 4.0" opacity="1.0" fill="#ffffff"/><g id="ProcessOnG1038" transform="matrix(1.0,0.0,0.0,1.0,10.0,8.0)"><text id="ProcessOnText1039" fill="#000000" font-size="16" x="44.0" y="16.4" font-family="微软雅黑" font-weight="normal" font-style="normal" text-decoration="none" family="微软雅黑" text-anchor="middle" size="16">kernel</text></g></g><g id="ProcessOnG1040" transform="matrix(1.0,0.0,0.0,1.0,281.0,215.0)" opacity="1.0"><path id="ProcessOnPath1041" d="M0.0 0.0L74.0 0.0L74.0 32.0L0.0 32.0Z" stroke="#323232" stroke-width="2.0" stroke-dasharray="none" opacity="1.0" fill="#ffffff"/><g id="ProcessOnG1042" transform="matrix(1.0,0.0,0.0,1.0,10.0,7.875)"><text id="ProcessOnText1043" fill="#000000" font-size="13" x="26.0" y="13.325" font-family="微软雅黑" font-weight="normal" font-style="normal" text-decoration="none" family="微软雅黑" text-anchor="middle" size="13">rcvfrom</text></g></g><g id="ProcessOnG1044"><path id="ProcessOnPath1045" d="M354.075961234939 219.86824088833464L447.5 219.86824088833464L447.5 219.86824088833464L525.6879707875612 219.86824088833464" stroke="#323232" stroke-width="2.0" stroke-dasharray="none" fill="none" marker-end="url(#ProcessOnMarker1046)"/><g id="ProcessOnG1048" transform="matrix(1.0,0.0,0.0,1.0,439.8819660112501,211.74324088833464)"><path id="ProcessOnPath1049" d="M0 0H39.0V16.25H0Z" fill="#fff" transform="matrix(1.0,0.0,0.0,1.0,-19.5,0.0)"/><text id="ProcessOnText1050" fill="#000000" font-size="13" x="0.0" y="13.325" font-family="微软雅黑" font-weight="normal" font-style="normal" text-decoration="none" family="微软雅黑" text-anchor="middle" size="13">syscall</text></g></g><g id="ProcessOnG1051" transform="matrix(1.0,0.0,0.0,1.0,540.0,215.0)" opacity="1.0"><path id="ProcessOnPath1052" d="M0.0 0.0L74.0 0.0L74.0 32.0L0.0 32.0Z" stroke="#323232" stroke-width="2.0" stroke-dasharray="none" opacity="1.0" fill="#ffffff"/><g id="ProcessOnG1053" transform="matrix(1.0,0.0,0.0,1.0,10.0,-0.25)"><text id="ProcessOnText1054" fill="#000000" font-size="13" x="26.0" y="13.325" font-family="微软雅黑" font-weight="normal" font-style="normal" text-decoration="none" family="微软雅黑" text-anchor="middle" size="13">no </text><text id="ProcessOnText1055" fill="#000000" font-size="13" x="26.0" y="29.575" font-family="微软雅黑" font-weight="normal" font-style="normal" text-decoration="none" family="微软雅黑" text-anchor="middle" size="13">ready</text></g></g><g id="ProcessOnG1056"><path id="ProcessOnPath1057" d="M540.6984631039295 243.28989928337165L447.48320614818033 243.28989928337165L447.48320614818033 243.0L369.5040171699309 243.0" stroke="#323232" stroke-width="2.0" stroke-dasharray="none" fill="none" marker-end="url(#ProcessOnMarker1058)"/><g id="ProcessOnG1060" transform="matrix(1.0,0.0,0.0,1.0,454.9562904952444,235.16489928337165)"><path id="ProcessOnPath1061" d="M0 0H17.0V16.25H0Z" fill="#fff" transform="matrix(1.0,0.0,0.0,1.0,-8.5,0.0)"/><text id="ProcessOnText1062" fill="#000000" font-size="13" x="0.0" y="13.325" font-family="微软雅黑" font-weight="normal" font-style="normal" text-decoration="none" family="微软雅黑" text-anchor="middle" size="13">err</text></g></g><g id="ProcessOnG1063" transform="matrix(1.0,0.0,0.0,1.0,281.0,311.0)" opacity="1.0"><path id="ProcessOnPath1064" d="M0.0 0.0L74.0 0.0L74.0 32.0L0.0 32.0Z" stroke="#323232" stroke-width="2.0" stroke-dasharray="none" opacity="1.0" fill="#ffffff"/><g id="ProcessOnG1065" transform="matrix(1.0,0.0,0.0,1.0,10.0,7.875)"><text id="ProcessOnText1066" fill="#000000" font-size="13" x="26.0" y="13.325" font-family="微软雅黑" font-weight="normal" font-style="normal" text-decoration="none" family="微软雅黑" text-anchor="middle" size="13">rcvfrom</text></g></g><g id="ProcessOnG1067"><path id="ProcessOnPath1068" d="M355.0 327.0L447.5 327.0L447.5 327.0L524.7639320225002 327.0" stroke="#323232" stroke-width="2.0" stroke-dasharray="none" fill="none" marker-end="url(#ProcessOnMarker1069)"/><g id="ProcessOnG1071" transform="matrix(1.0,0.0,0.0,1.0,439.8819660112501,318.875)"><path id="ProcessOnPath1072" d="M0 0H39.0V16.25H0Z" fill="#fff" transform="matrix(1.0,0.0,0.0,1.0,-19.5,0.0)"/><text id="ProcessOnText1073" fill="#000000" font-size="13" x="0.0" y="13.325" font-family="微软雅黑" font-weight="normal" font-style="normal" text-decoration="none" family="微软雅黑" text-anchor="middle" size="13">syscall</text></g></g><g id="ProcessOnG1074" transform="matrix(1.0,0.0,0.0,1.0,540.0,311.0)" opacity="1.0"><path id="ProcessOnPath1075" d="M0.0 0.0L74.0 0.0L74.0 32.0L0.0 32.0Z" stroke="#323232" stroke-width="2.0" stroke-dasharray="none" opacity="1.0" fill="#ffffff"/><g id="ProcessOnG1076" transform="matrix(1.0,0.0,0.0,1.0,10.0,7.875)"><text id="ProcessOnText1077" fill="#000000" font-size="13" x="26.0" y="13.325" font-family="微软雅黑" font-weight="normal" font-style="normal" text-decoration="none" family="微软雅黑" text-anchor="middle" size="13">ready</text></g></g><g id="ProcessOnG1078" transform="matrix(1.0,0.0,0.0,1.0,417.0,261.0)" opacity="1.0"><path id="ProcessOnPath1079" d="M0.0 0.0L58.0 0.0L58.0 20.0L0.0 20.0Z" stroke="none" stroke-width="0.0" stroke-dasharray="none" opacity="1.0" fill="none"/><g id="ProcessOnG1080" transform="matrix(1.0,0.0,0.0,1.0,0.0,-15.0)"><text id="ProcessOnText1081" fill="#000000" font-size="40" x="28.0" y="41.0" font-family="微软雅黑" font-weight="normal" font-style="normal" text-decoration="none" family="微软雅黑" text-anchor="middle" size="40">...</text></g></g><g id="ProcessOnG1082" transform="matrix(1.0,0.0,0.0,1.0,540.0,418.0)" opacity="1.0"><path id="ProcessOnPath1083" d="M0.0 0.0L74.0 0.0L74.0 32.0L0.0 32.0Z" stroke="#323232" stroke-width="2.0" stroke-dasharray="none" opacity="1.0" fill="#ffffff"/><g id="ProcessOnG1084" transform="matrix(1.0,0.0,0.0,1.0,10.0,7.875)"><text id="ProcessOnText1085" fill="#000000" font-size="13" x="26.0" y="13.325" font-family="微软雅黑" font-weight="normal" font-style="normal" text-decoration="none" family="微软雅黑" text-anchor="middle" size="13">ready</text></g></g><g id="ProcessOnG1086"><path id="ProcessOnPath1087" d="M577.0 343.0L577.0 380.5L577.0 380.5L577.0 402.7639320225002" stroke="#323232" stroke-width="2.0" stroke-dasharray="none" fill="none" marker-end="url(#ProcessOnMarker1088)"/><g id="ProcessOnG1090" transform="matrix(1.0,0.0,0.0,1.0,577.0,356.63196601125014)"><path id="ProcessOnPath1091" d="M0 0H88.0V32.5H0Z" fill="#fff" transform="matrix(1.0,0.0,0.0,1.0,-44.0,0.0)"/><text id="ProcessOnText1092" fill="#000000" font-size="13" x="0.0" y="13.325" font-family="微软雅黑" font-weight="normal" font-style="normal" text-decoration="none" family="微软雅黑" text-anchor="middle" size="13">copy from</text><text id="ProcessOnText1093" fill="#000000" font-size="13" x="0.0" y="29.575" font-family="微软雅黑" font-weight="normal" font-style="normal" text-decoration="none" family="微软雅黑" text-anchor="middle" size="13"> kernel to user</text></g></g><g id="ProcessOnG1094" transform="matrix(1.0,0.0,0.0,1.0,284.0,418.0)" opacity="1.0"><path id="ProcessOnPath1095" d="M0.0 0.0L74.0 0.0L74.0 32.0L0.0 32.0Z" stroke="#323232" stroke-width="2.0" stroke-dasharray="none" opacity="1.0" fill="#ffffff"/><g id="ProcessOnG1096" transform="matrix(1.0,0.0,0.0,1.0,10.0,-0.25)"><text id="ProcessOnText1097" fill="#000000" font-size="13" x="26.0" y="13.325" font-family="微软雅黑" font-weight="normal" font-style="normal" text-decoration="none" family="微软雅黑" text-anchor="middle" size="13">process </text><text id="ProcessOnText1098" fill="#000000" font-size="13" x="26.0" y="29.575" font-family="微软雅黑" font-weight="normal" font-style="normal" text-decoration="none" family="微软雅黑" text-anchor="middle" size="13">data</text></g></g><g id="ProcessOnG1099"><path id="ProcessOnPath1100" d="M540.0 434.0L449.0 434.0L449.0 434.0L373.2360679774998 434.0" stroke="#323232" stroke-width="2.0" stroke-dasharray="none" fill="none" marker-end="url(#ProcessOnMarker1101)"/><g id="ProcessOnG1103" transform="matrix(1.0,0.0,0.0,1.0,456.61803398874986,425.875)"><path id="ProcessOnPath1104" d="M0 0H15.0V16.25H0Z" fill="#fff" transform="matrix(1.0,0.0,0.0,1.0,-7.5,0.0)"/><text id="ProcessOnText1105" fill="#000000" font-size="13" x="0.0" y="13.325" font-family="微软雅黑" font-weight="normal" font-style="normal" text-decoration="none" family="微软雅黑" text-anchor="middle" size="13">ok</text></g></g><g id="ProcessOnG1106" transform="matrix(1.0,0.0,0.0,1.0,648.0,310.0)" opacity="1.0"><path id="ProcessOnPath1107" d="M0.0 140.0Q9.0 140.0 9.0 131.0L9.0 79.0Q9.0 70.0 22.0 70.0Q9.0 70.0 9.0 61.0L9.0 9.0Q9.0 0.0 0.0 0.0" stroke="#323232" stroke-width="2.0" stroke-dasharray="none" opacity="1.0" fill="none"/><path id="ProcessOnPath1108" d="M0.0 0.0L100.0 0.0L100.0 140.0L0.0 140.0Z" stroke="none" stroke-width="0.0" stroke-dasharray="none" opacity="1.0" fill="none"/><g id="ProcessOnG1109" transform="matrix(1.0,0.0,0.0,1.0,27.0,60.0)"><text id="ProcessOnText1110" fill="#000000" font-size="16" x="0.0" y="16.4" font-family="微软雅黑" font-weight="bold" font-style="normal" text-decoration="none" family="微软雅黑" text-anchor="start" size="16">block</text></g></g></g></g></svg>