<svg xmlns="http://www.w3.org/2000/svg" xmlns:xlink="http://www.w3.org/1999/xlink" id="processonSvg1000" viewBox="198.0 61.0 1243.0 925.0" width="1243.0" height="925.0"><defs id="ProcessOnDefs1001"><marker id="ProcessOnMarker1023" markerUnits="userSpaceOnUse" orient="auto" markerWidth="14.289086868996552" markerHeight="19.055054660878554" viewBox="-0.5877852522924731 -0.8090169943749475 14.289086868996552 19.055054660878554" refX="12.0" refY="8.71851033606433"><path id="ProcessOnPath1024" d="M0 0L12.0 8.71851033606433L0 17.43702067212866" stroke="#66ffff" stroke-width="2.0" fill="none" transform="matrix(1.0,0.0,0.0,1.0,0.0,0.0)"/></marker><marker id="ProcessOnMarker1040" markerUnits="userSpaceOnUse" orient="auto" markerWidth="14.289086868996552" markerHeight="19.055054660878554" viewBox="-0.5877852522924731 -0.8090169943749475 14.289086868996552 19.055054660878554" refX="12.0" refY="8.71851033606433"><path id="ProcessOnPath1041" d="M0 0L12.0 8.71851033606433L0 17.43702067212866" stroke="#66ffff" stroke-width="2.0" fill="none" transform="matrix(1.0,0.0,0.0,1.0,0.0,0.0)"/></marker><marker id="ProcessOnMarker1047" markerUnits="userSpaceOnUse" orient="auto" markerWidth="14.289086868996552" markerHeight="19.055054660878554" viewBox="-0.5877852522924731 -0.8090169943749475 14.289086868996552 19.055054660878554" refX="12.0" refY="8.71851033606433"><path id="ProcessOnPath1048" d="M0 0L12.0 8.71851033606433L0 17.43702067212866" stroke="#6666ff" stroke-width="2.0" fill="none" transform="matrix(1.0,0.0,0.0,1.0,0.0,0.0)"/></marker><marker id="ProcessOnMarker1055" markerUnits="userSpaceOnUse" orient="auto" markerWidth="14.289086868996552" markerHeight="19.055054660878554" viewBox="-0.5877852522924731 -0.8090169943749475 14.289086868996552 19.055054660878554" refX="12.0" refY="8.71851033606433"><path id="ProcessOnPath1056" d="M0 0L12.0 8.71851033606433L0 17.43702067212866" stroke="#66ffff" stroke-width="2.0" fill="none" transform="matrix(1.0,0.0,0.0,1.0,0.0,0.0)"/></marker><marker id="ProcessOnMarker1066" markerUnits="userSpaceOnUse" orient="auto" markerWidth="14.289086868996552" markerHeight="19.055054660878554" viewBox="-0.5877852522924731 -0.8090169943749475 14.289086868996552 19.055054660878554" refX="12.0" refY="8.71851033606433"><path id="ProcessOnPath1067" d="M0 0L12.0 8.71851033606433L0 17.43702067212866" stroke="#6666ff" stroke-width="2.0" fill="none" transform="matrix(1.0,0.0,0.0,1.0,0.0,0.0)"/></marker><marker id="ProcessOnMarker1081" markerUnits="userSpaceOnUse" orient="auto" markerWidth="14.289086868996552" markerHeight="19.055054660878554" viewBox="-0.5877852522924731 -0.8090169943749475 14.289086868996552 19.055054660878554" refX="12.0" refY="8.71851033606433"><path id="ProcessOnPath1082" d="M0 0L12.0 8.71851033606433L0 17.43702067212866" stroke="#6666ff" stroke-width="2.0" fill="none" transform="matrix(1.0,0.0,0.0,1.0,0.0,0.0)"/></marker><marker id="ProcessOnMarker1085" markerUnits="userSpaceOnUse" orient="auto" markerWidth="14.289086868996552" markerHeight="19.055054660878554" viewBox="-0.5877852522924731 -0.8090169943749475 14.289086868996552 19.055054660878554" refX="12.0" refY="8.71851033606433"><path id="ProcessOnPath1086" d="M0 0L12.0 8.71851033606433L0 17.43702067212866" stroke="#6666ff" stroke-width="2.0" fill="none" transform="matrix(1.0,0.0,0.0,1.0,0.0,0.0)"/></marker><marker id="ProcessOnMarker1098" markerUnits="userSpaceOnUse" orient="auto" markerWidth="14.289086868996552" markerHeight="19.055054660878554" viewBox="-0.5877852522924731 -0.8090169943749475 14.289086868996552 19.055054660878554" refX="12.0" refY="8.71851033606433"><path id="ProcessOnPath1099" d="M0 0L12.0 8.71851033606433L0 17.43702067212866" stroke="#ffb366" stroke-width="2.0" fill="none" transform="matrix(1.0,0.0,0.0,1.0,0.0,0.0)"/></marker><marker id="ProcessOnMarker1106" markerUnits="userSpaceOnUse" orient="auto" markerWidth="14.289086868996552" markerHeight="19.055054660878554" viewBox="-0.5877852522924731 -0.8090169943749475 14.289086868996552 19.055054660878554" refX="12.0" refY="8.71851033606433"><path id="ProcessOnPath1107" d="M0 0L12.0 8.71851033606433L0 17.43702067212866" stroke="#ffb366" stroke-width="2.0" fill="none" transform="matrix(1.0,0.0,0.0,1.0,0.0,0.0)"/></marker><marker id="ProcessOnMarker1122" markerUnits="userSpaceOnUse" orient="auto" markerWidth="14.289086868996552" markerHeight="19.055054660878554" viewBox="-0.5877852522924731 -0.8090169943749475 14.289086868996552 19.055054660878554" refX="12.0" refY="8.71851033606433"><path id="ProcessOnPath1123" d="M0 0L12.0 8.71851033606433L0 17.43702067212866" stroke="#ffb366" stroke-width="2.0" fill="none" transform="matrix(1.0,0.0,0.0,1.0,0.0,0.0)"/></marker><marker id="ProcessOnMarker1126" markerUnits="userSpaceOnUse" orient="auto" markerWidth="14.289086868996552" markerHeight="19.055054660878554" viewBox="-0.5877852522924731 -0.8090169943749475 14.289086868996552 19.055054660878554" refX="12.0" refY="8.71851033606433"><path id="ProcessOnPath1127" d="M0 0L12.0 8.71851033606433L0 17.43702067212866" stroke="#ffb366" stroke-width="2.0" fill="none" transform="matrix(1.0,0.0,0.0,1.0,0.0,0.0)"/></marker><marker id="ProcessOnMarker1130" markerUnits="userSpaceOnUse" orient="auto" markerWidth="14.289086868996552" markerHeight="19.055054660878554" viewBox="-0.5877852522924731 -0.8090169943749475 14.289086868996552 19.055054660878554" refX="12.0" refY="8.71851033606433"><path id="ProcessOnPath1131" d="M0 0L12.0 8.71851033606433L0 17.43702067212866" stroke="#ffb366" stroke-width="2.0" fill="none" transform="matrix(1.0,0.0,0.0,1.0,0.0,0.0)"/></marker><marker id="ProcessOnMarker1148" markerUnits="userSpaceOnUse" orient="auto" markerWidth="14.289086868996552" markerHeight="19.055054660878554" viewBox="-0.5877852522924731 -0.8090169943749475 14.289086868996552 19.055054660878554" refX="12.0" refY="8.71851033606433"><path id="ProcessOnPath1149" d="M0 0L12.0 8.71851033606433L0 17.43702067212866" stroke="#66b2ff" stroke-width="2.0" fill="none" transform="matrix(1.0,0.0,0.0,1.0,0.0,0.0)"/></marker><marker id="ProcessOnMarker1164" markerUnits="userSpaceOnUse" orient="auto" markerWidth="14.289086868996552" markerHeight="19.055054660878554" viewBox="-0.5877852522924731 -0.8090169943749475 14.289086868996552 19.055054660878554" refX="12.0" refY="8.71851033606433"><path id="ProcessOnPath1165" d="M0 0L12.0 8.71851033606433L0 17.43702067212866" stroke="#66b2ff" stroke-width="2.0" fill="none" transform="matrix(1.0,0.0,0.0,1.0,0.0,0.0)"/></marker><marker id="ProcessOnMarker1168" markerUnits="userSpaceOnUse" orient="auto" markerWidth="14.289086868996552" markerHeight="19.055054660878554" viewBox="-0.5877852522924731 -0.8090169943749475 14.289086868996552 19.055054660878554" refX="12.0" refY="8.71851033606433"><path id="ProcessOnPath1169" d="M0 0L12.0 8.71851033606433L0 17.43702067212866" stroke="#66b2ff" stroke-width="2.0" fill="none" transform="matrix(1.0,0.0,0.0,1.0,0.0,0.0)"/></marker><marker id="ProcessOnMarker1172" markerUnits="userSpaceOnUse" orient="auto" markerWidth="14.289086868996552" markerHeight="19.055054660878554" viewBox="-0.5877852522924731 -0.8090169943749475 14.289086868996552 19.055054660878554" refX="12.0" refY="8.71851033606433"><path id="ProcessOnPath1173" d="M0 0L12.0 8.71851033606433L0 17.43702067212866" stroke="#66b2ff" stroke-width="2.0" fill="none" transform="matrix(1.0,0.0,0.0,1.0,0.0,0.0)"/></marker><marker id="ProcessOnMarker1181" markerUnits="userSpaceOnUse" orient="auto" markerWidth="14.289086868996552" markerHeight="19.055054660878554" viewBox="-0.5877852522924731 -0.8090169943749475 14.289086868996552 19.055054660878554" refX="12.0" refY="8.71851033606433"><path id="ProcessOnPath1182" d="M0 0L12.0 8.71851033606433L0 17.43702067212866" stroke="#6666ff" stroke-width="2.0" fill="none" transform="matrix(1.0,0.0,0.0,1.0,0.0,0.0)"/></marker><marker id="ProcessOnMarker1192" markerUnits="userSpaceOnUse" orient="auto" markerWidth="14.289086868996552" markerHeight="19.055054660878554" viewBox="-0.5877852522924731 -0.8090169943749475 14.289086868996552 19.055054660878554" refX="12.0" refY="8.71851033606433"><path id="ProcessOnPath1193" d="M0 0L12.0 8.71851033606433L0 17.43702067212866" stroke="#6666ff" stroke-width="2.0" fill="none" transform="matrix(1.0,0.0,0.0,1.0,0.0,0.0)"/></marker></defs><g id="ProcessOnG1002"><path id="ProcessOnPath1003" d="M198.0 61.0H1441.0V986.0H198.0V61.0Z" fill="none"/><g id="ProcessOnG1004"><g id="ProcessOnG1005" transform="matrix(1.0,0.0,0.0,1.0,218.0,546.0)" opacity="1.0"><path id="ProcessOnPath1006" d="M0.0 0.0L1203.0 0.0L1203.0 420.0L0.0 420.0Z" stroke="#323232" stroke-width="2.0" stroke-dasharray="none" opacity="1.0" fill="#ffffff"/></g><g id="ProcessOnG1007" transform="matrix(1.0,0.0,0.0,1.0,218.0,81.0)" opacity="1.0"><path id="ProcessOnPath1008" d="M0.0 0.0L1203.0 0.0L1203.0 394.0L0.0 394.0Z" stroke="#323232" stroke-width="2.0" stroke-dasharray="none" opacity="1.0" fill="#ffffff"/></g><g id="ProcessOnG1009" transform="matrix(1.0,0.0,0.0,1.0,240.0,88.25)" opacity="1.0"><path id="ProcessOnPath1010" d="M0.0 0.0L219.5 0.0L219.5 31.5L0.0 31.5Z" stroke="none" stroke-width="0.0" stroke-dasharray="none" opacity="1.0" fill="none"/><g id="ProcessOnG1011" transform="matrix(1.0,0.0,0.0,1.0,0.0,5.75)"><text id="ProcessOnText1012" fill="#000000" font-size="16" x="0.0" y="16.4" font-family="微软雅黑" font-weight="bold" font-style="normal" text-decoration="none" family="微软雅黑" text-anchor="start" size="16">node instance</text></g></g><g id="ProcessOnG1013" transform="matrix(1.0,0.0,0.0,1.0,501.5,279.0)" opacity="1.0"><path id="ProcessOnPath1014" d="M0.0 0.0L106.0 0.0L106.0 32.0L0.0 32.0Z" stroke="#323232" stroke-width="2.0" stroke-dasharray="10.0 4.0" opacity="1.0" fill="#ffffff"/><g id="ProcessOnG1015" transform="matrix(1.0,0.0,0.0,1.0,10.0,7.875)"><text id="ProcessOnText1016" fill="#000000" font-size="13" x="42.0" y="13.325" font-family="微软雅黑" font-weight="normal" font-style="normal" text-decoration="none" family="微软雅黑" text-anchor="middle" size="13">step()</text></g></g><g id="ProcessOnG1017" transform="matrix(1.0,0.0,0.0,1.0,240.0,386.0)" opacity="1.0"><path id="ProcessOnPath1018" d="M0.0 0.0L120.0 0.0L120.0 32.0L0.0 32.0Z" stroke="#323232" stroke-width="2.0" stroke-dasharray="10.0 4.0" opacity="1.0" fill="#ffffff"/><g id="ProcessOnG1019" transform="matrix(1.0,0.0,0.0,1.0,10.0,7.875)"><text id="ProcessOnText1020" fill="#000000" font-size="13" x="49.0" y="13.325" font-family="微软雅黑" font-weight="normal" font-style="normal" text-decoration="none" family="微软雅黑" text-anchor="middle" size="13">Propose</text></g></g><g id="ProcessOnG1021"><path id="ProcessOnPath1022" d="M360.0 402.0C430.9605524217505 402.0 430.5394475782495 295.0 501.5 295.0" stroke="#66ffff" stroke-width="2.0" stroke-dasharray="10.0 4.0" fill="none" marker-end="url(#ProcessOnMarker1023)"/><g id="ProcessOnG1025" transform="matrix(1.0,0.0,0.0,1.0,430.75,340.375)"><path id="ProcessOnPath1026" d="M0 0H75.0V16.25H0Z" fill="#fff" transform="matrix(1.0,0.0,0.0,1.0,-37.5,0.0)"/><text id="ProcessOnText1027" fill="#66ffff" font-size="13" x="0.0" y="13.325" font-family="微软雅黑" font-weight="normal" font-style="normal" text-decoration="none" family="微软雅黑" text-anchor="middle" size="13">pb.MsgProp</text></g></g><g id="ProcessOnG1028" transform="matrix(1.0,0.0,0.0,1.0,807.375,279.0)" opacity="1.0"><path id="ProcessOnPath1029" d="M0.0 0.0L100.25 0.0L0.0 0.0M0.0 32.0L100.25 32.0L0.0 32.0Z" stroke="#323232" stroke-width="2.0" stroke-dasharray="none" opacity="1.0" fill="#ffffff"/><path id="ProcessOnPath1030" d="M0.0 0.0L100.25 0.0L100.25 32.0L0.0 32.0L0.0 0.0Z" stroke="none" stroke-width="0.0" stroke-dasharray="none" opacity="1.0" fill="none"/><g id="ProcessOnG1031" transform="matrix(1.0,0.0,0.0,1.0,10.0,7.875)"><text id="ProcessOnText1032" fill="#000000" font-size="13" x="39.125" y="13.325" font-family="微软雅黑" font-weight="normal" font-style="normal" text-decoration="none" family="微软雅黑" text-anchor="middle" size="13">recvc</text></g></g><g id="ProcessOnG1033" transform="matrix(1.0,0.0,0.0,1.0,529.375,398.0)" opacity="1.0"><path id="ProcessOnPath1034" d="M0.0 0.0L100.25 0.0L0.0 0.0M0.0 32.0L100.25 32.0L0.0 32.0Z" stroke="#323232" stroke-width="2.0" stroke-dasharray="none" opacity="1.0" fill="#ffffff"/><path id="ProcessOnPath1035" d="M0.0 0.0L100.25 0.0L100.25 32.0L0.0 32.0L0.0 0.0Z" stroke="none" stroke-width="0.0" stroke-dasharray="none" opacity="1.0" fill="none"/><g id="ProcessOnG1036" transform="matrix(1.0,0.0,0.0,1.0,10.0,7.875)"><text id="ProcessOnText1037" fill="#000000" font-size="13" x="39.125" y="13.325" font-family="微软雅黑" font-weight="normal" font-style="normal" text-decoration="none" family="微软雅黑" text-anchor="middle" size="13">propc</text></g></g><g id="ProcessOnG1038"><path id="ProcessOnPath1039" d="M509.0 311.0C509.0 349.91734831665696 491.08265168334304 406.0 530.0 406.0" stroke="#66ffff" stroke-width="2.0" stroke-dasharray="10.0 4.0" fill="none" marker-end="url(#ProcessOnMarker1040)"/><g id="ProcessOnG1042" transform="matrix(1.0,0.0,0.0,1.0,504.90599438125366,364.96900561874634)"><path id="ProcessOnPath1043" d="M0 0H147.0V16.25H0Z" fill="#fff" transform="matrix(1.0,0.0,0.0,1.0,-73.5,0.0)"/><text id="ProcessOnText1044" fill="#66ffff" font-size="13" x="0.0" y="13.325" font-family="微软雅黑" font-weight="normal" font-style="normal" text-decoration="none" family="微软雅黑" text-anchor="middle" size="13">m.Type == pb.MsgProp</text></g></g><g id="ProcessOnG1045"><path id="ProcessOnPath1046" d="M607.5 295.0C687.7009975000311 295.0 727.7990024999689 296.0 808.0 296.0" stroke="#6666ff" stroke-width="2.0" stroke-dasharray="10.0 4.0" fill="none" marker-end="url(#ProcessOnMarker1047)"/></g><g id="ProcessOnG1049" transform="matrix(1.0,0.0,0.0,1.0,673.625,615.0)" opacity="1.0"><path id="ProcessOnPath1050" d="M0.0 0.0L106.0 0.0L106.0 32.0L0.0 32.0Z" stroke="#323232" stroke-width="2.0" stroke-dasharray="10.0 4.0" opacity="1.0" fill="#ffffff"/><g id="ProcessOnG1051" transform="matrix(1.0,0.0,0.0,1.0,10.0,7.875)"><text id="ProcessOnText1052" fill="#000000" font-size="13" x="42.0" y="13.325" font-family="微软雅黑" font-weight="normal" font-style="normal" text-decoration="none" family="微软雅黑" text-anchor="middle" size="13">getProgress</text></g></g><g id="ProcessOnG1053"><path id="ProcessOnPath1054" d="M629.0 416.0C745.6426603300799 416.0 602.5874173333532 608.6663307886356 513.233955556881 683.6427876096866" stroke="#66ffff" stroke-width="2.0" stroke-dasharray="none" fill="none" marker-end="url(#ProcessOnMarker1055)"/><g id="ProcessOnG1057" transform="matrix(1.0,0.0,0.0,1.0,648.3655235683975,513.5802224969492)"><path id="ProcessOnPath1058" d="M0 0H84.0V16.25H0Z" fill="#fff" transform="matrix(1.0,0.0,0.0,1.0,-42.0,0.0)"/><text id="ProcessOnText1059" fill="#66ffff" font-size="13" x="0.0" y="13.325" font-family="微软雅黑" font-weight="normal" font-style="normal" text-decoration="none" family="微软雅黑" text-anchor="middle" size="13">m.From = r.id</text></g></g><g id="ProcessOnG1060" transform="matrix(1.0,0.0,0.0,1.0,240.0,211.0)" opacity="1.0"><path id="ProcessOnPath1061" d="M0.0 0.0L120.0 0.0L120.0 32.0L0.0 32.0Z" stroke="#323232" stroke-width="2.0" stroke-dasharray="10.0 4.0" opacity="1.0" fill="#ffffff"/><g id="ProcessOnG1062" transform="matrix(1.0,0.0,0.0,1.0,10.0,7.875)"><text id="ProcessOnText1063" fill="#000000" font-size="13" x="49.0" y="13.325" font-family="微软雅黑" font-weight="normal" font-style="normal" text-decoration="none" family="微软雅黑" text-anchor="middle" size="13">Campaign</text></g></g><g id="ProcessOnG1064"><path id="ProcessOnPath1065" d="M360.0 227.0C420.68972260507536 227.0 449.03923468672735 251.15513869746235 501.5980762113533 281.5" stroke="#6666ff" stroke-width="2.0" stroke-dasharray="10.0 4.0" fill="none" marker-end="url(#ProcessOnMarker1066)"/><g id="ProcessOnG1068" transform="matrix(1.0,0.0,0.0,1.0,433.84811851084515,234.74567701154837)"><path id="ProcessOnPath1069" d="M0 0H72.0V16.25H0Z" fill="#fff" transform="matrix(1.0,0.0,0.0,1.0,-36.0,0.0)"/><text id="ProcessOnText1070" fill="#6666ff" font-size="13" x="0.0" y="13.325" font-family="微软雅黑" font-weight="normal" font-style="normal" text-decoration="none" family="微软雅黑" text-anchor="middle" size="13">pb.MsgHup</text></g></g><g id="ProcessOnG1071" transform="matrix(1.0,0.0,0.0,1.0,240.0,573.25)" opacity="1.0"><path id="ProcessOnPath1072" d="M0.0 0.0L219.5 0.0L219.5 31.5L0.0 31.5Z" stroke="none" stroke-width="0.0" stroke-dasharray="none" opacity="1.0" fill="none"/><g id="ProcessOnG1073" transform="matrix(1.0,0.0,0.0,1.0,0.0,5.75)"><text id="ProcessOnText1074" fill="#000000" font-size="16" x="0.0" y="16.4" font-family="微软雅黑" font-weight="bold" font-style="normal" text-decoration="none" family="微软雅黑" text-anchor="start" size="16">raft instance</text></g></g><g id="ProcessOnG1075" transform="matrix(1.0,0.0,0.0,1.0,407.5,682.0)" opacity="1.0"><path id="ProcessOnPath1076" d="M0.0 0.0L106.0 0.0L106.0 32.0L0.0 32.0Z" stroke="#323232" stroke-width="2.0" stroke-dasharray="10.0 4.0" opacity="1.0" fill="#ffffff"/><g id="ProcessOnG1077" transform="matrix(1.0,0.0,0.0,1.0,10.0,7.875)"><text id="ProcessOnText1078" fill="#000000" font-size="13" x="42.0" y="13.325" font-family="微软雅黑" font-weight="normal" font-style="normal" text-decoration="none" family="微软雅黑" text-anchor="middle" size="13">Step</text></g></g><g id="ProcessOnG1079"><path id="ProcessOnPath1080" d="M906.75 296.0C1050.0738378637693 296.0 922.9488378637692 631.0 779.625 631.0" stroke="#6666ff" stroke-width="2.0" stroke-dasharray="10.0 4.0" fill="none" marker-end="url(#ProcessOnMarker1081)"/></g><g id="ProcessOnG1083"><path id="ProcessOnPath1084" d="M673.625 631.0C604.1941531090107 631.0 582.9308468909893 698.0 513.5 698.0" stroke="#6666ff" stroke-width="2.0" stroke-dasharray="10.0 4.0" fill="none" marker-end="url(#ProcessOnMarker1085)"/></g><g id="ProcessOnG1087" transform="matrix(1.0,0.0,0.0,1.0,807.375,122.0)" opacity="1.0"><path id="ProcessOnPath1088" d="M0.0 0.0L100.25 0.0L0.0 0.0M0.0 32.0L100.25 32.0L0.0 32.0Z" stroke="#323232" stroke-width="2.0" stroke-dasharray="none" opacity="1.0" fill="#ffffff"/><path id="ProcessOnPath1089" d="M0.0 0.0L100.25 0.0L100.25 32.0L0.0 32.0L0.0 0.0Z" stroke="none" stroke-width="0.0" stroke-dasharray="none" opacity="1.0" fill="none"/><g id="ProcessOnG1090" transform="matrix(1.0,0.0,0.0,1.0,10.0,7.875)"><text id="ProcessOnText1091" fill="#000000" font-size="13" x="39.125" y="13.325" font-family="微软雅黑" font-weight="normal" font-style="normal" text-decoration="none" family="微软雅黑" text-anchor="middle" size="13">confc</text></g></g><g id="ProcessOnG1092" transform="matrix(1.0,0.0,0.0,1.0,564.75,122.0)" opacity="1.0"><path id="ProcessOnPath1093" d="M0.0 0.0L137.5 0.0L137.5 32.0L0.0 32.0Z" stroke="#323232" stroke-width="2.0" stroke-dasharray="10.0 4.0" opacity="1.0" fill="#ffffff"/><g id="ProcessOnG1094" transform="matrix(1.0,0.0,0.0,1.0,10.0,7.875)"><text id="ProcessOnText1095" fill="#000000" font-size="13" x="57.75" y="13.325" font-family="微软雅黑" font-weight="normal" font-style="normal" text-decoration="none" family="微软雅黑" text-anchor="middle" size="13">ApplyConfChange</text></g></g><g id="ProcessOnG1096"><path id="ProcessOnPath1097" d="M702.25 138.0C744.45 138.0 765.55 138.0 807.75 138.0" stroke="#ffb366" stroke-width="2.0" stroke-dasharray="10.0 4.0" fill="none" marker-end="url(#ProcessOnMarker1098)"/></g><g id="ProcessOnG1100" transform="matrix(1.0,0.0,0.0,1.0,673.625,689.0)" opacity="1.0"><path id="ProcessOnPath1101" d="M0.0 0.0L140.375 0.0L140.375 32.0L0.0 32.0Z" stroke="#323232" stroke-width="2.0" stroke-dasharray="10.0 4.0" opacity="1.0" fill="#ffffff"/><g id="ProcessOnG1102" transform="matrix(1.0,0.0,0.0,1.0,10.0,7.875)"><text id="ProcessOnText1103" fill="#000000" font-size="13" x="59.1875" y="13.325" font-family="微软雅黑" font-weight="normal" font-style="normal" text-decoration="none" family="微软雅黑" text-anchor="middle" size="13">resetPendingConf</text></g></g><g id="ProcessOnG1104"><path id="ProcessOnPath1105" d="M906.75 138.0C1136.5643816213424 137.99999999999997 1043.8143816213424 705.0 814.0 705.0" stroke="#ffb366" stroke-width="2.0" stroke-dasharray="10.0 4.0" fill="none" marker-end="url(#ProcessOnMarker1106)"/></g><g id="ProcessOnG1108" transform="matrix(1.0,0.0,0.0,1.0,673.625,755.0)" opacity="1.0"><path id="ProcessOnPath1109" d="M0.0 0.0L140.375 0.0L140.375 32.0L0.0 32.0Z" stroke="#323232" stroke-width="2.0" stroke-dasharray="10.0 4.0" opacity="1.0" fill="#ffffff"/><g id="ProcessOnG1110" transform="matrix(1.0,0.0,0.0,1.0,10.0,7.875)"><text id="ProcessOnText1111" fill="#000000" font-size="13" x="59.1875" y="13.325" font-family="微软雅黑" font-weight="normal" font-style="normal" text-decoration="none" family="微软雅黑" text-anchor="middle" size="13">addNode</text></g></g><g id="ProcessOnG1112" transform="matrix(1.0,0.0,0.0,1.0,673.625,822.0)" opacity="1.0"><path id="ProcessOnPath1113" d="M0.0 0.0L140.375 0.0L140.375 32.0L0.0 32.0Z" stroke="#323232" stroke-width="2.0" stroke-dasharray="10.0 4.0" opacity="1.0" fill="#ffffff"/><g id="ProcessOnG1114" transform="matrix(1.0,0.0,0.0,1.0,10.0,7.875)"><text id="ProcessOnText1115" fill="#000000" font-size="13" x="59.1875" y="13.325" font-family="微软雅黑" font-weight="normal" font-style="normal" text-decoration="none" family="微软雅黑" text-anchor="middle" size="13">addLearner</text></g></g><g id="ProcessOnG1116" transform="matrix(1.0,0.0,0.0,1.0,673.625,889.0)" opacity="1.0"><path id="ProcessOnPath1117" d="M0.0 0.0L140.375 0.0L140.375 32.0L0.0 32.0Z" stroke="#323232" stroke-width="2.0" stroke-dasharray="10.0 4.0" opacity="1.0" fill="#ffffff"/><g id="ProcessOnG1118" transform="matrix(1.0,0.0,0.0,1.0,10.0,7.875)"><text id="ProcessOnText1119" fill="#000000" font-size="13" x="59.1875" y="13.325" font-family="微软雅黑" font-weight="normal" font-style="normal" text-decoration="none" family="微软雅黑" text-anchor="middle" size="13">removeNode</text></g></g><g id="ProcessOnG1120"><path id="ProcessOnPath1121" d="M906.75 138.0C1162.6535951291032 137.99999999999997 1069.9035951291032 771.0 814.0 771.0" stroke="#ffb366" stroke-width="2.0" stroke-dasharray="10.0 4.0" fill="none" marker-end="url(#ProcessOnMarker1122)"/></g><g id="ProcessOnG1124"><path id="ProcessOnPath1125" d="M906.75 138.0C1189.197180902908 137.99999999999997 1096.447180902908 838.0 814.0 838.0" stroke="#ffb366" stroke-width="2.0" stroke-dasharray="10.0 4.0" fill="none" marker-end="url(#ProcessOnMarker1126)"/></g><g id="ProcessOnG1128"><path id="ProcessOnPath1129" d="M906.75 138.0C1215.7850303768166 137.99999999999997 1123.0350303768166 905.0 814.0 905.0" stroke="#ffb366" stroke-width="2.0" stroke-dasharray="10.0 4.0" fill="none" marker-end="url(#ProcessOnMarker1130)"/></g><g id="ProcessOnG1132" transform="matrix(1.0,0.0,0.0,1.0,807.375,354.0)" opacity="1.0"><path id="ProcessOnPath1133" d="M0.0 0.0L100.25 0.0L0.0 0.0M0.0 32.0L100.25 32.0L0.0 32.0Z" stroke="#323232" stroke-width="2.0" stroke-dasharray="none" opacity="1.0" fill="#ffffff"/><path id="ProcessOnPath1134" d="M0.0 0.0L100.25 0.0L100.25 32.0L0.0 32.0L0.0 0.0Z" stroke="none" stroke-width="0.0" stroke-dasharray="none" opacity="1.0" fill="none"/><g id="ProcessOnG1135" transform="matrix(1.0,0.0,0.0,1.0,10.0,7.875)"><text id="ProcessOnText1136" fill="#000000" font-size="13" x="39.125" y="13.325" font-family="微软雅黑" font-weight="normal" font-style="normal" text-decoration="none" family="微软雅黑" text-anchor="middle" size="13">readyc</text></g></g><g id="ProcessOnG1137" transform="matrix(1.0,0.0,0.0,1.0,1095.75,340.0)" opacity="1.0"><path id="ProcessOnPath1138" d="M0.0 0.0L100.25 0.0L0.0 0.0M0.0 32.0L100.25 32.0L0.0 32.0Z" stroke="#323232" stroke-width="2.0" stroke-dasharray="none" opacity="1.0" fill="#ffffff"/><path id="ProcessOnPath1139" d="M0.0 0.0L100.25 0.0L100.25 32.0L0.0 32.0L0.0 0.0Z" stroke="none" stroke-width="0.0" stroke-dasharray="none" opacity="1.0" fill="none"/><g id="ProcessOnG1140" transform="matrix(1.0,0.0,0.0,1.0,10.0,7.875)"><text id="ProcessOnText1141" fill="#000000" font-size="13" x="39.125" y="13.325" font-family="微软雅黑" font-weight="normal" font-style="normal" text-decoration="none" family="微软雅黑" text-anchor="middle" size="13">advancec</text></g></g><g id="ProcessOnG1142" transform="matrix(1.0,0.0,0.0,1.0,1095.75,184.0)" opacity="1.0"><path id="ProcessOnPath1143" d="M0.0 0.0L137.5 0.0L137.5 32.0L0.0 32.0Z" stroke="#323232" stroke-width="2.0" stroke-dasharray="10.0 4.0" opacity="1.0" fill="#ffffff"/><g id="ProcessOnG1144" transform="matrix(1.0,0.0,0.0,1.0,10.0,7.875)"><text id="ProcessOnText1145" fill="#000000" font-size="13" x="57.75" y="13.325" font-family="微软雅黑" font-weight="normal" font-style="normal" text-decoration="none" family="微软雅黑" text-anchor="middle" size="13">Advance</text></g></g><g id="ProcessOnG1146"><path id="ProcessOnPath1147" d="M1095.75 200.0C1033.3499198718464 200.0 1033.5999198718464 356.0 1096.0 356.0" stroke="#66b2ff" stroke-width="2.0" stroke-dasharray="10.0 4.0" fill="none" marker-end="url(#ProcessOnMarker1148)"/></g><g id="ProcessOnG1150" transform="matrix(1.0,0.0,0.0,1.0,1115.625,589.0)" opacity="1.0"><path id="ProcessOnPath1151" d="M0.0 0.0L140.375 0.0L140.375 32.0L0.0 32.0Z" stroke="#323232" stroke-width="2.0" stroke-dasharray="10.0 4.0" opacity="1.0" fill="#ffffff"/><g id="ProcessOnG1152" transform="matrix(1.0,0.0,0.0,1.0,10.0,7.875)"><text id="ProcessOnText1153" fill="#000000" font-size="13" x="59.1875" y="13.325" font-family="微软雅黑" font-weight="normal" font-style="normal" text-decoration="none" family="微软雅黑" text-anchor="middle" size="13">raftLog.appliedTo</text></g></g><g id="ProcessOnG1154" transform="matrix(1.0,0.0,0.0,1.0,1115.625,647.0)" opacity="1.0"><path id="ProcessOnPath1155" d="M0.0 0.0L140.375 0.0L140.375 32.0L0.0 32.0Z" stroke="#323232" stroke-width="2.0" stroke-dasharray="10.0 4.0" opacity="1.0" fill="#ffffff"/><g id="ProcessOnG1156" transform="matrix(1.0,0.0,0.0,1.0,10.0,7.875)"><text id="ProcessOnText1157" fill="#000000" font-size="13" x="59.1875" y="13.325" font-family="微软雅黑" font-weight="normal" font-style="normal" text-decoration="none" family="微软雅黑" text-anchor="middle" size="13">raftLog.stableTo</text></g></g><g id="ProcessOnG1158" transform="matrix(1.0,0.0,0.0,1.0,1095.75,714.0)" opacity="1.0"><path id="ProcessOnPath1159" d="M0.0 0.0L160.25 0.0L160.25 32.0L0.0 32.0Z" stroke="#323232" stroke-width="2.0" stroke-dasharray="10.0 4.0" opacity="1.0" fill="#ffffff"/><g id="ProcessOnG1160" transform="matrix(1.0,0.0,0.0,1.0,10.0,7.875)"><text id="ProcessOnText1161" fill="#000000" font-size="13" x="69.125" y="13.325" font-family="微软雅黑" font-weight="normal" font-style="normal" text-decoration="none" family="微软雅黑" text-anchor="middle" size="13">raftLog.stableSnapTo</text></g></g><g id="ProcessOnG1162"><path id="ProcessOnPath1163" d="M1196.0 359.0C1297.284549660844 359.0 1357.284549660844 605.0 1256.0 605.0" stroke="#66b2ff" stroke-width="2.0" stroke-dasharray="10.0 4.0" fill="none" marker-end="url(#ProcessOnMarker1164)"/></g><g id="ProcessOnG1166"><path id="ProcessOnPath1167" d="M1196.0 360.0C1319.5533892695785 359.99999999999994 1379.5533892695785 663.0 1256.0 663.0" stroke="#66b2ff" stroke-width="2.0" stroke-dasharray="10.0 4.0" fill="none" marker-end="url(#ProcessOnMarker1168)"/></g><g id="ProcessOnG1170"><path id="ProcessOnPath1171" d="M1196.0 360.0C1345.9333185119306 360.0 1405.9333185119306 730.0 1256.0 730.0" stroke="#66b2ff" stroke-width="2.0" stroke-dasharray="10.0 4.0" fill="none" marker-end="url(#ProcessOnMarker1172)"/></g><g id="ProcessOnG1174" transform="matrix(1.0,0.0,0.0,1.0,564.75,197.0)" opacity="1.0"><path id="ProcessOnPath1175" d="M0.0 0.0L137.5 0.0L137.5 32.0L0.0 32.0Z" stroke="#323232" stroke-width="2.0" stroke-dasharray="10.0 4.0" opacity="1.0" fill="#ffffff"/><g id="ProcessOnG1176" transform="matrix(1.0,0.0,0.0,1.0,10.0,-0.25)"><text id="ProcessOnText1177" fill="#000000" font-size="13" x="57.75" y="13.325" font-family="微软雅黑" font-weight="normal" font-style="normal" text-decoration="none" family="微软雅黑" text-anchor="middle" size="13">TransferLeadershi</text><text id="ProcessOnText1178" fill="#000000" font-size="13" x="57.75" y="29.575" font-family="微软雅黑" font-weight="normal" font-style="normal" text-decoration="none" family="微软雅黑" text-anchor="middle" size="13">p</text></g></g><g id="ProcessOnG1179"><path id="ProcessOnPath1180" d="M702.25 213.0C753.8779962810877 213.0 756.3720037189123 287.0 808.0 287.0" stroke="#6666ff" stroke-width="2.0" stroke-dasharray="10.0 4.0" fill="none" marker-end="url(#ProcessOnMarker1181)"/><g id="ProcessOnG1183" transform="matrix(1.0,0.0,0.0,1.0,755.125,241.875)"><path id="ProcessOnPath1184" d="M0 0H137.0V16.25H0Z" fill="#fff" transform="matrix(1.0,0.0,0.0,1.0,-68.5,0.0)"/><text id="ProcessOnText1185" fill="#6666ff" font-size="13" x="0.0" y="13.325" font-family="微软雅黑" font-weight="normal" font-style="normal" text-decoration="none" family="微软雅黑" text-anchor="middle" size="13">pb.MsgTransferLeader</text></g></g><g id="ProcessOnG1186" transform="matrix(1.0,0.0,0.0,1.0,240.0,135.0)" opacity="1.0"><path id="ProcessOnPath1187" d="M0.0 0.0L120.0 0.0L120.0 32.0L0.0 32.0Z" stroke="#323232" stroke-width="2.0" stroke-dasharray="10.0 4.0" opacity="1.0" fill="#ffffff"/><g id="ProcessOnG1188" transform="matrix(1.0,0.0,0.0,1.0,10.0,7.875)"><text id="ProcessOnText1189" fill="#000000" font-size="13" x="49.0" y="13.325" font-family="微软雅黑" font-weight="normal" font-style="normal" text-decoration="none" family="微软雅黑" text-anchor="middle" size="13">ReadIndex</text></g></g><g id="ProcessOnG1190"><path id="ProcessOnPath1191" d="M360.0 151.0C441.3368305259063 151.0 518.0 197.6631694740937 518.0 279.0" stroke="#6666ff" stroke-width="2.0" stroke-dasharray="10.0 4.0" fill="none" marker-end="url(#ProcessOnMarker1192)"/><g id="ProcessOnG1194" transform="matrix(1.0,0.0,0.0,1.0,469.50131144721485,176.37368855278515)"><path id="ProcessOnPath1195" d="M0 0H110.00000000000006V16.25H0Z" fill="#fff" transform="matrix(1.0,0.0,0.0,1.0,-55.00000000000003,0.0)"/><text id="ProcessOnText1196" fill="#6666ff" font-size="13" x="0.0" y="13.325" font-family="微软雅黑" font-weight="normal" font-style="normal" text-decoration="none" family="微软雅黑" text-anchor="middle" size="13">pb.MsgReadIndex</text></g></g></g></g></svg>