<svg xmlns="http://www.w3.org/2000/svg" xmlns:xlink="http://www.w3.org/1999/xlink" id="processonSvg1000" viewBox="37.0 25.0 1004.25 1844.0" width="1004.25" height="1844.0"><defs id="ProcessOnDefs1001"><marker id="ProcessOnMarker1017" markerUnits="userSpaceOnUse" orient="auto" markerWidth="14.289086868996552" markerHeight="19.055054660878554" viewBox="-0.5877852522924731 -0.8090169943749475 14.289086868996552 19.055054660878554" refX="12.0" refY="8.71851033606433"><path id="ProcessOnPath1018" d="M0 0L12.0 8.71851033606433L0 17.43702067212866" stroke="#323232" stroke-width="2.0" fill="none" transform="matrix(1.0,0.0,0.0,1.0,0.0,0.0)"/></marker><marker id="ProcessOnMarker1037" markerUnits="userSpaceOnUse" orient="auto" markerWidth="14.289086868996552" markerHeight="19.055054660878554" viewBox="-0.5877852522924731 -0.8090169943749475 14.289086868996552 19.055054660878554" refX="12.0" refY="8.71851033606433"><path id="ProcessOnPath1038" d="M0 0L12.0 8.71851033606433L0 17.43702067212866" stroke="#323232" stroke-width="2.0" fill="none" transform="matrix(1.0,0.0,0.0,1.0,0.0,0.0)"/></marker><marker id="ProcessOnMarker1057" markerUnits="userSpaceOnUse" orient="auto" markerWidth="14.289086868996552" markerHeight="19.055054660878554" viewBox="-0.5877852522924731 -0.8090169943749475 14.289086868996552 19.055054660878554" refX="12.0" refY="8.71851033606433"><path id="ProcessOnPath1058" d="M0 0L12.0 8.71851033606433L0 17.43702067212866" stroke="#323232" stroke-width="2.0" fill="none" transform="matrix(1.0,0.0,0.0,1.0,0.0,0.0)"/></marker><marker id="ProcessOnMarker1061" markerUnits="userSpaceOnUse" orient="auto" markerWidth="14.289086868996552" markerHeight="19.055054660878554" viewBox="-0.5877852522924731 -0.8090169943749475 14.289086868996552 19.055054660878554" refX="12.0" refY="8.71851033606433"><path id="ProcessOnPath1062" d="M0 0L12.0 8.71851033606433L0 17.43702067212866" stroke="#323232" stroke-width="2.0" fill="none" transform="matrix(1.0,0.0,0.0,1.0,0.0,0.0)"/></marker><marker id="ProcessOnMarker1069" markerUnits="userSpaceOnUse" orient="auto" markerWidth="14.289086868996552" markerHeight="19.055054660878554" viewBox="-0.5877852522924731 -0.8090169943749475 14.289086868996552 19.055054660878554" refX="12.0" refY="8.71851033606433"><path id="ProcessOnPath1070" d="M0 0L12.0 8.71851033606433L0 17.43702067212866" stroke="#323232" stroke-width="2.0" fill="none" transform="matrix(1.0,0.0,0.0,1.0,0.0,0.0)"/></marker><marker id="ProcessOnMarker1084" markerUnits="userSpaceOnUse" orient="auto" markerWidth="14.289086868996552" markerHeight="19.055054660878554" viewBox="-0.5877852522924731 -0.8090169943749475 14.289086868996552 19.055054660878554" refX="1.1135163644116066" refY="8.71851033606433"><path id="ProcessOnPath1085" d="M0 0L12.0 8.71851033606433L0 17.43702067212866" stroke="#323232" stroke-width="2.0" fill="none" transform="matrix(-1.0,1.2246467991473532E-16,-1.2246467991473532E-16,-1.0,13.113516364411606,17.43702067212866)"/></marker><marker id="ProcessOnMarker1092" markerUnits="userSpaceOnUse" orient="auto" markerWidth="14.289086868996552" markerHeight="19.055054660878554" viewBox="-0.5877852522924731 -0.8090169943749475 14.289086868996552 19.055054660878554" refX="12.0" refY="8.71851033606433"><path id="ProcessOnPath1093" d="M0 0L12.0 8.71851033606433L0 17.43702067212866" stroke="#323232" stroke-width="2.0" fill="none" transform="matrix(1.0,0.0,0.0,1.0,0.0,0.0)"/></marker><marker id="ProcessOnMarker1104" markerUnits="userSpaceOnUse" orient="auto" markerWidth="14.289086868996552" markerHeight="19.055054660878554" viewBox="-0.5877852522924731 -0.8090169943749475 14.289086868996552 19.055054660878554" refX="12.0" refY="8.71851033606433"><path id="ProcessOnPath1105" d="M0 0L12.0 8.71851033606433L0 17.43702067212866" stroke="#ff6666" stroke-width="2.0" fill="none" transform="matrix(1.0,0.0,0.0,1.0,0.0,0.0)"/></marker><marker id="ProcessOnMarker1115" markerUnits="userSpaceOnUse" orient="auto" markerWidth="14.289086868996552" markerHeight="19.055054660878554" viewBox="-0.5877852522924731 -0.8090169943749475 14.289086868996552 19.055054660878554" refX="12.0" refY="8.71851033606433"><path id="ProcessOnPath1116" d="M0 0L12.0 8.71851033606433L0 17.43702067212866" stroke="#ffb366" stroke-width="2.0" fill="none" transform="matrix(1.0,0.0,0.0,1.0,0.0,0.0)"/></marker><marker id="ProcessOnMarker1126" markerUnits="userSpaceOnUse" orient="auto" markerWidth="14.289086868996552" markerHeight="19.055054660878554" viewBox="-0.5877852522924731 -0.8090169943749475 14.289086868996552 19.055054660878554" refX="12.0" refY="8.71851033606433"><path id="ProcessOnPath1127" d="M0 0L12.0 8.71851033606433L0 17.43702067212866" stroke="#323232" stroke-width="2.0" fill="none" transform="matrix(1.0,0.0,0.0,1.0,0.0,0.0)"/></marker><marker id="ProcessOnMarker1134" markerUnits="userSpaceOnUse" orient="auto" markerWidth="14.289086868996552" markerHeight="19.055054660878554" viewBox="-0.5877852522924731 -0.8090169943749475 14.289086868996552 19.055054660878554" refX="12.0" refY="8.71851033606433"><path id="ProcessOnPath1135" d="M0 0L12.0 8.71851033606433L0 17.43702067212866" stroke="#66ff66" stroke-width="2.0" fill="none" transform="matrix(1.0,0.0,0.0,1.0,0.0,0.0)"/></marker><marker id="ProcessOnMarker1149" markerUnits="userSpaceOnUse" orient="auto" markerWidth="14.289086868996552" markerHeight="19.055054660878554" viewBox="-0.5877852522924731 -0.8090169943749475 14.289086868996552 19.055054660878554" refX="12.0" refY="8.71851033606433"><path id="ProcessOnPath1150" d="M0 0L12.0 8.71851033606433L0 17.43702067212866" stroke="#323232" stroke-width="2.0" fill="none" transform="matrix(1.0,0.0,0.0,1.0,0.0,0.0)"/></marker><marker id="ProcessOnMarker1153" markerUnits="userSpaceOnUse" orient="auto" markerWidth="14.289086868996552" markerHeight="19.055054660878554" viewBox="-0.5877852522924731 -0.8090169943749475 14.289086868996552 19.055054660878554" refX="12.0" refY="8.71851033606433"><path id="ProcessOnPath1154" d="M0 0L12.0 8.71851033606433L0 17.43702067212866" stroke="#323232" stroke-width="2.0" fill="none" transform="matrix(1.0,0.0,0.0,1.0,0.0,0.0)"/></marker><marker id="ProcessOnMarker1161" markerUnits="userSpaceOnUse" orient="auto" markerWidth="14.289086868996552" markerHeight="19.055054660878554" viewBox="-0.5877852522924731 -0.8090169943749475 14.289086868996552 19.055054660878554" refX="12.0" refY="8.71851033606433"><path id="ProcessOnPath1162" d="M0 0L12.0 8.71851033606433L0 17.43702067212866" stroke="#323232" stroke-width="2.0" fill="none" transform="matrix(1.0,0.0,0.0,1.0,0.0,0.0)"/></marker><marker id="ProcessOnMarker1169" markerUnits="userSpaceOnUse" orient="auto" markerWidth="14.289086868996552" markerHeight="19.055054660878554" viewBox="-0.5877852522924731 -0.8090169943749475 14.289086868996552 19.055054660878554" refX="12.0" refY="8.71851033606433"><path id="ProcessOnPath1170" d="M0 0L12.0 8.71851033606433L0 17.43702067212866" stroke="#323232" stroke-width="2.0" fill="none" transform="matrix(1.0,0.0,0.0,1.0,0.0,0.0)"/></marker><marker id="ProcessOnMarker1177" markerUnits="userSpaceOnUse" orient="auto" markerWidth="14.289086868996552" markerHeight="19.055054660878554" viewBox="-0.5877852522924731 -0.8090169943749475 14.289086868996552 19.055054660878554" refX="12.0" refY="8.71851033606433"><path id="ProcessOnPath1178" d="M0 0L12.0 8.71851033606433L0 17.43702067212866" stroke="#323232" stroke-width="2.0" fill="none" transform="matrix(1.0,0.0,0.0,1.0,0.0,0.0)"/></marker><marker id="ProcessOnMarker1185" markerUnits="userSpaceOnUse" orient="auto" markerWidth="14.289086868996552" markerHeight="19.055054660878554" viewBox="-0.5877852522924731 -0.8090169943749475 14.289086868996552 19.055054660878554" refX="12.0" refY="8.71851033606433"><path id="ProcessOnPath1186" d="M0 0L12.0 8.71851033606433L0 17.43702067212866" stroke="#323232" stroke-width="2.0" fill="none" transform="matrix(1.0,0.0,0.0,1.0,0.0,0.0)"/></marker><marker id="ProcessOnMarker1193" markerUnits="userSpaceOnUse" orient="auto" markerWidth="14.289086868996552" markerHeight="19.055054660878554" viewBox="-0.5877852522924731 -0.8090169943749475 14.289086868996552 19.055054660878554" refX="12.0" refY="8.71851033606433"><path id="ProcessOnPath1194" d="M0 0L12.0 8.71851033606433L0 17.43702067212866" stroke="#323232" stroke-width="2.0" fill="none" transform="matrix(1.0,0.0,0.0,1.0,0.0,0.0)"/></marker><marker id="ProcessOnMarker1201" markerUnits="userSpaceOnUse" orient="auto" markerWidth="14.289086868996552" markerHeight="19.055054660878554" viewBox="-0.5877852522924731 -0.8090169943749475 14.289086868996552 19.055054660878554" refX="12.0" refY="8.71851033606433"><path id="ProcessOnPath1202" d="M0 0L12.0 8.71851033606433L0 17.43702067212866" stroke="#323232" stroke-width="2.0" fill="none" transform="matrix(1.0,0.0,0.0,1.0,0.0,0.0)"/></marker><marker id="ProcessOnMarker1209" markerUnits="userSpaceOnUse" orient="auto" markerWidth="14.289086868996552" markerHeight="19.055054660878554" viewBox="-0.5877852522924731 -0.8090169943749475 14.289086868996552 19.055054660878554" refX="12.0" refY="8.71851033606433"><path id="ProcessOnPath1210" d="M0 0L12.0 8.71851033606433L0 17.43702067212866" stroke="#66ffff" stroke-width="2.0" fill="none" transform="matrix(1.0,0.0,0.0,1.0,0.0,0.0)"/></marker><marker id="ProcessOnMarker1220" markerUnits="userSpaceOnUse" orient="auto" markerWidth="14.289086868996552" markerHeight="19.055054660878554" viewBox="-0.5877852522924731 -0.8090169943749475 14.289086868996552 19.055054660878554" refX="12.0" refY="8.71851033606433"><path id="ProcessOnPath1221" d="M0 0L12.0 8.71851033606433L0 17.43702067212866" stroke="#66b2ff" stroke-width="2.0" fill="none" transform="matrix(1.0,0.0,0.0,1.0,0.0,0.0)"/></marker><marker id="ProcessOnMarker1231" markerUnits="userSpaceOnUse" orient="auto" markerWidth="14.289086868996552" markerHeight="19.055054660878554" viewBox="-0.5877852522924731 -0.8090169943749475 14.289086868996552 19.055054660878554" refX="12.0" refY="8.71851033606433"><path id="ProcessOnPath1232" d="M0 0L12.0 8.71851033606433L0 17.43702067212866" stroke="#b266ff" stroke-width="2.0" fill="none" transform="matrix(1.0,0.0,0.0,1.0,0.0,0.0)"/></marker><marker id="ProcessOnMarker1242" markerUnits="userSpaceOnUse" orient="auto" markerWidth="14.289086868996552" markerHeight="19.055054660878554" viewBox="-0.5877852522924731 -0.8090169943749475 14.289086868996552 19.055054660878554" refX="12.0" refY="8.71851033606433"><path id="ProcessOnPath1243" d="M0 0L12.0 8.71851033606433L0 17.43702067212866" stroke="#3333ff" stroke-width="2.0" fill="none" transform="matrix(1.0,0.0,0.0,1.0,0.0,0.0)"/></marker><marker id="ProcessOnMarker1253" markerUnits="userSpaceOnUse" orient="auto" markerWidth="14.289086868996552" markerHeight="19.055054660878554" viewBox="-0.5877852522924731 -0.8090169943749475 14.289086868996552 19.055054660878554" refX="12.0" refY="8.71851033606433"><path id="ProcessOnPath1254" d="M0 0L12.0 8.71851033606433L0 17.43702067212866" stroke="#ff66ff" stroke-width="2.0" fill="none" transform="matrix(1.0,0.0,0.0,1.0,0.0,0.0)"/></marker><marker id="ProcessOnMarker1264" markerUnits="userSpaceOnUse" orient="auto" markerWidth="14.289086868996552" markerHeight="19.055054660878554" viewBox="-0.5877852522924731 -0.8090169943749475 14.289086868996552 19.055054660878554" refX="12.0" refY="8.71851033606433"><path id="ProcessOnPath1265" d="M0 0L12.0 8.71851033606433L0 17.43702067212866" stroke="#323232" stroke-width="2.0" fill="none" transform="matrix(1.0,0.0,0.0,1.0,0.0,0.0)"/></marker><marker id="ProcessOnMarker1272" markerUnits="userSpaceOnUse" orient="auto" markerWidth="14.289086868996552" markerHeight="19.055054660878554" viewBox="-0.5877852522924731 -0.8090169943749475 14.289086868996552 19.055054660878554" refX="12.0" refY="8.71851033606433"><path id="ProcessOnPath1273" d="M0 0L12.0 8.71851033606433L0 17.43702067212866" stroke="#323232" stroke-width="2.0" fill="none" transform="matrix(1.0,0.0,0.0,1.0,0.0,0.0)"/></marker></defs><g id="ProcessOnG1002"><path id="ProcessOnPath1003" d="M37.0 25.0H1041.25V1869.0H37.0V25.0Z" fill="none"/><g id="ProcessOnG1004"><g id="ProcessOnG1005" transform="matrix(1.0,0.0,0.0,1.0,210.0,102.0)" opacity="1.0"><path id="ProcessOnPath1006" d="M0.0 0.0L464.0 0.0L464.0 213.0L0.0 213.0Z" stroke="#323232" stroke-width="2.0" stroke-dasharray="10.0 4.0" opacity="1.0" fill="#ffffff"/></g><g id="ProcessOnG1007" transform="matrix(1.0,0.0,0.0,1.0,243.0,125.0)" opacity="1.0"><path id="ProcessOnPath1008" d="M0.0 4.0Q0.0 0.0 4.0 0.0L94.0 0.0Q98.0 0.0 98.0 4.0L98.0 28.0Q98.0 32.0 94.0 32.0L4.0 32.0Q0.0 32.0 0.0 28.0Z" stroke="#000000" stroke-width="2.0" stroke-dasharray="none" opacity="1.0" fill="#66ffff"/><g id="ProcessOnG1009" transform="matrix(1.0,0.0,0.0,1.0,10.0,7.875)"><text id="ProcessOnText1010" fill="#000000" font-size="13" x="38.0" y="13.325" font-family="微软雅黑" font-weight="normal" font-style="normal" text-decoration="none" family="微软雅黑" text-anchor="middle" size="13">lead</text></g></g><g id="ProcessOnG1011" transform="matrix(1.0,0.0,0.0,1.0,463.0,128.0)" opacity="1.0"><path id="ProcessOnPath1012" d="M0.0 4.0Q0.0 0.0 4.0 0.0L94.0 0.0Q98.0 0.0 98.0 4.0L98.0 28.0Q98.0 32.0 94.0 32.0L4.0 32.0Q0.0 32.0 0.0 28.0Z" stroke="#000000" stroke-width="2.0" stroke-dasharray="none" opacity="1.0" fill="#ffffff"/><g id="ProcessOnG1013" transform="matrix(1.0,0.0,0.0,1.0,10.0,7.875)"><text id="ProcessOnText1014" fill="#000000" font-size="13" x="38.0" y="13.325" font-family="微软雅黑" font-weight="normal" font-style="normal" text-decoration="none" family="微软雅黑" text-anchor="middle" size="13">None</text></g></g><g id="ProcessOnG1015"><path id="ProcessOnPath1016" d="M341.0 141.0C389.8147518686718 141.0 414.1852481313282 144.0 463.0 144.0" stroke="#323232" stroke-width="2.0" stroke-dasharray="none" fill="none" marker-end="url(#ProcessOnMarker1017)"/></g><g id="ProcessOnG1019" transform="matrix(1.0,0.0,0.0,1.0,243.0,190.0)" opacity="1.0"><path id="ProcessOnPath1020" d="M0.0 4.0Q0.0 0.0 4.0 0.0L94.0 0.0Q98.0 0.0 98.0 4.0L98.0 28.0Q98.0 32.0 94.0 32.0L4.0 32.0Q0.0 32.0 0.0 28.0Z" stroke="#000000" stroke-width="2.0" stroke-dasharray="none" opacity="1.0" fill="#66ffff"/><g id="ProcessOnG1021" transform="matrix(1.0,0.0,0.0,1.0,10.0,7.875)"><text id="ProcessOnText1022" fill="#000000" font-size="13" x="38.0" y="13.325" font-family="微软雅黑" font-weight="normal" font-style="normal" text-decoration="none" family="微软雅黑" text-anchor="middle" size="13">prevSoftSt</text></g></g><g id="ProcessOnG1023" transform="matrix(1.0,0.0,0.0,1.0,243.0,247.0)" opacity="1.0"><path id="ProcessOnPath1024" d="M0.0 4.0Q0.0 0.0 4.0 0.0L94.0 0.0Q98.0 0.0 98.0 4.0L98.0 28.0Q98.0 32.0 94.0 32.0L4.0 32.0Q0.0 32.0 0.0 28.0Z" stroke="#000000" stroke-width="2.0" stroke-dasharray="none" opacity="1.0" fill="#66ffff"/><g id="ProcessOnG1025" transform="matrix(1.0,0.0,0.0,1.0,10.0,7.875)"><text id="ProcessOnText1026" fill="#000000" font-size="13" x="38.0" y="13.325" font-family="微软雅黑" font-weight="normal" font-style="normal" text-decoration="none" family="微软雅黑" text-anchor="middle" size="13">prevHardSt</text></g></g><g id="ProcessOnG1027" transform="matrix(1.0,0.0,0.0,1.0,462.0,167.0)" opacity="1.0"><path id="ProcessOnPath1028" d="M0.0 0.0L100.0 0.0L100.0 20.0L0.0 20.0Z" stroke="none" stroke-width="0.0" stroke-dasharray="none" opacity="1.0" fill="none"/><g id="ProcessOnG1029" transform="matrix(1.0,0.0,0.0,1.0,0.0,1.875)"><text id="ProcessOnText1030" fill="#000000" font-size="13" x="0.0" y="13.325" font-family="微软雅黑" font-weight="normal" font-style="normal" text-decoration="none" family="微软雅黑" text-anchor="start" size="13">SoftState</text></g></g><g id="ProcessOnG1031" transform="matrix(1.0,0.0,0.0,1.0,462.0,187.0)" opacity="1.0"><path id="ProcessOnPath1032" d="M0.0 0.0L100.0 0.0L100.0 32.0L0.0 32.0Z" stroke="#323232" stroke-width="2.0" stroke-dasharray="none" opacity="1.0" fill="#ffffff"/><g id="ProcessOnG1033" transform="matrix(1.0,0.0,0.0,1.0,10.0,7.875)"><text id="ProcessOnText1034" fill="#000000" font-size="13" x="39.0" y="13.325" font-family="微软雅黑" font-weight="normal" font-style="normal" text-decoration="none" family="微软雅黑" text-anchor="middle" size="13">Lead</text></g></g><g id="ProcessOnG1035"><path id="ProcessOnPath1036" d="M341.0 206.0C390.0053515137643 206.0 420.02422228283166 165.49732424311787 462.46410161513774 190.0" stroke="#323232" stroke-width="2.0" stroke-dasharray="none" fill="none" marker-end="url(#ProcessOnMarker1037)"/></g><g id="ProcessOnG1039" transform="matrix(1.0,0.0,0.0,1.0,462.0,219.0)" opacity="1.0"><path id="ProcessOnPath1040" d="M0.0 0.0L100.0 0.0L100.0 32.0L0.0 32.0Z" stroke="#323232" stroke-width="2.0" stroke-dasharray="none" opacity="1.0" fill="#ffffff"/><g id="ProcessOnG1041" transform="matrix(1.0,0.0,0.0,1.0,10.0,7.875)"><text id="ProcessOnText1042" fill="#000000" font-size="13" x="39.0" y="13.325" font-family="微软雅黑" font-weight="normal" font-style="normal" text-decoration="none" family="微软雅黑" text-anchor="middle" size="13">RaftState</text></g></g><g id="ProcessOnG1043" transform="matrix(1.0,0.0,0.0,1.0,803.0,112.0)" opacity="1.0"><path id="ProcessOnPath1044" d="M0.0 0.0L100.0 0.0L100.0 20.0L0.0 20.0Z" stroke="none" stroke-width="0.0" stroke-dasharray="none" opacity="1.0" fill="none"/><g id="ProcessOnG1045" transform="matrix(1.0,0.0,0.0,1.0,0.0,1.875)"><text id="ProcessOnText1046" fill="#000000" font-size="13" x="0.0" y="13.325" font-family="微软雅黑" font-weight="normal" font-style="normal" text-decoration="none" family="微软雅黑" text-anchor="start" size="13">raft</text></g></g><g id="ProcessOnG1047" transform="matrix(1.0,0.0,0.0,1.0,803.0,132.0)" opacity="1.0"><path id="ProcessOnPath1048" d="M0.0 0.0L100.0 0.0L100.0 32.0L0.0 32.0Z" stroke="#323232" stroke-width="2.0" stroke-dasharray="none" opacity="1.0" fill="#ffffff"/><g id="ProcessOnG1049" transform="matrix(1.0,0.0,0.0,1.0,10.0,7.875)"><text id="ProcessOnText1050" fill="#000000" font-size="13" x="39.0" y="13.325" font-family="微软雅黑" font-weight="normal" font-style="normal" text-decoration="none" family="微软雅黑" text-anchor="middle" size="13">lead</text></g></g><g id="ProcessOnG1051" transform="matrix(1.0,0.0,0.0,1.0,803.0,164.0)" opacity="1.0"><path id="ProcessOnPath1052" d="M0.0 0.0L100.0 0.0L100.0 32.0L0.0 32.0Z" stroke="#323232" stroke-width="2.0" stroke-dasharray="none" opacity="1.0" fill="#ffffff"/><g id="ProcessOnG1053" transform="matrix(1.0,0.0,0.0,1.0,10.0,7.875)"><text id="ProcessOnText1054" fill="#000000" font-size="13" x="39.0" y="13.325" font-family="微软雅黑" font-weight="normal" font-style="normal" text-decoration="none" family="微软雅黑" text-anchor="middle" size="13">state</text></g></g><g id="ProcessOnG1055"><path id="ProcessOnPath1056" d="M803.0 148.0C704.1214886843455 148.0 660.8785113156545 203.0 562.0 203.0" stroke="#323232" stroke-width="2.0" stroke-dasharray="10.0 4.0" fill="none" marker-end="url(#ProcessOnMarker1057)"/></g><g id="ProcessOnG1059"><path id="ProcessOnPath1060" d="M803.0 180.0C704.1214886843455 180.0 660.8785113156545 235.0 562.0 235.0" stroke="#323232" stroke-width="2.0" stroke-dasharray="10.0 4.0" fill="none" marker-end="url(#ProcessOnMarker1061)"/></g><g id="ProcessOnG1063" transform="matrix(1.0,0.0,0.0,1.0,463.0,269.0)" opacity="1.0"><path id="ProcessOnPath1064" d="M0.0 4.0Q0.0 0.0 4.0 0.0L94.0 0.0Q98.0 0.0 98.0 4.0L98.0 28.0Q98.0 32.0 94.0 32.0L4.0 32.0Q0.0 32.0 0.0 28.0Z" stroke="#000000" stroke-width="2.0" stroke-dasharray="none" opacity="1.0" fill="#ffffff"/><g id="ProcessOnG1065" transform="matrix(1.0,0.0,0.0,1.0,10.0,7.875)"><text id="ProcessOnText1066" fill="#000000" font-size="13" x="38.0" y="13.325" font-family="微软雅黑" font-weight="normal" font-style="normal" text-decoration="none" family="微软雅黑" text-anchor="middle" size="13">emptyState</text></g></g><g id="ProcessOnG1067"><path id="ProcessOnPath1068" d="M341.0 263.0C390.3273540152596 263.0 415.3308858482677 264.4762839321202 463.90884651807323 273.04188906600154" stroke="#323232" stroke-width="2.0" stroke-dasharray="none" fill="none" marker-end="url(#ProcessOnMarker1069)"/></g><g id="ProcessOnG1071"><path id="ProcessOnPath1072" d="M57.0 360.0C420.20000000000005 360.0 601.8 360.0 965.0 360.0" stroke="#323232" stroke-width="2.0" stroke-dasharray="10.0 4.0" fill="none"/></g><g id="ProcessOnG1073" transform="matrix(1.0,0.0,0.0,1.0,87.0,45.0)" opacity="1.0"><path id="ProcessOnPath1074" d="M0.0 0.0L156.0 0.0L156.0 32.0L0.0 32.0Z" stroke="none" stroke-width="0.0" stroke-dasharray="none" opacity="1.0" fill="none"/><g id="ProcessOnG1075" transform="matrix(1.0,0.0,0.0,1.0,0.0,4.75)"><text id="ProcessOnText1076" fill="#000000" font-size="18" x="0.0" y="18.45" font-family="微软雅黑" font-weight="bold" font-style="normal" text-decoration="none" family="微软雅黑" text-anchor="start" size="18">Initial State</text></g></g><g id="ProcessOnG1077" transform="matrix(1.0,0.0,0.0,1.0,227.5,461.0)" opacity="1.0"><path id="ProcessOnPath1078" d="M0.0 0.0L142.0 0.0L142.0 48.0L0.0 48.0Z" stroke="#323232" stroke-width="2.0" stroke-dasharray="none" opacity="1.0" fill="#ffffff"/><g id="ProcessOnG1079" transform="matrix(1.0,0.0,0.0,1.0,10.0,7.75)"><text id="ProcessOnText1080" fill="#000000" font-size="13" x="60.0" y="13.325" font-family="微软雅黑" font-weight="bold" font-style="normal" text-decoration="none" family="微软雅黑" text-anchor="middle" size="13">设置 advancec, </text><text id="ProcessOnText1081" fill="#000000" font-size="13" x="60.0" y="29.575" font-family="微软雅黑" font-weight="bold" font-style="normal" text-decoration="none" family="微软雅黑" text-anchor="middle" size="13">readyc</text></g></g><g id="ProcessOnG1082"><path id="ProcessOnPath1083" d="M298.5 461.0L298.5 419.5L298.5 419.5L298.5 378.0" stroke="#323232" stroke-width="2.0" stroke-dasharray="none" fill="none" marker-start="url(#ProcessOnMarker1084)"/></g><g id="ProcessOnG1086" transform="matrix(1.0,0.0,0.0,1.0,227.5,670.0)" opacity="1.0"><path id="ProcessOnPath1087" d="M0.0 0.0L142.0 0.0L142.0 48.0L0.0 48.0Z" stroke="#323232" stroke-width="2.0" stroke-dasharray="none" opacity="1.0" fill="#ffffff"/><g id="ProcessOnG1088" transform="matrix(1.0,0.0,0.0,1.0,10.0,15.875)"><text id="ProcessOnText1089" fill="#000000" font-size="13" x="60.0" y="13.325" font-family="微软雅黑" font-weight="bold" font-style="normal" text-decoration="none" family="微软雅黑" text-anchor="middle" size="13">Main Event Loop</text></g></g><g id="ProcessOnG1090"><path id="ProcessOnPath1091" d="M298.5 509.0L298.5 534.5L298.5 534.5L298.5 560.0" stroke="#323232" stroke-width="2.0" stroke-dasharray="none" fill="none" marker-end="url(#ProcessOnMarker1092)"/></g><g id="ProcessOnG1094" transform="matrix(1.0,0.0,0.0,1.0,87.0,388.0)" opacity="1.0"><path id="ProcessOnPath1095" d="M0.0 0.0L156.0 0.0L156.0 32.0L0.0 32.0Z" stroke="none" stroke-width="0.0" stroke-dasharray="none" opacity="1.0" fill="none"/><g id="ProcessOnG1096" transform="matrix(1.0,0.0,0.0,1.0,0.0,4.75)"><text id="ProcessOnText1097" fill="#000000" font-size="18" x="0.0" y="18.45" font-family="微软雅黑" font-weight="bold" font-style="normal" text-decoration="none" family="微软雅黑" text-anchor="start" size="18">Event Loop</text></g></g><g id="ProcessOnG1098" transform="matrix(1.0,0.0,0.0,1.0,512.5,771.0)" opacity="1.0"><path id="ProcessOnPath1099" d="M0.0 0.0L144.0 0.0L144.0 32.0L0.0 32.0Z" stroke="#323232" stroke-width="2.0" stroke-dasharray="none" opacity="1.0" fill="#ffffff"/><g id="ProcessOnG1100" transform="matrix(1.0,0.0,0.0,1.0,10.0,7.875)"><text id="ProcessOnText1101" fill="#000000" font-size="13" x="61.0" y="13.325" font-family="微软雅黑" font-weight="bold" font-style="normal" text-decoration="none" family="微软雅黑" text-anchor="middle" size="13">r.Step(pb.Message)</text></g></g><g id="ProcessOnG1102"><path id="ProcessOnPath1103" d="M235.0 718.0L235.0 787.0L512.5 787.0" stroke="#ff6666" stroke-width="2.0" stroke-dasharray="10.0 4.0" fill="none" marker-end="url(#ProcessOnMarker1104)"/><g id="ProcessOnG1106" transform="matrix(1.0,0.0,0.0,1.0,339.25,778.25)"><path id="ProcessOnPath1107" d="M0 0H57.0V17.5H0Z" fill="#fff" transform="matrix(1.0,0.0,0.0,1.0,-28.5,0.0)"/><text id="ProcessOnText1108" fill="#ff6666" font-size="14" x="0.0" y="14.350000000000001" font-family="微软雅黑" font-weight="bold" font-style="normal" text-decoration="none" family="微软雅黑" text-anchor="middle" size="14">&lt;-propc</text></g></g><g id="ProcessOnG1109" transform="matrix(1.0,0.0,0.0,1.0,597.5,857.0)" opacity="1.0"><path id="ProcessOnPath1110" d="M0.0 0.0L163.5 0.0L163.5 32.0L0.0 32.0Z" stroke="#323232" stroke-width="2.0" stroke-dasharray="none" opacity="1.0" fill="#ffffff"/><g id="ProcessOnG1111" transform="matrix(1.0,0.0,0.0,1.0,10.0,7.875)"><text id="ProcessOnText1112" fill="#000000" font-size="13" x="70.75" y="13.325" font-family="微软雅黑" font-weight="bold" font-style="normal" text-decoration="none" family="微软雅黑" text-anchor="middle" size="13">r.getProgress(m.From)</text></g></g><g id="ProcessOnG1113"><path id="ProcessOnPath1114" d="M248.0 718.0L248.0 873.0L597.5 873.0" stroke="#ffb366" stroke-width="2.0" stroke-dasharray="10.0 4.0" fill="none" marker-end="url(#ProcessOnMarker1115)"/><g id="ProcessOnG1117" transform="matrix(1.0,0.0,0.0,1.0,345.25,864.25)"><path id="ProcessOnPath1118" d="M0 0H66.0V17.5H0Z" fill="#fff" transform="matrix(1.0,0.0,0.0,1.0,-33.0,0.0)"/><text id="ProcessOnText1119" fill="#ffb366" font-size="14" x="0.0" y="14.350000000000001" font-family="微软雅黑" font-weight="bold" font-style="normal" text-decoration="none" family="微软雅黑" text-anchor="middle" size="14">&lt;-n.recvc</text></g></g><g id="ProcessOnG1120" transform="matrix(1.0,0.0,0.0,1.0,607.25,934.0)" opacity="1.0"><path id="ProcessOnPath1121" d="M0.0 0.0L144.0 0.0L144.0 32.0L0.0 32.0Z" stroke="#323232" stroke-width="2.0" stroke-dasharray="none" opacity="1.0" fill="#ffffff"/><g id="ProcessOnG1122" transform="matrix(1.0,0.0,0.0,1.0,10.0,7.875)"><text id="ProcessOnText1123" fill="#000000" font-size="13" x="61.0" y="13.325" font-family="微软雅黑" font-weight="bold" font-style="normal" text-decoration="none" family="微软雅黑" text-anchor="middle" size="13">r.Step(pb.Message)</text></g></g><g id="ProcessOnG1124"><path id="ProcessOnPath1125" d="M679.25 889.0L679.25 911.5L679.25 911.5L679.25 934.0" stroke="#323232" stroke-width="2.0" stroke-dasharray="none" fill="none" marker-end="url(#ProcessOnMarker1126)"/></g><g id="ProcessOnG1128" transform="matrix(1.0,0.0,0.0,1.0,512.5,1022.0)" opacity="1.0"><path id="ProcessOnPath1129" d="M0.0 0.0L144.0 0.0L144.0 32.0L0.0 32.0Z" stroke="#323232" stroke-width="2.0" stroke-dasharray="none" opacity="1.0" fill="#ffffff"/><g id="ProcessOnG1130" transform="matrix(1.0,0.0,0.0,1.0,10.0,7.875)"><text id="ProcessOnText1131" fill="#000000" font-size="13" x="61.0" y="13.325" font-family="微软雅黑" font-weight="bold" font-style="normal" text-decoration="none" family="微软雅黑" text-anchor="middle" size="13">switch cc.Type</text></g></g><g id="ProcessOnG1132"><path id="ProcessOnPath1133" d="M263.0 718.0L263.0 1038.0L512.5 1038.0" stroke="#66ff66" stroke-width="2.0" stroke-dasharray="10.0 4.0" fill="none" marker-end="url(#ProcessOnMarker1134)"/><g id="ProcessOnG1136" transform="matrix(1.0,0.0,0.0,1.0,263.0,994.0)"><path id="ProcessOnPath1137" d="M0 0H68.0V17.5H0Z" fill="#fff" transform="matrix(1.0,0.0,0.0,1.0,-34.0,0.0)"/><text id="ProcessOnText1138" fill="#66ff66" font-size="14" x="0.0" y="14.350000000000001" font-family="微软雅黑" font-weight="bold" font-style="normal" text-decoration="none" family="微软雅黑" text-anchor="middle" size="14">&lt;-n.confc</text></g></g><g id="ProcessOnG1139" transform="matrix(1.0,0.0,0.0,1.0,607.25,1089.0)" opacity="1.0"><path id="ProcessOnPath1140" d="M0.0 4.0Q0.0 0.0 4.0 0.0L183.75 0.0Q187.75 0.0 187.75 4.0L187.75 28.0Q187.75 32.0 183.75 32.0L4.0 32.0Q0.0 32.0 0.0 28.0Z" stroke="#323232" stroke-width="2.0" stroke-dasharray="none" opacity="1.0" fill="#ffffff"/><g id="ProcessOnG1141" transform="matrix(1.0,0.0,0.0,1.0,10.0,7.875)"><text id="ProcessOnText1142" fill="#000000" font-size="13" x="82.875" y="13.325" font-family="微软雅黑" font-weight="bold" font-style="normal" text-decoration="none" family="微软雅黑" text-anchor="middle" size="13">ConfChangeAddNode</text></g></g><g id="ProcessOnG1143" transform="matrix(1.0,0.0,0.0,1.0,607.25,1168.0)" opacity="1.0"><path id="ProcessOnPath1144" d="M0.0 4.0Q0.0 0.0 4.0 0.0L209.75 0.0Q213.75 0.0 213.75 4.0L213.75 28.0Q213.75 32.0 209.75 32.0L4.0 32.0Q0.0 32.0 0.0 28.0Z" stroke="#323232" stroke-width="2.0" stroke-dasharray="none" opacity="1.0" fill="#ffffff"/><g id="ProcessOnG1145" transform="matrix(1.0,0.0,0.0,1.0,10.0,7.875)"><text id="ProcessOnText1146" fill="#000000" font-size="13" x="95.875" y="13.325" font-family="微软雅黑" font-weight="bold" font-style="normal" text-decoration="none" family="微软雅黑" text-anchor="middle" size="13">ConfChangeAddLearnerNode</text></g></g><g id="ProcessOnG1147"><path id="ProcessOnPath1148" d="M525.0 1054.0L525.0 1105.0L607.25 1105.0" stroke="#323232" stroke-width="2.0" stroke-dasharray="10.0 4.0" fill="none" marker-end="url(#ProcessOnMarker1149)"/></g><g id="ProcessOnG1151"><path id="ProcessOnPath1152" d="M539.0 1054.0L539.0 1184.0L607.25 1184.0" stroke="#323232" stroke-width="2.0" stroke-dasharray="10.0 4.0" fill="none" marker-end="url(#ProcessOnMarker1153)"/></g><g id="ProcessOnG1155" transform="matrix(1.0,0.0,0.0,1.0,607.25,1247.0)" opacity="1.0"><path id="ProcessOnPath1156" d="M0.0 4.0Q0.0 0.0 4.0 0.0L197.75 0.0Q201.75 0.0 201.75 4.0L201.75 28.0Q201.75 32.0 197.75 32.0L4.0 32.0Q0.0 32.0 0.0 28.0Z" stroke="#323232" stroke-width="2.0" stroke-dasharray="none" opacity="1.0" fill="#ffffff"/><g id="ProcessOnG1157" transform="matrix(1.0,0.0,0.0,1.0,10.0,7.875)"><text id="ProcessOnText1158" fill="#000000" font-size="13" x="89.875" y="13.325" font-family="微软雅黑" font-weight="bold" font-style="normal" text-decoration="none" family="微软雅黑" text-anchor="middle" size="13">ConfChangeRemoveNode</text></g></g><g id="ProcessOnG1159"><path id="ProcessOnPath1160" d="M554.0 1054.0L554.0 1263.0L607.25 1263.0" stroke="#323232" stroke-width="2.0" stroke-dasharray="10.0 4.0" fill="none" marker-end="url(#ProcessOnMarker1161)"/></g><g id="ProcessOnG1163" transform="matrix(1.0,0.0,0.0,1.0,607.25,1311.0)" opacity="1.0"><path id="ProcessOnPath1164" d="M0.0 4.0Q0.0 0.0 4.0 0.0L197.75 0.0Q201.75 0.0 201.75 4.0L201.75 28.0Q201.75 32.0 197.75 32.0L4.0 32.0Q0.0 32.0 0.0 28.0Z" stroke="#323232" stroke-width="2.0" stroke-dasharray="none" opacity="1.0" fill="#ffffff"/><g id="ProcessOnG1165" transform="matrix(1.0,0.0,0.0,1.0,10.0,7.875)"><text id="ProcessOnText1166" fill="#000000" font-size="13" x="89.875" y="13.325" font-family="微软雅黑" font-weight="bold" font-style="normal" text-decoration="none" family="微软雅黑" text-anchor="middle" size="13">ConfChangeUpdateNode</text></g></g><g id="ProcessOnG1167"><path id="ProcessOnPath1168" d="M567.0 1054.0L567.0 1327.0L607.25 1327.0" stroke="#323232" stroke-width="2.0" stroke-dasharray="10.0 4.0" fill="none" marker-end="url(#ProcessOnMarker1169)"/></g><g id="ProcessOnG1171" transform="matrix(1.0,0.0,0.0,1.0,877.25,1089.0)" opacity="1.0"><path id="ProcessOnPath1172" d="M0.0 0.0L144.0 0.0L144.0 32.0L0.0 32.0Z" stroke="#323232" stroke-width="2.0" stroke-dasharray="none" opacity="1.0" fill="#ffffff"/><g id="ProcessOnG1173" transform="matrix(1.0,0.0,0.0,1.0,10.0,7.875)"><text id="ProcessOnText1174" fill="#000000" font-size="13" x="61.0" y="13.325" font-family="微软雅黑" font-weight="bold" font-style="normal" text-decoration="none" family="微软雅黑" text-anchor="middle" size="13">r.addNode</text></g></g><g id="ProcessOnG1175"><path id="ProcessOnPath1176" d="M795.0 1105.0L836.125 1105.0L836.125 1105.0L877.25 1105.0" stroke="#323232" stroke-width="2.0" stroke-dasharray="none" fill="none" marker-end="url(#ProcessOnMarker1177)"/></g><g id="ProcessOnG1179" transform="matrix(1.0,0.0,0.0,1.0,877.25,1168.0)" opacity="1.0"><path id="ProcessOnPath1180" d="M0.0 0.0L144.0 0.0L144.0 32.0L0.0 32.0Z" stroke="#323232" stroke-width="2.0" stroke-dasharray="none" opacity="1.0" fill="#ffffff"/><g id="ProcessOnG1181" transform="matrix(1.0,0.0,0.0,1.0,10.0,7.875)"><text id="ProcessOnText1182" fill="#000000" font-size="13" x="61.0" y="13.325" font-family="微软雅黑" font-weight="bold" font-style="normal" text-decoration="none" family="微软雅黑" text-anchor="middle" size="13">r.addLearner</text></g></g><g id="ProcessOnG1183"><path id="ProcessOnPath1184" d="M821.0 1184.0L849.125 1184.0L849.125 1184.0L877.25 1184.0" stroke="#323232" stroke-width="2.0" stroke-dasharray="none" fill="none" marker-end="url(#ProcessOnMarker1185)"/></g><g id="ProcessOnG1187" transform="matrix(1.0,0.0,0.0,1.0,877.25,1247.0)" opacity="1.0"><path id="ProcessOnPath1188" d="M0.0 0.0L144.0 0.0L144.0 32.0L0.0 32.0Z" stroke="#323232" stroke-width="2.0" stroke-dasharray="none" opacity="1.0" fill="#ffffff"/><g id="ProcessOnG1189" transform="matrix(1.0,0.0,0.0,1.0,10.0,7.875)"><text id="ProcessOnText1190" fill="#000000" font-size="13" x="61.0" y="13.325" font-family="微软雅黑" font-weight="bold" font-style="normal" text-decoration="none" family="微软雅黑" text-anchor="middle" size="13">r.removeNode</text></g></g><g id="ProcessOnG1191"><path id="ProcessOnPath1192" d="M809.0 1263.0L843.125 1263.0L843.125 1263.0L877.25 1263.0" stroke="#323232" stroke-width="2.0" stroke-dasharray="none" fill="none" marker-end="url(#ProcessOnMarker1193)"/></g><g id="ProcessOnG1195" transform="matrix(1.0,0.0,0.0,1.0,877.25,1311.0)" opacity="1.0"><path id="ProcessOnPath1196" d="M0.0 0.0L144.0 0.0L144.0 32.0L0.0 32.0Z" stroke="#323232" stroke-width="2.0" stroke-dasharray="none" opacity="1.0" fill="#ffffff"/><g id="ProcessOnG1197" transform="matrix(1.0,0.0,0.0,1.0,10.0,7.875)"><text id="ProcessOnText1198" fill="#000000" font-size="13" x="61.0" y="13.325" font-family="微软雅黑" font-weight="bold" font-style="normal" text-decoration="none" family="微软雅黑" text-anchor="middle" size="13">r.resetPendingConf</text></g></g><g id="ProcessOnG1199"><path id="ProcessOnPath1200" d="M809.0 1327.0L843.125 1327.0L843.125 1327.0L877.25 1327.0" stroke="#323232" stroke-width="2.0" stroke-dasharray="none" fill="none" marker-end="url(#ProcessOnMarker1201)"/></g><g id="ProcessOnG1203" transform="matrix(1.0,0.0,0.0,1.0,515.5,1400.0)" opacity="1.0"><path id="ProcessOnPath1204" d="M0.0 0.0L144.0 0.0L144.0 32.0L0.0 32.0Z" stroke="#323232" stroke-width="2.0" stroke-dasharray="none" opacity="1.0" fill="#ffffff"/><g id="ProcessOnG1205" transform="matrix(1.0,0.0,0.0,1.0,10.0,7.875)"><text id="ProcessOnText1206" fill="#000000" font-size="13" x="61.0" y="13.325" font-family="微软雅黑" font-weight="bold" font-style="normal" text-decoration="none" family="微软雅黑" text-anchor="middle" size="13">r.tick</text></g></g><g id="ProcessOnG1207"><path id="ProcessOnPath1208" d="M275.0 718.0L275.0 1416.0L515.5 1416.0" stroke="#66ffff" stroke-width="2.0" stroke-dasharray="10.0 4.0" fill="none" marker-end="url(#ProcessOnMarker1209)"/><g id="ProcessOnG1211" transform="matrix(1.0,0.0,0.0,1.0,275.0,1178.5)"><path id="ProcessOnPath1212" d="M0 0H62.0V17.5H0Z" fill="#fff" transform="matrix(1.0,0.0,0.0,1.0,-31.0,0.0)"/><text id="ProcessOnText1213" fill="#66ffff" font-size="14" x="0.0" y="14.350000000000001" font-family="微软雅黑" font-weight="bold" font-style="normal" text-decoration="none" family="微软雅黑" text-anchor="middle" size="14">&lt;-n.tickc</text></g></g><g id="ProcessOnG1214" transform="matrix(1.0,0.0,0.0,1.0,515.5,1488.0)" opacity="1.0"><path id="ProcessOnPath1215" d="M0.0 0.0L144.0 0.0L144.0 32.0L0.0 32.0Z" stroke="#323232" stroke-width="2.0" stroke-dasharray="none" opacity="1.0" fill="#ffffff"/><g id="ProcessOnG1216" transform="matrix(1.0,0.0,0.0,1.0,10.0,7.875)"><text id="ProcessOnText1217" fill="#000000" font-size="13" x="61.0" y="13.325" font-family="微软雅黑" font-weight="bold" font-style="normal" text-decoration="none" family="微软雅黑" text-anchor="middle" size="13">设置 advancec</text></g></g><g id="ProcessOnG1218"><path id="ProcessOnPath1219" d="M287.0 718.0L287.0 1504.0L515.5 1504.0" stroke="#66b2ff" stroke-width="2.0" stroke-dasharray="10.0 4.0" fill="none" marker-end="url(#ProcessOnMarker1220)"/><g id="ProcessOnG1222" transform="matrix(1.0,0.0,0.0,1.0,287.0,1216.5)"><path id="ProcessOnPath1223" d="M0 0H67.0V17.5H0Z" fill="#fff" transform="matrix(1.0,0.0,0.0,1.0,-33.5,0.0)"/><text id="ProcessOnText1224" fill="#66b2ff" font-size="14" x="0.0" y="14.350000000000001" font-family="微软雅黑" font-weight="bold" font-style="normal" text-decoration="none" family="微软雅黑" text-anchor="middle" size="14">readyc &lt;-</text></g></g><g id="ProcessOnG1225" transform="matrix(1.0,0.0,0.0,1.0,515.5,1567.0)" opacity="1.0"><path id="ProcessOnPath1226" d="M0.0 0.0L144.0 0.0L144.0 32.0L0.0 32.0Z" stroke="#323232" stroke-width="2.0" stroke-dasharray="none" opacity="1.0" fill="#ffffff"/><g id="ProcessOnG1227" transform="matrix(1.0,0.0,0.0,1.0,10.0,7.875)"><text id="ProcessOnText1228" fill="#000000" font-size="13" x="61.0" y="13.325" font-family="微软雅黑" font-weight="bold" font-style="normal" text-decoration="none" family="微软雅黑" text-anchor="middle" size="13">r.raftLog 提交</text></g></g><g id="ProcessOnG1229"><path id="ProcessOnPath1230" d="M298.5 718.0L298.5 1583.0L515.5 1583.0" stroke="#b266ff" stroke-width="2.0" stroke-dasharray="10.0 4.0" fill="none" marker-end="url(#ProcessOnMarker1231)"/><g id="ProcessOnG1233" transform="matrix(1.0,0.0,0.0,1.0,298.5,1250.25)"><path id="ProcessOnPath1234" d="M0 0H81.0V17.5H0Z" fill="#fff" transform="matrix(1.0,0.0,0.0,1.0,-40.5,0.0)"/><text id="ProcessOnText1235" fill="#b266ff" font-size="14" x="0.0" y="14.350000000000001" font-family="微软雅黑" font-weight="bold" font-style="normal" text-decoration="none" family="微软雅黑" text-anchor="middle" size="14">&lt;-advancec</text></g></g><g id="ProcessOnG1236" transform="matrix(1.0,0.0,0.0,1.0,515.5,1643.0)" opacity="1.0"><path id="ProcessOnPath1237" d="M0.0 0.0L144.0 0.0L144.0 32.0L0.0 32.0Z" stroke="#323232" stroke-width="2.0" stroke-dasharray="none" opacity="1.0" fill="#ffffff"/><g id="ProcessOnG1238" transform="matrix(1.0,0.0,0.0,1.0,10.0,7.875)"><text id="ProcessOnText1239" fill="#000000" font-size="13" x="61.0" y="13.325" font-family="微软雅黑" font-weight="bold" font-style="normal" text-decoration="none" family="微软雅黑" text-anchor="middle" size="13">c &lt;- getStatus(r)</text></g></g><g id="ProcessOnG1240"><path id="ProcessOnPath1241" d="M313.0 718.0L313.0 1659.0L515.5 1659.0" stroke="#3333ff" stroke-width="2.0" stroke-dasharray="10.0 4.0" fill="none" marker-end="url(#ProcessOnMarker1242)"/><g id="ProcessOnG1244" transform="matrix(1.0,0.0,0.0,1.0,313.0,1281.0)"><path id="ProcessOnPath1245" d="M0 0H73.0V17.5H0Z" fill="#fff" transform="matrix(1.0,0.0,0.0,1.0,-36.5,0.0)"/><text id="ProcessOnText1246" fill="#3333ff" font-size="14" x="0.0" y="14.350000000000001" font-family="微软雅黑" font-weight="bold" font-style="normal" text-decoration="none" family="微软雅黑" text-anchor="middle" size="14">&lt;-n.status</text></g></g><g id="ProcessOnG1247" transform="matrix(1.0,0.0,0.0,1.0,515.5,1732.0)" opacity="1.0"><path id="ProcessOnPath1248" d="M0.0 0.0L144.0 0.0L144.0 32.0L0.0 32.0Z" stroke="#323232" stroke-width="2.0" stroke-dasharray="none" opacity="1.0" fill="#ffffff"/><g id="ProcessOnG1249" transform="matrix(1.0,0.0,0.0,1.0,10.0,7.875)"><text id="ProcessOnText1250" fill="#000000" font-size="13" x="61.0" y="13.325" font-family="微软雅黑" font-weight="bold" font-style="normal" text-decoration="none" family="微软雅黑" text-anchor="middle" size="13">close(n.done)</text></g></g><g id="ProcessOnG1251"><path id="ProcessOnPath1252" d="M327.0 718.0L327.0 1748.0L515.5 1748.0" stroke="#ff66ff" stroke-width="2.0" stroke-dasharray="10.0 4.0" fill="none" marker-end="url(#ProcessOnMarker1253)"/><g id="ProcessOnG1255" transform="matrix(1.0,0.0,0.0,1.0,327.0,1318.5)"><path id="ProcessOnPath1256" d="M0 0H61.0V17.5H0Z" fill="#fff" transform="matrix(1.0,0.0,0.0,1.0,-30.5,0.0)"/><text id="ProcessOnText1257" fill="#ff66ff" font-size="14" x="0.0" y="14.350000000000001" font-family="微软雅黑" font-weight="bold" font-style="normal" text-decoration="none" family="微软雅黑" text-anchor="middle" size="14">&lt;-n.stop</text></g></g><g id="ProcessOnG1258" transform="matrix(1.0,0.0,0.0,1.0,227.5,560.0)" opacity="1.0"><path id="ProcessOnPath1259" d="M0.0 0.0L142.0 0.0L142.0 48.0L0.0 48.0Z" stroke="#323232" stroke-width="2.0" stroke-dasharray="none" opacity="1.0" fill="#ffffff"/><g id="ProcessOnG1260" transform="matrix(1.0,0.0,0.0,1.0,10.0,15.875)"><text id="ProcessOnText1261" fill="#000000" font-size="13" x="60.0" y="13.325" font-family="微软雅黑" font-weight="bold" font-style="normal" text-decoration="none" family="微软雅黑" text-anchor="middle" size="13">更新 leader，propc</text></g></g><g id="ProcessOnG1262"><path id="ProcessOnPath1263" d="M298.5 608.0L298.5 639.0L298.5 639.0L298.5 670.0" stroke="#323232" stroke-width="2.0" stroke-dasharray="none" fill="none" marker-end="url(#ProcessOnMarker1264)"/></g><g id="ProcessOnG1266" transform="matrix(1.0,0.0,0.0,1.0,515.5,1817.0)" opacity="1.0"><path id="ProcessOnPath1267" d="M0.0 0.0L144.0 0.0L144.0 32.0L0.0 32.0Z" stroke="#323232" stroke-width="2.0" stroke-dasharray="none" opacity="1.0" fill="#ffffff"/><g id="ProcessOnG1268" transform="matrix(1.0,0.0,0.0,1.0,10.0,7.875)"><text id="ProcessOnText1269" fill="#000000" font-size="13" x="61.0" y="13.325" font-family="微软雅黑" font-weight="bold" font-style="normal" text-decoration="none" family="微软雅黑" text-anchor="middle" size="13">return</text></g></g><g id="ProcessOnG1270"><path id="ProcessOnPath1271" d="M587.5 1764.0L587.5 1790.5L587.5 1790.5L587.5 1817.0" stroke="#323232" stroke-width="2.0" stroke-dasharray="none" fill="none" marker-end="url(#ProcessOnMarker1272)"/></g></g></g></svg>