<svg xmlns="http://www.w3.org/2000/svg" xmlns:xlink="http://www.w3.org/1999/xlink" id="processonSvg1000" viewBox="22.0 33.0 1007.0 526.0" width="1007.0" height="526.0"><defs id="ProcessOnDefs1001"><marker id="ProcessOnMarker1025" markerUnits="userSpaceOnUse" orient="auto" markerWidth="14.289086868996552" markerHeight="19.055054660878554" viewBox="-0.5877852522924731 -0.8090169943749475 14.289086868996552 19.055054660878554" refX="12.0" refY="8.71851033606433"><path id="ProcessOnPath1026" d="M0 0L12.0 8.71851033606433L0 17.43702067212866" stroke="#323232" stroke-width="2.0" fill="none" transform="matrix(1.0,0.0,0.0,1.0,0.0,0.0)"/></marker><marker id="ProcessOnMarker1035" markerUnits="userSpaceOnUse" orient="auto" markerWidth="14.289086868996552" markerHeight="19.055054660878554" viewBox="-0.5877852522924731 -0.8090169943749475 14.289086868996552 19.055054660878554" refX="12.0" refY="8.71851033606433"><path id="ProcessOnPath1036" d="M0 0L12.0 8.71851033606433L0 17.43702067212866" stroke="#323232" stroke-width="2.0" fill="none" transform="matrix(1.0,0.0,0.0,1.0,0.0,0.0)"/></marker><marker id="ProcessOnMarker1053" markerUnits="userSpaceOnUse" orient="auto" markerWidth="16.23606797749979" markerHeight="10.550836550532098" viewBox="-1.0 -1.3763819204711736 16.23606797749979 10.550836550532098" refX="-1.0" refY="3.8990363547948754"><path id="ProcessOnPath1054" d="M12.0 3.8990363547948754L0.0 7.798072709589751V0.0Z" stroke="#323232" stroke-width="2.0" fill="#fff" transform="matrix(1.0,0.0,0.0,1.0,0.0,0.0)"/></marker><marker id="ProcessOnMarker1059" markerUnits="userSpaceOnUse" orient="auto" markerWidth="14.289086868996552" markerHeight="19.055054660878554" viewBox="-0.5877852522924731 -0.8090169943749475 14.289086868996552 19.055054660878554" refX="12.0" refY="8.71851033606433"><path id="ProcessOnPath1060" d="M0 0L12.0 8.71851033606433L0 17.43702067212866" stroke="#323232" stroke-width="2.0" fill="none" transform="matrix(1.0,0.0,0.0,1.0,0.0,0.0)"/></marker><marker id="ProcessOnMarker1069" markerUnits="userSpaceOnUse" orient="auto" markerWidth="14.289086868996552" markerHeight="19.055054660878554" viewBox="-0.5877852522924731 -0.8090169943749475 14.289086868996552 19.055054660878554" refX="12.0" refY="8.71851033606433"><path id="ProcessOnPath1070" d="M0 0L12.0 8.71851033606433L0 17.43702067212866" stroke="#323232" stroke-width="2.0" fill="none" transform="matrix(1.0,0.0,0.0,1.0,0.0,0.0)"/></marker><marker id="ProcessOnMarker1076" markerUnits="userSpaceOnUse" orient="auto" markerWidth="14.289086868996552" markerHeight="19.055054660878554" viewBox="-0.5877852522924731 -0.8090169943749475 14.289086868996552 19.055054660878554" refX="1.1135163644116066" refY="8.71851033606433"><path id="ProcessOnPath1077" d="M0 0L12.0 8.71851033606433L0 17.43702067212866" stroke="#323232" stroke-width="2.0" fill="none" transform="matrix(-1.0,1.2246467991473532E-16,-1.2246467991473532E-16,-1.0,13.113516364411606,17.43702067212866)"/></marker><marker id="ProcessOnMarker1078" markerUnits="userSpaceOnUse" orient="auto" markerWidth="14.289086868996552" markerHeight="19.055054660878554" viewBox="-0.5877852522924731 -0.8090169943749475 14.289086868996552 19.055054660878554" refX="12.0" refY="8.71851033606433"><path id="ProcessOnPath1079" d="M0 0L12.0 8.71851033606433L0 17.43702067212866" stroke="#323232" stroke-width="2.0" fill="none" transform="matrix(1.0,0.0,0.0,1.0,0.0,0.0)"/></marker></defs><g id="ProcessOnG1002"><path id="ProcessOnPath1003" d="M22.0 33.0H1029.0V559.0H22.0V33.0Z" fill="none"/><g id="ProcessOnG1004"><g id="ProcessOnG1005" transform="matrix(1.0,0.0,0.0,1.0,157.0,53.0)" opacity="1.0"><path id="ProcessOnPath1006" d="M0.0 0.0L136.0 0.0L136.0 32.0L0.0 32.0Z" stroke="none" stroke-width="0.0" stroke-dasharray="none" opacity="1.0" fill="none"/><g id="ProcessOnG1007" transform="matrix(1.0,0.0,0.0,1.0,0.0,6.0)"><text id="ProcessOnText1008" fill="#000000" font-size="16" x="0.0" y="16.4" font-family="微软雅黑" font-weight="bold" font-style="normal" text-decoration="none" family="微软雅黑" text-anchor="start" size="16">etcdserver</text></g></g><g id="ProcessOnG1009" transform="matrix(1.0,0.0,0.0,1.0,175.0,90.0)" opacity="1.0"><path id="ProcessOnPath1010" d="M0.0 0.0L100.0 0.0L100.0 20.0L0.0 20.0Z" stroke="none" stroke-width="0.0" stroke-dasharray="none" opacity="1.0" fill="none"/><g id="ProcessOnG1011" transform="matrix(1.0,0.0,0.0,1.0,0.0,1.875)"><text id="ProcessOnText1012" fill="#000000" font-size="13" x="0.0" y="13.325" font-family="微软雅黑" font-weight="normal" font-style="normal" text-decoration="none" family="微软雅黑" text-anchor="start" size="13">EtcdServer</text></g></g><g id="ProcessOnG1013" transform="matrix(1.0,0.0,0.0,1.0,175.0,110.0)" opacity="1.0"><path id="ProcessOnPath1014" d="M0.0 0.0L100.0 0.0L100.0 32.0L0.0 32.0Z" stroke="#323232" stroke-width="2.0" stroke-dasharray="none" opacity="1.0" fill="#ffffff"/><g id="ProcessOnG1015" transform="matrix(1.0,0.0,0.0,1.0,10.0,7.875)"><text id="ProcessOnText1016" fill="#000000" font-size="13" x="39.0" y="13.325" font-family="微软雅黑" font-weight="normal" font-style="normal" text-decoration="none" family="微软雅黑" text-anchor="middle" size="13">r</text></g></g><g id="ProcessOnG1017" transform="matrix(1.0,0.0,0.0,1.0,402.0,90.0)" opacity="1.0"><path id="ProcessOnPath1018" d="M0.0 0.0L100.0 0.0L100.0 20.0L0.0 20.0Z" stroke="none" stroke-width="0.0" stroke-dasharray="none" opacity="1.0" fill="none"/><g id="ProcessOnG1019" transform="matrix(1.0,0.0,0.0,1.0,0.0,1.875)"><text id="ProcessOnText1020" fill="#000000" font-size="13" x="0.0" y="13.325" font-family="微软雅黑" font-weight="normal" font-style="normal" text-decoration="none" family="微软雅黑" text-anchor="start" size="13">raftNode</text></g></g><g id="ProcessOnG1021" transform="matrix(1.0,0.0,0.0,1.0,402.0,110.0)" opacity="1.0"><path id="ProcessOnPath1022" d="M0.0 0.0L100.0 0.0L100.0 32.0L0.0 32.0Z" stroke="#323232" stroke-width="2.0" stroke-dasharray="none" opacity="1.0" fill="#ffffff"/></g><g id="ProcessOnG1023"><path id="ProcessOnPath1024" d="M275.0 126.0C326.19736439455806 126.0 360.15733451543423 81.5022803617587 402.09576022144495 110.86788218175522" stroke="#323232" stroke-width="2.0" stroke-dasharray="none" fill="none" marker-end="url(#ProcessOnMarker1025)"/></g><g id="ProcessOnG1027" transform="matrix(1.0,0.0,0.0,1.0,359.0,210.5)" opacity="1.0"><path id="ProcessOnPath1028" d="M0.0 0.0L100.0 0.0L100.0 20.0L0.0 20.0Z" stroke="none" stroke-width="0.0" stroke-dasharray="none" opacity="1.0" fill="none"/><g id="ProcessOnG1029" transform="matrix(1.0,0.0,0.0,1.0,0.0,1.875)"><text id="ProcessOnText1030" fill="#000000" font-size="13" x="0.0" y="13.325" font-family="微软雅黑" font-weight="normal" font-style="normal" text-decoration="none" family="微软雅黑" text-anchor="start" size="13">raftNodeConfig</text></g></g><g id="ProcessOnG1031" transform="matrix(1.0,0.0,0.0,1.0,359.0,230.5)" opacity="1.0"><path id="ProcessOnPath1032" d="M0.0 0.0L100.0 0.0L100.0 32.0L0.0 32.0Z" stroke="#323232" stroke-width="2.0" stroke-dasharray="none" opacity="1.0" fill="#ffffff"/></g><g id="ProcessOnG1033"><path id="ProcessOnPath1034" d="M402.0 126.0C355.3059988117471 126.0 317.49347868926105 215.11149890758378 359.8126155740733 234.8452365234814" stroke="#323232" stroke-width="2.0" stroke-dasharray="none" fill="none" marker-end="url(#ProcessOnMarker1035)"/></g><g id="ProcessOnG1037" transform="matrix(1.0,0.0,0.0,1.0,157.0,322.0)" opacity="1.0"><path id="ProcessOnPath1038" d="M0.0 0.0L136.0 0.0L136.0 32.0L0.0 32.0Z" stroke="none" stroke-width="0.0" stroke-dasharray="none" opacity="1.0" fill="none"/><g id="ProcessOnG1039" transform="matrix(1.0,0.0,0.0,1.0,0.0,6.0)"><text id="ProcessOnText1040" fill="#000000" font-size="16" x="0.0" y="16.4" font-family="微软雅黑" font-weight="bold" font-style="normal" text-decoration="none" family="微软雅黑" text-anchor="start" size="16">raft</text></g></g><g id="ProcessOnG1041" transform="matrix(1.0,0.0,0.0,1.0,164.5,409.0)" opacity="1.0"><path id="ProcessOnPath1042" d="M0.0 0.0L100.0 0.0L100.0 32.0L0.0 32.0Z" stroke="#323232" stroke-width="2.0" stroke-dasharray="10.0 4.0" opacity="1.0" fill="#ffffff"/><g id="ProcessOnG1043" transform="matrix(1.0,0.0,0.0,1.0,10.0,7.875)"><text id="ProcessOnText1044" fill="#000000" font-size="13" x="39.0" y="13.325" font-family="微软雅黑" font-weight="normal" font-style="normal" text-decoration="none" family="微软雅黑" text-anchor="middle" size="13">Node</text></g></g><g id="ProcessOnG1045" transform="matrix(1.0,0.0,0.0,1.0,164.5,507.0)" opacity="1.0"><path id="ProcessOnPath1046" d="M0.0 0.0L100.0 0.0L100.0 32.0L0.0 32.0Z" stroke="#323232" stroke-width="2.0" stroke-dasharray="none" opacity="1.0" fill="#ffffff"/></g><g id="ProcessOnG1047" transform="matrix(1.0,0.0,0.0,1.0,164.5,487.0)" opacity="1.0"><path id="ProcessOnPath1048" d="M0.0 0.0L100.0 0.0L100.0 20.0L0.0 20.0Z" stroke="none" stroke-width="0.0" stroke-dasharray="none" opacity="1.0" fill="none"/><g id="ProcessOnG1049" transform="matrix(1.0,0.0,0.0,1.0,0.0,1.875)"><text id="ProcessOnText1050" fill="#000000" font-size="13" x="0.0" y="13.325" font-family="微软雅黑" font-weight="normal" font-style="normal" text-decoration="none" family="微软雅黑" text-anchor="start" size="13">node</text></g></g><g id="ProcessOnG1051"><path id="ProcessOnPath1052" d="M214.5 507.0C214.5 480.6 214.5 467.4 214.5 456.2360679774998" stroke="#323232" stroke-width="2.0" stroke-dasharray="10.0 4.0" fill="none" marker-end="url(#ProcessOnMarker1053)"/></g><g id="ProcessOnG1055"><path id="ProcessOnPath1056" d="M42.0 304.5C428.8 304.5 622.2 304.5 1009.0 304.5" stroke="#323232" stroke-width="2.0" stroke-dasharray="10.0 4.0" fill="none"/></g><g id="ProcessOnG1057"><path id="ProcessOnPath1058" d="M359.0 246.5C247.68455098337 246.5 360.2058542593665 452.34227549168503 263.80384757729337 508.0" stroke="#323232" stroke-width="2.0" stroke-dasharray="none" fill="none" marker-end="url(#ProcessOnMarker1059)"/></g><g id="ProcessOnG1061" transform="matrix(1.0,0.0,0.0,1.0,495.5,507.0)" opacity="1.0"><path id="ProcessOnPath1062" d="M0.0 0.0L100.0 0.0L100.0 32.0L0.0 32.0Z" stroke="#323232" stroke-width="2.0" stroke-dasharray="none" opacity="1.0" fill="#ffffff"/></g><g id="ProcessOnG1063" transform="matrix(1.0,0.0,0.0,1.0,495.5,487.0)" opacity="1.0"><path id="ProcessOnPath1064" d="M0.0 0.0L100.0 0.0L100.0 20.0L0.0 20.0Z" stroke="none" stroke-width="0.0" stroke-dasharray="none" opacity="1.0" fill="none"/><g id="ProcessOnG1065" transform="matrix(1.0,0.0,0.0,1.0,0.0,1.875)"><text id="ProcessOnText1066" fill="#000000" font-size="13" x="0.0" y="13.325" font-family="微软雅黑" font-weight="normal" font-style="normal" text-decoration="none" family="微软雅黑" text-anchor="start" size="13">raft</text></g></g><g id="ProcessOnG1067"><path id="ProcessOnPath1068" d="M264.5 523.0C357.2749361229762 523.0 419.9181336818174 454.2279413739937 495.91491226573396 507.44145861810625" stroke="#323232" stroke-width="2.0" stroke-dasharray="10.0 4.0" fill="none" marker-end="url(#ProcessOnMarker1069)"/><g id="ProcessOnG1071" transform="matrix(1.0,0.0,0.0,1.0,386.49926521001436,487.14066034251096)"><path id="ProcessOnPath1072" d="M0 0H66.0V16.25H0Z" fill="#fff" transform="matrix(1.0,0.0,0.0,1.0,-33.0,0.0)"/><text id="ProcessOnText1073" fill="#000000" font-size="13" x="0.0" y="13.325" font-family="微软雅黑" font-weight="normal" font-style="normal" text-decoration="none" family="微软雅黑" text-anchor="middle" size="13">run(r *raft)</text></g></g><g id="ProcessOnG1074"><path id="ProcessOnPath1075" d="M502.0 126.0C665.1447210301333 125.99999999999999 758.6447210301333 523.0 595.5 523.0" stroke="#323232" stroke-width="2.0" stroke-dasharray="10.0 4.0 2.0 4.0" fill="none" marker-start="url(#ProcessOnMarker1076)" marker-end="url(#ProcessOnMarker1078)"/><g id="ProcessOnG1080" transform="matrix(1.0,0.0,0.0,1.0,671.1085407726,316.375)"><path id="ProcessOnPath1081" d="M0 0H96.0V16.25H0Z" fill="#fff" transform="matrix(1.0,0.0,0.0,1.0,-48.0,0.0)"/><text id="ProcessOnText1082" fill="#000000" font-size="13" x="0.0" y="13.325" font-family="微软雅黑" font-weight="normal" font-style="normal" text-decoration="none" family="微软雅黑" text-anchor="middle" size="13">communication</text></g></g></g></g></svg>