<svg xmlns="http://www.w3.org/2000/svg" xmlns:xlink="http://www.w3.org/1999/xlink" id="processonSvg1000" viewBox="39.75 14.25 844.75 490.75" width="844.75" height="490.75"><defs id="ProcessOnDefs1001"><marker id="ProcessOnMarker1023" markerUnits="userSpaceOnUse" orient="auto" markerWidth="14.289086868996552" markerHeight="19.055054660878554" viewBox="-0.5877852522924731 -0.8090169943749475 14.289086868996552 19.055054660878554" refX="1.1135163644116066" refY="8.71851033606433"><path id="ProcessOnPath1024" d="M0 0L12.0 8.71851033606433L0 17.43702067212866" stroke="#323232" stroke-width="2.0" fill="none" transform="matrix(-1.0,1.2246467991473532E-16,-1.2246467991473532E-16,-1.0,13.113516364411606,17.43702067212866)"/></marker><marker id="ProcessOnMarker1031" markerUnits="userSpaceOnUse" orient="auto" markerWidth="14.289086868996552" markerHeight="19.055054660878554" viewBox="-0.5877852522924731 -0.8090169943749475 14.289086868996552 19.055054660878554" refX="12.0" refY="8.71851033606433"><path id="ProcessOnPath1032" d="M0 0L12.0 8.71851033606433L0 17.43702067212866" stroke="#323232" stroke-width="2.0" fill="none" transform="matrix(1.0,0.0,0.0,1.0,0.0,0.0)"/></marker><marker id="ProcessOnMarker1038" markerUnits="userSpaceOnUse" orient="auto" markerWidth="14.289086868996552" markerHeight="19.055054660878554" viewBox="-0.5877852522924731 -0.8090169943749475 14.289086868996552 19.055054660878554" refX="12.0" refY="8.71851033606433"><path id="ProcessOnPath1039" d="M0 0L12.0 8.71851033606433L0 17.43702067212866" stroke="#323232" stroke-width="2.0" fill="none" transform="matrix(1.0,0.0,0.0,1.0,0.0,0.0)"/></marker><marker id="ProcessOnMarker1049" markerUnits="userSpaceOnUse" orient="auto" markerWidth="14.289086868996552" markerHeight="19.055054660878554" viewBox="-0.5877852522924731 -0.8090169943749475 14.289086868996552 19.055054660878554" refX="12.0" refY="8.71851033606433"><path id="ProcessOnPath1050" d="M0 0L12.0 8.71851033606433L0 17.43702067212866" stroke="#323232" stroke-width="2.0" fill="none" transform="matrix(1.0,0.0,0.0,1.0,0.0,0.0)"/></marker></defs><g id="ProcessOnG1002"><path id="ProcessOnPath1003" d="M39.75 14.25H884.5V505.0H39.75V14.25Z" fill="none"/><g id="ProcessOnG1004"><g id="ProcessOnG1005" transform="matrix(1.0,0.0,0.0,1.0,59.75,34.25)" opacity="1.0"><path id="ProcessOnPath1006" d="M0.0 0.0L219.5 0.0L219.5 31.5L0.0 31.5Z" stroke="none" stroke-width="0.0" stroke-dasharray="none" opacity="1.0" fill="none"/><g id="ProcessOnG1007" transform="matrix(1.0,0.0,0.0,1.0,0.0,5.75)"><text id="ProcessOnText1008" fill="#000000" font-size="16" x="0.0" y="16.4" font-family="微软雅黑" font-weight="bold" font-style="normal" text-decoration="none" family="微软雅黑" text-anchor="start" size="16">&lt;-r.ticker.C</text></g></g><g id="ProcessOnG1009" transform="matrix(1.0,0.0,0.0,1.0,151.75,99.25)" opacity="1.0"><path id="ProcessOnPath1010" d="M0.0 0.0L219.5 0.0L219.5 31.5L0.0 31.5Z" stroke="none" stroke-width="0.0" stroke-dasharray="none" opacity="1.0" fill="none"/><g id="ProcessOnG1011" transform="matrix(1.0,0.0,0.0,1.0,0.0,5.75)"><text id="ProcessOnText1012" fill="#000000" font-size="16" x="0.0" y="16.4" font-family="微软雅黑" font-weight="bold" font-style="normal" text-decoration="none" family="微软雅黑" text-anchor="start" size="16">raftNode</text></g></g><g id="ProcessOnG1013" transform="matrix(1.0,0.0,0.0,1.0,503.75,99.25)" opacity="1.0"><path id="ProcessOnPath1014" d="M0.0 0.0L219.5 0.0L219.5 31.5L0.0 31.5Z" stroke="none" stroke-width="0.0" stroke-dasharray="none" opacity="1.0" fill="none"/><g id="ProcessOnG1015" transform="matrix(1.0,0.0,0.0,1.0,0.0,5.75)"><text id="ProcessOnText1016" fill="#000000" font-size="16" x="0.0" y="16.4" font-family="微软雅黑" font-weight="bold" font-style="normal" text-decoration="none" family="微软雅黑" text-anchor="start" size="16">node</text></g></g><g id="ProcessOnG1017" transform="matrix(1.0,0.0,0.0,1.0,129.0,173.0)" opacity="1.0"><path id="ProcessOnPath1018" d="M0.0 0.0L106.0 0.0L106.0 32.0L0.0 32.0Z" stroke="#323232" stroke-width="2.0" stroke-dasharray="10.0 4.0" opacity="1.0" fill="#ffffff"/><g id="ProcessOnG1019" transform="matrix(1.0,0.0,0.0,1.0,10.0,7.875)"><text id="ProcessOnText1020" fill="#000000" font-size="13" x="42.0" y="13.325" font-family="微软雅黑" font-weight="normal" font-style="normal" text-decoration="none" family="微软雅黑" text-anchor="middle" size="13">tick()</text></g></g><g id="ProcessOnG1021"><path id="ProcessOnPath1022" d="M129.0 189.0L94.375 189.0L94.375 189.0L59.75 189.0" stroke="#323232" stroke-width="2.0" stroke-dasharray="10.0 4.0" fill="none" marker-start="url(#ProcessOnMarker1023)"/></g><g id="ProcessOnG1025" transform="matrix(1.0,0.0,0.0,1.0,503.75,173.0)" opacity="1.0"><path id="ProcessOnPath1026" d="M0.0 0.0L106.0 0.0L106.0 32.0L0.0 32.0Z" stroke="#323232" stroke-width="2.0" stroke-dasharray="10.0 4.0" opacity="1.0" fill="#ffffff"/><g id="ProcessOnG1027" transform="matrix(1.0,0.0,0.0,1.0,10.0,7.875)"><text id="ProcessOnText1028" fill="#000000" font-size="13" x="42.0" y="13.325" font-family="微软雅黑" font-weight="normal" font-style="normal" text-decoration="none" family="微软雅黑" text-anchor="middle" size="13">Tick()</text></g></g><g id="ProcessOnG1029"><path id="ProcessOnPath1030" d="M235.0 189.0L369.375 189.0L369.375 189.0L503.75 189.0" stroke="#323232" stroke-width="2.0" stroke-dasharray="10.0 4.0" fill="none" marker-end="url(#ProcessOnMarker1031)"/></g><g id="ProcessOnG1033" transform="matrix(1.0,0.0,0.0,1.0,509.5,372.0)" opacity="1.0"><path id="ProcessOnPath1034" d="M0.0 0.0L100.25 0.0L0.0 0.0M0.0 32.0L100.25 32.0L0.0 32.0Z" stroke="#323232" stroke-width="2.0" stroke-dasharray="none" opacity="1.0" fill="#ffffff"/><path id="ProcessOnPath1035" d="M0.0 0.0L100.25 0.0L100.25 32.0L0.0 32.0L0.0 0.0Z" stroke="none" stroke-width="0.0" stroke-dasharray="none" opacity="1.0" fill="none"/></g><g id="ProcessOnG1036"><path id="ProcessOnPath1037" d="M609.75 189.0L639.75 189.0L639.75 288.5L480.0 288.5L480.0 386.0L510.0 386.0" stroke="#323232" stroke-width="2.0" stroke-dasharray="10.0 4.0" fill="none" marker-end="url(#ProcessOnMarker1038)"/><g id="ProcessOnG1040" transform="matrix(1.0,0.0,0.0,1.0,560.875,280.375)"><path id="ProcessOnPath1041" d="M0 0H52.0V16.25H0Z" fill="#fff" transform="matrix(1.0,0.0,0.0,1.0,-26.0,0.0)"/><text id="ProcessOnText1042" fill="#000000" font-size="13" x="0.0" y="13.325" font-family="微软雅黑" font-weight="normal" font-style="normal" text-decoration="none" family="微软雅黑" text-anchor="middle" size="13">struct{}{}</text></g></g><g id="ProcessOnG1043" transform="matrix(1.0,0.0,0.0,1.0,758.5,372.0)" opacity="1.0"><path id="ProcessOnPath1044" d="M0.0 0.0L106.0 0.0L106.0 32.0L0.0 32.0Z" stroke="#323232" stroke-width="2.0" stroke-dasharray="none" opacity="1.0" fill="#ffffff"/><g id="ProcessOnG1045" transform="matrix(1.0,0.0,0.0,1.0,10.0,7.875)"><text id="ProcessOnText1046" fill="#000000" font-size="13" x="42.0" y="13.325" font-family="微软雅黑" font-weight="normal" font-style="normal" text-decoration="none" family="微软雅黑" text-anchor="middle" size="13">tick</text></g></g><g id="ProcessOnG1047"><path id="ProcessOnPath1048" d="M609.0 386.0L683.75 386.0L683.75 388.0L758.5 388.0" stroke="#323232" stroke-width="2.0" stroke-dasharray="10.0 4.0" fill="none" marker-end="url(#ProcessOnMarker1049)"/><g id="ProcessOnG1051" transform="matrix(1.0,0.0,0.0,1.0,683.75,378.875)"><path id="ProcessOnPath1052" d="M0 0H47.0V16.25H0Z" fill="#fff" transform="matrix(1.0,0.0,0.0,1.0,-23.5,0.0)"/><text id="ProcessOnText1053" fill="#000000" font-size="13" x="0.0" y="13.325" font-family="微软雅黑" font-weight="normal" font-style="normal" text-decoration="none" family="微软雅黑" text-anchor="middle" size="13">triggers</text></g></g><g id="ProcessOnG1054"><path id="ProcessOnPath1055" d="M381.0 60.0L381.0 272.5L381.0 272.5L381.0 485.0" stroke="#323232" stroke-width="2.0" stroke-dasharray="10.0 4.0" fill="none"/></g></g></g></svg>