<svg xmlns="http://www.w3.org/2000/svg" xmlns:xlink="http://www.w3.org/1999/xlink" id="processonSvg1000" viewBox="-43.6864937694464 7.0 1083.6864937694463 977.0" width="1083.6864937694463" height="977.0"><defs id="ProcessOnDefs1001"><marker id="ProcessOnMarker1043" markerUnits="userSpaceOnUse" orient="auto" markerWidth="14.289086868996552" markerHeight="19.055054660878554" viewBox="-0.5877852522924731 -0.8090169943749475 14.289086868996552 19.055054660878554" refX="12.0" refY="8.71851033606433"><path id="ProcessOnPath1044" d="M0 0L12.0 8.71851033606433L0 17.43702067212866" stroke="#323232" stroke-width="2.0" fill="none" transform="matrix(1.0,0.0,0.0,1.0,0.0,0.0)"/></marker><marker id="ProcessOnMarker1055" markerUnits="userSpaceOnUse" orient="auto" markerWidth="14.289086868996552" markerHeight="19.055054660878554" viewBox="-0.5877852522924731 -0.8090169943749475 14.289086868996552 19.055054660878554" refX="12.0" refY="8.71851033606433"><path id="ProcessOnPath1056" d="M0 0L12.0 8.71851033606433L0 17.43702067212866" stroke="#323232" stroke-width="2.0" fill="none" transform="matrix(1.0,0.0,0.0,1.0,0.0,0.0)"/></marker><marker id="ProcessOnMarker1067" markerUnits="userSpaceOnUse" orient="auto" markerWidth="14.289086868996552" markerHeight="19.055054660878554" viewBox="-0.5877852522924731 -0.8090169943749475 14.289086868996552 19.055054660878554" refX="12.0" refY="8.71851033606433"><path id="ProcessOnPath1068" d="M0 0L12.0 8.71851033606433L0 17.43702067212866" stroke="#323232" stroke-width="2.0" fill="none" transform="matrix(1.0,0.0,0.0,1.0,0.0,0.0)"/></marker><marker id="ProcessOnMarker1093" markerUnits="userSpaceOnUse" orient="auto" markerWidth="14.289086868996552" markerHeight="19.055054660878554" viewBox="-0.5877852522924731 -0.8090169943749475 14.289086868996552 19.055054660878554" refX="12.0" refY="8.71851033606433"><path id="ProcessOnPath1094" d="M0 0L12.0 8.71851033606433L0 17.43702067212866" stroke="#323232" stroke-width="2.0" fill="none" transform="matrix(1.0,0.0,0.0,1.0,0.0,0.0)"/></marker><marker id="ProcessOnMarker1097" markerUnits="userSpaceOnUse" orient="auto" markerWidth="14.289086868996552" markerHeight="19.055054660878554" viewBox="-0.5877852522924731 -0.8090169943749475 14.289086868996552 19.055054660878554" refX="12.0" refY="8.71851033606433"><path id="ProcessOnPath1098" d="M0 0L12.0 8.71851033606433L0 17.43702067212866" stroke="#323232" stroke-width="2.0" fill="none" transform="matrix(1.0,0.0,0.0,1.0,0.0,0.0)"/></marker><marker id="ProcessOnMarker1109" markerUnits="userSpaceOnUse" orient="auto" markerWidth="14.289086868996552" markerHeight="19.055054660878554" viewBox="-0.5877852522924731 -0.8090169943749475 14.289086868996552 19.055054660878554" refX="12.0" refY="8.71851033606433"><path id="ProcessOnPath1110" d="M0 0L12.0 8.71851033606433L0 17.43702067212866" stroke="#323232" stroke-width="2.0" fill="none" transform="matrix(1.0,0.0,0.0,1.0,0.0,0.0)"/></marker><marker id="ProcessOnMarker1125" markerUnits="userSpaceOnUse" orient="auto" markerWidth="14.289086868996552" markerHeight="19.055054660878554" viewBox="-0.5877852522924731 -0.8090169943749475 14.289086868996552 19.055054660878554" refX="12.0" refY="8.71851033606433"><path id="ProcessOnPath1126" d="M0 0L12.0 8.71851033606433L0 17.43702067212866" stroke="#323232" stroke-width="2.0" fill="none" transform="matrix(1.0,0.0,0.0,1.0,0.0,0.0)"/></marker><marker id="ProcessOnMarker1144" markerUnits="userSpaceOnUse" orient="auto" markerWidth="14.289086868996552" markerHeight="19.055054660878554" viewBox="-0.5877852522924731 -0.8090169943749475 14.289086868996552 19.055054660878554" refX="12.0" refY="8.71851033606433"><path id="ProcessOnPath1145" d="M0 0L12.0 8.71851033606433L0 17.43702067212866" stroke="#323232" stroke-width="2.0" fill="none" transform="matrix(1.0,0.0,0.0,1.0,0.0,0.0)"/></marker><marker id="ProcessOnMarker1164" markerUnits="userSpaceOnUse" orient="auto" markerWidth="14.289086868996552" markerHeight="19.055054660878554" viewBox="-0.5877852522924731 -0.8090169943749475 14.289086868996552 19.055054660878554" refX="12.0" refY="8.71851033606433"><path id="ProcessOnPath1165" d="M0 0L12.0 8.71851033606433L0 17.43702067212866" stroke="#323232" stroke-width="2.0" fill="none" transform="matrix(1.0,0.0,0.0,1.0,0.0,0.0)"/></marker><marker id="ProcessOnMarker1179" markerUnits="userSpaceOnUse" orient="auto" markerWidth="14.289086868996552" markerHeight="19.055054660878554" viewBox="-0.5877852522924731 -0.8090169943749475 14.289086868996552 19.055054660878554" refX="12.0" refY="8.71851033606433"><path id="ProcessOnPath1180" d="M0 0L12.0 8.71851033606433L0 17.43702067212866" stroke="#323232" stroke-width="2.0" fill="none" transform="matrix(1.0,0.0,0.0,1.0,0.0,0.0)"/></marker><marker id="ProcessOnMarker1183" markerUnits="userSpaceOnUse" orient="auto" markerWidth="14.289086868996552" markerHeight="19.055054660878554" viewBox="-0.5877852522924731 -0.8090169943749475 14.289086868996552 19.055054660878554" refX="12.0" refY="8.71851033606433"><path id="ProcessOnPath1184" d="M0 0L12.0 8.71851033606433L0 17.43702067212866" stroke="#323232" stroke-width="2.0" fill="none" transform="matrix(1.0,0.0,0.0,1.0,0.0,0.0)"/></marker><marker id="ProcessOnMarker1199" markerUnits="userSpaceOnUse" orient="auto" markerWidth="14.289086868996552" markerHeight="19.055054660878554" viewBox="-0.5877852522924731 -0.8090169943749475 14.289086868996552 19.055054660878554" refX="12.0" refY="8.71851033606433"><path id="ProcessOnPath1200" d="M0 0L12.0 8.71851033606433L0 17.43702067212866" stroke="#323232" stroke-width="2.0" fill="none" transform="matrix(1.0,0.0,0.0,1.0,0.0,0.0)"/></marker><marker id="ProcessOnMarker1210" markerUnits="userSpaceOnUse" orient="auto" markerWidth="14.289086868996552" markerHeight="19.055054660878554" viewBox="-0.5877852522924731 -0.8090169943749475 14.289086868996552 19.055054660878554" refX="12.0" refY="8.71851033606433"><path id="ProcessOnPath1211" d="M0 0L12.0 8.71851033606433L0 17.43702067212866" stroke="#323232" stroke-width="2.0" fill="none" transform="matrix(1.0,0.0,0.0,1.0,0.0,0.0)"/></marker><marker id="ProcessOnMarker1230" markerUnits="userSpaceOnUse" orient="auto" markerWidth="14.289086868996552" markerHeight="19.055054660878554" viewBox="-0.5877852522924731 -0.8090169943749475 14.289086868996552 19.055054660878554" refX="12.0" refY="8.71851033606433"><path id="ProcessOnPath1231" d="M0 0L12.0 8.71851033606433L0 17.43702067212866" stroke="#323232" stroke-width="2.0" fill="none" transform="matrix(1.0,0.0,0.0,1.0,0.0,0.0)"/></marker><marker id="ProcessOnMarker1249" markerUnits="userSpaceOnUse" orient="auto" markerWidth="14.289086868996552" markerHeight="19.055054660878554" viewBox="-0.5877852522924731 -0.8090169943749475 14.289086868996552 19.055054660878554" refX="12.0" refY="8.71851033606433"><path id="ProcessOnPath1250" d="M0 0L12.0 8.71851033606433L0 17.43702067212866" stroke="#323232" stroke-width="2.0" fill="none" transform="matrix(1.0,0.0,0.0,1.0,0.0,0.0)"/></marker><marker id="ProcessOnMarker1253" markerUnits="userSpaceOnUse" orient="auto" markerWidth="14.289086868996552" markerHeight="19.055054660878554" viewBox="-0.5877852522924731 -0.8090169943749475 14.289086868996552 19.055054660878554" refX="12.0" refY="8.71851033606433"><path id="ProcessOnPath1254" d="M0 0L12.0 8.71851033606433L0 17.43702067212866" stroke="#323232" stroke-width="2.0" fill="none" transform="matrix(1.0,0.0,0.0,1.0,0.0,0.0)"/></marker><marker id="ProcessOnMarker1271" markerUnits="userSpaceOnUse" orient="auto" markerWidth="14.289086868996552" markerHeight="19.055054660878554" viewBox="-0.5877852522924731 -0.8090169943749475 14.289086868996552 19.055054660878554" refX="12.0" refY="8.71851033606433"><path id="ProcessOnPath1272" d="M0 0L12.0 8.71851033606433L0 17.43702067212866" stroke="#323232" stroke-width="2.0" fill="none" transform="matrix(1.0,0.0,0.0,1.0,0.0,0.0)"/></marker></defs><g id="ProcessOnG1002"><path id="ProcessOnPath1003" d="M-43.6864937694464 7.0H1040.0V984.0H-43.686493769446315V7.0Z" fill="none"/><g id="ProcessOnG1004"><g id="ProcessOnG1005" transform="matrix(1.0,0.0,0.0,1.0,94.0,27.0)" opacity="1.0"><path id="ProcessOnPath1006" d="M0.0 0.0L136.0 0.0L136.0 32.0L0.0 32.0Z" stroke="none" stroke-width="0.0" stroke-dasharray="none" opacity="1.0" fill="none"/><g id="ProcessOnG1007" transform="matrix(1.0,0.0,0.0,1.0,0.0,6.0)"><text id="ProcessOnText1008" fill="#000000" font-size="16" x="0.0" y="16.4" font-family="微软雅黑" font-weight="bold" font-style="normal" text-decoration="none" family="微软雅黑" text-anchor="start" size="16">coreos/etcd</text></g></g><g id="ProcessOnG1009" transform="matrix(1.0,0.0,0.0,1.0,124.0,70.0)" opacity="1.0"><path id="ProcessOnPath1010" d="M0.0 0.0L136.0 0.0L136.0 32.0L0.0 32.0Z" stroke="none" stroke-width="0.0" stroke-dasharray="none" opacity="1.0" fill="none"/><g id="ProcessOnG1011" transform="matrix(1.0,0.0,0.0,1.0,0.0,6.0)"><text id="ProcessOnText1012" fill="#000000" font-size="16" x="0.0" y="16.4" font-family="微软雅黑" font-weight="bold" font-style="normal" text-decoration="none" family="微软雅黑" text-anchor="start" size="16">etcdmain</text></g></g><g id="ProcessOnG1013" transform="matrix(1.0,0.0,0.0,1.0,124.0,130.0)" opacity="1.0"><path id="ProcessOnPath1014" d="M0.0 0.0L100.0 0.0L100.0 20.0L0.0 20.0Z" stroke="none" stroke-width="0.0" stroke-dasharray="none" opacity="1.0" fill="none"/><g id="ProcessOnG1015" transform="matrix(1.0,0.0,0.0,1.0,0.0,1.875)"><text id="ProcessOnText1016" fill="#000000" font-size="13" x="0.0" y="13.325" font-family="微软雅黑" font-weight="normal" font-style="normal" text-decoration="none" family="微软雅黑" text-anchor="start" size="13">config</text></g></g><g id="ProcessOnG1017" transform="matrix(1.0,0.0,0.0,1.0,124.0,150.0)" opacity="1.0"><path id="ProcessOnPath1018" d="M0.0 0.0L100.0 0.0L100.0 32.0L0.0 32.0Z" stroke="#323232" stroke-width="2.0" stroke-dasharray="none" opacity="1.0" fill="#ffffff"/><g id="ProcessOnG1019" transform="matrix(1.0,0.0,0.0,1.0,10.0,7.875)"><text id="ProcessOnText1020" fill="#000000" font-size="13" x="39.0" y="13.325" font-family="微软雅黑" font-weight="normal" font-style="normal" text-decoration="none" family="微软雅黑" text-anchor="middle" size="13">ec</text></g></g><g id="ProcessOnG1021" transform="matrix(1.0,0.0,0.0,1.0,124.0,280.0)" opacity="1.0"><path id="ProcessOnPath1022" d="M0.0 0.0L136.0 0.0L136.0 32.0L0.0 32.0Z" stroke="none" stroke-width="0.0" stroke-dasharray="none" opacity="1.0" fill="none"/><g id="ProcessOnG1023" transform="matrix(1.0,0.0,0.0,1.0,0.0,6.0)"><text id="ProcessOnText1024" fill="#000000" font-size="16" x="0.0" y="16.4" font-family="微软雅黑" font-weight="bold" font-style="normal" text-decoration="none" family="微软雅黑" text-anchor="start" size="16">embed</text></g></g><g id="ProcessOnG1025" transform="matrix(1.0,0.0,0.0,1.0,124.0,182.0)" opacity="1.0"><path id="ProcessOnPath1026" d="M0.0 0.0L100.0 0.0L100.0 32.0L0.0 32.0Z" stroke="#323232" stroke-width="2.0" stroke-dasharray="none" opacity="1.0" fill="#ffffff"/><g id="ProcessOnG1027" transform="matrix(1.0,0.0,0.0,1.0,10.0,7.875)"><text id="ProcessOnText1028" fill="#000000" font-size="13" x="39.0" y="13.325" font-family="微软雅黑" font-weight="normal" font-style="normal" text-decoration="none" family="微软雅黑" text-anchor="middle" size="13">cp</text></g></g><g id="ProcessOnG1029" transform="matrix(1.0,0.0,0.0,1.0,124.0,214.0)" opacity="1.0"><path id="ProcessOnPath1030" d="M0.0 0.0L100.0 0.0L100.0 32.0L0.0 32.0Z" stroke="#323232" stroke-width="2.0" stroke-dasharray="none" opacity="1.0" fill="#ffffff"/><g id="ProcessOnG1031" transform="matrix(1.0,0.0,0.0,1.0,10.0,7.875)"><text id="ProcessOnText1032" fill="#000000" font-size="13" x="39.0" y="13.325" font-family="微软雅黑" font-weight="normal" font-style="normal" text-decoration="none" family="微软雅黑" text-anchor="middle" size="13">cf</text></g></g><g id="ProcessOnG1033" transform="matrix(1.0,0.0,0.0,1.0,124.0,344.0)" opacity="1.0"><path id="ProcessOnPath1034" d="M0.0 0.0L100.0 0.0L100.0 20.0L0.0 20.0Z" stroke="none" stroke-width="0.0" stroke-dasharray="none" opacity="1.0" fill="none"/><g id="ProcessOnG1035" transform="matrix(1.0,0.0,0.0,1.0,0.0,1.875)"><text id="ProcessOnText1036" fill="#000000" font-size="13" x="0.0" y="13.325" font-family="微软雅黑" font-weight="normal" font-style="normal" text-decoration="none" family="微软雅黑" text-anchor="start" size="13">Config</text></g></g><g id="ProcessOnG1037" transform="matrix(1.0,0.0,0.0,1.0,124.0,364.0)" opacity="1.0"><path id="ProcessOnPath1038" d="M0.0 0.0L100.0 0.0L100.0 32.0L0.0 32.0Z" stroke="#323232" stroke-width="2.0" stroke-dasharray="none" opacity="1.0" fill="#ffffff"/><g id="ProcessOnG1039" transform="matrix(1.0,0.0,0.0,1.0,10.0,7.875)"><text id="ProcessOnText1040" fill="#000000" font-size="13" x="39.0" y="13.325" font-family="微软雅黑" font-weight="normal" font-style="normal" text-decoration="none" family="微软雅黑" text-anchor="middle" size="13">CorsInfo</text></g></g><g id="ProcessOnG1041"><path id="ProcessOnPath1042" d="M124.0 166.0C44.42856550612443 166.0 63.342878104317776 313.78083065141226 124.29813332935692 364.9283628290596" stroke="#323232" stroke-width="2.0" stroke-dasharray="none" fill="none" marker-end="url(#ProcessOnMarker1043)"/></g><g id="ProcessOnG1045" transform="matrix(1.0,0.0,0.0,1.0,369.0,130.0)" opacity="1.0"><path id="ProcessOnPath1046" d="M0.0 0.0L100.0 0.0L100.0 20.0L0.0 20.0Z" stroke="none" stroke-width="0.0" stroke-dasharray="none" opacity="1.0" fill="none"/><g id="ProcessOnG1047" transform="matrix(1.0,0.0,0.0,1.0,0.0,1.875)"><text id="ProcessOnText1048" fill="#000000" font-size="13" x="0.0" y="13.325" font-family="微软雅黑" font-weight="normal" font-style="normal" text-decoration="none" family="微软雅黑" text-anchor="start" size="13">configProxy</text></g></g><g id="ProcessOnG1049" transform="matrix(1.0,0.0,0.0,1.0,369.0,150.0)" opacity="1.0"><path id="ProcessOnPath1050" d="M0.0 0.0L100.0 0.0L100.0 32.0L0.0 32.0Z" stroke="#323232" stroke-width="2.0" stroke-dasharray="none" opacity="1.0" fill="#ffffff"/><g id="ProcessOnG1051" transform="matrix(1.0,0.0,0.0,1.0,10.0,7.875)"><text id="ProcessOnText1052" fill="#000000" font-size="13" x="39.0" y="13.325" font-family="微软雅黑" font-weight="normal" font-style="normal" text-decoration="none" family="微软雅黑" text-anchor="middle" size="13">ec</text></g></g><g id="ProcessOnG1053"><path id="ProcessOnPath1054" d="M224.0 198.0C285.14247757064214 198.0 312.122713355801 130.4821820612822 369.57784834550137 151.39414100327969" stroke="#323232" stroke-width="2.0" stroke-dasharray="none" fill="none" marker-end="url(#ProcessOnMarker1055)"/></g><g id="ProcessOnG1057" transform="matrix(1.0,0.0,0.0,1.0,369.0,198.0)" opacity="1.0"><path id="ProcessOnPath1058" d="M0.0 0.0L100.0 0.0L100.0 20.0L0.0 20.0Z" stroke="none" stroke-width="0.0" stroke-dasharray="none" opacity="1.0" fill="none"/><g id="ProcessOnG1059" transform="matrix(1.0,0.0,0.0,1.0,0.0,1.875)"><text id="ProcessOnText1060" fill="#000000" font-size="13" x="0.0" y="13.325" font-family="微软雅黑" font-weight="normal" font-style="normal" text-decoration="none" family="微软雅黑" text-anchor="start" size="13">configFlags</text></g></g><g id="ProcessOnG1061" transform="matrix(1.0,0.0,0.0,1.0,369.0,218.0)" opacity="1.0"><path id="ProcessOnPath1062" d="M0.0 0.0L100.0 0.0L100.0 32.0L0.0 32.0Z" stroke="#323232" stroke-width="2.0" stroke-dasharray="none" opacity="1.0" fill="#ffffff"/><g id="ProcessOnG1063" transform="matrix(1.0,0.0,0.0,1.0,10.0,7.875)"><text id="ProcessOnText1064" fill="#000000" font-size="13" x="39.0" y="13.325" font-family="微软雅黑" font-weight="normal" font-style="normal" text-decoration="none" family="微软雅黑" text-anchor="middle" size="13">ec</text></g></g><g id="ProcessOnG1065"><path id="ProcessOnPath1066" d="M224.0 230.0C282.38546966355807 230.0 314.71345334153636 199.4251343008131 369.57784834550137 219.39414100327969" stroke="#323232" stroke-width="2.0" stroke-dasharray="none" fill="none" marker-end="url(#ProcessOnMarker1067)"/></g><g id="ProcessOnG1069" transform="matrix(1.0,0.0,0.0,1.0,124.0,721.0)" opacity="1.0"><path id="ProcessOnPath1070" d="M0.0 0.0L136.0 0.0L136.0 32.0L0.0 32.0Z" stroke="none" stroke-width="0.0" stroke-dasharray="none" opacity="1.0" fill="none"/><g id="ProcessOnG1071" transform="matrix(1.0,0.0,0.0,1.0,0.0,6.0)"><text id="ProcessOnText1072" fill="#000000" font-size="16" x="0.0" y="16.4" font-family="微软雅黑" font-weight="bold" font-style="normal" text-decoration="none" family="微软雅黑" text-anchor="start" size="16">pkg/cors</text></g></g><g id="ProcessOnG1073" transform="matrix(1.0,0.0,0.0,1.0,124.0,774.0)" opacity="1.0"><path id="ProcessOnPath1074" d="M0.0 0.0L100.0 0.0L100.0 20.0L0.0 20.0Z" stroke="none" stroke-width="0.0" stroke-dasharray="none" opacity="1.0" fill="none"/><g id="ProcessOnG1075" transform="matrix(1.0,0.0,0.0,1.0,0.0,1.875)"><text id="ProcessOnText1076" fill="#000000" font-size="13" x="0.0" y="13.325" font-family="微软雅黑" font-weight="normal" font-style="normal" text-decoration="none" family="微软雅黑" text-anchor="start" size="13">CORSInfo</text></g></g><g id="ProcessOnG1077" transform="matrix(1.0,0.0,0.0,1.0,124.0,794.0)" opacity="1.0"><path id="ProcessOnPath1078" d="M0.0 0.0L200.0 0.0L200.0 72.0L0.0 72.0Z" stroke="#323232" stroke-width="2.0" stroke-dasharray="none" opacity="1.0" fill="#ffffff"/></g><g id="ProcessOnG1079" transform="matrix(1.0,0.0,0.0,1.0,134.0,794.0)" opacity="1.0"><path id="ProcessOnPath1080" d="M0.0 0.0L44.0 0.0L44.0 20.0L0.0 20.0Z" stroke="none" stroke-width="0.0" stroke-dasharray="none" opacity="1.0" fill="none"/><g id="ProcessOnG1081" transform="matrix(1.0,0.0,0.0,1.0,0.0,1.875)"><text id="ProcessOnText1082" fill="#000000" font-size="13" x="0.0" y="13.325" font-family="微软雅黑" font-weight="normal" font-style="normal" text-decoration="none" family="微软雅黑" text-anchor="start" size="13">map</text></g></g><g id="ProcessOnG1083" transform="matrix(1.0,0.0,0.0,1.0,135.5,814.0)" opacity="1.0"><path id="ProcessOnPath1084" d="M0.0 4.0Q0.0 0.0 4.0 0.0L64.0 0.0Q68.0 0.0 68.0 4.0L68.0 28.0Q68.0 32.0 64.0 32.0L4.0 32.0Q0.0 32.0 0.0 28.0Z" stroke="#323232" stroke-width="2.0" stroke-dasharray="none" opacity="1.0" fill="#ffffff"/><g id="ProcessOnG1085" transform="matrix(1.0,0.0,0.0,1.0,10.0,7.875)"><text id="ProcessOnText1086" fill="#000000" font-size="13" x="23.0" y="13.325" font-family="微软雅黑" font-weight="normal" font-style="normal" text-decoration="none" family="微软雅黑" text-anchor="middle" size="13">string</text></g></g><g id="ProcessOnG1087" transform="matrix(1.0,0.0,0.0,1.0,244.5,814.0)" opacity="1.0"><path id="ProcessOnPath1088" d="M0.0 4.0Q0.0 0.0 4.0 0.0L64.0 0.0Q68.0 0.0 68.0 4.0L68.0 28.0Q68.0 32.0 64.0 32.0L4.0 32.0Q0.0 32.0 0.0 28.0Z" stroke="#323232" stroke-width="2.0" stroke-dasharray="none" opacity="1.0" fill="#ffffff"/><g id="ProcessOnG1089" transform="matrix(1.0,0.0,0.0,1.0,10.0,7.875)"><text id="ProcessOnText1090" fill="#000000" font-size="13" x="23.0" y="13.325" font-family="微软雅黑" font-weight="normal" font-style="normal" text-decoration="none" family="微软雅黑" text-anchor="middle" size="13">bool</text></g></g><g id="ProcessOnG1091"><path id="ProcessOnPath1092" d="M203.5 830.0C219.9 830.0 228.1 830.0 244.5 830.0" stroke="#323232" stroke-width="2.0" stroke-dasharray="none" fill="none" marker-end="url(#ProcessOnMarker1093)"/></g><g id="ProcessOnG1095"><path id="ProcessOnPath1096" d="M224.0 380.0C394.9148717134067 380.0 -23.6864937694464 710.0425641432968 124.33012701892221 795.5" stroke="#323232" stroke-width="2.0" stroke-dasharray="none" fill="none" marker-end="url(#ProcessOnMarker1097)"/></g><g id="ProcessOnG1099" transform="matrix(1.0,0.0,0.0,1.0,380.0,344.0)" opacity="1.0"><path id="ProcessOnPath1100" d="M0.0 0.0L100.0 0.0L100.0 20.0L0.0 20.0Z" stroke="none" stroke-width="0.0" stroke-dasharray="none" opacity="1.0" fill="none"/><g id="ProcessOnG1101" transform="matrix(1.0,0.0,0.0,1.0,0.0,1.875)"><text id="ProcessOnText1102" fill="#000000" font-size="13" x="0.0" y="13.325" font-family="微软雅黑" font-weight="normal" font-style="normal" text-decoration="none" family="微软雅黑" text-anchor="start" size="13">Etcd</text></g></g><g id="ProcessOnG1103" transform="matrix(1.0,0.0,0.0,1.0,380.0,364.0)" opacity="1.0"><path id="ProcessOnPath1104" d="M0.0 0.0L100.0 0.0L100.0 32.0L0.0 32.0Z" stroke="#323232" stroke-width="2.0" stroke-dasharray="none" opacity="1.0" fill="#ffffff"/><g id="ProcessOnG1105" transform="matrix(1.0,0.0,0.0,1.0,10.0,7.875)"><text id="ProcessOnText1106" fill="#000000" font-size="13" x="39.0" y="13.325" font-family="微软雅黑" font-weight="normal" font-style="normal" text-decoration="none" family="微软雅黑" text-anchor="middle" size="13">Config</text></g></g><g id="ProcessOnG1107"><path id="ProcessOnPath1108" d="M380.0 380.0C274.07021193262017 380.0 329.92978806737983 166.0 224.0 166.0" stroke="#323232" stroke-width="2.0" stroke-dasharray="none" fill="none" marker-end="url(#ProcessOnMarker1109)"/></g><g id="ProcessOnG1111" transform="matrix(1.0,0.0,0.0,1.0,380.0,396.0)" opacity="1.0"><path id="ProcessOnPath1112" d="M0.0 0.0L100.0 0.0L100.0 32.0L0.0 32.0Z" stroke="#323232" stroke-width="2.0" stroke-dasharray="none" opacity="1.0" fill="#ffffff"/><g id="ProcessOnG1113" transform="matrix(1.0,0.0,0.0,1.0,10.0,7.875)"><text id="ProcessOnText1114" fill="#000000" font-size="13" x="39.0" y="13.325" font-family="微软雅黑" font-weight="normal" font-style="normal" text-decoration="none" family="微软雅黑" text-anchor="middle" size="13">Peers</text></g></g><g id="ProcessOnG1115" transform="matrix(1.0,0.0,0.0,1.0,647.0,286.0)" opacity="1.0"><path id="ProcessOnPath1116" d="M0.0 0.0L100.0 0.0L100.0 20.0L0.0 20.0Z" stroke="none" stroke-width="0.0" stroke-dasharray="none" opacity="1.0" fill="none"/><g id="ProcessOnG1117" transform="matrix(1.0,0.0,0.0,1.0,0.0,1.875)"><text id="ProcessOnText1118" fill="#000000" font-size="13" x="0.0" y="13.325" font-family="微软雅黑" font-weight="normal" font-style="normal" text-decoration="none" family="微软雅黑" text-anchor="start" size="13">peerListener</text></g></g><g id="ProcessOnG1119" transform="matrix(1.0,0.0,0.0,1.0,647.0,306.0)" opacity="1.0"><path id="ProcessOnPath1120" d="M0.0 0.0L100.0 0.0L100.0 32.0L0.0 32.0Z" stroke="#323232" stroke-width="2.0" stroke-dasharray="none" opacity="1.0" fill="#ffffff"/><g id="ProcessOnG1121" transform="matrix(1.0,0.0,0.0,1.0,10.0,7.875)"><text id="ProcessOnText1122" fill="#000000" font-size="13" x="39.0" y="13.325" font-family="微软雅黑" font-weight="normal" font-style="normal" text-decoration="none" family="微软雅黑" text-anchor="middle" size="13">net.Listener</text></g></g><g id="ProcessOnG1123"><path id="ProcessOnPath1124" d="M480.0 412.0C558.9412140671011 412.0 575.8928096950791 274.17371090170553 647.4378467222199 307.53570957044417" stroke="#323232" stroke-width="2.0" stroke-dasharray="none" fill="none" marker-end="url(#ProcessOnMarker1125)"/><g id="ProcessOnG1127" transform="matrix(1.0,0.0,0.0,1.0,566.492489751095,339.13210528444506)"><path id="ProcessOnPath1128" d="M0 0H26.0V16.25H0Z" fill="#fff" transform="matrix(1.0,0.0,0.0,1.0,-13.0,0.0)"/><text id="ProcessOnText1129" fill="#000000" font-size="13" x="0.0" y="13.325" font-family="微软雅黑" font-weight="normal" font-style="normal" text-decoration="none" family="微软雅黑" text-anchor="middle" size="13">slice</text></g></g><g id="ProcessOnG1130" transform="matrix(1.0,0.0,0.0,1.0,647.0,338.0)" opacity="1.0"><path id="ProcessOnPath1131" d="M0.0 0.0L100.0 0.0L100.0 32.0L0.0 32.0Z" stroke="#323232" stroke-width="2.0" stroke-dasharray="10.0 4.0" opacity="1.0" fill="#ffffff"/><g id="ProcessOnG1132" transform="matrix(1.0,0.0,0.0,1.0,10.0,7.875)"><text id="ProcessOnText1133" fill="#000000" font-size="13" x="39.0" y="13.325" font-family="微软雅黑" font-weight="normal" font-style="normal" text-decoration="none" family="微软雅黑" text-anchor="middle" size="13">serve</text></g></g><g id="ProcessOnG1134" transform="matrix(1.0,0.0,0.0,1.0,647.0,370.0)" opacity="1.0"><path id="ProcessOnPath1135" d="M0.0 0.0L100.0 0.0L100.0 32.0L0.0 32.0Z" stroke="#323232" stroke-width="2.0" stroke-dasharray="10.0 4.0" opacity="1.0" fill="#ffffff"/><g id="ProcessOnG1136" transform="matrix(1.0,0.0,0.0,1.0,10.0,7.875)"><text id="ProcessOnText1137" fill="#000000" font-size="13" x="39.0" y="13.325" font-family="微软雅黑" font-weight="normal" font-style="normal" text-decoration="none" family="微软雅黑" text-anchor="middle" size="13">close</text></g></g><g id="ProcessOnG1138" transform="matrix(1.0,0.0,0.0,1.0,380.0,428.0)" opacity="1.0"><path id="ProcessOnPath1139" d="M0.0 0.0L100.0 0.0L100.0 32.0L0.0 32.0Z" stroke="#323232" stroke-width="2.0" stroke-dasharray="none" opacity="1.0" fill="#ffffff"/><g id="ProcessOnG1140" transform="matrix(1.0,0.0,0.0,1.0,10.0,7.875)"><text id="ProcessOnText1141" fill="#000000" font-size="13" x="39.0" y="13.325" font-family="微软雅黑" font-weight="normal" font-style="normal" text-decoration="none" family="微软雅黑" text-anchor="middle" size="13">Clients</text></g></g><g id="ProcessOnG1142"><path id="ProcessOnPath1143" d="M480.0 444.0C519.8015075091384 444.0 539.1984924908616 434.0 579.0 434.0" stroke="#323232" stroke-width="2.0" stroke-dasharray="none" fill="none" marker-end="url(#ProcessOnMarker1144)"/></g><g id="ProcessOnG1146" transform="matrix(1.0,0.0,0.0,1.0,579.0,418.0)" opacity="1.0"><path id="ProcessOnPath1147" d="M0.0 0.0L108.0 0.0L108.0 32.0L0.0 32.0Z" stroke="#323232" stroke-width="2.0" stroke-dasharray="10.0 4.0" opacity="1.0" fill="#ffffff"/><g id="ProcessOnG1148" transform="matrix(1.0,0.0,0.0,1.0,10.0,7.875)"><text id="ProcessOnText1149" fill="#000000" font-size="13" x="43.0" y="13.325" font-family="微软雅黑" font-weight="normal" font-style="normal" text-decoration="none" family="微软雅黑" text-anchor="middle" size="13">net.Listener</text></g></g><g id="ProcessOnG1150" transform="matrix(1.0,0.0,0.0,1.0,380.0,460.0)" opacity="1.0"><path id="ProcessOnPath1151" d="M0.0 0.0L100.0 0.0L100.0 32.0L0.0 32.0Z" stroke="#323232" stroke-width="2.0" stroke-dasharray="none" opacity="1.0" fill="#ffffff"/><g id="ProcessOnG1152" transform="matrix(1.0,0.0,0.0,1.0,10.0,7.875)"><text id="ProcessOnText1153" fill="#000000" font-size="13" x="39.0" y="13.325" font-family="微软雅黑" font-weight="normal" font-style="normal" text-decoration="none" family="微软雅黑" text-anchor="middle" size="13">sctxs</text></g></g><g id="ProcessOnG1154" transform="matrix(1.0,0.0,0.0,1.0,624.0,500.0)" opacity="1.0"><path id="ProcessOnPath1155" d="M0.0 4.0Q0.0 0.0 4.0 0.0L64.0 0.0Q68.0 0.0 68.0 4.0L68.0 28.0Q68.0 32.0 64.0 32.0L4.0 32.0Q0.0 32.0 0.0 28.0Z" stroke="#323232" stroke-width="2.0" stroke-dasharray="none" opacity="1.0" fill="#ffffff"/><g id="ProcessOnG1156" transform="matrix(1.0,0.0,0.0,1.0,10.0,7.875)"><text id="ProcessOnText1157" fill="#000000" font-size="13" x="23.0" y="13.325" font-family="微软雅黑" font-weight="normal" font-style="italic" text-decoration="none" family="微软雅黑" text-anchor="middle" size="13">string</text></g></g><g id="ProcessOnG1158" transform="matrix(1.0,0.0,0.0,1.0,624.0,532.0)" opacity="1.0"><path id="ProcessOnPath1159" d="M0.0 4.0Q0.0 0.0 4.0 0.0L64.0 0.0Q68.0 0.0 68.0 4.0L68.0 28.0Q68.0 32.0 64.0 32.0L4.0 32.0Q0.0 32.0 0.0 28.0Z" stroke="#323232" stroke-width="2.0" stroke-dasharray="none" opacity="1.0" fill="#ffffff"/><g id="ProcessOnG1160" transform="matrix(1.0,0.0,0.0,1.0,10.0,7.875)"><text id="ProcessOnText1161" fill="#000000" font-size="13" x="23.0" y="13.325" font-family="微软雅黑" font-weight="normal" font-style="italic" text-decoration="none" family="微软雅黑" text-anchor="middle" size="13">string</text></g></g><g id="ProcessOnG1162"><path id="ProcessOnPath1163" d="M480.0 476.0C538.9534419185964 476.0 576.8039277559544 468.0535770554584 625.095760221445 501.86788218175525" stroke="#323232" stroke-width="2.0" stroke-dasharray="none" fill="none" marker-end="url(#ProcessOnMarker1164)"/><g id="ProcessOnG1166" transform="matrix(1.0,0.0,0.0,1.0,556.5459836556371,468.1285766685163)"><path id="ProcessOnPath1167" d="M0 0H27.0V16.25H0Z" fill="#fff" transform="matrix(1.0,0.0,0.0,1.0,-13.5,0.0)"/><text id="ProcessOnText1168" fill="#000000" font-size="13" x="0.0" y="13.325" font-family="微软雅黑" font-weight="normal" font-style="normal" text-decoration="none" family="微软雅黑" text-anchor="middle" size="13">map</text></g></g><g id="ProcessOnG1169" transform="matrix(1.0,0.0,0.0,1.0,845.0,418.0)" opacity="1.0"><path id="ProcessOnPath1170" d="M0.0 0.0L100.0 0.0L100.0 20.0L0.0 20.0Z" stroke="none" stroke-width="0.0" stroke-dasharray="none" opacity="1.0" fill="none"/><g id="ProcessOnG1171" transform="matrix(1.0,0.0,0.0,1.0,0.0,1.875)"><text id="ProcessOnText1172" fill="#000000" font-size="13" x="0.0" y="13.325" font-family="微软雅黑" font-weight="normal" font-style="normal" text-decoration="none" family="微软雅黑" text-anchor="start" size="13">serveCtx</text></g></g><g id="ProcessOnG1173" transform="matrix(1.0,0.0,0.0,1.0,845.0,438.0)" opacity="1.0"><path id="ProcessOnPath1174" d="M0.0 0.0L120.0 0.0L120.0 32.0L0.0 32.0Z" stroke="#323232" stroke-width="2.0" stroke-dasharray="none" opacity="1.0" fill="#ffffff"/><g id="ProcessOnG1175" transform="matrix(1.0,0.0,0.0,1.0,10.0,7.875)"><text id="ProcessOnText1176" fill="#000000" font-size="13" x="49.0" y="13.325" font-family="微软雅黑" font-weight="normal" font-style="normal" text-decoration="none" family="微软雅黑" text-anchor="middle" size="13">l</text></g></g><g id="ProcessOnG1177"><path id="ProcessOnPath1178" d="M692.0 516.0C760.6684362346042 516.0 783.1782469280564 409.9377926742644 845.4129854111079 438.95832783218486" stroke="#323232" stroke-width="2.0" stroke-dasharray="none" fill="none" marker-end="url(#ProcessOnMarker1179)"/></g><g id="ProcessOnG1181"><path id="ProcessOnPath1182" d="M845.0 454.0C781.295683034821 454.0 750.704316965179 434.0 687.0 434.0" stroke="#323232" stroke-width="2.0" stroke-dasharray="none" fill="none" marker-end="url(#ProcessOnMarker1183)"/></g><g id="ProcessOnG1185" transform="matrix(1.0,0.0,0.0,1.0,845.0,470.0)" opacity="1.0"><path id="ProcessOnPath1186" d="M0.0 0.0L120.0 0.0L120.0 32.0L0.0 32.0Z" stroke="#323232" stroke-width="2.0" stroke-dasharray="none" opacity="1.0" fill="#ffffff"/><g id="ProcessOnG1187" transform="matrix(1.0,0.0,0.0,1.0,10.0,7.875)"><text id="ProcessOnText1188" fill="#000000" font-size="13" x="49.0" y="13.325" font-family="微软雅黑" font-weight="normal" font-style="normal" text-decoration="none" family="微软雅黑" text-anchor="middle" size="13">userHandlers</text></g></g><g id="ProcessOnG1189" transform="matrix(1.0,0.0,0.0,1.0,845.0,296.0)" opacity="1.0"><path id="ProcessOnPath1190" d="M0.0 4.0Q0.0 0.0 4.0 0.0L64.0 0.0Q68.0 0.0 68.0 4.0L68.0 28.0Q68.0 32.0 64.0 32.0L4.0 32.0Q0.0 32.0 0.0 28.0Z" stroke="#323232" stroke-width="2.0" stroke-dasharray="none" opacity="1.0" fill="#ffffff"/><g id="ProcessOnG1191" transform="matrix(1.0,0.0,0.0,1.0,10.0,7.875)"><text id="ProcessOnText1192" fill="#000000" font-size="13" x="23.0" y="13.325" font-family="微软雅黑" font-weight="normal" font-style="italic" text-decoration="none" family="微软雅黑" text-anchor="middle" size="13">string</text></g></g><g id="ProcessOnG1193" transform="matrix(1.0,0.0,0.0,1.0,845.0,328.0)" opacity="1.0"><path id="ProcessOnPath1194" d="M0.0 4.0Q0.0 0.0 4.0 0.0L64.0 0.0Q68.0 0.0 68.0 4.0L68.0 28.0Q68.0 32.0 64.0 32.0L4.0 32.0Q0.0 32.0 0.0 28.0Z" stroke="#323232" stroke-width="2.0" stroke-dasharray="none" opacity="1.0" fill="#ffffff"/><g id="ProcessOnG1195" transform="matrix(1.0,0.0,0.0,1.0,10.0,7.875)"><text id="ProcessOnText1196" fill="#000000" font-size="13" x="23.0" y="13.325" font-family="微软雅黑" font-weight="normal" font-style="italic" text-decoration="none" family="微软雅黑" text-anchor="middle" size="13">string</text></g></g><g id="ProcessOnG1197"><path id="ProcessOnPath1198" d="M845.0 486.0C769.9987965731375 486.0 781.1092303444236 260.99939828656875 846.062177826491 298.5" stroke="#323232" stroke-width="2.0" stroke-dasharray="none" fill="none" marker-end="url(#ProcessOnMarker1199)"/><g id="ProcessOnG1201" transform="matrix(1.0,0.0,0.0,1.0,793.0482823223969,370.06227435746325)"><path id="ProcessOnPath1202" d="M0 0H27.0V16.25H0Z" fill="#fff" transform="matrix(1.0,0.0,0.0,1.0,-13.5,0.0)"/><text id="ProcessOnText1203" fill="#000000" font-size="13" x="0.0" y="13.325" font-family="微软雅黑" font-weight="normal" font-style="normal" text-decoration="none" family="微软雅黑" text-anchor="middle" size="13">map</text></g></g><g id="ProcessOnG1204" transform="matrix(1.0,0.0,0.0,1.0,901.0,389.0)" opacity="1.0"><path id="ProcessOnPath1205" d="M0.0 0.0L108.0 0.0L108.0 32.0L0.0 32.0Z" stroke="#323232" stroke-width="2.0" stroke-dasharray="10.0 4.0" opacity="1.0" fill="#ffffff"/><g id="ProcessOnG1206" transform="matrix(1.0,0.0,0.0,1.0,10.0,7.875)"><text id="ProcessOnText1207" fill="#000000" font-size="13" x="43.0" y="13.325" font-family="微软雅黑" font-weight="normal" font-style="normal" text-decoration="none" family="微软雅黑" text-anchor="middle" size="13">http.Handler</text></g></g><g id="ProcessOnG1208"><path id="ProcessOnPath1209" d="M845.0 344.0C811.8771981861437 344.0 867.8771981861437 405.0 901.0 405.0" stroke="#323232" stroke-width="2.0" stroke-dasharray="none" fill="none" marker-end="url(#ProcessOnMarker1210)"/></g><g id="ProcessOnG1212"><path id="ProcessOnPath1213" d="M30.0 276.0C426.0 276.0 624.0 276.0 1020.0 276.0" stroke="#323232" stroke-width="2.0" stroke-dasharray="10.0 4.0" fill="none"/></g><g id="ProcessOnG1214"><path id="ProcessOnPath1215" d="M30.0 714.0C426.0 714.0 624.0 714.0 1020.0 714.0" stroke="#323232" stroke-width="2.0" stroke-dasharray="10.0 4.0" fill="none"/></g><g id="ProcessOnG1216" transform="matrix(1.0,0.0,0.0,1.0,845.0,502.0)" opacity="1.0"><path id="ProcessOnPath1217" d="M0.0 0.0L120.0 0.0L120.0 32.0L0.0 32.0Z" stroke="#323232" stroke-width="2.0" stroke-dasharray="none" opacity="1.0" fill="#ffffff"/><g id="ProcessOnG1218" transform="matrix(1.0,0.0,0.0,1.0,10.0,7.875)"><text id="ProcessOnText1219" fill="#000000" font-size="13" x="49.0" y="13.325" font-family="微软雅黑" font-weight="normal" font-style="normal" text-decoration="none" family="微软雅黑" text-anchor="middle" size="13">serversC</text></g></g><g id="ProcessOnG1220" transform="matrix(1.0,0.0,0.0,1.0,706.0,585.0)" opacity="1.0"><path id="ProcessOnPath1221" d="M0.0 0.0L100.0 0.0L100.0 20.0L0.0 20.0Z" stroke="none" stroke-width="0.0" stroke-dasharray="none" opacity="1.0" fill="none"/><g id="ProcessOnG1222" transform="matrix(1.0,0.0,0.0,1.0,0.0,1.875)"><text id="ProcessOnText1223" fill="#000000" font-size="13" x="0.0" y="13.325" font-family="微软雅黑" font-weight="normal" font-style="normal" text-decoration="none" family="微软雅黑" text-anchor="start" size="13">servers</text></g></g><g id="ProcessOnG1224" transform="matrix(1.0,0.0,0.0,1.0,706.0,605.0)" opacity="1.0"><path id="ProcessOnPath1225" d="M0.0 0.0L100.0 0.0L100.0 32.0L0.0 32.0Z" stroke="#323232" stroke-width="2.0" stroke-dasharray="none" opacity="1.0" fill="#ffffff"/><g id="ProcessOnG1226" transform="matrix(1.0,0.0,0.0,1.0,10.0,7.875)"><text id="ProcessOnText1227" fill="#000000" font-size="13" x="39.0" y="13.325" font-family="微软雅黑" font-weight="normal" font-style="normal" text-decoration="none" family="微软雅黑" text-anchor="middle" size="13">grpc</text></g></g><g id="ProcessOnG1228"><path id="ProcessOnPath1229" d="M845.0 518.0C806.3455588539382 518.0 837.3872563084891 584.1230291437047 805.7233918228441 606.2943057454041" stroke="#323232" stroke-width="2.0" stroke-dasharray="none" fill="none" marker-end="url(#ProcessOnMarker1230)"/><g id="ProcessOnG1232" transform="matrix(1.0,0.0,0.0,1.0,822.7402296637657,545.7079241470648)"><path id="ProcessOnPath1233" d="M0 0H30.0V16.25H0Z" fill="#fff" transform="matrix(1.0,0.0,0.0,1.0,-15.0,0.0)"/><text id="ProcessOnText1234" fill="#000000" font-size="13" x="0.0" y="13.325" font-family="微软雅黑" font-weight="normal" font-style="normal" text-decoration="none" family="微软雅黑" text-anchor="middle" size="13">chan</text></g></g><g id="ProcessOnG1235" transform="matrix(1.0,0.0,0.0,1.0,706.0,637.0)" opacity="1.0"><path id="ProcessOnPath1236" d="M0.0 0.0L100.0 0.0L100.0 32.0L0.0 32.0Z" stroke="#323232" stroke-width="2.0" stroke-dasharray="none" opacity="1.0" fill="#ffffff"/><g id="ProcessOnG1237" transform="matrix(1.0,0.0,0.0,1.0,10.0,7.875)"><text id="ProcessOnText1238" fill="#000000" font-size="13" x="39.0" y="13.325" font-family="微软雅黑" font-weight="normal" font-style="normal" text-decoration="none" family="微软雅黑" text-anchor="middle" size="13">http</text></g></g><g id="ProcessOnG1239" transform="matrix(1.0,0.0,0.0,1.0,519.0,605.0)" opacity="1.0"><path id="ProcessOnPath1240" d="M0.0 0.0L108.0 0.0L108.0 32.0L0.0 32.0Z" stroke="#323232" stroke-width="2.0" stroke-dasharray="none" opacity="1.0" fill="#ffffff"/><g id="ProcessOnG1241" transform="matrix(1.0,0.0,0.0,1.0,10.0,7.875)"><text id="ProcessOnText1242" fill="#000000" font-size="13" x="43.0" y="13.325" font-family="微软雅黑" font-weight="normal" font-style="normal" text-decoration="none" family="微软雅黑" text-anchor="middle" size="13">grpc.Server</text></g></g><g id="ProcessOnG1243" transform="matrix(1.0,0.0,0.0,1.0,519.0,669.0)" opacity="1.0"><path id="ProcessOnPath1244" d="M0.0 0.0L108.0 0.0L108.0 32.0L0.0 32.0Z" stroke="#323232" stroke-width="2.0" stroke-dasharray="none" opacity="1.0" fill="#ffffff"/><g id="ProcessOnG1245" transform="matrix(1.0,0.0,0.0,1.0,10.0,7.875)"><text id="ProcessOnText1246" fill="#000000" font-size="13" x="43.0" y="13.325" font-family="微软雅黑" font-weight="normal" font-style="normal" text-decoration="none" family="微软雅黑" text-anchor="middle" size="13">http.Server</text></g></g><g id="ProcessOnG1247"><path id="ProcessOnPath1248" d="M706.0 621.0C674.4 621.0 658.6 621.0 627.0 621.0" stroke="#323232" stroke-width="2.0" stroke-dasharray="none" fill="none" marker-end="url(#ProcessOnMarker1249)"/></g><g id="ProcessOnG1251"><path id="ProcessOnPath1252" d="M706.0 653.0C671.906012260224 653.0 661.093987739776 685.0 627.0 685.0" stroke="#323232" stroke-width="2.0" stroke-dasharray="none" fill="none" marker-end="url(#ProcessOnMarker1253)"/></g><g id="ProcessOnG1255" transform="matrix(1.0,0.0,0.0,1.0,380.0,492.0)" opacity="1.0"><path id="ProcessOnPath1256" d="M0.0 0.0L100.0 0.0L100.0 32.0L0.0 32.0Z" stroke="#323232" stroke-width="2.0" stroke-dasharray="none" opacity="1.0" fill="#ffffff"/><g id="ProcessOnG1257" transform="matrix(1.0,0.0,0.0,1.0,10.0,7.875)"><text id="ProcessOnText1258" fill="#000000" font-size="13" x="39.0" y="13.325" font-family="微软雅黑" font-weight="normal" font-style="normal" text-decoration="none" family="微软雅黑" text-anchor="middle" size="13">Server</text></g></g><g id="ProcessOnG1259" transform="matrix(1.0,0.0,0.0,1.0,453.0,721.0)" opacity="1.0"><path id="ProcessOnPath1260" d="M0.0 0.0L136.0 0.0L136.0 32.0L0.0 32.0Z" stroke="none" stroke-width="0.0" stroke-dasharray="none" opacity="1.0" fill="none"/><g id="ProcessOnG1261" transform="matrix(1.0,0.0,0.0,1.0,0.0,6.0)"><text id="ProcessOnText1262" fill="#000000" font-size="16" x="0.0" y="16.4" font-family="微软雅黑" font-weight="bold" font-style="normal" text-decoration="none" family="微软雅黑" text-anchor="start" size="16">etcdserver</text></g></g><g id="ProcessOnG1263" transform="matrix(1.0,0.0,0.0,1.0,471.0,758.0)" opacity="1.0"><path id="ProcessOnPath1264" d="M0.0 0.0L100.0 0.0L100.0 20.0L0.0 20.0Z" stroke="none" stroke-width="0.0" stroke-dasharray="none" opacity="1.0" fill="none"/><g id="ProcessOnG1265" transform="matrix(1.0,0.0,0.0,1.0,0.0,1.875)"><text id="ProcessOnText1266" fill="#000000" font-size="13" x="0.0" y="13.325" font-family="微软雅黑" font-weight="normal" font-style="normal" text-decoration="none" family="微软雅黑" text-anchor="start" size="13">EtcdServer</text></g></g><g id="ProcessOnG1267" transform="matrix(1.0,0.0,0.0,1.0,471.0,778.0)" opacity="1.0"><path id="ProcessOnPath1268" d="M0.0 0.0L100.0 0.0L100.0 32.0L0.0 32.0Z" stroke="#323232" stroke-width="2.0" stroke-dasharray="none" opacity="1.0" fill="#ffffff"/></g><g id="ProcessOnG1269"><path id="ProcessOnPath1270" d="M380.0 508.0C265.4756014690429 508.0 383.80130979005503 705.6707108368705 471.53208888623794 779.2855752193731" stroke="#323232" stroke-width="2.0" stroke-dasharray="none" fill="none" marker-end="url(#ProcessOnMarker1271)"/></g><g id="ProcessOnG1273"><path id="ProcessOnPath1274" d="M381.0 724.0C381.0 820.0 381.0 868.0 381.0 964.0" stroke="#323232" stroke-width="2.0" stroke-dasharray="10.0 4.0" fill="none"/></g></g></g></svg>