<svg xmlns="http://www.w3.org/2000/svg" xmlns:xlink="http://www.w3.org/1999/xlink" id="processonSvg1000" viewBox="185.0 42.0 642.0 594.0" width="642.0" height="594.0"><defs id="ProcessOnDefs1001"><marker id="ProcessOnMarker1029" markerUnits="userSpaceOnUse" orient="auto" markerWidth="14.289086868996552" markerHeight="19.055054660878554" viewBox="-0.5877852522924731 -0.8090169943749475 14.289086868996552 19.055054660878554" refX="12.0" refY="8.71851033606433"><path id="ProcessOnPath1030" d="M0 0L12.0 8.71851033606433L0 17.43702067212866" stroke="#323232" stroke-width="2.0" fill="none" transform="matrix(1.0,0.0,0.0,1.0,0.0,0.0)"/></marker><marker id="ProcessOnMarker1036" markerUnits="userSpaceOnUse" orient="auto" markerWidth="16.23606797749979" markerHeight="10.550836550532098" viewBox="-1.0 -1.3763819204711736 16.23606797749979 10.550836550532098" refX="-1.0" refY="3.8990363547948754"><path id="ProcessOnPath1037" d="M12.0 3.8990363547948754L0.0 7.798072709589751V0.0Z" stroke="#323232" stroke-width="2.0" fill="#fff" transform="matrix(1.0,0.0,0.0,1.0,0.0,0.0)"/></marker><marker id="ProcessOnMarker1056" markerUnits="userSpaceOnUse" orient="auto" markerWidth="14.289086868996552" markerHeight="19.055054660878554" viewBox="-0.5877852522924731 -0.8090169943749475 14.289086868996552 19.055054660878554" refX="12.0" refY="8.71851033606433"><path id="ProcessOnPath1057" d="M0 0L12.0 8.71851033606433L0 17.43702067212866" stroke="#323232" stroke-width="2.0" fill="none" transform="matrix(1.0,0.0,0.0,1.0,0.0,0.0)"/></marker><marker id="ProcessOnMarker1060" markerUnits="userSpaceOnUse" orient="auto" markerWidth="14.289086868996552" markerHeight="19.055054660878554" viewBox="-0.5877852522924731 -0.8090169943749475 14.289086868996552 19.055054660878554" refX="12.0" refY="8.71851033606433"><path id="ProcessOnPath1061" d="M0 0L12.0 8.71851033606433L0 17.43702067212866" stroke="#323232" stroke-width="2.0" fill="none" transform="matrix(1.0,0.0,0.0,1.0,0.0,0.0)"/></marker><marker id="ProcessOnMarker1072" markerUnits="userSpaceOnUse" orient="auto" markerWidth="14.289086868996552" markerHeight="19.055054660878554" viewBox="-0.5877852522924731 -0.8090169943749475 14.289086868996552 19.055054660878554" refX="12.0" refY="8.71851033606433"><path id="ProcessOnPath1073" d="M0 0L12.0 8.71851033606433L0 17.43702067212866" stroke="#323232" stroke-width="2.0" fill="none" transform="matrix(1.0,0.0,0.0,1.0,0.0,0.0)"/></marker><marker id="ProcessOnMarker1076" markerUnits="userSpaceOnUse" orient="auto" markerWidth="14.289086868996552" markerHeight="19.055054660878554" viewBox="-0.5877852522924731 -0.8090169943749475 14.289086868996552 19.055054660878554" refX="12.0" refY="8.71851033606433"><path id="ProcessOnPath1077" d="M0 0L12.0 8.71851033606433L0 17.43702067212866" stroke="#323232" stroke-width="2.0" fill="none" transform="matrix(1.0,0.0,0.0,1.0,0.0,0.0)"/></marker><marker id="ProcessOnMarker1083" markerUnits="userSpaceOnUse" orient="auto" markerWidth="14.289086868996552" markerHeight="19.055054660878554" viewBox="-0.5877852522924731 -0.8090169943749475 14.289086868996552 19.055054660878554" refX="12.0" refY="8.71851033606433"><path id="ProcessOnPath1084" d="M0 0L12.0 8.71851033606433L0 17.43702067212866" stroke="#323232" stroke-width="2.0" fill="none" transform="matrix(1.0,0.0,0.0,1.0,0.0,0.0)"/></marker><marker id="ProcessOnMarker1090" markerUnits="userSpaceOnUse" orient="auto" markerWidth="14.289086868996552" markerHeight="19.055054660878554" viewBox="-0.5877852522924731 -0.8090169943749475 14.289086868996552 19.055054660878554" refX="12.0" refY="8.71851033606433"><path id="ProcessOnPath1091" d="M0 0L12.0 8.71851033606433L0 17.43702067212866" stroke="#323232" stroke-width="2.0" fill="none" transform="matrix(1.0,0.0,0.0,1.0,0.0,0.0)"/></marker><marker id="ProcessOnMarker1097" markerUnits="userSpaceOnUse" orient="auto" markerWidth="14.289086868996552" markerHeight="19.055054660878554" viewBox="-0.5877852522924731 -0.8090169943749475 14.289086868996552 19.055054660878554" refX="12.0" refY="8.71851033606433"><path id="ProcessOnPath1098" d="M0 0L12.0 8.71851033606433L0 17.43702067212866" stroke="#323232" stroke-width="2.0" fill="none" transform="matrix(1.0,0.0,0.0,1.0,0.0,0.0)"/></marker></defs><g id="ProcessOnG1002"><path id="ProcessOnPath1003" d="M185.0 42.0H827.0V636.0H185.0V42.0Z" fill="none"/><g id="ProcessOnG1004"><g id="ProcessOnG1005" transform="matrix(1.0,0.0,0.0,1.0,274.0,400.0)" opacity="1.0"><path id="ProcessOnPath1006" d="M0.0 0.0L322.0 0.0L322.0 216.0L0.0 216.0Z" stroke="#323232" stroke-width="2.0" stroke-dasharray="10.0 4.0" opacity="1.0" fill="#ffffff"/></g><g id="ProcessOnG1007" transform="matrix(1.0,0.0,0.0,1.0,205.0,287.0)" opacity="1.0"><path id="ProcessOnPath1008" d="M0.0 0.0L100.0 0.0L100.0 20.0L0.0 20.0Z" stroke="none" stroke-width="0.0" stroke-dasharray="none" opacity="1.0" fill="none"/><g id="ProcessOnG1009" transform="matrix(1.0,0.0,0.0,1.0,0.0,1.875)"><text id="ProcessOnText1010" fill="#000000" font-size="13" x="0.0" y="13.325" font-family="微软雅黑" font-weight="normal" font-style="normal" text-decoration="none" family="微软雅黑" text-anchor="start" size="13">ttlKeyHeap</text></g></g><g id="ProcessOnG1011" transform="matrix(1.0,0.0,0.0,1.0,205.0,307.0)" opacity="1.0"><path id="ProcessOnPath1012" d="M0.0 0.0L100.0 0.0L100.0 32.0L0.0 32.0Z" stroke="#323232" stroke-width="2.0" stroke-dasharray="none" opacity="1.0" fill="#ffffff"/><g id="ProcessOnG1013" transform="matrix(1.0,0.0,0.0,1.0,10.0,7.875)"><text id="ProcessOnText1014" fill="#000000" font-size="13" x="39.0" y="13.325" font-family="微软雅黑" font-weight="normal" font-style="normal" text-decoration="none" family="微软雅黑" text-anchor="middle" size="13">array</text></g></g><g id="ProcessOnG1015" transform="matrix(1.0,0.0,0.0,1.0,205.0,339.0)" opacity="1.0"><path id="ProcessOnPath1016" d="M0.0 0.0L100.0 0.0L100.0 32.0L0.0 32.0Z" stroke="#323232" stroke-width="2.0" stroke-dasharray="none" opacity="1.0" fill="#ffffff"/><g id="ProcessOnG1017" transform="matrix(1.0,0.0,0.0,1.0,10.0,7.875)"><text id="ProcessOnText1018" fill="#000000" font-size="13" x="39.0" y="13.325" font-family="微软雅黑" font-weight="normal" font-style="normal" text-decoration="none" family="微软雅黑" text-anchor="middle" size="13">keyMap</text></g></g><g id="ProcessOnG1019" transform="matrix(1.0,0.0,0.0,1.0,361.0,145.0)" opacity="1.0"><path id="ProcessOnPath1020" d="M0.0 0.0L148.0 0.0L148.0 32.0L0.0 32.0Z" stroke="#323232" stroke-width="2.0" stroke-dasharray="10.0 4.0" opacity="1.0" fill="#ffffff"/><g id="ProcessOnG1021" transform="matrix(1.0,0.0,0.0,1.0,10.0,7.875)"><text id="ProcessOnText1022" fill="#000000" font-size="13" x="63.0" y="13.325" font-family="微软雅黑" font-weight="normal" font-style="normal" text-decoration="none" family="微软雅黑" text-anchor="middle" size="13">heap.Interface</text></g></g><g id="ProcessOnG1023" transform="matrix(1.0,0.0,0.0,1.0,361.0,62.0)" opacity="1.0"><path id="ProcessOnPath1024" d="M0.0 0.0L148.0 0.0L148.0 32.0L0.0 32.0Z" stroke="#323232" stroke-width="2.0" stroke-dasharray="10.0 4.0" opacity="1.0" fill="#ffffff"/><g id="ProcessOnG1025" transform="matrix(1.0,0.0,0.0,1.0,10.0,7.875)"><text id="ProcessOnText1026" fill="#000000" font-size="13" x="63.0" y="13.325" font-family="微软雅黑" font-weight="normal" font-style="normal" text-decoration="none" family="微软雅黑" text-anchor="middle" size="13">sort.Interface</text></g></g><g id="ProcessOnG1027"><path id="ProcessOnPath1028" d="M509.0 161.0C542.2 161.0 542.2 78.0 509.0 78.0" stroke="#323232" stroke-width="2.0" stroke-dasharray="10.0 4.0" fill="none" marker-end="url(#ProcessOnMarker1029)"/><g id="ProcessOnG1031" transform="matrix(1.0,0.0,0.0,1.0,533.9000000000001,111.375)"><path id="ProcessOnPath1032" d="M0 0H52.0V16.25H0Z" fill="#fff" transform="matrix(1.0,0.0,0.0,1.0,-26.0,0.0)"/><text id="ProcessOnText1033" fill="#000000" font-size="13" x="0.0" y="13.325" font-family="微软雅黑" font-weight="normal" font-style="normal" text-decoration="none" family="微软雅黑" text-anchor="middle" size="13">contains</text></g></g><g id="ProcessOnG1034"><path id="ProcessOnPath1035" d="M303.0 307.46410161513774C331.61343138011176 257.90418468589843 324.7864321152424 220.77414244212576 351.7775947224674 188.6073274366708" stroke="#323232" stroke-width="2.0" stroke-dasharray="10.0 4.0" fill="none" marker-end="url(#ProcessOnMarker1036)"/></g><g id="ProcessOnG1038" transform="matrix(1.0,0.0,0.0,1.0,314.0,433.0)" opacity="1.0"><path id="ProcessOnPath1039" d="M0.0 4.0Q0.0 0.0 4.0 0.0L96.0 0.0Q100.0 0.0 100.0 4.0L100.0 28.0Q100.0 32.0 96.0 32.0L4.0 32.0Q0.0 32.0 0.0 28.0Z" stroke="#323232" stroke-width="2.0" stroke-dasharray="none" opacity="1.0" fill="#ffffff"/><g id="ProcessOnG1040" transform="matrix(1.0,0.0,0.0,1.0,10.0,7.875)"><text id="ProcessOnText1041" fill="#000000" font-size="13" x="39.0" y="13.325" font-family="微软雅黑" font-weight="bold" font-style="italic" text-decoration="none" family="微软雅黑" text-anchor="middle" size="13">*node</text></g></g><g id="ProcessOnG1042" transform="matrix(1.0,0.0,0.0,1.0,314.0,465.0)" opacity="1.0"><path id="ProcessOnPath1043" d="M0.0 4.0Q0.0 0.0 4.0 0.0L96.0 0.0Q100.0 0.0 100.0 4.0L100.0 28.0Q100.0 32.0 96.0 32.0L4.0 32.0Q0.0 32.0 0.0 28.0Z" stroke="#323232" stroke-width="2.0" stroke-dasharray="none" opacity="1.0" fill="#ffffff"/><g id="ProcessOnG1044" transform="matrix(1.0,0.0,0.0,1.0,10.0,7.875)"><text id="ProcessOnText1045" fill="#000000" font-size="13" x="39.0" y="13.325" font-family="微软雅黑" font-weight="bold" font-style="italic" text-decoration="none" family="微软雅黑" text-anchor="middle" size="13">*node</text></g></g><g id="ProcessOnG1046" transform="matrix(1.0,0.0,0.0,1.0,455.0,441.0)" opacity="1.0"><path id="ProcessOnPath1047" d="M0.0 4.0Q0.0 0.0 4.0 0.0L96.0 0.0Q100.0 0.0 100.0 4.0L100.0 28.0Q100.0 32.0 96.0 32.0L4.0 32.0Q0.0 32.0 0.0 28.0Z" stroke="#323232" stroke-width="2.0" stroke-dasharray="none" opacity="1.0" fill="#ffffff"/><g id="ProcessOnG1048" transform="matrix(1.0,0.0,0.0,1.0,10.0,7.875)"><text id="ProcessOnText1049" fill="#000000" font-size="13" x="39.0" y="13.325" font-family="微软雅黑" font-weight="bold" font-style="italic" text-decoration="none" family="微软雅黑" text-anchor="middle" size="13">int</text></g></g><g id="ProcessOnG1050" transform="matrix(1.0,0.0,0.0,1.0,455.0,532.0)" opacity="1.0"><path id="ProcessOnPath1051" d="M0.0 4.0Q0.0 0.0 4.0 0.0L96.0 0.0Q100.0 0.0 100.0 4.0L100.0 28.0Q100.0 32.0 96.0 32.0L4.0 32.0Q0.0 32.0 0.0 28.0Z" stroke="#323232" stroke-width="2.0" stroke-dasharray="none" opacity="1.0" fill="#ffffff"/><g id="ProcessOnG1052" transform="matrix(1.0,0.0,0.0,1.0,10.0,7.875)"><text id="ProcessOnText1053" fill="#000000" font-size="13" x="39.0" y="13.325" font-family="微软雅黑" font-weight="bold" font-style="italic" text-decoration="none" family="微软雅黑" text-anchor="middle" size="13">int</text></g></g><g id="ProcessOnG1054"><path id="ProcessOnPath1055" d="M414.0 449.0C430.70927885936436 449.0 438.29072114063564 457.0 455.0 457.0" stroke="#323232" stroke-width="2.0" stroke-dasharray="none" fill="none" marker-end="url(#ProcessOnMarker1056)"/></g><g id="ProcessOnG1058"><path id="ProcessOnPath1059" d="M414.0 481.0C445.4197390186488 481.0 423.5802609813512 548.0 455.0 548.0" stroke="#323232" stroke-width="2.0" stroke-dasharray="none" fill="none" marker-end="url(#ProcessOnMarker1060)"/></g><g id="ProcessOnG1062" transform="matrix(1.0,0.0,0.0,1.0,607.0,287.0)" opacity="1.0"><path id="ProcessOnPath1063" d="M0.0 4.0Q0.0 0.0 4.0 0.0L96.0 0.0Q100.0 0.0 100.0 4.0L100.0 28.0Q100.0 32.0 96.0 32.0L4.0 32.0Q0.0 32.0 0.0 28.0Z" stroke="#323232" stroke-width="2.0" stroke-dasharray="none" opacity="1.0" fill="#ffffff"/><g id="ProcessOnG1064" transform="matrix(1.0,0.0,0.0,1.0,10.0,7.875)"><text id="ProcessOnText1065" fill="#000000" font-size="13" x="39.0" y="13.325" font-family="微软雅黑" font-weight="bold" font-style="italic" text-decoration="none" family="微软雅黑" text-anchor="middle" size="13">*node</text></g></g><g id="ProcessOnG1066" transform="matrix(1.0,0.0,0.0,1.0,707.0,287.0)" opacity="1.0"><path id="ProcessOnPath1067" d="M0.0 4.0Q0.0 0.0 4.0 0.0L96.0 0.0Q100.0 0.0 100.0 4.0L100.0 28.0Q100.0 32.0 96.0 32.0L4.0 32.0Q0.0 32.0 0.0 28.0Z" stroke="#323232" stroke-width="2.0" stroke-dasharray="none" opacity="1.0" fill="#ffffff"/><g id="ProcessOnG1068" transform="matrix(1.0,0.0,0.0,1.0,10.0,7.875)"><text id="ProcessOnText1069" fill="#000000" font-size="13" x="39.0" y="13.325" font-family="微软雅黑" font-weight="bold" font-style="italic" text-decoration="none" family="微软雅黑" text-anchor="middle" size="13">*node</text></g></g><g id="ProcessOnG1070"><path id="ProcessOnPath1071" d="M305.0 323.0C426.81163259688617 323.0 490.13455308996663 259.02574383951 607.7955549577343 290.55291427061513" stroke="#323232" stroke-width="2.0" stroke-dasharray="none" fill="none" marker-end="url(#ProcessOnMarker1072)"/></g><g id="ProcessOnG1074"><path id="ProcessOnPath1075" d="M305.0 355.0C336.90642432716055 355.0 292.560071338409 411.560071338409 315.12132034355966 434.12132034355966" stroke="#323232" stroke-width="2.0" stroke-dasharray="none" fill="none" marker-end="url(#ProcessOnMarker1076)"/><g id="ProcessOnG1078" transform="matrix(1.0,0.0,0.0,1.0,313.5651009175335,377.9751917948483)"><path id="ProcessOnPath1079" d="M0 0H27.0V16.25H0Z" fill="#fff" transform="matrix(1.0,0.0,0.0,1.0,-13.5,0.0)"/><text id="ProcessOnText1080" fill="#000000" font-size="13" x="0.0" y="13.325" font-family="微软雅黑" font-weight="normal" font-style="normal" text-decoration="none" family="微软雅黑" text-anchor="middle" size="13">map</text></g></g><g id="ProcessOnG1081"><path id="ProcessOnPath1082" d="M555.0 457.0C659.5585003718014 457.0 777.0 423.5585003718014 777.0 319.0" stroke="#323232" stroke-width="2.0" stroke-dasharray="10.0 4.0" fill="none" marker-end="url(#ProcessOnMarker1083)"/><g id="ProcessOnG1085" transform="matrix(1.0,0.0,0.0,1.0,705.2094376394255,419.0844376394255)"><path id="ProcessOnPath1086" d="M0 0H36.0V16.25H0Z" fill="#fff" transform="matrix(1.0,0.0,0.0,1.0,-18.0,0.0)"/><text id="ProcessOnText1087" fill="#000000" font-size="13" x="0.0" y="13.325" font-family="微软雅黑" font-weight="normal" font-style="normal" text-decoration="none" family="微软雅黑" text-anchor="middle" size="13">offset</text></g></g><g id="ProcessOnG1088"><path id="ProcessOnPath1089" d="M555.0 548.0C655.275620167616 548.0 657.0 419.275620167616 657.0 319.0" stroke="#323232" stroke-width="2.0" stroke-dasharray="10.0 4.0" fill="none" marker-end="url(#ProcessOnMarker1090)"/><g id="ProcessOnG1092" transform="matrix(1.0,0.0,0.0,1.0,643.603357562856,462.978357562856)"><path id="ProcessOnPath1093" d="M0 0H36.0V16.25H0Z" fill="#fff" transform="matrix(1.0,0.0,0.0,1.0,-18.0,0.0)"/><text id="ProcessOnText1094" fill="#000000" font-size="13" x="0.0" y="13.325" font-family="微软雅黑" font-weight="normal" font-style="normal" text-decoration="none" family="微软雅黑" text-anchor="middle" size="13">offset</text></g></g><g id="ProcessOnG1095"><path id="ProcessOnPath1096" d="M435.0 400.0C435.0 310.8 435.0 266.2 435.0 177.0" stroke="#323232" stroke-width="2.0" stroke-dasharray="10.0 4.0" fill="none" marker-end="url(#ProcessOnMarker1097)"/></g></g></g></svg>