<svg xmlns="http://www.w3.org/2000/svg" xmlns:xlink="http://www.w3.org/1999/xlink" id="processonSvg1000" viewBox="38.0 14.5 1329.0 845.0" width="1329.0" height="845.0"><defs id="ProcessOnDefs1001"><marker id="ProcessOnMarker1035" markerUnits="userSpaceOnUse" orient="auto" markerWidth="14.289086868996552" markerHeight="19.055054660878554" viewBox="-0.5877852522924731 -0.8090169943749475 14.289086868996552 19.055054660878554" refX="12.0" refY="8.71851033606433"><path id="ProcessOnPath1036" d="M0 0L12.0 8.71851033606433L0 17.43702067212866" stroke="#323232" stroke-width="2.0" fill="none" transform="matrix(1.0,0.0,0.0,1.0,0.0,0.0)"/></marker><marker id="ProcessOnMarker1046" markerUnits="userSpaceOnUse" orient="auto" markerWidth="14.289086868996552" markerHeight="19.055054660878554" viewBox="-0.5877852522924731 -0.8090169943749475 14.289086868996552 19.055054660878554" refX="12.0" refY="8.71851033606433"><path id="ProcessOnPath1047" d="M0 0L12.0 8.71851033606433L0 17.43702067212866" stroke="#323232" stroke-width="2.0" fill="none" transform="matrix(1.0,0.0,0.0,1.0,0.0,0.0)"/></marker><marker id="ProcessOnMarker1054" markerUnits="userSpaceOnUse" orient="auto" markerWidth="14.289086868996552" markerHeight="19.055054660878554" viewBox="-0.5877852522924731 -0.8090169943749475 14.289086868996552 19.055054660878554" refX="12.0" refY="8.71851033606433"><path id="ProcessOnPath1055" d="M0 0L12.0 8.71851033606433L0 17.43702067212866" stroke="#323232" stroke-width="2.0" fill="none" transform="matrix(1.0,0.0,0.0,1.0,0.0,0.0)"/></marker><marker id="ProcessOnMarker1066" markerUnits="userSpaceOnUse" orient="auto" markerWidth="14.289086868996552" markerHeight="19.055054660878554" viewBox="-0.5877852522924731 -0.8090169943749475 14.289086868996552 19.055054660878554" refX="12.0" refY="8.71851033606433"><path id="ProcessOnPath1067" d="M0 0L12.0 8.71851033606433L0 17.43702067212866" stroke="#323232" stroke-width="2.0" fill="none" transform="matrix(1.0,0.0,0.0,1.0,0.0,0.0)"/></marker><marker id="ProcessOnMarker1086" markerUnits="userSpaceOnUse" orient="auto" markerWidth="14.289086868996552" markerHeight="19.055054660878554" viewBox="-0.5877852522924731 -0.8090169943749475 14.289086868996552 19.055054660878554" refX="12.0" refY="8.71851033606433"><path id="ProcessOnPath1087" d="M0 0L12.0 8.71851033606433L0 17.43702067212866" stroke="#323232" stroke-width="2.0" fill="none" transform="matrix(1.0,0.0,0.0,1.0,0.0,0.0)"/></marker><marker id="ProcessOnMarker1098" markerUnits="userSpaceOnUse" orient="auto" markerWidth="14.289086868996552" markerHeight="19.055054660878554" viewBox="-0.5877852522924731 -0.8090169943749475 14.289086868996552 19.055054660878554" refX="12.0" refY="8.71851033606433"><path id="ProcessOnPath1099" d="M0 0L12.0 8.71851033606433L0 17.43702067212866" stroke="#323232" stroke-width="2.0" fill="none" transform="matrix(1.0,0.0,0.0,1.0,0.0,0.0)"/></marker><marker id="ProcessOnMarker1121" markerUnits="userSpaceOnUse" orient="auto" markerWidth="14.289086868996552" markerHeight="19.055054660878554" viewBox="-0.5877852522924731 -0.8090169943749475 14.289086868996552 19.055054660878554" refX="12.0" refY="8.71851033606433"><path id="ProcessOnPath1122" d="M0 0L12.0 8.71851033606433L0 17.43702067212866" stroke="#323232" stroke-width="2.0" fill="none" transform="matrix(1.0,0.0,0.0,1.0,0.0,0.0)"/></marker><marker id="ProcessOnMarker1125" markerUnits="userSpaceOnUse" orient="auto" markerWidth="14.289086868996552" markerHeight="19.055054660878554" viewBox="-0.5877852522924731 -0.8090169943749475 14.289086868996552 19.055054660878554" refX="12.0" refY="8.71851033606433"><path id="ProcessOnPath1126" d="M0 0L12.0 8.71851033606433L0 17.43702067212866" stroke="#323232" stroke-width="2.0" fill="none" transform="matrix(1.0,0.0,0.0,1.0,0.0,0.0)"/></marker><marker id="ProcessOnMarker1141" markerUnits="userSpaceOnUse" orient="auto" markerWidth="14.289086868996552" markerHeight="19.055054660878554" viewBox="-0.5877852522924731 -0.8090169943749475 14.289086868996552 19.055054660878554" refX="12.0" refY="8.71851033606433"><path id="ProcessOnPath1142" d="M0 0L12.0 8.71851033606433L0 17.43702067212866" stroke="#323232" stroke-width="2.0" fill="none" transform="matrix(1.0,0.0,0.0,1.0,0.0,0.0)"/></marker><marker id="ProcessOnMarker1165" markerUnits="userSpaceOnUse" orient="auto" markerWidth="14.289086868996552" markerHeight="19.055054660878554" viewBox="-0.5877852522924731 -0.8090169943749475 14.289086868996552 19.055054660878554" refX="12.0" refY="8.71851033606433"><path id="ProcessOnPath1166" d="M0 0L12.0 8.71851033606433L0 17.43702067212866" stroke="#323232" stroke-width="2.0" fill="none" transform="matrix(1.0,0.0,0.0,1.0,0.0,0.0)"/></marker><marker id="ProcessOnMarker1172" markerUnits="userSpaceOnUse" orient="auto" markerWidth="14.289086868996552" markerHeight="19.055054660878554" viewBox="-0.5877852522924731 -0.8090169943749475 14.289086868996552 19.055054660878554" refX="12.0" refY="8.71851033606433"><path id="ProcessOnPath1173" d="M0 0L12.0 8.71851033606433L0 17.43702067212866" stroke="#323232" stroke-width="2.0" fill="none" transform="matrix(1.0,0.0,0.0,1.0,0.0,0.0)"/></marker><marker id="ProcessOnMarker1187" markerUnits="userSpaceOnUse" orient="auto" markerWidth="14.289086868996552" markerHeight="19.055054660878554" viewBox="-0.5877852522924731 -0.8090169943749475 14.289086868996552 19.055054660878554" refX="12.0" refY="8.71851033606433"><path id="ProcessOnPath1188" d="M0 0L12.0 8.71851033606433L0 17.43702067212866" stroke="#323232" stroke-width="2.0" fill="none" transform="matrix(1.0,0.0,0.0,1.0,0.0,0.0)"/></marker><marker id="ProcessOnMarker1191" markerUnits="userSpaceOnUse" orient="auto" markerWidth="14.289086868996552" markerHeight="19.055054660878554" viewBox="-0.5877852522924731 -0.8090169943749475 14.289086868996552 19.055054660878554" refX="12.0" refY="8.71851033606433"><path id="ProcessOnPath1192" d="M0 0L12.0 8.71851033606433L0 17.43702067212866" stroke="#323232" stroke-width="2.0" fill="none" transform="matrix(1.0,0.0,0.0,1.0,0.0,0.0)"/></marker><marker id="ProcessOnMarker1201" markerUnits="userSpaceOnUse" orient="auto" markerWidth="14.289086868996552" markerHeight="19.055054660878554" viewBox="-0.5877852522924731 -0.8090169943749475 14.289086868996552 19.055054660878554" refX="12.0" refY="8.71851033606433"><path id="ProcessOnPath1202" d="M0 0L12.0 8.71851033606433L0 17.43702067212866" stroke="#323232" stroke-width="2.0" fill="none" transform="matrix(1.0,0.0,0.0,1.0,0.0,0.0)"/></marker><marker id="ProcessOnMarker1216" markerUnits="userSpaceOnUse" orient="auto" markerWidth="14.289086868996552" markerHeight="19.055054660878554" viewBox="-0.5877852522924731 -0.8090169943749475 14.289086868996552 19.055054660878554" refX="12.0" refY="8.71851033606433"><path id="ProcessOnPath1217" d="M0 0L12.0 8.71851033606433L0 17.43702067212866" stroke="#66ffff" stroke-width="2.0" fill="none" transform="matrix(1.0,0.0,0.0,1.0,0.0,0.0)"/></marker><marker id="ProcessOnMarker1220" markerUnits="userSpaceOnUse" orient="auto" markerWidth="14.289086868996552" markerHeight="19.055054660878554" viewBox="-0.5877852522924731 -0.8090169943749475 14.289086868996552 19.055054660878554" refX="12.0" refY="8.71851033606433"><path id="ProcessOnPath1221" d="M0 0L12.0 8.71851033606433L0 17.43702067212866" stroke="#ffb366" stroke-width="2.0" fill="none" transform="matrix(1.0,0.0,0.0,1.0,0.0,0.0)"/></marker></defs><g id="ProcessOnG1002"><path id="ProcessOnPath1003" d="M38.0 14.5H1367.0V859.5H38.0V14.5Z" fill="none"/><g id="ProcessOnG1004"><g id="ProcessOnG1005" transform="matrix(1.0,0.0,0.0,1.0,58.0,34.5)" opacity="1.0"><path id="ProcessOnPath1006" d="M0.0 0.0L136.0 0.0L136.0 32.0L0.0 32.0Z" stroke="none" stroke-width="0.0" stroke-dasharray="none" opacity="1.0" fill="none"/><g id="ProcessOnG1007" transform="matrix(1.0,0.0,0.0,1.0,0.0,6.0)"><text id="ProcessOnText1008" fill="#000000" font-size="16" x="0.0" y="16.4" font-family="微软雅黑" font-weight="bold" font-style="normal" text-decoration="none" family="微软雅黑" text-anchor="start" size="16">store</text></g></g><g id="ProcessOnG1009" transform="matrix(1.0,0.0,0.0,1.0,268.0,111.5)" opacity="1.0"><path id="ProcessOnPath1010" d="M0.0 0.0L100.0 0.0L100.0 20.0L0.0 20.0Z" stroke="none" stroke-width="0.0" stroke-dasharray="none" opacity="1.0" fill="none"/><g id="ProcessOnG1011" transform="matrix(1.0,0.0,0.0,1.0,0.0,1.875)"><text id="ProcessOnText1012" fill="#000000" font-size="13" x="0.0" y="13.325" font-family="微软雅黑" font-weight="normal" font-style="normal" text-decoration="none" family="微软雅黑" text-anchor="start" size="13">watcherHub</text></g></g><g id="ProcessOnG1013" transform="matrix(1.0,0.0,0.0,1.0,268.0,131.5)" opacity="1.0"><path id="ProcessOnPath1014" d="M0.0 0.0L100.0 0.0L100.0 32.0L0.0 32.0Z" stroke="#323232" stroke-width="2.0" stroke-dasharray="none" opacity="1.0" fill="#ffffff"/><g id="ProcessOnG1015" transform="matrix(1.0,0.0,0.0,1.0,10.0,7.875)"><text id="ProcessOnText1016" fill="#000000" font-size="13" x="39.0" y="13.325" font-family="微软雅黑" font-weight="normal" font-style="normal" text-decoration="none" family="微软雅黑" text-anchor="middle" size="13">count</text></g></g><g id="ProcessOnG1017" transform="matrix(1.0,0.0,0.0,1.0,268.0,163.5)" opacity="1.0"><path id="ProcessOnPath1018" d="M0.0 0.0L100.0 0.0L100.0 32.0L0.0 32.0Z" stroke="#323232" stroke-width="2.0" stroke-dasharray="none" opacity="1.0" fill="#ffffff"/><g id="ProcessOnG1019" transform="matrix(1.0,0.0,0.0,1.0,10.0,7.875)"><text id="ProcessOnText1020" fill="#000000" font-size="13" x="39.0" y="13.325" font-family="微软雅黑" font-weight="normal" font-style="normal" text-decoration="none" family="微软雅黑" text-anchor="middle" size="13">watchers</text></g></g><g id="ProcessOnG1021" transform="matrix(1.0,0.0,0.0,1.0,268.0,195.5)" opacity="1.0"><path id="ProcessOnPath1022" d="M0.0 0.0L100.0 0.0L100.0 32.0L0.0 32.0Z" stroke="#323232" stroke-width="2.0" stroke-dasharray="none" opacity="1.0" fill="#ffffff"/><g id="ProcessOnG1023" transform="matrix(1.0,0.0,0.0,1.0,10.0,7.875)"><text id="ProcessOnText1024" fill="#000000" font-size="13" x="39.0" y="13.325" font-family="微软雅黑" font-weight="normal" font-style="normal" text-decoration="none" family="微软雅黑" text-anchor="middle" size="13">EventHistory</text></g></g><g id="ProcessOnG1025" transform="matrix(1.0,0.0,0.0,1.0,550.0,105.16883865784132)" opacity="1.0"><path id="ProcessOnPath1026" d="M0.0 4.0Q0.0 0.0 4.0 0.0L96.0 0.0Q100.0 0.0 100.0 4.0L100.0 28.0Q100.0 32.0 96.0 32.0L4.0 32.0Q0.0 32.0 0.0 28.0Z" stroke="#323232" stroke-width="2.0" stroke-dasharray="none" opacity="1.0" fill="#ffffff"/><g id="ProcessOnG1027" transform="matrix(1.0,0.0,0.0,1.0,10.0,7.875)"><text id="ProcessOnText1028" fill="#000000" font-size="13" x="39.0" y="13.325" font-family="微软雅黑" font-weight="bold" font-style="italic" text-decoration="none" family="微软雅黑" text-anchor="middle" size="13">string</text></g></g><g id="ProcessOnG1029" transform="matrix(1.0,0.0,0.0,1.0,550.0,137.16883865784132)" opacity="1.0"><path id="ProcessOnPath1030" d="M0.0 4.0Q0.0 0.0 4.0 0.0L96.0 0.0Q100.0 0.0 100.0 4.0L100.0 28.0Q100.0 32.0 96.0 32.0L4.0 32.0Q0.0 32.0 0.0 28.0Z" stroke="#323232" stroke-width="2.0" stroke-dasharray="none" opacity="1.0" fill="#ffffff"/><g id="ProcessOnG1031" transform="matrix(1.0,0.0,0.0,1.0,10.0,7.875)"><text id="ProcessOnText1032" fill="#000000" font-size="13" x="39.0" y="13.325" font-family="微软雅黑" font-weight="bold" font-style="italic" text-decoration="none" family="微软雅黑" text-anchor="middle" size="13">string</text></g></g><g id="ProcessOnG1033"><path id="ProcessOnPath1034" d="M368.0 179.5C446.476123967972 179.5 486.1735787566263 62.37751244270213 550.4574561328669 107.38956796689445" stroke="#323232" stroke-width="2.0" stroke-dasharray="none" fill="none" marker-end="url(#ProcessOnMarker1035)"/><g id="ProcessOnG1037" transform="matrix(1.0,0.0,0.0,1.0,464.55082053833274,118.4402631618751)"><path id="ProcessOnPath1038" d="M0 0H27.0V16.25H0Z" fill="#fff" transform="matrix(1.0,0.0,0.0,1.0,-13.5,0.0)"/><text id="ProcessOnText1039" fill="#000000" font-size="13" x="0.0" y="13.325" font-family="微软雅黑" font-weight="normal" font-style="normal" text-decoration="none" family="微软雅黑" text-anchor="middle" size="13">map</text></g></g><g id="ProcessOnG1040" transform="matrix(1.0,0.0,0.0,1.0,748.0,105.16883865784132)" opacity="1.0"><path id="ProcessOnPath1041" d="M0.0 4.0Q0.0 0.0 4.0 0.0L96.0 0.0Q100.0 0.0 100.0 4.0L100.0 28.0Q100.0 32.0 96.0 32.0L4.0 32.0Q0.0 32.0 0.0 28.0Z" stroke="#323232" stroke-width="2.0" stroke-dasharray="none" opacity="1.0" fill="#ffffff"/><g id="ProcessOnG1042" transform="matrix(1.0,0.0,0.0,1.0,10.0,7.875)"><text id="ProcessOnText1043" fill="#000000" font-size="13" x="39.0" y="13.325" font-family="微软雅黑" font-weight="bold" font-style="italic" text-decoration="none" family="微软雅黑" text-anchor="middle" size="13">list.List</text></g></g><g id="ProcessOnG1044"><path id="ProcessOnPath1045" d="M650.0 121.16883865784132C689.2 121.16883865784132 708.8 121.16883865784132 748.0 121.16883865784132" stroke="#323232" stroke-width="2.0" stroke-dasharray="none" fill="none" marker-end="url(#ProcessOnMarker1046)"/></g><g id="ProcessOnG1048" transform="matrix(1.0,0.0,0.0,1.0,748.0,159.16883865784132)" opacity="1.0"><path id="ProcessOnPath1049" d="M0.0 4.0Q0.0 0.0 4.0 0.0L96.0 0.0Q100.0 0.0 100.0 4.0L100.0 28.0Q100.0 32.0 96.0 32.0L4.0 32.0Q0.0 32.0 0.0 28.0Z" stroke="#323232" stroke-width="2.0" stroke-dasharray="none" opacity="1.0" fill="#ffffff"/><g id="ProcessOnG1050" transform="matrix(1.0,0.0,0.0,1.0,10.0,7.875)"><text id="ProcessOnText1051" fill="#000000" font-size="13" x="39.0" y="13.325" font-family="微软雅黑" font-weight="bold" font-style="italic" text-decoration="none" family="微软雅黑" text-anchor="middle" size="13">list.List</text></g></g><g id="ProcessOnG1052"><path id="ProcessOnPath1053" d="M650.0 153.16883865784132C690.1756144943671 153.16883865784132 707.8243855056329 175.16883865784132 748.0 175.16883865784132" stroke="#323232" stroke-width="2.0" stroke-dasharray="none" fill="none" marker-end="url(#ProcessOnMarker1054)"/></g><g id="ProcessOnG1056" transform="matrix(1.0,0.0,0.0,1.0,436.0,343.5)" opacity="1.0"><path id="ProcessOnPath1057" d="M0.0 0.0L100.0 0.0L100.0 20.0L0.0 20.0Z" stroke="none" stroke-width="0.0" stroke-dasharray="none" opacity="1.0" fill="none"/><g id="ProcessOnG1058" transform="matrix(1.0,0.0,0.0,1.0,0.0,1.875)"><text id="ProcessOnText1059" fill="#000000" font-size="13" x="0.0" y="13.325" font-family="微软雅黑" font-weight="normal" font-style="normal" text-decoration="none" family="微软雅黑" text-anchor="start" size="13">EventHistory</text></g></g><g id="ProcessOnG1060" transform="matrix(1.0,0.0,0.0,1.0,436.0,363.5)" opacity="1.0"><path id="ProcessOnPath1061" d="M0.0 0.0L100.0 0.0L100.0 32.0L0.0 32.0Z" stroke="#323232" stroke-width="2.0" stroke-dasharray="none" opacity="1.0" fill="#ffffff"/><g id="ProcessOnG1062" transform="matrix(1.0,0.0,0.0,1.0,10.0,7.875)"><text id="ProcessOnText1063" fill="#000000" font-size="13" x="39.0" y="13.325" font-family="微软雅黑" font-weight="normal" font-style="normal" text-decoration="none" family="微软雅黑" text-anchor="middle" size="13">Queue</text></g></g><g id="ProcessOnG1064"><path id="ProcessOnPath1065" d="M368.0 211.5C435.10277826123604 211.5 398.8057333210699 309.3092301869936 437.29430574540413 364.276608177156" stroke="#323232" stroke-width="2.0" stroke-dasharray="none" fill="none" marker-end="url(#ProcessOnMarker1066)"/></g><g id="ProcessOnG1068" transform="matrix(1.0,0.0,0.0,1.0,436.0,395.5)" opacity="1.0"><path id="ProcessOnPath1069" d="M0.0 0.0L100.0 0.0L100.0 32.0L0.0 32.0Z" stroke="#323232" stroke-width="2.0" stroke-dasharray="none" opacity="1.0" fill="#ffffff"/><g id="ProcessOnG1070" transform="matrix(1.0,0.0,0.0,1.0,10.0,7.875)"><text id="ProcessOnText1071" fill="#000000" font-size="13" x="39.0" y="13.325" font-family="微软雅黑" font-weight="normal" font-style="normal" text-decoration="none" family="微软雅黑" text-anchor="middle" size="13">StartIndex</text></g></g><g id="ProcessOnG1072" transform="matrix(1.0,0.0,0.0,1.0,436.0,427.5)" opacity="1.0"><path id="ProcessOnPath1073" d="M0.0 0.0L100.0 0.0L100.0 32.0L0.0 32.0Z" stroke="#323232" stroke-width="2.0" stroke-dasharray="none" opacity="1.0" fill="#ffffff"/><g id="ProcessOnG1074" transform="matrix(1.0,0.0,0.0,1.0,10.0,7.875)"><text id="ProcessOnText1075" fill="#000000" font-size="13" x="39.0" y="13.325" font-family="微软雅黑" font-weight="normal" font-style="normal" text-decoration="none" family="微软雅黑" text-anchor="middle" size="13">LastIndex</text></g></g><g id="ProcessOnG1076" transform="matrix(1.0,0.0,0.0,1.0,881.0,259.5)" opacity="1.0"><path id="ProcessOnPath1077" d="M0.0 0.0L100.0 0.0L100.0 20.0L0.0 20.0Z" stroke="none" stroke-width="0.0" stroke-dasharray="none" opacity="1.0" fill="none"/><g id="ProcessOnG1078" transform="matrix(1.0,0.0,0.0,1.0,0.0,1.875)"><text id="ProcessOnText1079" fill="#000000" font-size="13" x="0.0" y="13.325" font-family="微软雅黑" font-weight="normal" font-style="normal" text-decoration="none" family="微软雅黑" text-anchor="start" size="13">eventQueue</text></g></g><g id="ProcessOnG1080" transform="matrix(1.0,0.0,0.0,1.0,881.0,279.5)" opacity="1.0"><path id="ProcessOnPath1081" d="M0.0 0.0L100.0 0.0L100.0 32.0L0.0 32.0Z" stroke="#323232" stroke-width="2.0" stroke-dasharray="none" opacity="1.0" fill="#ffffff"/><g id="ProcessOnG1082" transform="matrix(1.0,0.0,0.0,1.0,10.0,7.875)"><text id="ProcessOnText1083" fill="#000000" font-size="13" x="39.0" y="13.325" font-family="微软雅黑" font-weight="normal" font-style="normal" text-decoration="none" family="微软雅黑" text-anchor="middle" size="13">Events</text></g></g><g id="ProcessOnG1084"><path id="ProcessOnPath1085" d="M536.0 379.5C592.9898776438147 379.5 638.2243384311232 303.93948757563913 674.8567256581192 347.5962666587139" stroke="#323232" stroke-width="2.0" stroke-dasharray="none" fill="none" marker-end="url(#ProcessOnMarker1086)"/></g><g id="ProcessOnG1088" transform="matrix(1.0,0.0,0.0,1.0,1047.0,357.5)" opacity="1.0"><path id="ProcessOnPath1089" d="M0.0 0.0L100.0 0.0L100.0 20.0L0.0 20.0Z" stroke="none" stroke-width="0.0" stroke-dasharray="none" opacity="1.0" fill="none"/><g id="ProcessOnG1090" transform="matrix(1.0,0.0,0.0,1.0,0.0,1.875)"><text id="ProcessOnText1091" fill="#000000" font-size="13" x="0.0" y="13.325" font-family="微软雅黑" font-weight="normal" font-style="normal" text-decoration="none" family="微软雅黑" text-anchor="start" size="13">Event</text></g></g><g id="ProcessOnG1092" transform="matrix(1.0,0.0,0.0,1.0,1047.0,377.5)" opacity="1.0"><path id="ProcessOnPath1093" d="M0.0 0.0L100.0 0.0L100.0 32.0L0.0 32.0Z" stroke="#323232" stroke-width="2.0" stroke-dasharray="none" opacity="1.0" fill="#ffffff"/><g id="ProcessOnG1094" transform="matrix(1.0,0.0,0.0,1.0,10.0,7.875)"><text id="ProcessOnText1095" fill="#000000" font-size="13" x="39.0" y="13.325" font-family="微软雅黑" font-weight="normal" font-style="normal" text-decoration="none" family="微软雅黑" text-anchor="middle" size="13">Action</text></g></g><g id="ProcessOnG1096"><path id="ProcessOnPath1097" d="M981.0 295.5C1024.6704485347148 295.5 1008.233748003678 363.3893074743035 1047.8126155740733 381.8452365234814" stroke="#323232" stroke-width="2.0" stroke-dasharray="none" fill="none" marker-end="url(#ProcessOnMarker1098)"/><g id="ProcessOnG1100" transform="matrix(1.0,0.0,0.0,1.0,1015.9406506486564,323.62664486829897)"><path id="ProcessOnPath1101" d="M0 0H26.0V16.25H0Z" fill="#fff" transform="matrix(1.0,0.0,0.0,1.0,-13.0,0.0)"/><text id="ProcessOnText1102" fill="#000000" font-size="13" x="0.0" y="13.325" font-family="微软雅黑" font-weight="normal" font-style="normal" text-decoration="none" family="微软雅黑" text-anchor="middle" size="13">slice</text></g></g><g id="ProcessOnG1103" transform="matrix(1.0,0.0,0.0,1.0,1047.0,409.5)" opacity="1.0"><path id="ProcessOnPath1104" d="M0.0 0.0L100.0 0.0L100.0 32.0L0.0 32.0Z" stroke="#323232" stroke-width="2.0" stroke-dasharray="none" opacity="1.0" fill="#ffffff"/><g id="ProcessOnG1105" transform="matrix(1.0,0.0,0.0,1.0,10.0,7.875)"><text id="ProcessOnText1106" fill="#000000" font-size="13" x="39.0" y="13.325" font-family="微软雅黑" font-weight="normal" font-style="normal" text-decoration="none" family="微软雅黑" text-anchor="middle" size="13">Node</text></g></g><g id="ProcessOnG1107" transform="matrix(1.0,0.0,0.0,1.0,1047.0,441.5)" opacity="1.0"><path id="ProcessOnPath1108" d="M0.0 0.0L100.0 0.0L100.0 32.0L0.0 32.0Z" stroke="#323232" stroke-width="2.0" stroke-dasharray="none" opacity="1.0" fill="#ffffff"/><g id="ProcessOnG1109" transform="matrix(1.0,0.0,0.0,1.0,10.0,7.875)"><text id="ProcessOnText1110" fill="#000000" font-size="13" x="39.0" y="13.325" font-family="微软雅黑" font-weight="normal" font-style="normal" text-decoration="none" family="微软雅黑" text-anchor="middle" size="13">PrevNode</text></g></g><g id="ProcessOnG1111" transform="matrix(1.0,0.0,0.0,1.0,1247.0,370.5)" opacity="1.0"><path id="ProcessOnPath1112" d="M0.0 4.0Q0.0 0.0 4.0 0.0L96.0 0.0Q100.0 0.0 100.0 4.0L100.0 28.0Q100.0 32.0 96.0 32.0L4.0 32.0Q0.0 32.0 0.0 28.0Z" stroke="#323232" stroke-width="2.0" stroke-dasharray="none" opacity="1.0" fill="#ffffff"/><g id="ProcessOnG1113" transform="matrix(1.0,0.0,0.0,1.0,10.0,7.875)"><text id="ProcessOnText1114" fill="#000000" font-size="13" x="39.0" y="13.325" font-family="微软雅黑" font-weight="bold" font-style="italic" text-decoration="none" family="微软雅黑" text-anchor="middle" size="13">NodeExtern</text></g></g><g id="ProcessOnG1115" transform="matrix(1.0,0.0,0.0,1.0,1247.0,435.5)" opacity="1.0"><path id="ProcessOnPath1116" d="M0.0 4.0Q0.0 0.0 4.0 0.0L96.0 0.0Q100.0 0.0 100.0 4.0L100.0 28.0Q100.0 32.0 96.0 32.0L4.0 32.0Q0.0 32.0 0.0 28.0Z" stroke="#323232" stroke-width="2.0" stroke-dasharray="none" opacity="1.0" fill="#ffffff"/><g id="ProcessOnG1117" transform="matrix(1.0,0.0,0.0,1.0,10.0,7.875)"><text id="ProcessOnText1118" fill="#000000" font-size="13" x="39.0" y="13.325" font-family="微软雅黑" font-weight="bold" font-style="italic" text-decoration="none" family="微软雅黑" text-anchor="middle" size="13">NodeExtern</text></g></g><g id="ProcessOnG1119"><path id="ProcessOnPath1120" d="M1147.0 425.5C1189.9343685175409 425.5 1204.0656314824591 386.5 1247.0 386.5" stroke="#323232" stroke-width="2.0" stroke-dasharray="none" fill="none" marker-end="url(#ProcessOnMarker1121)"/></g><g id="ProcessOnG1123"><path id="ProcessOnPath1124" d="M1147.0 457.5C1187.0719353163781 457.5 1206.9280646836219 451.5 1247.0 451.5" stroke="#323232" stroke-width="2.0" stroke-dasharray="none" fill="none" marker-end="url(#ProcessOnMarker1125)"/></g><g id="ProcessOnG1127" transform="matrix(1.0,0.0,0.0,1.0,268.0,227.5)" opacity="1.0"><path id="ProcessOnPath1128" d="M0.0 0.0L100.0 0.0L100.0 32.0L0.0 32.0Z" stroke="#323232" stroke-width="2.0" stroke-dasharray="none" opacity="1.0" fill="#ffffff"/><g id="ProcessOnG1129" transform="matrix(1.0,0.0,0.0,1.0,10.0,7.875)"><text id="ProcessOnText1130" fill="#000000" font-size="13" x="39.0" y="13.325" font-family="微软雅黑" font-weight="normal" font-style="normal" text-decoration="none" family="微软雅黑" text-anchor="middle" size="13">ttlKeyHeap</text></g></g><g id="ProcessOnG1131" transform="matrix(1.0,0.0,0.0,1.0,283.70569425459587,594.5)" opacity="1.0"><path id="ProcessOnPath1132" d="M0.0 0.0L100.0 0.0L100.0 20.0L0.0 20.0Z" stroke="none" stroke-width="0.0" stroke-dasharray="none" opacity="1.0" fill="none"/><g id="ProcessOnG1133" transform="matrix(1.0,0.0,0.0,1.0,0.0,1.875)"><text id="ProcessOnText1134" fill="#000000" font-size="13" x="0.0" y="13.325" font-family="微软雅黑" font-weight="normal" font-style="normal" text-decoration="none" family="微软雅黑" text-anchor="start" size="13">ttlKeyHeap</text></g></g><g id="ProcessOnG1135" transform="matrix(1.0,0.0,0.0,1.0,283.70569425459587,614.5)" opacity="1.0"><path id="ProcessOnPath1136" d="M0.0 0.0L100.0 0.0L100.0 32.0L0.0 32.0Z" stroke="#323232" stroke-width="2.0" stroke-dasharray="none" opacity="1.0" fill="#ffffff"/><g id="ProcessOnG1137" transform="matrix(1.0,0.0,0.0,1.0,10.0,7.875)"><text id="ProcessOnText1138" fill="#000000" font-size="13" x="39.0" y="13.325" font-family="微软雅黑" font-weight="normal" font-style="normal" text-decoration="none" family="微软雅黑" text-anchor="middle" size="13">array</text></g></g><g id="ProcessOnG1139"><path id="ProcessOnPath1140" d="M268.0 243.5C118.43101111533068 243.5 144.0892805713821 565.8965138445441 284.63815572471543 617.052120859954" stroke="#323232" stroke-width="2.0" stroke-dasharray="none" fill="none" marker-end="url(#ProcessOnMarker1141)"/></g><g id="ProcessOnG1143" transform="matrix(1.0,0.0,0.0,1.0,283.70569425459587,646.5)" opacity="1.0"><path id="ProcessOnPath1144" d="M0.0 0.0L100.0 0.0L100.0 32.0L0.0 32.0Z" stroke="#323232" stroke-width="2.0" stroke-dasharray="none" opacity="1.0" fill="#ffffff"/><g id="ProcessOnG1145" transform="matrix(1.0,0.0,0.0,1.0,10.0,7.875)"><text id="ProcessOnText1146" fill="#000000" font-size="13" x="39.0" y="13.325" font-family="微软雅黑" font-weight="normal" font-style="normal" text-decoration="none" family="微软雅黑" text-anchor="middle" size="13">keyMap</text></g></g><g id="ProcessOnG1147" transform="matrix(1.0,0.0,0.0,1.0,183.70569425459587,701.5)" opacity="1.0"><path id="ProcessOnPath1148" d="M0.0 4.0Q0.0 0.0 4.0 0.0L96.0 0.0Q100.0 0.0 100.0 4.0L100.0 28.0Q100.0 32.0 96.0 32.0L4.0 32.0Q0.0 32.0 0.0 28.0Z" stroke="#323232" stroke-width="2.0" stroke-dasharray="none" opacity="1.0" fill="#ffffff"/><g id="ProcessOnG1149" transform="matrix(1.0,0.0,0.0,1.0,10.0,7.875)"><text id="ProcessOnText1150" fill="#000000" font-size="13" x="39.0" y="13.325" font-family="微软雅黑" font-weight="bold" font-style="italic" text-decoration="none" family="微软雅黑" text-anchor="middle" size="13">node</text></g></g><g id="ProcessOnG1151" transform="matrix(1.0,0.0,0.0,1.0,183.70569425459587,733.5)" opacity="1.0"><path id="ProcessOnPath1152" d="M0.0 4.0Q0.0 0.0 4.0 0.0L96.0 0.0Q100.0 0.0 100.0 4.0L100.0 28.0Q100.0 32.0 96.0 32.0L4.0 32.0Q0.0 32.0 0.0 28.0Z" stroke="#323232" stroke-width="2.0" stroke-dasharray="none" opacity="1.0" fill="#ffffff"/><g id="ProcessOnG1153" transform="matrix(1.0,0.0,0.0,1.0,10.0,7.875)"><text id="ProcessOnText1154" fill="#000000" font-size="13" x="39.0" y="13.325" font-family="微软雅黑" font-weight="bold" font-style="italic" text-decoration="none" family="微软雅黑" text-anchor="middle" size="13">node</text></g></g><g id="ProcessOnG1155" transform="matrix(1.0,0.0,0.0,1.0,456.0,705.5)" opacity="1.0"><path id="ProcessOnPath1156" d="M0.0 4.0Q0.0 0.0 4.0 0.0L96.0 0.0Q100.0 0.0 100.0 4.0L100.0 28.0Q100.0 32.0 96.0 32.0L4.0 32.0Q0.0 32.0 0.0 28.0Z" stroke="#323232" stroke-width="2.0" stroke-dasharray="none" opacity="1.0" fill="#ffffff"/><g id="ProcessOnG1157" transform="matrix(1.0,0.0,0.0,1.0,10.0,7.875)"><text id="ProcessOnText1158" fill="#000000" font-size="13" x="39.0" y="13.325" font-family="微软雅黑" font-weight="bold" font-style="italic" text-decoration="none" family="微软雅黑" text-anchor="middle" size="13">*node</text></g></g><g id="ProcessOnG1159" transform="matrix(1.0,0.0,0.0,1.0,456.0,737.5)" opacity="1.0"><path id="ProcessOnPath1160" d="M0.0 4.0Q0.0 0.0 4.0 0.0L96.0 0.0Q100.0 0.0 100.0 4.0L100.0 28.0Q100.0 32.0 96.0 32.0L4.0 32.0Q0.0 32.0 0.0 28.0Z" stroke="#323232" stroke-width="2.0" stroke-dasharray="none" opacity="1.0" fill="#ffffff"/><g id="ProcessOnG1161" transform="matrix(1.0,0.0,0.0,1.0,10.0,7.875)"><text id="ProcessOnText1162" fill="#000000" font-size="13" x="39.0" y="13.325" font-family="微软雅黑" font-weight="bold" font-style="italic" text-decoration="none" family="微软雅黑" text-anchor="middle" size="13">*node</text></g></g><g id="ProcessOnG1163"><path id="ProcessOnPath1164" d="M283.70569425459587 630.5C235.8606403157599 630.5 179.43937689374258 654.7906664558202 187.74758332059747 701.9088465180732" stroke="#323232" stroke-width="2.0" stroke-dasharray="none" fill="none" marker-end="url(#ProcessOnMarker1165)"/><g id="ProcessOnG1167" transform="matrix(1.0,0.0,0.0,1.0,214.6691661504626,640.4101057356917)"><path id="ProcessOnPath1168" d="M0 0H26.0V16.25H0Z" fill="#fff" transform="matrix(1.0,0.0,0.0,1.0,-13.0,0.0)"/><text id="ProcessOnText1169" fill="#000000" font-size="13" x="0.0" y="13.325" font-family="微软雅黑" font-weight="normal" font-style="normal" text-decoration="none" family="微软雅黑" text-anchor="middle" size="13">slice</text></g></g><g id="ProcessOnG1170"><path id="ProcessOnPath1171" d="M383.70569425459587 662.5C417.9557749310354 662.5 437.6492665262761 678.2205845739876 457.29430574540413 706.2766081771559" stroke="#323232" stroke-width="2.0" stroke-dasharray="none" fill="none" marker-end="url(#ProcessOnMarker1172)"/><g id="ProcessOnG1174" transform="matrix(1.0,0.0,0.0,1.0,425.9768905464918,665.7422952373898)"><path id="ProcessOnPath1175" d="M0 0H27.0V16.25H0Z" fill="#fff" transform="matrix(1.0,0.0,0.0,1.0,-13.5,0.0)"/><text id="ProcessOnText1176" fill="#000000" font-size="13" x="0.0" y="13.325" font-family="微软雅黑" font-weight="normal" font-style="normal" text-decoration="none" family="微软雅黑" text-anchor="middle" size="13">map</text></g></g><g id="ProcessOnG1177" transform="matrix(1.0,0.0,0.0,1.0,634.0,730.5)" opacity="1.0"><path id="ProcessOnPath1178" d="M0.0 4.0Q0.0 0.0 4.0 0.0L96.0 0.0Q100.0 0.0 100.0 4.0L100.0 28.0Q100.0 32.0 96.0 32.0L4.0 32.0Q0.0 32.0 0.0 28.0Z" stroke="#323232" stroke-width="2.0" stroke-dasharray="none" opacity="1.0" fill="#ffffff"/><g id="ProcessOnG1179" transform="matrix(1.0,0.0,0.0,1.0,10.0,7.875)"><text id="ProcessOnText1180" fill="#000000" font-size="13" x="39.0" y="13.325" font-family="微软雅黑" font-weight="bold" font-style="italic" text-decoration="none" family="微软雅黑" text-anchor="middle" size="13">int</text></g></g><g id="ProcessOnG1181" transform="matrix(1.0,0.0,0.0,1.0,634.0,807.5)" opacity="1.0"><path id="ProcessOnPath1182" d="M0.0 4.0Q0.0 0.0 4.0 0.0L96.0 0.0Q100.0 0.0 100.0 4.0L100.0 28.0Q100.0 32.0 96.0 32.0L4.0 32.0Q0.0 32.0 0.0 28.0Z" stroke="#323232" stroke-width="2.0" stroke-dasharray="none" opacity="1.0" fill="#ffffff"/><g id="ProcessOnG1183" transform="matrix(1.0,0.0,0.0,1.0,10.0,7.875)"><text id="ProcessOnText1184" fill="#000000" font-size="13" x="39.0" y="13.325" font-family="微软雅黑" font-weight="bold" font-style="italic" text-decoration="none" family="微软雅黑" text-anchor="middle" size="13">int</text></g></g><g id="ProcessOnG1185"><path id="ProcessOnPath1186" d="M556.0 721.5C588.7633942075604 721.5 601.2366057924396 746.5 634.0 746.5" stroke="#323232" stroke-width="2.0" stroke-dasharray="none" fill="none" marker-end="url(#ProcessOnMarker1187)"/></g><g id="ProcessOnG1189"><path id="ProcessOnPath1190" d="M556.0 753.5C597.9218320210365 753.5 592.0781679789635 823.5 634.0 823.5" stroke="#323232" stroke-width="2.0" stroke-dasharray="none" fill="none" marker-end="url(#ProcessOnMarker1191)"/></g><g id="ProcessOnG1193" transform="matrix(1.0,0.0,0.0,1.0,673.0,346.1688386578413)" opacity="1.0"><path id="ProcessOnPath1194" d="M0.0 4.0Q0.0 0.0 4.0 0.0L38.0 0.0Q42.0 0.0 42.0 4.0L42.0 28.0Q42.0 32.0 38.0 32.0L4.0 32.0Q0.0 32.0 0.0 28.0Z" stroke="#323232" stroke-width="2.0" stroke-dasharray="none" opacity="1.0" fill="#ffffff"/></g><g id="ProcessOnG1195" transform="matrix(1.0,0.0,0.0,1.0,715.0,346.1688386578413)" opacity="1.0"><path id="ProcessOnPath1196" d="M0.0 4.0Q0.0 0.0 4.0 0.0L38.0 0.0Q42.0 0.0 42.0 4.0L42.0 28.0Q42.0 32.0 38.0 32.0L4.0 32.0Q0.0 32.0 0.0 28.0Z" stroke="#323232" stroke-width="2.0" stroke-dasharray="none" opacity="1.0" fill="#ffffff"/></g><g id="ProcessOnG1197" transform="matrix(1.0,0.0,0.0,1.0,757.0,346.1688386578413)" opacity="1.0"><path id="ProcessOnPath1198" d="M0.0 4.0Q0.0 0.0 4.0 0.0L38.0 0.0Q42.0 0.0 42.0 4.0L42.0 28.0Q42.0 32.0 38.0 32.0L4.0 32.0Q0.0 32.0 0.0 28.0Z" stroke="#323232" stroke-width="2.0" stroke-dasharray="none" opacity="1.0" fill="#ffffff"/></g><g id="ProcessOnG1199"><path id="ProcessOnPath1200" d="M778.0 346.1688386578413C778.0 300.2535580450704 835.0847193872291 295.5 881.0 295.5" stroke="#323232" stroke-width="2.0" stroke-dasharray="10.0 4.0" fill="none" marker-end="url(#ProcessOnMarker1201)"/><g id="ProcessOnG1203" transform="matrix(1.0,0.0,0.0,1.0,812.281769770211,295.4911890991316)"><path id="ProcessOnPath1204" d="M0 0H44.0V16.25H0Z" fill="#fff" transform="matrix(1.0,0.0,0.0,1.0,-22.0,0.0)"/><text id="ProcessOnText1205" fill="#000000" font-size="13" x="0.0" y="13.325" font-family="微软雅黑" font-weight="normal" font-style="normal" text-decoration="none" family="微软雅黑" text-anchor="middle" size="13">type of</text></g></g><g id="ProcessOnG1206" transform="matrix(1.0,0.0,0.0,1.0,634.0,437.5)" opacity="1.0"><path id="ProcessOnPath1207" d="M0.0 0.0L390.0 0.0L390.0 28.0L0.0 28.0Z" stroke="none" stroke-width="0.0" stroke-dasharray="none" opacity="1.0" fill="none"/><g id="ProcessOnG1208" transform="matrix(1.0,0.0,0.0,1.0,0.0,5.875)"><text id="ProcessOnText1209" fill="#66ffff" font-size="13" x="0.0" y="13.325" font-family="微软雅黑" font-weight="bold" font-style="italic" text-decoration="none" family="微软雅黑" text-anchor="start" size="13">eh.StartIndex = eh.Queue.Events[eh.Queue.Front].Index()</text></g></g><g id="ProcessOnG1210" transform="matrix(1.0,0.0,0.0,1.0,634.0,473.5)" opacity="1.0"><path id="ProcessOnPath1211" d="M0.0 0.0L232.0 0.0L232.0 27.5L0.0 27.5Z" stroke="none" stroke-width="0.0" stroke-dasharray="none" opacity="1.0" fill="none"/><g id="ProcessOnG1212" transform="matrix(1.0,0.0,0.0,1.0,0.0,5.625)"><text id="ProcessOnText1213" fill="#ffb366" font-size="13" x="0.0" y="13.325" font-family="微软雅黑" font-weight="bold" font-style="italic" text-decoration="none" family="微软雅黑" text-anchor="start" size="13">eh.LastIndex = e.Index()</text></g></g><g id="ProcessOnG1214"><path id="ProcessOnPath1215" d="M536.0 411.5C574.9281389228922 411.5 590.6 432.2 627.0 446.0" stroke="#66ffff" stroke-width="2.0" stroke-dasharray="10.0 4.0" fill="none" marker-end="url(#ProcessOnMarker1216)"/></g><g id="ProcessOnG1218"><path id="ProcessOnPath1219" d="M536.0 443.5C576.900366746522 443.5 591.8 469.0 629.0 486.0" stroke="#ffb366" stroke-width="2.0" stroke-dasharray="10.0 4.0" fill="none" marker-end="url(#ProcessOnMarker1220)"/></g></g></g></svg>