<svg xmlns="http://www.w3.org/2000/svg" xmlns:xlink="http://www.w3.org/1999/xlink" id="processonSvg1000" viewBox="46.75 36.0 945.5 546.0" width="945.5" height="546.0"><defs id="ProcessOnDefs1001"><marker id="ProcessOnMarker1035" markerUnits="userSpaceOnUse" orient="auto" markerWidth="16.23606797749979" markerHeight="10.550836550532098" viewBox="-1.0 -1.3763819204711736 16.23606797749979 10.550836550532098" refX="-1.0" refY="3.8990363547948754"><path id="ProcessOnPath1036" d="M12.0 3.8990363547948754L0.0 7.798072709589751V0.0Z" stroke="#323232" stroke-width="2.0" fill="#fff" transform="matrix(1.0,0.0,0.0,1.0,0.0,0.0)"/></marker><marker id="ProcessOnMarker1051" markerUnits="userSpaceOnUse" orient="auto" markerWidth="14.289086868996552" markerHeight="19.055054660878554" viewBox="-0.5877852522924731 -0.8090169943749475 14.289086868996552 19.055054660878554" refX="12.0" refY="8.71851033606433"><path id="ProcessOnPath1052" d="M0 0L12.0 8.71851033606433L0 17.43702067212866" stroke="#323232" stroke-width="2.0" fill="none" transform="matrix(1.0,0.0,0.0,1.0,0.0,0.0)"/></marker><marker id="ProcessOnMarker1059" markerUnits="userSpaceOnUse" orient="auto" markerWidth="14.289086868996552" markerHeight="19.055054660878554" viewBox="-0.5877852522924731 -0.8090169943749475 14.289086868996552 19.055054660878554" refX="12.0" refY="8.71851033606433"><path id="ProcessOnPath1060" d="M0 0L12.0 8.71851033606433L0 17.43702067212866" stroke="#323232" stroke-width="2.0" fill="none" transform="matrix(1.0,0.0,0.0,1.0,0.0,0.0)"/></marker><marker id="ProcessOnMarker1071" markerUnits="userSpaceOnUse" orient="auto" markerWidth="14.289086868996552" markerHeight="19.055054660878554" viewBox="-0.5877852522924731 -0.8090169943749475 14.289086868996552 19.055054660878554" refX="12.0" refY="8.71851033606433"><path id="ProcessOnPath1072" d="M0 0L12.0 8.71851033606433L0 17.43702067212866" stroke="#323232" stroke-width="2.0" fill="none" transform="matrix(1.0,0.0,0.0,1.0,0.0,0.0)"/></marker><marker id="ProcessOnMarker1079" markerUnits="userSpaceOnUse" orient="auto" markerWidth="14.289086868996552" markerHeight="19.055054660878554" viewBox="-0.5877852522924731 -0.8090169943749475 14.289086868996552 19.055054660878554" refX="12.0" refY="8.71851033606433"><path id="ProcessOnPath1080" d="M0 0L12.0 8.71851033606433L0 17.43702067212866" stroke="#323232" stroke-width="2.0" fill="none" transform="matrix(1.0,0.0,0.0,1.0,0.0,0.0)"/></marker><marker id="ProcessOnMarker1094" markerUnits="userSpaceOnUse" orient="auto" markerWidth="14.289086868996552" markerHeight="19.055054660878554" viewBox="-0.5877852522924731 -0.8090169943749475 14.289086868996552 19.055054660878554" refX="12.0" refY="8.71851033606433"><path id="ProcessOnPath1095" d="M0 0L12.0 8.71851033606433L0 17.43702067212866" stroke="#323232" stroke-width="2.0" fill="none" transform="matrix(1.0,0.0,0.0,1.0,0.0,0.0)"/></marker><marker id="ProcessOnMarker1098" markerUnits="userSpaceOnUse" orient="auto" markerWidth="14.289086868996552" markerHeight="19.055054660878554" viewBox="-0.5877852522924731 -0.8090169943749475 14.289086868996552 19.055054660878554" refX="12.0" refY="8.71851033606433"><path id="ProcessOnPath1099" d="M0 0L12.0 8.71851033606433L0 17.43702067212866" stroke="#323232" stroke-width="2.0" fill="none" transform="matrix(1.0,0.0,0.0,1.0,0.0,0.0)"/></marker><marker id="ProcessOnMarker1102" markerUnits="userSpaceOnUse" orient="auto" markerWidth="16.23606797749979" markerHeight="10.550836550532098" viewBox="-1.0 -1.3763819204711736 16.23606797749979 10.550836550532098" refX="-1.0" refY="3.8990363547948754"><path id="ProcessOnPath1103" d="M12.0 3.8990363547948754L0.0 7.798072709589751V0.0Z" stroke="#323232" stroke-width="2.0" fill="#fff" transform="matrix(1.0,0.0,0.0,1.0,0.0,0.0)"/></marker><marker id="ProcessOnMarker1106" markerUnits="userSpaceOnUse" orient="auto" markerWidth="14.289086868996552" markerHeight="19.055054660878554" viewBox="-0.5877852522924731 -0.8090169943749475 14.289086868996552 19.055054660878554" refX="12.0" refY="8.71851033606433"><path id="ProcessOnPath1107" d="M0 0L12.0 8.71851033606433L0 17.43702067212866" stroke="#323232" stroke-width="2.0" fill="none" transform="matrix(1.0,0.0,0.0,1.0,0.0,0.0)"/></marker></defs><g id="ProcessOnG1002"><path id="ProcessOnPath1003" d="M46.75 36.0H992.25V582.0H46.75V36.0Z" fill="none"/><g id="ProcessOnG1004"><g id="ProcessOnG1005" transform="matrix(1.0,0.0,0.0,1.0,778.0,62.625)" opacity="1.0"><path id="ProcessOnPath1006" d="M0.0 0.0L194.25 0.0L194.25 31.75L0.0 31.75Z" stroke="none" stroke-width="0.0" stroke-dasharray="none" opacity="1.0" fill="none"/><g id="ProcessOnG1007" transform="matrix(1.0,0.0,0.0,1.0,0.0,5.875)"><text id="ProcessOnText1008" fill="#000000" font-size="16" x="0.0" y="16.4" font-family="微软雅黑" font-weight="bold" font-style="normal" text-decoration="none" family="微软雅黑" text-anchor="start" size="16">etcdserver</text></g></g><g id="ProcessOnG1009" transform="matrix(1.0,0.0,0.0,1.0,91.0,296.75)" opacity="1.0"><path id="ProcessOnPath1010" d="M0.0 4.0Q0.0 0.0 4.0 0.0L143.5 0.0Q147.5 0.0 147.5 4.0L147.5 27.5Q147.5 31.5 143.5 31.5L4.0 31.5Q0.0 31.5 0.0 27.5Z" stroke="#323232" stroke-width="2.0" stroke-dasharray="none" opacity="1.0" fill="#66ffff"/><g id="ProcessOnG1011" transform="matrix(1.0,0.0,0.0,1.0,10.0,7.625)"><text id="ProcessOnText1012" fill="#000000" font-size="13" x="62.75" y="13.325" font-family="微软雅黑" font-weight="bold" font-style="italic" text-decoration="none" family="微软雅黑" text-anchor="middle" size="13">grpc.Server</text></g></g><g id="ProcessOnG1013" transform="matrix(1.0,0.0,0.0,1.0,294.0,62.75)" opacity="1.0"><path id="ProcessOnPath1014" d="M0.0 0.0L219.5 0.0L219.5 31.5L0.0 31.5Z" stroke="none" stroke-width="0.0" stroke-dasharray="none" opacity="1.0" fill="none"/><g id="ProcessOnG1015" transform="matrix(1.0,0.0,0.0,1.0,0.0,5.75)"><text id="ProcessOnText1016" fill="#000000" font-size="16" x="0.0" y="16.4" font-family="微软雅黑" font-weight="bold" font-style="normal" text-decoration="none" family="微软雅黑" text-anchor="start" size="16">etcdserver/api/v3rpc</text></g></g><g id="ProcessOnG1017" transform="matrix(1.0,0.0,0.0,1.0,311.75,170.25)" opacity="1.0"><path id="ProcessOnPath1018" d="M0.0 0.0L100.0 0.0L100.0 20.0L0.0 20.0Z" stroke="none" stroke-width="0.0" stroke-dasharray="none" opacity="1.0" fill="none"/><g id="ProcessOnG1019" transform="matrix(1.0,0.0,0.0,1.0,0.0,1.875)"><text id="ProcessOnText1020" fill="#000000" font-size="13" x="0.0" y="13.325" font-family="微软雅黑" font-weight="normal" font-style="normal" text-decoration="none" family="微软雅黑" text-anchor="start" size="13">watchServer</text></g></g><g id="ProcessOnG1021" transform="matrix(1.0,0.0,0.0,1.0,311.75,190.25)" opacity="1.0"><path id="ProcessOnPath1022" d="M0.0 0.0L100.0 0.0L100.0 32.0L0.0 32.0Z" stroke="#323232" stroke-width="2.0" stroke-dasharray="none" opacity="1.0" fill="#ffffff"/><g id="ProcessOnG1023" transform="matrix(1.0,0.0,0.0,1.0,10.0,7.875)"><text id="ProcessOnText1024" fill="#000000" font-size="13" x="39.0" y="13.325" font-family="微软雅黑" font-weight="normal" font-style="normal" text-decoration="none" family="微软雅黑" text-anchor="middle" size="13">raftTimer</text></g></g><g id="ProcessOnG1025" transform="matrix(1.0,0.0,0.0,1.0,66.75,105.25)" opacity="1.0"><path id="ProcessOnPath1026" d="M0.0 0.0L120.25 0.0L120.25 31.75L0.0 31.75Z" stroke="#323232" stroke-width="2.0" stroke-dasharray="10.0 4.0" opacity="1.0" fill="#ffffff"/><g id="ProcessOnG1027" transform="matrix(1.0,0.0,0.0,1.0,10.0,7.75)"><text id="ProcessOnText1028" fill="#000000" font-size="13" x="49.125" y="13.325" font-family="微软雅黑" font-weight="normal" font-style="normal" text-decoration="none" family="微软雅黑" text-anchor="middle" size="13">pb.WatchServer</text></g></g><g id="ProcessOnG1029" transform="matrix(1.0,0.0,0.0,1.0,311.75,222.25)" opacity="1.0"><path id="ProcessOnPath1030" d="M0.0 0.0L100.0 0.0L100.0 32.0L0.0 32.0Z" stroke="#323232" stroke-width="2.0" stroke-dasharray="none" opacity="1.0" fill="#ffffff"/><g id="ProcessOnG1031" transform="matrix(1.0,0.0,0.0,1.0,10.0,7.875)"><text id="ProcessOnText1032" fill="#000000" font-size="13" x="39.0" y="13.325" font-family="微软雅黑" font-weight="normal" font-style="normal" text-decoration="none" family="微软雅黑" text-anchor="middle" size="13">watchable</text></g></g><g id="ProcessOnG1033"><path id="ProcessOnPath1034" d="M312.3301270189222 192.5C262.3677035025484 163.65418133345554 244.691637333089 121.125 202.2360679774998 121.125" stroke="#323232" stroke-width="2.0" stroke-dasharray="10.0 4.0" fill="none" marker-end="url(#ProcessOnMarker1035)"/></g><g id="ProcessOnG1037"><path id="ProcessOnPath1038" d="M261.25 56.0C261.25 258.0 261.25 359.0 261.25 561.0" stroke="#323232" stroke-width="2.0" stroke-dasharray="10.0 4.0" fill="none"/></g><g id="ProcessOnG1039"><path id="ProcessOnPath1040" d="M763.25 57.0C763.25 259.0 763.25 360.0 763.25 562.0" stroke="#323232" stroke-width="2.0" stroke-dasharray="10.0 4.0" fill="none"/></g><g id="ProcessOnG1041" transform="matrix(1.0,0.0,0.0,1.0,789.0,200.25)" opacity="1.0"><path id="ProcessOnPath1042" d="M0.0 0.0L100.0 0.0L100.0 20.0L0.0 20.0Z" stroke="none" stroke-width="0.0" stroke-dasharray="none" opacity="1.0" fill="none"/><g id="ProcessOnG1043" transform="matrix(1.0,0.0,0.0,1.0,0.0,1.875)"><text id="ProcessOnText1044" fill="#000000" font-size="13" x="0.0" y="13.325" font-family="微软雅黑" font-weight="normal" font-style="normal" text-decoration="none" family="微软雅黑" text-anchor="start" size="13">Etcd</text></g></g><g id="ProcessOnG1045" transform="matrix(1.0,0.0,0.0,1.0,789.0,220.25)" opacity="1.0"><path id="ProcessOnPath1046" d="M0.0 0.0L100.0 0.0L100.0 32.0L0.0 32.0Z" stroke="#323232" stroke-width="2.0" stroke-dasharray="none" opacity="1.0" fill="#ffffff"/><g id="ProcessOnG1047" transform="matrix(1.0,0.0,0.0,1.0,10.0,7.875)"><text id="ProcessOnText1048" fill="#000000" font-size="13" x="39.0" y="13.325" font-family="微软雅黑" font-weight="normal" font-style="normal" text-decoration="none" family="微软雅黑" text-anchor="middle" size="13">kv</text></g></g><g id="ProcessOnG1049"><path id="ProcessOnPath1050" d="M411.75 206.25C562.9612448427536 206.24999999999997 652.3939180337269 158.38107611935246 789.4378467222199 222.2857095704442" stroke="#323232" stroke-width="2.0" stroke-dasharray="none" fill="none" marker-end="url(#ProcessOnMarker1051)"/></g><g id="ProcessOnG1053" transform="matrix(1.0,0.0,0.0,1.0,789.0,114.5)" opacity="1.0"><path id="ProcessOnPath1054" d="M0.0 0.0L100.0 0.0L100.0 32.0L0.0 32.0Z" stroke="#323232" stroke-width="2.0" stroke-dasharray="10.0 4.0" opacity="1.0" fill="#ffffff"/><g id="ProcessOnG1055" transform="matrix(1.0,0.0,0.0,1.0,10.0,7.875)"><text id="ProcessOnText1056" fill="#000000" font-size="13" x="39.0" y="13.325" font-family="微软雅黑" font-weight="normal" font-style="normal" text-decoration="none" family="微软雅黑" text-anchor="middle" size="13">RaftTimer</text></g></g><g id="ProcessOnG1057"><path id="ProcessOnPath1058" d="M411.75 206.25C565.6619878372052 206.24999999999997 635.0880121627948 130.5 789.0 130.5" stroke="#323232" stroke-width="2.0" stroke-dasharray="10.0 4.0" fill="none" marker-end="url(#ProcessOnMarker1059)"/></g><g id="ProcessOnG1061" transform="matrix(1.0,0.0,0.0,1.0,294.0,324.75)" opacity="1.0"><path id="ProcessOnPath1062" d="M0.0 0.0L219.5 0.0L219.5 31.5L0.0 31.5Z" stroke="none" stroke-width="0.0" stroke-dasharray="none" opacity="1.0" fill="none"/><g id="ProcessOnG1063" transform="matrix(1.0,0.0,0.0,1.0,0.0,5.75)"><text id="ProcessOnText1064" fill="#000000" font-size="16" x="0.0" y="16.4" font-family="微软雅黑" font-weight="bold" font-style="normal" text-decoration="none" family="微软雅黑" text-anchor="start" size="16">mvcc</text></g></g><g id="ProcessOnG1065" transform="matrix(1.0,0.0,0.0,1.0,304.625,394.5)" opacity="1.0"><path id="ProcessOnPath1066" d="M0.0 0.0L114.25 0.0L114.25 31.5L0.0 31.5Z" stroke="#323232" stroke-width="2.0" stroke-dasharray="10.0 4.0" opacity="1.0" fill="#ffffff"/><g id="ProcessOnG1067" transform="matrix(1.0,0.0,0.0,1.0,10.0,7.625)"><text id="ProcessOnText1068" fill="#000000" font-size="13" x="46.125" y="13.325" font-family="微软雅黑" font-weight="normal" font-style="normal" text-decoration="none" family="微软雅黑" text-anchor="middle" size="13">WatchableKV</text></g></g><g id="ProcessOnG1069"><path id="ProcessOnPath1070" d="M411.75 238.25C480.60900449469193 238.25 487.73400449469193 410.25 418.875 410.25" stroke="#323232" stroke-width="2.0" stroke-dasharray="10.0 4.0" fill="none" marker-end="url(#ProcessOnMarker1071)"/></g><g id="ProcessOnG1073" transform="matrix(1.0,0.0,0.0,1.0,271.5625,489.5)" opacity="1.0"><path id="ProcessOnPath1074" d="M0.0 0.0L180.375 0.0L180.375 32.5L0.0 32.5Z" stroke="#323232" stroke-width="2.0" stroke-dasharray="10.0 4.0" opacity="1.0" fill="#ffffff"/><g id="ProcessOnG1075" transform="matrix(1.0,0.0,0.0,1.0,10.0,8.125)"><text id="ProcessOnText1076" fill="#000000" font-size="13" x="79.1875" y="13.325" font-family="微软雅黑" font-weight="normal" font-style="normal" text-decoration="none" family="微软雅黑" text-anchor="middle" size="13">ConsistentWatchableKV</text></g></g><g id="ProcessOnG1077"><path id="ProcessOnPath1078" d="M361.75 489.5C361.75 464.1 361.75 451.4 361.75 426.0" stroke="#323232" stroke-width="2.0" stroke-dasharray="10.0 4.0" fill="none" marker-end="url(#ProcessOnMarker1079)"/><g id="ProcessOnG1081" transform="matrix(1.0,0.0,0.0,1.0,361.75,449.625)"><path id="ProcessOnPath1082" d="M0 0H52.0V16.25H0Z" fill="#fff" transform="matrix(1.0,0.0,0.0,1.0,-26.0,0.0)"/><text id="ProcessOnText1083" fill="#000000" font-size="13" x="0.0" y="13.325" font-family="微软雅黑" font-weight="normal" font-style="normal" text-decoration="none" family="微软雅黑" text-anchor="middle" size="13">contains</text></g></g><g id="ProcessOnG1084" transform="matrix(1.0,0.0,0.0,1.0,522.75,374.0)" opacity="1.0"><path id="ProcessOnPath1085" d="M0.0 0.0L100.0 0.0L100.0 20.0L0.0 20.0Z" stroke="none" stroke-width="0.0" stroke-dasharray="none" opacity="1.0" fill="none"/><g id="ProcessOnG1086" transform="matrix(1.0,0.0,0.0,1.0,0.0,1.875)"><text id="ProcessOnText1087" fill="#000000" font-size="13" x="0.0" y="13.325" font-family="微软雅黑" font-weight="normal" font-style="normal" text-decoration="none" family="微软雅黑" text-anchor="start" size="13">watchableStore</text></g></g><g id="ProcessOnG1088" transform="matrix(1.0,0.0,0.0,1.0,522.75,394.0)" opacity="1.0"><path id="ProcessOnPath1089" d="M0.0 0.0L100.0 0.0L100.0 32.0L0.0 32.0Z" stroke="#323232" stroke-width="2.0" stroke-dasharray="none" opacity="1.0" fill="#ffffff"/><g id="ProcessOnG1090" transform="matrix(1.0,0.0,0.0,1.0,10.0,7.875)"><text id="ProcessOnText1091" fill="#000000" font-size="13" x="39.0" y="13.325" font-family="微软雅黑" font-weight="normal" font-style="normal" text-decoration="none" family="微软雅黑" text-anchor="middle" size="13">raftTimer</text></g></g><g id="ProcessOnG1092"><path id="ProcessOnPath1093" d="M789.0 236.25C696.4357653289048 236.25 702.6988770918949 350.71788266445236 622.5358983848622 397.0" stroke="#323232" stroke-width="2.0" stroke-dasharray="none" fill="none" marker-end="url(#ProcessOnMarker1094)"/></g><g id="ProcessOnG1096"><path id="ProcessOnPath1097" d="M411.75 238.25C488.8760653689102 238.25 456.5369951155067 356.93696731554496 523.3301270189222 395.5" stroke="#323232" stroke-width="2.0" stroke-dasharray="none" fill="none" marker-end="url(#ProcessOnMarker1098)"/></g><g id="ProcessOnG1100"><path id="ProcessOnPath1101" d="M622.0502525316941 425.0502525316942C675.3049596027937 478.3049596027937 527.2510290001553 505.75 467.1735679774998 505.75" stroke="#323232" stroke-width="2.0" stroke-dasharray="10.0 4.0" fill="none" marker-end="url(#ProcessOnMarker1102)"/></g><g id="ProcessOnG1104"><path id="ProcessOnPath1105" d="M164.75 296.75C164.75 224.8216561701563 242.35218418399938 174.67766995966667 311.82962913144536 193.2940952255126" stroke="#323232" stroke-width="2.0" stroke-dasharray="10.0 4.0" fill="none" marker-end="url(#ProcessOnMarker1106)"/></g></g></g></svg>