<svg xmlns="http://www.w3.org/2000/svg" xmlns:xlink="http://www.w3.org/1999/xlink" id="processonSvg1000" viewBox="104.5 22.0 769.5 456.0" width="769.5" height="456.0"><defs id="ProcessOnDefs1001"><marker id="ProcessOnMarker1041" markerUnits="userSpaceOnUse" orient="auto" markerWidth="14.289086868996552" markerHeight="19.055054660878554" viewBox="-0.5877852522924731 -0.8090169943749475 14.289086868996552 19.055054660878554" refX="12.0" refY="8.71851033606433"><path id="ProcessOnPath1042" d="M0 0L12.0 8.71851033606433L0 17.43702067212866" stroke="#66ffff" stroke-width="2.0" fill="none" transform="matrix(1.0,0.0,0.0,1.0,0.0,0.0)"/></marker><marker id="ProcessOnMarker1048" markerUnits="userSpaceOnUse" orient="auto" markerWidth="14.289086868996552" markerHeight="19.055054660878554" viewBox="-0.5877852522924731 -0.8090169943749475 14.289086868996552 19.055054660878554" refX="12.0" refY="8.71851033606433"><path id="ProcessOnPath1049" d="M0 0L12.0 8.71851033606433L0 17.43702067212866" stroke="#66ffff" stroke-width="2.0" fill="none" transform="matrix(1.0,0.0,0.0,1.0,0.0,0.0)"/></marker><marker id="ProcessOnMarker1055" markerUnits="userSpaceOnUse" orient="auto" markerWidth="14.289086868996552" markerHeight="19.055054660878554" viewBox="-0.5877852522924731 -0.8090169943749475 14.289086868996552 19.055054660878554" refX="12.0" refY="8.71851033606433"><path id="ProcessOnPath1056" d="M0 0L12.0 8.71851033606433L0 17.43702067212866" stroke="#66ffff" stroke-width="2.0" fill="none" transform="matrix(1.0,0.0,0.0,1.0,0.0,0.0)"/></marker></defs><g id="ProcessOnG1002"><path id="ProcessOnPath1003" d="M104.5 22.0H874.0V478.0H104.5V22.0Z" fill="none"/><g id="ProcessOnG1004"><g id="ProcessOnG1005" transform="matrix(1.0,0.0,0.0,1.0,311.0,140.5)" opacity="1.0"><path id="ProcessOnPath1006" d="M0.0 24.0C0.0 -8.0 48.0 -8.0 48.0 24.0C48.0 56.0 0.0 56.0 0.0 24.0Z" stroke="#ffb366" stroke-width="2.0" stroke-dasharray="none" opacity="1.0" fill="#ffb366"/><g id="ProcessOnG1007" transform="matrix(1.0,0.0,0.0,1.0,10.0,15.875)"><text id="ProcessOnText1008" fill="#000000" font-size="13" x="13.0" y="13.325" font-family="微软雅黑" font-weight="normal" font-style="normal" text-decoration="none" family="微软雅黑" text-anchor="middle" size="13">S1</text></g></g><g id="ProcessOnG1009" transform="matrix(1.0,0.0,0.0,1.0,561.0,136.5)" opacity="1.0"><path id="ProcessOnPath1010" d="M0.0 24.0C0.0 -8.0 48.0 -8.0 48.0 24.0C48.0 56.0 0.0 56.0 0.0 24.0Z" stroke="#ffb366" stroke-width="2.0" stroke-dasharray="none" opacity="1.0" fill="#ffb366"/><g id="ProcessOnG1011" transform="matrix(1.0,0.0,0.0,1.0,10.0,15.875)"><text id="ProcessOnText1012" fill="#000000" font-size="13" x="13.0" y="13.325" font-family="微软雅黑" font-weight="normal" font-style="normal" text-decoration="none" family="微软雅黑" text-anchor="middle" size="13">S2</text></g></g><g id="ProcessOnG1013" transform="matrix(1.0,0.0,0.0,1.0,244.0,311.5)" opacity="1.0"><path id="ProcessOnPath1014" d="M0.0 24.0C0.0 -8.0 48.0 -8.0 48.0 24.0C48.0 56.0 0.0 56.0 0.0 24.0Z" stroke="#ffb366" stroke-width="2.0" stroke-dasharray="none" opacity="1.0" fill="#ffb366"/><g id="ProcessOnG1015" transform="matrix(1.0,0.0,0.0,1.0,10.0,15.875)"><text id="ProcessOnText1016" fill="#000000" font-size="13" x="13.0" y="13.325" font-family="微软雅黑" font-weight="normal" font-style="normal" text-decoration="none" family="微软雅黑" text-anchor="middle" size="13">S3</text></g></g><g id="ProcessOnG1017" transform="matrix(1.0,0.0,0.0,1.0,201.5,42.0)" opacity="1.0"><path id="ProcessOnPath1018" d="M0.0 24.0C0.0 -8.0 48.0 -8.0 48.0 24.0C48.0 56.0 0.0 56.0 0.0 24.0Z" stroke="#66ff66" stroke-width="2.0" stroke-dasharray="none" opacity="1.0" fill="#66ff66"/></g><g id="ProcessOnG1019" transform="matrix(1.0,0.0,0.0,1.0,258.5,51.5)" opacity="1.0"><path id="ProcessOnPath1020" d="M0.0 0.0L127.5 0.0L127.5 29.0L0.0 29.0Z" stroke="none" stroke-width="0.0" stroke-dasharray="none" opacity="1.0" fill="none"/><g id="ProcessOnG1021" transform="matrix(1.0,0.0,0.0,1.0,0.0,3.25)"><text id="ProcessOnText1022" fill="#000000" font-size="18" x="0.0" y="18.45" font-family="微软雅黑" font-weight="bold" font-style="normal" text-decoration="none" family="微软雅黑" text-anchor="start" size="18">New Servers</text></g></g><g id="ProcessOnG1023" transform="matrix(1.0,0.0,0.0,1.0,408.5,410.0)" opacity="1.0"><path id="ProcessOnPath1024" d="M0.0 24.0C0.0 -8.0 48.0 -8.0 48.0 24.0C48.0 56.0 0.0 56.0 0.0 24.0Z" stroke="#66ff66" stroke-width="2.0" stroke-dasharray="none" opacity="1.0" fill="#66ff66"/><g id="ProcessOnG1025" transform="matrix(1.0,0.0,0.0,1.0,10.0,15.875)"><text id="ProcessOnText1026" fill="#000000" font-size="13" x="13.0" y="13.325" font-family="微软雅黑" font-weight="normal" font-style="normal" text-decoration="none" family="微软雅黑" text-anchor="middle" size="13">S4</text></g></g><g id="ProcessOnG1027" transform="matrix(1.0,0.0,0.0,1.0,591.5,311.5)" opacity="1.0"><path id="ProcessOnPath1028" d="M0.0 24.0C0.0 -8.0 48.0 -8.0 48.0 24.0C48.0 56.0 0.0 56.0 0.0 24.0Z" stroke="#66ff66" stroke-width="2.0" stroke-dasharray="none" opacity="1.0" fill="#66ff66"/><g id="ProcessOnG1029" transform="matrix(1.0,0.0,0.0,1.0,10.0,15.875)"><text id="ProcessOnText1030" fill="#000000" font-size="13" x="13.0" y="13.325" font-family="微软雅黑" font-weight="normal" font-style="normal" text-decoration="none" family="微软雅黑" text-anchor="middle" size="13">S5</text></g></g><g id="ProcessOnG1031" transform="matrix(1.0,0.0,0.0,1.0,632.5,146.0)" opacity="1.0"><path id="ProcessOnPath1032" d="M0.0 0.0L221.5 0.0L221.5 29.0L0.0 29.0Z" stroke="none" stroke-width="0.0" stroke-dasharray="none" opacity="1.0" fill="none"/><g id="ProcessOnG1033" transform="matrix(1.0,0.0,0.0,1.0,0.0,3.25)"><text id="ProcessOnText1034" fill="#000000" font-size="18" x="0.0" y="18.45" font-family="微软雅黑" font-weight="bold" font-style="normal" text-decoration="none" family="微软雅黑" text-anchor="start" size="18">&lt;S1, S2, S3, S4, S5&gt;</text></g></g><g id="ProcessOnG1035" transform="matrix(1.0,0.0,0.0,1.0,124.5,321.0)" opacity="1.0"><path id="ProcessOnPath1036" d="M0.0 0.0L119.5 0.0L119.5 29.0L0.0 29.0Z" stroke="none" stroke-width="0.0" stroke-dasharray="none" opacity="1.0" fill="none"/><g id="ProcessOnG1037" transform="matrix(1.0,0.0,0.0,1.0,0.0,3.25)"><text id="ProcessOnText1038" fill="#000000" font-size="18" x="0.0" y="18.45" font-family="微软雅黑" font-weight="bold" font-style="normal" text-decoration="none" family="微软雅黑" text-anchor="start" size="18">&lt;S1, S2, S3&gt;</text></g></g><g id="ProcessOnG1039"><path id="ProcessOnPath1040" d="M280.3095269530372 314.6252311481466L323.95832783218486 185.65584549074345" stroke="#66ffff" stroke-width="2.0" stroke-dasharray="10.0 4.0" fill="none" marker-end="url(#ProcessOnMarker1041)"/><g id="ProcessOnG1043" transform="matrix(1.0,0.0,0.0,1.0,302.13392739261104,242.01553831944503)"><path id="ProcessOnPath1044" d="M0 0H88.0V16.24999999999997H0Z" fill="#fff" transform="matrix(1.0,0.0,0.0,1.0,-44.0,0.0)"/><text id="ProcessOnText1045" fill="#66ffff" font-size="13" x="0.0" y="13.325" font-family="微软雅黑" font-weight="normal" font-style="normal" text-decoration="none" family="微软雅黑" text-anchor="middle" size="13">Request Votes</text></g></g><g id="ProcessOnG1046"><path id="ProcessOnPath1047" d="M585.0 184.5L615.5 311.5" stroke="#66ffff" stroke-width="2.0" stroke-dasharray="10.0 4.0" fill="none" marker-end="url(#ProcessOnMarker1048)"/><g id="ProcessOnG1050" transform="matrix(1.0,0.0,0.0,1.0,600.25,239.875)"><path id="ProcessOnPath1051" d="M0 0H88.0V16.25H0Z" fill="#fff" transform="matrix(1.0,0.0,0.0,1.0,-44.0,0.0)"/><text id="ProcessOnText1052" fill="#66ffff" font-size="13" x="0.0" y="13.325" font-family="微软雅黑" font-weight="normal" font-style="normal" text-decoration="none" family="微软雅黑" text-anchor="middle" size="13">Request Votes</text></g></g><g id="ProcessOnG1053"><path id="ProcessOnPath1054" d="M572.5 180.6698729810778L438.1882666842823 410.7614807840235" stroke="#66ffff" stroke-width="2.0" stroke-dasharray="10.0 4.0" fill="none" marker-end="url(#ProcessOnMarker1055)"/><g id="ProcessOnG1057" transform="matrix(1.0,0.0,0.0,1.0,505.34413334214116,287.5906768825506)"><path id="ProcessOnPath1058" d="M0 0H88.0V16.25H0Z" fill="#fff" transform="matrix(1.0,0.0,0.0,1.0,-44.0,0.0)"/><text id="ProcessOnText1059" fill="#66ffff" font-size="13" x="0.0" y="13.325" font-family="微软雅黑" font-weight="normal" font-style="normal" text-decoration="none" family="微软雅黑" text-anchor="middle" size="13">Request Votes</text></g></g></g></g></svg>