<svg xmlns="http://www.w3.org/2000/svg" xmlns:xlink="http://www.w3.org/1999/xlink" id="processonSvg1000" viewBox="197.0 53.0 469.0 473.0" width="469.0" height="473.0"><defs id="ProcessOnDefs1001"/><g id="ProcessOnG1002"><path id="ProcessOnPath1003" d="M197.0 53.0H666.0V526.0H197.0V53.0Z" fill="none"/><g id="ProcessOnG1004"><g id="ProcessOnG1005" transform="matrix(1.0,0.0,0.0,1.0,262.0,97.0)" opacity="1.0"><path id="ProcessOnPath1006" d="M0.0 0.0L32.0 0.0L32.0 32.0L0.0 32.0Z" stroke="#323232" stroke-width="2.0" stroke-dasharray="none" opacity="1.0" fill="#66ff66"/><g id="ProcessOnG1007" transform="matrix(1.0,0.0,0.0,1.0,10.0,7.875)"><text id="ProcessOnText1008" fill="#000000" font-size="13" x="5.0" y="13.325" font-family="微软雅黑" font-weight="normal" font-style="normal" text-decoration="none" family="微软雅黑" text-anchor="middle" size="13">1</text></g></g><g id="ProcessOnG1009" transform="matrix(1.0,0.0,0.0,1.0,262.0,73.0)" opacity="1.0"><path id="ProcessOnPath1010" d="M0.0 0.0L32.0 0.0L32.0 24.0L0.0 24.0Z" stroke="none" stroke-width="0.0" stroke-dasharray="none" opacity="1.0" fill="none"/><g id="ProcessOnG1011" transform="matrix(1.0,0.0,0.0,1.0,0.0,3.875)"><text id="ProcessOnText1012" fill="#000000" font-size="13" x="15.0" y="13.325" font-family="微软雅黑" font-weight="normal" font-style="normal" text-decoration="none" family="微软雅黑" text-anchor="middle" size="13">1</text></g></g><g id="ProcessOnG1013" transform="matrix(1.0,0.0,0.0,1.0,294.0,97.0)" opacity="1.0"><path id="ProcessOnPath1014" d="M0.0 0.0L32.0 0.0L32.0 32.0L0.0 32.0Z" stroke="#323232" stroke-width="2.0" stroke-dasharray="none" opacity="1.0" fill="#66ff66"/><g id="ProcessOnG1015" transform="matrix(1.0,0.0,0.0,1.0,10.0,7.875)"><text id="ProcessOnText1016" fill="#000000" font-size="13" x="5.0" y="13.325" font-family="微软雅黑" font-weight="normal" font-style="normal" text-decoration="none" family="微软雅黑" text-anchor="middle" size="13">1</text></g></g><g id="ProcessOnG1017" transform="matrix(1.0,0.0,0.0,1.0,294.0,73.0)" opacity="1.0"><path id="ProcessOnPath1018" d="M0.0 0.0L32.0 0.0L32.0 24.0L0.0 24.0Z" stroke="none" stroke-width="0.0" stroke-dasharray="none" opacity="1.0" fill="none"/><g id="ProcessOnG1019" transform="matrix(1.0,0.0,0.0,1.0,0.0,3.875)"><text id="ProcessOnText1020" fill="#000000" font-size="13" x="15.0" y="13.325" font-family="微软雅黑" font-weight="normal" font-style="normal" text-decoration="none" family="微软雅黑" text-anchor="middle" size="13">2</text></g></g><g id="ProcessOnG1021" transform="matrix(1.0,0.0,0.0,1.0,326.0,97.0)" opacity="1.0"><path id="ProcessOnPath1022" d="M0.0 0.0L32.0 0.0L32.0 32.0L0.0 32.0Z" stroke="#323232" stroke-width="2.0" stroke-dasharray="none" opacity="1.0" fill="#66ff66"/><g id="ProcessOnG1023" transform="matrix(1.0,0.0,0.0,1.0,10.0,7.875)"><text id="ProcessOnText1024" fill="#000000" font-size="13" x="5.0" y="13.325" font-family="微软雅黑" font-weight="normal" font-style="normal" text-decoration="none" family="微软雅黑" text-anchor="middle" size="13">1</text></g></g><g id="ProcessOnG1025" transform="matrix(1.0,0.0,0.0,1.0,326.0,73.0)" opacity="1.0"><path id="ProcessOnPath1026" d="M0.0 0.0L32.0 0.0L32.0 24.0L0.0 24.0Z" stroke="none" stroke-width="0.0" stroke-dasharray="none" opacity="1.0" fill="none"/><g id="ProcessOnG1027" transform="matrix(1.0,0.0,0.0,1.0,0.0,3.875)"><text id="ProcessOnText1028" fill="#000000" font-size="13" x="15.0" y="13.325" font-family="微软雅黑" font-weight="normal" font-style="normal" text-decoration="none" family="微软雅黑" text-anchor="middle" size="13">3</text></g></g><g id="ProcessOnG1029" transform="matrix(1.0,0.0,0.0,1.0,358.0,97.0)" opacity="1.0"><path id="ProcessOnPath1030" d="M0.0 0.0L32.0 0.0L32.0 32.0L0.0 32.0Z" stroke="#323232" stroke-width="2.0" stroke-dasharray="none" opacity="1.0" fill="#ffff66"/><g id="ProcessOnG1031" transform="matrix(1.0,0.0,0.0,1.0,10.0,7.875)"><text id="ProcessOnText1032" fill="#000000" font-size="13" x="5.0" y="13.325" font-family="微软雅黑" font-weight="normal" font-style="normal" text-decoration="none" family="微软雅黑" text-anchor="middle" size="13">4</text></g></g><g id="ProcessOnG1033" transform="matrix(1.0,0.0,0.0,1.0,358.0,73.0)" opacity="1.0"><path id="ProcessOnPath1034" d="M0.0 0.0L32.0 0.0L32.0 24.0L0.0 24.0Z" stroke="none" stroke-width="0.0" stroke-dasharray="none" opacity="1.0" fill="none"/><g id="ProcessOnG1035" transform="matrix(1.0,0.0,0.0,1.0,0.0,3.875)"><text id="ProcessOnText1036" fill="#000000" font-size="13" x="15.0" y="13.325" font-family="微软雅黑" font-weight="normal" font-style="normal" text-decoration="none" family="微软雅黑" text-anchor="middle" size="13">4</text></g></g><g id="ProcessOnG1037" transform="matrix(1.0,0.0,0.0,1.0,390.0,97.0)" opacity="1.0"><path id="ProcessOnPath1038" d="M0.0 0.0L32.0 0.0L32.0 32.0L0.0 32.0Z" stroke="#323232" stroke-width="2.0" stroke-dasharray="none" opacity="1.0" fill="#ffff66"/><g id="ProcessOnG1039" transform="matrix(1.0,0.0,0.0,1.0,10.0,7.875)"><text id="ProcessOnText1040" fill="#000000" font-size="13" x="5.0" y="13.325" font-family="微软雅黑" font-weight="normal" font-style="normal" text-decoration="none" family="微软雅黑" text-anchor="middle" size="13">4</text></g></g><g id="ProcessOnG1041" transform="matrix(1.0,0.0,0.0,1.0,390.0,73.0)" opacity="1.0"><path id="ProcessOnPath1042" d="M0.0 0.0L32.0 0.0L32.0 24.0L0.0 24.0Z" stroke="none" stroke-width="0.0" stroke-dasharray="none" opacity="1.0" fill="none"/><g id="ProcessOnG1043" transform="matrix(1.0,0.0,0.0,1.0,0.0,3.875)"><text id="ProcessOnText1044" fill="#000000" font-size="13" x="15.0" y="13.325" font-family="微软雅黑" font-weight="normal" font-style="normal" text-decoration="none" family="微软雅黑" text-anchor="middle" size="13">5</text></g></g><g id="ProcessOnG1045" transform="matrix(1.0,0.0,0.0,1.0,422.0,97.0)" opacity="1.0"><path id="ProcessOnPath1046" d="M0.0 0.0L32.0 0.0L32.0 32.0L0.0 32.0Z" stroke="#323232" stroke-width="2.0" stroke-dasharray="none" opacity="1.0" fill="#66ffff"/><g id="ProcessOnG1047" transform="matrix(1.0,0.0,0.0,1.0,10.0,7.875)"><text id="ProcessOnText1048" fill="#000000" font-size="13" x="5.0" y="13.325" font-family="微软雅黑" font-weight="normal" font-style="normal" text-decoration="none" family="微软雅黑" text-anchor="middle" size="13">5</text></g></g><g id="ProcessOnG1049" transform="matrix(1.0,0.0,0.0,1.0,422.0,73.0)" opacity="1.0"><path id="ProcessOnPath1050" d="M0.0 0.0L32.0 0.0L32.0 24.0L0.0 24.0Z" stroke="none" stroke-width="0.0" stroke-dasharray="none" opacity="1.0" fill="none"/><g id="ProcessOnG1051" transform="matrix(1.0,0.0,0.0,1.0,0.0,3.875)"><text id="ProcessOnText1052" fill="#000000" font-size="13" x="15.0" y="13.325" font-family="微软雅黑" font-weight="normal" font-style="normal" text-decoration="none" family="微软雅黑" text-anchor="middle" size="13">6</text></g></g><g id="ProcessOnG1053" transform="matrix(1.0,0.0,0.0,1.0,454.0,97.0)" opacity="1.0"><path id="ProcessOnPath1054" d="M0.0 0.0L32.0 0.0L32.0 32.0L0.0 32.0Z" stroke="#323232" stroke-width="2.0" stroke-dasharray="none" opacity="1.0" fill="#66ffff"/><g id="ProcessOnG1055" transform="matrix(1.0,0.0,0.0,1.0,10.0,7.875)"><text id="ProcessOnText1056" fill="#000000" font-size="13" x="5.0" y="13.325" font-family="微软雅黑" font-weight="normal" font-style="normal" text-decoration="none" family="微软雅黑" text-anchor="middle" size="13">5</text></g></g><g id="ProcessOnG1057" transform="matrix(1.0,0.0,0.0,1.0,454.0,73.0)" opacity="1.0"><path id="ProcessOnPath1058" d="M0.0 0.0L32.0 0.0L32.0 24.0L0.0 24.0Z" stroke="none" stroke-width="0.0" stroke-dasharray="none" opacity="1.0" fill="none"/><g id="ProcessOnG1059" transform="matrix(1.0,0.0,0.0,1.0,0.0,3.875)"><text id="ProcessOnText1060" fill="#000000" font-size="13" x="15.0" y="13.325" font-family="微软雅黑" font-weight="normal" font-style="normal" text-decoration="none" family="微软雅黑" text-anchor="middle" size="13">7</text></g></g><g id="ProcessOnG1061" transform="matrix(1.0,0.0,0.0,1.0,486.0,97.0)" opacity="1.0"><path id="ProcessOnPath1062" d="M0.0 0.0L32.0 0.0L32.0 32.0L0.0 32.0Z" stroke="#323232" stroke-width="2.0" stroke-dasharray="none" opacity="1.0" fill="#ffb366"/><g id="ProcessOnG1063" transform="matrix(1.0,0.0,0.0,1.0,10.0,7.875)"><text id="ProcessOnText1064" fill="#000000" font-size="13" x="5.0" y="13.325" font-family="微软雅黑" font-weight="normal" font-style="normal" text-decoration="none" family="微软雅黑" text-anchor="middle" size="13">6</text></g></g><g id="ProcessOnG1065" transform="matrix(1.0,0.0,0.0,1.0,486.0,73.0)" opacity="1.0"><path id="ProcessOnPath1066" d="M0.0 0.0L32.0 0.0L32.0 24.0L0.0 24.0Z" stroke="none" stroke-width="0.0" stroke-dasharray="none" opacity="1.0" fill="none"/><g id="ProcessOnG1067" transform="matrix(1.0,0.0,0.0,1.0,0.0,3.875)"><text id="ProcessOnText1068" fill="#000000" font-size="13" x="15.0" y="13.325" font-family="微软雅黑" font-weight="normal" font-style="normal" text-decoration="none" family="微软雅黑" text-anchor="middle" size="13">8</text></g></g><g id="ProcessOnG1069" transform="matrix(1.0,0.0,0.0,1.0,518.0,97.0)" opacity="1.0"><path id="ProcessOnPath1070" d="M0.0 0.0L32.0 0.0L32.0 32.0L0.0 32.0Z" stroke="#323232" stroke-width="2.0" stroke-dasharray="none" opacity="1.0" fill="#ffb366"/><g id="ProcessOnG1071" transform="matrix(1.0,0.0,0.0,1.0,10.0,7.875)"><text id="ProcessOnText1072" fill="#000000" font-size="13" x="5.0" y="13.325" font-family="微软雅黑" font-weight="normal" font-style="normal" text-decoration="none" family="微软雅黑" text-anchor="middle" size="13">6</text></g></g><g id="ProcessOnG1073" transform="matrix(1.0,0.0,0.0,1.0,518.0,73.0)" opacity="1.0"><path id="ProcessOnPath1074" d="M0.0 0.0L32.0 0.0L32.0 24.0L0.0 24.0Z" stroke="none" stroke-width="0.0" stroke-dasharray="none" opacity="1.0" fill="none"/><g id="ProcessOnG1075" transform="matrix(1.0,0.0,0.0,1.0,0.0,3.875)"><text id="ProcessOnText1076" fill="#000000" font-size="13" x="15.0" y="13.325" font-family="微软雅黑" font-weight="normal" font-style="normal" text-decoration="none" family="微软雅黑" text-anchor="middle" size="13">9</text></g></g><g id="ProcessOnG1077" transform="matrix(1.0,0.0,0.0,1.0,550.0,97.0)" opacity="1.0"><path id="ProcessOnPath1078" d="M0.0 0.0L32.0 0.0L32.0 32.0L0.0 32.0Z" stroke="#323232" stroke-width="2.0" stroke-dasharray="none" opacity="1.0" fill="#ffb366"/><g id="ProcessOnG1079" transform="matrix(1.0,0.0,0.0,1.0,10.0,7.875)"><text id="ProcessOnText1080" fill="#000000" font-size="13" x="5.0" y="13.325" font-family="微软雅黑" font-weight="normal" font-style="normal" text-decoration="none" family="微软雅黑" text-anchor="middle" size="13">6</text></g></g><g id="ProcessOnG1081" transform="matrix(1.0,0.0,0.0,1.0,550.0,73.0)" opacity="1.0"><path id="ProcessOnPath1082" d="M0.0 0.0L32.0 0.0L32.0 24.0L0.0 24.0Z" stroke="none" stroke-width="0.0" stroke-dasharray="none" opacity="1.0" fill="none"/><g id="ProcessOnG1083" transform="matrix(1.0,0.0,0.0,1.0,0.0,3.875)"><text id="ProcessOnText1084" fill="#000000" font-size="13" x="15.0" y="13.325" font-family="微软雅黑" font-weight="normal" font-style="normal" text-decoration="none" family="微软雅黑" text-anchor="middle" size="13">10</text></g></g><g id="ProcessOnG1085" transform="matrix(1.0,0.0,0.0,1.0,582.0,73.0)" opacity="1.0"><path id="ProcessOnPath1086" d="M0.0 0.0L32.0 0.0L32.0 24.0L0.0 24.0Z" stroke="none" stroke-width="0.0" stroke-dasharray="none" opacity="1.0" fill="none"/><g id="ProcessOnG1087" transform="matrix(1.0,0.0,0.0,1.0,0.0,3.875)"><text id="ProcessOnText1088" fill="#000000" font-size="13" x="15.0" y="13.325" font-family="微软雅黑" font-weight="normal" font-style="normal" text-decoration="none" family="微软雅黑" text-anchor="middle" size="13">11</text></g></g><g id="ProcessOnG1089" transform="matrix(1.0,0.0,0.0,1.0,614.0,73.0)" opacity="1.0"><path id="ProcessOnPath1090" d="M0.0 0.0L32.0 0.0L32.0 24.0L0.0 24.0Z" stroke="none" stroke-width="0.0" stroke-dasharray="none" opacity="1.0" fill="none"/><g id="ProcessOnG1091" transform="matrix(1.0,0.0,0.0,1.0,0.0,3.875)"><text id="ProcessOnText1092" fill="#000000" font-size="13" x="15.0" y="13.325" font-family="微软雅黑" font-weight="normal" font-style="normal" text-decoration="none" family="微软雅黑" text-anchor="middle" size="13">12</text></g></g><g id="ProcessOnG1093" transform="matrix(1.0,0.0,0.0,1.0,262.0,167.0)" opacity="1.0"><path id="ProcessOnPath1094" d="M0.0 0.0L32.0 0.0L32.0 32.0L0.0 32.0Z" stroke="#323232" stroke-width="2.0" stroke-dasharray="none" opacity="1.0" fill="#66ff66"/><g id="ProcessOnG1095" transform="matrix(1.0,0.0,0.0,1.0,10.0,7.875)"><text id="ProcessOnText1096" fill="#000000" font-size="13" x="5.0" y="13.325" font-family="微软雅黑" font-weight="normal" font-style="normal" text-decoration="none" family="微软雅黑" text-anchor="middle" size="13">1</text></g></g><g id="ProcessOnG1097" transform="matrix(1.0,0.0,0.0,1.0,294.0,167.0)" opacity="1.0"><path id="ProcessOnPath1098" d="M0.0 0.0L32.0 0.0L32.0 32.0L0.0 32.0Z" stroke="#323232" stroke-width="2.0" stroke-dasharray="none" opacity="1.0" fill="#66ff66"/><g id="ProcessOnG1099" transform="matrix(1.0,0.0,0.0,1.0,10.0,7.875)"><text id="ProcessOnText1100" fill="#000000" font-size="13" x="5.0" y="13.325" font-family="微软雅黑" font-weight="normal" font-style="normal" text-decoration="none" family="微软雅黑" text-anchor="middle" size="13">1</text></g></g><g id="ProcessOnG1101" transform="matrix(1.0,0.0,0.0,1.0,326.0,167.0)" opacity="1.0"><path id="ProcessOnPath1102" d="M0.0 0.0L32.0 0.0L32.0 32.0L0.0 32.0Z" stroke="#323232" stroke-width="2.0" stroke-dasharray="none" opacity="1.0" fill="#66ff66"/><g id="ProcessOnG1103" transform="matrix(1.0,0.0,0.0,1.0,10.0,7.875)"><text id="ProcessOnText1104" fill="#000000" font-size="13" x="5.0" y="13.325" font-family="微软雅黑" font-weight="normal" font-style="normal" text-decoration="none" family="微软雅黑" text-anchor="middle" size="13">1</text></g></g><g id="ProcessOnG1105" transform="matrix(1.0,0.0,0.0,1.0,358.0,167.0)" opacity="1.0"><path id="ProcessOnPath1106" d="M0.0 0.0L32.0 0.0L32.0 32.0L0.0 32.0Z" stroke="#323232" stroke-width="2.0" stroke-dasharray="none" opacity="1.0" fill="#ffff66"/><g id="ProcessOnG1107" transform="matrix(1.0,0.0,0.0,1.0,10.0,7.875)"><text id="ProcessOnText1108" fill="#000000" font-size="13" x="5.0" y="13.325" font-family="微软雅黑" font-weight="normal" font-style="normal" text-decoration="none" family="微软雅黑" text-anchor="middle" size="13">4</text></g></g><g id="ProcessOnG1109" transform="matrix(1.0,0.0,0.0,1.0,390.0,167.0)" opacity="1.0"><path id="ProcessOnPath1110" d="M0.0 0.0L32.0 0.0L32.0 32.0L0.0 32.0Z" stroke="#323232" stroke-width="2.0" stroke-dasharray="none" opacity="1.0" fill="#ffff66"/><g id="ProcessOnG1111" transform="matrix(1.0,0.0,0.0,1.0,10.0,7.875)"><text id="ProcessOnText1112" fill="#000000" font-size="13" x="5.0" y="13.325" font-family="微软雅黑" font-weight="normal" font-style="normal" text-decoration="none" family="微软雅黑" text-anchor="middle" size="13">4</text></g></g><g id="ProcessOnG1113" transform="matrix(1.0,0.0,0.0,1.0,422.0,167.0)" opacity="1.0"><path id="ProcessOnPath1114" d="M0.0 0.0L32.0 0.0L32.0 32.0L0.0 32.0Z" stroke="#323232" stroke-width="2.0" stroke-dasharray="none" opacity="1.0" fill="#66ffff"/><g id="ProcessOnG1115" transform="matrix(1.0,0.0,0.0,1.0,10.0,7.875)"><text id="ProcessOnText1116" fill="#000000" font-size="13" x="5.0" y="13.325" font-family="微软雅黑" font-weight="normal" font-style="normal" text-decoration="none" family="微软雅黑" text-anchor="middle" size="13">5</text></g></g><g id="ProcessOnG1117" transform="matrix(1.0,0.0,0.0,1.0,454.0,167.0)" opacity="1.0"><path id="ProcessOnPath1118" d="M0.0 0.0L32.0 0.0L32.0 32.0L0.0 32.0Z" stroke="#323232" stroke-width="2.0" stroke-dasharray="none" opacity="1.0" fill="#66ffff"/><g id="ProcessOnG1119" transform="matrix(1.0,0.0,0.0,1.0,10.0,7.875)"><text id="ProcessOnText1120" fill="#000000" font-size="13" x="5.0" y="13.325" font-family="微软雅黑" font-weight="normal" font-style="normal" text-decoration="none" family="微软雅黑" text-anchor="middle" size="13">5</text></g></g><g id="ProcessOnG1121" transform="matrix(1.0,0.0,0.0,1.0,486.0,167.0)" opacity="1.0"><path id="ProcessOnPath1122" d="M0.0 0.0L32.0 0.0L32.0 32.0L0.0 32.0Z" stroke="#323232" stroke-width="2.0" stroke-dasharray="none" opacity="1.0" fill="#ffb366"/><g id="ProcessOnG1123" transform="matrix(1.0,0.0,0.0,1.0,10.0,7.875)"><text id="ProcessOnText1124" fill="#000000" font-size="13" x="5.0" y="13.325" font-family="微软雅黑" font-weight="normal" font-style="normal" text-decoration="none" family="微软雅黑" text-anchor="middle" size="13">6</text></g></g><g id="ProcessOnG1125" transform="matrix(1.0,0.0,0.0,1.0,518.0,167.0)" opacity="1.0"><path id="ProcessOnPath1126" d="M0.0 0.0L32.0 0.0L32.0 32.0L0.0 32.0Z" stroke="#323232" stroke-width="2.0" stroke-dasharray="none" opacity="1.0" fill="#ffb366"/><g id="ProcessOnG1127" transform="matrix(1.0,0.0,0.0,1.0,10.0,7.875)"><text id="ProcessOnText1128" fill="#000000" font-size="13" x="5.0" y="13.325" font-family="微软雅黑" font-weight="normal" font-style="normal" text-decoration="none" family="微软雅黑" text-anchor="middle" size="13">6</text></g></g><g id="ProcessOnG1129" transform="matrix(1.0,0.0,0.0,1.0,217.0,171.0)" opacity="1.0"><path id="ProcessOnPath1130" d="M0.0 0.0L32.0 0.0L32.0 24.0L0.0 24.0Z" stroke="none" stroke-width="0.0" stroke-dasharray="none" opacity="1.0" fill="none"/><g id="ProcessOnG1131" transform="matrix(1.0,0.0,0.0,1.0,0.0,3.875)"><text id="ProcessOnText1132" fill="#000000" font-size="13" x="15.0" y="13.325" font-family="微软雅黑" font-weight="normal" font-style="normal" text-decoration="none" family="微软雅黑" text-anchor="middle" size="13">(a)</text></g></g><g id="ProcessOnG1133" transform="matrix(1.0,0.0,0.0,1.0,262.0,223.0)" opacity="1.0"><path id="ProcessOnPath1134" d="M0.0 0.0L32.0 0.0L32.0 32.0L0.0 32.0Z" stroke="#323232" stroke-width="2.0" stroke-dasharray="none" opacity="1.0" fill="#66ff66"/><g id="ProcessOnG1135" transform="matrix(1.0,0.0,0.0,1.0,10.0,7.875)"><text id="ProcessOnText1136" fill="#000000" font-size="13" x="5.0" y="13.325" font-family="微软雅黑" font-weight="normal" font-style="normal" text-decoration="none" family="微软雅黑" text-anchor="middle" size="13">1</text></g></g><g id="ProcessOnG1137" transform="matrix(1.0,0.0,0.0,1.0,294.0,223.0)" opacity="1.0"><path id="ProcessOnPath1138" d="M0.0 0.0L32.0 0.0L32.0 32.0L0.0 32.0Z" stroke="#323232" stroke-width="2.0" stroke-dasharray="none" opacity="1.0" fill="#66ff66"/><g id="ProcessOnG1139" transform="matrix(1.0,0.0,0.0,1.0,10.0,7.875)"><text id="ProcessOnText1140" fill="#000000" font-size="13" x="5.0" y="13.325" font-family="微软雅黑" font-weight="normal" font-style="normal" text-decoration="none" family="微软雅黑" text-anchor="middle" size="13">1</text></g></g><g id="ProcessOnG1141" transform="matrix(1.0,0.0,0.0,1.0,326.0,223.0)" opacity="1.0"><path id="ProcessOnPath1142" d="M0.0 0.0L32.0 0.0L32.0 32.0L0.0 32.0Z" stroke="#323232" stroke-width="2.0" stroke-dasharray="none" opacity="1.0" fill="#66ff66"/><g id="ProcessOnG1143" transform="matrix(1.0,0.0,0.0,1.0,10.0,7.875)"><text id="ProcessOnText1144" fill="#000000" font-size="13" x="5.0" y="13.325" font-family="微软雅黑" font-weight="normal" font-style="normal" text-decoration="none" family="微软雅黑" text-anchor="middle" size="13">1</text></g></g><g id="ProcessOnG1145" transform="matrix(1.0,0.0,0.0,1.0,358.0,223.0)" opacity="1.0"><path id="ProcessOnPath1146" d="M0.0 0.0L32.0 0.0L32.0 32.0L0.0 32.0Z" stroke="#323232" stroke-width="2.0" stroke-dasharray="none" opacity="1.0" fill="#ffff66"/><g id="ProcessOnG1147" transform="matrix(1.0,0.0,0.0,1.0,10.0,7.875)"><text id="ProcessOnText1148" fill="#000000" font-size="13" x="5.0" y="13.325" font-family="微软雅黑" font-weight="normal" font-style="normal" text-decoration="none" family="微软雅黑" text-anchor="middle" size="13">4</text></g></g><g id="ProcessOnG1149" transform="matrix(1.0,0.0,0.0,1.0,217.0,227.0)" opacity="1.0"><path id="ProcessOnPath1150" d="M0.0 0.0L32.0 0.0L32.0 24.0L0.0 24.0Z" stroke="none" stroke-width="0.0" stroke-dasharray="none" opacity="1.0" fill="none"/><g id="ProcessOnG1151" transform="matrix(1.0,0.0,0.0,1.0,0.0,3.875)"><text id="ProcessOnText1152" fill="#000000" font-size="13" x="15.0" y="13.325" font-family="微软雅黑" font-weight="normal" font-style="normal" text-decoration="none" family="微软雅黑" text-anchor="middle" size="13">(b)</text></g></g><g id="ProcessOnG1153" transform="matrix(1.0,0.0,0.0,1.0,262.0,282.0)" opacity="1.0"><path id="ProcessOnPath1154" d="M0.0 0.0L32.0 0.0L32.0 32.0L0.0 32.0Z" stroke="#323232" stroke-width="2.0" stroke-dasharray="none" opacity="1.0" fill="#66ff66"/><g id="ProcessOnG1155" transform="matrix(1.0,0.0,0.0,1.0,10.0,7.875)"><text id="ProcessOnText1156" fill="#000000" font-size="13" x="5.0" y="13.325" font-family="微软雅黑" font-weight="normal" font-style="normal" text-decoration="none" family="微软雅黑" text-anchor="middle" size="13">1</text></g></g><g id="ProcessOnG1157" transform="matrix(1.0,0.0,0.0,1.0,294.0,282.0)" opacity="1.0"><path id="ProcessOnPath1158" d="M0.0 0.0L32.0 0.0L32.0 32.0L0.0 32.0Z" stroke="#323232" stroke-width="2.0" stroke-dasharray="none" opacity="1.0" fill="#66ff66"/><g id="ProcessOnG1159" transform="matrix(1.0,0.0,0.0,1.0,10.0,7.875)"><text id="ProcessOnText1160" fill="#000000" font-size="13" x="5.0" y="13.325" font-family="微软雅黑" font-weight="normal" font-style="normal" text-decoration="none" family="微软雅黑" text-anchor="middle" size="13">1</text></g></g><g id="ProcessOnG1161" transform="matrix(1.0,0.0,0.0,1.0,326.0,282.0)" opacity="1.0"><path id="ProcessOnPath1162" d="M0.0 0.0L32.0 0.0L32.0 32.0L0.0 32.0Z" stroke="#323232" stroke-width="2.0" stroke-dasharray="none" opacity="1.0" fill="#66ff66"/><g id="ProcessOnG1163" transform="matrix(1.0,0.0,0.0,1.0,10.0,7.875)"><text id="ProcessOnText1164" fill="#000000" font-size="13" x="5.0" y="13.325" font-family="微软雅黑" font-weight="normal" font-style="normal" text-decoration="none" family="微软雅黑" text-anchor="middle" size="13">1</text></g></g><g id="ProcessOnG1165" transform="matrix(1.0,0.0,0.0,1.0,358.0,282.0)" opacity="1.0"><path id="ProcessOnPath1166" d="M0.0 0.0L32.0 0.0L32.0 32.0L0.0 32.0Z" stroke="#323232" stroke-width="2.0" stroke-dasharray="none" opacity="1.0" fill="#ffff66"/><g id="ProcessOnG1167" transform="matrix(1.0,0.0,0.0,1.0,10.0,7.875)"><text id="ProcessOnText1168" fill="#000000" font-size="13" x="5.0" y="13.325" font-family="微软雅黑" font-weight="normal" font-style="normal" text-decoration="none" family="微软雅黑" text-anchor="middle" size="13">4</text></g></g><g id="ProcessOnG1169" transform="matrix(1.0,0.0,0.0,1.0,390.0,282.0)" opacity="1.0"><path id="ProcessOnPath1170" d="M0.0 0.0L32.0 0.0L32.0 32.0L0.0 32.0Z" stroke="#323232" stroke-width="2.0" stroke-dasharray="none" opacity="1.0" fill="#ffff66"/><g id="ProcessOnG1171" transform="matrix(1.0,0.0,0.0,1.0,10.0,7.875)"><text id="ProcessOnText1172" fill="#000000" font-size="13" x="5.0" y="13.325" font-family="微软雅黑" font-weight="normal" font-style="normal" text-decoration="none" family="微软雅黑" text-anchor="middle" size="13">4</text></g></g><g id="ProcessOnG1173" transform="matrix(1.0,0.0,0.0,1.0,422.0,282.0)" opacity="1.0"><path id="ProcessOnPath1174" d="M0.0 0.0L32.0 0.0L32.0 32.0L0.0 32.0Z" stroke="#323232" stroke-width="2.0" stroke-dasharray="none" opacity="1.0" fill="#66ffff"/><g id="ProcessOnG1175" transform="matrix(1.0,0.0,0.0,1.0,10.0,7.875)"><text id="ProcessOnText1176" fill="#000000" font-size="13" x="5.0" y="13.325" font-family="微软雅黑" font-weight="normal" font-style="normal" text-decoration="none" family="微软雅黑" text-anchor="middle" size="13">5</text></g></g><g id="ProcessOnG1177" transform="matrix(1.0,0.0,0.0,1.0,454.0,282.0)" opacity="1.0"><path id="ProcessOnPath1178" d="M0.0 0.0L32.0 0.0L32.0 32.0L0.0 32.0Z" stroke="#323232" stroke-width="2.0" stroke-dasharray="none" opacity="1.0" fill="#66ffff"/><g id="ProcessOnG1179" transform="matrix(1.0,0.0,0.0,1.0,10.0,7.875)"><text id="ProcessOnText1180" fill="#000000" font-size="13" x="5.0" y="13.325" font-family="微软雅黑" font-weight="normal" font-style="normal" text-decoration="none" family="微软雅黑" text-anchor="middle" size="13">5</text></g></g><g id="ProcessOnG1181" transform="matrix(1.0,0.0,0.0,1.0,486.0,282.0)" opacity="1.0"><path id="ProcessOnPath1182" d="M0.0 0.0L32.0 0.0L32.0 32.0L0.0 32.0Z" stroke="#323232" stroke-width="2.0" stroke-dasharray="none" opacity="1.0" fill="#ffb366"/><g id="ProcessOnG1183" transform="matrix(1.0,0.0,0.0,1.0,10.0,7.875)"><text id="ProcessOnText1184" fill="#000000" font-size="13" x="5.0" y="13.325" font-family="微软雅黑" font-weight="normal" font-style="normal" text-decoration="none" family="微软雅黑" text-anchor="middle" size="13">6</text></g></g><g id="ProcessOnG1185" transform="matrix(1.0,0.0,0.0,1.0,518.0,282.0)" opacity="1.0"><path id="ProcessOnPath1186" d="M0.0 0.0L32.0 0.0L32.0 32.0L0.0 32.0Z" stroke="#323232" stroke-width="2.0" stroke-dasharray="none" opacity="1.0" fill="#ffb366"/><g id="ProcessOnG1187" transform="matrix(1.0,0.0,0.0,1.0,10.0,7.875)"><text id="ProcessOnText1188" fill="#000000" font-size="13" x="5.0" y="13.325" font-family="微软雅黑" font-weight="normal" font-style="normal" text-decoration="none" family="微软雅黑" text-anchor="middle" size="13">6</text></g></g><g id="ProcessOnG1189" transform="matrix(1.0,0.0,0.0,1.0,550.0,282.0)" opacity="1.0"><path id="ProcessOnPath1190" d="M0.0 0.0L32.0 0.0L32.0 32.0L0.0 32.0Z" stroke="#323232" stroke-width="2.0" stroke-dasharray="none" opacity="1.0" fill="#ffb366"/><g id="ProcessOnG1191" transform="matrix(1.0,0.0,0.0,1.0,10.0,7.875)"><text id="ProcessOnText1192" fill="#000000" font-size="13" x="5.0" y="13.325" font-family="微软雅黑" font-weight="normal" font-style="normal" text-decoration="none" family="微软雅黑" text-anchor="middle" size="13">6</text></g></g><g id="ProcessOnG1193" transform="matrix(1.0,0.0,0.0,1.0,217.0,286.0)" opacity="1.0"><path id="ProcessOnPath1194" d="M0.0 0.0L32.0 0.0L32.0 24.0L0.0 24.0Z" stroke="none" stroke-width="0.0" stroke-dasharray="none" opacity="1.0" fill="none"/><g id="ProcessOnG1195" transform="matrix(1.0,0.0,0.0,1.0,0.0,3.875)"><text id="ProcessOnText1196" fill="#000000" font-size="13" x="15.0" y="13.325" font-family="微软雅黑" font-weight="normal" font-style="normal" text-decoration="none" family="微软雅黑" text-anchor="middle" size="13">(c)</text></g></g><g id="ProcessOnG1197" transform="matrix(1.0,0.0,0.0,1.0,262.0,345.0)" opacity="1.0"><path id="ProcessOnPath1198" d="M0.0 0.0L32.0 0.0L32.0 32.0L0.0 32.0Z" stroke="#323232" stroke-width="2.0" stroke-dasharray="none" opacity="1.0" fill="#66ff66"/><g id="ProcessOnG1199" transform="matrix(1.0,0.0,0.0,1.0,10.0,7.875)"><text id="ProcessOnText1200" fill="#000000" font-size="13" x="5.0" y="13.325" font-family="微软雅黑" font-weight="normal" font-style="normal" text-decoration="none" family="微软雅黑" text-anchor="middle" size="13">1</text></g></g><g id="ProcessOnG1201" transform="matrix(1.0,0.0,0.0,1.0,294.0,345.0)" opacity="1.0"><path id="ProcessOnPath1202" d="M0.0 0.0L32.0 0.0L32.0 32.0L0.0 32.0Z" stroke="#323232" stroke-width="2.0" stroke-dasharray="none" opacity="1.0" fill="#66ff66"/><g id="ProcessOnG1203" transform="matrix(1.0,0.0,0.0,1.0,10.0,7.875)"><text id="ProcessOnText1204" fill="#000000" font-size="13" x="5.0" y="13.325" font-family="微软雅黑" font-weight="normal" font-style="normal" text-decoration="none" family="微软雅黑" text-anchor="middle" size="13">1</text></g></g><g id="ProcessOnG1205" transform="matrix(1.0,0.0,0.0,1.0,326.0,345.0)" opacity="1.0"><path id="ProcessOnPath1206" d="M0.0 0.0L32.0 0.0L32.0 32.0L0.0 32.0Z" stroke="#323232" stroke-width="2.0" stroke-dasharray="none" opacity="1.0" fill="#66ff66"/><g id="ProcessOnG1207" transform="matrix(1.0,0.0,0.0,1.0,10.0,7.875)"><text id="ProcessOnText1208" fill="#000000" font-size="13" x="5.0" y="13.325" font-family="微软雅黑" font-weight="normal" font-style="normal" text-decoration="none" family="微软雅黑" text-anchor="middle" size="13">1</text></g></g><g id="ProcessOnG1209" transform="matrix(1.0,0.0,0.0,1.0,358.0,345.0)" opacity="1.0"><path id="ProcessOnPath1210" d="M0.0 0.0L32.0 0.0L32.0 32.0L0.0 32.0Z" stroke="#323232" stroke-width="2.0" stroke-dasharray="none" opacity="1.0" fill="#ffff66"/><g id="ProcessOnG1211" transform="matrix(1.0,0.0,0.0,1.0,10.0,7.875)"><text id="ProcessOnText1212" fill="#000000" font-size="13" x="5.0" y="13.325" font-family="微软雅黑" font-weight="normal" font-style="normal" text-decoration="none" family="微软雅黑" text-anchor="middle" size="13">4</text></g></g><g id="ProcessOnG1213" transform="matrix(1.0,0.0,0.0,1.0,390.0,345.0)" opacity="1.0"><path id="ProcessOnPath1214" d="M0.0 0.0L32.0 0.0L32.0 32.0L0.0 32.0Z" stroke="#323232" stroke-width="2.0" stroke-dasharray="none" opacity="1.0" fill="#ffff66"/><g id="ProcessOnG1215" transform="matrix(1.0,0.0,0.0,1.0,10.0,7.875)"><text id="ProcessOnText1216" fill="#000000" font-size="13" x="5.0" y="13.325" font-family="微软雅黑" font-weight="normal" font-style="normal" text-decoration="none" family="微软雅黑" text-anchor="middle" size="13">4</text></g></g><g id="ProcessOnG1217" transform="matrix(1.0,0.0,0.0,1.0,422.0,345.0)" opacity="1.0"><path id="ProcessOnPath1218" d="M0.0 0.0L32.0 0.0L32.0 32.0L0.0 32.0Z" stroke="#323232" stroke-width="2.0" stroke-dasharray="none" opacity="1.0" fill="#66ffff"/><g id="ProcessOnG1219" transform="matrix(1.0,0.0,0.0,1.0,10.0,7.875)"><text id="ProcessOnText1220" fill="#000000" font-size="13" x="5.0" y="13.325" font-family="微软雅黑" font-weight="normal" font-style="normal" text-decoration="none" family="微软雅黑" text-anchor="middle" size="13">5</text></g></g><g id="ProcessOnG1221" transform="matrix(1.0,0.0,0.0,1.0,454.0,345.0)" opacity="1.0"><path id="ProcessOnPath1222" d="M0.0 0.0L32.0 0.0L32.0 32.0L0.0 32.0Z" stroke="#323232" stroke-width="2.0" stroke-dasharray="none" opacity="1.0" fill="#66ffff"/><g id="ProcessOnG1223" transform="matrix(1.0,0.0,0.0,1.0,10.0,7.875)"><text id="ProcessOnText1224" fill="#000000" font-size="13" x="5.0" y="13.325" font-family="微软雅黑" font-weight="normal" font-style="normal" text-decoration="none" family="微软雅黑" text-anchor="middle" size="13">5</text></g></g><g id="ProcessOnG1225" transform="matrix(1.0,0.0,0.0,1.0,486.0,345.0)" opacity="1.0"><path id="ProcessOnPath1226" d="M0.0 0.0L32.0 0.0L32.0 32.0L0.0 32.0Z" stroke="#323232" stroke-width="2.0" stroke-dasharray="none" opacity="1.0" fill="#ffb366"/><g id="ProcessOnG1227" transform="matrix(1.0,0.0,0.0,1.0,10.0,7.875)"><text id="ProcessOnText1228" fill="#000000" font-size="13" x="5.0" y="13.325" font-family="微软雅黑" font-weight="normal" font-style="normal" text-decoration="none" family="微软雅黑" text-anchor="middle" size="13">6</text></g></g><g id="ProcessOnG1229" transform="matrix(1.0,0.0,0.0,1.0,518.0,345.0)" opacity="1.0"><path id="ProcessOnPath1230" d="M0.0 0.0L32.0 0.0L32.0 32.0L0.0 32.0Z" stroke="#323232" stroke-width="2.0" stroke-dasharray="none" opacity="1.0" fill="#ffb366"/><g id="ProcessOnG1231" transform="matrix(1.0,0.0,0.0,1.0,10.0,7.875)"><text id="ProcessOnText1232" fill="#000000" font-size="13" x="5.0" y="13.325" font-family="微软雅黑" font-weight="normal" font-style="normal" text-decoration="none" family="微软雅黑" text-anchor="middle" size="13">6</text></g></g><g id="ProcessOnG1233" transform="matrix(1.0,0.0,0.0,1.0,550.0,345.0)" opacity="1.0"><path id="ProcessOnPath1234" d="M0.0 0.0L32.0 0.0L32.0 32.0L0.0 32.0Z" stroke="#323232" stroke-width="2.0" stroke-dasharray="none" opacity="1.0" fill="#ffb366"/><g id="ProcessOnG1235" transform="matrix(1.0,0.0,0.0,1.0,10.0,7.875)"><text id="ProcessOnText1236" fill="#000000" font-size="13" x="5.0" y="13.325" font-family="微软雅黑" font-weight="normal" font-style="normal" text-decoration="none" family="微软雅黑" text-anchor="middle" size="13">6</text></g></g><g id="ProcessOnG1237" transform="matrix(1.0,0.0,0.0,1.0,217.0,349.0)" opacity="1.0"><path id="ProcessOnPath1238" d="M0.0 0.0L32.0 0.0L32.0 24.0L0.0 24.0Z" stroke="none" stroke-width="0.0" stroke-dasharray="none" opacity="1.0" fill="none"/><g id="ProcessOnG1239" transform="matrix(1.0,0.0,0.0,1.0,0.0,3.875)"><text id="ProcessOnText1240" fill="#000000" font-size="13" x="15.0" y="13.325" font-family="微软雅黑" font-weight="normal" font-style="normal" text-decoration="none" family="微软雅黑" text-anchor="middle" size="13">(d)</text></g></g><g id="ProcessOnG1241" transform="matrix(1.0,0.0,0.0,1.0,262.0,411.0)" opacity="1.0"><path id="ProcessOnPath1242" d="M0.0 0.0L32.0 0.0L32.0 32.0L0.0 32.0Z" stroke="#323232" stroke-width="2.0" stroke-dasharray="none" opacity="1.0" fill="#66ff66"/><g id="ProcessOnG1243" transform="matrix(1.0,0.0,0.0,1.0,10.0,7.875)"><text id="ProcessOnText1244" fill="#000000" font-size="13" x="5.0" y="13.325" font-family="微软雅黑" font-weight="normal" font-style="normal" text-decoration="none" family="微软雅黑" text-anchor="middle" size="13">1</text></g></g><g id="ProcessOnG1245" transform="matrix(1.0,0.0,0.0,1.0,294.0,411.0)" opacity="1.0"><path id="ProcessOnPath1246" d="M0.0 0.0L32.0 0.0L32.0 32.0L0.0 32.0Z" stroke="#323232" stroke-width="2.0" stroke-dasharray="none" opacity="1.0" fill="#66ff66"/><g id="ProcessOnG1247" transform="matrix(1.0,0.0,0.0,1.0,10.0,7.875)"><text id="ProcessOnText1248" fill="#000000" font-size="13" x="5.0" y="13.325" font-family="微软雅黑" font-weight="normal" font-style="normal" text-decoration="none" family="微软雅黑" text-anchor="middle" size="13">1</text></g></g><g id="ProcessOnG1249" transform="matrix(1.0,0.0,0.0,1.0,326.0,411.0)" opacity="1.0"><path id="ProcessOnPath1250" d="M0.0 0.0L32.0 0.0L32.0 32.0L0.0 32.0Z" stroke="#323232" stroke-width="2.0" stroke-dasharray="none" opacity="1.0" fill="#66ff66"/><g id="ProcessOnG1251" transform="matrix(1.0,0.0,0.0,1.0,10.0,7.875)"><text id="ProcessOnText1252" fill="#000000" font-size="13" x="5.0" y="13.325" font-family="微软雅黑" font-weight="normal" font-style="normal" text-decoration="none" family="微软雅黑" text-anchor="middle" size="13">1</text></g></g><g id="ProcessOnG1253" transform="matrix(1.0,0.0,0.0,1.0,358.0,411.0)" opacity="1.0"><path id="ProcessOnPath1254" d="M0.0 0.0L32.0 0.0L32.0 32.0L0.0 32.0Z" stroke="#323232" stroke-width="2.0" stroke-dasharray="none" opacity="1.0" fill="#ffff66"/><g id="ProcessOnG1255" transform="matrix(1.0,0.0,0.0,1.0,10.0,7.875)"><text id="ProcessOnText1256" fill="#000000" font-size="13" x="5.0" y="13.325" font-family="微软雅黑" font-weight="normal" font-style="normal" text-decoration="none" family="微软雅黑" text-anchor="middle" size="13">4</text></g></g><g id="ProcessOnG1257" transform="matrix(1.0,0.0,0.0,1.0,390.0,411.0)" opacity="1.0"><path id="ProcessOnPath1258" d="M0.0 0.0L32.0 0.0L32.0 32.0L0.0 32.0Z" stroke="#323232" stroke-width="2.0" stroke-dasharray="none" opacity="1.0" fill="#ffff66"/><g id="ProcessOnG1259" transform="matrix(1.0,0.0,0.0,1.0,10.0,7.875)"><text id="ProcessOnText1260" fill="#000000" font-size="13" x="5.0" y="13.325" font-family="微软雅黑" font-weight="normal" font-style="normal" text-decoration="none" family="微软雅黑" text-anchor="middle" size="13">4</text></g></g><g id="ProcessOnG1261" transform="matrix(1.0,0.0,0.0,1.0,217.0,415.0)" opacity="1.0"><path id="ProcessOnPath1262" d="M0.0 0.0L32.0 0.0L32.0 24.0L0.0 24.0Z" stroke="none" stroke-width="0.0" stroke-dasharray="none" opacity="1.0" fill="none"/><g id="ProcessOnG1263" transform="matrix(1.0,0.0,0.0,1.0,0.0,3.875)"><text id="ProcessOnText1264" fill="#000000" font-size="13" x="15.0" y="13.325" font-family="微软雅黑" font-weight="normal" font-style="normal" text-decoration="none" family="微软雅黑" text-anchor="middle" size="13">(e)</text></g></g><g id="ProcessOnG1265" transform="matrix(1.0,0.0,0.0,1.0,262.0,474.0)" opacity="1.0"><path id="ProcessOnPath1266" d="M0.0 0.0L32.0 0.0L32.0 32.0L0.0 32.0Z" stroke="#323232" stroke-width="2.0" stroke-dasharray="none" opacity="1.0" fill="#66ff66"/><g id="ProcessOnG1267" transform="matrix(1.0,0.0,0.0,1.0,10.0,7.875)"><text id="ProcessOnText1268" fill="#000000" font-size="13" x="5.0" y="13.325" font-family="微软雅黑" font-weight="normal" font-style="normal" text-decoration="none" family="微软雅黑" text-anchor="middle" size="13">1</text></g></g><g id="ProcessOnG1269" transform="matrix(1.0,0.0,0.0,1.0,294.0,474.0)" opacity="1.0"><path id="ProcessOnPath1270" d="M0.0 0.0L32.0 0.0L32.0 32.0L0.0 32.0Z" stroke="#323232" stroke-width="2.0" stroke-dasharray="none" opacity="1.0" fill="#66ff66"/><g id="ProcessOnG1271" transform="matrix(1.0,0.0,0.0,1.0,10.0,7.875)"><text id="ProcessOnText1272" fill="#000000" font-size="13" x="5.0" y="13.325" font-family="微软雅黑" font-weight="normal" font-style="normal" text-decoration="none" family="微软雅黑" text-anchor="middle" size="13">1</text></g></g><g id="ProcessOnG1273" transform="matrix(1.0,0.0,0.0,1.0,326.0,474.0)" opacity="1.0"><path id="ProcessOnPath1274" d="M0.0 0.0L32.0 0.0L32.0 32.0L0.0 32.0Z" stroke="#323232" stroke-width="2.0" stroke-dasharray="none" opacity="1.0" fill="#66ff66"/><g id="ProcessOnG1275" transform="matrix(1.0,0.0,0.0,1.0,10.0,7.875)"><text id="ProcessOnText1276" fill="#000000" font-size="13" x="5.0" y="13.325" font-family="微软雅黑" font-weight="normal" font-style="normal" text-decoration="none" family="微软雅黑" text-anchor="middle" size="13">1</text></g></g><g id="ProcessOnG1277" transform="matrix(1.0,0.0,0.0,1.0,358.0,474.0)" opacity="1.0"><path id="ProcessOnPath1278" d="M0.0 0.0L32.0 0.0L32.0 32.0L0.0 32.0Z" stroke="#323232" stroke-width="2.0" stroke-dasharray="none" opacity="1.0" fill="#ff6666"/><g id="ProcessOnG1279" transform="matrix(1.0,0.0,0.0,1.0,10.0,7.875)"><text id="ProcessOnText1280" fill="#000000" font-size="13" x="5.0" y="13.325" font-family="微软雅黑" font-weight="normal" font-style="normal" text-decoration="none" family="微软雅黑" text-anchor="middle" size="13">2</text></g></g><g id="ProcessOnG1281" transform="matrix(1.0,0.0,0.0,1.0,390.0,474.0)" opacity="1.0"><path id="ProcessOnPath1282" d="M0.0 0.0L32.0 0.0L32.0 32.0L0.0 32.0Z" stroke="#323232" stroke-width="2.0" stroke-dasharray="none" opacity="1.0" fill="#ff6666"/><g id="ProcessOnG1283" transform="matrix(1.0,0.0,0.0,1.0,10.0,7.875)"><text id="ProcessOnText1284" fill="#000000" font-size="13" x="5.0" y="13.325" font-family="微软雅黑" font-weight="normal" font-style="normal" text-decoration="none" family="微软雅黑" text-anchor="middle" size="13">2</text></g></g><g id="ProcessOnG1285" transform="matrix(1.0,0.0,0.0,1.0,422.0,474.0)" opacity="1.0"><path id="ProcessOnPath1286" d="M0.0 0.0L32.0 0.0L32.0 32.0L0.0 32.0Z" stroke="#323232" stroke-width="2.0" stroke-dasharray="none" opacity="1.0" fill="#ff6666"/><g id="ProcessOnG1287" transform="matrix(1.0,0.0,0.0,1.0,10.0,7.875)"><text id="ProcessOnText1288" fill="#000000" font-size="13" x="5.0" y="13.325" font-family="微软雅黑" font-weight="normal" font-style="normal" text-decoration="none" family="微软雅黑" text-anchor="middle" size="13">2</text></g></g><g id="ProcessOnG1289" transform="matrix(1.0,0.0,0.0,1.0,454.0,474.0)" opacity="1.0"><path id="ProcessOnPath1290" d="M0.0 0.0L32.0 0.0L32.0 32.0L0.0 32.0Z" stroke="#323232" stroke-width="2.0" stroke-dasharray="none" opacity="1.0" fill="#6666ff"/><g id="ProcessOnG1291" transform="matrix(1.0,0.0,0.0,1.0,10.0,7.875)"><text id="ProcessOnText1292" fill="#000000" font-size="13" x="5.0" y="13.325" font-family="微软雅黑" font-weight="normal" font-style="normal" text-decoration="none" family="微软雅黑" text-anchor="middle" size="13">3</text></g></g><g id="ProcessOnG1293" transform="matrix(1.0,0.0,0.0,1.0,486.0,474.0)" opacity="1.0"><path id="ProcessOnPath1294" d="M0.0 0.0L32.0 0.0L32.0 32.0L0.0 32.0Z" stroke="#323232" stroke-width="2.0" stroke-dasharray="none" opacity="1.0" fill="#6666ff"/><g id="ProcessOnG1295" transform="matrix(1.0,0.0,0.0,1.0,10.0,7.875)"><text id="ProcessOnText1296" fill="#000000" font-size="13" x="5.0" y="13.325" font-family="微软雅黑" font-weight="normal" font-style="normal" text-decoration="none" family="微软雅黑" text-anchor="middle" size="13">3</text></g></g><g id="ProcessOnG1297" transform="matrix(1.0,0.0,0.0,1.0,518.0,474.0)" opacity="1.0"><path id="ProcessOnPath1298" d="M0.0 0.0L32.0 0.0L32.0 32.0L0.0 32.0Z" stroke="#323232" stroke-width="2.0" stroke-dasharray="none" opacity="1.0" fill="#6666ff"/><g id="ProcessOnG1299" transform="matrix(1.0,0.0,0.0,1.0,10.0,7.875)"><text id="ProcessOnText1300" fill="#000000" font-size="13" x="5.0" y="13.325" font-family="微软雅黑" font-weight="normal" font-style="normal" text-decoration="none" family="微软雅黑" text-anchor="middle" size="13">3</text></g></g><g id="ProcessOnG1301" transform="matrix(1.0,0.0,0.0,1.0,550.0,474.0)" opacity="1.0"><path id="ProcessOnPath1302" d="M0.0 0.0L32.0 0.0L32.0 32.0L0.0 32.0Z" stroke="#323232" stroke-width="2.0" stroke-dasharray="none" opacity="1.0" fill="#6666ff"/><g id="ProcessOnG1303" transform="matrix(1.0,0.0,0.0,1.0,10.0,7.875)"><text id="ProcessOnText1304" fill="#000000" font-size="13" x="5.0" y="13.325" font-family="微软雅黑" font-weight="normal" font-style="normal" text-decoration="none" family="微软雅黑" text-anchor="middle" size="13">3</text></g></g><g id="ProcessOnG1305" transform="matrix(1.0,0.0,0.0,1.0,217.0,478.0)" opacity="1.0"><path id="ProcessOnPath1306" d="M0.0 0.0L32.0 0.0L32.0 24.0L0.0 24.0Z" stroke="none" stroke-width="0.0" stroke-dasharray="none" opacity="1.0" fill="none"/><g id="ProcessOnG1307" transform="matrix(1.0,0.0,0.0,1.0,0.0,3.875)"><text id="ProcessOnText1308" fill="#000000" font-size="13" x="15.0" y="13.325" font-family="微软雅黑" font-weight="normal" font-style="normal" text-decoration="none" family="微软雅黑" text-anchor="middle" size="13">(f)</text></g></g><g id="ProcessOnG1309" transform="matrix(1.0,0.0,0.0,1.0,582.0,282.0)" opacity="1.0"><path id="ProcessOnPath1310" d="M0.0 0.0L32.0 0.0L32.0 32.0L0.0 32.0Z" stroke="#323232" stroke-width="2.0" stroke-dasharray="none" opacity="1.0" fill="#ffb366"/><g id="ProcessOnG1311" transform="matrix(1.0,0.0,0.0,1.0,10.0,7.875)"><text id="ProcessOnText1312" fill="#000000" font-size="13" x="5.0" y="13.325" font-family="微软雅黑" font-weight="normal" font-style="normal" text-decoration="none" family="微软雅黑" text-anchor="middle" size="13">6</text></g></g><g id="ProcessOnG1313" transform="matrix(1.0,0.0,0.0,1.0,582.0,345.0)" opacity="1.0"><path id="ProcessOnPath1314" d="M0.0 0.0L32.0 0.0L32.0 32.0L0.0 32.0Z" stroke="#323232" stroke-width="2.0" stroke-dasharray="none" opacity="1.0" fill="#ff66ff"/><g id="ProcessOnG1315" transform="matrix(1.0,0.0,0.0,1.0,10.0,7.875)"><text id="ProcessOnText1316" fill="#000000" font-size="13" x="5.0" y="13.325" font-family="微软雅黑" font-weight="normal" font-style="normal" text-decoration="none" family="微软雅黑" text-anchor="middle" size="13">7</text></g></g><g id="ProcessOnG1317" transform="matrix(1.0,0.0,0.0,1.0,614.0,345.0)" opacity="1.0"><path id="ProcessOnPath1318" d="M0.0 0.0L32.0 0.0L32.0 32.0L0.0 32.0Z" stroke="#323232" stroke-width="2.0" stroke-dasharray="none" opacity="1.0" fill="#ff66ff"/><g id="ProcessOnG1319" transform="matrix(1.0,0.0,0.0,1.0,10.0,7.875)"><text id="ProcessOnText1320" fill="#000000" font-size="13" x="5.0" y="13.325" font-family="微软雅黑" font-weight="normal" font-style="normal" text-decoration="none" family="微软雅黑" text-anchor="middle" size="13">7</text></g></g><g id="ProcessOnG1321" transform="matrix(1.0,0.0,0.0,1.0,422.0,411.0)" opacity="1.0"><path id="ProcessOnPath1322" d="M0.0 0.0L32.0 0.0L32.0 32.0L0.0 32.0Z" stroke="#323232" stroke-width="2.0" stroke-dasharray="none" opacity="1.0" fill="#ffff66"/><g id="ProcessOnG1323" transform="matrix(1.0,0.0,0.0,1.0,10.0,7.875)"><text id="ProcessOnText1324" fill="#000000" font-size="13" x="5.0" y="13.325" font-family="微软雅黑" font-weight="normal" font-style="normal" text-decoration="none" family="微软雅黑" text-anchor="middle" size="13">4</text></g></g><g id="ProcessOnG1325" transform="matrix(1.0,0.0,0.0,1.0,454.0,411.0)" opacity="1.0"><path id="ProcessOnPath1326" d="M0.0 0.0L32.0 0.0L32.0 32.0L0.0 32.0Z" stroke="#323232" stroke-width="2.0" stroke-dasharray="none" opacity="1.0" fill="#ffff66"/><g id="ProcessOnG1327" transform="matrix(1.0,0.0,0.0,1.0,10.0,7.875)"><text id="ProcessOnText1328" fill="#000000" font-size="13" x="5.0" y="13.325" font-family="微软雅黑" font-weight="normal" font-style="normal" text-decoration="none" family="微软雅黑" text-anchor="middle" size="13">4</text></g></g><g id="ProcessOnG1329" transform="matrix(1.0,0.0,0.0,1.0,582.0,474.0)" opacity="1.0"><path id="ProcessOnPath1330" d="M0.0 0.0L32.0 0.0L32.0 32.0L0.0 32.0Z" stroke="#323232" stroke-width="2.0" stroke-dasharray="none" opacity="1.0" fill="#6666ff"/><g id="ProcessOnG1331" transform="matrix(1.0,0.0,0.0,1.0,10.0,7.875)"><text id="ProcessOnText1332" fill="#000000" font-size="13" x="5.0" y="13.325" font-family="微软雅黑" font-weight="normal" font-style="normal" text-decoration="none" family="微软雅黑" text-anchor="middle" size="13">3</text></g></g></g></g></svg>