<svg xmlns="http://www.w3.org/2000/svg" xmlns:xlink="http://www.w3.org/1999/xlink" id="processonSvg1000" viewBox="27.0 11.0 966.0 957.0" width="966.0" height="957.0"><defs id="ProcessOnDefs1001"><marker id="ProcessOnMarker1035" markerUnits="userSpaceOnUse" orient="auto" markerWidth="14.289086868996552" markerHeight="19.055054660878554" viewBox="-0.5877852522924731 -0.8090169943749475 14.289086868996552 19.055054660878554" refX="12.0" refY="8.71851033606433"><path id="ProcessOnPath1036" d="M0 0L12.0 8.71851033606433L0 17.43702067212866" stroke="#b266ff" stroke-width="2.0" fill="none" transform="matrix(1.0,0.0,0.0,1.0,0.0,0.0)"/></marker><marker id="ProcessOnMarker1042" markerUnits="userSpaceOnUse" orient="auto" markerWidth="14.289086868996552" markerHeight="19.055054660878554" viewBox="-0.5877852522924731 -0.8090169943749475 14.289086868996552 19.055054660878554" refX="12.0" refY="8.71851033606433"><path id="ProcessOnPath1043" d="M0 0L12.0 8.71851033606433L0 17.43702067212866" stroke="#b266ff" stroke-width="2.0" fill="none" transform="matrix(1.0,0.0,0.0,1.0,0.0,0.0)"/></marker><marker id="ProcessOnMarker1049" markerUnits="userSpaceOnUse" orient="auto" markerWidth="14.289086868996552" markerHeight="19.055054660878554" viewBox="-0.5877852522924731 -0.8090169943749475 14.289086868996552 19.055054660878554" refX="12.0" refY="8.71851033606433"><path id="ProcessOnPath1050" d="M0 0L12.0 8.71851033606433L0 17.43702067212866" stroke="#b266ff" stroke-width="2.0" fill="none" transform="matrix(1.0,0.0,0.0,1.0,0.0,0.0)"/></marker><marker id="ProcessOnMarker1056" markerUnits="userSpaceOnUse" orient="auto" markerWidth="14.289086868996552" markerHeight="19.055054660878554" viewBox="-0.5877852522924731 -0.8090169943749475 14.289086868996552 19.055054660878554" refX="12.0" refY="8.71851033606433"><path id="ProcessOnPath1057" d="M0 0L12.0 8.71851033606433L0 17.43702067212866" stroke="#b266ff" stroke-width="2.0" fill="none" transform="matrix(1.0,0.0,0.0,1.0,0.0,0.0)"/></marker><marker id="ProcessOnMarker1073" markerUnits="userSpaceOnUse" orient="auto" markerWidth="14.289086868996552" markerHeight="19.055054660878554" viewBox="-0.5877852522924731 -0.8090169943749475 14.289086868996552 19.055054660878554" refX="12.0" refY="8.71851033606433"><path id="ProcessOnPath1074" d="M0 0L12.0 8.71851033606433L0 17.43702067212866" stroke="#b266ff" stroke-width="2.0" fill="none" transform="matrix(1.0,0.0,0.0,1.0,0.0,0.0)"/></marker><marker id="ProcessOnMarker1080" markerUnits="userSpaceOnUse" orient="auto" markerWidth="14.289086868996552" markerHeight="19.055054660878554" viewBox="-0.5877852522924731 -0.8090169943749475 14.289086868996552 19.055054660878554" refX="12.0" refY="8.71851033606433"><path id="ProcessOnPath1081" d="M0 0L12.0 8.71851033606433L0 17.43702067212866" stroke="#b266ff" stroke-width="2.0" fill="none" transform="matrix(1.0,0.0,0.0,1.0,0.0,0.0)"/></marker><marker id="ProcessOnMarker1087" markerUnits="userSpaceOnUse" orient="auto" markerWidth="14.289086868996552" markerHeight="19.055054660878554" viewBox="-0.5877852522924731 -0.8090169943749475 14.289086868996552 19.055054660878554" refX="12.0" refY="8.71851033606433"><path id="ProcessOnPath1088" d="M0 0L12.0 8.71851033606433L0 17.43702067212866" stroke="#b266ff" stroke-width="2.0" fill="none" transform="matrix(1.0,0.0,0.0,1.0,0.0,0.0)"/></marker><marker id="ProcessOnMarker1094" markerUnits="userSpaceOnUse" orient="auto" markerWidth="14.289086868996552" markerHeight="19.055054660878554" viewBox="-0.5877852522924731 -0.8090169943749475 14.289086868996552 19.055054660878554" refX="12.0" refY="8.71851033606433"><path id="ProcessOnPath1095" d="M0 0L12.0 8.71851033606433L0 17.43702067212866" stroke="#66ffff" stroke-width="2.0" fill="none" transform="matrix(1.0,0.0,0.0,1.0,0.0,0.0)"/></marker><marker id="ProcessOnMarker1101" markerUnits="userSpaceOnUse" orient="auto" markerWidth="14.289086868996552" markerHeight="19.055054660878554" viewBox="-0.5877852522924731 -0.8090169943749475 14.289086868996552 19.055054660878554" refX="12.0" refY="8.71851033606433"><path id="ProcessOnPath1102" d="M0 0L12.0 8.71851033606433L0 17.43702067212866" stroke="#66ffff" stroke-width="2.0" fill="none" transform="matrix(1.0,0.0,0.0,1.0,0.0,0.0)"/></marker><marker id="ProcessOnMarker1108" markerUnits="userSpaceOnUse" orient="auto" markerWidth="14.289086868996552" markerHeight="19.055054660878554" viewBox="-0.5877852522924731 -0.8090169943749475 14.289086868996552 19.055054660878554" refX="12.0" refY="8.71851033606433"><path id="ProcessOnPath1109" d="M0 0L12.0 8.71851033606433L0 17.43702067212866" stroke="#66ffff" stroke-width="2.0" fill="none" transform="matrix(1.0,0.0,0.0,1.0,0.0,0.0)"/></marker><marker id="ProcessOnMarker1125" markerUnits="userSpaceOnUse" orient="auto" markerWidth="14.289086868996552" markerHeight="19.055054660878554" viewBox="-0.5877852522924731 -0.8090169943749475 14.289086868996552 19.055054660878554" refX="12.0" refY="8.71851033606433"><path id="ProcessOnPath1126" d="M0 0L12.0 8.71851033606433L0 17.43702067212866" stroke="#b266ff" stroke-width="2.0" fill="none" transform="matrix(1.0,0.0,0.0,1.0,0.0,0.0)"/></marker><marker id="ProcessOnMarker1132" markerUnits="userSpaceOnUse" orient="auto" markerWidth="14.289086868996552" markerHeight="19.055054660878554" viewBox="-0.5877852522924731 -0.8090169943749475 14.289086868996552 19.055054660878554" refX="12.0" refY="8.71851033606433"><path id="ProcessOnPath1133" d="M0 0L12.0 8.71851033606433L0 17.43702067212866" stroke="#b266ff" stroke-width="2.0" fill="none" transform="matrix(1.0,0.0,0.0,1.0,0.0,0.0)"/></marker><marker id="ProcessOnMarker1139" markerUnits="userSpaceOnUse" orient="auto" markerWidth="14.289086868996552" markerHeight="19.055054660878554" viewBox="-0.5877852522924731 -0.8090169943749475 14.289086868996552 19.055054660878554" refX="12.0" refY="8.71851033606433"><path id="ProcessOnPath1140" d="M0 0L12.0 8.71851033606433L0 17.43702067212866" stroke="#b266ff" stroke-width="2.0" fill="none" transform="matrix(1.0,0.0,0.0,1.0,0.0,0.0)"/></marker><marker id="ProcessOnMarker1146" markerUnits="userSpaceOnUse" orient="auto" markerWidth="14.289086868996552" markerHeight="19.055054660878554" viewBox="-0.5877852522924731 -0.8090169943749475 14.289086868996552 19.055054660878554" refX="1.1135163644116066" refY="8.71851033606433"><path id="ProcessOnPath1147" d="M0 0L12.0 8.71851033606433L0 17.43702067212866" stroke="#ffb366" stroke-width="2.0" fill="none" transform="matrix(-1.0,1.2246467991473532E-16,-1.2246467991473532E-16,-1.0,13.113516364411606,17.43702067212866)"/></marker><marker id="ProcessOnMarker1153" markerUnits="userSpaceOnUse" orient="auto" markerWidth="14.289086868996552" markerHeight="19.055054660878554" viewBox="-0.5877852522924731 -0.8090169943749475 14.289086868996552 19.055054660878554" refX="1.1135163644116066" refY="8.71851033606433"><path id="ProcessOnPath1154" d="M0 0L12.0 8.71851033606433L0 17.43702067212866" stroke="#ffb366" stroke-width="2.0" fill="none" transform="matrix(-1.0,1.2246467991473532E-16,-1.2246467991473532E-16,-1.0,13.113516364411606,17.43702067212866)"/></marker><marker id="ProcessOnMarker1160" markerUnits="userSpaceOnUse" orient="auto" markerWidth="14.289086868996552" markerHeight="19.055054660878554" viewBox="-0.5877852522924731 -0.8090169943749475 14.289086868996552 19.055054660878554" refX="1.1135163644116066" refY="8.71851033606433"><path id="ProcessOnPath1161" d="M0 0L12.0 8.71851033606433L0 17.43702067212866" stroke="#ffb366" stroke-width="2.0" fill="none" transform="matrix(-1.0,1.2246467991473532E-16,-1.2246467991473532E-16,-1.0,13.113516364411606,17.43702067212866)"/></marker><marker id="ProcessOnMarker1167" markerUnits="userSpaceOnUse" orient="auto" markerWidth="14.289086868996552" markerHeight="19.055054660878554" viewBox="-0.5877852522924731 -0.8090169943749475 14.289086868996552 19.055054660878554" refX="12.0" refY="8.71851033606433"><path id="ProcessOnPath1168" d="M0 0L12.0 8.71851033606433L0 17.43702067212866" stroke="#ff6666" stroke-width="2.0" fill="none" transform="matrix(1.0,0.0,0.0,1.0,0.0,0.0)"/></marker></defs><g id="ProcessOnG1002"><path id="ProcessOnPath1003" d="M27.0 11.0H993.0V968.0H27.0V11.0Z" fill="none"/><g id="ProcessOnG1004"><g id="ProcessOnG1005" transform="matrix(1.0,0.0,0.0,1.0,149.0,31.0)" opacity="1.0"><path id="ProcessOnPath1006" d="M0.0 24.0C0.0 -8.0 48.0 -8.0 48.0 24.0C48.0 56.0 0.0 56.0 0.0 24.0Z" stroke="#b266ff" stroke-width="2.0" stroke-dasharray="none" opacity="1.0" fill="#b266ff"/></g><g id="ProcessOnG1007" transform="matrix(1.0,0.0,0.0,1.0,206.0,40.5)" opacity="1.0"><path id="ProcessOnPath1008" d="M0.0 0.0L116.0 0.0L116.0 29.0L0.0 29.0Z" stroke="none" stroke-width="0.0" stroke-dasharray="none" opacity="1.0" fill="none"/><g id="ProcessOnG1009" transform="matrix(1.0,0.0,0.0,1.0,0.0,3.25)"><text id="ProcessOnText1010" fill="#000000" font-size="18" x="0.0" y="18.45" font-family="微软雅黑" font-weight="bold" font-style="normal" text-decoration="none" family="微软雅黑" text-anchor="start" size="18">Leader</text></g></g><g id="ProcessOnG1011" transform="matrix(1.0,0.0,0.0,1.0,356.0,31.0)" opacity="1.0"><path id="ProcessOnPath1012" d="M0.0 24.0C0.0 -8.0 48.0 -8.0 48.0 24.0C48.0 56.0 0.0 56.0 0.0 24.0Z" stroke="#66ffff" stroke-width="2.0" stroke-dasharray="none" opacity="1.0" fill="#66ffff"/></g><g id="ProcessOnG1013" transform="matrix(1.0,0.0,0.0,1.0,413.0,40.5)" opacity="1.0"><path id="ProcessOnPath1014" d="M0.0 0.0L116.0 0.0L116.0 29.0L0.0 29.0Z" stroke="none" stroke-width="0.0" stroke-dasharray="none" opacity="1.0" fill="none"/><g id="ProcessOnG1015" transform="matrix(1.0,0.0,0.0,1.0,0.0,3.25)"><text id="ProcessOnText1016" fill="#000000" font-size="18" x="0.0" y="18.45" font-family="微软雅黑" font-weight="bold" font-style="normal" text-decoration="none" family="微软雅黑" text-anchor="start" size="18">Candidates</text></g></g><g id="ProcessOnG1017" transform="matrix(1.0,0.0,0.0,1.0,579.0,31.0)" opacity="1.0"><path id="ProcessOnPath1018" d="M0.0 24.0C0.0 -8.0 48.0 -8.0 48.0 24.0C48.0 56.0 0.0 56.0 0.0 24.0Z" stroke="#ffb366" stroke-width="2.0" stroke-dasharray="none" opacity="1.0" fill="#ffb366"/></g><g id="ProcessOnG1019" transform="matrix(1.0,0.0,0.0,1.0,636.0,40.5)" opacity="1.0"><path id="ProcessOnPath1020" d="M0.0 0.0L116.0 0.0L116.0 29.0L0.0 29.0Z" stroke="none" stroke-width="0.0" stroke-dasharray="none" opacity="1.0" fill="none"/><g id="ProcessOnG1021" transform="matrix(1.0,0.0,0.0,1.0,0.0,3.25)"><text id="ProcessOnText1022" fill="#000000" font-size="18" x="0.0" y="18.45" font-family="微软雅黑" font-weight="bold" font-style="normal" text-decoration="none" family="微软雅黑" text-anchor="start" size="18">Followers</text></g></g><g id="ProcessOnG1023" transform="matrix(1.0,0.0,0.0,1.0,355.0,113.0)" opacity="1.0"><path id="ProcessOnPath1024" d="M0.0 24.0C0.0 -8.0 48.0 -8.0 48.0 24.0C48.0 56.0 0.0 56.0 0.0 24.0Z" stroke="#b266ff" stroke-width="2.0" stroke-dasharray="none" opacity="1.0" fill="#b266ff"/></g><g id="ProcessOnG1025" transform="matrix(1.0,0.0,0.0,1.0,617.0,166.0)" opacity="1.0"><path id="ProcessOnPath1026" d="M0.0 24.0C0.0 -8.0 48.0 -8.0 48.0 24.0C48.0 56.0 0.0 56.0 0.0 24.0Z" stroke="#ffb366" stroke-width="2.0" stroke-dasharray="none" opacity="1.0" fill="#ffb366"/></g><g id="ProcessOnG1027" transform="matrix(1.0,0.0,0.0,1.0,235.0,294.0)" opacity="1.0"><path id="ProcessOnPath1028" d="M0.0 24.0C0.0 -8.0 48.0 -8.0 48.0 24.0C48.0 56.0 0.0 56.0 0.0 24.0Z" stroke="#ffb366" stroke-width="2.0" stroke-dasharray="none" opacity="1.0" fill="#ffb366"/></g><g id="ProcessOnG1029" transform="matrix(1.0,0.0,0.0,1.0,373.0,442.0)" opacity="1.0"><path id="ProcessOnPath1030" d="M0.0 24.0C0.0 -8.0 48.0 -8.0 48.0 24.0C48.0 56.0 0.0 56.0 0.0 24.0Z" stroke="#ffb366" stroke-width="2.0" stroke-dasharray="none" opacity="1.0" fill="#ffb366"/></g><g id="ProcessOnG1031" transform="matrix(1.0,0.0,0.0,1.0,631.0,364.0)" opacity="1.0"><path id="ProcessOnPath1032" d="M0.0 24.0C0.0 -8.0 48.0 -8.0 48.0 24.0C48.0 56.0 0.0 56.0 0.0 24.0Z" stroke="#ffb366" stroke-width="2.0" stroke-dasharray="none" opacity="1.0" fill="#ffb366"/></g><g id="ProcessOnG1033"><path id="ProcessOnPath1034" d="M362.0641777724759 153.42884956125386L259.0 294.0" stroke="#b266ff" stroke-width="2.0" stroke-dasharray="10.0 4.0" fill="none" marker-end="url(#ProcessOnMarker1035)"/><g id="ProcessOnG1037" transform="matrix(1.0,0.0,0.0,1.0,310.53208888623794,215.58942478062693)"><path id="ProcessOnPath1038" d="M0 0H59.0V16.25H0Z" fill="#fff" transform="matrix(1.0,0.0,0.0,1.0,-29.5,0.0)"/><text id="ProcessOnText1039" fill="#b266ff" font-size="13" x="0.0" y="13.325" font-family="微软雅黑" font-weight="normal" font-style="normal" text-decoration="none" family="微软雅黑" text-anchor="middle" size="13">heartbeat</text></g></g><g id="ProcessOnG1040"><path id="ProcessOnPath1041" d="M379.0 161.0L397.0 442.0" stroke="#b266ff" stroke-width="2.0" stroke-dasharray="10.0 4.0" fill="none" marker-end="url(#ProcessOnMarker1042)"/><g id="ProcessOnG1044" transform="matrix(1.0,0.0,0.0,1.0,388.0,293.375)"><path id="ProcessOnPath1045" d="M0 0H59.0V16.25H0Z" fill="#fff" transform="matrix(1.0,0.0,0.0,1.0,-29.5,0.0)"/><text id="ProcessOnText1046" fill="#b266ff" font-size="13" x="0.0" y="13.325" font-family="微软雅黑" font-weight="normal" font-style="normal" text-decoration="none" family="微软雅黑" text-anchor="middle" size="13">heartbeat</text></g></g><g id="ProcessOnG1047"><path id="ProcessOnPath1048" d="M398.542543867133 151.27927069094687L631.0 388.0" stroke="#b266ff" stroke-width="2.0" stroke-dasharray="10.0 4.0" fill="none" marker-end="url(#ProcessOnMarker1049)"/><g id="ProcessOnG1051" transform="matrix(1.0,0.0,0.0,1.0,514.7712719335665,261.51463534547344)"><path id="ProcessOnPath1052" d="M0 0H59.0V16.25H0Z" fill="#fff" transform="matrix(1.0,0.0,0.0,1.0,-29.5,0.0)"/><text id="ProcessOnText1053" fill="#b266ff" font-size="13" x="0.0" y="13.325" font-family="微软雅黑" font-weight="normal" font-style="normal" text-decoration="none" family="微软雅黑" text-anchor="middle" size="13">heartbeat</text></g></g><g id="ProcessOnG1054"><path id="ProcessOnPath1055" d="M403.0 137.0L617.0 190.0" stroke="#b266ff" stroke-width="2.0" stroke-dasharray="10.0 4.0" fill="none" marker-end="url(#ProcessOnMarker1056)"/><g id="ProcessOnG1058" transform="matrix(1.0,0.0,0.0,1.0,510.0,155.375)"><path id="ProcessOnPath1059" d="M0 0H59.0V16.25H0Z" fill="#fff" transform="matrix(1.0,0.0,0.0,1.0,-29.5,0.0)"/><text id="ProcessOnText1060" fill="#b266ff" font-size="13" x="0.0" y="13.325" font-family="微软雅黑" font-weight="normal" font-style="normal" text-decoration="none" family="微软雅黑" text-anchor="middle" size="13">heartbeat</text></g></g><g id="ProcessOnG1061" transform="matrix(1.0,0.0,0.0,1.0,167.0,571.0)" opacity="1.0"><path id="ProcessOnPath1062" d="M0.0 24.0C0.0 -8.0 48.0 -8.0 48.0 24.0C48.0 56.0 0.0 56.0 0.0 24.0Z" stroke="#b266ff" stroke-width="2.0" stroke-dasharray="none" opacity="1.0" fill="#b266ff"/></g><g id="ProcessOnG1063" transform="matrix(1.0,0.0,0.0,1.0,429.0,624.0)" opacity="1.0"><path id="ProcessOnPath1064" d="M0.0 24.0C0.0 -8.0 48.0 -8.0 48.0 24.0C48.0 56.0 0.0 56.0 0.0 24.0Z" stroke="#66ffff" stroke-width="2.0" stroke-dasharray="none" opacity="1.0" fill="#66ffff"/></g><g id="ProcessOnG1065" transform="matrix(1.0,0.0,0.0,1.0,47.0,752.0)" opacity="1.0"><path id="ProcessOnPath1066" d="M0.0 24.0C0.0 -8.0 48.0 -8.0 48.0 24.0C48.0 56.0 0.0 56.0 0.0 24.0Z" stroke="#ffb366" stroke-width="2.0" stroke-dasharray="none" opacity="1.0" fill="#ffb366"/></g><g id="ProcessOnG1067" transform="matrix(1.0,0.0,0.0,1.0,185.0,900.0)" opacity="1.0"><path id="ProcessOnPath1068" d="M0.0 24.0C0.0 -8.0 48.0 -8.0 48.0 24.0C48.0 56.0 0.0 56.0 0.0 24.0Z" stroke="#ffb366" stroke-width="2.0" stroke-dasharray="none" opacity="1.0" fill="#ffb366"/></g><g id="ProcessOnG1069" transform="matrix(1.0,0.0,0.0,1.0,443.0,822.0)" opacity="1.0"><path id="ProcessOnPath1070" d="M0.0 24.0C0.0 -8.0 48.0 -8.0 48.0 24.0C48.0 56.0 0.0 56.0 0.0 24.0Z" stroke="#ffb366" stroke-width="2.0" stroke-dasharray="none" opacity="1.0" fill="#ffb366"/></g><g id="ProcessOnG1071"><path id="ProcessOnPath1072" d="M174.0641777724759 611.4288495612539L71.0 752.0" stroke="#b266ff" stroke-width="2.0" stroke-dasharray="10.0 4.0" fill="none" marker-end="url(#ProcessOnMarker1073)"/><g id="ProcessOnG1075" transform="matrix(1.0,0.0,0.0,1.0,122.53208888623794,673.5894247806269)"><path id="ProcessOnPath1076" d="M0 0H59.0V16.25H0Z" fill="#fff" transform="matrix(1.0,0.0,0.0,1.0,-29.5,0.0)"/><text id="ProcessOnText1077" fill="#b266ff" font-size="13" x="0.0" y="13.325" font-family="微软雅黑" font-weight="normal" font-style="normal" text-decoration="none" family="微软雅黑" text-anchor="middle" size="13">heartbeat</text></g></g><g id="ProcessOnG1078"><path id="ProcessOnPath1079" d="M191.0 619.0L209.0 900.0" stroke="#b266ff" stroke-width="2.0" stroke-dasharray="10.0 4.0" fill="none" marker-end="url(#ProcessOnMarker1080)"/><g id="ProcessOnG1082" transform="matrix(1.0,0.0,0.0,1.0,200.0,751.375)"><path id="ProcessOnPath1083" d="M0 0H59.0V16.25H0Z" fill="#fff" transform="matrix(1.0,0.0,0.0,1.0,-29.5,0.0)"/><text id="ProcessOnText1084" fill="#b266ff" font-size="13" x="0.0" y="13.325" font-family="微软雅黑" font-weight="normal" font-style="normal" text-decoration="none" family="微软雅黑" text-anchor="middle" size="13">heartbeat</text></g></g><g id="ProcessOnG1085"><path id="ProcessOnPath1086" d="M210.54254386713302 609.2792706909469L443.0 846.0" stroke="#b266ff" stroke-width="2.0" stroke-dasharray="10.0 4.0" fill="none" marker-end="url(#ProcessOnMarker1087)"/><g id="ProcessOnG1089" transform="matrix(1.0,0.0,0.0,1.0,326.7712719335665,719.5146353454734)"><path id="ProcessOnPath1090" d="M0 0H59.0V16.25H0Z" fill="#fff" transform="matrix(1.0,0.0,0.0,1.0,-29.5,0.0)"/><text id="ProcessOnText1091" fill="#b266ff" font-size="13" x="0.0" y="13.325" font-family="微软雅黑" font-weight="normal" font-style="normal" text-decoration="none" family="微软雅黑" text-anchor="middle" size="13">heartbeat</text></g></g><g id="ProcessOnG1092"><path id="ProcessOnPath1093" d="M453.0 672.0L467.0 822.0" stroke="#66ffff" stroke-width="2.0" stroke-dasharray="10.0 4.0" fill="none" marker-end="url(#ProcessOnMarker1094)"/><g id="ProcessOnG1096" transform="matrix(1.0,0.0,0.0,1.0,460.0,738.875)"><path id="ProcessOnPath1097" d="M0 0H77.0V16.25H0Z" fill="#fff" transform="matrix(1.0,0.0,0.0,1.0,-38.5,0.0)"/><text id="ProcessOnText1098" fill="#66ffff" font-size="13" x="0.0" y="13.325" font-family="微软雅黑" font-weight="normal" font-style="normal" text-decoration="none" family="微软雅黑" text-anchor="middle" size="13">request vote</text></g></g><g id="ProcessOnG1099"><path id="ProcessOnPath1100" d="M435.0641777724759 663.4288495612539L228.23395555688103 909.6427876096866" stroke="#66ffff" stroke-width="2.0" stroke-dasharray="10.0 4.0" fill="none" marker-end="url(#ProcessOnMarker1101)"/><g id="ProcessOnG1103" transform="matrix(1.0,0.0,0.0,1.0,331.64906666467846,778.4108185854702)"><path id="ProcessOnPath1104" d="M0 0H77.0V16.25H0Z" fill="#fff" transform="matrix(1.0,0.0,0.0,1.0,-38.5,0.0)"/><text id="ProcessOnText1105" fill="#66ffff" font-size="13" x="0.0" y="13.325" font-family="微软雅黑" font-weight="normal" font-style="normal" text-decoration="none" family="微软雅黑" text-anchor="middle" size="13">request vote</text></g></g><g id="ProcessOnG1106"><path id="ProcessOnPath1107" d="M429.0 648.0L91.72339182284406 763.2943057454041" stroke="#66ffff" stroke-width="2.0" stroke-dasharray="10.0 4.0" fill="none" marker-end="url(#ProcessOnMarker1108)"/><g id="ProcessOnG1110" transform="matrix(1.0,0.0,0.0,1.0,260.36169591142203,697.522152872702)"><path id="ProcessOnPath1111" d="M0 0H77.0V16.25H0Z" fill="#fff" transform="matrix(1.0,0.0,0.0,1.0,-38.5,0.0)"/><text id="ProcessOnText1112" fill="#66ffff" font-size="13" x="0.0" y="13.325" font-family="微软雅黑" font-weight="normal" font-style="normal" text-decoration="none" family="微软雅黑" text-anchor="middle" size="13">request vote</text></g></g><g id="ProcessOnG1113" transform="matrix(1.0,0.0,0.0,1.0,649.0,571.0)" opacity="1.0"><path id="ProcessOnPath1114" d="M0.0 24.0C0.0 -8.0 48.0 -8.0 48.0 24.0C48.0 56.0 0.0 56.0 0.0 24.0Z" stroke="#b266ff" stroke-width="2.0" stroke-dasharray="none" opacity="1.0" fill="#b266ff"/></g><g id="ProcessOnG1115" transform="matrix(1.0,0.0,0.0,1.0,911.0,624.0)" opacity="1.0"><path id="ProcessOnPath1116" d="M0.0 24.0C0.0 -8.0 48.0 -8.0 48.0 24.0C48.0 56.0 0.0 56.0 0.0 24.0Z" stroke="#66ffff" stroke-width="2.0" stroke-dasharray="none" opacity="1.0" fill="#66ffff"/></g><g id="ProcessOnG1117" transform="matrix(1.0,0.0,0.0,1.0,529.0,752.0)" opacity="1.0"><path id="ProcessOnPath1118" d="M0.0 24.0C0.0 -8.0 48.0 -8.0 48.0 24.0C48.0 56.0 0.0 56.0 0.0 24.0Z" stroke="#ffb366" stroke-width="2.0" stroke-dasharray="none" opacity="1.0" fill="#ffb366"/></g><g id="ProcessOnG1119" transform="matrix(1.0,0.0,0.0,1.0,667.0,900.0)" opacity="1.0"><path id="ProcessOnPath1120" d="M0.0 24.0C0.0 -8.0 48.0 -8.0 48.0 24.0C48.0 56.0 0.0 56.0 0.0 24.0Z" stroke="#ffb366" stroke-width="2.0" stroke-dasharray="none" opacity="1.0" fill="#ffb366"/></g><g id="ProcessOnG1121" transform="matrix(1.0,0.0,0.0,1.0,925.0,822.0)" opacity="1.0"><path id="ProcessOnPath1122" d="M0.0 24.0C0.0 -8.0 48.0 -8.0 48.0 24.0C48.0 56.0 0.0 56.0 0.0 24.0Z" stroke="#ffb366" stroke-width="2.0" stroke-dasharray="none" opacity="1.0" fill="#ffb366"/></g><g id="ProcessOnG1123"><path id="ProcessOnPath1124" d="M656.0641777724759 611.4288495612539L553.0 752.0" stroke="#b266ff" stroke-width="2.0" stroke-dasharray="10.0 4.0" fill="none" marker-end="url(#ProcessOnMarker1125)"/><g id="ProcessOnG1127" transform="matrix(1.0,0.0,0.0,1.0,604.532088886238,673.5894247806269)"><path id="ProcessOnPath1128" d="M0 0H59.0V16.25H0Z" fill="#fff" transform="matrix(1.0,0.0,0.0,1.0,-29.5,0.0)"/><text id="ProcessOnText1129" fill="#b266ff" font-size="13" x="0.0" y="13.325" font-family="微软雅黑" font-weight="normal" font-style="normal" text-decoration="none" family="微软雅黑" text-anchor="middle" size="13">heartbeat</text></g></g><g id="ProcessOnG1130"><path id="ProcessOnPath1131" d="M673.0 619.0L691.0 900.0" stroke="#b266ff" stroke-width="2.0" stroke-dasharray="10.0 4.0" fill="none" marker-end="url(#ProcessOnMarker1132)"/><g id="ProcessOnG1134" transform="matrix(1.0,0.0,0.0,1.0,682.0,751.375)"><path id="ProcessOnPath1135" d="M0 0H59.0V16.25H0Z" fill="#fff" transform="matrix(1.0,0.0,0.0,1.0,-29.5,0.0)"/><text id="ProcessOnText1136" fill="#b266ff" font-size="13" x="0.0" y="13.325" font-family="微软雅黑" font-weight="normal" font-style="normal" text-decoration="none" family="微软雅黑" text-anchor="middle" size="13">heartbeat</text></g></g><g id="ProcessOnG1137"><path id="ProcessOnPath1138" d="M692.542543867133 609.2792706909469L925.0 846.0" stroke="#b266ff" stroke-width="2.0" stroke-dasharray="10.0 4.0" fill="none" marker-end="url(#ProcessOnMarker1139)"/><g id="ProcessOnG1141" transform="matrix(1.0,0.0,0.0,1.0,808.7712719335665,719.5146353454734)"><path id="ProcessOnPath1142" d="M0 0H59.0V16.25H0Z" fill="#fff" transform="matrix(1.0,0.0,0.0,1.0,-29.5,0.0)"/><text id="ProcessOnText1143" fill="#b266ff" font-size="13" x="0.0" y="13.325" font-family="微软雅黑" font-weight="normal" font-style="normal" text-decoration="none" family="微软雅黑" text-anchor="middle" size="13">heartbeat</text></g></g><g id="ProcessOnG1144"><path id="ProcessOnPath1145" d="M935.0 672.0L949.0 822.0" stroke="#ffb366" stroke-width="2.0" stroke-dasharray="10.0 4.0" fill="none" marker-start="url(#ProcessOnMarker1146)"/><g id="ProcessOnG1148" transform="matrix(1.0,0.0,0.0,1.0,942.0,738.875)"><path id="ProcessOnPath1149" d="M0 0H41.0V16.25H0Z" fill="#fff" transform="matrix(1.0,0.0,0.0,1.0,-20.5,0.0)"/><text id="ProcessOnText1150" fill="#ffb366" font-size="13" x="0.0" y="13.325" font-family="微软雅黑" font-weight="normal" font-style="normal" text-decoration="none" family="微软雅黑" text-anchor="middle" size="13">denied</text></g></g><g id="ProcessOnG1151"><path id="ProcessOnPath1152" d="M917.0641777724759 663.4288495612539L710.233955556881 909.6427876096866" stroke="#ffb366" stroke-width="2.0" stroke-dasharray="10.0 4.0" fill="none" marker-start="url(#ProcessOnMarker1153)"/><g id="ProcessOnG1155" transform="matrix(1.0,0.0,0.0,1.0,813.6490666646785,778.4108185854702)"><path id="ProcessOnPath1156" d="M0 0H41.0V16.25H0Z" fill="#fff" transform="matrix(1.0,0.0,0.0,1.0,-20.5,0.0)"/><text id="ProcessOnText1157" fill="#ffb366" font-size="13" x="0.0" y="13.325" font-family="微软雅黑" font-weight="normal" font-style="normal" text-decoration="none" family="微软雅黑" text-anchor="middle" size="13">denied</text></g></g><g id="ProcessOnG1158"><path id="ProcessOnPath1159" d="M911.0 648.0L573.7233918228441 763.2943057454041" stroke="#ffb366" stroke-width="2.0" stroke-dasharray="10.0 4.0" fill="none" marker-start="url(#ProcessOnMarker1160)"/><g id="ProcessOnG1162" transform="matrix(1.0,0.0,0.0,1.0,742.361695911422,697.522152872702)"><path id="ProcessOnPath1163" d="M0 0H41.0V16.25H0Z" fill="#fff" transform="matrix(1.0,0.0,0.0,1.0,-20.5,0.0)"/><text id="ProcessOnText1164" fill="#ffb366" font-size="13" x="0.0" y="13.325" font-family="微软雅黑" font-weight="normal" font-style="normal" text-decoration="none" family="微软雅黑" text-anchor="middle" size="13">denied</text></g></g><g id="ProcessOnG1165"><path id="ProcessOnPath1166" d="M215.0 595.0L433.06217782649105 635.5" stroke="#ff6666" stroke-width="2.0" stroke-dasharray="10.0 4.0" fill="none" marker-end="url(#ProcessOnMarker1167)"/><g id="ProcessOnG1169" transform="matrix(1.0,0.0,0.0,1.0,324.0310889132455,607.125)"><path id="ProcessOnPath1170" d="M0 0H100.0V16.25H0Z" fill="#fff" transform="matrix(1.0,0.0,0.0,1.0,-50.0,0.0)"/><text id="ProcessOnText1171" fill="#ff6666" font-size="13" x="0.0" y="13.325" font-family="微软雅黑" font-weight="normal" font-style="normal" text-decoration="none" family="微软雅黑" text-anchor="middle" size="13">election timeout</text></g></g></g></g></svg>