<svg xmlns="http://www.w3.org/2000/svg" xmlns:xlink="http://www.w3.org/1999/xlink" id="processonSvg1000" viewBox="182.0 47.0 689.0 629.0" width="689.0" height="629.0"><defs id="ProcessOnDefs1001"><marker id="ProcessOnMarker1203" markerUnits="userSpaceOnUse" orient="auto" markerWidth="14.289086868996552" markerHeight="19.055054660878554" viewBox="-0.5877852522924731 -0.8090169943749475 14.289086868996552 19.055054660878554" refX="1.1135163644116066" refY="8.71851033606433"><path id="ProcessOnPath1204" d="M0 0L12.0 8.71851033606433L0 17.43702067212866" stroke="#323232" stroke-width="2.0" fill="none" transform="matrix(-1.0,1.2246467991473532E-16,-1.2246467991473532E-16,-1.0,13.113516364411606,17.43702067212866)"/></marker><marker id="ProcessOnMarker1211" markerUnits="userSpaceOnUse" orient="auto" markerWidth="14.289086868996552" markerHeight="19.055054660878554" viewBox="-0.5877852522924731 -0.8090169943749475 14.289086868996552 19.055054660878554" refX="12.0" refY="8.71851033606433"><path id="ProcessOnPath1212" d="M0 0L12.0 8.71851033606433L0 17.43702067212866" stroke="#323232" stroke-width="2.0" fill="none" transform="matrix(1.0,0.0,0.0,1.0,0.0,0.0)"/></marker></defs><g id="ProcessOnG1002"><path id="ProcessOnPath1003" d="M182.0 47.0H871.0V676.0H182.0V47.0Z" fill="none"/><g id="ProcessOnG1004"><g id="ProcessOnG1005" transform="matrix(1.0,0.0,0.0,1.0,202.0,89.0)" opacity="1.0"><path id="ProcessOnPath1006" d="M0.0 0.0L61.0 0.0L61.0 40.0L0.0 40.0Z" stroke="#323232" stroke-width="2.0" stroke-dasharray="none" opacity="1.0" fill="#66ffb3"/><g id="ProcessOnG1007" transform="matrix(1.0,0.0,0.0,1.0,10.0,3.75)"><text id="ProcessOnText1008" fill="#000000" font-size="13" x="19.5" y="13.325" font-family="微软雅黑" font-weight="normal" font-style="normal" text-decoration="none" family="微软雅黑" text-anchor="middle" size="13">1</text><text id="ProcessOnText1009" fill="#000000" font-size="13" x="19.5" y="29.575" font-family="微软雅黑" font-weight="normal" font-style="normal" text-decoration="none" family="微软雅黑" text-anchor="middle" size="13">x &lt;- 1</text></g></g><g id="ProcessOnG1010" transform="matrix(1.0,0.0,0.0,1.0,263.0,89.0)" opacity="1.0"><path id="ProcessOnPath1011" d="M0.0 0.0L61.0 0.0L61.0 40.0L0.0 40.0Z" stroke="#323232" stroke-width="2.0" stroke-dasharray="none" opacity="1.0" fill="#66ffb3"/><g id="ProcessOnG1012" transform="matrix(1.0,0.0,0.0,1.0,10.0,3.75)"><text id="ProcessOnText1013" fill="#000000" font-size="13" x="19.5" y="13.325" font-family="微软雅黑" font-weight="normal" font-style="normal" text-decoration="none" family="微软雅黑" text-anchor="middle" size="13">1</text><text id="ProcessOnText1014" fill="#000000" font-size="13" x="19.5" y="29.575" font-family="微软雅黑" font-weight="normal" font-style="normal" text-decoration="none" family="微软雅黑" text-anchor="middle" size="13">y &lt;- 2</text></g></g><g id="ProcessOnG1015" transform="matrix(1.0,0.0,0.0,1.0,324.0,89.0)" opacity="1.0"><path id="ProcessOnPath1016" d="M0.0 0.0L61.0 0.0L61.0 40.0L0.0 40.0Z" stroke="#323232" stroke-width="2.0" stroke-dasharray="none" opacity="1.0" fill="#66ffb3"/><g id="ProcessOnG1017" transform="matrix(1.0,0.0,0.0,1.0,10.0,3.75)"><text id="ProcessOnText1018" fill="#000000" font-size="13" x="19.5" y="13.325" font-family="微软雅黑" font-weight="normal" font-style="normal" text-decoration="none" family="微软雅黑" text-anchor="middle" size="13">1</text><text id="ProcessOnText1019" fill="#000000" font-size="13" x="19.5" y="29.575" font-family="微软雅黑" font-weight="normal" font-style="normal" text-decoration="none" family="微软雅黑" text-anchor="middle" size="13">x &lt;- 3</text></g></g><g id="ProcessOnG1020" transform="matrix(1.0,0.0,0.0,1.0,202.0,67.0)" opacity="1.0"><path id="ProcessOnPath1021" d="M0.0 0.0L61.0 0.0L61.0 22.0L0.0 22.0Z" stroke="none" stroke-width="0.0" stroke-dasharray="none" opacity="1.0" fill="none"/><g id="ProcessOnG1022" transform="matrix(1.0,0.0,0.0,1.0,0.0,2.875)"><text id="ProcessOnText1023" fill="#000000" font-size="13" x="29.5" y="13.325" font-family="微软雅黑" font-weight="bold" font-style="normal" text-decoration="none" family="微软雅黑" text-anchor="middle" size="13">1</text></g></g><g id="ProcessOnG1024" transform="matrix(1.0,0.0,0.0,1.0,263.0,67.0)" opacity="1.0"><path id="ProcessOnPath1025" d="M0.0 0.0L61.0 0.0L61.0 22.0L0.0 22.0Z" stroke="none" stroke-width="0.0" stroke-dasharray="none" opacity="1.0" fill="none"/><g id="ProcessOnG1026" transform="matrix(1.0,0.0,0.0,1.0,0.0,2.875)"><text id="ProcessOnText1027" fill="#000000" font-size="13" x="29.5" y="13.325" font-family="微软雅黑" font-weight="bold" font-style="normal" text-decoration="none" family="微软雅黑" text-anchor="middle" size="13">2</text></g></g><g id="ProcessOnG1028" transform="matrix(1.0,0.0,0.0,1.0,324.0,67.0)" opacity="1.0"><path id="ProcessOnPath1029" d="M0.0 0.0L61.0 0.0L61.0 22.0L0.0 22.0Z" stroke="none" stroke-width="0.0" stroke-dasharray="none" opacity="1.0" fill="none"/><g id="ProcessOnG1030" transform="matrix(1.0,0.0,0.0,1.0,0.0,2.875)"><text id="ProcessOnText1031" fill="#000000" font-size="13" x="29.5" y="13.325" font-family="微软雅黑" font-weight="bold" font-style="normal" text-decoration="none" family="微软雅黑" text-anchor="middle" size="13">3</text></g></g><g id="ProcessOnG1032" transform="matrix(1.0,0.0,0.0,1.0,385.0,89.0)" opacity="1.0"><path id="ProcessOnPath1033" d="M0.0 0.0L61.0 0.0L61.0 40.0L0.0 40.0Z" stroke="#323232" stroke-width="2.0" stroke-dasharray="none" opacity="1.0" fill="#ffff66"/><g id="ProcessOnG1034" transform="matrix(1.0,0.0,0.0,1.0,10.0,3.75)"><text id="ProcessOnText1035" fill="#000000" font-size="13" x="19.5" y="13.325" font-family="微软雅黑" font-weight="normal" font-style="normal" text-decoration="none" family="微软雅黑" text-anchor="middle" size="13">2</text><text id="ProcessOnText1036" fill="#000000" font-size="13" x="19.5" y="29.575" font-family="微软雅黑" font-weight="normal" font-style="normal" text-decoration="none" family="微软雅黑" text-anchor="middle" size="13">x &lt;- 5</text></g></g><g id="ProcessOnG1037" transform="matrix(1.0,0.0,0.0,1.0,385.0,67.0)" opacity="1.0"><path id="ProcessOnPath1038" d="M0.0 0.0L61.0 0.0L61.0 22.0L0.0 22.0Z" stroke="none" stroke-width="0.0" stroke-dasharray="none" opacity="1.0" fill="none"/><g id="ProcessOnG1039" transform="matrix(1.0,0.0,0.0,1.0,0.0,2.875)"><text id="ProcessOnText1040" fill="#000000" font-size="13" x="29.5" y="13.325" font-family="微软雅黑" font-weight="bold" font-style="normal" text-decoration="none" family="微软雅黑" text-anchor="middle" size="13">4</text></g></g><g id="ProcessOnG1041" transform="matrix(1.0,0.0,0.0,1.0,446.0,89.0)" opacity="1.0"><path id="ProcessOnPath1042" d="M0.0 0.0L61.0 0.0L61.0 40.0L0.0 40.0Z" stroke="#323232" stroke-width="2.0" stroke-dasharray="none" opacity="1.0" fill="#66b2ff"/><g id="ProcessOnG1043" transform="matrix(1.0,0.0,0.0,1.0,10.0,3.75)"><text id="ProcessOnText1044" fill="#000000" font-size="13" x="19.5" y="13.325" font-family="微软雅黑" font-weight="normal" font-style="normal" text-decoration="none" family="微软雅黑" text-anchor="middle" size="13">3</text><text id="ProcessOnText1045" fill="#000000" font-size="13" x="19.5" y="29.575" font-family="微软雅黑" font-weight="normal" font-style="normal" text-decoration="none" family="微软雅黑" text-anchor="middle" size="13">y &lt;- 0</text></g></g><g id="ProcessOnG1046" transform="matrix(1.0,0.0,0.0,1.0,446.0,67.0)" opacity="1.0"><path id="ProcessOnPath1047" d="M0.0 0.0L61.0 0.0L61.0 22.0L0.0 22.0Z" stroke="none" stroke-width="0.0" stroke-dasharray="none" opacity="1.0" fill="none"/><g id="ProcessOnG1048" transform="matrix(1.0,0.0,0.0,1.0,0.0,2.875)"><text id="ProcessOnText1049" fill="#000000" font-size="13" x="29.5" y="13.325" font-family="微软雅黑" font-weight="bold" font-style="normal" text-decoration="none" family="微软雅黑" text-anchor="middle" size="13">5</text></g></g><g id="ProcessOnG1050" transform="matrix(1.0,0.0,0.0,1.0,507.0,89.0)" opacity="1.0"><path id="ProcessOnPath1051" d="M0.0 0.0L61.0 0.0L61.0 40.0L0.0 40.0Z" stroke="#323232" stroke-width="2.0" stroke-dasharray="none" opacity="1.0" fill="#66b2ff"/><g id="ProcessOnG1052" transform="matrix(1.0,0.0,0.0,1.0,10.0,3.75)"><text id="ProcessOnText1053" fill="#000000" font-size="13" x="19.5" y="13.325" font-family="微软雅黑" font-weight="normal" font-style="normal" text-decoration="none" family="微软雅黑" text-anchor="middle" size="13">3</text><text id="ProcessOnText1054" fill="#000000" font-size="13" x="19.5" y="29.575" font-family="微软雅黑" font-weight="normal" font-style="normal" text-decoration="none" family="微软雅黑" text-anchor="middle" size="13">y &lt;- 4</text></g></g><g id="ProcessOnG1055" transform="matrix(1.0,0.0,0.0,1.0,507.0,67.0)" opacity="1.0"><path id="ProcessOnPath1056" d="M0.0 0.0L61.0 0.0L61.0 22.0L0.0 22.0Z" stroke="none" stroke-width="0.0" stroke-dasharray="none" opacity="1.0" fill="none"/><g id="ProcessOnG1057" transform="matrix(1.0,0.0,0.0,1.0,0.0,2.875)"><text id="ProcessOnText1058" fill="#000000" font-size="13" x="29.5" y="13.325" font-family="微软雅黑" font-weight="bold" font-style="normal" text-decoration="none" family="微软雅黑" text-anchor="middle" size="13">6</text></g></g><g id="ProcessOnG1059" transform="matrix(1.0,0.0,0.0,1.0,568.0,89.0)" opacity="1.0"><path id="ProcessOnPath1060" d="M0.0 0.0L61.0 0.0L61.0 40.0L0.0 40.0Z" stroke="#323232" stroke-width="2.0" stroke-dasharray="none" opacity="1.0" fill="#66b2ff"/><g id="ProcessOnG1061" transform="matrix(1.0,0.0,0.0,1.0,10.0,3.75)"><text id="ProcessOnText1062" fill="#000000" font-size="13" x="19.5" y="13.325" font-family="微软雅黑" font-weight="normal" font-style="normal" text-decoration="none" family="微软雅黑" text-anchor="middle" size="13">3</text><text id="ProcessOnText1063" fill="#000000" font-size="13" x="19.5" y="29.575" font-family="微软雅黑" font-weight="normal" font-style="normal" text-decoration="none" family="微软雅黑" text-anchor="middle" size="13">x &lt;- 6</text></g></g><g id="ProcessOnG1064" transform="matrix(1.0,0.0,0.0,1.0,568.0,67.0)" opacity="1.0"><path id="ProcessOnPath1065" d="M0.0 0.0L61.0 0.0L61.0 22.0L0.0 22.0Z" stroke="none" stroke-width="0.0" stroke-dasharray="none" opacity="1.0" fill="none"/><g id="ProcessOnG1066" transform="matrix(1.0,0.0,0.0,1.0,0.0,2.875)"><text id="ProcessOnText1067" fill="#000000" font-size="13" x="29.5" y="13.325" font-family="微软雅黑" font-weight="bold" font-style="normal" text-decoration="none" family="微软雅黑" text-anchor="middle" size="13">7</text></g></g><g id="ProcessOnG1068" transform="matrix(1.0,0.0,0.0,1.0,629.0,89.0)" opacity="1.0"><path id="ProcessOnPath1069" d="M0.0 0.0L61.0 0.0L61.0 40.0L0.0 40.0Z" stroke="#323232" stroke-width="2.0" stroke-dasharray="none" opacity="1.0" fill="#66b2ff"/><g id="ProcessOnG1070" transform="matrix(1.0,0.0,0.0,1.0,10.0,3.75)"><text id="ProcessOnText1071" fill="#000000" font-size="13" x="19.5" y="13.325" font-family="微软雅黑" font-weight="normal" font-style="normal" text-decoration="none" family="微软雅黑" text-anchor="middle" size="13">3</text><text id="ProcessOnText1072" fill="#000000" font-size="13" x="19.5" y="29.575" font-family="微软雅黑" font-weight="normal" font-style="normal" text-decoration="none" family="微软雅黑" text-anchor="middle" size="13">x &lt;- 5</text></g></g><g id="ProcessOnG1073" transform="matrix(1.0,0.0,0.0,1.0,629.0,67.0)" opacity="1.0"><path id="ProcessOnPath1074" d="M0.0 0.0L61.0 0.0L61.0 22.0L0.0 22.0Z" stroke="none" stroke-width="0.0" stroke-dasharray="none" opacity="1.0" fill="none"/><g id="ProcessOnG1075" transform="matrix(1.0,0.0,0.0,1.0,0.0,2.875)"><text id="ProcessOnText1076" fill="#000000" font-size="13" x="29.5" y="13.325" font-family="微软雅黑" font-weight="bold" font-style="normal" text-decoration="none" family="微软雅黑" text-anchor="middle" size="13">8</text></g></g><g id="ProcessOnG1077" transform="matrix(1.0,0.0,0.0,1.0,735.0,67.0)" opacity="1.0"><path id="ProcessOnPath1078" d="M0.0 0.0L116.0 0.0L116.0 22.0L0.0 22.0Z" stroke="none" stroke-width="0.0" stroke-dasharray="none" opacity="1.0" fill="none"/><g id="ProcessOnG1079" transform="matrix(1.0,0.0,0.0,1.0,0.0,2.875)"><text id="ProcessOnText1080" fill="#000000" font-size="13" x="57.0" y="13.325" font-family="微软雅黑" font-weight="bold" font-style="normal" text-decoration="none" family="微软雅黑" text-anchor="middle" size="13">Log Index</text></g></g><g id="ProcessOnG1081" transform="matrix(1.0,0.0,0.0,1.0,735.0,98.0)" opacity="1.0"><path id="ProcessOnPath1082" d="M0.0 0.0L116.0 0.0L116.0 22.0L0.0 22.0Z" stroke="none" stroke-width="0.0" stroke-dasharray="none" opacity="1.0" fill="none"/><g id="ProcessOnG1083" transform="matrix(1.0,0.0,0.0,1.0,0.0,2.875)"><text id="ProcessOnText1084" fill="#000000" font-size="13" x="57.0" y="13.325" font-family="微软雅黑" font-weight="bold" font-style="normal" text-decoration="none" family="微软雅黑" text-anchor="middle" size="13">Leader</text></g></g><g id="ProcessOnG1085" transform="matrix(1.0,0.0,0.0,1.0,202.0,161.0)" opacity="1.0"><path id="ProcessOnPath1086" d="M0.0 0.0L61.0 0.0L61.0 40.0L0.0 40.0Z" stroke="#323232" stroke-width="2.0" stroke-dasharray="none" opacity="1.0" fill="#66ffb3"/><g id="ProcessOnG1087" transform="matrix(1.0,0.0,0.0,1.0,10.0,3.75)"><text id="ProcessOnText1088" fill="#000000" font-size="13" x="19.5" y="13.325" font-family="微软雅黑" font-weight="normal" font-style="normal" text-decoration="none" family="微软雅黑" text-anchor="middle" size="13">1</text><text id="ProcessOnText1089" fill="#000000" font-size="13" x="19.5" y="29.575" font-family="微软雅黑" font-weight="normal" font-style="normal" text-decoration="none" family="微软雅黑" text-anchor="middle" size="13">x &lt;- 1</text></g></g><g id="ProcessOnG1090" transform="matrix(1.0,0.0,0.0,1.0,263.0,161.0)" opacity="1.0"><path id="ProcessOnPath1091" d="M0.0 0.0L61.0 0.0L61.0 40.0L0.0 40.0Z" stroke="#323232" stroke-width="2.0" stroke-dasharray="none" opacity="1.0" fill="#66ffb3"/><g id="ProcessOnG1092" transform="matrix(1.0,0.0,0.0,1.0,10.0,3.75)"><text id="ProcessOnText1093" fill="#000000" font-size="13" x="19.5" y="13.325" font-family="微软雅黑" font-weight="normal" font-style="normal" text-decoration="none" family="微软雅黑" text-anchor="middle" size="13">1</text><text id="ProcessOnText1094" fill="#000000" font-size="13" x="19.5" y="29.575" font-family="微软雅黑" font-weight="normal" font-style="normal" text-decoration="none" family="微软雅黑" text-anchor="middle" size="13">y &lt;- 2</text></g></g><g id="ProcessOnG1095" transform="matrix(1.0,0.0,0.0,1.0,324.0,161.0)" opacity="1.0"><path id="ProcessOnPath1096" d="M0.0 0.0L61.0 0.0L61.0 40.0L0.0 40.0Z" stroke="#323232" stroke-width="2.0" stroke-dasharray="none" opacity="1.0" fill="#66ffb3"/><g id="ProcessOnG1097" transform="matrix(1.0,0.0,0.0,1.0,10.0,3.75)"><text id="ProcessOnText1098" fill="#000000" font-size="13" x="19.5" y="13.325" font-family="微软雅黑" font-weight="normal" font-style="normal" text-decoration="none" family="微软雅黑" text-anchor="middle" size="13">1</text><text id="ProcessOnText1099" fill="#000000" font-size="13" x="19.5" y="29.575" font-family="微软雅黑" font-weight="normal" font-style="normal" text-decoration="none" family="微软雅黑" text-anchor="middle" size="13">x &lt;- 3</text></g></g><g id="ProcessOnG1100" transform="matrix(1.0,0.0,0.0,1.0,385.0,161.0)" opacity="1.0"><path id="ProcessOnPath1101" d="M0.0 0.0L61.0 0.0L61.0 40.0L0.0 40.0Z" stroke="#323232" stroke-width="2.0" stroke-dasharray="none" opacity="1.0" fill="#ffff66"/><g id="ProcessOnG1102" transform="matrix(1.0,0.0,0.0,1.0,10.0,3.75)"><text id="ProcessOnText1103" fill="#000000" font-size="13" x="19.5" y="13.325" font-family="微软雅黑" font-weight="normal" font-style="normal" text-decoration="none" family="微软雅黑" text-anchor="middle" size="13">2</text><text id="ProcessOnText1104" fill="#000000" font-size="13" x="19.5" y="29.575" font-family="微软雅黑" font-weight="normal" font-style="normal" text-decoration="none" family="微软雅黑" text-anchor="middle" size="13">x &lt;- 5</text></g></g><g id="ProcessOnG1105" transform="matrix(1.0,0.0,0.0,1.0,446.0,161.0)" opacity="1.0"><path id="ProcessOnPath1106" d="M0.0 0.0L61.0 0.0L61.0 40.0L0.0 40.0Z" stroke="#323232" stroke-width="2.0" stroke-dasharray="none" opacity="1.0" fill="#66b2ff"/><g id="ProcessOnG1107" transform="matrix(1.0,0.0,0.0,1.0,10.0,3.75)"><text id="ProcessOnText1108" fill="#000000" font-size="13" x="19.5" y="13.325" font-family="微软雅黑" font-weight="normal" font-style="normal" text-decoration="none" family="微软雅黑" text-anchor="middle" size="13">3</text><text id="ProcessOnText1109" fill="#000000" font-size="13" x="19.5" y="29.575" font-family="微软雅黑" font-weight="normal" font-style="normal" text-decoration="none" family="微软雅黑" text-anchor="middle" size="13">y &lt;- 0</text></g></g><g id="ProcessOnG1110" transform="matrix(1.0,0.0,0.0,1.0,202.0,244.0)" opacity="1.0"><path id="ProcessOnPath1111" d="M0.0 0.0L61.0 0.0L61.0 40.0L0.0 40.0Z" stroke="#323232" stroke-width="2.0" stroke-dasharray="none" opacity="1.0" fill="#66ffb3"/><g id="ProcessOnG1112" transform="matrix(1.0,0.0,0.0,1.0,10.0,3.75)"><text id="ProcessOnText1113" fill="#000000" font-size="13" x="19.5" y="13.325" font-family="微软雅黑" font-weight="normal" font-style="normal" text-decoration="none" family="微软雅黑" text-anchor="middle" size="13">1</text><text id="ProcessOnText1114" fill="#000000" font-size="13" x="19.5" y="29.575" font-family="微软雅黑" font-weight="normal" font-style="normal" text-decoration="none" family="微软雅黑" text-anchor="middle" size="13">x &lt;- 1</text></g></g><g id="ProcessOnG1115" transform="matrix(1.0,0.0,0.0,1.0,263.0,244.0)" opacity="1.0"><path id="ProcessOnPath1116" d="M0.0 0.0L61.0 0.0L61.0 40.0L0.0 40.0Z" stroke="#323232" stroke-width="2.0" stroke-dasharray="none" opacity="1.0" fill="#66ffb3"/><g id="ProcessOnG1117" transform="matrix(1.0,0.0,0.0,1.0,10.0,3.75)"><text id="ProcessOnText1118" fill="#000000" font-size="13" x="19.5" y="13.325" font-family="微软雅黑" font-weight="normal" font-style="normal" text-decoration="none" family="微软雅黑" text-anchor="middle" size="13">1</text><text id="ProcessOnText1119" fill="#000000" font-size="13" x="19.5" y="29.575" font-family="微软雅黑" font-weight="normal" font-style="normal" text-decoration="none" family="微软雅黑" text-anchor="middle" size="13">y &lt;- 2</text></g></g><g id="ProcessOnG1120" transform="matrix(1.0,0.0,0.0,1.0,324.0,244.0)" opacity="1.0"><path id="ProcessOnPath1121" d="M0.0 0.0L61.0 0.0L61.0 40.0L0.0 40.0Z" stroke="#323232" stroke-width="2.0" stroke-dasharray="none" opacity="1.0" fill="#66ffb3"/><g id="ProcessOnG1122" transform="matrix(1.0,0.0,0.0,1.0,10.0,3.75)"><text id="ProcessOnText1123" fill="#000000" font-size="13" x="19.5" y="13.325" font-family="微软雅黑" font-weight="normal" font-style="normal" text-decoration="none" family="微软雅黑" text-anchor="middle" size="13">1</text><text id="ProcessOnText1124" fill="#000000" font-size="13" x="19.5" y="29.575" font-family="微软雅黑" font-weight="normal" font-style="normal" text-decoration="none" family="微软雅黑" text-anchor="middle" size="13">x &lt;- 3</text></g></g><g id="ProcessOnG1125" transform="matrix(1.0,0.0,0.0,1.0,385.0,244.0)" opacity="1.0"><path id="ProcessOnPath1126" d="M0.0 0.0L61.0 0.0L61.0 40.0L0.0 40.0Z" stroke="#323232" stroke-width="2.0" stroke-dasharray="none" opacity="1.0" fill="#ffff66"/><g id="ProcessOnG1127" transform="matrix(1.0,0.0,0.0,1.0,10.0,3.75)"><text id="ProcessOnText1128" fill="#000000" font-size="13" x="19.5" y="13.325" font-family="微软雅黑" font-weight="normal" font-style="normal" text-decoration="none" family="微软雅黑" text-anchor="middle" size="13">2</text><text id="ProcessOnText1129" fill="#000000" font-size="13" x="19.5" y="29.575" font-family="微软雅黑" font-weight="normal" font-style="normal" text-decoration="none" family="微软雅黑" text-anchor="middle" size="13">x &lt;- 5</text></g></g><g id="ProcessOnG1130" transform="matrix(1.0,0.0,0.0,1.0,446.0,244.0)" opacity="1.0"><path id="ProcessOnPath1131" d="M0.0 0.0L61.0 0.0L61.0 40.0L0.0 40.0Z" stroke="#323232" stroke-width="2.0" stroke-dasharray="none" opacity="1.0" fill="#66b2ff"/><g id="ProcessOnG1132" transform="matrix(1.0,0.0,0.0,1.0,10.0,3.75)"><text id="ProcessOnText1133" fill="#000000" font-size="13" x="19.5" y="13.325" font-family="微软雅黑" font-weight="normal" font-style="normal" text-decoration="none" family="微软雅黑" text-anchor="middle" size="13">3</text><text id="ProcessOnText1134" fill="#000000" font-size="13" x="19.5" y="29.575" font-family="微软雅黑" font-weight="normal" font-style="normal" text-decoration="none" family="微软雅黑" text-anchor="middle" size="13">y &lt;- 0</text></g></g><g id="ProcessOnG1135" transform="matrix(1.0,0.0,0.0,1.0,507.0,244.0)" opacity="1.0"><path id="ProcessOnPath1136" d="M0.0 0.0L61.0 0.0L61.0 40.0L0.0 40.0Z" stroke="#323232" stroke-width="2.0" stroke-dasharray="none" opacity="1.0" fill="#66b2ff"/><g id="ProcessOnG1137" transform="matrix(1.0,0.0,0.0,1.0,10.0,3.75)"><text id="ProcessOnText1138" fill="#000000" font-size="13" x="19.5" y="13.325" font-family="微软雅黑" font-weight="normal" font-style="normal" text-decoration="none" family="微软雅黑" text-anchor="middle" size="13">3</text><text id="ProcessOnText1139" fill="#000000" font-size="13" x="19.5" y="29.575" font-family="微软雅黑" font-weight="normal" font-style="normal" text-decoration="none" family="微软雅黑" text-anchor="middle" size="13">y &lt;- 4</text></g></g><g id="ProcessOnG1140" transform="matrix(1.0,0.0,0.0,1.0,568.0,244.0)" opacity="1.0"><path id="ProcessOnPath1141" d="M0.0 0.0L61.0 0.0L61.0 40.0L0.0 40.0Z" stroke="#323232" stroke-width="2.0" stroke-dasharray="none" opacity="1.0" fill="#66b2ff"/><g id="ProcessOnG1142" transform="matrix(1.0,0.0,0.0,1.0,10.0,3.75)"><text id="ProcessOnText1143" fill="#000000" font-size="13" x="19.5" y="13.325" font-family="微软雅黑" font-weight="normal" font-style="normal" text-decoration="none" family="微软雅黑" text-anchor="middle" size="13">3</text><text id="ProcessOnText1144" fill="#000000" font-size="13" x="19.5" y="29.575" font-family="微软雅黑" font-weight="normal" font-style="normal" text-decoration="none" family="微软雅黑" text-anchor="middle" size="13">x &lt;- 6</text></g></g><g id="ProcessOnG1145" transform="matrix(1.0,0.0,0.0,1.0,629.0,244.0)" opacity="1.0"><path id="ProcessOnPath1146" d="M0.0 0.0L61.0 0.0L61.0 40.0L0.0 40.0Z" stroke="#323232" stroke-width="2.0" stroke-dasharray="none" opacity="1.0" fill="#66b2ff"/><g id="ProcessOnG1147" transform="matrix(1.0,0.0,0.0,1.0,10.0,3.75)"><text id="ProcessOnText1148" fill="#000000" font-size="13" x="19.5" y="13.325" font-family="微软雅黑" font-weight="normal" font-style="normal" text-decoration="none" family="微软雅黑" text-anchor="middle" size="13">3</text><text id="ProcessOnText1149" fill="#000000" font-size="13" x="19.5" y="29.575" font-family="微软雅黑" font-weight="normal" font-style="normal" text-decoration="none" family="微软雅黑" text-anchor="middle" size="13">x &lt;- 5</text></g></g><g id="ProcessOnG1150" transform="matrix(1.0,0.0,0.0,1.0,202.0,329.0)" opacity="1.0"><path id="ProcessOnPath1151" d="M0.0 0.0L61.0 0.0L61.0 40.0L0.0 40.0Z" stroke="#323232" stroke-width="2.0" stroke-dasharray="none" opacity="1.0" fill="#66ffb3"/><g id="ProcessOnG1152" transform="matrix(1.0,0.0,0.0,1.0,10.0,3.75)"><text id="ProcessOnText1153" fill="#000000" font-size="13" x="19.5" y="13.325" font-family="微软雅黑" font-weight="normal" font-style="normal" text-decoration="none" family="微软雅黑" text-anchor="middle" size="13">1</text><text id="ProcessOnText1154" fill="#000000" font-size="13" x="19.5" y="29.575" font-family="微软雅黑" font-weight="normal" font-style="normal" text-decoration="none" family="微软雅黑" text-anchor="middle" size="13">x &lt;- 1</text></g></g><g id="ProcessOnG1155" transform="matrix(1.0,0.0,0.0,1.0,263.0,329.0)" opacity="1.0"><path id="ProcessOnPath1156" d="M0.0 0.0L61.0 0.0L61.0 40.0L0.0 40.0Z" stroke="#323232" stroke-width="2.0" stroke-dasharray="none" opacity="1.0" fill="#66ffb3"/><g id="ProcessOnG1157" transform="matrix(1.0,0.0,0.0,1.0,10.0,3.75)"><text id="ProcessOnText1158" fill="#000000" font-size="13" x="19.5" y="13.325" font-family="微软雅黑" font-weight="normal" font-style="normal" text-decoration="none" family="微软雅黑" text-anchor="middle" size="13">1</text><text id="ProcessOnText1159" fill="#000000" font-size="13" x="19.5" y="29.575" font-family="微软雅黑" font-weight="normal" font-style="normal" text-decoration="none" family="微软雅黑" text-anchor="middle" size="13">y &lt;- 2</text></g></g><g id="ProcessOnG1160" transform="matrix(1.0,0.0,0.0,1.0,202.0,415.0)" opacity="1.0"><path id="ProcessOnPath1161" d="M0.0 0.0L61.0 0.0L61.0 40.0L0.0 40.0Z" stroke="#323232" stroke-width="2.0" stroke-dasharray="none" opacity="1.0" fill="#66ffb3"/><g id="ProcessOnG1162" transform="matrix(1.0,0.0,0.0,1.0,10.0,3.75)"><text id="ProcessOnText1163" fill="#000000" font-size="13" x="19.5" y="13.325" font-family="微软雅黑" font-weight="normal" font-style="normal" text-decoration="none" family="微软雅黑" text-anchor="middle" size="13">1</text><text id="ProcessOnText1164" fill="#000000" font-size="13" x="19.5" y="29.575" font-family="微软雅黑" font-weight="normal" font-style="normal" text-decoration="none" family="微软雅黑" text-anchor="middle" size="13">x &lt;- 1</text></g></g><g id="ProcessOnG1165" transform="matrix(1.0,0.0,0.0,1.0,263.0,415.0)" opacity="1.0"><path id="ProcessOnPath1166" d="M0.0 0.0L61.0 0.0L61.0 40.0L0.0 40.0Z" stroke="#323232" stroke-width="2.0" stroke-dasharray="none" opacity="1.0" fill="#66ffb3"/><g id="ProcessOnG1167" transform="matrix(1.0,0.0,0.0,1.0,10.0,3.75)"><text id="ProcessOnText1168" fill="#000000" font-size="13" x="19.5" y="13.325" font-family="微软雅黑" font-weight="normal" font-style="normal" text-decoration="none" family="微软雅黑" text-anchor="middle" size="13">1</text><text id="ProcessOnText1169" fill="#000000" font-size="13" x="19.5" y="29.575" font-family="微软雅黑" font-weight="normal" font-style="normal" text-decoration="none" family="微软雅黑" text-anchor="middle" size="13">y &lt;- 2</text></g></g><g id="ProcessOnG1170" transform="matrix(1.0,0.0,0.0,1.0,324.0,415.0)" opacity="1.0"><path id="ProcessOnPath1171" d="M0.0 0.0L61.0 0.0L61.0 40.0L0.0 40.0Z" stroke="#323232" stroke-width="2.0" stroke-dasharray="none" opacity="1.0" fill="#66ffb3"/><g id="ProcessOnG1172" transform="matrix(1.0,0.0,0.0,1.0,10.0,3.75)"><text id="ProcessOnText1173" fill="#000000" font-size="13" x="19.5" y="13.325" font-family="微软雅黑" font-weight="normal" font-style="normal" text-decoration="none" family="微软雅黑" text-anchor="middle" size="13">1</text><text id="ProcessOnText1174" fill="#000000" font-size="13" x="19.5" y="29.575" font-family="微软雅黑" font-weight="normal" font-style="normal" text-decoration="none" family="微软雅黑" text-anchor="middle" size="13">x &lt;- 3</text></g></g><g id="ProcessOnG1175" transform="matrix(1.0,0.0,0.0,1.0,385.0,415.0)" opacity="1.0"><path id="ProcessOnPath1176" d="M0.0 0.0L61.0 0.0L61.0 40.0L0.0 40.0Z" stroke="#323232" stroke-width="2.0" stroke-dasharray="none" opacity="1.0" fill="#ffff66"/><g id="ProcessOnG1177" transform="matrix(1.0,0.0,0.0,1.0,10.0,3.75)"><text id="ProcessOnText1178" fill="#000000" font-size="13" x="19.5" y="13.325" font-family="微软雅黑" font-weight="normal" font-style="normal" text-decoration="none" family="微软雅黑" text-anchor="middle" size="13">2</text><text id="ProcessOnText1179" fill="#000000" font-size="13" x="19.5" y="29.575" font-family="微软雅黑" font-weight="normal" font-style="normal" text-decoration="none" family="微软雅黑" text-anchor="middle" size="13">x &lt;- 5</text></g></g><g id="ProcessOnG1180" transform="matrix(1.0,0.0,0.0,1.0,446.0,415.0)" opacity="1.0"><path id="ProcessOnPath1181" d="M0.0 0.0L61.0 0.0L61.0 40.0L0.0 40.0Z" stroke="#323232" stroke-width="2.0" stroke-dasharray="none" opacity="1.0" fill="#66b2ff"/><g id="ProcessOnG1182" transform="matrix(1.0,0.0,0.0,1.0,10.0,3.75)"><text id="ProcessOnText1183" fill="#000000" font-size="13" x="19.5" y="13.325" font-family="微软雅黑" font-weight="normal" font-style="normal" text-decoration="none" family="微软雅黑" text-anchor="middle" size="13">3</text><text id="ProcessOnText1184" fill="#000000" font-size="13" x="19.5" y="29.575" font-family="微软雅黑" font-weight="normal" font-style="normal" text-decoration="none" family="微软雅黑" text-anchor="middle" size="13">y &lt;- 0</text></g></g><g id="ProcessOnG1185" transform="matrix(1.0,0.0,0.0,1.0,507.0,415.0)" opacity="1.0"><path id="ProcessOnPath1186" d="M0.0 0.0L61.0 0.0L61.0 40.0L0.0 40.0Z" stroke="#323232" stroke-width="2.0" stroke-dasharray="none" opacity="1.0" fill="#66b2ff"/><g id="ProcessOnG1187" transform="matrix(1.0,0.0,0.0,1.0,10.0,3.75)"><text id="ProcessOnText1188" fill="#000000" font-size="13" x="19.5" y="13.325" font-family="微软雅黑" font-weight="normal" font-style="normal" text-decoration="none" family="微软雅黑" text-anchor="middle" size="13">3</text><text id="ProcessOnText1189" fill="#000000" font-size="13" x="19.5" y="29.575" font-family="微软雅黑" font-weight="normal" font-style="normal" text-decoration="none" family="微软雅黑" text-anchor="middle" size="13">y &lt;- 4</text></g></g><g id="ProcessOnG1190" transform="matrix(1.0,0.0,0.0,1.0,722.0,161.0)" opacity="1.0"><path id="ProcessOnPath1191" d="M0.0 294.0Q9.0 294.0 9.0 285.0L9.0 156.0Q9.0 147.0 22.0 147.0Q9.0 147.0 9.0 138.0L9.0 9.0Q9.0 0.0 0.0 0.0" stroke="#323232" stroke-width="2.0" stroke-dasharray="none" opacity="1.0" fill="none"/><path id="ProcessOnPath1192" d="M0.0 0.0L105.0 0.0L105.0 294.0L0.0 294.0Z" stroke="none" stroke-width="0.0" stroke-dasharray="none" opacity="1.0" fill="none"/></g><g id="ProcessOnG1193" transform="matrix(1.0,0.0,0.0,1.0,735.0,297.0)" opacity="1.0"><path id="ProcessOnPath1194" d="M0.0 0.0L116.0 0.0L116.0 22.0L0.0 22.0Z" stroke="none" stroke-width="0.0" stroke-dasharray="none" opacity="1.0" fill="none"/><g id="ProcessOnG1195" transform="matrix(1.0,0.0,0.0,1.0,0.0,2.875)"><text id="ProcessOnText1196" fill="#000000" font-size="13" x="57.0" y="13.325" font-family="微软雅黑" font-weight="bold" font-style="normal" text-decoration="none" family="微软雅黑" text-anchor="middle" size="13">Followers</text></g></g><g id="ProcessOnG1197"><path id="ProcessOnPath1198" d="M203.0 458.0L203.0 478.0L203.0 478.0L203.0 498.0" stroke="#323232" stroke-width="2.0" stroke-dasharray="none" fill="none"/></g><g id="ProcessOnG1199"><path id="ProcessOnPath1200" d="M568.0 458.0L568.0 478.0L568.0 478.0L568.0 498.0" stroke="#323232" stroke-width="2.0" stroke-dasharray="none" fill="none"/></g><g id="ProcessOnG1201"><path id="ProcessOnPath1202" d="M206.0 479.0L258.5 479.0L258.5 479.0L311.0 479.0" stroke="#323232" stroke-width="2.0" stroke-dasharray="none" fill="none" marker-start="url(#ProcessOnMarker1203)"/></g><g id="ProcessOnG1205" transform="matrix(1.0,0.0,0.0,1.0,313.5,468.0)" opacity="1.0"><path id="ProcessOnPath1206" d="M0.0 0.0L125.5 0.0L125.5 22.0L0.0 22.0Z" stroke="none" stroke-width="0.0" stroke-dasharray="none" opacity="1.0" fill="none"/><g id="ProcessOnG1207" transform="matrix(1.0,0.0,0.0,1.0,0.0,2.875)"><text id="ProcessOnText1208" fill="#000000" font-size="13" x="61.75" y="13.325" font-family="微软雅黑" font-weight="bold" font-style="normal" text-decoration="none" family="微软雅黑" text-anchor="middle" size="13">committed entries</text></g></g><g id="ProcessOnG1209"><path id="ProcessOnPath1210" d="M446.0 480.0L504.5 480.0L504.5 480.0L563.0 480.0" stroke="#323232" stroke-width="2.0" stroke-dasharray="none" fill="none" marker-end="url(#ProcessOnMarker1211)"/></g><g id="ProcessOnG1213" transform="matrix(1.0,0.0,0.0,1.0,202.0,490.0)" opacity="1.0"><path id="ProcessOnPath1214" d="M0.0 0.0L360.0 0.0L360.0 36.0L0.0 36.0Z" stroke="none" stroke-width="0.0" stroke-dasharray="none" opacity="1.0" fill="none"/><g id="ProcessOnG1215" transform="matrix(1.0,0.0,0.0,1.0,0.0,8.0)"><text id="ProcessOnText1216" fill="#b266ff" font-size="16" x="179.0" y="16.4" font-family="微软雅黑" font-weight="bold" font-style="normal" text-decoration="none" family="微软雅黑" text-anchor="middle" size="16">多数节点（ &gt;= 3, total 5）确认了的最大长度</text></g></g><g id="ProcessOnG1217" transform="matrix(1.0,0.0,0.0,1.0,202.0,566.0)" opacity="1.0"><path id="ProcessOnPath1218" d="M0.0 0.0L360.0 0.0L360.0 90.0L0.0 90.0Z" stroke="none" stroke-width="0.0" stroke-dasharray="none" opacity="1.0" fill="none"/><g id="ProcessOnG1219" transform="matrix(1.0,0.0,0.0,1.0,0.0,5.0)"><text id="ProcessOnText1220" fill="#b266ff" font-size="16" x="0.0" y="16.4" font-family="微软雅黑" font-weight="bold" font-style="normal" text-decoration="none" family="微软雅黑" text-anchor="start" size="16">1. 不同 Log 中，拥有相同 Term 及 Index 的记录</text><text id="ProcessOnText1221" fill="#b266ff" font-size="16" x="0.0" y="36.4" font-family="微软雅黑" font-weight="bold" font-style="normal" text-decoration="none" family="微软雅黑" text-anchor="start" size="16">，保存相同的命令；</text><text id="ProcessOnText1222" fill="#b266ff" font-size="16" x="0.0" y="56.4" font-family="微软雅黑" font-weight="bold" font-style="normal" text-decoration="none" family="微软雅黑" text-anchor="start" size="16">2. 不同 Log 中，拥有相同 Term 及 Index 的记录</text><text id="ProcessOnText1223" fill="#b266ff" font-size="16" x="0.0" y="76.4" font-family="微软雅黑" font-weight="bold" font-style="normal" text-decoration="none" family="微软雅黑" text-anchor="start" size="16">，前序记录也一定相同。</text></g></g></g></g></svg>