<svg xmlns="http://www.w3.org/2000/svg" xmlns:xlink="http://www.w3.org/1999/xlink" id="processonSvg1000" viewBox="48.0 0.9552050164763557 912.0 901.0447949835236" width="912.0" height="901.0447949835236"><defs id="ProcessOnDefs1001"><marker id="ProcessOnMarker1062" markerUnits="userSpaceOnUse" orient="auto" markerWidth="14.289086868996552" markerHeight="19.055054660878554" viewBox="-0.5877852522924731 -0.8090169943749475 14.289086868996552 19.055054660878554" refX="12.0" refY="8.71851033606433"><path id="ProcessOnPath1063" d="M0 0L12.0 8.71851033606433L0 17.43702067212866" stroke="#323232" stroke-width="2.0" fill="none" transform="matrix(1.0,0.0,0.0,1.0,0.0,0.0)"/></marker><marker id="ProcessOnMarker1069" markerUnits="userSpaceOnUse" orient="auto" markerWidth="14.289086868996552" markerHeight="19.055054660878554" viewBox="-0.5877852522924731 -0.8090169943749475 14.289086868996552 19.055054660878554" refX="12.0" refY="8.71851033606433"><path id="ProcessOnPath1070" d="M0 0L12.0 8.71851033606433L0 17.43702067212866" stroke="#323232" stroke-width="2.0" fill="none" transform="matrix(1.0,0.0,0.0,1.0,0.0,0.0)"/></marker><marker id="ProcessOnMarker1076" markerUnits="userSpaceOnUse" orient="auto" markerWidth="14.289086868996552" markerHeight="19.055054660878554" viewBox="-0.5877852522924731 -0.8090169943749475 14.289086868996552 19.055054660878554" refX="12.0" refY="8.71851033606433"><path id="ProcessOnPath1077" d="M0 0L12.0 8.71851033606433L0 17.43702067212866" stroke="#323232" stroke-width="2.0" fill="none" transform="matrix(1.0,0.0,0.0,1.0,0.0,0.0)"/></marker><marker id="ProcessOnMarker1083" markerUnits="userSpaceOnUse" orient="auto" markerWidth="14.289086868996552" markerHeight="19.055054660878554" viewBox="-0.5877852522924731 -0.8090169943749475 14.289086868996552 19.055054660878554" refX="12.0" refY="8.71851033606433"><path id="ProcessOnPath1084" d="M0 0L12.0 8.71851033606433L0 17.43702067212866" stroke="#323232" stroke-width="2.0" fill="none" transform="matrix(1.0,0.0,0.0,1.0,0.0,0.0)"/></marker><marker id="ProcessOnMarker1141" markerUnits="userSpaceOnUse" orient="auto" markerWidth="14.289086868996552" markerHeight="19.055054660878554" viewBox="-0.5877852522924731 -0.8090169943749475 14.289086868996552 19.055054660878554" refX="12.0" refY="8.71851033606433"><path id="ProcessOnPath1142" d="M0 0L12.0 8.71851033606433L0 17.43702067212866" stroke="#323232" stroke-width="2.0" fill="none" transform="matrix(1.0,0.0,0.0,1.0,0.0,0.0)"/></marker><marker id="ProcessOnMarker1148" markerUnits="userSpaceOnUse" orient="auto" markerWidth="14.289086868996552" markerHeight="19.055054660878554" viewBox="-0.5877852522924731 -0.8090169943749475 14.289086868996552 19.055054660878554" refX="12.0" refY="8.71851033606433"><path id="ProcessOnPath1149" d="M0 0L12.0 8.71851033606433L0 17.43702067212866" stroke="#323232" stroke-width="2.0" fill="none" transform="matrix(1.0,0.0,0.0,1.0,0.0,0.0)"/></marker><marker id="ProcessOnMarker1155" markerUnits="userSpaceOnUse" orient="auto" markerWidth="14.289086868996552" markerHeight="19.055054660878554" viewBox="-0.5877852522924731 -0.8090169943749475 14.289086868996552 19.055054660878554" refX="12.0" refY="8.71851033606433"><path id="ProcessOnPath1156" d="M0 0L12.0 8.71851033606433L0 17.43702067212866" stroke="#323232" stroke-width="2.0" fill="none" transform="matrix(1.0,0.0,0.0,1.0,0.0,0.0)"/></marker><marker id="ProcessOnMarker1162" markerUnits="userSpaceOnUse" orient="auto" markerWidth="14.289086868996552" markerHeight="19.055054660878554" viewBox="-0.5877852522924731 -0.8090169943749475 14.289086868996552 19.055054660878554" refX="12.0" refY="8.71851033606433"><path id="ProcessOnPath1163" d="M0 0L12.0 8.71851033606433L0 17.43702067212866" stroke="#323232" stroke-width="2.0" fill="none" transform="matrix(1.0,0.0,0.0,1.0,0.0,0.0)"/></marker><marker id="ProcessOnMarker1173" markerUnits="userSpaceOnUse" orient="auto" markerWidth="14.289086868996552" markerHeight="19.055054660878554" viewBox="-0.5877852522924731 -0.8090169943749475 14.289086868996552 19.055054660878554" refX="12.0" refY="8.71851033606433"><path id="ProcessOnPath1174" d="M0 0L12.0 8.71851033606433L0 17.43702067212866" stroke="#323232" stroke-width="2.0" fill="none" transform="matrix(1.0,0.0,0.0,1.0,0.0,0.0)"/></marker><marker id="ProcessOnMarker1177" markerUnits="userSpaceOnUse" orient="auto" markerWidth="14.289086868996552" markerHeight="19.055054660878554" viewBox="-0.5877852522924731 -0.8090169943749475 14.289086868996552 19.055054660878554" refX="12.0" refY="8.71851033606433"><path id="ProcessOnPath1178" d="M0 0L12.0 8.71851033606433L0 17.43702067212866" stroke="#323232" stroke-width="2.0" fill="none" transform="matrix(1.0,0.0,0.0,1.0,0.0,0.0)"/></marker><marker id="ProcessOnMarker1185" markerUnits="userSpaceOnUse" orient="auto" markerWidth="14.289086868996552" markerHeight="19.055054660878554" viewBox="-0.5877852522924731 -0.8090169943749475 14.289086868996552 19.055054660878554" refX="12.0" refY="8.71851033606433"><path id="ProcessOnPath1186" d="M0 0L12.0 8.71851033606433L0 17.43702067212866" stroke="#323232" stroke-width="2.0" fill="none" transform="matrix(1.0,0.0,0.0,1.0,0.0,0.0)"/></marker><marker id="ProcessOnMarker1189" markerUnits="userSpaceOnUse" orient="auto" markerWidth="14.289086868996552" markerHeight="19.055054660878554" viewBox="-0.5877852522924731 -0.8090169943749475 14.289086868996552 19.055054660878554" refX="12.0" refY="8.71851033606433"><path id="ProcessOnPath1190" d="M0 0L12.0 8.71851033606433L0 17.43702067212866" stroke="#323232" stroke-width="2.0" fill="none" transform="matrix(1.0,0.0,0.0,1.0,0.0,0.0)"/></marker></defs><g id="ProcessOnG1002"><path id="ProcessOnPath1003" d="M48.0 0.9552050164763557H960.0V902.0H48.0V0.9552050164763841Z" fill="none"/><g id="ProcessOnG1004"><g id="ProcessOnG1005" transform="matrix(1.0,0.0,0.0,1.0,518.0,172.0)" opacity="1.0"><path id="ProcessOnPath1006" d="M0.0 4.0Q0.0 0.0 4.0 0.0L418.0 0.0Q422.0 0.0 422.0 4.0L422.0 323.0Q422.0 327.0 418.0 327.0L4.0 327.0Q0.0 327.0 0.0 323.0Z" stroke="#323232" stroke-width="2.0" stroke-dasharray="none" opacity="1.0" fill="#ffffff"/></g><g id="ProcessOnG1007" transform="matrix(1.0,0.0,0.0,1.0,230.0,285.0)" opacity="1.0"><path id="ProcessOnPath1008" d="M0.0 4.0Q0.0 0.0 4.0 0.0L138.0 0.0Q142.0 0.0 142.0 4.0L142.0 28.0Q142.0 32.0 138.0 32.0L4.0 32.0Q0.0 32.0 0.0 28.0Z" stroke="#323232" stroke-width="2.0" stroke-dasharray="none" opacity="1.0" fill="#ffffff"/><g id="ProcessOnG1009" transform="matrix(1.0,0.0,0.0,1.0,10.0,7.875)"><text id="ProcessOnText1010" fill="#000000" font-size="13" x="60.0" y="13.325" font-family="微软雅黑" font-weight="normal" font-style="normal" text-decoration="none" family="微软雅黑" text-anchor="middle" size="13">Client</text></g></g><g id="ProcessOnG1011" transform="matrix(1.0,0.0,0.0,1.0,527.0,172.0)" opacity="1.0"><path id="ProcessOnPath1012" d="M0.0 0.0L116.0 0.0L116.0 32.0L0.0 32.0Z" stroke="none" stroke-width="0.0" stroke-dasharray="none" opacity="1.0" fill="none"/><g id="ProcessOnG1013" transform="matrix(1.0,0.0,0.0,1.0,0.0,4.75)"><text id="ProcessOnText1014" fill="#000000" font-size="18" x="0.0" y="18.45" font-family="微软雅黑" font-weight="bold" font-style="normal" text-decoration="none" family="微软雅黑" text-anchor="start" size="18">Server</text></g></g><g id="ProcessOnG1015" transform="matrix(1.0,0.0,0.0,1.0,538.0,221.0)" opacity="1.0"><path id="ProcessOnPath1016" d="M0.0 4.0Q0.0 0.0 4.0 0.0L112.0 0.0Q116.0 0.0 116.0 4.0L116.0 48.0Q116.0 52.0 112.0 52.0L4.0 52.0Q0.0 52.0 0.0 48.0Z" stroke="#323232" stroke-width="2.0" stroke-dasharray="none" opacity="1.0" fill="#ffffff"/><g id="ProcessOnG1017" transform="matrix(1.0,0.0,0.0,1.0,10.0,6.0)"><text id="ProcessOnText1018" fill="#000000" font-size="16" x="0.0" y="16.4" font-family="微软雅黑" font-weight="bold" font-style="normal" text-decoration="none" family="微软雅黑" text-anchor="start" size="16">Consensus </text><text id="ProcessOnText1019" fill="#000000" font-size="16" x="0.0" y="36.4" font-family="微软雅黑" font-weight="bold" font-style="normal" text-decoration="none" family="微软雅黑" text-anchor="start" size="16">Module</text></g></g><g id="ProcessOnG1020" transform="matrix(1.0,0.0,0.0,1.0,538.0,402.0)" opacity="1.0"><path id="ProcessOnPath1021" d="M0.0 4.0Q0.0 0.0 4.0 0.0L365.0 0.0Q369.0 0.0 369.0 4.0L369.0 73.0Q369.0 77.0 365.0 77.0L4.0 77.0Q0.0 77.0 0.0 73.0Z" stroke="#323232" stroke-width="2.0" stroke-dasharray="none" opacity="1.0" fill="#ffffff"/></g><g id="ProcessOnG1022" transform="matrix(1.0,0.0,0.0,1.0,540.25,402.0)" opacity="1.0"><path id="ProcessOnPath1023" d="M0.0 0.0L116.0 0.0L116.0 32.0L0.0 32.0Z" stroke="none" stroke-width="0.0" stroke-dasharray="none" opacity="1.0" fill="none"/><g id="ProcessOnG1024" transform="matrix(1.0,0.0,0.0,1.0,0.0,6.0)"><text id="ProcessOnText1025" fill="#000000" font-size="16" x="0.0" y="16.4" font-family="微软雅黑" font-weight="bold" font-style="normal" text-decoration="none" family="微软雅黑" text-anchor="start" size="16">Log</text></g></g><g id="ProcessOnG1026" transform="matrix(1.0,0.0,0.0,1.0,559.25,440.0)" opacity="1.0"><path id="ProcessOnPath1027" d="M0.0 0.0L97.0 0.0L97.0 30.0L0.0 30.0Z" stroke="#323232" stroke-width="2.0" stroke-dasharray="none" opacity="1.0" fill="#ffffff"/><g id="ProcessOnG1028" transform="matrix(1.0,0.0,0.0,1.0,10.0,6.875)"><text id="ProcessOnText1029" fill="#000000" font-size="13" x="37.5" y="13.325" font-family="微软雅黑" font-weight="bold" font-style="normal" text-decoration="none" family="微软雅黑" text-anchor="middle" size="13">X &lt;- 1</text></g></g><g id="ProcessOnG1030" transform="matrix(1.0,0.0,0.0,1.0,656.25,440.0)" opacity="1.0"><path id="ProcessOnPath1031" d="M0.0 0.0L97.0 0.0L97.0 30.0L0.0 30.0Z" stroke="#323232" stroke-width="2.0" stroke-dasharray="none" opacity="1.0" fill="#ffffff"/><g id="ProcessOnG1032" transform="matrix(1.0,0.0,0.0,1.0,10.0,6.875)"><text id="ProcessOnText1033" fill="#000000" font-size="13" x="37.5" y="13.325" font-family="微软雅黑" font-weight="bold" font-style="normal" text-decoration="none" family="微软雅黑" text-anchor="middle" size="13">Y &lt;- 0</text></g></g><g id="ProcessOnG1034" transform="matrix(1.0,0.0,0.0,1.0,753.25,440.0)" opacity="1.0"><path id="ProcessOnPath1035" d="M0.0 0.0L97.0 0.0L97.0 30.0L0.0 30.0Z" stroke="#323232" stroke-width="2.0" stroke-dasharray="none" opacity="1.0" fill="#ffffff"/><g id="ProcessOnG1036" transform="matrix(1.0,0.0,0.0,1.0,10.0,6.875)"><text id="ProcessOnText1037" fill="#000000" font-size="13" x="37.5" y="13.325" font-family="微软雅黑" font-weight="bold" font-style="normal" text-decoration="none" family="微软雅黑" text-anchor="middle" size="13">X &lt;- 0</text></g></g><g id="ProcessOnG1038" transform="matrix(1.0,0.0,0.0,1.0,850.25,440.0)" opacity="1.0"><path id="ProcessOnPath1039" d="M0.0 0.0L35.5 0.0L35.5 30.0L0.0 30.0Z" stroke="#323232" stroke-width="2.0" stroke-dasharray="none" opacity="1.0" fill="#ffffff"/><g id="ProcessOnG1040" transform="matrix(1.0,0.0,0.0,1.0,10.0,6.875)"><text id="ProcessOnText1041" fill="#000000" font-size="13" x="6.75" y="13.325" font-family="微软雅黑" font-weight="bold" font-style="normal" text-decoration="none" family="微软雅黑" text-anchor="middle" size="13">...</text></g></g><g id="ProcessOnG1042" transform="matrix(1.0,0.0,0.0,1.0,687.0,221.0)" opacity="1.0"><path id="ProcessOnPath1043" d="M0.0 4.0Q0.0 0.0 4.0 0.0L216.0 0.0Q220.0 0.0 220.0 4.0L220.0 156.0Q220.0 160.0 216.0 160.0L4.0 160.0Q0.0 160.0 0.0 156.0Z" stroke="#323232" stroke-width="2.0" stroke-dasharray="none" opacity="1.0" fill="#ffffff"/></g><g id="ProcessOnG1044" transform="matrix(1.0,0.0,0.0,1.0,693.0,221.0)" opacity="1.0"><path id="ProcessOnPath1045" d="M0.0 0.0L128.0 0.0L128.0 30.0L0.0 30.0Z" stroke="none" stroke-width="0.0" stroke-dasharray="none" opacity="1.0" fill="none"/><g id="ProcessOnG1046" transform="matrix(1.0,0.0,0.0,1.0,0.0,5.0)"><text id="ProcessOnText1047" fill="#000000" font-size="16" x="0.0" y="16.4" font-family="微软雅黑" font-weight="bold" font-style="normal" text-decoration="none" family="微软雅黑" text-anchor="start" size="16">State Machine</text></g></g><g id="ProcessOnG1048" transform="matrix(1.0,0.0,0.0,1.0,748.5,273.0)" opacity="1.0"><path id="ProcessOnPath1049" d="M0.0 0.0L97.0 0.0L97.0 30.0L0.0 30.0Z" stroke="#323232" stroke-width="2.0" stroke-dasharray="none" opacity="1.0" fill="#ffffff"/><g id="ProcessOnG1050" transform="matrix(1.0,0.0,0.0,1.0,10.0,6.875)"><text id="ProcessOnText1051" fill="#000000" font-size="13" x="37.5" y="13.325" font-family="微软雅黑" font-weight="bold" font-style="normal" text-decoration="none" family="微软雅黑" text-anchor="middle" size="13">X: 0</text></g></g><g id="ProcessOnG1052" transform="matrix(1.0,0.0,0.0,1.0,748.5,303.0)" opacity="1.0"><path id="ProcessOnPath1053" d="M0.0 0.0L97.0 0.0L97.0 30.0L0.0 30.0Z" stroke="#323232" stroke-width="2.0" stroke-dasharray="none" opacity="1.0" fill="#ffffff"/><g id="ProcessOnG1054" transform="matrix(1.0,0.0,0.0,1.0,10.0,6.875)"><text id="ProcessOnText1055" fill="#000000" font-size="13" x="37.5" y="13.325" font-family="微软雅黑" font-weight="bold" font-style="normal" text-decoration="none" family="微软雅黑" text-anchor="middle" size="13">Y: 0</text></g></g><g id="ProcessOnG1056" transform="matrix(1.0,0.0,0.0,1.0,748.5,333.0)" opacity="1.0"><path id="ProcessOnPath1057" d="M0.0 0.0L97.0 0.0L97.0 30.0L0.0 30.0Z" stroke="#323232" stroke-width="2.0" stroke-dasharray="none" opacity="1.0" fill="#ffffff"/><g id="ProcessOnG1058" transform="matrix(1.0,0.0,0.0,1.0,10.0,6.875)"><text id="ProcessOnText1059" fill="#000000" font-size="13" x="37.5" y="13.325" font-family="微软雅黑" font-weight="bold" font-style="normal" text-decoration="none" family="微软雅黑" text-anchor="middle" size="13">...</text></g></g><g id="ProcessOnG1060"><path id="ProcessOnPath1061" d="M372.0 301.0C446.92956910520917 301.0 516.0826787519342 151.28769993709673 541.7101007166284 221.69846310392956" stroke="#323232" stroke-width="2.0" stroke-dasharray="none" fill="none" marker-end="url(#ProcessOnMarker1062)"/><g id="ProcessOnG1064" transform="matrix(1.0,0.0,0.0,1.0,475.3433555360073,226.82019536440248)"><path id="ProcessOnPath1065" d="M0 0H16.0V16.25H0Z" fill="#fff" transform="matrix(1.0,0.0,0.0,1.0,-8.0,0.0)"/><text id="ProcessOnText1066" fill="#000000" font-size="13" x="0.0" y="13.325" font-family="微软雅黑" font-weight="normal" font-style="normal" text-decoration="none" family="微软雅黑" text-anchor="middle" size="13">[1]</text></g></g><g id="ProcessOnG1067"><path id="ProcessOnPath1068" d="M547.0 273.0C547.0 325.56006088276536 572.0 349.43993911723464 572.0 402.0" stroke="#323232" stroke-width="2.0" stroke-dasharray="none" fill="none" marker-end="url(#ProcessOnMarker1069)"/><g id="ProcessOnG1071" transform="matrix(1.0,0.0,0.0,1.0,559.5,329.375)"><path id="ProcessOnPath1072" d="M0 0H16.0V16.25H0Z" fill="#fff" transform="matrix(1.0,0.0,0.0,1.0,-8.0,0.0)"/><text id="ProcessOnText1073" fill="#000000" font-size="13" x="0.0" y="13.325" font-family="微软雅黑" font-weight="normal" font-style="normal" text-decoration="none" family="微软雅黑" text-anchor="middle" size="13">[2]</text></g></g><g id="ProcessOnG1074"><path id="ProcessOnPath1075" d="M647.0 402.0C647.0 358.54703692496906 643.547036924969 301.0 687.0 301.0" stroke="#323232" stroke-width="2.0" stroke-dasharray="none" fill="none" marker-end="url(#ProcessOnMarker1076)"/><g id="ProcessOnG1078" transform="matrix(1.0,0.0,0.0,1.0,650.7051388468634,327.0801388468634)"><path id="ProcessOnPath1079" d="M0 0H16.0V16.25H0Z" fill="#fff" transform="matrix(1.0,0.0,0.0,1.0,-8.0,0.0)"/><text id="ProcessOnText1080" fill="#000000" font-size="13" x="0.0" y="13.325" font-family="微软雅黑" font-weight="normal" font-style="normal" text-decoration="none" family="微软雅黑" text-anchor="middle" size="13">[3]</text></g></g><g id="ProcessOnG1081"><path id="ProcessOnPath1082" d="M797.0 221.0C797.0 20.955205016476356 301.00000000000006 84.95520501647636 301.0 285.0" stroke="#323232" stroke-width="2.0" stroke-dasharray="none" fill="none" marker-end="url(#ProcessOnMarker1083)"/><g id="ProcessOnG1085" transform="matrix(1.0,0.0,0.0,1.0,549.0,94.84140376235726)"><path id="ProcessOnPath1086" d="M0 0H16.0V16.25H0Z" fill="#fff" transform="matrix(1.0,0.0,0.0,1.0,-8.0,0.0)"/><text id="ProcessOnText1087" fill="#000000" font-size="13" x="0.0" y="13.325" font-family="微软雅黑" font-weight="normal" font-style="normal" text-decoration="none" family="微软雅黑" text-anchor="middle" size="13">[4]</text></g></g><g id="ProcessOnG1088" transform="matrix(1.0,0.0,0.0,1.0,518.0,555.0)" opacity="1.0"><path id="ProcessOnPath1089" d="M0.0 4.0Q0.0 0.0 4.0 0.0L418.0 0.0Q422.0 0.0 422.0 4.0L422.0 323.0Q422.0 327.0 418.0 327.0L4.0 327.0Q0.0 327.0 0.0 323.0Z" stroke="#323232" stroke-width="2.0" stroke-dasharray="none" opacity="1.0" fill="#ffffff"/></g><g id="ProcessOnG1090" transform="matrix(1.0,0.0,0.0,1.0,527.0,555.0)" opacity="1.0"><path id="ProcessOnPath1091" d="M0.0 0.0L116.0 0.0L116.0 32.0L0.0 32.0Z" stroke="none" stroke-width="0.0" stroke-dasharray="none" opacity="1.0" fill="none"/><g id="ProcessOnG1092" transform="matrix(1.0,0.0,0.0,1.0,0.0,4.75)"><text id="ProcessOnText1093" fill="#000000" font-size="18" x="0.0" y="18.45" font-family="微软雅黑" font-weight="bold" font-style="normal" text-decoration="none" family="微软雅黑" text-anchor="start" size="18">Server</text></g></g><g id="ProcessOnG1094" transform="matrix(1.0,0.0,0.0,1.0,538.0,604.0)" opacity="1.0"><path id="ProcessOnPath1095" d="M0.0 4.0Q0.0 0.0 4.0 0.0L112.0 0.0Q116.0 0.0 116.0 4.0L116.0 48.0Q116.0 52.0 112.0 52.0L4.0 52.0Q0.0 52.0 0.0 48.0Z" stroke="#323232" stroke-width="2.0" stroke-dasharray="none" opacity="1.0" fill="#ffffff"/><g id="ProcessOnG1096" transform="matrix(1.0,0.0,0.0,1.0,10.0,6.0)"><text id="ProcessOnText1097" fill="#000000" font-size="16" x="0.0" y="16.4" font-family="微软雅黑" font-weight="bold" font-style="normal" text-decoration="none" family="微软雅黑" text-anchor="start" size="16">Consensus </text><text id="ProcessOnText1098" fill="#000000" font-size="16" x="0.0" y="36.4" font-family="微软雅黑" font-weight="bold" font-style="normal" text-decoration="none" family="微软雅黑" text-anchor="start" size="16">Module</text></g></g><g id="ProcessOnG1099" transform="matrix(1.0,0.0,0.0,1.0,538.0,785.0)" opacity="1.0"><path id="ProcessOnPath1100" d="M0.0 4.0Q0.0 0.0 4.0 0.0L365.0 0.0Q369.0 0.0 369.0 4.0L369.0 73.0Q369.0 77.0 365.0 77.0L4.0 77.0Q0.0 77.0 0.0 73.0Z" stroke="#323232" stroke-width="2.0" stroke-dasharray="none" opacity="1.0" fill="#ffffff"/></g><g id="ProcessOnG1101" transform="matrix(1.0,0.0,0.0,1.0,540.25,785.0)" opacity="1.0"><path id="ProcessOnPath1102" d="M0.0 0.0L116.0 0.0L116.0 32.0L0.0 32.0Z" stroke="none" stroke-width="0.0" stroke-dasharray="none" opacity="1.0" fill="none"/><g id="ProcessOnG1103" transform="matrix(1.0,0.0,0.0,1.0,0.0,6.0)"><text id="ProcessOnText1104" fill="#000000" font-size="16" x="0.0" y="16.4" font-family="微软雅黑" font-weight="bold" font-style="normal" text-decoration="none" family="微软雅黑" text-anchor="start" size="16">Log</text></g></g><g id="ProcessOnG1105" transform="matrix(1.0,0.0,0.0,1.0,559.25,823.0)" opacity="1.0"><path id="ProcessOnPath1106" d="M0.0 0.0L97.0 0.0L97.0 30.0L0.0 30.0Z" stroke="#323232" stroke-width="2.0" stroke-dasharray="none" opacity="1.0" fill="#ffffff"/><g id="ProcessOnG1107" transform="matrix(1.0,0.0,0.0,1.0,10.0,6.875)"><text id="ProcessOnText1108" fill="#000000" font-size="13" x="37.5" y="13.325" font-family="微软雅黑" font-weight="bold" font-style="normal" text-decoration="none" family="微软雅黑" text-anchor="middle" size="13">X &lt;- 1</text></g></g><g id="ProcessOnG1109" transform="matrix(1.0,0.0,0.0,1.0,656.25,823.0)" opacity="1.0"><path id="ProcessOnPath1110" d="M0.0 0.0L97.0 0.0L97.0 30.0L0.0 30.0Z" stroke="#323232" stroke-width="2.0" stroke-dasharray="none" opacity="1.0" fill="#ffffff"/><g id="ProcessOnG1111" transform="matrix(1.0,0.0,0.0,1.0,10.0,6.875)"><text id="ProcessOnText1112" fill="#000000" font-size="13" x="37.5" y="13.325" font-family="微软雅黑" font-weight="bold" font-style="normal" text-decoration="none" family="微软雅黑" text-anchor="middle" size="13">Y &lt;- 0</text></g></g><g id="ProcessOnG1113" transform="matrix(1.0,0.0,0.0,1.0,753.25,823.0)" opacity="1.0"><path id="ProcessOnPath1114" d="M0.0 0.0L97.0 0.0L97.0 30.0L0.0 30.0Z" stroke="#323232" stroke-width="2.0" stroke-dasharray="none" opacity="1.0" fill="#ffffff"/><g id="ProcessOnG1115" transform="matrix(1.0,0.0,0.0,1.0,10.0,6.875)"><text id="ProcessOnText1116" fill="#000000" font-size="13" x="37.5" y="13.325" font-family="微软雅黑" font-weight="bold" font-style="normal" text-decoration="none" family="微软雅黑" text-anchor="middle" size="13">X &lt;- 0</text></g></g><g id="ProcessOnG1117" transform="matrix(1.0,0.0,0.0,1.0,850.25,823.0)" opacity="1.0"><path id="ProcessOnPath1118" d="M0.0 0.0L35.5 0.0L35.5 30.0L0.0 30.0Z" stroke="#323232" stroke-width="2.0" stroke-dasharray="none" opacity="1.0" fill="#ffffff"/><g id="ProcessOnG1119" transform="matrix(1.0,0.0,0.0,1.0,10.0,6.875)"><text id="ProcessOnText1120" fill="#000000" font-size="13" x="6.75" y="13.325" font-family="微软雅黑" font-weight="bold" font-style="normal" text-decoration="none" family="微软雅黑" text-anchor="middle" size="13">...</text></g></g><g id="ProcessOnG1121" transform="matrix(1.0,0.0,0.0,1.0,687.0,604.0)" opacity="1.0"><path id="ProcessOnPath1122" d="M0.0 4.0Q0.0 0.0 4.0 0.0L216.0 0.0Q220.0 0.0 220.0 4.0L220.0 156.0Q220.0 160.0 216.0 160.0L4.0 160.0Q0.0 160.0 0.0 156.0Z" stroke="#323232" stroke-width="2.0" stroke-dasharray="none" opacity="1.0" fill="#ffffff"/></g><g id="ProcessOnG1123" transform="matrix(1.0,0.0,0.0,1.0,693.0,604.0)" opacity="1.0"><path id="ProcessOnPath1124" d="M0.0 0.0L128.0 0.0L128.0 30.0L0.0 30.0Z" stroke="none" stroke-width="0.0" stroke-dasharray="none" opacity="1.0" fill="none"/><g id="ProcessOnG1125" transform="matrix(1.0,0.0,0.0,1.0,0.0,5.0)"><text id="ProcessOnText1126" fill="#000000" font-size="16" x="0.0" y="16.4" font-family="微软雅黑" font-weight="bold" font-style="normal" text-decoration="none" family="微软雅黑" text-anchor="start" size="16">State Machine</text></g></g><g id="ProcessOnG1127" transform="matrix(1.0,0.0,0.0,1.0,748.5,656.0)" opacity="1.0"><path id="ProcessOnPath1128" d="M0.0 0.0L97.0 0.0L97.0 30.0L0.0 30.0Z" stroke="#323232" stroke-width="2.0" stroke-dasharray="none" opacity="1.0" fill="#ffffff"/><g id="ProcessOnG1129" transform="matrix(1.0,0.0,0.0,1.0,10.0,6.875)"><text id="ProcessOnText1130" fill="#000000" font-size="13" x="37.5" y="13.325" font-family="微软雅黑" font-weight="bold" font-style="normal" text-decoration="none" family="微软雅黑" text-anchor="middle" size="13">X: 0</text></g></g><g id="ProcessOnG1131" transform="matrix(1.0,0.0,0.0,1.0,748.5,686.0)" opacity="1.0"><path id="ProcessOnPath1132" d="M0.0 0.0L97.0 0.0L97.0 30.0L0.0 30.0Z" stroke="#323232" stroke-width="2.0" stroke-dasharray="none" opacity="1.0" fill="#ffffff"/><g id="ProcessOnG1133" transform="matrix(1.0,0.0,0.0,1.0,10.0,6.875)"><text id="ProcessOnText1134" fill="#000000" font-size="13" x="37.5" y="13.325" font-family="微软雅黑" font-weight="bold" font-style="normal" text-decoration="none" family="微软雅黑" text-anchor="middle" size="13">Y: 0</text></g></g><g id="ProcessOnG1135" transform="matrix(1.0,0.0,0.0,1.0,748.5,716.0)" opacity="1.0"><path id="ProcessOnPath1136" d="M0.0 0.0L97.0 0.0L97.0 30.0L0.0 30.0Z" stroke="#323232" stroke-width="2.0" stroke-dasharray="none" opacity="1.0" fill="#ffffff"/><g id="ProcessOnG1137" transform="matrix(1.0,0.0,0.0,1.0,10.0,6.875)"><text id="ProcessOnText1138" fill="#000000" font-size="13" x="37.5" y="13.325" font-family="微软雅黑" font-weight="bold" font-style="normal" text-decoration="none" family="微软雅黑" text-anchor="middle" size="13">...</text></g></g><g id="ProcessOnG1139"><path id="ProcessOnPath1140" d="M546.0 273.0C546.0 415.83584984169767 395.16415015830233 630.0 538.0 630.0" stroke="#323232" stroke-width="2.0" stroke-dasharray="none" fill="none" marker-end="url(#ProcessOnMarker1141)"/><g id="ProcessOnG1143" transform="matrix(1.0,0.0,0.0,1.0,488.43655630936337,496.93844369063663)"><path id="ProcessOnPath1144" d="M0 0H16.0V16.25H0Z" fill="#fff" transform="matrix(1.0,0.0,0.0,1.0,-8.0,0.0)"/><text id="ProcessOnText1145" fill="#000000" font-size="13" x="0.0" y="13.325" font-family="微软雅黑" font-weight="normal" font-style="normal" text-decoration="none" family="微软雅黑" text-anchor="middle" size="13">[2]</text></g></g><g id="ProcessOnG1146"><path id="ProcessOnPath1147" d="M372.0 301.0C511.6334994091699 301.0 407.4858940946191 559.9526312356394 538.6984631039295 607.7101007166283" stroke="#323232" stroke-width="2.0" stroke-dasharray="10.0 4.0" fill="none" marker-end="url(#ProcessOnMarker1148)"/><g id="ProcessOnG1150" transform="matrix(1.0,0.0,0.0,1.0,458.50708045191203,428.32099930294333)"><path id="ProcessOnPath1151" d="M0 0H16.0V16.25H0Z" fill="#fff" transform="matrix(1.0,0.0,0.0,1.0,-8.0,0.0)"/><text id="ProcessOnText1152" fill="#000000" font-size="13" x="0.0" y="13.325" font-family="微软雅黑" font-weight="normal" font-style="normal" text-decoration="none" family="微软雅黑" text-anchor="middle" size="13">[1]</text></g></g><g id="ProcessOnG1153"><path id="ProcessOnPath1154" d="M577.0 656.0C577.0 707.9476659725921 592.0 733.0523340274079 592.0 785.0" stroke="#323232" stroke-width="2.0" stroke-dasharray="none" fill="none" marker-end="url(#ProcessOnMarker1155)"/><g id="ProcessOnG1157" transform="matrix(1.0,0.0,0.0,1.0,584.5,712.375)"><path id="ProcessOnPath1158" d="M0 0H16.0V16.25H0Z" fill="#fff" transform="matrix(1.0,0.0,0.0,1.0,-8.0,0.0)"/><text id="ProcessOnText1159" fill="#000000" font-size="13" x="0.0" y="13.325" font-family="微软雅黑" font-weight="normal" font-style="normal" text-decoration="none" family="微软雅黑" text-anchor="middle" size="13">[2]</text></g></g><g id="ProcessOnG1160"><path id="ProcessOnPath1161" d="M625.0 785.0C625.0 737.5953588770044 639.5953588770044 684.0 687.0 684.0" stroke="#323232" stroke-width="2.0" stroke-dasharray="none" fill="none" marker-end="url(#ProcessOnMarker1162)"/><g id="ProcessOnG1164" transform="matrix(1.0,0.0,0.0,1.0,638.2232595788767,708.5982595788767)"><path id="ProcessOnPath1165" d="M0 0H16.0V16.25H0Z" fill="#fff" transform="matrix(1.0,0.0,0.0,1.0,-8.0,0.0)"/><text id="ProcessOnText1166" fill="#000000" font-size="13" x="0.0" y="13.325" font-family="微软雅黑" font-weight="normal" font-style="normal" text-decoration="none" family="微软雅黑" text-anchor="middle" size="13">[3]</text></g></g><g id="ProcessOnG1167" transform="matrix(1.0,0.0,0.0,1.0,68.0,562.0)" opacity="1.0"><path id="ProcessOnPath1168" d="M0.0 0.0L252.0 0.0L252.0 42.0L0.0 42.0Z" stroke="#323232" stroke-width="2.0" stroke-dasharray="10.0 4.0" opacity="1.0" fill="#ffffff"/><g id="ProcessOnG1169" transform="matrix(1.0,0.0,0.0,1.0,10.0,12.875)"><text id="ProcessOnText1170" fill="#000000" font-size="13" x="115.0" y="13.325" font-family="微软雅黑" font-weight="bold" font-style="normal" text-decoration="none" family="微软雅黑" text-anchor="middle" size="13">每个日志模块，均记录顺序一致的操作</text></g></g><g id="ProcessOnG1171"><path id="ProcessOnPath1172" d="M320.0 583.0C424.17696482428346 583.0 433.82303517571654 440.5 538.0 440.5" stroke="#323232" stroke-width="2.0" stroke-dasharray="10.0 4.0" fill="none" marker-end="url(#ProcessOnMarker1173)"/></g><g id="ProcessOnG1175"><path id="ProcessOnPath1176" d="M320.0 583.0C449.8394393087093 583.0 408.1605606912907 823.5 538.0 823.5" stroke="#323232" stroke-width="2.0" stroke-dasharray="10.0 4.0" fill="none" marker-end="url(#ProcessOnMarker1177)"/></g><g id="ProcessOnG1179" transform="matrix(1.0,0.0,0.0,1.0,68.0,419.5)" opacity="1.0"><path id="ProcessOnPath1180" d="M0.0 0.0L252.0 0.0L252.0 42.0L0.0 42.0Z" stroke="#323232" stroke-width="2.0" stroke-dasharray="10.0 4.0" opacity="1.0" fill="#ffffff"/><g id="ProcessOnG1181" transform="matrix(1.0,0.0,0.0,1.0,10.0,12.875)"><text id="ProcessOnText1182" fill="#000000" font-size="13" x="115.0" y="13.325" font-family="微软雅黑" font-weight="bold" font-style="normal" text-decoration="none" family="微软雅黑" text-anchor="middle" size="13">保证集群服务器上日志一致性</text></g></g><g id="ProcessOnG1183"><path id="ProcessOnPath1184" d="M320.0 440.5C436.59588328924826 440.5 421.40411671075174 247.0 538.0 247.0" stroke="#323232" stroke-width="2.0" stroke-dasharray="10.0 4.0" fill="none" marker-end="url(#ProcessOnMarker1185)"/></g><g id="ProcessOnG1187"><path id="ProcessOnPath1188" d="M320.0 440.5C439.2887253683264 440.5 418.7112746316736 644.0 538.0 644.0" stroke="#323232" stroke-width="2.0" stroke-dasharray="10.0 4.0" fill="none" marker-end="url(#ProcessOnMarker1189)"/></g></g></g></svg>