<svg xmlns="http://www.w3.org/2000/svg" xmlns:xlink="http://www.w3.org/1999/xlink" id="processonSvg1000" viewBox="192.5 90.0 525.5 627.0" width="525.5" height="627.0"><defs id="ProcessOnDefs1001"><marker id="ProcessOnMarker1019" markerUnits="userSpaceOnUse" orient="auto" markerWidth="14.289086868996552" markerHeight="19.055054660878554" viewBox="-0.5877852522924731 -0.8090169943749475 14.289086868996552 19.055054660878554" refX="12.0" refY="8.71851033606433"><path id="ProcessOnPath1020" d="M0 0L12.0 8.71851033606433L0 17.43702067212866" stroke="#323232" stroke-width="2.0" fill="none" transform="matrix(1.0,0.0,0.0,1.0,0.0,0.0)"/></marker><marker id="ProcessOnMarker1023" markerUnits="userSpaceOnUse" orient="auto" markerWidth="14.289086868996552" markerHeight="19.055054660878554" viewBox="-0.5877852522924731 -0.8090169943749475 14.289086868996552 19.055054660878554" refX="12.0" refY="8.71851033606433"><path id="ProcessOnPath1024" d="M0 0L12.0 8.71851033606433L0 17.43702067212866" stroke="#323232" stroke-width="2.0" fill="none" transform="matrix(1.0,0.0,0.0,1.0,0.0,0.0)"/></marker><marker id="ProcessOnMarker1034" markerUnits="userSpaceOnUse" orient="auto" markerWidth="14.289086868996552" markerHeight="19.055054660878554" viewBox="-0.5877852522924731 -0.8090169943749475 14.289086868996552 19.055054660878554" refX="12.0" refY="8.71851033606433"><path id="ProcessOnPath1035" d="M0 0L12.0 8.71851033606433L0 17.43702067212866" stroke="#323232" stroke-width="2.0" fill="none" transform="matrix(1.0,0.0,0.0,1.0,0.0,0.0)"/></marker><marker id="ProcessOnMarker1045" markerUnits="userSpaceOnUse" orient="auto" markerWidth="14.289086868996552" markerHeight="19.055054660878554" viewBox="-0.5877852522924731 -0.8090169943749475 14.289086868996552 19.055054660878554" refX="12.0" refY="8.71851033606433"><path id="ProcessOnPath1046" d="M0 0L12.0 8.71851033606433L0 17.43702067212866" stroke="#323232" stroke-width="2.0" fill="none" transform="matrix(1.0,0.0,0.0,1.0,0.0,0.0)"/></marker><marker id="ProcessOnMarker1052" markerUnits="userSpaceOnUse" orient="auto" markerWidth="14.289086868996552" markerHeight="19.055054660878554" viewBox="-0.5877852522924731 -0.8090169943749475 14.289086868996552 19.055054660878554" refX="12.0" refY="8.71851033606433"><path id="ProcessOnPath1053" d="M0 0L12.0 8.71851033606433L0 17.43702067212866" stroke="#323232" stroke-width="2.0" fill="none" transform="matrix(1.0,0.0,0.0,1.0,0.0,0.0)"/></marker><marker id="ProcessOnMarker1063" markerUnits="userSpaceOnUse" orient="auto" markerWidth="14.289086868996552" markerHeight="19.055054660878554" viewBox="-0.5877852522924731 -0.8090169943749475 14.289086868996552 19.055054660878554" refX="12.0" refY="8.71851033606433"><path id="ProcessOnPath1064" d="M0 0L12.0 8.71851033606433L0 17.43702067212866" stroke="#323232" stroke-width="2.0" fill="none" transform="matrix(1.0,0.0,0.0,1.0,0.0,0.0)"/></marker><marker id="ProcessOnMarker1070" markerUnits="userSpaceOnUse" orient="auto" markerWidth="14.289086868996552" markerHeight="19.055054660878554" viewBox="-0.5877852522924731 -0.8090169943749475 14.289086868996552 19.055054660878554" refX="12.0" refY="8.71851033606433"><path id="ProcessOnPath1071" d="M0 0L12.0 8.71851033606433L0 17.43702067212866" stroke="#323232" stroke-width="2.0" fill="none" transform="matrix(1.0,0.0,0.0,1.0,0.0,0.0)"/></marker><marker id="ProcessOnMarker1081" markerUnits="userSpaceOnUse" orient="auto" markerWidth="14.289086868996552" markerHeight="19.055054660878554" viewBox="-0.5877852522924731 -0.8090169943749475 14.289086868996552 19.055054660878554" refX="12.0" refY="8.71851033606433"><path id="ProcessOnPath1082" d="M0 0L12.0 8.71851033606433L0 17.43702067212866" stroke="#323232" stroke-width="2.0" fill="none" transform="matrix(1.0,0.0,0.0,1.0,0.0,0.0)"/></marker><marker id="ProcessOnMarker1088" markerUnits="userSpaceOnUse" orient="auto" markerWidth="14.289086868996552" markerHeight="19.055054660878554" viewBox="-0.5877852522924731 -0.8090169943749475 14.289086868996552 19.055054660878554" refX="12.0" refY="8.71851033606433"><path id="ProcessOnPath1089" d="M0 0L12.0 8.71851033606433L0 17.43702067212866" stroke="#323232" stroke-width="2.0" fill="none" transform="matrix(1.0,0.0,0.0,1.0,0.0,0.0)"/></marker></defs><g id="ProcessOnG1002"><path id="ProcessOnPath1003" d="M192.5 90.0H718.0V717.0H192.5V90.0Z" fill="none"/><g id="ProcessOnG1004"><g id="ProcessOnG1005" transform="matrix(1.0,0.0,0.0,1.0,507.5,110.0)" opacity="1.0"><path id="ProcessOnPath1006" d="M10.666666666666666 0.0L87.33333333333333 0.0C101.55555555555556 0.0 101.55555555555556 32.0 87.33333333333333 32.0L10.666666666666666 32.0C-3.5555555555555554 32.0 -3.5555555555555554 0.0 10.666666666666666 0.0Z" stroke="#323232" stroke-width="2.0" stroke-dasharray="none" opacity="1.0" fill="#ffffff"/><g id="ProcessOnG1007" transform="matrix(1.0,0.0,0.0,1.0,10.0,7.875)"><text id="ProcessOnText1008" fill="#000000" font-size="13" x="38.0" y="13.325" font-family="微软雅黑" font-weight="normal" font-style="normal" text-decoration="none" family="微软雅黑" text-anchor="middle" size="13">Start</text></g></g><g id="ProcessOnG1009" transform="matrix(1.0,0.0,0.0,1.0,212.5,490.0)" opacity="1.0"><path id="ProcessOnPath1010" d="M10.666666666666666 0.0L87.33333333333333 0.0C101.55555555555556 0.0 101.55555555555556 32.0 87.33333333333333 32.0L10.666666666666666 32.0C-3.5555555555555554 32.0 -3.5555555555555554 0.0 10.666666666666666 0.0Z" stroke="#323232" stroke-width="2.0" stroke-dasharray="none" opacity="1.0" fill="#ffffff"/><g id="ProcessOnG1011" transform="matrix(1.0,0.0,0.0,1.0,10.0,7.875)"><text id="ProcessOnText1012" fill="#000000" font-size="13" x="38.0" y="13.325" font-family="微软雅黑" font-weight="normal" font-style="normal" text-decoration="none" family="微软雅黑" text-anchor="middle" size="13">false</text></g></g><g id="ProcessOnG1013" transform="matrix(1.0,0.0,0.0,1.0,456.5,201.0)" opacity="1.0"><path id="ProcessOnPath1014" d="M0.0 24.0L100.0 0.0L200.0 24.0L100.0 48.0Z" stroke="#323232" stroke-width="2.0" stroke-dasharray="none" opacity="1.0" fill="#ffffff"/><g id="ProcessOnG1015" transform="matrix(1.0,0.0,0.0,1.0,10.0,16.115000000000002)"><text id="ProcessOnText1016" fill="#000000" font-size="13" x="89.0" y="13.325" font-family="微软雅黑" font-weight="normal" font-style="normal" text-decoration="none" family="微软雅黑" text-anchor="middle" size="13">term &lt; currentTerm</text></g></g><g id="ProcessOnG1017"><path id="ProcessOnPath1018" d="M556.5 142.0L556.5 171.5L556.5 171.5L556.5 201.0" stroke="#323232" stroke-width="2.0" stroke-dasharray="none" fill="none" marker-end="url(#ProcessOnMarker1019)"/></g><g id="ProcessOnG1021"><path id="ProcessOnPath1022" d="M456.5 225.0L261.5 225.0L261.5 490.0" stroke="#323232" stroke-width="2.0" stroke-dasharray="none" fill="none" marker-end="url(#ProcessOnMarker1023)"/><g id="ProcessOnG1025" transform="matrix(1.0,0.0,0.0,1.0,261.5,251.875)"><path id="ProcessOnPath1026" d="M0 0H23.0V16.25H0Z" fill="#fff" transform="matrix(1.0,0.0,0.0,1.0,-11.5,0.0)"/><text id="ProcessOnText1027" fill="#000000" font-size="13" x="0.0" y="13.325" font-family="微软雅黑" font-weight="bold" font-style="normal" text-decoration="none" family="微软雅黑" text-anchor="middle" size="13">YES</text></g></g><g id="ProcessOnG1028" transform="matrix(1.0,0.0,0.0,1.0,456.5,309.0)" opacity="1.0"><path id="ProcessOnPath1029" d="M0.0 24.0L100.0 0.0L200.0 24.0L100.0 48.0Z" stroke="#323232" stroke-width="2.0" stroke-dasharray="none" opacity="1.0" fill="#ffffff"/><g id="ProcessOnG1030" transform="matrix(1.0,0.0,0.0,1.0,10.0,16.115000000000002)"><text id="ProcessOnText1031" fill="#000000" font-size="13" x="89.0" y="13.325" font-family="微软雅黑" font-weight="normal" font-style="normal" text-decoration="none" family="微软雅黑" text-anchor="middle" size="13">voteFor == nil</text></g></g><g id="ProcessOnG1032"><path id="ProcessOnPath1033" d="M556.5 249.0L556.5 279.0L556.5 279.0L556.5 309.0" stroke="#323232" stroke-width="2.0" stroke-dasharray="none" fill="none" marker-end="url(#ProcessOnMarker1034)"/><g id="ProcessOnG1036" transform="matrix(1.0,0.0,0.0,1.0,556.5,270.875)"><path id="ProcessOnPath1037" d="M0 0H22.0V16.25H0Z" fill="#fff" transform="matrix(1.0,0.0,0.0,1.0,-11.0,0.0)"/><text id="ProcessOnText1038" fill="#000000" font-size="13" x="0.0" y="13.325" font-family="微软雅黑" font-weight="bold" font-style="normal" text-decoration="none" family="微软雅黑" text-anchor="middle" size="13">NO</text></g></g><g id="ProcessOnG1039" transform="matrix(1.0,0.0,0.0,1.0,456.5,426.0)" opacity="1.0"><path id="ProcessOnPath1040" d="M0.0 24.0L100.0 0.0L200.0 24.0L100.0 48.0Z" stroke="#323232" stroke-width="2.0" stroke-dasharray="none" opacity="1.0" fill="#ffffff"/><g id="ProcessOnG1041" transform="matrix(1.0,0.0,0.0,1.0,10.0,16.115000000000002)"><text id="ProcessOnText1042" fill="#000000" font-size="13" x="89.0" y="13.325" font-family="微软雅黑" font-weight="normal" font-style="normal" text-decoration="none" family="微软雅黑" text-anchor="middle" size="13">voteFor == candidateId</text></g></g><g id="ProcessOnG1043"><path id="ProcessOnPath1044" d="M556.5 357.0L556.5 391.5L556.5 391.5L556.5 426.0" stroke="#323232" stroke-width="2.0" stroke-dasharray="none" fill="none" marker-end="url(#ProcessOnMarker1045)"/><g id="ProcessOnG1047" transform="matrix(1.0,0.0,0.0,1.0,556.5,383.375)"><path id="ProcessOnPath1048" d="M0 0H22.0V16.25H0Z" fill="#fff" transform="matrix(1.0,0.0,0.0,1.0,-11.0,0.0)"/><text id="ProcessOnText1049" fill="#000000" font-size="13" x="0.0" y="13.325" font-family="微软雅黑" font-weight="bold" font-style="normal" text-decoration="none" family="微软雅黑" text-anchor="middle" size="13">NO</text></g></g><g id="ProcessOnG1050"><path id="ProcessOnPath1051" d="M456.5 450.0L261.5 450.0L261.5 490.0" stroke="#323232" stroke-width="2.0" stroke-dasharray="none" fill="none" marker-end="url(#ProcessOnMarker1052)"/><g id="ProcessOnG1054" transform="matrix(1.0,0.0,0.0,1.0,339.0,441.875)"><path id="ProcessOnPath1055" d="M0 0H22.0V16.25H0Z" fill="#fff" transform="matrix(1.0,0.0,0.0,1.0,-11.0,0.0)"/><text id="ProcessOnText1056" fill="#000000" font-size="13" x="0.0" y="13.325" font-family="微软雅黑" font-weight="bold" font-style="normal" text-decoration="none" family="微软雅黑" text-anchor="middle" size="13">NO</text></g></g><g id="ProcessOnG1057" transform="matrix(1.0,0.0,0.0,1.0,456.5,552.0)" opacity="1.0"><path id="ProcessOnPath1058" d="M0.0 24.0L100.0 0.0L200.0 24.0L100.0 48.0Z" stroke="#323232" stroke-width="2.0" stroke-dasharray="none" opacity="1.0" fill="#ffffff"/><g id="ProcessOnG1059" transform="matrix(1.0,0.0,0.0,1.0,10.0,16.115000000000002)"><text id="ProcessOnText1060" fill="#000000" font-size="13" x="89.0" y="13.325" font-family="微软雅黑" font-weight="normal" font-style="normal" text-decoration="none" family="微软雅黑" text-anchor="middle" size="13">候选人拥有记录版本较低？</text></g></g><g id="ProcessOnG1061"><path id="ProcessOnPath1062" d="M556.5 474.0L556.5 513.0L556.5 513.0L556.5 552.0" stroke="#323232" stroke-width="2.0" stroke-dasharray="none" fill="none" marker-end="url(#ProcessOnMarker1063)"/><g id="ProcessOnG1065" transform="matrix(1.0,0.0,0.0,1.0,556.5,504.875)"><path id="ProcessOnPath1066" d="M0 0H23.0V16.25H0Z" fill="#fff" transform="matrix(1.0,0.0,0.0,1.0,-11.5,0.0)"/><text id="ProcessOnText1067" fill="#000000" font-size="13" x="0.0" y="13.325" font-family="微软雅黑" font-weight="bold" font-style="normal" text-decoration="none" family="微软雅黑" text-anchor="middle" size="13">YES</text></g></g><g id="ProcessOnG1068"><path id="ProcessOnPath1069" d="M456.5 576.0L261.5 576.0L261.5 522.0" stroke="#323232" stroke-width="2.0" stroke-dasharray="none" fill="none" marker-end="url(#ProcessOnMarker1070)"/><g id="ProcessOnG1072" transform="matrix(1.0,0.0,0.0,1.0,332.0,567.875)"><path id="ProcessOnPath1073" d="M0 0H23.0V16.25H0Z" fill="#fff" transform="matrix(1.0,0.0,0.0,1.0,-11.5,0.0)"/><text id="ProcessOnText1074" fill="#000000" font-size="13" x="0.0" y="13.325" font-family="微软雅黑" font-weight="bold" font-style="normal" text-decoration="none" family="微软雅黑" text-anchor="middle" size="13">YES</text></g></g><g id="ProcessOnG1075" transform="matrix(1.0,0.0,0.0,1.0,507.5,665.0)" opacity="1.0"><path id="ProcessOnPath1076" d="M10.666666666666666 0.0L87.33333333333333 0.0C101.55555555555556 0.0 101.55555555555556 32.0 87.33333333333333 32.0L10.666666666666666 32.0C-3.5555555555555554 32.0 -3.5555555555555554 0.0 10.666666666666666 0.0Z" stroke="#323232" stroke-width="2.0" stroke-dasharray="none" opacity="1.0" fill="#ffffff"/><g id="ProcessOnG1077" transform="matrix(1.0,0.0,0.0,1.0,10.0,7.875)"><text id="ProcessOnText1078" fill="#000000" font-size="13" x="38.0" y="13.325" font-family="微软雅黑" font-weight="normal" font-style="normal" text-decoration="none" family="微软雅黑" text-anchor="middle" size="13">true</text></g></g><g id="ProcessOnG1079"><path id="ProcessOnPath1080" d="M556.5 600.0L556.5 632.5L556.5 632.5L556.5 665.0" stroke="#323232" stroke-width="2.0" stroke-dasharray="none" fill="none" marker-end="url(#ProcessOnMarker1081)"/><g id="ProcessOnG1083" transform="matrix(1.0,0.0,0.0,1.0,556.5,624.375)"><path id="ProcessOnPath1084" d="M0 0H22.0V16.25H0Z" fill="#fff" transform="matrix(1.0,0.0,0.0,1.0,-11.0,0.0)"/><text id="ProcessOnText1085" fill="#000000" font-size="13" x="0.0" y="13.325" font-family="微软雅黑" font-weight="bold" font-style="normal" text-decoration="none" family="微软雅黑" text-anchor="middle" size="13">NO</text></g></g><g id="ProcessOnG1086"><path id="ProcessOnPath1087" d="M656.5 333.0L686.5 333.0L686.5 576.0L656.5 576.0" stroke="#323232" stroke-width="2.0" stroke-dasharray="none" fill="none" marker-end="url(#ProcessOnMarker1088)"/><g id="ProcessOnG1090" transform="matrix(1.0,0.0,0.0,1.0,686.5,446.375)"><path id="ProcessOnPath1091" d="M0 0H23.0V16.25H0Z" fill="#fff" transform="matrix(1.0,0.0,0.0,1.0,-11.5,0.0)"/><text id="ProcessOnText1092" fill="#000000" font-size="13" x="0.0" y="13.325" font-family="微软雅黑" font-weight="bold" font-style="normal" text-decoration="none" family="微软雅黑" text-anchor="middle" size="13">YES</text></g></g></g></g></svg>