<svg xmlns="http://www.w3.org/2000/svg" xmlns:xlink="http://www.w3.org/1999/xlink" id="processonSvg1000" viewBox="241.5 40.0 467.0 309.0" width="467.0" height="309.0"><defs id="ProcessOnDefs1001"><marker id="ProcessOnMarker1092" markerUnits="userSpaceOnUse" orient="auto" markerWidth="14.289086868996552" markerHeight="19.055054660878554" viewBox="-0.5877852522924731 -0.8090169943749475 14.289086868996552 19.055054660878554" refX="1.1135163644116066" refY="8.71851033606433"><path id="ProcessOnPath1093" d="M0 0L12.0 8.71851033606433L0 17.43702067212866" stroke="#323232" stroke-width="2.0" fill="none" transform="matrix(-1.0,1.2246467991473532E-16,-1.2246467991473532E-16,-1.0,13.113516364411606,17.43702067212866)"/></marker><marker id="ProcessOnMarker1094" markerUnits="userSpaceOnUse" orient="auto" markerWidth="14.289086868996552" markerHeight="19.055054660878554" viewBox="-0.5877852522924731 -0.8090169943749475 14.289086868996552 19.055054660878554" refX="12.0" refY="8.71851033606433"><path id="ProcessOnPath1095" d="M0 0L12.0 8.71851033606433L0 17.43702067212866" stroke="#323232" stroke-width="2.0" fill="none" transform="matrix(1.0,0.0,0.0,1.0,0.0,0.0)"/></marker></defs><g id="ProcessOnG1002"><path id="ProcessOnPath1003" d="M241.5 40.0H708.5V349.0H241.5V40.0Z" fill="none"/><g id="ProcessOnG1004"><g id="ProcessOnG1005" transform="matrix(1.0,0.0,0.0,1.0,261.5,82.0)" opacity="1.0"><path id="ProcessOnPath1006" d="M0.0 0.0L61.0 0.0L61.0 40.0L0.0 40.0Z" stroke="#323232" stroke-width="2.0" stroke-dasharray="none" opacity="1.0" fill="#66ffb3"/><g id="ProcessOnG1007" transform="matrix(1.0,0.0,0.0,1.0,10.0,3.75)"><text id="ProcessOnText1008" fill="#000000" font-size="13" x="19.5" y="13.325" font-family="微软雅黑" font-weight="normal" font-style="normal" text-decoration="none" family="微软雅黑" text-anchor="middle" size="13">1</text><text id="ProcessOnText1009" fill="#000000" font-size="13" x="19.5" y="29.575" font-family="微软雅黑" font-weight="normal" font-style="normal" text-decoration="none" family="微软雅黑" text-anchor="middle" size="13">x &lt;- 3</text></g></g><g id="ProcessOnG1010" transform="matrix(1.0,0.0,0.0,1.0,322.5,82.0)" opacity="1.0"><path id="ProcessOnPath1011" d="M0.0 0.0L61.0 0.0L61.0 40.0L0.0 40.0Z" stroke="#323232" stroke-width="2.0" stroke-dasharray="none" opacity="1.0" fill="#66ffb3"/><g id="ProcessOnG1012" transform="matrix(1.0,0.0,0.0,1.0,10.0,3.75)"><text id="ProcessOnText1013" fill="#000000" font-size="13" x="19.5" y="13.325" font-family="微软雅黑" font-weight="normal" font-style="normal" text-decoration="none" family="微软雅黑" text-anchor="middle" size="13">1</text><text id="ProcessOnText1014" fill="#000000" font-size="13" x="19.5" y="29.575" font-family="微软雅黑" font-weight="normal" font-style="normal" text-decoration="none" family="微软雅黑" text-anchor="middle" size="13">y &lt;- 1</text></g></g><g id="ProcessOnG1015" transform="matrix(1.0,0.0,0.0,1.0,383.5,82.0)" opacity="1.0"><path id="ProcessOnPath1016" d="M0.0 0.0L61.0 0.0L61.0 40.0L0.0 40.0Z" stroke="#323232" stroke-width="2.0" stroke-dasharray="none" opacity="1.0" fill="#66ffb3"/><g id="ProcessOnG1017" transform="matrix(1.0,0.0,0.0,1.0,10.0,3.75)"><text id="ProcessOnText1018" fill="#000000" font-size="13" x="19.5" y="13.325" font-family="微软雅黑" font-weight="normal" font-style="normal" text-decoration="none" family="微软雅黑" text-anchor="middle" size="13">1</text><text id="ProcessOnText1019" fill="#000000" font-size="13" x="19.5" y="29.575" font-family="微软雅黑" font-weight="normal" font-style="normal" text-decoration="none" family="微软雅黑" text-anchor="middle" size="13">y &lt;- 9</text></g></g><g id="ProcessOnG1020" transform="matrix(1.0,0.0,0.0,1.0,261.5,60.0)" opacity="1.0"><path id="ProcessOnPath1021" d="M0.0 0.0L61.0 0.0L61.0 22.0L0.0 22.0Z" stroke="none" stroke-width="0.0" stroke-dasharray="none" opacity="1.0" fill="none"/><g id="ProcessOnG1022" transform="matrix(1.0,0.0,0.0,1.0,0.0,2.875)"><text id="ProcessOnText1023" fill="#000000" font-size="13" x="29.5" y="13.325" font-family="微软雅黑" font-weight="bold" font-style="normal" text-decoration="none" family="微软雅黑" text-anchor="middle" size="13">1</text></g></g><g id="ProcessOnG1024" transform="matrix(1.0,0.0,0.0,1.0,322.5,60.0)" opacity="1.0"><path id="ProcessOnPath1025" d="M0.0 0.0L61.0 0.0L61.0 22.0L0.0 22.0Z" stroke="none" stroke-width="0.0" stroke-dasharray="none" opacity="1.0" fill="none"/><g id="ProcessOnG1026" transform="matrix(1.0,0.0,0.0,1.0,0.0,2.875)"><text id="ProcessOnText1027" fill="#000000" font-size="13" x="29.5" y="13.325" font-family="微软雅黑" font-weight="bold" font-style="normal" text-decoration="none" family="微软雅黑" text-anchor="middle" size="13">2</text></g></g><g id="ProcessOnG1028" transform="matrix(1.0,0.0,0.0,1.0,383.5,60.0)" opacity="1.0"><path id="ProcessOnPath1029" d="M0.0 0.0L61.0 0.0L61.0 22.0L0.0 22.0Z" stroke="none" stroke-width="0.0" stroke-dasharray="none" opacity="1.0" fill="none"/><g id="ProcessOnG1030" transform="matrix(1.0,0.0,0.0,1.0,0.0,2.875)"><text id="ProcessOnText1031" fill="#000000" font-size="13" x="29.5" y="13.325" font-family="微软雅黑" font-weight="bold" font-style="normal" text-decoration="none" family="微软雅黑" text-anchor="middle" size="13">3</text></g></g><g id="ProcessOnG1032" transform="matrix(1.0,0.0,0.0,1.0,444.5,82.0)" opacity="1.0"><path id="ProcessOnPath1033" d="M0.0 0.0L61.0 0.0L61.0 40.0L0.0 40.0Z" stroke="#323232" stroke-width="2.0" stroke-dasharray="none" opacity="1.0" fill="#ffff66"/><g id="ProcessOnG1034" transform="matrix(1.0,0.0,0.0,1.0,10.0,3.75)"><text id="ProcessOnText1035" fill="#000000" font-size="13" x="19.5" y="13.325" font-family="微软雅黑" font-weight="normal" font-style="normal" text-decoration="none" family="微软雅黑" text-anchor="middle" size="13">2</text><text id="ProcessOnText1036" fill="#000000" font-size="13" x="19.5" y="29.575" font-family="微软雅黑" font-weight="normal" font-style="normal" text-decoration="none" family="微软雅黑" text-anchor="middle" size="13">x &lt;- 2</text></g></g><g id="ProcessOnG1037" transform="matrix(1.0,0.0,0.0,1.0,444.5,60.0)" opacity="1.0"><path id="ProcessOnPath1038" d="M0.0 0.0L61.0 0.0L61.0 22.0L0.0 22.0Z" stroke="none" stroke-width="0.0" stroke-dasharray="none" opacity="1.0" fill="none"/><g id="ProcessOnG1039" transform="matrix(1.0,0.0,0.0,1.0,0.0,2.875)"><text id="ProcessOnText1040" fill="#000000" font-size="13" x="29.5" y="13.325" font-family="微软雅黑" font-weight="bold" font-style="normal" text-decoration="none" family="微软雅黑" text-anchor="middle" size="13">4</text></g></g><g id="ProcessOnG1041" transform="matrix(1.0,0.0,0.0,1.0,505.5,82.0)" opacity="1.0"><path id="ProcessOnPath1042" d="M0.0 0.0L61.0 0.0L61.0 40.0L0.0 40.0Z" stroke="#323232" stroke-width="2.0" stroke-dasharray="none" opacity="1.0" fill="#66b2ff"/><g id="ProcessOnG1043" transform="matrix(1.0,0.0,0.0,1.0,10.0,3.75)"><text id="ProcessOnText1044" fill="#000000" font-size="13" x="19.5" y="13.325" font-family="微软雅黑" font-weight="normal" font-style="normal" text-decoration="none" family="微软雅黑" text-anchor="middle" size="13">3</text><text id="ProcessOnText1045" fill="#000000" font-size="13" x="19.5" y="29.575" font-family="微软雅黑" font-weight="normal" font-style="normal" text-decoration="none" family="微软雅黑" text-anchor="middle" size="13">x &lt;- 0</text></g></g><g id="ProcessOnG1046" transform="matrix(1.0,0.0,0.0,1.0,505.5,60.0)" opacity="1.0"><path id="ProcessOnPath1047" d="M0.0 0.0L61.0 0.0L61.0 22.0L0.0 22.0Z" stroke="none" stroke-width="0.0" stroke-dasharray="none" opacity="1.0" fill="none"/><g id="ProcessOnG1048" transform="matrix(1.0,0.0,0.0,1.0,0.0,2.875)"><text id="ProcessOnText1049" fill="#000000" font-size="13" x="29.5" y="13.325" font-family="微软雅黑" font-weight="bold" font-style="normal" text-decoration="none" family="微软雅黑" text-anchor="middle" size="13">5</text></g></g><g id="ProcessOnG1050" transform="matrix(1.0,0.0,0.0,1.0,566.5,82.0)" opacity="1.0"><path id="ProcessOnPath1051" d="M0.0 0.0L61.0 0.0L61.0 40.0L0.0 40.0Z" stroke="#323232" stroke-width="2.0" stroke-dasharray="none" opacity="1.0" fill="#66b2ff"/><g id="ProcessOnG1052" transform="matrix(1.0,0.0,0.0,1.0,10.0,3.75)"><text id="ProcessOnText1053" fill="#000000" font-size="13" x="19.5" y="13.325" font-family="微软雅黑" font-weight="normal" font-style="normal" text-decoration="none" family="微软雅黑" text-anchor="middle" size="13">3</text><text id="ProcessOnText1054" fill="#000000" font-size="13" x="19.5" y="29.575" font-family="微软雅黑" font-weight="normal" font-style="normal" text-decoration="none" family="微软雅黑" text-anchor="middle" size="13">y &lt;- 7</text></g></g><g id="ProcessOnG1055" transform="matrix(1.0,0.0,0.0,1.0,566.5,60.0)" opacity="1.0"><path id="ProcessOnPath1056" d="M0.0 0.0L61.0 0.0L61.0 22.0L0.0 22.0Z" stroke="none" stroke-width="0.0" stroke-dasharray="none" opacity="1.0" fill="none"/><g id="ProcessOnG1057" transform="matrix(1.0,0.0,0.0,1.0,0.0,2.875)"><text id="ProcessOnText1058" fill="#000000" font-size="13" x="29.5" y="13.325" font-family="微软雅黑" font-weight="bold" font-style="normal" text-decoration="none" family="微软雅黑" text-anchor="middle" size="13">6</text></g></g><g id="ProcessOnG1059" transform="matrix(1.0,0.0,0.0,1.0,627.5,82.0)" opacity="1.0"><path id="ProcessOnPath1060" d="M0.0 0.0L61.0 0.0L61.0 40.0L0.0 40.0Z" stroke="#323232" stroke-width="2.0" stroke-dasharray="none" opacity="1.0" fill="#66b2ff"/><g id="ProcessOnG1061" transform="matrix(1.0,0.0,0.0,1.0,10.0,3.75)"><text id="ProcessOnText1062" fill="#000000" font-size="13" x="19.5" y="13.325" font-family="微软雅黑" font-weight="normal" font-style="normal" text-decoration="none" family="微软雅黑" text-anchor="middle" size="13">3</text><text id="ProcessOnText1063" fill="#000000" font-size="13" x="19.5" y="29.575" font-family="微软雅黑" font-weight="normal" font-style="normal" text-decoration="none" family="微软雅黑" text-anchor="middle" size="13">x &lt;- 5</text></g></g><g id="ProcessOnG1064" transform="matrix(1.0,0.0,0.0,1.0,627.5,60.0)" opacity="1.0"><path id="ProcessOnPath1065" d="M0.0 0.0L61.0 0.0L61.0 22.0L0.0 22.0Z" stroke="none" stroke-width="0.0" stroke-dasharray="none" opacity="1.0" fill="none"/><g id="ProcessOnG1066" transform="matrix(1.0,0.0,0.0,1.0,0.0,2.875)"><text id="ProcessOnText1067" fill="#000000" font-size="13" x="29.5" y="13.325" font-family="微软雅黑" font-weight="bold" font-style="normal" text-decoration="none" family="微软雅黑" text-anchor="middle" size="13">7</text></g></g><g id="ProcessOnG1068" transform="matrix(1.0,0.0,0.0,1.0,261.5,169.0)" opacity="1.0"><path id="ProcessOnPath1069" d="M0.0 0.0L167.5 0.0L167.5 109.0L0.0 109.0Z" stroke="#323232" stroke-width="2.0" stroke-dasharray="none" opacity="1.0" fill="#66b2ff"/><g id="ProcessOnG1070" transform="matrix(1.0,0.0,0.0,1.0,10.0,13.875)"><text id="ProcessOnText1071" fill="#000000" font-size="13" x="0.0" y="13.325" font-family="微软雅黑" font-weight="bold" font-style="normal" text-decoration="none" family="微软雅黑" text-anchor="start" size="13">last include index: 5</text><text id="ProcessOnText1072" fill="#000000" font-size="13" x="0.0" y="29.575" font-family="微软雅黑" font-weight="bold" font-style="normal" text-decoration="none" family="微软雅黑" text-anchor="start" size="13">last include term: 3</text><text id="ProcessOnText1073" fill="#000000" font-size="13" x="0.0" y="45.825" font-family="微软雅黑" font-weight="bold" font-style="normal" text-decoration="none" family="微软雅黑" text-anchor="start" size="13">state machine:</text><text id="ProcessOnText1074" fill="#000000" font-size="13" x="0.0" y="62.075" font-family="微软雅黑" font-weight="bold" font-style="normal" text-decoration="none" family="微软雅黑" text-anchor="start" size="13">    x: 0</text><text id="ProcessOnText1075" fill="#000000" font-size="13" x="0.0" y="78.325" font-family="微软雅黑" font-weight="bold" font-style="normal" text-decoration="none" family="微软雅黑" text-anchor="start" size="13">    y: 9</text></g></g><g id="ProcessOnG1076" transform="matrix(1.0,0.0,0.0,1.0,566.5,169.0)" opacity="1.0"><path id="ProcessOnPath1077" d="M0.0 0.0L61.0 0.0L61.0 40.0L0.0 40.0Z" stroke="#323232" stroke-width="2.0" stroke-dasharray="none" opacity="1.0" fill="#66b2ff"/><g id="ProcessOnG1078" transform="matrix(1.0,0.0,0.0,1.0,10.0,3.75)"><text id="ProcessOnText1079" fill="#000000" font-size="13" x="19.5" y="13.325" font-family="微软雅黑" font-weight="normal" font-style="normal" text-decoration="none" family="微软雅黑" text-anchor="middle" size="13">3</text><text id="ProcessOnText1080" fill="#000000" font-size="13" x="19.5" y="29.575" font-family="微软雅黑" font-weight="normal" font-style="normal" text-decoration="none" family="微软雅黑" text-anchor="middle" size="13">y &lt;- 7</text></g></g><g id="ProcessOnG1081" transform="matrix(1.0,0.0,0.0,1.0,627.5,169.0)" opacity="1.0"><path id="ProcessOnPath1082" d="M0.0 0.0L61.0 0.0L61.0 40.0L0.0 40.0Z" stroke="#323232" stroke-width="2.0" stroke-dasharray="none" opacity="1.0" fill="#66b2ff"/><g id="ProcessOnG1083" transform="matrix(1.0,0.0,0.0,1.0,10.0,3.75)"><text id="ProcessOnText1084" fill="#000000" font-size="13" x="19.5" y="13.325" font-family="微软雅黑" font-weight="normal" font-style="normal" text-decoration="none" family="微软雅黑" text-anchor="middle" size="13">3</text><text id="ProcessOnText1085" fill="#000000" font-size="13" x="19.5" y="29.575" font-family="微软雅黑" font-weight="normal" font-style="normal" text-decoration="none" family="微软雅黑" text-anchor="middle" size="13">x &lt;- 5</text></g></g><g id="ProcessOnG1086"><path id="ProcessOnPath1087" d="M262.0 293.0L262.0 311.0L262.0 311.0L262.0 329.0" stroke="#323232" stroke-width="2.0" stroke-dasharray="none" fill="none"/></g><g id="ProcessOnG1088"><path id="ProcessOnPath1089" d="M430.0 292.0L430.0 310.0L430.0 310.0L430.0 328.0" stroke="#323232" stroke-width="2.0" stroke-dasharray="none" fill="none"/></g><g id="ProcessOnG1090"><path id="ProcessOnPath1091" d="M264.0 312.0L344.5 312.0L344.5 312.0L425.0 312.0" stroke="#323232" stroke-width="2.0" stroke-dasharray="none" fill="none" marker-start="url(#ProcessOnMarker1092)" marker-end="url(#ProcessOnMarker1094)"/><g id="ProcessOnG1096" transform="matrix(1.0,0.0,0.0,1.0,344.5,303.875)"><path id="ProcessOnPath1097" d="M0 0H122.0V16.25H0Z" fill="#fff" transform="matrix(1.0,0.0,0.0,1.0,-61.0,0.0)"/><text id="ProcessOnText1098" fill="#000000" font-size="13" x="0.0" y="13.325" font-family="微软雅黑" font-weight="bold" font-style="normal" text-decoration="none" family="微软雅黑" text-anchor="middle" size="13">committed entries</text></g></g></g></g></svg>