<svg xmlns="http://www.w3.org/2000/svg" xmlns:xlink="http://www.w3.org/1999/xlink" id="processonSvg1000" viewBox="136.0 82.0 668.0 372.0" width="668.0" height="372.0"><defs id="ProcessOnDefs1001"><marker id="ProcessOnMarker1037" markerUnits="userSpaceOnUse" orient="auto" markerWidth="16.23606797749979" markerHeight="10.550836550532098" viewBox="-1.0 -1.3763819204711736 16.23606797749979 10.550836550532098" refX="-1.0" refY="3.8990363547948754"><path id="ProcessOnPath1038" d="M12.0 3.8990363547948754L0.0 7.798072709589751V0.0Z" stroke="#323232" stroke-width="2.0" fill="#323232" transform="matrix(1.0,0.0,0.0,1.0,0.0,0.0)"/></marker><marker id="ProcessOnMarker1057" markerUnits="userSpaceOnUse" orient="auto" markerWidth="14.289086868996552" markerHeight="19.055054660878554" viewBox="-0.5877852522924731 -0.8090169943749475 14.289086868996552 19.055054660878554" refX="1.1135163644116066" refY="8.71851033606433"><path id="ProcessOnPath1058" d="M0 0L12.0 8.71851033606433L0 17.43702067212866" stroke="#ff6666" stroke-width="2.0" fill="none" transform="matrix(-1.0,1.2246467991473532E-16,-1.2246467991473532E-16,-1.0,13.113516364411606,17.43702067212866)"/></marker><marker id="ProcessOnMarker1069" markerUnits="userSpaceOnUse" orient="auto" markerWidth="14.289086868996552" markerHeight="19.055054660878554" viewBox="-0.5877852522924731 -0.8090169943749475 14.289086868996552 19.055054660878554" refX="1.1135163644116066" refY="8.71851033606433"><path id="ProcessOnPath1070" d="M0 0L12.0 8.71851033606433L0 17.43702067212866" stroke="#ff6666" stroke-width="2.0" fill="none" transform="matrix(-1.0,1.2246467991473532E-16,-1.2246467991473532E-16,-1.0,13.113516364411606,17.43702067212866)"/></marker><marker id="ProcessOnMarker1071" markerUnits="userSpaceOnUse" orient="auto" markerWidth="14.289086868996552" markerHeight="19.055054660878554" viewBox="-0.5877852522924731 -0.8090169943749475 14.289086868996552 19.055054660878554" refX="12.0" refY="8.71851033606433"><path id="ProcessOnPath1072" d="M0 0L12.0 8.71851033606433L0 17.43702067212866" stroke="#ff6666" stroke-width="2.0" fill="none" transform="matrix(1.0,0.0,0.0,1.0,0.0,0.0)"/></marker></defs><g id="ProcessOnG1002"><path id="ProcessOnPath1003" d="M136.0 82.0H804.0V454.0H136.0V82.0Z" fill="none"/><g id="ProcessOnG1004"><g id="ProcessOnG1005" transform="matrix(1.0,0.0,0.0,1.0,191.0,258.0)" opacity="1.0"><path id="ProcessOnPath1006" d="M0.0 0.0L54.0 0.0L54.0 32.0L0.0 32.0Z" stroke="#66b2ff" stroke-width="2.0" stroke-dasharray="none" opacity="1.0" fill="#66b2ff"/></g><g id="ProcessOnG1007" transform="matrix(1.0,0.0,0.0,1.0,245.0,258.0)" opacity="1.0"><path id="ProcessOnPath1008" d="M0.0 0.0L80.0 0.0L80.0 32.0L0.0 32.0Z" stroke="#66ffb3" stroke-width="2.0" stroke-dasharray="none" opacity="1.0" fill="#66ffb3"/></g><g id="ProcessOnG1009" transform="matrix(1.0,0.0,0.0,1.0,191.0,236.0)" opacity="1.0"><path id="ProcessOnPath1010" d="M0.0 0.0L134.0 0.0L134.0 22.0L0.0 22.0Z" stroke="none" stroke-width="0.0" stroke-dasharray="none" opacity="1.0" fill="none"/><g id="ProcessOnG1011" transform="matrix(1.0,0.0,0.0,1.0,0.0,2.875)"><text id="ProcessOnText1012" fill="#000000" font-size="13" x="66.0" y="13.325" font-family="微软雅黑" font-weight="bold" font-style="italic" text-decoration="none" family="微软雅黑" text-anchor="middle" size="13">term 1</text></g></g><g id="ProcessOnG1013" transform="matrix(1.0,0.0,0.0,1.0,340.0,258.0)" opacity="1.0"><path id="ProcessOnPath1014" d="M0.0 0.0L54.0 0.0L54.0 32.0L0.0 32.0Z" stroke="#66b2ff" stroke-width="2.0" stroke-dasharray="none" opacity="1.0" fill="#66b2ff"/></g><g id="ProcessOnG1015" transform="matrix(1.0,0.0,0.0,1.0,394.0,258.0)" opacity="1.0"><path id="ProcessOnPath1016" d="M0.0 0.0L120.0 0.0L120.0 32.0L0.0 32.0Z" stroke="#66ffb3" stroke-width="2.0" stroke-dasharray="none" opacity="1.0" fill="#66ffb3"/></g><g id="ProcessOnG1017" transform="matrix(1.0,0.0,0.0,1.0,340.0,236.0)" opacity="1.0"><path id="ProcessOnPath1018" d="M0.0 0.0L174.0 0.0L174.0 22.0L0.0 22.0Z" stroke="none" stroke-width="0.0" stroke-dasharray="none" opacity="1.0" fill="none"/><g id="ProcessOnG1019" transform="matrix(1.0,0.0,0.0,1.0,0.0,2.875)"><text id="ProcessOnText1020" fill="#000000" font-size="13" x="86.0" y="13.325" font-family="微软雅黑" font-weight="bold" font-style="italic" text-decoration="none" family="微软雅黑" text-anchor="middle" size="13">term 2</text></g></g><g id="ProcessOnG1021" transform="matrix(1.0,0.0,0.0,1.0,533.0,258.0)" opacity="1.0"><path id="ProcessOnPath1022" d="M0.0 0.0L42.0 0.0L42.0 32.0L0.0 32.0Z" stroke="#66b2ff" stroke-width="2.0" stroke-dasharray="none" opacity="1.0" fill="#66b2ff"/></g><g id="ProcessOnG1023" transform="matrix(1.0,0.0,0.0,1.0,533.0,236.0)" opacity="1.0"><path id="ProcessOnPath1024" d="M0.0 0.0L42.0 0.0L42.0 22.0L0.0 22.0Z" stroke="none" stroke-width="0.0" stroke-dasharray="none" opacity="1.0" fill="none"/><g id="ProcessOnG1025" transform="matrix(1.0,0.0,0.0,1.0,0.0,2.875)"><text id="ProcessOnText1026" fill="#000000" font-size="13" x="20.0" y="13.325" font-family="微软雅黑" font-weight="bold" font-style="italic" text-decoration="none" family="微软雅黑" text-anchor="middle" size="13">t3</text></g></g><g id="ProcessOnG1027" transform="matrix(1.0,0.0,0.0,1.0,594.0,258.0)" opacity="1.0"><path id="ProcessOnPath1028" d="M0.0 0.0L44.0 0.0L44.0 32.0L0.0 32.0Z" stroke="#66b2ff" stroke-width="2.0" stroke-dasharray="none" opacity="1.0" fill="#66b2ff"/></g><g id="ProcessOnG1029" transform="matrix(1.0,0.0,0.0,1.0,638.0,258.0)" opacity="1.0"><path id="ProcessOnPath1030" d="M0.0 0.0L90.0 0.0L90.0 32.0L0.0 32.0Z" stroke="#66ffb3" stroke-width="2.0" stroke-dasharray="none" opacity="1.0" fill="#66ffb3"/></g><g id="ProcessOnG1031" transform="matrix(1.0,0.0,0.0,1.0,594.0,236.0)" opacity="1.0"><path id="ProcessOnPath1032" d="M0.0 0.0L134.0 0.0L134.0 22.0L0.0 22.0Z" stroke="none" stroke-width="0.0" stroke-dasharray="none" opacity="1.0" fill="none"/><g id="ProcessOnG1033" transform="matrix(1.0,0.0,0.0,1.0,0.0,2.875)"><text id="ProcessOnText1034" fill="#000000" font-size="13" x="66.0" y="13.325" font-family="微软雅黑" font-weight="bold" font-style="italic" text-decoration="none" family="微软雅黑" text-anchor="middle" size="13">term 4</text></g></g><g id="ProcessOnG1035"><path id="ProcessOnPath1036" d="M156.0 319.0L470.0 319.0L470.0 319.0L768.7639320225002 319.0" stroke="#323232" stroke-width="2.0" stroke-dasharray="none" fill="none" marker-end="url(#ProcessOnMarker1037)"/></g><g id="ProcessOnG1039" transform="matrix(1.0,0.0,0.0,1.0,635.0,320.0)" opacity="1.0"><path id="ProcessOnPath1040" d="M0.0 0.0L134.0 0.0L134.0 22.0L0.0 22.0Z" stroke="none" stroke-width="0.0" stroke-dasharray="none" opacity="1.0" fill="none"/><g id="ProcessOnG1041" transform="matrix(1.0,0.0,0.0,1.0,0.0,2.875)"><text id="ProcessOnText1042" fill="#000000" font-size="13" x="66.0" y="13.325" font-family="微软雅黑" font-weight="bold" font-style="italic" text-decoration="none" family="微软雅黑" text-anchor="middle" size="13">terms</text></g></g><g id="ProcessOnG1043" transform="matrix(1.0,0.0,0.0,1.0,191.0,102.0)" opacity="1.0"><path id="ProcessOnPath1044" d="M0.0 0.0L54.0 0.0L54.0 32.0L0.0 32.0Z" stroke="#66b2ff" stroke-width="2.0" stroke-dasharray="none" opacity="1.0" fill="#66b2ff"/></g><g id="ProcessOnG1045" transform="matrix(1.0,0.0,0.0,1.0,251.0,107.0)" opacity="1.0"><path id="ProcessOnPath1046" d="M0.0 0.0L134.0 0.0L134.0 22.0L0.0 22.0Z" stroke="none" stroke-width="0.0" stroke-dasharray="none" opacity="1.0" fill="none"/><g id="ProcessOnG1047" transform="matrix(1.0,0.0,0.0,1.0,0.0,2.875)"><text id="ProcessOnText1048" fill="#000000" font-size="13" x="0.0" y="13.325" font-family="微软雅黑" font-weight="bold" font-style="italic" text-decoration="none" family="微软雅黑" text-anchor="start" size="13">election</text></g></g><g id="ProcessOnG1049" transform="matrix(1.0,0.0,0.0,1.0,191.0,149.0)" opacity="1.0"><path id="ProcessOnPath1050" d="M0.0 0.0L54.0 0.0L54.0 32.0L0.0 32.0Z" stroke="#66ffb3" stroke-width="2.0" stroke-dasharray="none" opacity="1.0" fill="#66ffb3"/></g><g id="ProcessOnG1051" transform="matrix(1.0,0.0,0.0,1.0,251.0,154.0)" opacity="1.0"><path id="ProcessOnPath1052" d="M0.0 0.0L134.0 0.0L134.0 22.0L0.0 22.0Z" stroke="none" stroke-width="0.0" stroke-dasharray="none" opacity="1.0" fill="none"/><g id="ProcessOnG1053" transform="matrix(1.0,0.0,0.0,1.0,0.0,2.875)"><text id="ProcessOnText1054" fill="#000000" font-size="13" x="0.0" y="13.325" font-family="微软雅黑" font-weight="bold" font-style="italic" text-decoration="none" family="微软雅黑" text-anchor="start" size="13">normal operation</text></g></g><g id="ProcessOnG1055"><path id="ProcessOnPath1056" d="M554.0 290.0C554.0 315.5154854941073 545.0 327.2 539.0 352.0" stroke="#ff6666" stroke-width="2.0" stroke-dasharray="none" fill="none" marker-start="url(#ProcessOnMarker1057)"/></g><g id="ProcessOnG1059" transform="matrix(1.0,0.0,0.0,1.0,476.0,356.0)" opacity="1.0"><path id="ProcessOnPath1060" d="M0.0 0.0L181.0 0.0L181.0 22.0L0.0 22.0Z" stroke="none" stroke-width="0.0" stroke-dasharray="none" opacity="1.0" fill="none"/><g id="ProcessOnG1061" transform="matrix(1.0,0.0,0.0,1.0,0.0,2.875)"><text id="ProcessOnText1062" fill="#000000" font-size="13" x="0.0" y="13.325" font-family="微软雅黑" font-weight="bold" font-style="italic" text-decoration="none" family="微软雅黑" text-anchor="start" size="13">no emerging leader</text></g></g><g id="ProcessOnG1063"><path id="ProcessOnPath1064" d="M191.12132034355963 289.87867965644034L191.12132034355963 333.93933982822017L191.12132034355963 333.93933982822017L191.12132034355963 378.0" stroke="#ff6666" stroke-width="2.0" stroke-dasharray="none" fill="none"/></g><g id="ProcessOnG1065"><path id="ProcessOnPath1066" d="M324.5004867321942 289.63768889816714L324.5004867321942 333.8188444490836L324.5004867321942 333.8188444490836L324.5004867321942 378.0" stroke="#ff6666" stroke-width="2.0" stroke-dasharray="none" fill="none"/></g><g id="ProcessOnG1067"><path id="ProcessOnPath1068" d="M196.0 350.0L258.0 350.0L258.0 350.0L320.0 350.0" stroke="#ff6666" stroke-width="2.0" stroke-dasharray="none" fill="none" marker-start="url(#ProcessOnMarker1069)" marker-end="url(#ProcessOnMarker1071)"/></g><g id="ProcessOnG1073" transform="matrix(1.0,0.0,0.0,1.0,191.0,386.0)" opacity="1.0"><path id="ProcessOnPath1074" d="M0.0 0.0L128.0 0.0L128.0 48.0L0.0 48.0Z" stroke="none" stroke-width="0.0" stroke-dasharray="none" opacity="1.0" fill="none"/><g id="ProcessOnG1075" transform="matrix(1.0,0.0,0.0,1.0,0.0,7.75)"><text id="ProcessOnText1076" fill="#000000" font-size="13" x="0.0" y="13.325" font-family="微软雅黑" font-weight="bold" font-style="italic" text-decoration="none" family="微软雅黑" text-anchor="start" size="13">at most one leader </text><text id="ProcessOnText1077" fill="#000000" font-size="13" x="0.0" y="29.575" font-family="微软雅黑" font-weight="bold" font-style="italic" text-decoration="none" family="微软雅黑" text-anchor="start" size="13">in a term</text></g></g></g></g></svg>