<svg xmlns="http://www.w3.org/2000/svg" xmlns:xlink="http://www.w3.org/1999/xlink" id="processonSvg1000" viewBox="47.87404510424035 54.03124237060547 750.1398403938065 425.0" width="750.1398403938065" height="425.0"><defs id="ProcessOnDefs1001"><marker id="ProcessOnMarker1015" markerUnits="userSpaceOnUse" orient="auto" markerWidth="16.23606797749979" markerHeight="10.550836550532098" viewBox="-1.0 -1.3763819204711736 16.23606797749979 10.550836550532098" refX="-1.0" refY="3.8990363547948754"><path id="ProcessOnPath1016" d="M12.0 3.8990363547948754L0.0 7.798072709589751V0.0Z" stroke="#323232" stroke-width="2.0" fill="#323232" transform="matrix(1.0,0.0,0.0,1.0,0.0,0.0)"/></marker><marker id="ProcessOnMarker1019" markerUnits="userSpaceOnUse" orient="auto" markerWidth="16.23606797749979" markerHeight="10.550836550532098" viewBox="-1.0 -1.3763819204711736 16.23606797749979 10.550836550532098" refX="15.23606797749979" refY="3.8990363547948754"><path id="ProcessOnPath1020" d="M12.0 3.8990363547948754L0.0 7.798072709589751V0.0Z" stroke="#323232" stroke-width="2.0" fill="#323232" transform="matrix(-1.0,1.2246467991473532E-16,-1.2246467991473532E-16,-1.0,14.23606797749979,7.798072709589751)"/></marker><marker id="ProcessOnMarker1027" markerUnits="userSpaceOnUse" orient="auto" markerWidth="16.23606797749979" markerHeight="10.550836550532098" viewBox="-1.0 -1.3763819204711736 16.23606797749979 10.550836550532098" refX="-1.0" refY="3.8990363547948754"><path id="ProcessOnPath1028" d="M12.0 3.8990363547948754L0.0 7.798072709589751V0.0Z" stroke="#323232" stroke-width="2.0" fill="#323232" transform="matrix(1.0,0.0,0.0,1.0,0.0,0.0)"/></marker><marker id="ProcessOnMarker1039" markerUnits="userSpaceOnUse" orient="auto" markerWidth="16.23606797749979" markerHeight="10.550836550532098" viewBox="-1.0 -1.3763819204711736 16.23606797749979 10.550836550532098" refX="-1.0" refY="3.8990363547948754"><path id="ProcessOnPath1040" d="M12.0 3.8990363547948754L0.0 7.798072709589751V0.0Z" stroke="#323232" stroke-width="2.0" fill="#323232" transform="matrix(1.0,0.0,0.0,1.0,0.0,0.0)"/></marker><marker id="ProcessOnMarker1043" markerUnits="userSpaceOnUse" orient="auto" markerWidth="16.23606797749979" markerHeight="10.550836550532098" viewBox="-1.0 -1.3763819204711736 16.23606797749979 10.550836550532098" refX="-1.0" refY="3.8990363547948754"><path id="ProcessOnPath1044" d="M12.0 3.8990363547948754L0.0 7.798072709589751V0.0Z" stroke="#323232" stroke-width="2.0" fill="#323232" transform="matrix(1.0,0.0,0.0,1.0,0.0,0.0)"/></marker><marker id="ProcessOnMarker1055" markerUnits="userSpaceOnUse" orient="auto" markerWidth="16.23606797749979" markerHeight="10.550836550532098" viewBox="-1.0 -1.3763819204711736 16.23606797749979 10.550836550532098" refX="-1.0" refY="3.8990363547948754"><path id="ProcessOnPath1056" d="M12.0 3.8990363547948754L0.0 7.798072709589751V0.0Z" stroke="#323232" stroke-width="2.0" fill="#323232" transform="matrix(1.0,0.0,0.0,1.0,0.0,0.0)"/></marker><marker id="ProcessOnMarker1059" markerUnits="userSpaceOnUse" orient="auto" markerWidth="16.23606797749979" markerHeight="10.550836550532098" viewBox="-1.0 -1.3763819204711736 16.23606797749979 10.550836550532098" refX="15.23606797749979" refY="3.8990363547948754"><path id="ProcessOnPath1060" d="M12.0 3.8990363547948754L0.0 7.798072709589751V0.0Z" stroke="#323232" stroke-width="2.0" fill="#323232" transform="matrix(-1.0,1.2246467991473532E-16,-1.2246467991473532E-16,-1.0,14.23606797749979,7.798072709589751)"/></marker><marker id="ProcessOnMarker1067" markerUnits="userSpaceOnUse" orient="auto" markerWidth="16.23606797749979" markerHeight="10.550836550532098" viewBox="-1.0 -1.3763819204711736 16.23606797749979 10.550836550532098" refX="-1.0" refY="3.8990363547948754"><path id="ProcessOnPath1068" d="M12.0 3.8990363547948754L0.0 7.798072709589751V0.0Z" stroke="#323232" stroke-width="2.0" fill="#323232" transform="matrix(1.0,0.0,0.0,1.0,0.0,0.0)"/></marker><marker id="ProcessOnMarker1079" markerUnits="userSpaceOnUse" orient="auto" markerWidth="16.23606797749979" markerHeight="10.550836550532098" viewBox="-1.0 -1.3763819204711736 16.23606797749979 10.550836550532098" refX="-1.0" refY="3.8990363547948754"><path id="ProcessOnPath1080" d="M12.0 3.8990363547948754L0.0 7.798072709589751V0.0Z" stroke="#323232" stroke-width="2.0" fill="#323232" transform="matrix(1.0,0.0,0.0,1.0,0.0,0.0)"/></marker><marker id="ProcessOnMarker1083" markerUnits="userSpaceOnUse" orient="auto" markerWidth="16.23606797749979" markerHeight="10.550836550532098" viewBox="-1.0 -1.3763819204711736 16.23606797749979 10.550836550532098" refX="-1.0" refY="3.8990363547948754"><path id="ProcessOnPath1084" d="M12.0 3.8990363547948754L0.0 7.798072709589751V0.0Z" stroke="#323232" stroke-width="2.0" fill="#323232" transform="matrix(1.0,0.0,0.0,1.0,0.0,0.0)"/></marker></defs><g id="ProcessOnG1002"><path id="ProcessOnPath1003" d="M47.87404510424035 54.03124237060547H798.0138854980469V479.03124237060547H47.874045104240395V54.03124237060547Z" fill="none"/><g id="ProcessOnG1004"><g id="ProcessOnG1005" transform="matrix(1.0,0.0,0.0,1.0,145.01388549804688,142.03124237060547)" opacity="1.0"><path id="ProcessOnPath1006" d="M0.0 35.0C0.0 -11.666666666666666 70.0 -11.666666666666666 70.0 35.0C70.0 81.66666666666667 0.0 81.66666666666667 0.0 35.0Z" stroke="#b8b8b8" stroke-width="2.0" stroke-dasharray="none" opacity="1.0" fill="#00cccc"/><g id="ProcessOnG1007" transform="matrix(1.0,0.0,0.0,1.0,10.0,19.375)"><text id="ProcessOnText1008" fill="#ffffff" font-size="25" x="24.0" y="25.625" font-family="微软雅黑" font-weight="bold" font-style="normal" text-decoration="none" family="微软雅黑" text-anchor="middle" size="25">X</text></g></g><g id="ProcessOnG1009" transform="matrix(1.0,0.0,0.0,1.0,218.01388549804688,267.03124237060547)" opacity="1.0"><path id="ProcessOnPath1010" d="M0.0 35.0C0.0 -11.666666666666666 70.0 -11.666666666666666 70.0 35.0C70.0 81.66666666666667 0.0 81.66666666666667 0.0 35.0Z" stroke="#b8b8b8" stroke-width="2.0" stroke-dasharray="none" opacity="1.0" fill="#00cccc"/><g id="ProcessOnG1011" transform="matrix(1.0,0.0,0.0,1.0,10.0,19.375)"><text id="ProcessOnText1012" fill="#ffffff" font-size="25" x="24.0" y="25.625" font-family="微软雅黑" font-weight="bold" font-style="normal" text-decoration="none" family="微软雅黑" text-anchor="middle" size="25">Y</text></g></g><g id="ProcessOnG1013"><path id="ProcessOnPath1014" d="M198.01388549804688 206.56714075546773L242.76166686792476 255.76049347910887" stroke="#323232" stroke-width="2.0" stroke-dasharray="none" fill="none" marker-end="url(#ProcessOnMarker1015)"/></g><g id="ProcessOnG1017"><path id="ProcessOnPath1018" d="M174.47023413288545 127.83949487579221L155.01388549804688 78.03124237060547" stroke="#323232" stroke-width="2.0" stroke-dasharray="none" fill="none" marker-start="url(#ProcessOnMarker1019)"/></g><g id="ProcessOnG1021" transform="matrix(1.0,0.0,0.0,1.0,84.01388549804688,267.03124237060547)" opacity="1.0"><path id="ProcessOnPath1022" d="M0.0 35.0C0.0 -11.666666666666666 70.0 -11.666666666666666 70.0 35.0C70.0 81.66666666666667 0.0 81.66666666666667 0.0 35.0Z" stroke="#b8b8b8" stroke-width="2.0" stroke-dasharray="none" opacity="1.0" fill="#66b2ff"/><g id="ProcessOnG1023" transform="matrix(1.0,0.0,0.0,1.0,10.0,19.375)"><text id="ProcessOnText1024" fill="#ffffff" font-size="25" x="24.0" y="25.625" font-family="微软雅黑" font-weight="bold" font-style="normal" text-decoration="none" family="微软雅黑" text-anchor="middle" size="25">a</text></g></g><g id="ProcessOnG1025"><path id="ProcessOnPath1026" d="M159.30819124345106 205.7546341934495L127.38508820619629 254.3009347296226" stroke="#323232" stroke-width="2.0" stroke-dasharray="none" fill="none" marker-end="url(#ProcessOnMarker1027)"/></g><g id="ProcessOnG1029" transform="matrix(1.0,0.0,0.0,1.0,162.01388549804688,389.03124237060547)" opacity="1.0"><path id="ProcessOnPath1030" d="M0.0 35.0C0.0 -11.666666666666666 70.0 -11.666666666666666 70.0 35.0C70.0 81.66666666666667 0.0 81.66666666666667 0.0 35.0Z" stroke="#b8b8b8" stroke-width="2.0" stroke-dasharray="none" opacity="1.0" fill="#66b2ff"/><g id="ProcessOnG1031" transform="matrix(1.0,0.0,0.0,1.0,10.0,19.375)"><text id="ProcessOnText1032" fill="#ffffff" font-size="25" x="24.0" y="25.625" font-family="微软雅黑" font-weight="bold" font-style="normal" text-decoration="none" family="微软雅黑" text-anchor="middle" size="25">b</text></g></g><g id="ProcessOnG1033" transform="matrix(1.0,0.0,0.0,1.0,283.0138854980469,389.03124237060547)" opacity="1.0"><path id="ProcessOnPath1034" d="M0.0 35.0C0.0 -11.666666666666666 70.0 -11.666666666666666 70.0 35.0C70.0 81.66666666666667 0.0 81.66666666666667 0.0 35.0Z" stroke="#b8b8b8" stroke-width="2.0" stroke-dasharray="none" opacity="1.0" fill="#66b2ff"/><g id="ProcessOnG1035" transform="matrix(1.0,0.0,0.0,1.0,10.0,19.375)"><text id="ProcessOnText1036" fill="#ffffff" font-size="25" x="24.0" y="25.625" font-family="微软雅黑" font-weight="bold" font-style="normal" text-decoration="none" family="微软雅黑" text-anchor="middle" size="25">c</text></g></g><g id="ProcessOnG1037"><path id="ProcessOnPath1038" d="M230.7346148071 329.5737862377385L204.5302110884081 375.77821943111445" stroke="#323232" stroke-width="2.0" stroke-dasharray="none" fill="none" marker-end="url(#ProcessOnMarker1039)"/></g><g id="ProcessOnG1041"><path id="ProcessOnPath1042" d="M276.3067787168603 328.3241355894189L309.38629196830516 376.47328086005155" stroke="#323232" stroke-width="2.0" stroke-dasharray="none" fill="none" marker-end="url(#ProcessOnMarker1043)"/></g><g id="ProcessOnG1045" transform="matrix(1.0,0.0,0.0,1.0,521.0138854980469,267.03124237060547)" opacity="1.0"><path id="ProcessOnPath1046" d="M0.0 35.0C0.0 -11.666666666666666 70.0 -11.666666666666666 70.0 35.0C70.0 81.66666666666667 0.0 81.66666666666667 0.0 35.0Z" stroke="#b8b8b8" stroke-width="2.0" stroke-dasharray="none" opacity="1.0" fill="#00cccc"/><g id="ProcessOnG1047" transform="matrix(1.0,0.0,0.0,1.0,10.0,19.375)"><text id="ProcessOnText1048" fill="#ffffff" font-size="25" x="24.0" y="25.625" font-family="微软雅黑" font-weight="bold" font-style="normal" text-decoration="none" family="微软雅黑" text-anchor="middle" size="25">X</text></g></g><g id="ProcessOnG1049" transform="matrix(1.0,0.0,0.0,1.0,581.0138854980469,142.03124237060547)" opacity="1.0"><path id="ProcessOnPath1050" d="M0.0 35.0C0.0 -11.666666666666666 70.0 -11.666666666666666 70.0 35.0C70.0 81.66666666666667 0.0 81.66666666666667 0.0 35.0Z" stroke="#b8b8b8" stroke-width="2.0" stroke-dasharray="none" opacity="1.0" fill="#00cccc"/><g id="ProcessOnG1051" transform="matrix(1.0,0.0,0.0,1.0,10.0,19.375)"><text id="ProcessOnText1052" fill="#ffffff" font-size="25" x="24.0" y="25.625" font-family="微软雅黑" font-weight="bold" font-style="normal" text-decoration="none" family="微软雅黑" text-anchor="middle" size="25">Y</text></g></g><g id="ProcessOnG1053"><path id="ProcessOnPath1054" d="M574.0138854980469 331.56714075546773L606.6017547301344 373.05002532797124" stroke="#323232" stroke-width="2.0" stroke-dasharray="none" fill="none" marker-end="url(#ProcessOnMarker1055)"/></g><g id="ProcessOnG1057"><path id="ProcessOnPath1058" d="M611.1321902227929 127.59840416550674L593.0138854980469 74.03124237060547" stroke="#323232" stroke-width="2.0" stroke-dasharray="none" fill="none" marker-start="url(#ProcessOnMarker1059)"/></g><g id="ProcessOnG1061" transform="matrix(1.0,0.0,0.0,1.0,460.0138854980469,389.03124237060547)" opacity="1.0"><path id="ProcessOnPath1062" d="M0.0 35.0C0.0 -11.666666666666666 70.0 -11.666666666666666 70.0 35.0C70.0 81.66666666666667 0.0 81.66666666666667 0.0 35.0Z" stroke="#b8b8b8" stroke-width="2.0" stroke-dasharray="none" opacity="1.0" fill="#66b2ff"/><g id="ProcessOnG1063" transform="matrix(1.0,0.0,0.0,1.0,10.0,19.375)"><text id="ProcessOnText1064" fill="#ffffff" font-size="25" x="24.0" y="25.625" font-family="微软雅黑" font-weight="bold" font-style="normal" text-decoration="none" family="微软雅黑" text-anchor="middle" size="25">a</text></g></g><g id="ProcessOnG1065"><path id="ProcessOnPath1066" d="M535.3081912434511 330.75463419344953L503.67898642726584 376.49913188188714" stroke="#323232" stroke-width="2.0" stroke-dasharray="none" fill="none" marker-end="url(#ProcessOnMarker1067)"/></g><g id="ProcessOnG1069" transform="matrix(1.0,0.0,0.0,1.0,581.0138854980469,385.03124237060547)" opacity="1.0"><path id="ProcessOnPath1070" d="M0.0 35.0C0.0 -11.666666666666666 70.0 -11.666666666666666 70.0 35.0C70.0 81.66666666666667 0.0 81.66666666666667 0.0 35.0Z" stroke="#b8b8b8" stroke-width="2.0" stroke-dasharray="none" opacity="1.0" fill="#66b2ff"/><g id="ProcessOnG1071" transform="matrix(1.0,0.0,0.0,1.0,10.0,19.375)"><text id="ProcessOnText1072" fill="#ffffff" font-size="25" x="24.0" y="25.625" font-family="微软雅黑" font-weight="bold" font-style="normal" text-decoration="none" family="微软雅黑" text-anchor="middle" size="25">b</text></g></g><g id="ProcessOnG1073" transform="matrix(1.0,0.0,0.0,1.0,708.0138854980469,385.03124237060547)" opacity="1.0"><path id="ProcessOnPath1074" d="M0.0 35.0C0.0 -11.666666666666666 70.0 -11.666666666666666 70.0 35.0C70.0 81.66666666666667 0.0 81.66666666666667 0.0 35.0Z" stroke="#b8b8b8" stroke-width="2.0" stroke-dasharray="none" opacity="1.0" fill="#66b2ff"/><g id="ProcessOnG1075" transform="matrix(1.0,0.0,0.0,1.0,10.0,19.375)"><text id="ProcessOnText1076" fill="#ffffff" font-size="25" x="24.0" y="25.625" font-family="微软雅黑" font-weight="bold" font-style="normal" text-decoration="none" family="微软雅黑" text-anchor="middle" size="25">c</text></g></g><g id="ProcessOnG1077"><path id="ProcessOnPath1078" d="M593.7346148071 204.5737862377385L563.8905552474718 253.98916274067338" stroke="#323232" stroke-width="2.0" stroke-dasharray="none" fill="none" marker-end="url(#ProcessOnMarker1079)"/></g><g id="ProcessOnG1081"><path id="ProcessOnPath1082" d="M639.3067787168603 203.32413558941892L735.4615710048332 371.7986948754861" stroke="#323232" stroke-width="2.0" stroke-dasharray="none" fill="none" marker-end="url(#ProcessOnMarker1083)"/></g><g id="ProcessOnG1085" transform="matrix(0.5000000000000009,-0.8660254037844382,0.8660254037844382,0.5000000000000009,72.10509088243775,232.65983374594498)" opacity="1.0"><path id="ProcessOnPath1086" d="M73.53084854566094 13.072749410238124Q73.53084854566094 0.0 60.45809913542282 0.0L21.896451235717436 0.0Q8.823701825479313 0.0 8.823701825479313 13.072749410238124L8.823701825479313 26.14549882047625L0.0 26.14549882047625L12.908936016178727 32.68187352559531L25.817872032357453 26.14549882047625L16.994170206878138 26.14549882047625L16.994170206878138 13.072749410238124Q16.994170206878138 8.170468381398827 28.02379748872728 8.170468381398827L54.33075288241298 8.170468381398827Q65.36038016426212 8.170468381398827 65.36038016426212 13.072749410238124L65.36038016426212 32.68187352559531L73.53084854566094 32.68187352559531L73.53084854566094 13.072749410238124Z" stroke="#323232" stroke-width="2.0" stroke-dasharray="none" opacity="1.0" fill="#ffffff"/><path id="ProcessOnPath1087" d="M0.0 0.0L73.53084854566094 0.0L73.53084854566094 32.68187352559531L0.0 32.68187352559531Z" stroke="none" stroke-width="0.0" stroke-dasharray="none" opacity="1.0" fill="none"/></g><g id="ProcessOnG1088" transform="matrix(0.7071067811865476,0.7071067811865475,-0.7071067811865475,0.7071067811865476,243.19717575646663,168.43864271372595)" opacity="1.0"><path id="ProcessOnPath1089" d="M73.53084854566094 13.072749410238124Q73.53084854566094 0.0 60.45809913542282 0.0L21.896451235717436 0.0Q8.823701825479313 0.0 8.823701825479313 13.072749410238124L8.823701825479313 26.14549882047625L0.0 26.14549882047625L12.908936016178727 32.68187352559531L25.817872032357453 26.14549882047625L16.994170206878138 26.14549882047625L16.994170206878138 13.072749410238124Q16.994170206878138 8.170468381398827 28.02379748872728 8.170468381398827L54.33075288241298 8.170468381398827Q65.36038016426212 8.170468381398827 65.36038016426212 13.072749410238124L65.36038016426212 32.68187352559531L73.53084854566094 32.68187352559531L73.53084854566094 13.072749410238124Z" stroke="#323232" stroke-width="2.0" stroke-dasharray="none" opacity="1.0" fill="#ffffff"/><path id="ProcessOnPath1090" d="M0.0 0.0L73.53084854566094 0.0L73.53084854566094 32.68187352559531L0.0 32.68187352559531Z" stroke="none" stroke-width="0.0" stroke-dasharray="none" opacity="1.0" fill="none"/></g><g id="ProcessOnG1091" transform="matrix(1.0,0.0,0.0,1.0,363.23609924316406,285.3645782470703)" opacity="1.0"><path id="ProcessOnPath1092" d="M0.0 19.8L60.0 19.8L60.0 0.0L90.0 30.0L60.0 60.0L60.0 40.2L0.0 40.2L0.0 19.8Z" stroke="#323232" stroke-width="2.0" stroke-dasharray="none" opacity="1.0" fill="#ffffff"/><g id="ProcessOnG1093" transform="matrix(1.0,0.0,0.0,1.0,0.0,18.75)"><text id="ProcessOnText1094" fill="#000000" font-size="18" x="44.0" y="18.45" font-family="微软雅黑" font-weight="bold" font-style="normal" text-decoration="none" family="微软雅黑" text-anchor="middle" size="18">左旋</text></g></g></g></g></svg>