<svg xmlns="http://www.w3.org/2000/svg" xmlns:xlink="http://www.w3.org/1999/xlink" id="processonSvg1000" viewBox="81.01388549804688 54.00000000000023 867.0 502.6979064941404" width="867.0" height="502.6979064941404"><defs id="ProcessOnDefs1001"><marker id="ProcessOnMarker1019" markerUnits="userSpaceOnUse" orient="auto" markerWidth="16.23606797749979" markerHeight="10.550836550532098" viewBox="-1.0 -1.3763819204711736 16.23606797749979 10.550836550532098" refX="-1.0" refY="3.8990363547948754"><path id="ProcessOnPath1020" d="M12.0 3.8990363547948754L0.0 7.798072709589751V0.0Z" stroke="#323232" stroke-width="2.0" fill="#323232" transform="matrix(1.0,0.0,0.0,1.0,0.0,0.0)"/></marker><marker id="ProcessOnMarker1023" markerUnits="userSpaceOnUse" orient="auto" markerWidth="16.23606797749979" markerHeight="10.550836550532098" viewBox="-1.0 -1.3763819204711736 16.23606797749979 10.550836550532098" refX="-1.0" refY="3.8990363547948754"><path id="ProcessOnPath1024" d="M12.0 3.8990363547948754L0.0 7.798072709589751V0.0Z" stroke="#323232" stroke-width="2.0" fill="#323232" transform="matrix(1.0,0.0,0.0,1.0,0.0,0.0)"/></marker><marker id="ProcessOnMarker1027" markerUnits="userSpaceOnUse" orient="auto" markerWidth="16.23606797749979" markerHeight="10.550836550532098" viewBox="-1.0 -1.3763819204711736 16.23606797749979 10.550836550532098" refX="-1.0" refY="3.8990363547948754"><path id="ProcessOnPath1028" d="M12.0 3.8990363547948754L0.0 7.798072709589751V0.0Z" stroke="#323232" stroke-width="2.0" fill="#323232" transform="matrix(1.0,0.0,0.0,1.0,0.0,0.0)"/></marker><marker id="ProcessOnMarker1031" markerUnits="userSpaceOnUse" orient="auto" markerWidth="16.23606797749979" markerHeight="10.550836550532098" viewBox="-1.0 -1.3763819204711736 16.23606797749979 10.550836550532098" refX="-1.0" refY="3.8990363547948754"><path id="ProcessOnPath1032" d="M12.0 3.8990363547948754L0.0 7.798072709589751V0.0Z" stroke="#323232" stroke-width="2.0" fill="#323232" transform="matrix(1.0,0.0,0.0,1.0,0.0,0.0)"/></marker><marker id="ProcessOnMarker1039" markerUnits="userSpaceOnUse" orient="auto" markerWidth="16.23606797749979" markerHeight="10.550836550532098" viewBox="-1.0 -1.3763819204711736 16.23606797749979 10.550836550532098" refX="-1.0" refY="3.8990363547948754"><path id="ProcessOnPath1040" d="M12.0 3.8990363547948754L0.0 7.798072709589751V0.0Z" stroke="#323232" stroke-width="2.0" fill="#323232" transform="matrix(1.0,0.0,0.0,1.0,0.0,0.0)"/></marker><marker id="ProcessOnMarker1043" markerUnits="userSpaceOnUse" orient="auto" markerWidth="16.23606797749979" markerHeight="10.550836550532098" viewBox="-1.0 -1.3763819204711736 16.23606797749979 10.550836550532098" refX="-1.0" refY="3.8990363547948754"><path id="ProcessOnPath1044" d="M12.0 3.8990363547948754L0.0 7.798072709589751V0.0Z" stroke="#323232" stroke-width="2.0" fill="#323232" transform="matrix(1.0,0.0,0.0,1.0,0.0,0.0)"/></marker><marker id="ProcessOnMarker1063" markerUnits="userSpaceOnUse" orient="auto" markerWidth="16.23606797749979" markerHeight="10.550836550532098" viewBox="-1.0 -1.3763819204711736 16.23606797749979 10.550836550532098" refX="-1.0" refY="3.8990363547948754"><path id="ProcessOnPath1064" d="M12.0 3.8990363547948754L0.0 7.798072709589751V0.0Z" stroke="#323232" stroke-width="2.0" fill="#323232" transform="matrix(1.0,0.0,0.0,1.0,0.0,0.0)"/></marker><marker id="ProcessOnMarker1071" markerUnits="userSpaceOnUse" orient="auto" markerWidth="16.23606797749979" markerHeight="10.550836550532098" viewBox="-1.0 -1.3763819204711736 16.23606797749979 10.550836550532098" refX="-1.0" refY="3.8990363547948754"><path id="ProcessOnPath1072" d="M12.0 3.8990363547948754L0.0 7.798072709589751V0.0Z" stroke="#323232" stroke-width="2.0" fill="#323232" transform="matrix(1.0,0.0,0.0,1.0,0.0,0.0)"/></marker><marker id="ProcessOnMarker1087" markerUnits="userSpaceOnUse" orient="auto" markerWidth="16.23606797749979" markerHeight="10.550836550532098" viewBox="-1.0 -1.3763819204711736 16.23606797749979 10.550836550532098" refX="-1.0" refY="3.8990363547948754"><path id="ProcessOnPath1088" d="M12.0 3.8990363547948754L0.0 7.798072709589751V0.0Z" stroke="#323232" stroke-width="2.0" fill="#323232" transform="matrix(1.0,0.0,0.0,1.0,0.0,0.0)"/></marker><marker id="ProcessOnMarker1091" markerUnits="userSpaceOnUse" orient="auto" markerWidth="16.23606797749979" markerHeight="10.550836550532098" viewBox="-1.0 -1.3763819204711736 16.23606797749979 10.550836550532098" refX="-1.0" refY="3.8990363547948754"><path id="ProcessOnPath1092" d="M12.0 3.8990363547948754L0.0 7.798072709589751V0.0Z" stroke="#323232" stroke-width="2.0" fill="#323232" transform="matrix(1.0,0.0,0.0,1.0,0.0,0.0)"/></marker><marker id="ProcessOnMarker1095" markerUnits="userSpaceOnUse" orient="auto" markerWidth="16.23606797749979" markerHeight="10.550836550532098" viewBox="-1.0 -1.3763819204711736 16.23606797749979 10.550836550532098" refX="-1.0" refY="3.8990363547948754"><path id="ProcessOnPath1096" d="M12.0 3.8990363547948754L0.0 7.798072709589751V0.0Z" stroke="#323232" stroke-width="2.0" fill="#323232" transform="matrix(1.0,0.0,0.0,1.0,0.0,0.0)"/></marker><marker id="ProcessOnMarker1099" markerUnits="userSpaceOnUse" orient="auto" markerWidth="16.23606797749979" markerHeight="10.550836550532098" viewBox="-1.0 -1.3763819204711736 16.23606797749979 10.550836550532098" refX="-1.0" refY="3.8990363547948754"><path id="ProcessOnPath1100" d="M12.0 3.8990363547948754L0.0 7.798072709589751V0.0Z" stroke="#323232" stroke-width="2.0" fill="#323232" transform="matrix(1.0,0.0,0.0,1.0,0.0,0.0)"/></marker><marker id="ProcessOnMarker1107" markerUnits="userSpaceOnUse" orient="auto" markerWidth="16.23606797749979" markerHeight="10.550836550532098" viewBox="-1.0 -1.3763819204711736 16.23606797749979 10.550836550532098" refX="-1.0" refY="3.8990363547948754"><path id="ProcessOnPath1108" d="M12.0 3.8990363547948754L0.0 7.798072709589751V0.0Z" stroke="#323232" stroke-width="2.0" fill="#323232" transform="matrix(1.0,0.0,0.0,1.0,0.0,0.0)"/></marker><marker id="ProcessOnMarker1111" markerUnits="userSpaceOnUse" orient="auto" markerWidth="16.23606797749979" markerHeight="10.550836550532098" viewBox="-1.0 -1.3763819204711736 16.23606797749979 10.550836550532098" refX="-1.0" refY="3.8990363547948754"><path id="ProcessOnPath1112" d="M12.0 3.8990363547948754L0.0 7.798072709589751V0.0Z" stroke="#323232" stroke-width="2.0" fill="#323232" transform="matrix(1.0,0.0,0.0,1.0,0.0,0.0)"/></marker><marker id="ProcessOnMarker1131" markerUnits="userSpaceOnUse" orient="auto" markerWidth="16.23606797749979" markerHeight="10.550836550532098" viewBox="-1.0 -1.3763819204711736 16.23606797749979 10.550836550532098" refX="-1.0" refY="3.8990363547948754"><path id="ProcessOnPath1132" d="M12.0 3.8990363547948754L0.0 7.798072709589751V0.0Z" stroke="#323232" stroke-width="2.0" fill="#323232" transform="matrix(1.0,0.0,0.0,1.0,0.0,0.0)"/></marker><marker id="ProcessOnMarker1139" markerUnits="userSpaceOnUse" orient="auto" markerWidth="16.23606797749979" markerHeight="10.550836550532098" viewBox="-1.0 -1.3763819204711736 16.23606797749979 10.550836550532098" refX="-1.0" refY="3.8990363547948754"><path id="ProcessOnPath1140" d="M12.0 3.8990363547948754L0.0 7.798072709589751V0.0Z" stroke="#323232" stroke-width="2.0" fill="#323232" transform="matrix(1.0,0.0,0.0,1.0,0.0,0.0)"/></marker></defs><g id="ProcessOnG1002"><path id="ProcessOnPath1003" d="M81.01388549804688 54.00000000000023H948.0138854980469V556.6979064941406H81.01388549804688V54.00000000000023Z" fill="none"/><g id="ProcessOnG1004"><g id="ProcessOnG1005" transform="matrix(1.0,0.0,0.0,1.0,246.0,74.00000000000023)" opacity="1.0"><path id="ProcessOnPath1006" d="M0.0 35.0C0.0 -11.666666666666666 70.0 -11.666666666666666 70.0 35.0C70.0 81.66666666666667 0.0 81.66666666666667 0.0 35.0Z" stroke="#323232" stroke-width="2.0" stroke-dasharray="none" opacity="1.0" fill="#cfcfcf"/><g id="ProcessOnG1007" transform="matrix(1.0,0.0,0.0,1.0,10.0,16.25)"><text id="ProcessOnText1008" fill="#ffffff" font-size="30" x="24.0" y="30.75" font-family="微软雅黑" font-weight="bold" font-style="normal" text-decoration="none" family="微软雅黑" text-anchor="middle" size="30">P</text></g></g><g id="ProcessOnG1009" transform="matrix(1.0,0.0,0.0,1.0,158.0,210.99999999999977)" opacity="1.0"><path id="ProcessOnPath1010" d="M0.0 35.0C0.0 -11.666666666666666 70.0 -11.666666666666666 70.0 35.0C70.0 81.66666666666667 0.0 81.66666666666667 0.0 35.0Z" stroke="#323232" stroke-width="2.0" stroke-dasharray="none" opacity="1.0" fill="#000000"/><g id="ProcessOnG1011" transform="matrix(1.0,0.0,0.0,1.0,10.0,16.25)"><text id="ProcessOnText1012" fill="#ffffff" font-size="30" x="24.0" y="30.75" font-family="微软雅黑" font-weight="bold" font-style="normal" text-decoration="none" family="微软雅黑" text-anchor="middle" size="30">N</text></g></g><g id="ProcessOnG1013" transform="matrix(1.0,0.0,0.0,1.0,351.0,337.9999999999998)" opacity="1.0"><path id="ProcessOnPath1014" d="M0.0 35.0C0.0 -11.666666666666666 70.0 -11.666666666666666 70.0 35.0C70.0 81.66666666666667 0.0 81.66666666666667 0.0 35.0Z" stroke="#323232" stroke-width="2.0" stroke-dasharray="none" opacity="1.0" fill="#ff0000"/><g id="ProcessOnG1015" transform="matrix(1.0,0.0,0.0,1.0,10.0,16.25)"><text id="ProcessOnText1016" fill="#ffffff" font-size="30" x="24.0" y="30.75" font-family="微软雅黑" font-weight="bold" font-style="normal" text-decoration="none" family="微软雅黑" text-anchor="middle" size="30">SR</text></g></g><g id="ProcessOnG1017"><path id="ProcessOnPath1018" d="M258.86788218175525 135.90423977855517L203.0467574109132 199.5457242506887" stroke="#323232" stroke-width="2.0" stroke-dasharray="none" fill="none" marker-end="url(#ProcessOnMarker1019)"/></g><g id="ProcessOnG1021"><path id="ProcessOnPath1022" d="M302.4264235636492 137.18084795571122L335.2996947063551 204.31629887833867" stroke="#323232" stroke-width="2.0" stroke-dasharray="none" fill="none" marker-end="url(#ProcessOnMarker1023)"/></g><g id="ProcessOnG1025"><path id="ProcessOnPath1026" d="M166.84410771364173 269.9284111947314L141.03617876316287 319.62106362700683" stroke="#323232" stroke-width="2.0" stroke-dasharray="none" fill="none" marker-end="url(#ProcessOnMarker1027)"/></g><g id="ProcessOnG1029"><path id="ProcessOnPath1030" d="M402.1686489745655 404.32973366909073L427.63886834518286 471.8858785010269" stroke="#323232" stroke-width="2.0" stroke-dasharray="none" fill="none" marker-end="url(#ProcessOnMarker1031)"/></g><g id="ProcessOnG1033" transform="matrix(1.0,0.0,0.0,1.0,101.01388549804688,333.14234924316406)" opacity="1.0"><path id="ProcessOnPath1034" d="M33.0 0.0L66.0 50.55555725097656L0.0 50.55555725097656Z" stroke="#323232" stroke-width="2.0" stroke-dasharray="none" opacity="1.0" fill="#ffffff"/><g id="ProcessOnG1035" transform="matrix(1.0,0.0,0.0,1.0,10.0,19.09722328186035)"><text id="ProcessOnText1036" fill="#000000" font-size="20" x="22.0" y="20.5" font-family="微软雅黑" font-weight="bold" font-style="normal" text-decoration="none" family="微软雅黑" text-anchor="middle" size="20">T1</text></g></g><g id="ProcessOnG1037"><path id="ProcessOnPath1038" d="M210.7460307128248 276.4234258820541L221.29699358539392 318.3666096026368" stroke="#323232" stroke-width="2.0" stroke-dasharray="none" fill="none" marker-end="url(#ProcessOnMarker1039)"/></g><g id="ProcessOnG1041"><path id="ProcessOnPath1042" d="M369.0138854980469 403.41029843559517L346.72919796603736 471.6588257073313" stroke="#323232" stroke-width="2.0" stroke-dasharray="none" fill="none" marker-end="url(#ProcessOnMarker1043)"/></g><g id="ProcessOnG1045" transform="matrix(1.0,0.0,0.0,1.0,307.0,217.99999999999977)" opacity="1.0"><path id="ProcessOnPath1046" d="M0.0 35.0C0.0 -11.666666666666666 70.0 -11.666666666666666 70.0 35.0C70.0 81.66666666666667 0.0 81.66666666666667 0.0 35.0Z" stroke="#323232" stroke-width="2.0" stroke-dasharray="none" opacity="1.0" fill="#000000"/><g id="ProcessOnG1047" transform="matrix(1.0,0.0,0.0,1.0,10.0,16.25)"><text id="ProcessOnText1048" fill="#ffffff" font-size="30" x="24.0" y="30.75" font-family="微软雅黑" font-weight="bold" font-style="normal" text-decoration="none" family="微软雅黑" text-anchor="middle" size="30">S</text></g></g><g id="ProcessOnG1049" transform="matrix(1.0,0.0,0.0,1.0,268.0,333.14234924316406)" opacity="1.0"><path id="ProcessOnPath1050" d="M33.0 0.0L66.0 50.55555725097656L0.0 50.55555725097656Z" stroke="#323232" stroke-width="2.0" stroke-dasharray="none" opacity="1.0" fill="#ffffff"/><g id="ProcessOnG1051" transform="matrix(1.0,0.0,0.0,1.0,10.0,19.09722328186035)"><text id="ProcessOnText1052" fill="#000000" font-size="20" x="22.0" y="20.5" font-family="微软雅黑" font-weight="bold" font-style="normal" text-decoration="none" family="微软雅黑" text-anchor="middle" size="20">T3</text></g></g><g id="ProcessOnG1053" transform="matrix(1.0,0.0,0.0,1.0,309.0,486.14234924316406)" opacity="1.0"><path id="ProcessOnPath1054" d="M33.0 0.0L66.0 50.55555725097656L0.0 50.55555725097656Z" stroke="#323232" stroke-width="2.0" stroke-dasharray="none" opacity="1.0" fill="#ffffff"/><g id="ProcessOnG1055" transform="matrix(1.0,0.0,0.0,1.0,10.0,19.09722328186035)"><text id="ProcessOnText1056" fill="#000000" font-size="20" x="22.0" y="20.5" font-family="微软雅黑" font-weight="bold" font-style="normal" text-decoration="none" family="微软雅黑" text-anchor="middle" size="20">T4</text></g></g><g id="ProcessOnG1057" transform="matrix(1.0,0.0,0.0,1.0,400.0138854980469,486.14234924316406)" opacity="1.0"><path id="ProcessOnPath1058" d="M33.0 0.0L66.0 50.55555725097656L0.0 50.55555725097656Z" stroke="#323232" stroke-width="2.0" stroke-dasharray="none" opacity="1.0" fill="#ffffff"/><g id="ProcessOnG1059" transform="matrix(1.0,0.0,0.0,1.0,10.0,19.09722328186035)"><text id="ProcessOnText1060" fill="#000000" font-size="20" x="22.0" y="20.5" font-family="微软雅黑" font-weight="bold" font-style="normal" text-decoration="none" family="微软雅黑" text-anchor="middle" size="20">T5</text></g></g><g id="ProcessOnG1061"><path id="ProcessOnPath1062" d="M321.7346148071 281.24045036127364L306.6523888977304 318.9935589357276" stroke="#323232" stroke-width="2.0" stroke-dasharray="none" fill="none" marker-end="url(#ProcessOnMarker1063)"/></g><g id="ProcessOnG1065" transform="matrix(1.0,0.0,0.0,1.0,192.01388549804688,333.14234924316406)" opacity="1.0"><path id="ProcessOnPath1066" d="M33.0 0.0L66.0 50.55555725097656L0.0 50.55555725097656Z" stroke="#323232" stroke-width="2.0" stroke-dasharray="none" opacity="1.0" fill="#ffffff"/><g id="ProcessOnG1067" transform="matrix(1.0,0.0,0.0,1.0,10.0,19.09722328186035)"><text id="ProcessOnText1068" fill="#000000" font-size="20" x="22.0" y="20.5" font-family="微软雅黑" font-weight="bold" font-style="normal" text-decoration="none" family="微软雅黑" text-anchor="middle" size="20">T2</text></g></g><g id="ProcessOnG1069"><path id="ProcessOnPath1070" d="M364.29315618899375 280.5737862377385L380.61285101748797 323.7481091340405" stroke="#323232" stroke-width="2.0" stroke-dasharray="none" fill="none" marker-end="url(#ProcessOnMarker1071)"/></g><g id="ProcessOnG1073" transform="matrix(1.0,0.0,0.0,1.0,679.0138854980469,225.99999999999977)" opacity="1.0"><path id="ProcessOnPath1074" d="M0.0 35.0C0.0 -11.666666666666666 70.0 -11.666666666666666 70.0 35.0C70.0 81.66666666666667 0.0 81.66666666666667 0.0 35.0Z" stroke="#323232" stroke-width="2.0" stroke-dasharray="none" opacity="1.0" fill="#000000"/><g id="ProcessOnG1075" transform="matrix(1.0,0.0,0.0,1.0,10.0,16.25)"><text id="ProcessOnText1076" fill="#ffffff" font-size="30" x="24.0" y="30.75" font-family="微软雅黑" font-weight="bold" font-style="normal" text-decoration="none" family="微软雅黑" text-anchor="middle" size="30">P</text></g></g><g id="ProcessOnG1077" transform="matrix(1.0,0.0,0.0,1.0,633.0,337.9999999999998)" opacity="1.0"><path id="ProcessOnPath1078" d="M0.0 35.0C0.0 -11.666666666666666 70.0 -11.666666666666666 70.0 35.0C70.0 81.66666666666667 0.0 81.66666666666667 0.0 35.0Z" stroke="#323232" stroke-width="2.0" stroke-dasharray="none" opacity="1.0" fill="#000000"/><g id="ProcessOnG1079" transform="matrix(1.0,0.0,0.0,1.0,10.0,16.25)"><text id="ProcessOnText1080" fill="#ffffff" font-size="30" x="24.0" y="30.75" font-family="微软雅黑" font-weight="bold" font-style="normal" text-decoration="none" family="微软雅黑" text-anchor="middle" size="30">N</text></g></g><g id="ProcessOnG1081" transform="matrix(1.0,0.0,0.0,1.0,823.0,225.99999999999977)" opacity="1.0"><path id="ProcessOnPath1082" d="M0.0 35.0C0.0 -11.666666666666666 70.0 -11.666666666666666 70.0 35.0C70.0 81.66666666666667 0.0 81.66666666666667 0.0 35.0Z" stroke="#323232" stroke-width="2.0" stroke-dasharray="none" opacity="1.0" fill="#000000"/><g id="ProcessOnG1083" transform="matrix(1.0,0.0,0.0,1.0,10.0,16.25)"><text id="ProcessOnText1084" fill="#ffffff" font-size="30" x="24.0" y="30.75" font-family="微软雅黑" font-weight="bold" font-style="normal" text-decoration="none" family="微软雅黑" text-anchor="middle" size="30">SR</text></g></g><g id="ProcessOnG1085"><path id="ProcessOnPath1086" d="M691.8817676798021 287.9042397785547L674.5564592981447 324.2467964136797" stroke="#323232" stroke-width="2.0" stroke-dasharray="none" fill="none" marker-end="url(#ProcessOnMarker1087)"/></g><g id="ProcessOnG1089"><path id="ProcessOnPath1090" d="M735.4403090616961 289.18084795571076L749.7215106678102 327.84985758548055" stroke="#323232" stroke-width="2.0" stroke-dasharray="none" fill="none" marker-end="url(#ProcessOnMarker1091)"/></g><g id="ProcessOnG1093"><path id="ProcessOnPath1094" d="M643.6907630925831 397.6877006525341L626.4819296166199 471.3062298918436" stroke="#323232" stroke-width="2.0" stroke-dasharray="none" fill="none" marker-end="url(#ProcessOnMarker1095)"/></g><g id="ProcessOnG1097"><path id="ProcessOnPath1098" d="M874.1686489745655 292.32973366909073L889.1322333998929 328.0873168344047" stroke="#323232" stroke-width="2.0" stroke-dasharray="none" fill="none" marker-end="url(#ProcessOnMarker1099)"/></g><g id="ProcessOnG1101" transform="matrix(1.0,0.0,0.0,1.0,590.0138854980469,486.14234924316406)" opacity="1.0"><path id="ProcessOnPath1102" d="M33.0 0.0L66.0 50.55555725097656L0.0 50.55555725097656Z" stroke="#323232" stroke-width="2.0" stroke-dasharray="none" opacity="1.0" fill="#ffffff"/><g id="ProcessOnG1103" transform="matrix(1.0,0.0,0.0,1.0,10.0,19.09722328186035)"><text id="ProcessOnText1104" fill="#000000" font-size="20" x="22.0" y="20.5" font-family="微软雅黑" font-weight="bold" font-style="normal" text-decoration="none" family="微软雅黑" text-anchor="middle" size="20">T1</text></g></g><g id="ProcessOnG1105"><path id="ProcessOnPath1106" d="M685.7460307128248 403.4234258820541L701.5574527172148 471.3035204535802" stroke="#323232" stroke-width="2.0" stroke-dasharray="none" fill="none" marker-end="url(#ProcessOnMarker1107)"/></g><g id="ProcessOnG1109"><path id="ProcessOnPath1110" d="M841.0138854980469 291.41029843559517L829.5862969339768 327.6129429287825" stroke="#323232" stroke-width="2.0" stroke-dasharray="none" fill="none" marker-end="url(#ProcessOnMarker1111)"/></g><g id="ProcessOnG1113" transform="matrix(1.0,0.0,0.0,1.0,749.0138854980469,83.99999999999977)" opacity="1.0"><path id="ProcessOnPath1114" d="M0.0 35.0C0.0 -11.666666666666666 70.0 -11.666666666666666 70.0 35.0C70.0 81.66666666666667 0.0 81.66666666666667 0.0 35.0Z" stroke="#323232" stroke-width="2.0" stroke-dasharray="none" opacity="1.0" fill="#cfcfcf"/><g id="ProcessOnG1115" transform="matrix(1.0,0.0,0.0,1.0,10.0,16.25)"><text id="ProcessOnText1116" fill="#ffffff" font-size="30" x="24.0" y="30.75" font-family="微软雅黑" font-weight="bold" font-style="normal" text-decoration="none" family="微软雅黑" text-anchor="middle" size="30">S</text></g></g><g id="ProcessOnG1117" transform="matrix(1.0,0.0,0.0,1.0,722.0,342.14234924316406)" opacity="1.0"><path id="ProcessOnPath1118" d="M33.0 0.0L66.0 50.55555725097656L0.0 50.55555725097656Z" stroke="#323232" stroke-width="2.0" stroke-dasharray="none" opacity="1.0" fill="#ffffff"/><g id="ProcessOnG1119" transform="matrix(1.0,0.0,0.0,1.0,10.0,19.09722328186035)"><text id="ProcessOnText1120" fill="#000000" font-size="20" x="22.0" y="20.5" font-family="微软雅黑" font-weight="bold" font-style="normal" text-decoration="none" family="微软雅黑" text-anchor="middle" size="20">T3</text></g></g><g id="ProcessOnG1121" transform="matrix(1.0,0.0,0.0,1.0,792.0,342.14234924316406)" opacity="1.0"><path id="ProcessOnPath1122" d="M33.0 0.0L66.0 50.55555725097656L0.0 50.55555725097656Z" stroke="#323232" stroke-width="2.0" stroke-dasharray="none" opacity="1.0" fill="#ffffff"/><g id="ProcessOnG1123" transform="matrix(1.0,0.0,0.0,1.0,10.0,19.09722328186035)"><text id="ProcessOnText1124" fill="#000000" font-size="20" x="22.0" y="20.5" font-family="微软雅黑" font-weight="bold" font-style="normal" text-decoration="none" family="微软雅黑" text-anchor="middle" size="20">T4</text></g></g><g id="ProcessOnG1125" transform="matrix(1.0,0.0,0.0,1.0,862.0138854980469,342.14234924316406)" opacity="1.0"><path id="ProcessOnPath1126" d="M33.0 0.0L66.0 50.55555725097656L0.0 50.55555725097656Z" stroke="#323232" stroke-width="2.0" stroke-dasharray="none" opacity="1.0" fill="#ffffff"/><g id="ProcessOnG1127" transform="matrix(1.0,0.0,0.0,1.0,10.0,19.09722328186035)"><text id="ProcessOnText1128" fill="#000000" font-size="20" x="22.0" y="20.5" font-family="微软雅黑" font-weight="bold" font-style="normal" text-decoration="none" family="微软雅黑" text-anchor="middle" size="20">T5</text></g></g><g id="ProcessOnG1129"><path id="ProcessOnPath1130" d="M763.7485003051469 147.24045036127364L722.1488733342937 213.1174637466407" stroke="#323232" stroke-width="2.0" stroke-dasharray="none" fill="none" marker-end="url(#ProcessOnMarker1131)"/></g><g id="ProcessOnG1133" transform="matrix(1.0,0.0,0.0,1.0,672.0138854980469,486.14234924316406)" opacity="1.0"><path id="ProcessOnPath1134" d="M33.0 0.0L66.0 50.55555725097656L0.0 50.55555725097656Z" stroke="#323232" stroke-width="2.0" stroke-dasharray="none" opacity="1.0" fill="#ffffff"/><g id="ProcessOnG1135" transform="matrix(1.0,0.0,0.0,1.0,10.0,19.09722328186035)"><text id="ProcessOnText1136" fill="#000000" font-size="20" x="22.0" y="20.5" font-family="微软雅黑" font-weight="bold" font-style="normal" text-decoration="none" family="微软雅黑" text-anchor="middle" size="20">T2</text></g></g><g id="ProcessOnG1137"><path id="ProcessOnPath1138" d="M806.3070416870406 146.5737862377385L849.689071467116 213.2302609918489" stroke="#323232" stroke-width="2.0" stroke-dasharray="none" fill="none" marker-end="url(#ProcessOnMarker1139)"/></g><g id="ProcessOnG1141" transform="matrix(1.0,0.0,0.0,1.0,474.56944274902344,264.80902099609375)" opacity="1.0"><path id="ProcessOnPath1142" d="M0.0 26.73L61.5 26.73L61.5 0.0L102.0 40.5L61.5 81.0L61.5 54.27L0.0 54.27L0.0 26.73Z" stroke="#323232" stroke-width="2.0" stroke-dasharray="none" opacity="1.0" fill="#ffffff"/><g id="ProcessOnG1143" transform="matrix(1.0,0.0,0.0,1.0,0.0,29.25)"><text id="ProcessOnText1144" fill="#000000" font-size="18" x="50.0" y="18.45" font-family="微软雅黑" font-weight="bold" font-style="normal" text-decoration="none" family="微软雅黑" text-anchor="middle" size="18">情形 6</text></g></g></g></g></svg>