<svg xmlns="http://www.w3.org/2000/svg" xmlns:xlink="http://www.w3.org/1999/xlink" id="processonSvg1000" viewBox="70.66665649413972 59.333303451537745 925.6666870117206 800.5555610656746" width="925.6666870117206" height="800.5555610656746"><defs id="ProcessOnDefs1001"><marker id="ProcessOnMarker1023" markerUnits="userSpaceOnUse" orient="auto" markerWidth="16.23606797749979" markerHeight="10.550836550532098" viewBox="-1.0 -1.3763819204711736 16.23606797749979 10.550836550532098" refX="-1.0" refY="3.8990363547948754"><path id="ProcessOnPath1024" d="M12.0 3.8990363547948754L0.0 7.798072709589751V0.0Z" stroke="#323232" stroke-width="2.0" fill="#323232" transform="matrix(1.0,0.0,0.0,1.0,0.0,0.0)"/></marker><marker id="ProcessOnMarker1027" markerUnits="userSpaceOnUse" orient="auto" markerWidth="16.23606797749979" markerHeight="10.550836550532098" viewBox="-1.0 -1.3763819204711736 16.23606797749979 10.550836550532098" refX="-1.0" refY="3.8990363547948754"><path id="ProcessOnPath1028" d="M12.0 3.8990363547948754L0.0 7.798072709589751V0.0Z" stroke="#323232" stroke-width="2.0" fill="#323232" transform="matrix(1.0,0.0,0.0,1.0,0.0,0.0)"/></marker><marker id="ProcessOnMarker1035" markerUnits="userSpaceOnUse" orient="auto" markerWidth="16.23606797749979" markerHeight="10.550836550532098" viewBox="-1.0 -1.3763819204711736 16.23606797749979 10.550836550532098" refX="-1.0" refY="3.8990363547948754"><path id="ProcessOnPath1036" d="M12.0 3.8990363547948754L0.0 7.798072709589751V0.0Z" stroke="#323232" stroke-width="2.0" fill="#323232" transform="matrix(1.0,0.0,0.0,1.0,0.0,0.0)"/></marker><marker id="ProcessOnMarker1039" markerUnits="userSpaceOnUse" orient="auto" markerWidth="16.23606797749979" markerHeight="10.550836550532098" viewBox="-1.0 -1.3763819204711736 16.23606797749979 10.550836550532098" refX="-1.0" refY="3.8990363547948754"><path id="ProcessOnPath1040" d="M12.0 3.8990363547948754L0.0 7.798072709589751V0.0Z" stroke="#323232" stroke-width="2.0" fill="#323232" transform="matrix(1.0,0.0,0.0,1.0,0.0,0.0)"/></marker><marker id="ProcessOnMarker1051" markerUnits="userSpaceOnUse" orient="auto" markerWidth="16.23606797749979" markerHeight="10.550836550532098" viewBox="-1.0 -1.3763819204711736 16.23606797749979 10.550836550532098" refX="-1.0" refY="3.8990363547948754"><path id="ProcessOnPath1052" d="M12.0 3.8990363547948754L0.0 7.798072709589751V0.0Z" stroke="#323232" stroke-width="2.0" fill="#323232" transform="matrix(1.0,0.0,0.0,1.0,0.0,0.0)"/></marker><marker id="ProcessOnMarker1055" markerUnits="userSpaceOnUse" orient="auto" markerWidth="16.23606797749979" markerHeight="10.550836550532098" viewBox="-1.0 -1.3763819204711736 16.23606797749979 10.550836550532098" refX="-1.0" refY="3.8990363547948754"><path id="ProcessOnPath1056" d="M12.0 3.8990363547948754L0.0 7.798072709589751V0.0Z" stroke="#323232" stroke-width="2.0" fill="#323232" transform="matrix(1.0,0.0,0.0,1.0,0.0,0.0)"/></marker><marker id="ProcessOnMarker1067" markerUnits="userSpaceOnUse" orient="auto" markerWidth="16.23606797749979" markerHeight="10.550836550532098" viewBox="-1.0 -1.3763819204711736 16.23606797749979 10.550836550532098" refX="-1.0" refY="3.8990363547948754"><path id="ProcessOnPath1068" d="M12.0 3.8990363547948754L0.0 7.798072709589751V0.0Z" stroke="#323232" stroke-width="2.0" fill="#323232" transform="matrix(1.0,0.0,0.0,1.0,0.0,0.0)"/></marker><marker id="ProcessOnMarker1071" markerUnits="userSpaceOnUse" orient="auto" markerWidth="16.23606797749979" markerHeight="10.550836550532098" viewBox="-1.0 -1.3763819204711736 16.23606797749979 10.550836550532098" refX="-1.0" refY="3.8990363547948754"><path id="ProcessOnPath1072" d="M12.0 3.8990363547948754L0.0 7.798072709589751V0.0Z" stroke="#323232" stroke-width="2.0" fill="#323232" transform="matrix(1.0,0.0,0.0,1.0,0.0,0.0)"/></marker><marker id="ProcessOnMarker1075" markerUnits="userSpaceOnUse" orient="auto" markerWidth="16.23606797749979" markerHeight="10.550836550532098" viewBox="-1.0 -1.3763819204711736 16.23606797749979 10.550836550532098" refX="-1.0" refY="3.8990363547948754"><path id="ProcessOnPath1076" d="M12.0 3.8990363547948754L0.0 7.798072709589751V0.0Z" stroke="#323232" stroke-width="2.0" fill="#323232" transform="matrix(1.0,0.0,0.0,1.0,0.0,0.0)"/></marker><marker id="ProcessOnMarker1079" markerUnits="userSpaceOnUse" orient="auto" markerWidth="16.23606797749979" markerHeight="10.550836550532098" viewBox="-1.0 -1.3763819204711736 16.23606797749979 10.550836550532098" refX="-1.0" refY="3.8990363547948754"><path id="ProcessOnPath1080" d="M12.0 3.8990363547948754L0.0 7.798072709589751V0.0Z" stroke="#323232" stroke-width="2.0" fill="#323232" transform="matrix(1.0,0.0,0.0,1.0,0.0,0.0)"/></marker><marker id="ProcessOnMarker1091" markerUnits="userSpaceOnUse" orient="auto" markerWidth="16.23606797749979" markerHeight="10.550836550532098" viewBox="-1.0 -1.3763819204711736 16.23606797749979 10.550836550532098" refX="-1.0" refY="3.8990363547948754"><path id="ProcessOnPath1092" d="M12.0 3.8990363547948754L0.0 7.798072709589751V0.0Z" stroke="#323232" stroke-width="2.0" fill="#323232" transform="matrix(1.0,0.0,0.0,1.0,0.0,0.0)"/></marker><marker id="ProcessOnMarker1095" markerUnits="userSpaceOnUse" orient="auto" markerWidth="16.23606797749979" markerHeight="10.550836550532098" viewBox="-1.0 -1.3763819204711736 16.23606797749979 10.550836550532098" refX="-1.0" refY="3.8990363547948754"><path id="ProcessOnPath1096" d="M12.0 3.8990363547948754L0.0 7.798072709589751V0.0Z" stroke="#323232" stroke-width="2.0" fill="#323232" transform="matrix(1.0,0.0,0.0,1.0,0.0,0.0)"/></marker><marker id="ProcessOnMarker1107" markerUnits="userSpaceOnUse" orient="auto" markerWidth="16.23606797749979" markerHeight="10.550836550532098" viewBox="-1.0 -1.3763819204711736 16.23606797749979 10.550836550532098" refX="-1.0" refY="3.8990363547948754"><path id="ProcessOnPath1108" d="M12.0 3.8990363547948754L0.0 7.798072709589751V0.0Z" stroke="#323232" stroke-width="2.0" fill="#323232" transform="matrix(1.0,0.0,0.0,1.0,0.0,0.0)"/></marker><marker id="ProcessOnMarker1111" markerUnits="userSpaceOnUse" orient="auto" markerWidth="16.23606797749979" markerHeight="10.550836550532098" viewBox="-1.0 -1.3763819204711736 16.23606797749979 10.550836550532098" refX="-1.0" refY="3.8990363547948754"><path id="ProcessOnPath1112" d="M12.0 3.8990363547948754L0.0 7.798072709589751V0.0Z" stroke="#323232" stroke-width="2.0" fill="#323232" transform="matrix(1.0,0.0,0.0,1.0,0.0,0.0)"/></marker><marker id="ProcessOnMarker1123" markerUnits="userSpaceOnUse" orient="auto" markerWidth="16.23606797749979" markerHeight="10.550836550532098" viewBox="-1.0 -1.3763819204711736 16.23606797749979 10.550836550532098" refX="-1.0" refY="3.8990363547948754"><path id="ProcessOnPath1124" d="M12.0 3.8990363547948754L0.0 7.798072709589751V0.0Z" stroke="#323232" stroke-width="2.0" fill="#323232" transform="matrix(1.0,0.0,0.0,1.0,0.0,0.0)"/></marker><marker id="ProcessOnMarker1127" markerUnits="userSpaceOnUse" orient="auto" markerWidth="16.23606797749979" markerHeight="10.550836550532098" viewBox="-1.0 -1.3763819204711736 16.23606797749979 10.550836550532098" refX="-1.0" refY="3.8990363547948754"><path id="ProcessOnPath1128" d="M12.0 3.8990363547948754L0.0 7.798072709589751V0.0Z" stroke="#323232" stroke-width="2.0" fill="#323232" transform="matrix(1.0,0.0,0.0,1.0,0.0,0.0)"/></marker><marker id="ProcessOnMarker1143" markerUnits="userSpaceOnUse" orient="auto" markerWidth="16.23606797749979" markerHeight="10.550836550532098" viewBox="-1.0 -1.3763819204711736 16.23606797749979 10.550836550532098" refX="-1.0" refY="3.8990363547948754"><path id="ProcessOnPath1144" d="M12.0 3.8990363547948754L0.0 7.798072709589751V0.0Z" stroke="#323232" stroke-width="2.0" fill="#323232" transform="matrix(1.0,0.0,0.0,1.0,0.0,0.0)"/></marker><marker id="ProcessOnMarker1147" markerUnits="userSpaceOnUse" orient="auto" markerWidth="16.23606797749979" markerHeight="10.550836550532098" viewBox="-1.0 -1.3763819204711736 16.23606797749979 10.550836550532098" refX="-1.0" refY="3.8990363547948754"><path id="ProcessOnPath1148" d="M12.0 3.8990363547948754L0.0 7.798072709589751V0.0Z" stroke="#323232" stroke-width="2.0" fill="#323232" transform="matrix(1.0,0.0,0.0,1.0,0.0,0.0)"/></marker><marker id="ProcessOnMarker1151" markerUnits="userSpaceOnUse" orient="auto" markerWidth="16.23606797749979" markerHeight="10.550836550532098" viewBox="-1.0 -1.3763819204711736 16.23606797749979 10.550836550532098" refX="-1.0" refY="3.8990363547948754"><path id="ProcessOnPath1152" d="M12.0 3.8990363547948754L0.0 7.798072709589751V0.0Z" stroke="#323232" stroke-width="2.0" fill="#323232" transform="matrix(1.0,0.0,0.0,1.0,0.0,0.0)"/></marker><marker id="ProcessOnMarker1155" markerUnits="userSpaceOnUse" orient="auto" markerWidth="16.23606797749979" markerHeight="10.550836550532098" viewBox="-1.0 -1.3763819204711736 16.23606797749979 10.550836550532098" refX="-1.0" refY="3.8990363547948754"><path id="ProcessOnPath1156" d="M12.0 3.8990363547948754L0.0 7.798072709589751V0.0Z" stroke="#323232" stroke-width="2.0" fill="#323232" transform="matrix(1.0,0.0,0.0,1.0,0.0,0.0)"/></marker><marker id="ProcessOnMarker1167" markerUnits="userSpaceOnUse" orient="auto" markerWidth="16.23606797749979" markerHeight="10.550836550532098" viewBox="-1.0 -1.3763819204711736 16.23606797749979 10.550836550532098" refX="-1.0" refY="3.8990363547948754"><path id="ProcessOnPath1168" d="M12.0 3.8990363547948754L0.0 7.798072709589751V0.0Z" stroke="#323232" stroke-width="2.0" fill="#323232" transform="matrix(1.0,0.0,0.0,1.0,0.0,0.0)"/></marker><marker id="ProcessOnMarker1171" markerUnits="userSpaceOnUse" orient="auto" markerWidth="16.23606797749979" markerHeight="10.550836550532098" viewBox="-1.0 -1.3763819204711736 16.23606797749979 10.550836550532098" refX="-1.0" refY="3.8990363547948754"><path id="ProcessOnPath1172" d="M12.0 3.8990363547948754L0.0 7.798072709589751V0.0Z" stroke="#323232" stroke-width="2.0" fill="#323232" transform="matrix(1.0,0.0,0.0,1.0,0.0,0.0)"/></marker><marker id="ProcessOnMarker1187" markerUnits="userSpaceOnUse" orient="auto" markerWidth="16.23606797749979" markerHeight="10.550836550532098" viewBox="-1.0 -1.3763819204711736 16.23606797749979 10.550836550532098" refX="-1.0" refY="3.8990363547948754"><path id="ProcessOnPath1188" d="M12.0 3.8990363547948754L0.0 7.798072709589751V0.0Z" stroke="#323232" stroke-width="2.0" fill="#323232" transform="matrix(1.0,0.0,0.0,1.0,0.0,0.0)"/></marker><marker id="ProcessOnMarker1191" markerUnits="userSpaceOnUse" orient="auto" markerWidth="16.23606797749979" markerHeight="10.550836550532098" viewBox="-1.0 -1.3763819204711736 16.23606797749979 10.550836550532098" refX="-1.0" refY="3.8990363547948754"><path id="ProcessOnPath1192" d="M12.0 3.8990363547948754L0.0 7.798072709589751V0.0Z" stroke="#323232" stroke-width="2.0" fill="#323232" transform="matrix(1.0,0.0,0.0,1.0,0.0,0.0)"/></marker><marker id="ProcessOnMarker1211" markerUnits="userSpaceOnUse" orient="auto" markerWidth="16.23606797749979" markerHeight="10.550836550532098" viewBox="-1.0 -1.3763819204711736 16.23606797749979 10.550836550532098" refX="-1.0" refY="3.8990363547948754"><path id="ProcessOnPath1212" d="M12.0 3.8990363547948754L0.0 7.798072709589751V0.0Z" stroke="#323232" stroke-width="2.0" fill="#323232" transform="matrix(1.0,0.0,0.0,1.0,0.0,0.0)"/></marker><marker id="ProcessOnMarker1215" markerUnits="userSpaceOnUse" orient="auto" markerWidth="16.23606797749979" markerHeight="10.550836550532098" viewBox="-1.0 -1.3763819204711736 16.23606797749979 10.550836550532098" refX="-1.0" refY="3.8990363547948754"><path id="ProcessOnPath1216" d="M12.0 3.8990363547948754L0.0 7.798072709589751V0.0Z" stroke="#323232" stroke-width="2.0" fill="#323232" transform="matrix(1.0,0.0,0.0,1.0,0.0,0.0)"/></marker></defs><g id="ProcessOnG1002"><path id="ProcessOnPath1003" d="M70.66665649413972 59.333303451537745H996.3333435058603V859.8888645172124H70.66665649413972V59.333303451537745Z" fill="none"/><g id="ProcessOnG1004"><g id="ProcessOnG1005" transform="matrix(1.0,0.0,0.0,1.0,470.3333282470694,79.33330345153774)" opacity="1.0"><path id="ProcessOnPath1006" d="M0.0 35.0C0.0 -11.666666666666666 70.0 -11.666666666666666 70.0 35.0C70.0 81.66666666666667 0.0 81.66666666666667 0.0 35.0Z" stroke="#323232" stroke-width="2.0" stroke-dasharray="none" opacity="1.0" fill="#000000"/><g id="ProcessOnG1007" transform="matrix(1.0,0.0,0.0,1.0,10.0,16.25)"><text id="ProcessOnText1008" fill="#ffffff" font-size="30" x="24.0" y="30.75" font-family="微软雅黑" font-weight="bold" font-style="normal" text-decoration="none" family="微软雅黑" text-anchor="middle" size="30">14</text></g></g><g id="ProcessOnG1009" transform="matrix(1.0,0.0,0.0,1.0,168.3333282470694,331.33330345153854)" opacity="1.0"><path id="ProcessOnPath1010" d="M0.0 35.0C0.0 -11.666666666666666 70.0 -11.666666666666666 70.0 35.0C70.0 81.66666666666667 0.0 81.66666666666667 0.0 35.0Z" stroke="#323232" stroke-width="2.0" stroke-dasharray="none" opacity="1.0" fill="#000000"/><g id="ProcessOnG1011" transform="matrix(1.0,0.0,0.0,1.0,10.0,16.25)"><text id="ProcessOnText1012" fill="#ffffff" font-size="30" x="24.0" y="30.75" font-family="微软雅黑" font-weight="bold" font-style="normal" text-decoration="none" family="微软雅黑" text-anchor="middle" size="30">1</text></g></g><g id="ProcessOnG1013" transform="matrix(1.0,0.0,0.0,1.0,284.3333282470694,200.33330345153877)" opacity="1.0"><path id="ProcessOnPath1014" d="M0.0 35.0C0.0 -11.666666666666666 70.0 -11.666666666666666 70.0 35.0C70.0 81.66666666666667 0.0 81.66666666666667 0.0 35.0Z" stroke="#323232" stroke-width="2.0" stroke-dasharray="none" opacity="1.0" fill="#000000"/><g id="ProcessOnG1015" transform="matrix(1.0,0.0,0.0,1.0,10.0,16.25)"><text id="ProcessOnText1016" fill="#ffffff" font-size="30" x="24.0" y="30.75" font-family="微软雅黑" font-weight="bold" font-style="normal" text-decoration="none" family="微软雅黑" text-anchor="middle" size="30">8</text></g></g><g id="ProcessOnG1017" transform="matrix(1.0,0.0,0.0,1.0,659.3333282470694,200.33330345153877)" opacity="1.0"><path id="ProcessOnPath1018" d="M0.0 35.0C0.0 -11.666666666666666 70.0 -11.666666666666666 70.0 35.0C70.0 81.66666666666667 0.0 81.66666666666667 0.0 35.0Z" stroke="#323232" stroke-width="2.0" stroke-dasharray="none" opacity="1.0" fill="#000000"/><g id="ProcessOnG1019" transform="matrix(1.0,0.0,0.0,1.0,10.0,16.25)"><text id="ProcessOnText1020" fill="#ffffff" font-size="30" x="24.0" y="30.75" font-family="微软雅黑" font-weight="bold" font-style="normal" text-decoration="none" family="微软雅黑" text-anchor="middle" size="30">17</text></g></g><g id="ProcessOnG1021"><path id="ProcessOnPath1022" d="M479.86541713330735 138.04772823216558L351.1039902705687 199.0097446191706" stroke="#323232" stroke-width="2.0" stroke-dasharray="none" fill="none" marker-end="url(#ProcessOnMarker1023)"/></g><g id="ProcessOnG1025"><path id="ProcessOnPath1026" d="M527.1861753743674 141.69499936296074L655.8604264994891 203.9410618384997" stroke="#323232" stroke-width="2.0" stroke-dasharray="none" fill="none" marker-end="url(#ProcessOnMarker1027)"/></g><g id="ProcessOnG1029" transform="matrix(1.0,0.0,0.0,1.0,379.3333282470694,337.33330345153854)" opacity="1.0"><path id="ProcessOnPath1030" d="M0.0 35.0C0.0 -11.666666666666666 70.0 -11.666666666666666 70.0 35.0C70.0 81.66666666666667 0.0 81.66666666666667 0.0 35.0Z" stroke="#323232" stroke-width="2.0" stroke-dasharray="none" opacity="1.0" fill="#000000"/><g id="ProcessOnG1031" transform="matrix(1.0,0.0,0.0,1.0,10.0,16.25)"><text id="ProcessOnText1032" fill="#ffffff" font-size="30" x="24.0" y="30.75" font-family="微软雅黑" font-weight="bold" font-style="normal" text-decoration="none" family="微软雅黑" text-anchor="middle" size="30">11</text></g></g><g id="ProcessOnG1033"><path id="ProcessOnPath1034" d="M295.6189034664426 260.8012145653006L215.4387010373167 322.081400024452" stroke="#323232" stroke-width="2.0" stroke-dasharray="none" fill="none" marker-end="url(#ProcessOnMarker1035)"/></g><g id="ProcessOnG1037"><path id="ProcessOnPath1038" d="M339.3333282470694 263.86920183640086L403.4489288531028 326.6718018102305" stroke="#323232" stroke-width="2.0" stroke-dasharray="none" fill="none" marker-end="url(#ProcessOnMarker1039)"/></g><g id="ProcessOnG1041" transform="matrix(1.0,0.0,0.0,1.0,550.3333282470694,337.33330345153854)" opacity="1.0"><path id="ProcessOnPath1042" d="M0.0 35.0C0.0 -11.666666666666666 70.0 -11.666666666666666 70.0 35.0C70.0 81.66666666666667 0.0 81.66666666666667 0.0 35.0Z" stroke="#323232" stroke-width="2.0" stroke-dasharray="none" opacity="1.0" fill="#000000"/><g id="ProcessOnG1043" transform="matrix(1.0,0.0,0.0,1.0,10.0,16.25)"><text id="ProcessOnText1044" fill="#ffffff" font-size="30" x="24.0" y="30.75" font-family="微软雅黑" font-weight="bold" font-style="normal" text-decoration="none" family="微软雅黑" text-anchor="middle" size="30">15</text></g></g><g id="ProcessOnG1045" transform="matrix(1.0,0.0,0.0,1.0,789.3333282470694,337.33330345153854)" opacity="1.0"><path id="ProcessOnPath1046" d="M0.0 35.0C0.0 -11.666666666666666 70.0 -11.666666666666666 70.0 35.0C70.0 81.66666666666667 0.0 81.66666666666667 0.0 35.0Z" stroke="#323232" stroke-width="2.0" stroke-dasharray="none" opacity="1.0" fill="#ff0000"/><g id="ProcessOnG1047" transform="matrix(1.0,0.0,0.0,1.0,10.0,16.25)"><text id="ProcessOnText1048" fill="#ffffff" font-size="30" x="24.0" y="30.75" font-family="微软雅黑" font-weight="bold" font-style="normal" text-decoration="none" family="微软雅黑" text-anchor="middle" size="30">25</text></g></g><g id="ProcessOnG1049"><path id="ProcessOnPath1050" d="M672.2012104288247 262.2375432300937L596.859509509693 327.3691219539875" stroke="#323232" stroke-width="2.0" stroke-dasharray="none" fill="none" marker-end="url(#ProcessOnMarker1051)"/></g><g id="ProcessOnG1053"><path id="ProcessOnPath1054" d="M715.7597518107186 263.51415140724976L811.7336327885157 328.7667731290161" stroke="#323232" stroke-width="2.0" stroke-dasharray="none" fill="none" marker-end="url(#ProcessOnMarker1055)"/></g><g id="ProcessOnG1057" transform="matrix(1.0,0.0,0.0,1.0,222.3333282470694,464.33330345153854)" opacity="1.0"><path id="ProcessOnPath1058" d="M0.0 35.0C0.0 -11.666666666666666 70.0 -11.666666666666666 70.0 35.0C70.0 81.66666666666667 0.0 81.66666666666667 0.0 35.0Z" stroke="#323232" stroke-width="2.0" stroke-dasharray="none" opacity="1.0" fill="#ff0000"/><g id="ProcessOnG1059" transform="matrix(1.0,0.0,0.0,1.0,10.0,16.25)"><text id="ProcessOnText1060" fill="#ffffff" font-size="30" x="24.0" y="30.75" font-family="微软雅黑" font-weight="bold" font-style="normal" text-decoration="none" family="微软雅黑" text-anchor="middle" size="30">6</text></g></g><g id="ProcessOnG1061" transform="matrix(1.0,0.0,0.0,1.0,90.66665649413972,464.33330345153854)" opacity="1.0"><path id="ProcessOnPath1062" d="M0.0 0.0L65.66668701171875 0.0L65.66668701171875 39.55556106567383L0.0 39.55556106567383Z" stroke="#323232" stroke-width="2.0" stroke-dasharray="none" opacity="1.0" fill="#000000"/><g id="ProcessOnG1063" transform="matrix(1.0,0.0,0.0,1.0,10.0,7.277780532836914)"><text id="ProcessOnText1064" fill="#ffffff" font-size="20" x="21.833343505859375" y="20.5" font-family="微软雅黑" font-weight="bold" font-style="normal" text-decoration="none" family="微软雅黑" text-anchor="middle" size="20">NIL</text></g></g><g id="ProcessOnG1065"><path id="ProcessOnPath1066" d="M182.38738580319296 393.87584731867173L133.27080759993623 452.6427480216197" stroke="#323232" stroke-width="2.0" stroke-dasharray="none" fill="none" marker-end="url(#ProcessOnMarker1067)"/></g><g id="ProcessOnG1069"><path id="ProcessOnPath1070" d="M221.2440382323989 396.4269956645021L250.18307428755725 450.8792469729342" stroke="#323232" stroke-width="2.0" stroke-dasharray="none" fill="none" marker-end="url(#ProcessOnMarker1071)"/></g><g id="ProcessOnG1073"><path id="ProcessOnPath1074" d="M236.07207674149686 526.6122563400563L194.54400605887923 603.9115340857184" stroke="#323232" stroke-width="2.0" stroke-dasharray="none" fill="none" marker-end="url(#ProcessOnMarker1075)"/></g><g id="ProcessOnG1077"><path id="ProcessOnPath1078" d="M276.77777099609284 528.1568137096438L309.4595456777192 601.4189388333582" stroke="#323232" stroke-width="2.0" stroke-dasharray="none" fill="none" marker-end="url(#ProcessOnMarker1079)"/></g><g id="ProcessOnG1081" transform="matrix(1.0,0.0,0.0,1.0,284.3333282470694,617.3333034515385)" opacity="1.0"><path id="ProcessOnPath1082" d="M0.0 0.0L65.66668701171875 0.0L65.66668701171875 39.55556106567383L0.0 39.55556106567383Z" stroke="#323232" stroke-width="2.0" stroke-dasharray="none" opacity="1.0" fill="#000000"/><g id="ProcessOnG1083" transform="matrix(1.0,0.0,0.0,1.0,10.0,7.277780532836914)"><text id="ProcessOnText1084" fill="#ffffff" font-size="20" x="21.833343505859375" y="20.5" font-family="微软雅黑" font-weight="bold" font-style="normal" text-decoration="none" family="微软雅黑" text-anchor="middle" size="20">NIL</text></g></g><g id="ProcessOnG1085" transform="matrix(1.0,0.0,0.0,1.0,323.6666564941397,464.33330345153854)" opacity="1.0"><path id="ProcessOnPath1086" d="M0.0 0.0L65.66668701171875 0.0L65.66668701171875 39.55556106567383L0.0 39.55556106567383Z" stroke="#323232" stroke-width="2.0" stroke-dasharray="none" opacity="1.0" fill="#000000"/><g id="ProcessOnG1087" transform="matrix(1.0,0.0,0.0,1.0,10.0,7.277780532836914)"><text id="ProcessOnText1088" fill="#ffffff" font-size="20" x="21.833343505859375" y="20.5" font-family="微软雅黑" font-weight="bold" font-style="normal" text-decoration="none" family="微软雅黑" text-anchor="middle" size="20">NIL</text></g></g><g id="ProcessOnG1089"><path id="ProcessOnPath1090" d="M387.6314768352154 394.9605016881528L362.7379631169155 450.43274290287775" stroke="#323232" stroke-width="2.0" stroke-dasharray="none" fill="none" marker-end="url(#ProcessOnMarker1091)"/></g><g id="ProcessOnG1093"><path id="ProcessOnPath1094" d="M437.18619063315646 399.25056042863434L456.0334369913181 450.0487341513389" stroke="#323232" stroke-width="2.0" stroke-dasharray="none" fill="none" marker-end="url(#ProcessOnMarker1095)"/></g><g id="ProcessOnG1097" transform="matrix(1.0,0.0,0.0,1.0,598.6666564941397,464.33330345153854)" opacity="1.0"><path id="ProcessOnPath1098" d="M0.0 0.0L65.66668701171875 0.0L65.66668701171875 39.55556106567383L0.0 39.55556106567383Z" stroke="#323232" stroke-width="2.0" stroke-dasharray="none" opacity="1.0" fill="#000000"/><g id="ProcessOnG1099" transform="matrix(1.0,0.0,0.0,1.0,10.0,7.277780532836914)"><text id="ProcessOnText1100" fill="#ffffff" font-size="20" x="21.833343505859375" y="20.5" font-family="微软雅黑" font-weight="bold" font-style="normal" text-decoration="none" family="微软雅黑" text-anchor="middle" size="20">NIL</text></g></g><g id="ProcessOnG1101" transform="matrix(1.0,0.0,0.0,1.0,507.6666564941397,464.33330345153854)" opacity="1.0"><path id="ProcessOnPath1102" d="M0.0 0.0L65.66668701171875 0.0L65.66668701171875 39.55556106567383L0.0 39.55556106567383Z" stroke="#323232" stroke-width="2.0" stroke-dasharray="none" opacity="1.0" fill="#000000"/><g id="ProcessOnG1103" transform="matrix(1.0,0.0,0.0,1.0,10.0,7.277780532836914)"><text id="ProcessOnText1104" fill="#ffffff" font-size="20" x="21.833343505859375" y="20.5" font-family="微软雅黑" font-weight="bold" font-style="normal" text-decoration="none" family="微软雅黑" text-anchor="middle" size="20">NIL</text></g></g><g id="ProcessOnG1105"><path id="ProcessOnPath1106" d="M569.7341220215276 403.18735200100036L547.0719299788601 450.5874857687689" stroke="#323232" stroke-width="2.0" stroke-dasharray="none" fill="none" marker-end="url(#ProcessOnMarker1107)"/></g><g id="ProcessOnG1109"><path id="ProcessOnPath1110" d="M605.0210033162907 400.90420735362886L625.6304923753896 450.27319507145677" stroke="#323232" stroke-width="2.0" stroke-dasharray="none" fill="none" marker-end="url(#ProcessOnMarker1111)"/></g><g id="ProcessOnG1113" transform="matrix(1.0,0.0,0.0,1.0,868.3333282470703,464.33330345153854)" opacity="1.0"><path id="ProcessOnPath1114" d="M0.0 35.0C0.0 -11.666666666666666 70.0 -11.666666666666666 70.0 35.0C70.0 81.66666666666667 0.0 81.66666666666667 0.0 35.0Z" stroke="#323232" stroke-width="2.0" stroke-dasharray="none" opacity="1.0" fill="#000000"/><g id="ProcessOnG1115" transform="matrix(1.0,0.0,0.0,1.0,10.0,16.25)"><text id="ProcessOnText1116" fill="#ffffff" font-size="30" x="24.0" y="30.75" font-family="微软雅黑" font-weight="bold" font-style="normal" text-decoration="none" family="微软雅黑" text-anchor="middle" size="30">27</text></g></g><g id="ProcessOnG1117" transform="matrix(1.0,0.0,0.0,1.0,719.3333282470694,464.33330345153854)" opacity="1.0"><path id="ProcessOnPath1118" d="M0.0 35.0C0.0 -11.666666666666666 70.0 -11.666666666666666 70.0 35.0C70.0 81.66666666666667 0.0 81.66666666666667 0.0 35.0Z" stroke="#323232" stroke-width="2.0" stroke-dasharray="none" opacity="1.0" fill="#000000"/><g id="ProcessOnG1119" transform="matrix(1.0,0.0,0.0,1.0,10.0,16.25)"><text id="ProcessOnText1120" fill="#ffffff" font-size="30" x="24.0" y="30.75" font-family="微软雅黑" font-weight="bold" font-style="normal" text-decoration="none" family="微软雅黑" text-anchor="middle" size="30">22</text></g></g><g id="ProcessOnG1121"><path id="ProcessOnPath1122" d="M808.7341220215276 403.18735200100036L764.4606986004371 452.9502398419155" stroke="#323232" stroke-width="2.0" stroke-dasharray="none" fill="none" marker-end="url(#ProcessOnMarker1123)"/></g><g id="ProcessOnG1125"><path id="ProcessOnPath1126" d="M844.7417326253444 401.3616634864957L892.9547169000933 453.17883376789257" stroke="#323232" stroke-width="2.0" stroke-dasharray="none" fill="none" marker-end="url(#ProcessOnMarker1127)"/></g><g id="ProcessOnG1129" transform="matrix(1.0,0.0,0.0,1.0,759.6666564941397,617.3333034515385)" opacity="1.0"><path id="ProcessOnPath1130" d="M0.0 0.0L65.66668701171875 0.0L65.66668701171875 39.55556106567383L0.0 39.55556106567383Z" stroke="#323232" stroke-width="2.0" stroke-dasharray="none" opacity="1.0" fill="#000000"/><g id="ProcessOnG1131" transform="matrix(1.0,0.0,0.0,1.0,10.0,7.277780532836914)"><text id="ProcessOnText1132" fill="#ffffff" font-size="20" x="21.833343505859375" y="20.5" font-family="微软雅黑" font-weight="bold" font-style="normal" text-decoration="none" family="微软雅黑" text-anchor="middle" size="20">NIL</text></g></g><g id="ProcessOnG1133" transform="matrix(1.0,0.0,0.0,1.0,910.6666564941415,617.3333034515385)" opacity="1.0"><path id="ProcessOnPath1134" d="M0.0 0.0L65.66668701171875 0.0L65.66668701171875 39.55556106567383L0.0 39.55556106567383Z" stroke="#323232" stroke-width="2.0" stroke-dasharray="none" opacity="1.0" fill="#000000"/><g id="ProcessOnG1135" transform="matrix(1.0,0.0,0.0,1.0,10.0,7.277780532836914)"><text id="ProcessOnText1136" fill="#ffffff" font-size="20" x="21.833343505859375" y="20.5" font-family="微软雅黑" font-weight="bold" font-style="normal" text-decoration="none" family="微软雅黑" text-anchor="middle" size="20">NIL</text></g></g><g id="ProcessOnG1137" transform="matrix(1.0,0.0,0.0,1.0,840.6666564941402,617.3333034515385)" opacity="1.0"><path id="ProcessOnPath1138" d="M0.0 0.0L65.66668701171875 0.0L65.66668701171875 39.55556106567383L0.0 39.55556106567383Z" stroke="#323232" stroke-width="2.0" stroke-dasharray="none" opacity="1.0" fill="#000000"/><g id="ProcessOnG1139" transform="matrix(1.0,0.0,0.0,1.0,10.0,7.277780532836914)"><text id="ProcessOnText1140" fill="#ffffff" font-size="20" x="21.833343505859375" y="20.5" font-family="微软雅黑" font-weight="bold" font-style="normal" text-decoration="none" family="微软雅黑" text-anchor="middle" size="20">NIL</text></g></g><g id="ProcessOnG1141"><path id="ProcessOnPath1142" d="M736.388885498046 529.0685669313475L720.5485809681154 602.440354873275" stroke="#323232" stroke-width="2.0" stroke-dasharray="none" fill="none" marker-end="url(#ProcessOnMarker1143)"/></g><g id="ProcessOnG1145"><path id="ProcessOnPath1146" d="M769.0436489745643 530.8540275686273L788.5115306322527 602.6285464145269" stroke="#323232" stroke-width="2.0" stroke-dasharray="none" fill="none" marker-end="url(#ProcessOnMarker1147)"/></g><g id="ProcessOnG1149"><path id="ProcessOnPath1150" d="M884.4624619343986 528.8474910984119L875.3732673747555 602.2128326666169" stroke="#323232" stroke-width="2.0" stroke-dasharray="none" fill="none" marker-end="url(#ProcessOnMarker1151)"/></g><g id="ProcessOnG1153"><path id="ProcessOnPath1154" d="M923.5945797526429 527.3900349655446L940.2077538675934 602.4571855836725" stroke="#323232" stroke-width="2.0" stroke-dasharray="none" fill="none" marker-end="url(#ProcessOnMarker1155)"/></g><g id="ProcessOnG1157" transform="matrix(1.0,0.0,0.0,1.0,426.3333282470694,464.33330345153854)" opacity="1.0"><path id="ProcessOnPath1158" d="M0.0 35.0C0.0 -11.666666666666666 70.0 -11.666666666666666 70.0 35.0C70.0 81.66666666666667 0.0 81.66666666666667 0.0 35.0Z" stroke="#323232" stroke-width="2.0" stroke-dasharray="none" opacity="1.0" fill="#ff0000"/><g id="ProcessOnG1159" transform="matrix(1.0,0.0,0.0,1.0,10.0,16.25)"><text id="ProcessOnText1160" fill="#ffffff" font-size="30" x="24.0" y="30.75" font-family="微软雅黑" font-weight="bold" font-style="normal" text-decoration="none" family="微软雅黑" text-anchor="middle" size="30">12</text></g></g><g id="ProcessOnG1161" transform="matrix(1.0,0.0,0.0,1.0,470.3333282470694,620.3333034515385)" opacity="1.0"><path id="ProcessOnPath1162" d="M0.0 0.0L65.66668701171875 0.0L65.66668701171875 39.55556106567383L0.0 39.55556106567383Z" stroke="#323232" stroke-width="2.0" stroke-dasharray="none" opacity="1.0" fill="#000000"/><g id="ProcessOnG1163" transform="matrix(1.0,0.0,0.0,1.0,10.0,7.277780532836914)"><text id="ProcessOnText1164" fill="#ffffff" font-size="20" x="21.833343505859375" y="20.5" font-family="微软雅黑" font-weight="bold" font-style="normal" text-decoration="none" family="微软雅黑" text-anchor="middle" size="20">NIL</text></g></g><g id="ProcessOnG1165"><path id="ProcessOnPath1166" d="M444.64484726564615 530.2047781046876L423.31130523822293 605.6717923707694" stroke="#323232" stroke-width="2.0" stroke-dasharray="none" fill="none" marker-end="url(#ProcessOnMarker1167)"/></g><g id="ProcessOnG1169"><path id="ProcessOnPath1170" d="M475.79961074216453 531.2047781046876L498.6944846203763 605.7683692029253" stroke="#323232" stroke-width="2.0" stroke-dasharray="none" fill="none" marker-end="url(#ProcessOnMarker1171)"/></g><g id="ProcessOnG1173" transform="matrix(1.0,0.0,0.0,1.0,681.3333282470694,617.3333034515385)" opacity="1.0"><path id="ProcessOnPath1174" d="M0.0 35.0C0.0 -11.666666666666666 70.0 -11.666666666666666 70.0 35.0C70.0 81.66666666666667 0.0 81.66666666666667 0.0 35.0Z" stroke="#323232" stroke-width="2.0" stroke-dasharray="none" opacity="1.0" fill="#ff0000"/><g id="ProcessOnG1175" transform="matrix(1.0,0.0,0.0,1.0,10.0,16.25)"><text id="ProcessOnText1176" fill="#ffffff" font-size="30" x="24.0" y="30.75" font-family="微软雅黑" font-weight="bold" font-style="normal" text-decoration="none" family="微软雅黑" text-anchor="middle" size="30">21</text></g></g><g id="ProcessOnG1177" transform="matrix(1.0,0.0,0.0,1.0,726.6666564941397,800.3333034515385)" opacity="1.0"><path id="ProcessOnPath1178" d="M0.0 0.0L65.66668701171875 0.0L65.66668701171875 39.55556106567383L0.0 39.55556106567383Z" stroke="#323232" stroke-width="2.0" stroke-dasharray="none" opacity="1.0" fill="#000000"/><g id="ProcessOnG1179" transform="matrix(1.0,0.0,0.0,1.0,10.0,7.277780532836914)"><text id="ProcessOnText1180" fill="#ffffff" font-size="20" x="21.833343505859375" y="20.5" font-family="微软雅黑" font-weight="bold" font-style="normal" text-decoration="none" family="微软雅黑" text-anchor="middle" size="20">NIL</text></g></g><g id="ProcessOnG1181" transform="matrix(1.0,0.0,0.0,1.0,641.6666564941397,800.3333034515385)" opacity="1.0"><path id="ProcessOnPath1182" d="M0.0 0.0L65.66668701171875 0.0L65.66668701171875 39.55556106567383L0.0 39.55556106567383Z" stroke="#323232" stroke-width="2.0" stroke-dasharray="none" opacity="1.0" fill="#000000"/><g id="ProcessOnG1183" transform="matrix(1.0,0.0,0.0,1.0,10.0,7.277780532836914)"><text id="ProcessOnText1184" fill="#ffffff" font-size="20" x="21.833343505859375" y="20.5" font-family="微软雅黑" font-weight="bold" font-style="normal" text-decoration="none" family="微软雅黑" text-anchor="middle" size="20">NIL</text></g></g><g id="ProcessOnG1185"><path id="ProcessOnPath1186" d="M695.4804811197714 680.6950146217496L677.1317268014252 785.3262457299979" stroke="#323232" stroke-width="2.0" stroke-dasharray="none" fill="none" marker-end="url(#ProcessOnMarker1187)"/></g><g id="ProcessOnG1189"><path id="ProcessOnPath1190" d="M733.3333282470694 682.601267902759L756.1943515966201 785.4601579856919" stroke="#323232" stroke-width="2.0" stroke-dasharray="none" fill="none" marker-end="url(#ProcessOnMarker1191)"/></g><g id="ProcessOnG1193" transform="matrix(1.0,0.0,0.0,1.0,386.33334350585847,620.3333034515385)" opacity="1.0"><path id="ProcessOnPath1194" d="M0.0 0.0L65.66668701171875 0.0L65.66668701171875 39.55556106567383L0.0 39.55556106567383Z" stroke="#323232" stroke-width="2.0" stroke-dasharray="none" opacity="1.0" fill="#000000"/><g id="ProcessOnG1195" transform="matrix(1.0,0.0,0.0,1.0,10.0,7.277780532836914)"><text id="ProcessOnText1196" fill="#ffffff" font-size="20" x="21.833343505859375" y="20.5" font-family="微软雅黑" font-weight="bold" font-style="normal" text-decoration="none" family="微软雅黑" text-anchor="middle" size="20">NIL</text></g></g><g id="ProcessOnG1197" transform="matrix(1.0,0.0,0.0,1.0,152.3333282470694,617.3333034515385)" opacity="1.0"><path id="ProcessOnPath1198" d="M0.0 35.0C0.0 -11.666666666666666 70.0 -11.666666666666666 70.0 35.0C70.0 81.66666666666667 0.0 81.66666666666667 0.0 35.0Z" stroke="#323232" stroke-width="2.0" stroke-dasharray="none" opacity="1.0" fill="#ff0000"/><g id="ProcessOnG1199" transform="matrix(1.0,0.0,0.0,1.0,10.0,16.25)"><text id="ProcessOnText1200" fill="#ffffff" font-size="30" x="24.0" y="30.75" font-family="微软雅黑" font-weight="bold" font-style="normal" text-decoration="none" family="微软雅黑" text-anchor="middle" size="30">5</text></g></g><g id="ProcessOnG1201" transform="matrix(1.0,0.0,0.0,1.0,115.3333282470694,800.3333034515385)" opacity="1.0"><path id="ProcessOnPath1202" d="M0.0 0.0L65.66668701171875 0.0L65.66668701171875 39.55556106567383L0.0 39.55556106567383Z" stroke="#323232" stroke-width="2.0" stroke-dasharray="none" opacity="1.0" fill="#000000"/><g id="ProcessOnG1203" transform="matrix(1.0,0.0,0.0,1.0,10.0,7.277780532836914)"><text id="ProcessOnText1204" fill="#ffffff" font-size="20" x="21.833343505859375" y="20.5" font-family="微软雅黑" font-weight="bold" font-style="normal" text-decoration="none" family="微软雅黑" text-anchor="middle" size="20">NIL</text></g></g><g id="ProcessOnG1205" transform="matrix(1.0,0.0,0.0,1.0,192.3333282470694,800.3333034515385)" opacity="1.0"><path id="ProcessOnPath1206" d="M0.0 0.0L65.66668701171875 0.0L65.66668701171875 39.55556106567383L0.0 39.55556106567383Z" stroke="#323232" stroke-width="2.0" stroke-dasharray="none" opacity="1.0" fill="#000000"/><g id="ProcessOnG1207" transform="matrix(1.0,0.0,0.0,1.0,10.0,7.277780532836914)"><text id="ProcessOnText1208" fill="#ffffff" font-size="20" x="21.833343505859375" y="20.5" font-family="微软雅黑" font-weight="bold" font-style="normal" text-decoration="none" family="微软雅黑" text-anchor="middle" size="20">NIL</text></g></g><g id="ProcessOnG1209"><path id="ProcessOnPath1210" d="M170.9583282470703 682.766517294506L151.06637052394248 785.3757129218985" stroke="#323232" stroke-width="2.0" stroke-dasharray="none" fill="none" marker-end="url(#ProcessOnMarker1211)"/></g><g id="ProcessOnG1213"><path id="ProcessOnPath1214" d="M202.4322678170933 683.5455156435016L222.25540160223835 785.3779608100377" stroke="#323232" stroke-width="2.0" stroke-dasharray="none" fill="none" marker-end="url(#ProcessOnMarker1215)"/></g></g></g></svg>