<svg xmlns="http://www.w3.org/2000/svg" xmlns:xlink="http://www.w3.org/1999/xlink" id="processonSvg1000" viewBox="186.0 8.0 1051.0 766.0" width="1051.0" height="766.0"><defs id="ProcessOnDefs1001"><marker id="ProcessOnMarker1007" markerUnits="userSpaceOnUse" orient="auto" markerWidth="14.289086868996552" markerHeight="19.055054660878554" viewBox="-0.5877852522924731 -0.8090169943749475 14.289086868996552 19.055054660878554" refX="12.0" refY="8.71851033606433"><path id="ProcessOnPath1008" d="M0 0L12.0 8.71851033606433L0 17.43702067212866" stroke="#323232" stroke-width="2.0" fill="none" transform="matrix(1.0,0.0,0.0,1.0,0.0,0.0)"/></marker><marker id="ProcessOnMarker1031" markerUnits="userSpaceOnUse" orient="auto" markerWidth="14.289086868996552" markerHeight="19.055054660878554" viewBox="-0.5877852522924731 -0.8090169943749475 14.289086868996552 19.055054660878554" refX="12.0" refY="8.71851033606433"><path id="ProcessOnPath1032" d="M0 0L12.0 8.71851033606433L0 17.43702067212866" stroke="#323232" stroke-width="2.0" fill="none" transform="matrix(1.0,0.0,0.0,1.0,0.0,0.0)"/></marker><marker id="ProcessOnMarker1055" markerUnits="userSpaceOnUse" orient="auto" markerWidth="14.289086868996552" markerHeight="19.055054660878554" viewBox="-0.5877852522924731 -0.8090169943749475 14.289086868996552 19.055054660878554" refX="12.0" refY="8.71851033606433"><path id="ProcessOnPath1056" d="M0 0L12.0 8.71851033606433L0 17.43702067212866" stroke="#323232" stroke-width="2.0" fill="none" transform="matrix(1.0,0.0,0.0,1.0,0.0,0.0)"/></marker><marker id="ProcessOnMarker1063" markerUnits="userSpaceOnUse" orient="auto" markerWidth="14.289086868996552" markerHeight="19.055054660878554" viewBox="-0.5877852522924731 -0.8090169943749475 14.289086868996552 19.055054660878554" refX="12.0" refY="8.71851033606433"><path id="ProcessOnPath1064" d="M0 0L12.0 8.71851033606433L0 17.43702067212866" stroke="#323232" stroke-width="2.0" fill="none" transform="matrix(1.0,0.0,0.0,1.0,0.0,0.0)"/></marker><marker id="ProcessOnMarker1074" markerUnits="userSpaceOnUse" orient="auto" markerWidth="14.289086868996552" markerHeight="19.055054660878554" viewBox="-0.5877852522924731 -0.8090169943749475 14.289086868996552 19.055054660878554" refX="12.0" refY="8.71851033606433"><path id="ProcessOnPath1075" d="M0 0L12.0 8.71851033606433L0 17.43702067212866" stroke="#323232" stroke-width="2.0" fill="none" transform="matrix(1.0,0.0,0.0,1.0,0.0,0.0)"/></marker><marker id="ProcessOnMarker1078" markerUnits="userSpaceOnUse" orient="auto" markerWidth="14.289086868996552" markerHeight="19.055054660878554" viewBox="-0.5877852522924731 -0.8090169943749475 14.289086868996552 19.055054660878554" refX="12.0" refY="8.71851033606433"><path id="ProcessOnPath1079" d="M0 0L12.0 8.71851033606433L0 17.43702067212866" stroke="#323232" stroke-width="2.0" fill="none" transform="matrix(1.0,0.0,0.0,1.0,0.0,0.0)"/></marker><marker id="ProcessOnMarker1086" markerUnits="userSpaceOnUse" orient="auto" markerWidth="16.23606797749979" markerHeight="10.550836550532098" viewBox="-1.0 -1.3763819204711736 16.23606797749979 10.550836550532098" refX="-1.0" refY="3.8990363547948754"><path id="ProcessOnPath1087" d="M12.0 3.8990363547948754L0.0 7.798072709589751V0.0Z" stroke="#323232" stroke-width="2.0" fill="#fff" transform="matrix(1.0,0.0,0.0,1.0,0.0,0.0)"/></marker><marker id="ProcessOnMarker1096" markerUnits="userSpaceOnUse" orient="auto" markerWidth="14.289086868996552" markerHeight="19.055054660878554" viewBox="-0.5877852522924731 -0.8090169943749475 14.289086868996552 19.055054660878554" refX="12.0" refY="8.71851033606433"><path id="ProcessOnPath1097" d="M0 0L12.0 8.71851033606433L0 17.43702067212866" stroke="#323232" stroke-width="2.0" fill="none" transform="matrix(1.0,0.0,0.0,1.0,0.0,0.0)"/></marker><marker id="ProcessOnMarker1138" markerUnits="userSpaceOnUse" orient="auto" markerWidth="16.23606797749979" markerHeight="10.550836550532098" viewBox="-1.0 -1.3763819204711736 16.23606797749979 10.550836550532098" refX="-1.0" refY="3.8990363547948754"><path id="ProcessOnPath1139" d="M12.0 3.8990363547948754L0.0 7.798072709589751V0.0Z" stroke="#323232" stroke-width="2.0" fill="#fff" transform="matrix(1.0,0.0,0.0,1.0,0.0,0.0)"/></marker></defs><g id="ProcessOnG1002"><path id="ProcessOnPath1003" d="M186.0 8.0H1237.0V774.0H186.0V8.0Z" fill="none"/><g id="ProcessOnG1004"><g id="ProcessOnG1005"><path id="ProcessOnPath1006" d="M844.0 351.0C919.7544047429242 351.0 853.8731881483719 494.12279762853785 788.2679491924312 532.0" stroke="#323232" stroke-width="2.0" stroke-dasharray="none" fill="none" marker-end="url(#ProcessOnMarker1007)"/></g><g id="ProcessOnG1009" transform="matrix(1.0,0.0,0.0,1.0,684.0,283.0)" opacity="1.0"><path id="ProcessOnPath1010" d="M0.0 0.0L230.0 0.0L230.0 20.0L0.0 20.0Z" stroke="none" stroke-width="0.0" stroke-dasharray="none" opacity="1.0" fill="none"/><g id="ProcessOnG1011" transform="matrix(1.0,0.0,0.0,1.0,0.0,1.875)"><text id="ProcessOnText1012" fill="#000000" font-size="13" x="0.0" y="13.325" font-family="微软雅黑" font-weight="normal" font-style="normal" text-decoration="none" family="微软雅黑" text-anchor="start" size="13">storageFactoryRestOptionsFactory</text></g></g><g id="ProcessOnG1013" transform="matrix(1.0,0.0,0.0,1.0,684.0,303.0)" opacity="1.0"><path id="ProcessOnPath1014" d="M0.0 0.0L160.0 0.0L160.0 32.0L0.0 32.0Z" stroke="#323232" stroke-width="2.0" stroke-dasharray="none" opacity="1.0" fill="#ffffff"/><g id="ProcessOnG1015" transform="matrix(1.0,0.0,0.0,1.0,10.0,7.875)"><text id="ProcessOnText1016" fill="#000000" font-size="13" x="69.0" y="13.325" font-family="微软雅黑" font-weight="normal" font-style="normal" text-decoration="none" family="微软雅黑" text-anchor="middle" size="13">Options</text></g></g><g id="ProcessOnG1017" transform="matrix(1.0,0.0,0.0,1.0,684.0,335.0)" opacity="1.0"><path id="ProcessOnPath1018" d="M0.0 0.0L160.0 0.0L160.0 32.0L0.0 32.0Z" stroke="#323232" stroke-width="2.0" stroke-dasharray="none" opacity="1.0" fill="#ffffff"/><g id="ProcessOnG1019" transform="matrix(1.0,0.0,0.0,1.0,10.0,7.875)"><text id="ProcessOnText1020" fill="#000000" font-size="13" x="69.0" y="13.325" font-family="微软雅黑" font-weight="normal" font-style="normal" text-decoration="none" family="微软雅黑" text-anchor="middle" size="13">StorageFactory</text></g></g><g id="ProcessOnG1021" transform="matrix(1.0,0.0,0.0,1.0,990.0,254.0)" opacity="1.0"><path id="ProcessOnPath1022" d="M0.0 0.0L160.0 0.0L160.0 20.0L0.0 20.0Z" stroke="none" stroke-width="0.0" stroke-dasharray="none" opacity="1.0" fill="none"/><g id="ProcessOnG1023" transform="matrix(1.0,0.0,0.0,1.0,0.0,1.875)"><text id="ProcessOnText1024" fill="#000000" font-size="13" x="0.0" y="13.325" font-family="微软雅黑" font-weight="normal" font-style="normal" text-decoration="none" family="微软雅黑" text-anchor="start" size="13">EtcdOptions</text></g></g><g id="ProcessOnG1025" transform="matrix(1.0,0.0,0.0,1.0,990.0,274.0)" opacity="1.0"><path id="ProcessOnPath1026" d="M0.0 0.0L160.0 0.0L160.0 32.0L0.0 32.0Z" stroke="#323232" stroke-width="2.0" stroke-dasharray="none" opacity="1.0" fill="#ffffff"/><g id="ProcessOnG1027" transform="matrix(1.0,0.0,0.0,1.0,10.0,7.875)"><text id="ProcessOnText1028" fill="#000000" font-size="13" x="69.0" y="13.325" font-family="微软雅黑" font-weight="normal" font-style="normal" text-decoration="none" family="微软雅黑" text-anchor="middle" size="13">StorageConfig</text></g></g><g id="ProcessOnG1029"><path id="ProcessOnPath1030" d="M844.0 319.0C903.5409103054362 319.0 930.4590896945638 290.0 990.0 290.0" stroke="#323232" stroke-width="2.0" stroke-dasharray="none" fill="none" marker-end="url(#ProcessOnMarker1031)"/></g><g id="ProcessOnG1033" transform="matrix(1.0,0.0,0.0,1.0,641.0,78.0)" opacity="1.0"><path id="ProcessOnPath1034" d="M0.0 0.0L160.0 0.0L160.0 20.0L0.0 20.0Z" stroke="none" stroke-width="0.0" stroke-dasharray="none" opacity="1.0" fill="none"/><g id="ProcessOnG1035" transform="matrix(1.0,0.0,0.0,1.0,0.0,1.875)"><text id="ProcessOnText1036" fill="#000000" font-size="13" x="0.0" y="13.325" font-family="微软雅黑" font-weight="normal" font-style="normal" text-decoration="none" family="微软雅黑" text-anchor="start" size="13">Config</text></g></g><g id="ProcessOnG1037" transform="matrix(1.0,0.0,0.0,1.0,641.0,98.0)" opacity="1.0"><path id="ProcessOnPath1038" d="M0.0 0.0L160.0 0.0L160.0 32.0L0.0 32.0Z" stroke="#323232" stroke-width="2.0" stroke-dasharray="none" opacity="1.0" fill="#ffffff"/><g id="ProcessOnG1039" transform="matrix(1.0,0.0,0.0,1.0,10.0,7.875)"><text id="ProcessOnText1040" fill="#000000" font-size="13" x="69.0" y="13.325" font-family="微软雅黑" font-weight="normal" font-style="normal" text-decoration="none" family="微软雅黑" text-anchor="middle" size="13">RESTOptionsGetter</text></g></g><g id="ProcessOnG1041" transform="matrix(1.0,0.0,0.0,1.0,649.0,673.0)" opacity="1.0"><path id="ProcessOnPath1042" d="M0.0 4.0Q0.0 0.0 4.0 0.0L176.0 0.0Q180.0 0.0 180.0 4.0L180.0 28.0Q180.0 32.0 176.0 32.0L4.0 32.0Q0.0 32.0 0.0 28.0Z" stroke="#323232" stroke-width="2.0" stroke-dasharray="none" opacity="1.0" fill="#ffffff"/><g id="ProcessOnG1043" transform="matrix(1.0,0.0,0.0,1.0,10.0,7.875)"><text id="ProcessOnText1044" fill="#000000" font-size="13" x="79.0" y="13.325" font-family="微软雅黑" font-weight="normal" font-style="normal" text-decoration="none" family="微软雅黑" text-anchor="middle" size="13">Config</text></g></g><g id="ProcessOnG1045" transform="matrix(1.0,0.0,0.0,1.0,234.0,329.0)" opacity="1.0"><path id="ProcessOnPath1046" d="M0.0 0.0L160.0 0.0L160.0 20.0L0.0 20.0Z" stroke="none" stroke-width="0.0" stroke-dasharray="none" opacity="1.0" fill="none"/><g id="ProcessOnG1047" transform="matrix(1.0,0.0,0.0,1.0,0.0,1.875)"><text id="ProcessOnText1048" fill="#000000" font-size="13" x="0.0" y="13.325" font-family="微软雅黑" font-weight="normal" font-style="normal" text-decoration="none" family="微软雅黑" text-anchor="start" size="13">generic.RESTOptions</text></g></g><g id="ProcessOnG1049" transform="matrix(1.0,0.0,0.0,1.0,234.0,349.0)" opacity="1.0"><path id="ProcessOnPath1050" d="M0.0 0.0L160.0 0.0L160.0 32.0L0.0 32.0Z" stroke="#323232" stroke-width="2.0" stroke-dasharray="none" opacity="1.0" fill="#ffffff"/><g id="ProcessOnG1051" transform="matrix(1.0,0.0,0.0,1.0,10.0,7.875)"><text id="ProcessOnText1052" fill="#000000" font-size="13" x="69.0" y="13.325" font-family="微软雅黑" font-weight="normal" font-style="normal" text-decoration="none" family="微软雅黑" text-anchor="middle" size="13">StorageConfig</text></g></g><g id="ProcessOnG1053"><path id="ProcessOnPath1054" d="M394.0 365.0C558.9247100952432 365.0 484.0752899047568 689.0 649.0 689.0" stroke="#323232" stroke-width="2.0" stroke-dasharray="none" fill="none" marker-end="url(#ProcessOnMarker1055)"/></g><g id="ProcessOnG1057" transform="matrix(1.0,0.0,0.0,1.0,234.0,381.0)" opacity="1.0"><path id="ProcessOnPath1058" d="M0.0 0.0L160.0 0.0L160.0 32.0L0.0 32.0Z" stroke="#323232" stroke-width="2.0" stroke-dasharray="none" opacity="1.0" fill="#ffffff"/><g id="ProcessOnG1059" transform="matrix(1.0,0.0,0.0,1.0,10.0,7.875)"><text id="ProcessOnText1060" fill="#000000" font-size="13" x="69.0" y="13.325" font-family="微软雅黑" font-weight="normal" font-style="normal" text-decoration="none" family="微软雅黑" text-anchor="middle" size="13">Decorator</text></g></g><g id="ProcessOnG1061"><path id="ProcessOnPath1062" d="M764.0 367.0C764.0 515.4458881135632 536.6262363512847 312.3911103047696 393.2385192159765 350.8117333157176" stroke="#323232" stroke-width="2.0" stroke-dasharray="10.0 4.0" fill="none" marker-end="url(#ProcessOnMarker1063)"/><g id="ProcessOnG1065" transform="matrix(1.0,0.0,0.0,1.0,632.3896535337287,392.04034107133947)"><path id="ProcessOnPath1066" d="M0 0H101.0V16.25H0Z" fill="#fff" transform="matrix(1.0,0.0,0.0,1.0,-50.5,0.0)"/><text id="ProcessOnText1067" fill="#000000" font-size="13" x="0.0" y="13.325" font-family="微软雅黑" font-weight="normal" font-style="normal" text-decoration="none" family="微软雅黑" text-anchor="middle" size="13">GetRESTOptions</text></g></g><g id="ProcessOnG1068" transform="matrix(1.0,0.0,0.0,1.0,234.0,508.0)" opacity="1.0"><path id="ProcessOnPath1069" d="M0.0 4.0Q0.0 0.0 4.0 0.0L156.0 0.0Q160.0 0.0 160.0 4.0L160.0 28.0Q160.0 32.0 156.0 32.0L4.0 32.0Q0.0 32.0 0.0 28.0Z" stroke="#323232" stroke-width="2.0" stroke-dasharray="none" opacity="1.0" fill="#ffffff"/><g id="ProcessOnG1070" transform="matrix(1.0,0.0,0.0,1.0,10.0,7.875)"><text id="ProcessOnText1071" fill="#000000" font-size="13" x="69.0" y="13.325" font-family="微软雅黑" font-weight="normal" font-style="normal" text-decoration="none" family="微软雅黑" text-anchor="middle" size="13">UndecoratedStorage</text></g></g><g id="ProcessOnG1072"><path id="ProcessOnPath1073" d="M394.0 397.0C444.79999999999995 397.0 444.79999999999995 524.0 394.0 524.0" stroke="#323232" stroke-width="2.0" stroke-dasharray="none" fill="none" marker-end="url(#ProcessOnMarker1074)"/></g><g id="ProcessOnG1076"><path id="ProcessOnPath1077" d="M641.0 114.0C562.0117219550518 114.0 608.4987372200171 286.10924357272927 684.7955549577343 306.55291427061513" stroke="#323232" stroke-width="2.0" stroke-dasharray="none" fill="none" marker-end="url(#ProcessOnMarker1078)"/></g><g id="ProcessOnG1080" transform="matrix(1.0,0.0,0.0,1.0,234.0,237.0)" opacity="1.0"><path id="ProcessOnPath1081" d="M0.0 0.0L180.0 0.0L180.0 32.0L0.0 32.0Z" stroke="#323232" stroke-width="2.0" stroke-dasharray="10.0 4.0" opacity="1.0" fill="#ffffff"/><g id="ProcessOnG1082" transform="matrix(1.0,0.0,0.0,1.0,10.0,7.875)"><text id="ProcessOnText1083" fill="#000000" font-size="13" x="79.0" y="13.325" font-family="微软雅黑" font-weight="normal" font-style="normal" text-decoration="none" family="微软雅黑" text-anchor="middle" size="13">RESTOptionsGetter</text></g></g><g id="ProcessOnG1084"><path id="ProcessOnPath1085" d="M686.7207293090531 303.457456132867C623.0883544479075 212.5810068106549 524.9396600494247 253.0 429.2360679774998 253.0" stroke="#323232" stroke-width="2.0" stroke-dasharray="none" fill="none" marker-end="url(#ProcessOnMarker1086)"/></g><g id="ProcessOnG1088" transform="matrix(1.0,0.0,0.0,1.0,629.0,508.0)" opacity="1.0"><path id="ProcessOnPath1089" d="M0.0 0.0L160.0 0.0L160.0 20.0L0.0 20.0Z" stroke="none" stroke-width="0.0" stroke-dasharray="none" opacity="1.0" fill="none"/><g id="ProcessOnG1090" transform="matrix(1.0,0.0,0.0,1.0,0.0,1.875)"><text id="ProcessOnText1091" fill="#000000" font-size="13" x="0.0" y="13.325" font-family="微软雅黑" font-weight="normal" font-style="normal" text-decoration="none" family="微软雅黑" text-anchor="start" size="13">DefaultStorageFactory</text></g></g><g id="ProcessOnG1092" transform="matrix(1.0,0.0,0.0,1.0,629.0,528.0)" opacity="1.0"><path id="ProcessOnPath1093" d="M0.0 0.0L160.0 0.0L160.0 32.0L0.0 32.0Z" stroke="#323232" stroke-width="2.0" stroke-dasharray="none" opacity="1.0" fill="#ffffff"/></g><g id="ProcessOnG1094"><path id="ProcessOnPath1095" d="M990.0 290.0C817.8967751609517 290.0 1001.1032248390484 689.0 829.0 689.0" stroke="#323232" stroke-width="2.0" stroke-dasharray="none" fill="none" marker-end="url(#ProcessOnMarker1096)"/></g><g id="ProcessOnG1098" transform="matrix(1.0,0.0,0.0,1.0,517.0,28.0)" opacity="1.0"><path id="ProcessOnPath1099" d="M0.0 0.0L380.0 0.0L380.0 32.0L0.0 32.0Z" stroke="none" stroke-width="0.0" stroke-dasharray="none" opacity="1.0" fill="none"/><g id="ProcessOnG1100" transform="matrix(1.0,0.0,0.0,1.0,0.0,6.0)"><text id="ProcessOnText1101" fill="#000000" font-size="16" x="0.0" y="16.4" font-family="微软雅黑" font-weight="bold" font-style="normal" text-decoration="none" family="微软雅黑" text-anchor="start" size="16">apiserver/pkg/server</text></g></g><g id="ProcessOnG1102"><path id="ProcessOnPath1103" d="M221.0 189.0L716.5 189.0L716.5 189.0L1212.0 189.0" stroke="#323232" stroke-width="2.0" stroke-dasharray="10.0 4.0" fill="none"/></g><g id="ProcessOnG1104" transform="matrix(1.0,0.0,0.0,1.0,220.0,199.0)" opacity="1.0"><path id="ProcessOnPath1105" d="M0.0 0.0L259.0 0.0L259.0 32.0L0.0 32.0Z" stroke="none" stroke-width="0.0" stroke-dasharray="none" opacity="1.0" fill="none"/><g id="ProcessOnG1106" transform="matrix(1.0,0.0,0.0,1.0,0.0,6.0)"><text id="ProcessOnText1107" fill="#000000" font-size="16" x="0.0" y="16.4" font-family="微软雅黑" font-weight="bold" font-style="normal" text-decoration="none" family="微软雅黑" text-anchor="start" size="16">apiserver/pkg/registry/generic</text></g></g><g id="ProcessOnG1108"><path id="ProcessOnPath1109" d="M572.0 195.0L572.0 474.5L572.0 474.5L572.0 754.0" stroke="#323232" stroke-width="2.0" stroke-dasharray="10.0 4.0" fill="none"/></g><g id="ProcessOnG1110" transform="matrix(1.0,0.0,0.0,1.0,641.0,199.0)" opacity="1.0"><path id="ProcessOnPath1111" d="M0.0 0.0L259.0 0.0L259.0 32.0L0.0 32.0Z" stroke="none" stroke-width="0.0" stroke-dasharray="none" opacity="1.0" fill="none"/><g id="ProcessOnG1112" transform="matrix(1.0,0.0,0.0,1.0,0.0,6.0)"><text id="ProcessOnText1113" fill="#000000" font-size="16" x="0.0" y="16.4" font-family="微软雅黑" font-weight="bold" font-style="normal" text-decoration="none" family="微软雅黑" text-anchor="start" size="16">apiserver/pkg/server/options</text></g></g><g id="ProcessOnG1114"><path id="ProcessOnPath1115" d="M206.0 592.0L382.0 592.0L382.0 592.0L558.0 592.0" stroke="#323232" stroke-width="2.0" stroke-dasharray="10.0 4.0" fill="none"/></g><g id="ProcessOnG1116" transform="matrix(1.0,0.0,0.0,1.0,211.0,604.0)" opacity="1.0"><path id="ProcessOnPath1117" d="M0.0 0.0L259.0 0.0L259.0 32.0L0.0 32.0Z" stroke="none" stroke-width="0.0" stroke-dasharray="none" opacity="1.0" fill="none"/><g id="ProcessOnG1118" transform="matrix(1.0,0.0,0.0,1.0,0.0,6.0)"><text id="ProcessOnText1119" fill="#000000" font-size="16" x="0.0" y="16.4" font-family="微软雅黑" font-weight="bold" font-style="normal" text-decoration="none" family="微软雅黑" text-anchor="start" size="16">apiserver/pkg/server/storage</text></g></g><g id="ProcessOnG1120" transform="matrix(1.0,0.0,0.0,1.0,234.0,658.0)" opacity="1.0"><path id="ProcessOnPath1121" d="M0.0 0.0L180.0 0.0L180.0 32.0L0.0 32.0Z" stroke="#323232" stroke-width="2.0" stroke-dasharray="10.0 4.0" opacity="1.0" fill="#ffffff"/><g id="ProcessOnG1122" transform="matrix(1.0,0.0,0.0,1.0,10.0,7.875)"><text id="ProcessOnText1123" fill="#000000" font-size="13" x="79.0" y="13.325" font-family="微软雅黑" font-weight="normal" font-style="normal" text-decoration="none" family="微软雅黑" text-anchor="middle" size="13">StorageFactory</text></g></g><g id="ProcessOnG1124" transform="matrix(1.0,0.0,0.0,1.0,592.0,604.0)" opacity="1.0"><path id="ProcessOnPath1125" d="M0.0 0.0L380.0 0.0L380.0 32.0L0.0 32.0Z" stroke="none" stroke-width="0.0" stroke-dasharray="none" opacity="1.0" fill="none"/><g id="ProcessOnG1126" transform="matrix(1.0,0.0,0.0,1.0,0.0,6.0)"><text id="ProcessOnText1127" fill="#000000" font-size="16" x="0.0" y="16.4" font-family="微软雅黑" font-weight="bold" font-style="normal" text-decoration="none" family="微软雅黑" text-anchor="start" size="16">apiserver/pkg/storage/storagebackend</text></g></g><g id="ProcessOnG1128"><path id="ProcessOnPath1129" d="M580.0 592.0L898.5 592.0L898.5 592.0L1217.0 592.0" stroke="#323232" stroke-width="2.0" stroke-dasharray="10.0 4.0" fill="none"/></g><g id="ProcessOnG1130"><path id="ProcessOnPath1131" d="M577.0 441.0L895.5 441.0L895.5 441.0L1214.0 441.0" stroke="#323232" stroke-width="2.0" stroke-dasharray="10.0 4.0" fill="none"/></g><g id="ProcessOnG1132" transform="matrix(1.0,0.0,0.0,1.0,592.0,450.0)" opacity="1.0"><path id="ProcessOnPath1133" d="M0.0 0.0L380.0 0.0L380.0 32.0L0.0 32.0Z" stroke="none" stroke-width="0.0" stroke-dasharray="none" opacity="1.0" fill="none"/><g id="ProcessOnG1134" transform="matrix(1.0,0.0,0.0,1.0,0.0,6.0)"><text id="ProcessOnText1135" fill="#000000" font-size="16" x="0.0" y="16.4" font-family="微软雅黑" font-weight="bold" font-style="normal" text-decoration="none" family="微软雅黑" text-anchor="start" size="16">apiserver/pkg/kubeapiserver</text></g></g><g id="ProcessOnG1136"><path id="ProcessOnPath1137" d="M629.0 544.0C531.0726030171072 544.0 502.2208235146418 618.7271850190019 427.2770281166446 653.6740507442894" stroke="#323232" stroke-width="2.0" stroke-dasharray="none" fill="none" marker-end="url(#ProcessOnMarker1138)"/></g></g></g></svg>