<svg xmlns="http://www.w3.org/2000/svg" xmlns:xlink="http://www.w3.org/1999/xlink" id="processonSvg1000" viewBox="159.0 36.52590155072551 776.0 423.4740984492745" width="776.0" height="423.4740984492745"><defs id="ProcessOnDefs1001"><marker id="ProcessOnMarker1027" markerUnits="userSpaceOnUse" orient="auto" markerWidth="14.289086868996552" markerHeight="19.055054660878554" viewBox="-0.5877852522924731 -0.8090169943749475 14.289086868996552 19.055054660878554" refX="12.0" refY="8.71851033606433"><path id="ProcessOnPath1028" d="M0 0L12.0 8.71851033606433L0 17.43702067212866" stroke="#323232" stroke-width="2.0" fill="none" transform="matrix(1.0,0.0,0.0,1.0,0.0,0.0)"/></marker><marker id="ProcessOnMarker1042" markerUnits="userSpaceOnUse" orient="auto" markerWidth="14.289086868996552" markerHeight="19.055054660878554" viewBox="-0.5877852522924731 -0.8090169943749475 14.289086868996552 19.055054660878554" refX="12.0" refY="8.71851033606433"><path id="ProcessOnPath1043" d="M0 0L12.0 8.71851033606433L0 17.43702067212866" stroke="#323232" stroke-width="2.0" fill="none" transform="matrix(1.0,0.0,0.0,1.0,0.0,0.0)"/></marker><marker id="ProcessOnMarker1061" markerUnits="userSpaceOnUse" orient="auto" markerWidth="14.289086868996552" markerHeight="19.055054660878554" viewBox="-0.5877852522924731 -0.8090169943749475 14.289086868996552 19.055054660878554" refX="12.0" refY="8.71851033606433"><path id="ProcessOnPath1062" d="M0 0L12.0 8.71851033606433L0 17.43702067212866" stroke="#323232" stroke-width="2.0" fill="none" transform="matrix(1.0,0.0,0.0,1.0,0.0,0.0)"/></marker><marker id="ProcessOnMarker1073" markerUnits="userSpaceOnUse" orient="auto" markerWidth="14.289086868996552" markerHeight="19.055054660878554" viewBox="-0.5877852522924731 -0.8090169943749475 14.289086868996552 19.055054660878554" refX="12.0" refY="8.71851033606433"><path id="ProcessOnPath1074" d="M0 0L12.0 8.71851033606433L0 17.43702067212866" stroke="#323232" stroke-width="2.0" fill="none" transform="matrix(1.0,0.0,0.0,1.0,0.0,0.0)"/></marker><marker id="ProcessOnMarker1085" markerUnits="userSpaceOnUse" orient="auto" markerWidth="14.289086868996552" markerHeight="19.055054660878554" viewBox="-0.5877852522924731 -0.8090169943749475 14.289086868996552 19.055054660878554" refX="12.0" refY="8.71851033606433"><path id="ProcessOnPath1086" d="M0 0L12.0 8.71851033606433L0 17.43702067212866" stroke="#323232" stroke-width="2.0" fill="none" transform="matrix(1.0,0.0,0.0,1.0,0.0,0.0)"/></marker></defs><g id="ProcessOnG1002"><path id="ProcessOnPath1003" d="M159.0 36.52590155072551H935.0V460.0H159.0V36.52590155072551Z" fill="none"/><g id="ProcessOnG1004"><g id="ProcessOnG1005" transform="matrix(1.0,0.0,0.0,1.0,179.0,149.0)" opacity="1.0"><path id="ProcessOnPath1006" d="M0.0 0.0L180.0 0.0L180.0 32.0L0.0 32.0Z" stroke="#323232" stroke-width="2.0" stroke-dasharray="none" opacity="1.0" fill="#ffffff"/><g id="ProcessOnG1007" transform="matrix(1.0,0.0,0.0,1.0,10.0,7.875)"><text id="ProcessOnText1008" fill="#000000" font-size="13" x="79.0" y="13.325" font-family="微软雅黑" font-weight="normal" font-style="normal" text-decoration="none" family="微软雅黑" text-anchor="middle" size="13">postStartHooks</text></g></g><g id="ProcessOnG1009" transform="matrix(1.0,0.0,0.0,1.0,179.0,127.0)" opacity="1.0"><path id="ProcessOnPath1010" d="M0.0 0.0L180.0 0.0L180.0 22.0L0.0 22.0Z" stroke="none" stroke-width="0.0" stroke-dasharray="none" opacity="1.0" fill="none"/><g id="ProcessOnG1011" transform="matrix(1.0,0.0,0.0,1.0,0.0,2.875)"><text id="ProcessOnText1012" fill="#000000" font-size="13" x="0.0" y="13.325" font-family="微软雅黑" font-weight="normal" font-style="normal" text-decoration="none" family="微软雅黑" text-anchor="start" size="13">GenericAPIServer</text></g></g><g id="ProcessOnG1013" transform="matrix(1.0,0.0,0.0,1.0,179.0,181.0)" opacity="1.0"><path id="ProcessOnPath1014" d="M0.0 0.0L180.0 0.0L180.0 32.0L0.0 32.0Z" stroke="#323232" stroke-width="2.0" stroke-dasharray="none" opacity="1.0" fill="#ffffff"/><g id="ProcessOnG1015" transform="matrix(1.0,0.0,0.0,1.0,10.0,7.875)"><text id="ProcessOnText1016" fill="#000000" font-size="13" x="79.0" y="13.325" font-family="微软雅黑" font-weight="normal" font-style="normal" text-decoration="none" family="微软雅黑" text-anchor="middle" size="13">preShutdownHooks</text></g></g><g id="ProcessOnG1017" transform="matrix(1.0,0.0,0.0,1.0,497.0,95.0)" opacity="1.0"><path id="ProcessOnPath1018" d="M0.0 0.0L70.0 0.0L70.0 32.0L0.0 32.0Z" stroke="#323232" stroke-width="2.0" stroke-dasharray="none" opacity="1.0" fill="#ffffff"/><g id="ProcessOnG1019" transform="matrix(1.0,0.0,0.0,1.0,10.0,7.875)"><text id="ProcessOnText1020" fill="#000000" font-size="13" x="24.0" y="13.325" font-family="微软雅黑" font-weight="normal" font-style="italic" text-decoration="none" family="微软雅黑" text-anchor="middle" size="13">string</text></g></g><g id="ProcessOnG1021" transform="matrix(1.0,0.0,0.0,1.0,497.0,127.0)" opacity="1.0"><path id="ProcessOnPath1022" d="M0.0 0.0L70.0 0.0L70.0 32.0L0.0 32.0Z" stroke="#323232" stroke-width="2.0" stroke-dasharray="none" opacity="1.0" fill="#ffffff"/><g id="ProcessOnG1023" transform="matrix(1.0,0.0,0.0,1.0,10.0,7.875)"><text id="ProcessOnText1024" fill="#000000" font-size="13" x="24.0" y="13.325" font-family="微软雅黑" font-weight="normal" font-style="italic" text-decoration="none" family="微软雅黑" text-anchor="middle" size="13">string</text></g></g><g id="ProcessOnG1025"><path id="ProcessOnPath1026" d="M359.0 165.0C420.85507167450953 165.0 450.1483549512538 56.52590155072551 497.53208888623794 96.28557521937307" stroke="#323232" stroke-width="2.0" stroke-dasharray="none" fill="none" marker-end="url(#ProcessOnMarker1027)"/><g id="ProcessOnG1029" transform="matrix(1.0,0.0,0.0,1.0,433.692796095441,107.6079099839437)"><path id="ProcessOnPath1030" d="M0 0H27.0V16.25H0Z" fill="#fff" transform="matrix(1.0,0.0,0.0,1.0,-13.5,0.0)"/><text id="ProcessOnText1031" fill="#000000" font-size="13" x="0.0" y="13.325" font-family="微软雅黑" font-weight="normal" font-style="normal" text-decoration="none" family="微软雅黑" text-anchor="middle" size="13">map</text></g></g><g id="ProcessOnG1032" transform="matrix(1.0,0.0,0.0,1.0,497.0,232.0)" opacity="1.0"><path id="ProcessOnPath1033" d="M0.0 0.0L70.0 0.0L70.0 32.0L0.0 32.0Z" stroke="#323232" stroke-width="2.0" stroke-dasharray="none" opacity="1.0" fill="#ffffff"/><g id="ProcessOnG1034" transform="matrix(1.0,0.0,0.0,1.0,10.0,7.875)"><text id="ProcessOnText1035" fill="#000000" font-size="13" x="24.0" y="13.325" font-family="微软雅黑" font-weight="normal" font-style="italic" text-decoration="none" family="微软雅黑" text-anchor="middle" size="13">string</text></g></g><g id="ProcessOnG1036" transform="matrix(1.0,0.0,0.0,1.0,497.0,264.0)" opacity="1.0"><path id="ProcessOnPath1037" d="M0.0 0.0L70.0 0.0L70.0 32.0L0.0 32.0Z" stroke="#323232" stroke-width="2.0" stroke-dasharray="none" opacity="1.0" fill="#ffffff"/><g id="ProcessOnG1038" transform="matrix(1.0,0.0,0.0,1.0,10.0,7.875)"><text id="ProcessOnText1039" fill="#000000" font-size="13" x="24.0" y="13.325" font-family="微软雅黑" font-weight="normal" font-style="italic" text-decoration="none" family="微软雅黑" text-anchor="middle" size="13">string</text></g></g><g id="ProcessOnG1040"><path id="ProcessOnPath1041" d="M359.0 197.0C416.4335197404264 197.0 447.7252144911734 206.28324012978683 497.46410161513774 235.0" stroke="#323232" stroke-width="2.0" stroke-dasharray="none" fill="none" marker-end="url(#ProcessOnMarker1042)"/><g id="ProcessOnG1044" transform="matrix(1.0,0.0,0.0,1.0,431.1175380387421,197.10621504867007)"><path id="ProcessOnPath1045" d="M0 0H27.0V16.25H0Z" fill="#fff" transform="matrix(1.0,0.0,0.0,1.0,-13.5,0.0)"/><text id="ProcessOnText1046" fill="#000000" font-size="13" x="0.0" y="13.325" font-family="微软雅黑" font-weight="normal" font-style="normal" text-decoration="none" family="微软雅黑" text-anchor="middle" size="13">map</text></g></g><g id="ProcessOnG1047" transform="matrix(1.0,0.0,0.0,1.0,730.0,95.0)" opacity="1.0"><path id="ProcessOnPath1048" d="M0.0 0.0L180.0 0.0L180.0 32.0L0.0 32.0Z" stroke="#323232" stroke-width="2.0" stroke-dasharray="none" opacity="1.0" fill="#ffffff"/><g id="ProcessOnG1049" transform="matrix(1.0,0.0,0.0,1.0,10.0,7.875)"><text id="ProcessOnText1050" fill="#000000" font-size="13" x="79.0" y="13.325" font-family="微软雅黑" font-weight="normal" font-style="normal" text-decoration="none" family="微软雅黑" text-anchor="middle" size="13">hook</text></g></g><g id="ProcessOnG1051" transform="matrix(1.0,0.0,0.0,1.0,730.0,73.0)" opacity="1.0"><path id="ProcessOnPath1052" d="M0.0 0.0L180.0 0.0L180.0 22.0L0.0 22.0Z" stroke="none" stroke-width="0.0" stroke-dasharray="none" opacity="1.0" fill="none"/><g id="ProcessOnG1053" transform="matrix(1.0,0.0,0.0,1.0,0.0,2.875)"><text id="ProcessOnText1054" fill="#000000" font-size="13" x="0.0" y="13.325" font-family="微软雅黑" font-weight="normal" font-style="normal" text-decoration="none" family="微软雅黑" text-anchor="start" size="13">postStartHookEntry</text></g></g><g id="ProcessOnG1055" transform="matrix(1.0,0.0,0.0,1.0,730.0,127.0)" opacity="1.0"><path id="ProcessOnPath1056" d="M0.0 0.0L180.0 0.0L180.0 32.0L0.0 32.0Z" stroke="#323232" stroke-width="2.0" stroke-dasharray="none" opacity="1.0" fill="#ffffff"/><g id="ProcessOnG1057" transform="matrix(1.0,0.0,0.0,1.0,10.0,7.875)"><text id="ProcessOnText1058" fill="#000000" font-size="13" x="79.0" y="13.325" font-family="微软雅黑" font-weight="normal" font-style="normal" text-decoration="none" family="微软雅黑" text-anchor="middle" size="13">done</text></g></g><g id="ProcessOnG1059"><path id="ProcessOnPath1060" d="M567.0 111.0C632.5184956993078 110.99999999999999 676.4261505306174 58.28801690346497 730.095760221445 95.86788218175522" stroke="#323232" stroke-width="2.0" stroke-dasharray="none" fill="none" marker-end="url(#ProcessOnMarker1061)"/></g><g id="ProcessOnG1063" transform="matrix(1.0,0.0,0.0,1.0,730.0,232.0)" opacity="1.0"><path id="ProcessOnPath1064" d="M0.0 0.0L180.0 0.0L180.0 32.0L0.0 32.0Z" stroke="#323232" stroke-width="2.0" stroke-dasharray="none" opacity="1.0" fill="#ffffff"/><g id="ProcessOnG1065" transform="matrix(1.0,0.0,0.0,1.0,10.0,7.875)"><text id="ProcessOnText1066" fill="#000000" font-size="13" x="79.0" y="13.325" font-family="微软雅黑" font-weight="normal" font-style="normal" text-decoration="none" family="微软雅黑" text-anchor="middle" size="13">hook</text></g></g><g id="ProcessOnG1067" transform="matrix(1.0,0.0,0.0,1.0,730.0,210.0)" opacity="1.0"><path id="ProcessOnPath1068" d="M0.0 0.0L180.0 0.0L180.0 22.0L0.0 22.0Z" stroke="none" stroke-width="0.0" stroke-dasharray="none" opacity="1.0" fill="none"/><g id="ProcessOnG1069" transform="matrix(1.0,0.0,0.0,1.0,0.0,2.875)"><text id="ProcessOnText1070" fill="#000000" font-size="13" x="0.0" y="13.325" font-family="微软雅黑" font-weight="normal" font-style="normal" text-decoration="none" family="微软雅黑" text-anchor="start" size="13">preShutdownHookEntry</text></g></g><g id="ProcessOnG1071"><path id="ProcessOnPath1072" d="M567.0 248.0C632.7182558776021 248.0 680.2531619322056 190.613845049787 730.5962666587138 232.85672565811922" stroke="#323232" stroke-width="2.0" stroke-dasharray="none" fill="none" marker-end="url(#ProcessOnMarker1073)"/></g><g id="ProcessOnG1075" transform="matrix(1.0,0.0,0.0,1.0,179.0,213.0)" opacity="1.0"><path id="ProcessOnPath1076" d="M0.0 0.0L180.0 0.0L180.0 32.0L0.0 32.0Z" stroke="#323232" stroke-width="2.0" stroke-dasharray="none" opacity="1.0" fill="#ffffff"/><g id="ProcessOnG1077" transform="matrix(1.0,0.0,0.0,1.0,10.0,7.875)"><text id="ProcessOnText1078" fill="#000000" font-size="13" x="79.0" y="13.325" font-family="微软雅黑" font-weight="normal" font-style="normal" text-decoration="none" family="微软雅黑" text-anchor="middle" size="13">disabledPostStartHooks</text></g></g><g id="ProcessOnG1079" transform="matrix(1.0,0.0,0.0,1.0,397.0,367.0)" opacity="1.0"><path id="ProcessOnPath1080" d="M0.0 0.0L70.0 0.0L70.0 32.0L0.0 32.0Z" stroke="#323232" stroke-width="2.0" stroke-dasharray="none" opacity="1.0" fill="#ff6666"/><g id="ProcessOnG1081" transform="matrix(1.0,0.0,0.0,1.0,10.0,7.875)"><text id="ProcessOnText1082" fill="#000000" font-size="13" x="24.0" y="13.325" font-family="微软雅黑" font-weight="normal" font-style="italic" text-decoration="none" family="微软雅黑" text-anchor="middle" size="13">string</text></g></g><g id="ProcessOnG1083"><path id="ProcessOnPath1084" d="M359.0 229.0C416.38452928298165 229.0 364.9534683739404 320.089105748729 397.86788218175525 367.09576022144495" stroke="#323232" stroke-width="2.0" stroke-dasharray="none" fill="none" marker-end="url(#ProcessOnMarker1085)"/><g id="ProcessOnG1087" transform="matrix(1.0,0.0,0.0,1.0,387.6102343940652,272.295384683454)"><path id="ProcessOnPath1088" d="M0 0H64.0V16.25H0Z" fill="#fff" transform="matrix(1.0,0.0,0.0,1.0,-32.0,0.0)"/><text id="ProcessOnText1089" fill="#000000" font-size="13" x="0.0" y="13.325" font-family="微软雅黑" font-weight="normal" font-style="normal" text-decoration="none" family="微软雅黑" text-anchor="middle" size="13">sets.String</text></g></g><g id="ProcessOnG1090" transform="matrix(1.0,0.0,0.0,1.0,467.0,367.0)" opacity="1.0"><path id="ProcessOnPath1091" d="M0.0 0.0L70.0 0.0L70.0 32.0L0.0 32.0Z" stroke="#323232" stroke-width="2.0" stroke-dasharray="none" opacity="1.0" fill="#ff6666"/><g id="ProcessOnG1092" transform="matrix(1.0,0.0,0.0,1.0,10.0,7.875)"><text id="ProcessOnText1093" fill="#000000" font-size="13" x="24.0" y="13.325" font-family="微软雅黑" font-weight="normal" font-style="italic" text-decoration="none" family="微软雅黑" text-anchor="middle" size="13">string</text></g></g><g id="ProcessOnG1094" transform="matrix(1.0,0.0,0.0,1.0,537.0,367.0)" opacity="1.0"><path id="ProcessOnPath1095" d="M0.0 0.0L70.0 0.0L70.0 32.0L0.0 32.0Z" stroke="#323232" stroke-width="2.0" stroke-dasharray="none" opacity="1.0" fill="#ff6666"/><g id="ProcessOnG1096" transform="matrix(1.0,0.0,0.0,1.0,10.0,7.875)"><text id="ProcessOnText1097" fill="#000000" font-size="13" x="24.0" y="13.325" font-family="微软雅黑" font-weight="normal" font-style="italic" text-decoration="none" family="微软雅黑" text-anchor="middle" size="13">string</text></g></g><g id="ProcessOnG1098" transform="matrix(1.0,0.0,0.0,1.0,397.0,408.0)" opacity="1.0"><path id="ProcessOnPath1099" d="M0.0 0.0L518.0 0.0L518.0 32.0L0.0 32.0Z" stroke="none" stroke-width="0.0" stroke-dasharray="none" opacity="1.0" fill="none"/><g id="ProcessOnG1100" transform="matrix(1.0,0.0,0.0,1.0,0.0,7.875)"><text id="ProcessOnText1101" fill="#000000" font-size="13" x="0.0" y="13.325" font-family="微软雅黑" font-weight="bold" font-style="normal" text-decoration="none" family="微软雅黑" text-anchor="start" size="13">被禁用的 hook 键，如果一个键在这个集合存在，将不能被加入 postStartHooks</text></g></g></g></g></svg>