<svg xmlns="http://www.w3.org/2000/svg" xmlns:xlink="http://www.w3.org/1999/xlink" id="processonSvg1000" viewBox="45.0 40.0 1093.0 382.0" width="1093.0" height="382.0"><defs id="ProcessOnDefs1001"><marker id="ProcessOnMarker1023" markerUnits="userSpaceOnUse" orient="auto" markerWidth="14.289086868996552" markerHeight="19.055054660878554" viewBox="-0.5877852522924731 -0.8090169943749475 14.289086868996552 19.055054660878554" refX="12.0" refY="8.71851033606433"><path id="ProcessOnPath1024" d="M0 0L12.0 8.71851033606433L0 17.43702067212866" stroke="#323232" stroke-width="2.0" fill="none" transform="matrix(1.0,0.0,0.0,1.0,0.0,0.0)"/></marker><marker id="ProcessOnMarker1038" markerUnits="userSpaceOnUse" orient="auto" markerWidth="14.289086868996552" markerHeight="19.055054660878554" viewBox="-0.5877852522924731 -0.8090169943749475 14.289086868996552 19.055054660878554" refX="12.0" refY="8.71851033606433"><path id="ProcessOnPath1039" d="M0 0L12.0 8.71851033606433L0 17.43702067212866" stroke="#323232" stroke-width="2.0" fill="none" transform="matrix(1.0,0.0,0.0,1.0,0.0,0.0)"/></marker><marker id="ProcessOnMarker1042" markerUnits="userSpaceOnUse" orient="auto" markerWidth="14.289086868996552" markerHeight="19.055054660878554" viewBox="-0.5877852522924731 -0.8090169943749475 14.289086868996552 19.055054660878554" refX="12.0" refY="8.71851033606433"><path id="ProcessOnPath1043" d="M0 0L12.0 8.71851033606433L0 17.43702067212866" stroke="#323232" stroke-width="2.0" fill="none" transform="matrix(1.0,0.0,0.0,1.0,0.0,0.0)"/></marker><marker id="ProcessOnMarker1071" markerUnits="userSpaceOnUse" orient="auto" markerWidth="14.289086868996552" markerHeight="19.055054660878554" viewBox="-0.5877852522924731 -0.8090169943749475 14.289086868996552 19.055054660878554" refX="12.0" refY="8.71851033606433"><path id="ProcessOnPath1072" d="M0 0L12.0 8.71851033606433L0 17.43702067212866" stroke="#323232" stroke-width="2.0" fill="none" transform="matrix(1.0,0.0,0.0,1.0,0.0,0.0)"/></marker><marker id="ProcessOnMarker1087" markerUnits="userSpaceOnUse" orient="auto" markerWidth="14.289086868996552" markerHeight="19.055054660878554" viewBox="-0.5877852522924731 -0.8090169943749475 14.289086868996552 19.055054660878554" refX="12.0" refY="8.71851033606433"><path id="ProcessOnPath1088" d="M0 0L12.0 8.71851033606433L0 17.43702067212866" stroke="#323232" stroke-width="2.0" fill="none" transform="matrix(1.0,0.0,0.0,1.0,0.0,0.0)"/></marker></defs><g id="ProcessOnG1002"><path id="ProcessOnPath1003" d="M45.0 40.0H1138.0V422.0H45.0V40.0Z" fill="none"/><g id="ProcessOnG1004"><g id="ProcessOnG1005" transform="matrix(1.0,0.0,0.0,1.0,80.0,121.0)" opacity="1.0"><path id="ProcessOnPath1006" d="M0.0 0.0L146.0 0.0L146.0 20.0L0.0 20.0Z" stroke="none" stroke-width="0.0" stroke-dasharray="none" opacity="1.0" fill="none"/><g id="ProcessOnG1007" transform="matrix(1.0,0.0,0.0,1.0,0.0,1.875)"><text id="ProcessOnText1008" fill="#000000" font-size="13" x="0.0" y="13.325" font-family="微软雅黑" font-weight="normal" font-style="normal" text-decoration="none" family="微软雅黑" text-anchor="start" size="13">DefaultStorageFactory</text></g></g><g id="ProcessOnG1009" transform="matrix(1.0,0.0,0.0,1.0,80.0,141.0)" opacity="1.0"><path id="ProcessOnPath1010" d="M0.0 0.0L130.0 0.0L130.0 32.0L0.0 32.0Z" stroke="#323232" stroke-width="2.0" stroke-dasharray="none" opacity="1.0" fill="#ffffff"/><g id="ProcessOnG1011" transform="matrix(1.0,0.0,0.0,1.0,10.0,7.875)"><text id="ProcessOnText1012" fill="#000000" font-size="13" x="54.0" y="13.325" font-family="微软雅黑" font-weight="normal" font-style="normal" text-decoration="none" family="微软雅黑" text-anchor="middle" size="13">Overrides</text></g></g><g id="ProcessOnG1013" transform="matrix(1.0,0.0,0.0,1.0,313.0,167.0)" opacity="1.0"><path id="ProcessOnPath1014" d="M0.0 4.0Q0.0 0.0 4.0 0.0L124.0 0.0Q128.0 0.0 128.0 4.0L128.0 28.0Q128.0 32.0 124.0 32.0L4.0 32.0Q0.0 32.0 0.0 28.0Z" stroke="#323232" stroke-width="2.0" stroke-dasharray="none" opacity="1.0" fill="#ffffff"/><g id="ProcessOnG1015" transform="matrix(1.0,0.0,0.0,1.0,10.0,7.875)"><text id="ProcessOnText1016" fill="#000000" font-size="13" x="53.0" y="13.325" font-family="微软雅黑" font-weight="normal" font-style="italic" text-decoration="none" family="微软雅黑" text-anchor="middle" size="13">GroupResource</text></g></g><g id="ProcessOnG1017" transform="matrix(1.0,0.0,0.0,1.0,313.0,199.0)" opacity="1.0"><path id="ProcessOnPath1018" d="M0.0 4.0Q0.0 0.0 4.0 0.0L124.0 0.0Q128.0 0.0 128.0 4.0L128.0 28.0Q128.0 32.0 124.0 32.0L4.0 32.0Q0.0 32.0 0.0 28.0Z" stroke="#323232" stroke-width="2.0" stroke-dasharray="none" opacity="1.0" fill="#ffffff"/><g id="ProcessOnG1019" transform="matrix(1.0,0.0,0.0,1.0,10.0,7.875)"><text id="ProcessOnText1020" fill="#000000" font-size="13" x="53.0" y="13.325" font-family="微软雅黑" font-weight="normal" font-style="normal" text-decoration="none" family="微软雅黑" text-anchor="middle" size="13">GroupResource</text></g></g><g id="ProcessOnG1021"><path id="ProcessOnPath1022" d="M210.0 157.0C251.69462734432494 157.0 279.30321690789555 145.80567354191035 313.457456132867 169.72072930905313" stroke="#323232" stroke-width="2.0" stroke-dasharray="none" fill="none" marker-end="url(#ProcessOnMarker1023)"/><g id="ProcessOnG1025" transform="matrix(1.0,0.0,0.0,1.0,264.556373611191,146.267218741848)"><path id="ProcessOnPath1026" d="M0 0H27.0V16.25H0Z" fill="#fff" transform="matrix(1.0,0.0,0.0,1.0,-13.5,0.0)"/><text id="ProcessOnText1027" fill="#000000" font-size="13" x="0.0" y="13.325" font-family="微软雅黑" font-weight="normal" font-style="normal" text-decoration="none" family="微软雅黑" text-anchor="middle" size="13">map</text></g></g><g id="ProcessOnG1028" transform="matrix(1.0,0.0,0.0,1.0,566.0,115.0)" opacity="1.0"><path id="ProcessOnPath1029" d="M0.0 0.0L170.0 0.0L170.0 20.0L0.0 20.0Z" stroke="none" stroke-width="0.0" stroke-dasharray="none" opacity="1.0" fill="none"/><g id="ProcessOnG1030" transform="matrix(1.0,0.0,0.0,1.0,0.0,1.875)"><text id="ProcessOnText1031" fill="#000000" font-size="13" x="0.0" y="13.325" font-family="微软雅黑" font-weight="normal" font-style="normal" text-decoration="none" family="微软雅黑" text-anchor="start" size="13">groupResourceOverrides</text></g></g><g id="ProcessOnG1032" transform="matrix(1.0,0.0,0.0,1.0,566.0,135.0)" opacity="1.0"><path id="ProcessOnPath1033" d="M0.0 0.0L170.0 0.0L170.0 32.0L0.0 32.0Z" stroke="#323232" stroke-width="2.0" stroke-dasharray="none" opacity="1.0" fill="#ffffff"/><g id="ProcessOnG1034" transform="matrix(1.0,0.0,0.0,1.0,10.0,7.875)"><text id="ProcessOnText1035" fill="#000000" font-size="13" x="74.0" y="13.325" font-family="微软雅黑" font-weight="normal" font-style="normal" text-decoration="none" family="微软雅黑" text-anchor="middle" size="13">cohabitatingResources</text></g></g><g id="ProcessOnG1036"><path id="ProcessOnPath1037" d="M441.0 183.0C494.6904339469904 183.0 522.7534355835827 105.21946728500136 566.734064310023 136.01503505445731" stroke="#323232" stroke-width="2.0" stroke-dasharray="none" fill="none" marker-end="url(#ProcessOnMarker1038)"/></g><g id="ProcessOnG1040"><path id="ProcessOnPath1041" d="M566.0 151.0C496.4194705694839 151.0 442.46042320714923 271.81097719887856 499.4574561328669 311.7207293090531" stroke="#323232" stroke-width="2.0" stroke-dasharray="none" fill="none" marker-end="url(#ProcessOnMarker1042)"/><g id="ProcessOnG1044" transform="matrix(1.0,0.0,0.0,1.0,485.26214218284576,208.2692076132111)"><path id="ProcessOnPath1045" d="M0 0H26.0V16.25H0Z" fill="#fff" transform="matrix(1.0,0.0,0.0,1.0,-13.0,0.0)"/><text id="ProcessOnText1046" fill="#000000" font-size="13" x="0.0" y="13.325" font-family="微软雅黑" font-weight="normal" font-style="normal" text-decoration="none" family="微软雅黑" text-anchor="middle" size="13">slice</text></g></g><g id="ProcessOnG1047" transform="matrix(1.0,0.0,0.0,1.0,499.0,309.0)" opacity="1.0"><path id="ProcessOnPath1048" d="M0.0 4.0Q0.0 0.0 4.0 0.0L124.0 0.0Q128.0 0.0 128.0 4.0L128.0 28.0Q128.0 32.0 124.0 32.0L4.0 32.0Q0.0 32.0 0.0 28.0Z" stroke="#323232" stroke-width="2.0" stroke-dasharray="none" opacity="1.0" fill="#ffffff"/><g id="ProcessOnG1049" transform="matrix(1.0,0.0,0.0,1.0,10.0,7.875)"><text id="ProcessOnText1050" fill="#000000" font-size="13" x="53.0" y="13.325" font-family="微软雅黑" font-weight="normal" font-style="italic" text-decoration="none" family="微软雅黑" text-anchor="middle" size="13">GroupResource</text></g></g><g id="ProcessOnG1051" transform="matrix(1.0,0.0,0.0,1.0,499.0,341.0)" opacity="1.0"><path id="ProcessOnPath1052" d="M0.0 4.0Q0.0 0.0 4.0 0.0L124.0 0.0Q128.0 0.0 128.0 4.0L128.0 28.0Q128.0 32.0 124.0 32.0L4.0 32.0Q0.0 32.0 0.0 28.0Z" stroke="#323232" stroke-width="2.0" stroke-dasharray="none" opacity="1.0" fill="#ffffff"/><g id="ProcessOnG1053" transform="matrix(1.0,0.0,0.0,1.0,10.0,7.875)"><text id="ProcessOnText1054" fill="#000000" font-size="13" x="53.0" y="13.325" font-family="微软雅黑" font-weight="normal" font-style="italic" text-decoration="none" family="微软雅黑" text-anchor="middle" size="13">GroupResource</text></g></g><g id="ProcessOnG1055" transform="matrix(1.0,0.0,0.0,1.0,566.0,167.0)" opacity="1.0"><path id="ProcessOnPath1056" d="M0.0 0.0L170.0 0.0L170.0 32.0L0.0 32.0Z" stroke="#323232" stroke-width="2.0" stroke-dasharray="none" opacity="1.0" fill="#ffffff"/><g id="ProcessOnG1057" transform="matrix(1.0,0.0,0.0,1.0,10.0,7.875)"><text id="ProcessOnText1058" fill="#000000" font-size="13" x="74.0" y="13.325" font-family="微软雅黑" font-weight="normal" font-style="normal" text-decoration="none" family="微软雅黑" text-anchor="middle" size="13">serializer</text></g></g><g id="ProcessOnG1059"><path id="ProcessOnPath1060" d="M802.0 60.0C802.0 196.8 802.0 265.2 802.0 402.0" stroke="#323232" stroke-width="2.0" stroke-dasharray="10.0 4.0" fill="none"/></g><g id="ProcessOnG1061" transform="matrix(1.0,0.0,0.0,1.0,932.0,167.0)" opacity="1.0"><path id="ProcessOnPath1062" d="M0.0 0.0L170.0 0.0L170.0 32.0L0.0 32.0Z" stroke="#323232" stroke-width="2.0" stroke-dasharray="10.0 4.0" opacity="1.0" fill="#ffffff"/><g id="ProcessOnG1063" transform="matrix(1.0,0.0,0.0,1.0,10.0,7.875)"><text id="ProcessOnText1064" fill="#000000" font-size="13" x="74.0" y="13.325" font-family="微软雅黑" font-weight="normal" font-style="normal" text-decoration="none" family="微软雅黑" text-anchor="middle" size="13">StorageSerializer</text></g></g><g id="ProcessOnG1065" transform="matrix(1.0,0.0,0.0,1.0,813.0,67.0)" opacity="1.0"><path id="ProcessOnPath1066" d="M0.0 0.0L305.0 0.0L305.0 26.0L0.0 26.0Z" stroke="none" stroke-width="0.0" stroke-dasharray="none" opacity="1.0" fill="none"/><g id="ProcessOnG1067" transform="matrix(1.0,0.0,0.0,1.0,0.0,0.5)"><text id="ProcessOnText1068" fill="#000000" font-size="20" x="0.0" y="20.5" font-family="微软雅黑" font-weight="bold" font-style="normal" text-decoration="none" family="微软雅黑" text-anchor="start" size="20">apimachinery/pkg/runtime</text></g></g><g id="ProcessOnG1069"><path id="ProcessOnPath1070" d="M736.0 183.0C814.4 183.0 853.6 183.0 932.0 183.0" stroke="#323232" stroke-width="2.0" stroke-dasharray="none" fill="none" marker-end="url(#ProcessOnMarker1071)"/></g><g id="ProcessOnG1073" transform="matrix(1.0,0.0,0.0,1.0,813.0,283.0)" opacity="1.0"><path id="ProcessOnPath1074" d="M0.0 0.0L305.0 0.0L305.0 26.0L0.0 26.0Z" stroke="none" stroke-width="0.0" stroke-dasharray="none" opacity="1.0" fill="none"/><g id="ProcessOnG1075" transform="matrix(1.0,0.0,0.0,1.0,0.0,0.5)"><text id="ProcessOnText1076" fill="#000000" font-size="20" x="0.0" y="20.5" font-family="微软雅黑" font-weight="bold" font-style="normal" text-decoration="none" family="微软雅黑" text-anchor="start" size="20">apimachinery/pkg/runtime</text></g></g><g id="ProcessOnG1077" transform="matrix(1.0,0.0,0.0,1.0,932.0,352.0)" opacity="1.0"><path id="ProcessOnPath1078" d="M0.0 0.0L170.0 0.0L170.0 32.0L0.0 32.0Z" stroke="#323232" stroke-width="2.0" stroke-dasharray="10.0 4.0" opacity="1.0" fill="#ffffff"/><g id="ProcessOnG1079" transform="matrix(1.0,0.0,0.0,1.0,10.0,7.875)"><text id="ProcessOnText1080" fill="#000000" font-size="13" x="74.0" y="13.325" font-family="微软雅黑" font-weight="normal" font-style="normal" text-decoration="none" family="微软雅黑" text-anchor="middle" size="13">Transformer</text></g></g><g id="ProcessOnG1081" transform="matrix(1.0,0.0,0.0,1.0,566.0,199.0)" opacity="1.0"><path id="ProcessOnPath1082" d="M0.0 0.0L170.0 0.0L170.0 32.0L0.0 32.0Z" stroke="#323232" stroke-width="2.0" stroke-dasharray="none" opacity="1.0" fill="#ffffff"/><g id="ProcessOnG1083" transform="matrix(1.0,0.0,0.0,1.0,10.0,7.875)"><text id="ProcessOnText1084" fill="#000000" font-size="13" x="74.0" y="13.325" font-family="微软雅黑" font-weight="normal" font-style="normal" text-decoration="none" family="微软雅黑" text-anchor="middle" size="13">transformer</text></g></g><g id="ProcessOnG1085"><path id="ProcessOnPath1086" d="M736.0 215.0C835.4585340732508 215.0 832.5414659267492 368.0 932.0 368.0" stroke="#323232" stroke-width="2.0" stroke-dasharray="none" fill="none" marker-end="url(#ProcessOnMarker1087)"/></g><g id="ProcessOnG1089" transform="matrix(1.0,0.0,0.0,1.0,65.0,67.0)" opacity="1.0"><path id="ProcessOnPath1090" d="M0.0 0.0L338.0 0.0L338.0 26.0L0.0 26.0Z" stroke="none" stroke-width="0.0" stroke-dasharray="none" opacity="1.0" fill="none"/><g id="ProcessOnG1091" transform="matrix(1.0,0.0,0.0,1.0,0.0,0.5)"><text id="ProcessOnText1092" fill="#000000" font-size="20" x="0.0" y="20.5" font-family="微软雅黑" font-weight="bold" font-style="normal" text-decoration="none" family="微软雅黑" text-anchor="start" size="20">apimachinery/pkg/server/storage</text></g></g></g></g></svg>