<svg xmlns="http://www.w3.org/2000/svg" xmlns:xlink="http://www.w3.org/1999/xlink" id="processonSvg1000" viewBox="0.29835762445442526 83.875 1166.5017583796794 790.125" width="1166.5017583796794" height="790.125"><defs id="ProcessOnDefs1001"><marker id="ProcessOnMarker1031" markerUnits="userSpaceOnUse" orient="auto" markerWidth="14.289086868996552" markerHeight="19.055054660878554" viewBox="-0.5877852522924731 -0.8090169943749475 14.289086868996552 19.055054660878554" refX="12.0" refY="8.71851033606433"><path id="ProcessOnPath1032" d="M0 0L12.0 8.71851033606433L0 17.43702067212866" stroke="#323232" stroke-width="2.0" fill="none" transform="matrix(1.0,0.0,0.0,1.0,0.0,0.0)"/></marker><marker id="ProcessOnMarker1051" markerUnits="userSpaceOnUse" orient="auto" markerWidth="14.289086868996552" markerHeight="19.055054660878554" viewBox="-0.5877852522924731 -0.8090169943749475 14.289086868996552 19.055054660878554" refX="12.0" refY="8.71851033606433"><path id="ProcessOnPath1052" d="M0 0L12.0 8.71851033606433L0 17.43702067212866" stroke="#323232" stroke-width="2.0" fill="none" transform="matrix(1.0,0.0,0.0,1.0,0.0,0.0)"/></marker><marker id="ProcessOnMarker1075" markerUnits="userSpaceOnUse" orient="auto" markerWidth="14.289086868996552" markerHeight="19.055054660878554" viewBox="-0.5877852522924731 -0.8090169943749475 14.289086868996552 19.055054660878554" refX="12.0" refY="8.71851033606433"><path id="ProcessOnPath1076" d="M0 0L12.0 8.71851033606433L0 17.43702067212866" stroke="#323232" stroke-width="2.0" fill="none" transform="matrix(1.0,0.0,0.0,1.0,0.0,0.0)"/></marker><marker id="ProcessOnMarker1079" markerUnits="userSpaceOnUse" orient="auto" markerWidth="14.289086868996552" markerHeight="19.055054660878554" viewBox="-0.5877852522924731 -0.8090169943749475 14.289086868996552 19.055054660878554" refX="12.0" refY="8.71851033606433"><path id="ProcessOnPath1080" d="M0 0L12.0 8.71851033606433L0 17.43702067212866" stroke="#000000" stroke-width="2.0" fill="none" transform="matrix(1.0,0.0,0.0,1.0,0.0,0.0)"/></marker><marker id="ProcessOnMarker1085" markerUnits="userSpaceOnUse" orient="auto" markerWidth="14.289086868996552" markerHeight="19.055054660878554" viewBox="-0.5877852522924731 -0.8090169943749475 14.289086868996552 19.055054660878554" refX="12.0" refY="8.71851033606433"><path id="ProcessOnPath1086" d="M0 0L12.0 8.71851033606433L0 17.43702067212866" stroke="#66ffff" stroke-width="2.0" fill="none" transform="matrix(1.0,0.0,0.0,1.0,0.0,0.0)"/></marker><marker id="ProcessOnMarker1091" markerUnits="userSpaceOnUse" orient="auto" markerWidth="14.289086868996552" markerHeight="19.055054660878554" viewBox="-0.5877852522924731 -0.8090169943749475 14.289086868996552 19.055054660878554" refX="12.0" refY="8.71851033606433"><path id="ProcessOnPath1092" d="M0 0L12.0 8.71851033606433L0 17.43702067212866" stroke="#ffb366" stroke-width="2.0" fill="none" transform="matrix(1.0,0.0,0.0,1.0,0.0,0.0)"/></marker><marker id="ProcessOnMarker1098" markerUnits="userSpaceOnUse" orient="auto" markerWidth="14.289086868996552" markerHeight="19.055054660878554" viewBox="-0.5877852522924731 -0.8090169943749475 14.289086868996552 19.055054660878554" refX="12.0" refY="8.71851033606433"><path id="ProcessOnPath1099" d="M0 0L12.0 8.71851033606433L0 17.43702067212866" stroke="#66ffff" stroke-width="2.0" fill="none" transform="matrix(1.0,0.0,0.0,1.0,0.0,0.0)"/></marker><marker id="ProcessOnMarker1102" markerUnits="userSpaceOnUse" orient="auto" markerWidth="14.289086868996552" markerHeight="19.055054660878554" viewBox="-0.5877852522924731 -0.8090169943749475 14.289086868996552 19.055054660878554" refX="12.0" refY="8.71851033606433"><path id="ProcessOnPath1103" d="M0 0L12.0 8.71851033606433L0 17.43702067212866" stroke="#66ffff" stroke-width="2.0" fill="none" transform="matrix(1.0,0.0,0.0,1.0,0.0,0.0)"/></marker><marker id="ProcessOnMarker1116" markerUnits="userSpaceOnUse" orient="auto" markerWidth="14.289086868996552" markerHeight="19.055054660878554" viewBox="-0.5877852522924731 -0.8090169943749475 14.289086868996552 19.055054660878554" refX="12.0" refY="8.71851033606433"><path id="ProcessOnPath1117" d="M0 0L12.0 8.71851033606433L0 17.43702067212866" stroke="#ffb366" stroke-width="2.0" fill="none" transform="matrix(1.0,0.0,0.0,1.0,0.0,0.0)"/></marker><marker id="ProcessOnMarker1131" markerUnits="userSpaceOnUse" orient="auto" markerWidth="14.289086868996552" markerHeight="19.055054660878554" viewBox="-0.5877852522924731 -0.8090169943749475 14.289086868996552 19.055054660878554" refX="12.0" refY="8.71851033606433"><path id="ProcessOnPath1132" d="M0 0L12.0 8.71851033606433L0 17.43702067212866" stroke="#323232" stroke-width="2.0" fill="none" transform="matrix(1.0,0.0,0.0,1.0,0.0,0.0)"/></marker><marker id="ProcessOnMarker1151" markerUnits="userSpaceOnUse" orient="auto" markerWidth="14.289086868996552" markerHeight="19.055054660878554" viewBox="-0.5877852522924731 -0.8090169943749475 14.289086868996552 19.055054660878554" refX="12.0" refY="8.71851033606433"><path id="ProcessOnPath1152" d="M0 0L12.0 8.71851033606433L0 17.43702067212866" stroke="#ffb366" stroke-width="2.0" fill="none" transform="matrix(1.0,0.0,0.0,1.0,0.0,0.0)"/></marker><marker id="ProcessOnMarker1158" markerUnits="userSpaceOnUse" orient="auto" markerWidth="14.289086868996552" markerHeight="19.055054660878554" viewBox="-0.5877852522924731 -0.8090169943749475 14.289086868996552 19.055054660878554" refX="12.0" refY="8.71851033606433"><path id="ProcessOnPath1159" d="M0 0L12.0 8.71851033606433L0 17.43702067212866" stroke="#ffb366" stroke-width="2.0" fill="none" transform="matrix(1.0,0.0,0.0,1.0,0.0,0.0)"/></marker><marker id="ProcessOnMarker1178" markerUnits="userSpaceOnUse" orient="auto" markerWidth="14.289086868996552" markerHeight="19.055054660878554" viewBox="-0.5877852522924731 -0.8090169943749475 14.289086868996552 19.055054660878554" refX="12.0" refY="8.71851033606433"><path id="ProcessOnPath1179" d="M0 0L12.0 8.71851033606433L0 17.43702067212866" stroke="#323232" stroke-width="2.0" fill="none" transform="matrix(1.0,0.0,0.0,1.0,0.0,0.0)"/></marker><marker id="ProcessOnMarker1182" markerUnits="userSpaceOnUse" orient="auto" markerWidth="14.289086868996552" markerHeight="19.055054660878554" viewBox="-0.5877852522924731 -0.8090169943749475 14.289086868996552 19.055054660878554" refX="12.0" refY="8.71851033606433"><path id="ProcessOnPath1183" d="M0 0L12.0 8.71851033606433L0 17.43702067212866" stroke="#ffb366" stroke-width="2.0" fill="none" transform="matrix(1.0,0.0,0.0,1.0,0.0,0.0)"/></marker></defs><g id="ProcessOnG1002"><path id="ProcessOnPath1003" d="M0.29835762445442526 83.875H1166.8001160041338V874.0H0.29835762445441105V83.875Z" fill="none"/><g id="ProcessOnG1004"><g id="ProcessOnG1005" transform="matrix(1.0,0.0,0.0,1.0,89.0,118.0)" opacity="1.0"><path id="ProcessOnPath1006" d="M0.0 0.0L260.0 0.0L260.0 32.0L0.0 32.0Z" stroke="none" stroke-width="0.0" stroke-dasharray="none" opacity="1.0" fill="none"/><g id="ProcessOnG1007" transform="matrix(1.0,0.0,0.0,1.0,0.0,6.0)"><text id="ProcessOnText1008" fill="#000000" font-size="16" x="0.0" y="16.4" font-family="微软雅黑" font-weight="bold" font-style="normal" text-decoration="none" family="微软雅黑" text-anchor="start" size="16">apimachinery/pkg/apimachinery</text></g></g><g id="ProcessOnG1009" transform="matrix(1.0,0.0,0.0,1.0,96.0,150.0)" opacity="1.0"><path id="ProcessOnPath1010" d="M0.0 0.0L170.0 0.0L170.0 20.0L0.0 20.0Z" stroke="none" stroke-width="0.0" stroke-dasharray="none" opacity="1.0" fill="none"/><g id="ProcessOnG1011" transform="matrix(1.0,0.0,0.0,1.0,0.0,1.875)"><text id="ProcessOnText1012" fill="#000000" font-size="13" x="0.0" y="13.325" font-family="微软雅黑" font-weight="normal" font-style="normal" text-decoration="none" family="微软雅黑" text-anchor="start" size="13">GroupMeta</text></g></g><g id="ProcessOnG1013" transform="matrix(1.0,0.0,0.0,1.0,96.0,170.0)" opacity="1.0"><path id="ProcessOnPath1014" d="M0.0 0.0L170.0 0.0L170.0 32.0L0.0 32.0Z" stroke="#323232" stroke-width="2.0" stroke-dasharray="none" opacity="1.0" fill="#ffffff"/><g id="ProcessOnG1015" transform="matrix(1.0,0.0,0.0,1.0,10.0,7.875)"><text id="ProcessOnText1016" fill="#000000" font-size="13" x="74.0" y="13.325" font-family="微软雅黑" font-weight="normal" font-style="normal" text-decoration="none" family="微软雅黑" text-anchor="middle" size="13">GroupVersions</text></g></g><g id="ProcessOnG1017" transform="matrix(1.0,0.0,0.0,1.0,89.0,372.0)" opacity="1.0"><path id="ProcessOnPath1018" d="M0.0 4.0Q0.0 0.0 4.0 0.0L116.0 0.0Q120.0 0.0 120.0 4.0L120.0 28.0Q120.0 32.0 116.0 32.0L4.0 32.0Q0.0 32.0 0.0 28.0Z" stroke="#323232" stroke-width="2.0" stroke-dasharray="none" opacity="1.0" fill="#ffffff"/><g id="ProcessOnG1019" transform="matrix(1.0,0.0,0.0,1.0,10.0,7.875)"><text id="ProcessOnText1020" fill="#000000" font-size="13" x="49.0" y="13.325" font-family="微软雅黑" font-weight="normal" font-style="italic" text-decoration="none" family="微软雅黑" text-anchor="middle" size="13">"v1"</text></g></g><g id="ProcessOnG1021" transform="matrix(1.0,0.0,0.0,1.0,89.0,404.0)" opacity="1.0"><path id="ProcessOnPath1022" d="M0.0 4.0Q0.0 0.0 4.0 0.0L116.0 0.0Q120.0 0.0 120.0 4.0L120.0 28.0Q120.0 32.0 116.0 32.0L4.0 32.0Q0.0 32.0 0.0 28.0Z" stroke="#323232" stroke-width="2.0" stroke-dasharray="none" opacity="1.0" fill="#ffffff"/><g id="ProcessOnG1023" transform="matrix(1.0,0.0,0.0,1.0,10.0,7.875)"><text id="ProcessOnText1024" fill="#000000" font-size="13" x="49.0" y="13.325" font-family="微软雅黑" font-weight="normal" font-style="italic" text-decoration="none" family="微软雅黑" text-anchor="middle" size="13">"alphav1"</text></g></g><g id="ProcessOnG1025" transform="matrix(1.0,0.0,0.0,1.0,89.0,302.0)" opacity="1.0"><path id="ProcessOnPath1026" d="M0.0 0.0L300.0 0.0L300.0 32.0L0.0 32.0Z" stroke="none" stroke-width="0.0" stroke-dasharray="none" opacity="1.0" fill="none"/><g id="ProcessOnG1027" transform="matrix(1.0,0.0,0.0,1.0,0.0,6.0)"><text id="ProcessOnText1028" fill="#000000" font-size="16" x="0.0" y="16.4" font-family="微软雅黑" font-weight="bold" font-style="normal" text-decoration="none" family="微软雅黑" text-anchor="start" size="16">apimachinery/pkg/runtime/scheme</text></g></g><g id="ProcessOnG1029"><path id="ProcessOnPath1030" d="M96.0 186.0C20.298357624454425 186.0 27.627148980615665 331.7264746130153 89.63830408857798 375.14715287270207" stroke="#323232" stroke-width="2.0" stroke-dasharray="none" fill="none" marker-end="url(#ProcessOnMarker1031)"/></g><g id="ProcessOnG1033" transform="matrix(1.0,0.0,0.0,1.0,499.0,118.0)" opacity="1.0"><path id="ProcessOnPath1034" d="M0.0 0.0L188.0 0.0L188.0 32.0L0.0 32.0Z" stroke="none" stroke-width="0.0" stroke-dasharray="none" opacity="1.0" fill="none"/><g id="ProcessOnG1035" transform="matrix(1.0,0.0,0.0,1.0,0.0,6.0)"><text id="ProcessOnText1036" fill="#000000" font-size="16" x="0.0" y="16.4" font-family="微软雅黑" font-weight="bold" font-style="normal" text-decoration="none" family="微软雅黑" text-anchor="start" size="16">apiserver/pkg/server</text></g></g><g id="ProcessOnG1037" transform="matrix(1.0,0.0,0.0,1.0,499.0,155.0)" opacity="1.0"><path id="ProcessOnPath1038" d="M0.0 0.0L170.0 0.0L170.0 20.0L0.0 20.0Z" stroke="none" stroke-width="0.0" stroke-dasharray="none" opacity="1.0" fill="none"/><g id="ProcessOnG1039" transform="matrix(1.0,0.0,0.0,1.0,0.0,1.875)"><text id="ProcessOnText1040" fill="#000000" font-size="13" x="0.0" y="13.325" font-family="微软雅黑" font-weight="normal" font-style="normal" text-decoration="none" family="微软雅黑" text-anchor="start" size="13">APIGroupInfo</text></g></g><g id="ProcessOnG1041" transform="matrix(1.0,0.0,0.0,1.0,499.0,175.0)" opacity="1.0"><path id="ProcessOnPath1042" d="M0.0 0.0L224.0 0.0L224.0 32.0L0.0 32.0Z" stroke="#323232" stroke-width="2.0" stroke-dasharray="none" opacity="1.0" fill="#ffffff"/><g id="ProcessOnG1043" transform="matrix(1.0,0.0,0.0,1.0,10.0,7.875)"><text id="ProcessOnText1044" fill="#000000" font-size="13" x="101.0" y="13.325" font-family="微软雅黑" font-weight="normal" font-style="normal" text-decoration="none" family="微软雅黑" text-anchor="middle" size="13">GroupMeta</text></g></g><g id="ProcessOnG1045" transform="matrix(1.0,0.0,0.0,1.0,499.0,207.0)" opacity="1.0"><path id="ProcessOnPath1046" d="M0.0 0.0L224.0 0.0L224.0 32.0L0.0 32.0Z" stroke="#323232" stroke-width="2.0" stroke-dasharray="none" opacity="1.0" fill="#ffffff"/><g id="ProcessOnG1047" transform="matrix(1.0,0.0,0.0,1.0,10.0,7.875)"><text id="ProcessOnText1048" fill="#000000" font-size="13" x="101.0" y="13.325" font-family="微软雅黑" font-weight="normal" font-style="normal" text-decoration="none" family="微软雅黑" text-anchor="middle" size="13">VersionedResourcesStorageMap</text></g></g><g id="ProcessOnG1049"><path id="ProcessOnPath1050" d="M499.0 191.0C405.3570266950529 191.0 342.4312248388909 117.58290282783648 265.72339182284406 171.2943057454042" stroke="#323232" stroke-width="2.0" stroke-dasharray="none" fill="none" marker-end="url(#ProcessOnMarker1051)"/></g><g id="ProcessOnG1053" transform="matrix(1.0,0.0,0.0,1.0,499.0,403.0)" opacity="1.0"><path id="ProcessOnPath1054" d="M0.0 0.0L260.0 0.0L260.0 32.0L0.0 32.0Z" stroke="none" stroke-width="0.0" stroke-dasharray="none" opacity="1.0" fill="none"/><g id="ProcessOnG1055" transform="matrix(1.0,0.0,0.0,1.0,0.0,6.0)"><text id="ProcessOnText1056" fill="#000000" font-size="16" x="0.0" y="16.4" font-family="微软雅黑" font-weight="bold" font-style="normal" text-decoration="none" family="微软雅黑" text-anchor="start" size="16">apiserver/pkg/endpoints</text></g></g><g id="ProcessOnG1057" transform="matrix(1.0,0.0,0.0,1.0,499.0,436.0)" opacity="1.0"><path id="ProcessOnPath1058" d="M0.0 0.0L160.0 0.0L160.0 20.0L0.0 20.0Z" stroke="none" stroke-width="0.0" stroke-dasharray="none" opacity="1.0" fill="none"/><g id="ProcessOnG1059" transform="matrix(1.0,0.0,0.0,1.0,0.0,1.875)"><text id="ProcessOnText1060" fill="#000000" font-size="13" x="0.0" y="13.325" font-family="微软雅黑" font-weight="normal" font-style="normal" text-decoration="none" family="微软雅黑" text-anchor="start" size="13">APIGroupVersion</text></g></g><g id="ProcessOnG1061" transform="matrix(1.0,0.0,0.0,1.0,499.0,456.0)" opacity="1.0"><path id="ProcessOnPath1062" d="M0.0 0.0L160.0 0.0L160.0 32.0L0.0 32.0Z" stroke="#323232" stroke-width="2.0" stroke-dasharray="none" opacity="1.0" fill="#ffffff"/><g id="ProcessOnG1063" transform="matrix(1.0,0.0,0.0,1.0,10.0,7.875)"><text id="ProcessOnText1064" fill="#000000" font-size="13" x="69.0" y="13.325" font-family="微软雅黑" font-weight="normal" font-style="normal" text-decoration="none" family="微软雅黑" text-anchor="middle" size="13">Storage</text></g></g><g id="ProcessOnG1065" transform="matrix(1.0,0.0,0.0,1.0,499.0,283.0)" opacity="1.0"><path id="ProcessOnPath1066" d="M0.0 4.0Q0.0 0.0 4.0 0.0L112.0 0.0Q116.0 0.0 116.0 4.0L116.0 28.0Q116.0 32.0 112.0 32.0L4.0 32.0Q0.0 32.0 0.0 28.0Z" stroke="#323232" stroke-width="2.0" stroke-dasharray="none" opacity="1.0" fill="#ffffff"/><g id="ProcessOnG1067" transform="matrix(1.0,0.0,0.0,1.0,10.0,7.875)"><text id="ProcessOnText1068" fill="#000000" font-size="13" x="47.0" y="13.325" font-family="微软雅黑" font-weight="bold" font-style="italic" text-decoration="none" family="微软雅黑" text-anchor="middle" size="13">"v1"</text></g></g><g id="ProcessOnG1069" transform="matrix(1.0,0.0,0.0,1.0,499.0,315.0)" opacity="1.0"><path id="ProcessOnPath1070" d="M0.0 4.0Q0.0 0.0 4.0 0.0L112.0 0.0Q116.0 0.0 116.0 4.0L116.0 28.0Q116.0 32.0 112.0 32.0L4.0 32.0Q0.0 32.0 0.0 28.0Z" stroke="#323232" stroke-width="2.0" stroke-dasharray="none" opacity="1.0" fill="#ffffff"/><g id="ProcessOnG1071" transform="matrix(1.0,0.0,0.0,1.0,10.0,7.875)"><text id="ProcessOnText1072" fill="#000000" font-size="13" x="47.0" y="13.325" font-family="微软雅黑" font-weight="bold" font-style="italic" text-decoration="none" family="微软雅黑" text-anchor="middle" size="13">"alphav1"</text></g></g><g id="ProcessOnG1073"><path id="ProcessOnPath1074" d="M499.0 223.0C474.37812420642337 223.0 483.1252385667618 267.1252385667618 500.53553390593277 284.53553390593277" stroke="#323232" stroke-width="2.0" stroke-dasharray="none" fill="none" marker-end="url(#ProcessOnMarker1075)"/></g><g id="ProcessOnG1077"><path id="ProcessOnPath1078" d="M615.0 299.0C658.3918182939714 299.0 685.351061797305 250.5754915210466 720.895558458228 275.46401602489476" stroke="#000000" stroke-width="2.0" stroke-dasharray="none" fill="none" marker-end="url(#ProcessOnMarker1079)"/></g><g id="ProcessOnG1081" transform="matrix(1.0,0.0,0.0,1.0,720.0,275.0)" opacity="1.0"><path id="ProcessOnPath1082" d="M0.0 4.0Q0.0 0.0 4.0 0.0L118.0 0.0Q122.0 0.0 122.0 4.0L122.0 28.0Q122.0 32.0 118.0 32.0L4.0 32.0Q0.0 32.0 0.0 28.0Z" stroke="#323232" stroke-width="2.0" stroke-dasharray="none" opacity="1.0" fill="#ffffff"/></g><g id="ProcessOnG1083"><path id="ProcessOnPath1084" d="M209.0 388.0C330.3398533046748 388.0 377.6601466953252 299.0 499.0 299.0" stroke="#66ffff" stroke-width="2.0" stroke-dasharray="10.0 4.0" fill="none" marker-end="url(#ProcessOnMarker1085)"/></g><g id="ProcessOnG1087"><path id="ProcessOnPath1088" d="M499.0 472.0C378.2317922630298 472.0 329.7682077369702 388.0 209.0 388.0" stroke="#66ffff" stroke-width="2.0" stroke-dasharray="10.0 4.0" fill="none"/></g><g id="ProcessOnG1089"><path id="ProcessOnPath1090" d="M499.0 191.0C392.65704227428336 191.0 418.1328348280922 388.5007900546092 499.5962666587139 456.8567256581192" stroke="#ffb366" stroke-width="2.0" stroke-dasharray="10.0 4.0" fill="none" marker-end="url(#ProcessOnMarker1091)"/><g id="ProcessOnG1093" transform="matrix(1.0,0.0,0.0,1.0,428.8707372457301,290.1698869777433)"><path id="ProcessOnPath1094" d="M0 0H38.0V16.25H0Z" fill="#fff" transform="matrix(1.0,0.0,0.0,1.0,-19.0,0.0)"/><text id="ProcessOnText1095" fill="#ffb366" font-size="13" x="0.0" y="13.325" font-family="微软雅黑" font-weight="normal" font-style="normal" text-decoration="none" family="微软雅黑" text-anchor="middle" size="13">create</text></g></g><g id="ProcessOnG1096"><path id="ProcessOnPath1097" d="M615.0 299.0C657.5885579511516 299.0 688.6734051704266 332.4470345363579 721.2981333293569 305.0716371709404" stroke="#66ffff" stroke-width="2.0" stroke-dasharray="10.0 4.0" fill="none" marker-end="url(#ProcessOnMarker1098)"/></g><g id="ProcessOnG1100"><path id="ProcessOnPath1101" d="M659.0 472.0C758.2425318119049 472.0 931.4127404511787 345.8286149763898 841.4684610648168 303.8869086912965" stroke="#66ffff" stroke-width="2.0" stroke-dasharray="none" fill="none" marker-end="url(#ProcessOnMarker1102)"/></g><g id="ProcessOnG1104" transform="matrix(1.0,0.0,0.0,1.0,499.0,656.0)" opacity="1.0"><path id="ProcessOnPath1105" d="M0.0 0.0L290.0 0.0L290.0 32.0L0.0 32.0Z" stroke="none" stroke-width="0.0" stroke-dasharray="none" opacity="1.0" fill="none"/><g id="ProcessOnG1106" transform="matrix(1.0,0.0,0.0,1.0,0.0,6.0)"><text id="ProcessOnText1107" fill="#000000" font-size="16" x="0.0" y="16.4" font-family="微软雅黑" font-weight="bold" font-style="normal" text-decoration="none" family="微软雅黑" text-anchor="start" size="16">apiserver/pkg/endpoints/discovery</text></g></g><g id="ProcessOnG1108" transform="matrix(1.0,0.0,0.0,1.0,499.0,714.0)" opacity="1.0"><path id="ProcessOnPath1109" d="M0.0 0.0L160.0 0.0L160.0 20.0L0.0 20.0Z" stroke="none" stroke-width="0.0" stroke-dasharray="none" opacity="1.0" fill="none"/><g id="ProcessOnG1110" transform="matrix(1.0,0.0,0.0,1.0,0.0,1.875)"><text id="ProcessOnText1111" fill="#000000" font-size="13" x="0.0" y="13.325" font-family="微软雅黑" font-weight="normal" font-style="normal" text-decoration="none" family="微软雅黑" text-anchor="start" size="13">APIVersionHandler</text></g></g><g id="ProcessOnG1112" transform="matrix(1.0,0.0,0.0,1.0,499.0,734.0)" opacity="1.0"><path id="ProcessOnPath1113" d="M0.0 0.0L160.0 0.0L160.0 32.0L0.0 32.0Z" stroke="#323232" stroke-width="2.0" stroke-dasharray="none" opacity="1.0" fill="#ffffff"/></g><g id="ProcessOnG1114"><path id="ProcessOnPath1115" d="M500.2855752193731 487.46791111376206C480.5574534475654 510.9789711104499 484.65424545019755 537.6165258619676 500.0 564.1961524227066" stroke="#ffb366" stroke-width="2.0" stroke-dasharray="10.0 4.0" fill="none" marker-end="url(#ProcessOnMarker1116)"/><g id="ProcessOnG1118" transform="matrix(1.0,0.0,0.0,1.0,486.9900839890828,516.5563193067151)"><path id="ProcessOnPath1119" d="M0 0H38.0V16.25H0Z" fill="#fff" transform="matrix(1.0,0.0,0.0,1.0,-19.0,0.0)"/><text id="ProcessOnText1120" fill="#ffb366" font-size="13" x="0.0" y="13.325" font-family="微软雅黑" font-weight="normal" font-style="normal" text-decoration="none" family="微软雅黑" text-anchor="middle" size="13">create</text></g></g><g id="ProcessOnG1121" transform="matrix(1.0,0.0,0.0,1.0,499.0,766.0)" opacity="1.0"><path id="ProcessOnPath1122" d="M0.0 0.0L160.0 0.0L160.0 32.0L0.0 32.0Z" stroke="#323232" stroke-width="2.0" stroke-dasharray="10.0 4.0" opacity="1.0" fill="#ffffff"/><g id="ProcessOnG1123" transform="matrix(1.0,0.0,0.0,1.0,10.0,7.875)"><text id="ProcessOnText1124" fill="#000000" font-size="13" x="69.0" y="13.325" font-family="微软雅黑" font-weight="normal" font-style="normal" text-decoration="none" family="微软雅黑" text-anchor="middle" size="13">handle</text></g></g><g id="ProcessOnG1125" transform="matrix(1.0,0.0,0.0,1.0,499.0,798.0)" opacity="1.0"><path id="ProcessOnPath1126" d="M0.0 0.0L160.0 0.0L160.0 32.0L0.0 32.0Z" stroke="#323232" stroke-width="2.0" stroke-dasharray="10.0 4.0" opacity="1.0" fill="#ffffff"/><g id="ProcessOnG1127" transform="matrix(1.0,0.0,0.0,1.0,10.0,7.875)"><text id="ProcessOnText1128" fill="#000000" font-size="13" x="69.0" y="13.325" font-family="微软雅黑" font-weight="normal" font-style="normal" text-decoration="none" family="微软雅黑" text-anchor="middle" size="13">ServeHTTP</text></g></g><g id="ProcessOnG1129"><path id="ProcessOnPath1130" d="M499.0 782.0C436.0 811.0 465.0 828.0 499.0 814.0" stroke="#323232" stroke-width="2.0" stroke-dasharray="10.0 4.0" fill="none" marker-end="url(#ProcessOnMarker1131)"/></g><g id="ProcessOnG1133" transform="matrix(1.0,0.0,0.0,1.0,499.0,544.0)" opacity="1.0"><path id="ProcessOnPath1134" d="M0.0 0.0L160.0 0.0L160.0 20.0L0.0 20.0Z" stroke="none" stroke-width="0.0" stroke-dasharray="none" opacity="1.0" fill="none"/><g id="ProcessOnG1135" transform="matrix(1.0,0.0,0.0,1.0,0.0,1.875)"><text id="ProcessOnText1136" fill="#000000" font-size="13" x="0.0" y="13.325" font-family="微软雅黑" font-weight="normal" font-style="normal" text-decoration="none" family="微软雅黑" text-anchor="start" size="13">APIInstaller</text></g></g><g id="ProcessOnG1137" transform="matrix(1.0,0.0,0.0,1.0,499.0,564.0)" opacity="1.0"><path id="ProcessOnPath1138" d="M0.0 0.0L160.0 0.0L160.0 32.0L0.0 32.0Z" stroke="#323232" stroke-width="2.0" stroke-dasharray="none" opacity="1.0" fill="#ffffff"/></g><g id="ProcessOnG1139" transform="matrix(1.0,0.0,0.0,1.0,89.0,527.0)" opacity="1.0"><path id="ProcessOnPath1140" d="M0.0 0.0L300.0 0.0L300.0 32.0L0.0 32.0Z" stroke="none" stroke-width="0.0" stroke-dasharray="none" opacity="1.0" fill="none"/><g id="ProcessOnG1141" transform="matrix(1.0,0.0,0.0,1.0,0.0,6.0)"><text id="ProcessOnText1142" fill="#000000" font-size="16" x="0.0" y="16.4" font-family="微软雅黑" font-weight="bold" font-style="normal" text-decoration="none" family="微软雅黑" text-anchor="start" size="16">apimachinery/pkg/apis/meta/v1</text></g></g><g id="ProcessOnG1143" transform="matrix(1.0,0.0,0.0,1.0,96.0,569.0)" opacity="1.0"><path id="ProcessOnPath1144" d="M0.0 0.0L160.0 0.0L160.0 20.0L0.0 20.0Z" stroke="none" stroke-width="0.0" stroke-dasharray="none" opacity="1.0" fill="none"/><g id="ProcessOnG1145" transform="matrix(1.0,0.0,0.0,1.0,0.0,1.875)"><text id="ProcessOnText1146" fill="#000000" font-size="13" x="0.0" y="13.325" font-family="微软雅黑" font-weight="normal" font-style="normal" text-decoration="none" family="微软雅黑" text-anchor="start" size="13">APIResource</text></g></g><g id="ProcessOnG1147" transform="matrix(1.0,0.0,0.0,1.0,96.0,589.0)" opacity="1.0"><path id="ProcessOnPath1148" d="M0.0 0.0L160.0 0.0L160.0 32.0L0.0 32.0Z" stroke="#323232" stroke-width="2.0" stroke-dasharray="none" opacity="1.0" fill="#ffffff"/></g><g id="ProcessOnG1149"><path id="ProcessOnPath1150" d="M499.4378467222199 594.4642904295558C410.98013326176925 635.7127996390444 330.2356013141871 527.5480339482193 255.46791111376206 590.2855752193731" stroke="#ffb366" stroke-width="2.0" stroke-dasharray="10.0 4.0" fill="none" marker-end="url(#ProcessOnMarker1151)"/><g id="ProcessOnG1153" transform="matrix(1.0,0.0,0.0,1.0,372.3191201954814,576.19154580134)"><path id="ProcessOnPath1154" d="M0 0H38.0V16.25H0Z" fill="#fff" transform="matrix(1.0,0.0,0.0,1.0,-19.0,0.0)"/><text id="ProcessOnText1155" fill="#ffb366" font-size="13" x="0.0" y="13.325" font-family="微软雅黑" font-weight="normal" font-style="normal" text-decoration="none" family="微软雅黑" text-anchor="middle" size="13">create</text></g></g><g id="ProcessOnG1156"><path id="ProcessOnPath1157" d="M255.5857864376269 620.5857864376269C331.9303151649031 696.930315164903 401.67978199535037 690.484067683738 499.5315389351833 736.1130913087035" stroke="#ffb366" stroke-width="2.0" stroke-dasharray="10.0 4.0" fill="none" marker-end="url(#ProcessOnMarker1158)"/></g><g id="ProcessOnG1160" transform="matrix(1.0,0.0,0.0,1.0,889.0,150.0)" opacity="1.0"><path id="ProcessOnPath1161" d="M0.0 0.0L170.0 0.0L170.0 20.0L0.0 20.0Z" stroke="none" stroke-width="0.0" stroke-dasharray="none" opacity="1.0" fill="none"/><g id="ProcessOnG1162" transform="matrix(1.0,0.0,0.0,1.0,0.0,1.875)"><text id="ProcessOnText1163" fill="#000000" font-size="13" x="0.0" y="13.325" font-family="微软雅黑" font-weight="normal" font-style="normal" text-decoration="none" family="微软雅黑" text-anchor="start" size="13">GenericAPIServer</text></g></g><g id="ProcessOnG1164" transform="matrix(1.0,0.0,0.0,1.0,889.0,170.0)" opacity="1.0"><path id="ProcessOnPath1165" d="M0.0 0.0L224.0 0.0L224.0 32.0L0.0 32.0Z" stroke="#323232" stroke-width="2.0" stroke-dasharray="none" opacity="1.0" fill="#ffffff"/><g id="ProcessOnG1166" transform="matrix(1.0,0.0,0.0,1.0,10.0,7.875)"><text id="ProcessOnText1167" fill="#000000" font-size="13" x="101.0" y="13.325" font-family="微软雅黑" font-weight="normal" font-style="normal" text-decoration="none" family="微软雅黑" text-anchor="middle" size="13">Handler</text></g></g><g id="ProcessOnG1168" transform="matrix(1.0,0.0,0.0,1.0,889.0,250.0)" opacity="1.0"><path id="ProcessOnPath1169" d="M0.0 0.0L170.0 0.0L170.0 20.0L0.0 20.0Z" stroke="none" stroke-width="0.0" stroke-dasharray="none" opacity="1.0" fill="none"/><g id="ProcessOnG1170" transform="matrix(1.0,0.0,0.0,1.0,0.0,1.875)"><text id="ProcessOnText1171" fill="#000000" font-size="13" x="0.0" y="13.325" font-family="微软雅黑" font-weight="normal" font-style="normal" text-decoration="none" family="微软雅黑" text-anchor="start" size="13">GenericAPIServer</text></g></g><g id="ProcessOnG1172" transform="matrix(1.0,0.0,0.0,1.0,889.0,270.0)" opacity="1.0"><path id="ProcessOnPath1173" d="M0.0 0.0L224.0 0.0L224.0 32.0L0.0 32.0Z" stroke="#323232" stroke-width="2.0" stroke-dasharray="none" opacity="1.0" fill="#ffffff"/><g id="ProcessOnG1174" transform="matrix(1.0,0.0,0.0,1.0,10.0,7.875)"><text id="ProcessOnText1175" fill="#000000" font-size="13" x="101.0" y="13.325" font-family="微软雅黑" font-weight="normal" font-style="normal" text-decoration="none" family="微软雅黑" text-anchor="middle" size="13">GoRestfulContainer</text></g></g><g id="ProcessOnG1176"><path id="ProcessOnPath1177" d="M1113.0 186.0C1146.8001160041338 186.0 1138.5300799399106 248.77321749438093 1112.6376888981672 270.49951326780575" stroke="#323232" stroke-width="2.0" stroke-dasharray="none" fill="none" marker-end="url(#ProcessOnMarker1178)"/></g><g id="ProcessOnG1180"><path id="ProcessOnPath1181" d="M659.0 750.0C860.7341736355679 750.0 804.7017820366249 484.48909796806237 889.9583278321849 301.65584549074345" stroke="#ffb366" stroke-width="2.0" stroke-dasharray="10.0 4.0" fill="none" marker-end="url(#ProcessOnMarker1182)"/><g id="ProcessOnG1184" transform="matrix(1.0,0.0,0.0,1.0,818.1582743560954,586.2653924243663)"><path id="ProcessOnPath1185" d="M0 0H70.0V16.25H0Z" fill="#fff" transform="matrix(1.0,0.0,0.0,1.0,-35.0,0.0)"/><text id="ProcessOnText1186" fill="#ffb366" font-size="13" x="0.0" y="13.325" font-family="微软雅黑" font-weight="normal" font-style="normal" text-decoration="none" family="微软雅黑" text-anchor="middle" size="13">installed on</text></g></g><g id="ProcessOnG1187"><path id="ProcessOnPath1188" d="M400.0 103.875L400.0 478.9375L400.0 478.9375L400.0 854.0" stroke="#323232" stroke-width="2.0" stroke-dasharray="10.0 4.0" fill="none"/></g><g id="ProcessOnG1189"><path id="ProcessOnPath1190" d="M48.0 250.0L217.0 250.0L217.0 250.0L386.0 250.0" stroke="#323232" stroke-width="2.0" stroke-dasharray="10.0 4.0" fill="none"/></g><g id="ProcessOnG1191"><path id="ProcessOnPath1192" d="M49.0 497.0L218.0 497.0L218.0 497.0L387.0 497.0" stroke="#323232" stroke-width="2.0" stroke-dasharray="10.0 4.0" fill="none"/></g><g id="ProcessOnG1193"><path id="ProcessOnPath1194" d="M405.0 377.0L771.5 377.0L771.5 377.0L1138.0 377.0" stroke="#323232" stroke-width="2.0" stroke-dasharray="10.0 4.0" fill="none"/></g><g id="ProcessOnG1195"><path id="ProcessOnPath1196" d="M404.0 647.0L770.5 647.0L770.5 647.0L1137.0 647.0" stroke="#323232" stroke-width="2.0" stroke-dasharray="10.0 4.0" fill="none"/></g></g></g></svg>