<svg xmlns="http://www.w3.org/2000/svg" xmlns:xlink="http://www.w3.org/1999/xlink" id="processonSvg1000" viewBox="37.0 20.875 1219.0 931.125" width="1219.0" height="931.125"><defs id="ProcessOnDefs1001"><marker id="ProcessOnMarker1043" markerUnits="userSpaceOnUse" orient="auto" markerWidth="14.289086868996552" markerHeight="19.055054660878554" viewBox="-0.5877852522924731 -0.8090169943749475 14.289086868996552 19.055054660878554" refX="12.0" refY="8.71851033606433"><path id="ProcessOnPath1044" d="M0 0L12.0 8.71851033606433L0 17.43702067212866" stroke="#323232" stroke-width="2.0" fill="none" transform="matrix(1.0,0.0,0.0,1.0,0.0,0.0)"/></marker><marker id="ProcessOnMarker1061" markerUnits="userSpaceOnUse" orient="auto" markerWidth="14.289086868996552" markerHeight="19.055054660878554" viewBox="-0.5877852522924731 -0.8090169943749475 14.289086868996552 19.055054660878554" refX="12.0" refY="8.71851033606433"><path id="ProcessOnPath1062" d="M0 0L12.0 8.71851033606433L0 17.43702067212866" stroke="#323232" stroke-width="2.0" fill="none" transform="matrix(1.0,0.0,0.0,1.0,0.0,0.0)"/></marker><marker id="ProcessOnMarker1065" markerUnits="userSpaceOnUse" orient="auto" markerWidth="14.289086868996552" markerHeight="19.055054660878554" viewBox="-0.5877852522924731 -0.8090169943749475 14.289086868996552 19.055054660878554" refX="12.0" refY="8.71851033606433"><path id="ProcessOnPath1066" d="M0 0L12.0 8.71851033606433L0 17.43702067212866" stroke="#ff6666" stroke-width="2.0" fill="none" transform="matrix(1.0,0.0,0.0,1.0,0.0,0.0)"/></marker><marker id="ProcessOnMarker1069" markerUnits="userSpaceOnUse" orient="auto" markerWidth="14.289086868996552" markerHeight="19.055054660878554" viewBox="-0.5877852522924731 -0.8090169943749475 14.289086868996552 19.055054660878554" refX="12.0" refY="8.71851033606433"><path id="ProcessOnPath1070" d="M0 0L12.0 8.71851033606433L0 17.43702067212866" stroke="#ff6666" stroke-width="2.0" fill="none" transform="matrix(1.0,0.0,0.0,1.0,0.0,0.0)"/></marker><marker id="ProcessOnMarker1108" markerUnits="userSpaceOnUse" orient="auto" markerWidth="14.289086868996552" markerHeight="19.055054660878554" viewBox="-0.5877852522924731 -0.8090169943749475 14.289086868996552 19.055054660878554" refX="12.0" refY="8.71851033606433"><path id="ProcessOnPath1109" d="M0 0L12.0 8.71851033606433L0 17.43702067212866" stroke="#323232" stroke-width="2.0" fill="none" transform="matrix(1.0,0.0,0.0,1.0,0.0,0.0)"/></marker><marker id="ProcessOnMarker1112" markerUnits="userSpaceOnUse" orient="auto" markerWidth="14.289086868996552" markerHeight="19.055054660878554" viewBox="-0.5877852522924731 -0.8090169943749475 14.289086868996552 19.055054660878554" refX="12.0" refY="8.71851033606433"><path id="ProcessOnPath1113" d="M0 0L12.0 8.71851033606433L0 17.43702067212866" stroke="#323232" stroke-width="2.0" fill="none" transform="matrix(1.0,0.0,0.0,1.0,0.0,0.0)"/></marker><marker id="ProcessOnMarker1116" markerUnits="userSpaceOnUse" orient="auto" markerWidth="14.289086868996552" markerHeight="19.055054660878554" viewBox="-0.5877852522924731 -0.8090169943749475 14.289086868996552 19.055054660878554" refX="12.0" refY="8.71851033606433"><path id="ProcessOnPath1117" d="M0 0L12.0 8.71851033606433L0 17.43702067212866" stroke="#323232" stroke-width="2.0" fill="none" transform="matrix(1.0,0.0,0.0,1.0,0.0,0.0)"/></marker><marker id="ProcessOnMarker1136" markerUnits="userSpaceOnUse" orient="auto" markerWidth="14.289086868996552" markerHeight="19.055054660878554" viewBox="-0.5877852522924731 -0.8090169943749475 14.289086868996552 19.055054660878554" refX="12.0" refY="8.71851033606433"><path id="ProcessOnPath1137" d="M0 0L12.0 8.71851033606433L0 17.43702067212866" stroke="#ff6666" stroke-width="2.0" fill="none" transform="matrix(1.0,0.0,0.0,1.0,0.0,0.0)"/></marker><marker id="ProcessOnMarker1150" markerUnits="userSpaceOnUse" orient="auto" markerWidth="14.289086868996552" markerHeight="19.055054660878554" viewBox="-0.5877852522924731 -0.8090169943749475 14.289086868996552 19.055054660878554" refX="12.0" refY="8.71851033606433"><path id="ProcessOnPath1151" d="M0 0L12.0 8.71851033606433L0 17.43702067212866" stroke="#323232" stroke-width="2.0" fill="none" transform="matrix(1.0,0.0,0.0,1.0,0.0,0.0)"/></marker><marker id="ProcessOnMarker1184" markerUnits="userSpaceOnUse" orient="auto" markerWidth="14.289086868996552" markerHeight="19.055054660878554" viewBox="-0.5877852522924731 -0.8090169943749475 14.289086868996552 19.055054660878554" refX="12.0" refY="8.71851033606433"><path id="ProcessOnPath1185" d="M0 0L12.0 8.71851033606433L0 17.43702067212866" stroke="#323232" stroke-width="2.0" fill="none" transform="matrix(1.0,0.0,0.0,1.0,0.0,0.0)"/></marker><marker id="ProcessOnMarker1188" markerUnits="userSpaceOnUse" orient="auto" markerWidth="14.289086868996552" markerHeight="19.055054660878554" viewBox="-0.5877852522924731 -0.8090169943749475 14.289086868996552 19.055054660878554" refX="12.0" refY="8.71851033606433"><path id="ProcessOnPath1189" d="M0 0L12.0 8.71851033606433L0 17.43702067212866" stroke="#323232" stroke-width="2.0" fill="none" transform="matrix(1.0,0.0,0.0,1.0,0.0,0.0)"/></marker><marker id="ProcessOnMarker1192" markerUnits="userSpaceOnUse" orient="auto" markerWidth="14.289086868996552" markerHeight="19.055054660878554" viewBox="-0.5877852522924731 -0.8090169943749475 14.289086868996552 19.055054660878554" refX="12.0" refY="8.71851033606433"><path id="ProcessOnPath1193" d="M0 0L12.0 8.71851033606433L0 17.43702067212866" stroke="#323232" stroke-width="2.0" fill="none" transform="matrix(1.0,0.0,0.0,1.0,0.0,0.0)"/></marker><marker id="ProcessOnMarker1216" markerUnits="userSpaceOnUse" orient="auto" markerWidth="14.289086868996552" markerHeight="19.055054660878554" viewBox="-0.5877852522924731 -0.8090169943749475 14.289086868996552 19.055054660878554" refX="12.0" refY="8.71851033606433"><path id="ProcessOnPath1217" d="M0 0L12.0 8.71851033606433L0 17.43702067212866" stroke="#ff6666" stroke-width="2.0" fill="none" transform="matrix(1.0,0.0,0.0,1.0,0.0,0.0)"/></marker><marker id="ProcessOnMarker1236" markerUnits="userSpaceOnUse" orient="auto" markerWidth="14.289086868996552" markerHeight="19.055054660878554" viewBox="-0.5877852522924731 -0.8090169943749475 14.289086868996552 19.055054660878554" refX="12.0" refY="8.71851033606433"><path id="ProcessOnPath1237" d="M0 0L12.0 8.71851033606433L0 17.43702067212866" stroke="#323232" stroke-width="2.0" fill="none" transform="matrix(1.0,0.0,0.0,1.0,0.0,0.0)"/></marker><marker id="ProcessOnMarker1240" markerUnits="userSpaceOnUse" orient="auto" markerWidth="14.289086868996552" markerHeight="19.055054660878554" viewBox="-0.5877852522924731 -0.8090169943749475 14.289086868996552 19.055054660878554" refX="12.0" refY="8.71851033606433"><path id="ProcessOnPath1241" d="M0 0L12.0 8.71851033606433L0 17.43702067212866" stroke="#323232" stroke-width="2.0" fill="none" transform="matrix(1.0,0.0,0.0,1.0,0.0,0.0)"/></marker></defs><g id="ProcessOnG1002"><path id="ProcessOnPath1003" d="M37.0 20.875H1256.0V952.0H37.0V20.875Z" fill="none"/><g id="ProcessOnG1004"><g id="ProcessOnG1005"><path id="ProcessOnPath1006" d="M327.0 322.0L587.5 322.0L587.5 322.0L848.0 322.0" stroke="#323232" stroke-width="2.0" stroke-dasharray="10.0 4.0" fill="none"/></g><g id="ProcessOnG1007" transform="matrix(1.0,0.0,0.0,1.0,336.0,104.0)" opacity="1.0"><path id="ProcessOnPath1008" d="M0.0 0.0L259.0 0.0L259.0 32.0L0.0 32.0Z" stroke="none" stroke-width="0.0" stroke-dasharray="none" opacity="1.0" fill="none"/><g id="ProcessOnG1009" transform="matrix(1.0,0.0,0.0,1.0,0.0,6.0)"><text id="ProcessOnText1010" fill="#66b2ff" font-size="16" x="0.0" y="16.4" font-family="微软雅黑" font-weight="bold" font-style="normal" text-decoration="none" family="微软雅黑" text-anchor="start" size="16">kubernetes/pkg/registry/</text></g></g><g id="ProcessOnG1011" transform="matrix(1.0,0.0,0.0,1.0,365.0,252.0)" opacity="1.0"><path id="ProcessOnPath1012" d="M0.0 0.0L170.0 0.0L170.0 20.0L0.0 20.0Z" stroke="none" stroke-width="0.0" stroke-dasharray="none" opacity="1.0" fill="none"/><g id="ProcessOnG1013" transform="matrix(1.0,0.0,0.0,1.0,0.0,1.875)"><text id="ProcessOnText1014" fill="#000000" font-size="13" x="0.0" y="13.325" font-family="微软雅黑" font-weight="normal" font-style="normal" text-decoration="none" family="微软雅黑" text-anchor="start" size="13">RESTStorageProvider</text></g></g><g id="ProcessOnG1015" transform="matrix(1.0,0.0,0.0,1.0,365.0,272.0)" opacity="1.0"><path id="ProcessOnPath1016" d="M0.0 0.0L170.0 0.0L170.0 32.0L0.0 32.0Z" stroke="#323232" stroke-width="2.0" stroke-dasharray="none" opacity="1.0" fill="#ffffff"/><g id="ProcessOnG1017" transform="matrix(1.0,0.0,0.0,1.0,10.0,7.875)"><text id="ProcessOnText1018" fill="#000000" font-size="13" x="74.0" y="13.325" font-family="微软雅黑" font-weight="normal" font-style="normal" text-decoration="none" family="微软雅黑" text-anchor="middle" size="13">Authenticator</text></g></g><g id="ProcessOnG1019" transform="matrix(1.0,0.0,0.0,1.0,336.0,173.0)" opacity="1.0"><path id="ProcessOnPath1020" d="M0.0 0.0L228.0 0.0L228.0 32.0L0.0 32.0Z" stroke="none" stroke-width="0.0" stroke-dasharray="none" opacity="1.0" fill="none"/><g id="ProcessOnG1021" transform="matrix(1.0,0.0,0.0,1.0,0.0,6.0)"><text id="ProcessOnText1022" fill="#000000" font-size="16" x="0.0" y="16.4" font-family="微软雅黑" font-weight="bold" font-style="normal" text-decoration="none" family="微软雅黑" text-anchor="start" size="16">authentication/rest</text></g></g><g id="ProcessOnG1023"><path id="ProcessOnPath1024" d="M327.0 167.0L723.0 167.0L723.0 167.0L1119.0 167.0" stroke="#323232" stroke-width="2.0" stroke-dasharray="10.0 4.0" fill="none"/></g><g id="ProcessOnG1025" transform="matrix(1.0,0.0,0.0,1.0,65.0,104.0)" opacity="1.0"><path id="ProcessOnPath1026" d="M0.0 0.0L259.0 0.0L259.0 32.0L0.0 32.0Z" stroke="none" stroke-width="0.0" stroke-dasharray="none" opacity="1.0" fill="none"/><g id="ProcessOnG1027" transform="matrix(1.0,0.0,0.0,1.0,0.0,6.0)"><text id="ProcessOnText1028" fill="#66b2ff" font-size="16" x="0.0" y="16.4" font-family="微软雅黑" font-weight="bold" font-style="normal" text-decoration="none" family="微软雅黑" text-anchor="start" size="16">apiserver/pkg</text></g></g><g id="ProcessOnG1029"><path id="ProcessOnPath1030" d="M57.0 167.0L183.0 167.0L183.0 167.0L309.0 167.0" stroke="#323232" stroke-width="2.0" stroke-dasharray="10.0 4.0" fill="none"/></g><g id="ProcessOnG1031"><path id="ProcessOnPath1032" d="M318.0 103.0L318.0 517.5L318.0 517.5L318.0 932.0" stroke="#323232" stroke-width="2.0" stroke-dasharray="none" fill="none"/></g><g id="ProcessOnG1033" transform="matrix(1.0,0.0,0.0,1.0,65.0,173.0)" opacity="1.0"><path id="ProcessOnPath1034" d="M0.0 0.0L252.0 0.0L252.0 32.0L0.0 32.0Z" stroke="none" stroke-width="0.0" stroke-dasharray="none" opacity="1.0" fill="none"/><g id="ProcessOnG1035" transform="matrix(1.0,0.0,0.0,1.0,0.0,6.0)"><text id="ProcessOnText1036" fill="#000000" font-size="16" x="0.0" y="16.4" font-family="微软雅黑" font-weight="bold" font-style="normal" text-decoration="none" family="微软雅黑" text-anchor="start" size="16">authentication/authenticator</text></g></g><g id="ProcessOnG1037" transform="matrix(1.0,0.0,0.0,1.0,112.0,242.0)" opacity="1.0"><path id="ProcessOnPath1038" d="M0.0 0.0L170.0 0.0L170.0 32.0L0.0 32.0Z" stroke="#323232" stroke-width="2.0" stroke-dasharray="10.0 4.0" opacity="1.0" fill="#ffffff"/><g id="ProcessOnG1039" transform="matrix(1.0,0.0,0.0,1.0,10.0,7.875)"><text id="ProcessOnText1040" fill="#000000" font-size="13" x="74.0" y="13.325" font-family="微软雅黑" font-weight="normal" font-style="normal" text-decoration="none" family="微软雅黑" text-anchor="middle" size="13">Request</text></g></g><g id="ProcessOnG1041"><path id="ProcessOnPath1042" d="M365.0 288.0C329.69787541804317 288.0 317.30212458195683 258.0 282.0 258.0" stroke="#323232" stroke-width="2.0" stroke-dasharray="none" fill="none" marker-end="url(#ProcessOnMarker1043)"/></g><g id="ProcessOnG1045"><path id="ProcessOnPath1046" d="M855.0 184.0L855.0 543.5L855.0 543.5L855.0 903.0" stroke="#323232" stroke-width="2.0" stroke-dasharray="10.0 4.0" fill="none"/></g><g id="ProcessOnG1047" transform="matrix(1.0,0.0,0.0,1.0,880.0,173.0)" opacity="1.0"><path id="ProcessOnPath1048" d="M0.0 0.0L228.0 0.0L228.0 32.0L0.0 32.0Z" stroke="none" stroke-width="0.0" stroke-dasharray="none" opacity="1.0" fill="none"/><g id="ProcessOnG1049" transform="matrix(1.0,0.0,0.0,1.0,0.0,6.0)"><text id="ProcessOnText1050" fill="#000000" font-size="16" x="0.0" y="16.4" font-family="微软雅黑" font-weight="bold" font-style="normal" text-decoration="none" family="微软雅黑" text-anchor="start" size="16">authentication/tokenreview</text></g></g><g id="ProcessOnG1051" transform="matrix(1.0,0.0,0.0,1.0,909.0,205.0)" opacity="1.0"><path id="ProcessOnPath1052" d="M0.0 0.0L170.0 0.0L170.0 20.0L0.0 20.0Z" stroke="none" stroke-width="0.0" stroke-dasharray="none" opacity="1.0" fill="none"/><g id="ProcessOnG1053" transform="matrix(1.0,0.0,0.0,1.0,0.0,1.875)"><text id="ProcessOnText1054" fill="#000000" font-size="13" x="0.0" y="13.325" font-family="微软雅黑" font-weight="normal" font-style="normal" text-decoration="none" family="微软雅黑" text-anchor="start" size="13">REST</text></g></g><g id="ProcessOnG1055" transform="matrix(1.0,0.0,0.0,1.0,909.0,225.0)" opacity="1.0"><path id="ProcessOnPath1056" d="M0.0 0.0L150.0 0.0L150.0 32.0L0.0 32.0Z" stroke="#323232" stroke-width="2.0" stroke-dasharray="none" opacity="1.0" fill="#ffffff"/><g id="ProcessOnG1057" transform="matrix(1.0,0.0,0.0,1.0,10.0,7.875)"><text id="ProcessOnText1058" fill="#000000" font-size="13" x="64.0" y="13.325" font-family="微软雅黑" font-weight="normal" font-style="normal" text-decoration="none" family="微软雅黑" text-anchor="middle" size="13">tokenAuthenticator</text></g></g><g id="ProcessOnG1059"><path id="ProcessOnPath1060" d="M909.0 241.0C758.2233439819015 241.0 685.7766560180985 288.0 535.0 288.0" stroke="#323232" stroke-width="2.0" stroke-dasharray="none" fill="none" marker-end="url(#ProcessOnMarker1061)"/></g><g id="ProcessOnG1063"><path id="ProcessOnPath1064" d="M534.0 272.19615242270663C554.3899521147392 236.87971939608178 573.2200957705215 209.0 614.0 209.0" stroke="#ff6666" stroke-width="2.0" stroke-dasharray="10.0 4.0" fill="none" marker-end="url(#ProcessOnMarker1065)"/></g><g id="ProcessOnG1067"><path id="ProcessOnPath1068" d="M389.0 49.0C472.6 49.0 514.4 49.0 598.0 49.0" stroke="#ff6666" stroke-width="2.0" stroke-dasharray="10.0 4.0" fill="none" marker-end="url(#ProcessOnMarker1069)"/><g id="ProcessOnG1071" transform="matrix(1.0,0.0,0.0,1.0,493.5,40.875)"><path id="ProcessOnPath1072" d="M0 0H106.0V16.25H0Z" fill="#fff" transform="matrix(1.0,0.0,0.0,1.0,-53.0,0.0)"/><text id="ProcessOnText1073" fill="#ff6666" font-size="13" x="0.0" y="13.325" font-family="微软雅黑" font-weight="normal" font-style="normal" text-decoration="none" family="微软雅黑" text-anchor="middle" size="13">NewRESTStorage</text></g></g><g id="ProcessOnG1074" transform="matrix(1.0,0.0,0.0,1.0,336.0,336.0)" opacity="1.0"><path id="ProcessOnPath1075" d="M0.0 0.0L228.0 0.0L228.0 32.0L0.0 32.0Z" stroke="none" stroke-width="0.0" stroke-dasharray="none" opacity="1.0" fill="none"/><g id="ProcessOnG1076" transform="matrix(1.0,0.0,0.0,1.0,0.0,6.0)"><text id="ProcessOnText1077" fill="#000000" font-size="16" x="0.0" y="16.4" font-family="微软雅黑" font-weight="bold" font-style="normal" text-decoration="none" family="微软雅黑" text-anchor="start" size="16">authorization/rest</text></g></g><g id="ProcessOnG1078" transform="matrix(1.0,0.0,0.0,1.0,365.0,429.0)" opacity="1.0"><path id="ProcessOnPath1079" d="M0.0 0.0L140.0 0.0L140.0 20.0L0.0 20.0Z" stroke="none" stroke-width="0.0" stroke-dasharray="none" opacity="1.0" fill="none"/><g id="ProcessOnG1080" transform="matrix(1.0,0.0,0.0,1.0,0.0,1.875)"><text id="ProcessOnText1081" fill="#000000" font-size="13" x="0.0" y="13.325" font-family="微软雅黑" font-weight="normal" font-style="normal" text-decoration="none" family="微软雅黑" text-anchor="start" size="13">RESTStorageProvider</text></g></g><g id="ProcessOnG1082" transform="matrix(1.0,0.0,0.0,1.0,365.0,449.0)" opacity="1.0"><path id="ProcessOnPath1083" d="M0.0 0.0L140.0 0.0L140.0 32.0L0.0 32.0Z" stroke="#323232" stroke-width="2.0" stroke-dasharray="none" opacity="1.0" fill="#ffffff"/><g id="ProcessOnG1084" transform="matrix(1.0,0.0,0.0,1.0,10.0,7.875)"><text id="ProcessOnText1085" fill="#000000" font-size="13" x="59.0" y="13.325" font-family="微软雅黑" font-weight="normal" font-style="normal" text-decoration="none" family="微软雅黑" text-anchor="middle" size="13">Authorizer</text></g></g><g id="ProcessOnG1086" transform="matrix(1.0,0.0,0.0,1.0,365.0,481.0)" opacity="1.0"><path id="ProcessOnPath1087" d="M0.0 0.0L140.0 0.0L140.0 32.0L0.0 32.0Z" stroke="#323232" stroke-width="2.0" stroke-dasharray="none" opacity="1.0" fill="#ffffff"/><g id="ProcessOnG1088" transform="matrix(1.0,0.0,0.0,1.0,10.0,7.875)"><text id="ProcessOnText1089" fill="#000000" font-size="13" x="59.0" y="13.325" font-family="微软雅黑" font-weight="normal" font-style="normal" text-decoration="none" family="微软雅黑" text-anchor="middle" size="13">RuleResolver</text></g></g><g id="ProcessOnG1090" transform="matrix(1.0,0.0,0.0,1.0,65.0,336.0)" opacity="1.0"><path id="ProcessOnPath1091" d="M0.0 0.0L252.0 0.0L252.0 32.0L0.0 32.0Z" stroke="none" stroke-width="0.0" stroke-dasharray="none" opacity="1.0" fill="none"/><g id="ProcessOnG1092" transform="matrix(1.0,0.0,0.0,1.0,0.0,6.0)"><text id="ProcessOnText1093" fill="#000000" font-size="16" x="0.0" y="16.4" font-family="微软雅黑" font-weight="bold" font-style="normal" text-decoration="none" family="微软雅黑" text-anchor="start" size="16">authorization/authorizer</text></g></g><g id="ProcessOnG1094" transform="matrix(1.0,0.0,0.0,1.0,112.0,382.0)" opacity="1.0"><path id="ProcessOnPath1095" d="M0.0 0.0L170.0 0.0L170.0 32.0L0.0 32.0Z" stroke="#323232" stroke-width="2.0" stroke-dasharray="10.0 4.0" opacity="1.0" fill="#ffffff"/><g id="ProcessOnG1096" transform="matrix(1.0,0.0,0.0,1.0,10.0,7.875)"><text id="ProcessOnText1097" fill="#000000" font-size="13" x="74.0" y="13.325" font-family="微软雅黑" font-weight="normal" font-style="normal" text-decoration="none" family="微软雅黑" text-anchor="middle" size="13">Authorizer</text></g></g><g id="ProcessOnG1098" transform="matrix(1.0,0.0,0.0,1.0,112.0,434.0)" opacity="1.0"><path id="ProcessOnPath1099" d="M0.0 0.0L170.0 0.0L170.0 32.0L0.0 32.0Z" stroke="#323232" stroke-width="2.0" stroke-dasharray="10.0 4.0" opacity="1.0" fill="#ffffff"/><g id="ProcessOnG1100" transform="matrix(1.0,0.0,0.0,1.0,10.0,7.875)"><text id="ProcessOnText1101" fill="#000000" font-size="13" x="74.0" y="13.325" font-family="微软雅黑" font-weight="normal" font-style="normal" text-decoration="none" family="微软雅黑" text-anchor="middle" size="13">RuleResolver</text></g></g><g id="ProcessOnG1102" transform="matrix(1.0,0.0,0.0,1.0,614.0,193.0)" opacity="1.0"><path id="ProcessOnPath1103" d="M0.0 4.0Q0.0 0.0 4.0 0.0L124.0 0.0Q128.0 0.0 128.0 4.0L128.0 28.0Q128.0 32.0 124.0 32.0L4.0 32.0Q0.0 32.0 0.0 28.0Z" stroke="#ff6666" stroke-width="2.0" stroke-dasharray="none" opacity="1.0" fill="#ffffff"/><g id="ProcessOnG1104" transform="matrix(1.0,0.0,0.0,1.0,10.0,7.875)"><text id="ProcessOnText1105" fill="#ff6666" font-size="13" x="53.0" y="13.325" font-family="微软雅黑" font-weight="normal" font-style="italic" text-decoration="none" family="微软雅黑" text-anchor="middle" size="13">tokenreviews</text></g></g><g id="ProcessOnG1106"><path id="ProcessOnPath1107" d="M742.0 209.0C809.2804886204394 209.0 848.3673237569216 197.52436468234987 909.3441545092566 225.9583278321849" stroke="#323232" stroke-width="2.0" stroke-dasharray="none" fill="none" marker-end="url(#ProcessOnMarker1108)"/></g><g id="ProcessOnG1110"><path id="ProcessOnPath1111" d="M365.0 465.0C322.33291666870116 465.0 324.66708333129884 398.0 282.0 398.0" stroke="#323232" stroke-width="2.0" stroke-dasharray="none" fill="none" marker-end="url(#ProcessOnMarker1112)"/></g><g id="ProcessOnG1114"><path id="ProcessOnPath1115" d="M365.0 497.0C326.84662531308663 497.0 320.15337468691337 450.0 282.0 450.0" stroke="#323232" stroke-width="2.0" stroke-dasharray="none" fill="none" marker-end="url(#ProcessOnMarker1116)"/></g><g id="ProcessOnG1118" transform="matrix(1.0,0.0,0.0,1.0,614.0,450.0)" opacity="1.0"><path id="ProcessOnPath1119" d="M0.0 4.0Q0.0 0.0 4.0 0.0L180.0 0.0Q184.0 0.0 184.0 4.0L184.0 28.0Q184.0 32.0 180.0 32.0L4.0 32.0Q0.0 32.0 0.0 28.0Z" stroke="#ff6666" stroke-width="2.0" stroke-dasharray="none" opacity="1.0" fill="#ffffff"/><g id="ProcessOnG1120" transform="matrix(1.0,0.0,0.0,1.0,10.0,7.875)"><text id="ProcessOnText1121" fill="#ff6666" font-size="13" x="81.0" y="13.325" font-family="微软雅黑" font-weight="normal" font-style="italic" text-decoration="none" family="微软雅黑" text-anchor="middle" size="13">subjectaccessreviews</text></g></g><g id="ProcessOnG1122" transform="matrix(1.0,0.0,0.0,1.0,614.0,482.0)" opacity="1.0"><path id="ProcessOnPath1123" d="M0.0 4.0Q0.0 0.0 4.0 0.0L180.0 0.0Q184.0 0.0 184.0 4.0L184.0 28.0Q184.0 32.0 180.0 32.0L4.0 32.0Q0.0 32.0 0.0 28.0Z" stroke="#ff6666" stroke-width="2.0" stroke-dasharray="none" opacity="1.0" fill="#ffffff"/><g id="ProcessOnG1124" transform="matrix(1.0,0.0,0.0,1.0,10.0,7.875)"><text id="ProcessOnText1125" fill="#ff6666" font-size="13" x="81.0" y="13.325" font-family="微软雅黑" font-weight="normal" font-style="italic" text-decoration="none" family="微软雅黑" text-anchor="middle" size="13">selfsubjectaccessreviews</text></g></g><g id="ProcessOnG1126" transform="matrix(1.0,0.0,0.0,1.0,614.0,514.0)" opacity="1.0"><path id="ProcessOnPath1127" d="M0.0 4.0Q0.0 0.0 4.0 0.0L180.0 0.0Q184.0 0.0 184.0 4.0L184.0 28.0Q184.0 32.0 180.0 32.0L4.0 32.0Q0.0 32.0 0.0 28.0Z" stroke="#ff6666" stroke-width="2.0" stroke-dasharray="none" opacity="1.0" fill="#ffffff"/><g id="ProcessOnG1128" transform="matrix(1.0,0.0,0.0,1.0,10.0,7.875)"><text id="ProcessOnText1129" fill="#ff6666" font-size="13" x="81.0" y="13.325" font-family="微软雅黑" font-weight="normal" font-style="italic" text-decoration="none" family="微软雅黑" text-anchor="middle" size="13">localsubjectaccessreviews</text></g></g><g id="ProcessOnG1130" transform="matrix(1.0,0.0,0.0,1.0,614.0,546.0)" opacity="1.0"><path id="ProcessOnPath1131" d="M0.0 4.0Q0.0 0.0 4.0 0.0L180.0 0.0Q184.0 0.0 184.0 4.0L184.0 28.0Q184.0 32.0 180.0 32.0L4.0 32.0Q0.0 32.0 0.0 28.0Z" stroke="#ff6666" stroke-width="2.0" stroke-dasharray="none" opacity="1.0" fill="#ffffff"/><g id="ProcessOnG1132" transform="matrix(1.0,0.0,0.0,1.0,10.0,7.875)"><text id="ProcessOnText1133" fill="#ff6666" font-size="13" x="81.0" y="13.325" font-family="微软雅黑" font-weight="normal" font-style="italic" text-decoration="none" family="微软雅黑" text-anchor="middle" size="13">selfsubjectrulesreviews</text></g></g><g id="ProcessOnG1134"><path id="ProcessOnPath1135" d="M504.0716371709404 449.2981333293569C532.9091492434874 414.93092471542025 584.4842537640391 419.81245768019346 616.2073299897784 451.53553390593277" stroke="#ff6666" stroke-width="2.0" stroke-dasharray="10.0 4.0" fill="none" marker-end="url(#ProcessOnMarker1136)"/></g><g id="ProcessOnG1138" transform="matrix(1.0,0.0,0.0,1.0,870.0,286.0)" opacity="1.0"><path id="ProcessOnPath1139" d="M0.0 0.0L284.0 0.0L284.0 32.0L0.0 32.0Z" stroke="none" stroke-width="0.0" stroke-dasharray="none" opacity="1.0" fill="none"/><g id="ProcessOnG1140" transform="matrix(1.0,0.0,0.0,1.0,0.0,6.0)"><text id="ProcessOnText1141" fill="#000000" font-size="16" x="0.0" y="16.4" font-family="微软雅黑" font-weight="bold" font-style="normal" text-decoration="none" family="微软雅黑" text-anchor="start" size="16">authorization/subjectaccessreview</text></g></g><g id="ProcessOnG1142" transform="matrix(1.0,0.0,0.0,1.0,909.0,322.0)" opacity="1.0"><path id="ProcessOnPath1143" d="M0.0 0.0L170.0 0.0L170.0 20.0L0.0 20.0Z" stroke="none" stroke-width="0.0" stroke-dasharray="none" opacity="1.0" fill="none"/><g id="ProcessOnG1144" transform="matrix(1.0,0.0,0.0,1.0,0.0,1.875)"><text id="ProcessOnText1145" fill="#000000" font-size="13" x="0.0" y="13.325" font-family="微软雅黑" font-weight="normal" font-style="normal" text-decoration="none" family="微软雅黑" text-anchor="start" size="13">REST</text></g></g><g id="ProcessOnG1146" transform="matrix(1.0,0.0,0.0,1.0,909.0,342.0)" opacity="1.0"><path id="ProcessOnPath1147" d="M0.0 0.0L150.0 0.0L150.0 32.0L0.0 32.0Z" stroke="#323232" stroke-width="2.0" stroke-dasharray="none" opacity="1.0" fill="#ffffff"/></g><g id="ProcessOnG1148"><path id="ProcessOnPath1149" d="M798.0 466.0C863.5260187584203 466.0 846.5363553187852 329.33471362108844 909.8296291314454 346.2940952255126" stroke="#323232" stroke-width="2.0" stroke-dasharray="none" fill="none" marker-end="url(#ProcessOnMarker1150)"/></g><g id="ProcessOnG1152" transform="matrix(1.0,0.0,0.0,1.0,870.0,382.0)" opacity="1.0"><path id="ProcessOnPath1153" d="M0.0 0.0L312.0 0.0L312.0 32.0L0.0 32.0Z" stroke="none" stroke-width="0.0" stroke-dasharray="none" opacity="1.0" fill="none"/><g id="ProcessOnG1154" transform="matrix(1.0,0.0,0.0,1.0,0.0,6.0)"><text id="ProcessOnText1155" fill="#000000" font-size="16" x="0.0" y="16.4" font-family="微软雅黑" font-weight="bold" font-style="normal" text-decoration="none" family="微软雅黑" text-anchor="start" size="16">authorization/selfsubjectaccessreview</text></g></g><g id="ProcessOnG1156" transform="matrix(1.0,0.0,0.0,1.0,909.0,418.0)" opacity="1.0"><path id="ProcessOnPath1157" d="M0.0 0.0L170.0 0.0L170.0 20.0L0.0 20.0Z" stroke="none" stroke-width="0.0" stroke-dasharray="none" opacity="1.0" fill="none"/><g id="ProcessOnG1158" transform="matrix(1.0,0.0,0.0,1.0,0.0,1.875)"><text id="ProcessOnText1159" fill="#000000" font-size="13" x="0.0" y="13.325" font-family="微软雅黑" font-weight="normal" font-style="normal" text-decoration="none" family="微软雅黑" text-anchor="start" size="13">REST</text></g></g><g id="ProcessOnG1160" transform="matrix(1.0,0.0,0.0,1.0,909.0,438.0)" opacity="1.0"><path id="ProcessOnPath1161" d="M0.0 0.0L150.0 0.0L150.0 32.0L0.0 32.0Z" stroke="#323232" stroke-width="2.0" stroke-dasharray="none" opacity="1.0" fill="#ffffff"/></g><g id="ProcessOnG1162" transform="matrix(1.0,0.0,0.0,1.0,870.0,486.0)" opacity="1.0"><path id="ProcessOnPath1163" d="M0.0 0.0L318.0 0.0L318.0 32.0L0.0 32.0Z" stroke="none" stroke-width="0.0" stroke-dasharray="none" opacity="1.0" fill="none"/><g id="ProcessOnG1164" transform="matrix(1.0,0.0,0.0,1.0,0.0,6.0)"><text id="ProcessOnText1165" fill="#000000" font-size="16" x="0.0" y="16.4" font-family="微软雅黑" font-weight="bold" font-style="normal" text-decoration="none" family="微软雅黑" text-anchor="start" size="16">authorization/localsubjectaccessreview</text></g></g><g id="ProcessOnG1166" transform="matrix(1.0,0.0,0.0,1.0,909.0,522.0)" opacity="1.0"><path id="ProcessOnPath1167" d="M0.0 0.0L170.0 0.0L170.0 20.0L0.0 20.0Z" stroke="none" stroke-width="0.0" stroke-dasharray="none" opacity="1.0" fill="none"/><g id="ProcessOnG1168" transform="matrix(1.0,0.0,0.0,1.0,0.0,1.875)"><text id="ProcessOnText1169" fill="#000000" font-size="13" x="0.0" y="13.325" font-family="微软雅黑" font-weight="normal" font-style="normal" text-decoration="none" family="微软雅黑" text-anchor="start" size="13">REST</text></g></g><g id="ProcessOnG1170" transform="matrix(1.0,0.0,0.0,1.0,909.0,542.0)" opacity="1.0"><path id="ProcessOnPath1171" d="M0.0 0.0L150.0 0.0L150.0 32.0L0.0 32.0Z" stroke="#323232" stroke-width="2.0" stroke-dasharray="none" opacity="1.0" fill="#ffffff"/></g><g id="ProcessOnG1172" transform="matrix(1.0,0.0,0.0,1.0,870.0,592.0)" opacity="1.0"><path id="ProcessOnPath1173" d="M0.0 0.0L284.0 0.0L284.0 32.0L0.0 32.0Z" stroke="none" stroke-width="0.0" stroke-dasharray="none" opacity="1.0" fill="none"/><g id="ProcessOnG1174" transform="matrix(1.0,0.0,0.0,1.0,0.0,6.0)"><text id="ProcessOnText1175" fill="#000000" font-size="16" x="0.0" y="16.4" font-family="微软雅黑" font-weight="bold" font-style="normal" text-decoration="none" family="微软雅黑" text-anchor="start" size="16">authorization/selfsubjectrulesreview</text></g></g><g id="ProcessOnG1176" transform="matrix(1.0,0.0,0.0,1.0,909.0,628.0)" opacity="1.0"><path id="ProcessOnPath1177" d="M0.0 0.0L170.0 0.0L170.0 20.0L0.0 20.0Z" stroke="none" stroke-width="0.0" stroke-dasharray="none" opacity="1.0" fill="none"/><g id="ProcessOnG1178" transform="matrix(1.0,0.0,0.0,1.0,0.0,1.875)"><text id="ProcessOnText1179" fill="#000000" font-size="13" x="0.0" y="13.325" font-family="微软雅黑" font-weight="normal" font-style="normal" text-decoration="none" family="微软雅黑" text-anchor="start" size="13">REST</text></g></g><g id="ProcessOnG1180" transform="matrix(1.0,0.0,0.0,1.0,909.0,648.0)" opacity="1.0"><path id="ProcessOnPath1181" d="M0.0 0.0L150.0 0.0L150.0 32.0L0.0 32.0Z" stroke="#323232" stroke-width="2.0" stroke-dasharray="none" opacity="1.0" fill="#ffffff"/></g><g id="ProcessOnG1182"><path id="ProcessOnPath1183" d="M798.0 498.0C848.3516979870412 498.0 865.5903028422472 413.82415100647944 909.1961524227066 439.0" stroke="#323232" stroke-width="2.0" stroke-dasharray="none" fill="none" marker-end="url(#ProcessOnMarker1184)"/></g><g id="ProcessOnG1186"><path id="ProcessOnPath1187" d="M798.0 530.0C842.8185980111634 530.0 874.9650953745219 514.1195233439621 909.2981333293569 542.9283628290597" stroke="#323232" stroke-width="2.0" stroke-dasharray="none" fill="none" marker-end="url(#ProcessOnMarker1188)"/></g><g id="ProcessOnG1190"><path id="ProcessOnPath1191" d="M798.0 562.0C854.7347383928008 562.0 862.983079196203 617.1790202444016 909.4574561328669 649.7207293090531" stroke="#323232" stroke-width="2.0" stroke-dasharray="none" fill="none" marker-end="url(#ProcessOnMarker1192)"/></g><g id="ProcessOnG1194"><path id="ProcessOnPath1195" d="M324.0 612.0L584.5 612.0L584.5 612.0L845.0 612.0" stroke="#323232" stroke-width="2.0" stroke-dasharray="10.0 4.0" fill="none"/></g><g id="ProcessOnG1196" transform="matrix(1.0,0.0,0.0,1.0,333.0,626.0)" opacity="1.0"><path id="ProcessOnPath1197" d="M0.0 0.0L228.0 0.0L228.0 32.0L0.0 32.0Z" stroke="none" stroke-width="0.0" stroke-dasharray="none" opacity="1.0" fill="none"/><g id="ProcessOnG1198" transform="matrix(1.0,0.0,0.0,1.0,0.0,6.0)"><text id="ProcessOnText1199" fill="#000000" font-size="16" x="0.0" y="16.4" font-family="微软雅黑" font-weight="bold" font-style="normal" text-decoration="none" family="微软雅黑" text-anchor="start" size="16">autoscaling/rest</text></g></g><g id="ProcessOnG1200" transform="matrix(1.0,0.0,0.0,1.0,365.0,760.0)" opacity="1.0"><path id="ProcessOnPath1201" d="M0.0 0.0L140.0 0.0L140.0 20.0L0.0 20.0Z" stroke="none" stroke-width="0.0" stroke-dasharray="none" opacity="1.0" fill="none"/><g id="ProcessOnG1202" transform="matrix(1.0,0.0,0.0,1.0,0.0,1.875)"><text id="ProcessOnText1203" fill="#000000" font-size="13" x="0.0" y="13.325" font-family="微软雅黑" font-weight="normal" font-style="normal" text-decoration="none" family="微软雅黑" text-anchor="start" size="13">RESTStorageProvider</text></g></g><g id="ProcessOnG1204" transform="matrix(1.0,0.0,0.0,1.0,365.0,780.0)" opacity="1.0"><path id="ProcessOnPath1205" d="M0.0 0.0L140.0 0.0L140.0 32.0L0.0 32.0Z" stroke="#323232" stroke-width="2.0" stroke-dasharray="none" opacity="1.0" fill="#ffffff"/></g><g id="ProcessOnG1206" transform="matrix(1.0,0.0,0.0,1.0,591.0,748.0)" opacity="1.0"><path id="ProcessOnPath1207" d="M0.0 4.0Q0.0 0.0 4.0 0.0L226.0 0.0Q230.0 0.0 230.0 4.0L230.0 28.0Q230.0 32.0 226.0 32.0L4.0 32.0Q0.0 32.0 0.0 28.0Z" stroke="#ff6666" stroke-width="2.0" stroke-dasharray="none" opacity="1.0" fill="#ffffff"/><g id="ProcessOnG1208" transform="matrix(1.0,0.0,0.0,1.0,10.0,7.875)"><text id="ProcessOnText1209" fill="#ff6666" font-size="13" x="104.0" y="13.325" font-family="微软雅黑" font-weight="normal" font-style="italic" text-decoration="none" family="微软雅黑" text-anchor="middle" size="13">horizontalpodautoscalers</text></g></g><g id="ProcessOnG1210" transform="matrix(1.0,0.0,0.0,1.0,591.0,780.0)" opacity="1.0"><path id="ProcessOnPath1211" d="M0.0 4.0Q0.0 0.0 4.0 0.0L226.0 0.0Q230.0 0.0 230.0 4.0L230.0 28.0Q230.0 32.0 226.0 32.0L4.0 32.0Q0.0 32.0 0.0 28.0Z" stroke="#ff6666" stroke-width="2.0" stroke-dasharray="none" opacity="1.0" fill="#ffffff"/><g id="ProcessOnG1212" transform="matrix(1.0,0.0,0.0,1.0,10.0,7.875)"><text id="ProcessOnText1213" fill="#ff6666" font-size="13" x="104.0" y="13.325" font-family="微软雅黑" font-weight="normal" font-style="italic" text-decoration="none" family="微软雅黑" text-anchor="middle" size="13">horizontalpodautoscalers/status</text></g></g><g id="ProcessOnG1214"><path id="ProcessOnPath1215" d="M504.0716371709404 780.2981333293569C528.1353178254499 751.6201554583056 568.1502573939233 720.1522443445435 592.2139380484327 748.8302222155949" stroke="#ff6666" stroke-width="2.0" stroke-dasharray="10.0 4.0" fill="none" marker-end="url(#ProcessOnMarker1216)"/></g><g id="ProcessOnG1218" transform="matrix(1.0,0.0,0.0,1.0,870.0,689.0)" opacity="1.0"><path id="ProcessOnPath1219" d="M0.0 0.0L366.0 0.0L366.0 32.0L0.0 32.0Z" stroke="none" stroke-width="0.0" stroke-dasharray="none" opacity="1.0" fill="none"/><g id="ProcessOnG1220" transform="matrix(1.0,0.0,0.0,1.0,0.0,6.0)"><text id="ProcessOnText1221" fill="#000000" font-size="16" x="0.0" y="16.4" font-family="微软雅黑" font-weight="bold" font-style="normal" text-decoration="none" family="微软雅黑" text-anchor="start" size="16">autoscaling/horizontalpodautoscaler/storage</text></g></g><g id="ProcessOnG1222" transform="matrix(1.0,0.0,0.0,1.0,909.0,724.0)" opacity="1.0"><path id="ProcessOnPath1223" d="M0.0 0.0L170.0 0.0L170.0 20.0L0.0 20.0Z" stroke="none" stroke-width="0.0" stroke-dasharray="none" opacity="1.0" fill="none"/><g id="ProcessOnG1224" transform="matrix(1.0,0.0,0.0,1.0,0.0,1.875)"><text id="ProcessOnText1225" fill="#000000" font-size="13" x="0.0" y="13.325" font-family="微软雅黑" font-weight="normal" font-style="normal" text-decoration="none" family="微软雅黑" text-anchor="start" size="13">REST</text></g></g><g id="ProcessOnG1226" transform="matrix(1.0,0.0,0.0,1.0,909.0,744.0)" opacity="1.0"><path id="ProcessOnPath1227" d="M0.0 0.0L150.0 0.0L150.0 32.0L0.0 32.0Z" stroke="#323232" stroke-width="2.0" stroke-dasharray="none" opacity="1.0" fill="#ffffff"/></g><g id="ProcessOnG1228" transform="matrix(1.0,0.0,0.0,1.0,909.0,795.0)" opacity="1.0"><path id="ProcessOnPath1229" d="M0.0 0.0L170.0 0.0L170.0 20.0L0.0 20.0Z" stroke="none" stroke-width="0.0" stroke-dasharray="none" opacity="1.0" fill="none"/><g id="ProcessOnG1230" transform="matrix(1.0,0.0,0.0,1.0,0.0,1.875)"><text id="ProcessOnText1231" fill="#000000" font-size="13" x="0.0" y="13.325" font-family="微软雅黑" font-weight="normal" font-style="normal" text-decoration="none" family="微软雅黑" text-anchor="start" size="13">StatusREST</text></g></g><g id="ProcessOnG1232" transform="matrix(1.0,0.0,0.0,1.0,909.0,815.0)" opacity="1.0"><path id="ProcessOnPath1233" d="M0.0 0.0L150.0 0.0L150.0 32.0L0.0 32.0Z" stroke="#323232" stroke-width="2.0" stroke-dasharray="none" opacity="1.0" fill="#ffffff"/></g><g id="ProcessOnG1234"><path id="ProcessOnPath1235" d="M821.0 764.0C857.2230339761501 764.0 883.8006606026867 718.8006606026867 909.4142135623731 744.4142135623731" stroke="#323232" stroke-width="2.0" stroke-dasharray="none" fill="none" marker-end="url(#ProcessOnMarker1236)"/></g><g id="ProcessOnG1238"><path id="ProcessOnPath1239" d="M821.0 796.0C857.4634551836732 796.0 877.8858231163214 799.7682724081634 909.4641016151378 818.0" stroke="#323232" stroke-width="2.0" stroke-dasharray="none" fill="none" marker-end="url(#ProcessOnMarker1240)"/></g></g></g></svg>