<svg xmlns="http://www.w3.org/2000/svg" xmlns:xlink="http://www.w3.org/1999/xlink" id="processonSvg1000" viewBox="84.0 32.0 863.0 870.0" width="863.0" height="870.0"><defs id="ProcessOnDefs1001"><marker id="ProcessOnMarker1041" markerUnits="userSpaceOnUse" orient="auto" markerWidth="14.289086868996552" markerHeight="19.055054660878554" viewBox="-0.5877852522924731 -0.8090169943749475 14.289086868996552 19.055054660878554" refX="12.0" refY="8.71851033606433"><path id="ProcessOnPath1042" d="M0 0L12.0 8.71851033606433L0 17.43702067212866" stroke="#323232" stroke-width="2.0" fill="none" transform="matrix(1.0,0.0,0.0,1.0,0.0,0.0)"/></marker><marker id="ProcessOnMarker1045" markerUnits="userSpaceOnUse" orient="auto" markerWidth="14.289086868996552" markerHeight="19.055054660878554" viewBox="-0.5877852522924731 -0.8090169943749475 14.289086868996552 19.055054660878554" refX="12.0" refY="8.71851033606433"><path id="ProcessOnPath1046" d="M0 0L12.0 8.71851033606433L0 17.43702067212866" stroke="#323232" stroke-width="2.0" fill="none" transform="matrix(1.0,0.0,0.0,1.0,0.0,0.0)"/></marker><marker id="ProcessOnMarker1077" markerUnits="userSpaceOnUse" orient="auto" markerWidth="14.289086868996552" markerHeight="19.055054660878554" viewBox="-0.5877852522924731 -0.8090169943749475 14.289086868996552 19.055054660878554" refX="12.0" refY="8.71851033606433"><path id="ProcessOnPath1078" d="M0 0L12.0 8.71851033606433L0 17.43702067212866" stroke="#323232" stroke-width="2.0" fill="none" transform="matrix(1.0,0.0,0.0,1.0,0.0,0.0)"/></marker><marker id="ProcessOnMarker1087" markerUnits="userSpaceOnUse" orient="auto" markerWidth="14.289086868996552" markerHeight="19.055054660878554" viewBox="-0.5877852522924731 -0.8090169943749475 14.289086868996552 19.055054660878554" refX="12.0" refY="8.71851033606433"><path id="ProcessOnPath1088" d="M0 0L12.0 8.71851033606433L0 17.43702067212866" stroke="#323232" stroke-width="2.0" fill="none" transform="matrix(1.0,0.0,0.0,1.0,0.0,0.0)"/></marker><marker id="ProcessOnMarker1097" markerUnits="userSpaceOnUse" orient="auto" markerWidth="14.289086868996552" markerHeight="19.055054660878554" viewBox="-0.5877852522924731 -0.8090169943749475 14.289086868996552 19.055054660878554" refX="12.0" refY="8.71851033606433"><path id="ProcessOnPath1098" d="M0 0L12.0 8.71851033606433L0 17.43702067212866" stroke="#323232" stroke-width="2.0" fill="none" transform="matrix(1.0,0.0,0.0,1.0,0.0,0.0)"/></marker><marker id="ProcessOnMarker1113" markerUnits="userSpaceOnUse" orient="auto" markerWidth="14.289086868996552" markerHeight="19.055054660878554" viewBox="-0.5877852522924731 -0.8090169943749475 14.289086868996552 19.055054660878554" refX="12.0" refY="8.71851033606433"><path id="ProcessOnPath1114" d="M0 0L12.0 8.71851033606433L0 17.43702067212866" stroke="#323232" stroke-width="2.0" fill="none" transform="matrix(1.0,0.0,0.0,1.0,0.0,0.0)"/></marker><marker id="ProcessOnMarker1117" markerUnits="userSpaceOnUse" orient="auto" markerWidth="14.289086868996552" markerHeight="19.055054660878554" viewBox="-0.5877852522924731 -0.8090169943749475 14.289086868996552 19.055054660878554" refX="12.0" refY="8.71851033606433"><path id="ProcessOnPath1118" d="M0 0L12.0 8.71851033606433L0 17.43702067212866" stroke="#323232" stroke-width="2.0" fill="none" transform="matrix(1.0,0.0,0.0,1.0,0.0,0.0)"/></marker><marker id="ProcessOnMarker1129" markerUnits="userSpaceOnUse" orient="auto" markerWidth="14.289086868996552" markerHeight="19.055054660878554" viewBox="-0.5877852522924731 -0.8090169943749475 14.289086868996552 19.055054660878554" refX="1.1135163644116066" refY="8.71851033606433"><path id="ProcessOnPath1130" d="M0 0L12.0 8.71851033606433L0 17.43702067212866" stroke="#ff6666" stroke-width="2.0" fill="none" transform="matrix(-1.0,1.2246467991473532E-16,-1.2246467991473532E-16,-1.0,13.113516364411606,17.43702067212866)"/></marker><marker id="ProcessOnMarker1136" markerUnits="userSpaceOnUse" orient="auto" markerWidth="14.289086868996552" markerHeight="19.055054660878554" viewBox="-0.5877852522924731 -0.8090169943749475 14.289086868996552 19.055054660878554" refX="1.1135163644116066" refY="8.71851033606433"><path id="ProcessOnPath1137" d="M0 0L12.0 8.71851033606433L0 17.43702067212866" stroke="#ff6666" stroke-width="2.0" fill="none" transform="matrix(-1.0,1.2246467991473532E-16,-1.2246467991473532E-16,-1.0,13.113516364411606,17.43702067212866)"/></marker><marker id="ProcessOnMarker1143" markerUnits="userSpaceOnUse" orient="auto" markerWidth="14.289086868996552" markerHeight="19.055054660878554" viewBox="-0.5877852522924731 -0.8090169943749475 14.289086868996552 19.055054660878554" refX="12.0" refY="8.71851033606433"><path id="ProcessOnPath1144" d="M0 0L12.0 8.71851033606433L0 17.43702067212866" stroke="#ff6666" stroke-width="2.0" fill="none" transform="matrix(1.0,0.0,0.0,1.0,0.0,0.0)"/></marker><marker id="ProcessOnMarker1150" markerUnits="userSpaceOnUse" orient="auto" markerWidth="14.289086868996552" markerHeight="19.055054660878554" viewBox="-0.5877852522924731 -0.8090169943749475 14.289086868996552 19.055054660878554" refX="12.0" refY="8.71851033606433"><path id="ProcessOnPath1151" d="M0 0L12.0 8.71851033606433L0 17.43702067212866" stroke="#ff6666" stroke-width="2.0" fill="none" transform="matrix(1.0,0.0,0.0,1.0,0.0,0.0)"/></marker><marker id="ProcessOnMarker1157" markerUnits="userSpaceOnUse" orient="auto" markerWidth="14.289086868996552" markerHeight="19.055054660878554" viewBox="-0.5877852522924731 -0.8090169943749475 14.289086868996552 19.055054660878554" refX="12.0" refY="8.71851033606433"><path id="ProcessOnPath1158" d="M0 0L12.0 8.71851033606433L0 17.43702067212866" stroke="#ff6666" stroke-width="2.0" fill="none" transform="matrix(1.0,0.0,0.0,1.0,0.0,0.0)"/></marker><marker id="ProcessOnMarker1164" markerUnits="userSpaceOnUse" orient="auto" markerWidth="14.289086868996552" markerHeight="19.055054660878554" viewBox="-0.5877852522924731 -0.8090169943749475 14.289086868996552 19.055054660878554" refX="12.0" refY="8.71851033606433"><path id="ProcessOnPath1165" d="M0 0L12.0 8.71851033606433L0 17.43702067212866" stroke="#ff6666" stroke-width="2.0" fill="none" transform="matrix(1.0,0.0,0.0,1.0,0.0,0.0)"/></marker><marker id="ProcessOnMarker1171" markerUnits="userSpaceOnUse" orient="auto" markerWidth="14.289086868996552" markerHeight="19.055054660878554" viewBox="-0.5877852522924731 -0.8090169943749475 14.289086868996552 19.055054660878554" refX="12.0" refY="8.71851033606433"><path id="ProcessOnPath1172" d="M0 0L12.0 8.71851033606433L0 17.43702067212866" stroke="#ff6666" stroke-width="2.0" fill="none" transform="matrix(1.0,0.0,0.0,1.0,0.0,0.0)"/></marker></defs><g id="ProcessOnG1002"><path id="ProcessOnPath1003" d="M84.0 32.0H947.0V902.0H84.0V32.0Z" fill="none"/><g id="ProcessOnG1004"><g id="ProcessOnG1005" transform="matrix(1.0,0.0,0.0,1.0,641.0,509.0)" opacity="1.0"><path id="ProcessOnPath1006" d="M0.0 0.0L160.0 0.0L160.0 20.0L0.0 20.0Z" stroke="none" stroke-width="0.0" stroke-dasharray="none" opacity="1.0" fill="none"/><g id="ProcessOnG1007" transform="matrix(1.0,0.0,0.0,1.0,0.0,1.875)"><text id="ProcessOnText1008" fill="#000000" font-size="13" x="0.0" y="13.325" font-family="微软雅黑" font-weight="normal" font-style="normal" text-decoration="none" family="微软雅黑" text-anchor="start" size="13">Config</text></g></g><g id="ProcessOnG1009" transform="matrix(1.0,0.0,0.0,1.0,641.0,529.0)" opacity="1.0"><path id="ProcessOnPath1010" d="M0.0 0.0L160.0 0.0L160.0 32.0L0.0 32.0Z" stroke="#323232" stroke-width="2.0" stroke-dasharray="none" opacity="1.0" fill="#ffffff"/><g id="ProcessOnG1011" transform="matrix(1.0,0.0,0.0,1.0,10.0,7.875)"><text id="ProcessOnText1012" fill="#000000" font-size="13" x="69.0" y="13.325" font-family="微软雅黑" font-weight="normal" font-style="normal" text-decoration="none" family="微软雅黑" text-anchor="middle" size="13">RESTOptionsGetter</text></g></g><g id="ProcessOnG1013" transform="matrix(1.0,0.0,0.0,1.0,595.5,303.0)" opacity="1.0"><path id="ProcessOnPath1014" d="M0.0 0.0L186.0 0.0L186.0 32.0L0.0 32.0Z" stroke="none" stroke-width="0.0" stroke-dasharray="none" opacity="1.0" fill="none"/><g id="ProcessOnG1015" transform="matrix(1.0,0.0,0.0,1.0,0.0,6.0)"><text id="ProcessOnText1016" fill="#000000" font-size="16" x="0.0" y="16.4" font-family="微软雅黑" font-weight="bold" font-style="normal" text-decoration="none" family="微软雅黑" text-anchor="start" size="16">apiserver/pkg/server</text></g></g><g id="ProcessOnG1017" transform="matrix(1.0,0.0,0.0,1.0,641.0,668.0)" opacity="1.0"><path id="ProcessOnPath1018" d="M0.0 0.0L230.0 0.0L230.0 20.0L0.0 20.0Z" stroke="none" stroke-width="0.0" stroke-dasharray="none" opacity="1.0" fill="none"/><g id="ProcessOnG1019" transform="matrix(1.0,0.0,0.0,1.0,0.0,1.875)"><text id="ProcessOnText1020" fill="#000000" font-size="13" x="0.0" y="13.325" font-family="微软雅黑" font-weight="normal" font-style="normal" text-decoration="none" family="微软雅黑" text-anchor="start" size="13">storageFactoryRestOptionsFactory</text></g></g><g id="ProcessOnG1021" transform="matrix(1.0,0.0,0.0,1.0,641.0,688.0)" opacity="1.0"><path id="ProcessOnPath1022" d="M0.0 0.0L160.0 0.0L160.0 32.0L0.0 32.0Z" stroke="#323232" stroke-width="2.0" stroke-dasharray="none" opacity="1.0" fill="#ffffff"/><g id="ProcessOnG1023" transform="matrix(1.0,0.0,0.0,1.0,10.0,7.875)"><text id="ProcessOnText1024" fill="#000000" font-size="13" x="69.0" y="13.325" font-family="微软雅黑" font-weight="normal" font-style="normal" text-decoration="none" family="微软雅黑" text-anchor="middle" size="13">StorageFactory</text></g></g><g id="ProcessOnG1025" transform="matrix(1.0,0.0,0.0,1.0,595.5,599.0)" opacity="1.0"><path id="ProcessOnPath1026" d="M0.0 0.0L259.0 0.0L259.0 32.0L0.0 32.0Z" stroke="none" stroke-width="0.0" stroke-dasharray="none" opacity="1.0" fill="none"/><g id="ProcessOnG1027" transform="matrix(1.0,0.0,0.0,1.0,0.0,6.0)"><text id="ProcessOnText1028" fill="#000000" font-size="16" x="0.0" y="16.4" font-family="微软雅黑" font-weight="bold" font-style="normal" text-decoration="none" family="微软雅黑" text-anchor="start" size="16">apiserver/pkg/server/options</text></g></g><g id="ProcessOnG1029" transform="matrix(1.0,0.0,0.0,1.0,272.0,698.0)" opacity="1.0"><path id="ProcessOnPath1030" d="M0.0 0.0L160.0 0.0L160.0 20.0L0.0 20.0Z" stroke="none" stroke-width="0.0" stroke-dasharray="none" opacity="1.0" fill="none"/><g id="ProcessOnG1031" transform="matrix(1.0,0.0,0.0,1.0,0.0,1.875)"><text id="ProcessOnText1032" fill="#000000" font-size="13" x="0.0" y="13.325" font-family="微软雅黑" font-weight="normal" font-style="normal" text-decoration="none" family="微软雅黑" text-anchor="start" size="13">DefaultStorageFactory</text></g></g><g id="ProcessOnG1033" transform="matrix(1.0,0.0,0.0,1.0,272.0,718.0)" opacity="1.0"><path id="ProcessOnPath1034" d="M0.0 0.0L160.0 0.0L160.0 32.0L0.0 32.0Z" stroke="#323232" stroke-width="2.0" stroke-dasharray="none" opacity="1.0" fill="#ffffff"/></g><g id="ProcessOnG1035" transform="matrix(1.0,0.0,0.0,1.0,211.0,599.0)" opacity="1.0"><path id="ProcessOnPath1036" d="M0.0 0.0L380.0 0.0L380.0 32.0L0.0 32.0Z" stroke="none" stroke-width="0.0" stroke-dasharray="none" opacity="1.0" fill="none"/><g id="ProcessOnG1037" transform="matrix(1.0,0.0,0.0,1.0,0.0,6.0)"><text id="ProcessOnText1038" fill="#000000" font-size="16" x="0.0" y="16.4" font-family="微软雅黑" font-weight="bold" font-style="normal" text-decoration="none" family="微软雅黑" text-anchor="start" size="16">kubernetes/pkg/kubeapiserver</text></g></g><g id="ProcessOnG1039"><path id="ProcessOnPath1040" d="M641.0 704.0C555.2348838210654 704.0 486.62924075533994 815.3375795604936 431.5004867321942 749.6376888981672" stroke="#323232" stroke-width="2.0" stroke-dasharray="none" fill="none" marker-end="url(#ProcessOnMarker1041)"/></g><g id="ProcessOnG1043"><path id="ProcessOnPath1044" d="M801.0 545.0C859.0214098535355 545.0 854.8841349622467 670.2076299458904 800.3618442752845 690.052120859954" stroke="#323232" stroke-width="2.0" stroke-dasharray="none" fill="none" marker-end="url(#ProcessOnMarker1045)"/></g><g id="ProcessOnG1047" transform="matrix(1.0,0.0,0.0,1.0,641.0,720.0)" opacity="1.0"><path id="ProcessOnPath1048" d="M0.0 0.0L160.0 0.0L160.0 32.0L0.0 32.0Z" stroke="#323232" stroke-width="2.0" stroke-dasharray="none" opacity="1.0" fill="#ffb366"/><g id="ProcessOnG1049" transform="matrix(1.0,0.0,0.0,1.0,10.0,7.875)"><text id="ProcessOnText1050" fill="#000000" font-size="13" x="69.0" y="13.325" font-family="微软雅黑" font-weight="normal" font-style="normal" text-decoration="none" family="微软雅黑" text-anchor="middle" size="13">Options</text></g></g><g id="ProcessOnG1051" transform="matrix(1.0,0.0,0.0,1.0,211.0,307.0)" opacity="1.0"><path id="ProcessOnPath1052" d="M0.0 0.0L380.0 0.0L380.0 32.0L0.0 32.0Z" stroke="none" stroke-width="0.0" stroke-dasharray="none" opacity="1.0" fill="none"/><g id="ProcessOnG1053" transform="matrix(1.0,0.0,0.0,1.0,0.0,6.0)"><text id="ProcessOnText1054" fill="#000000" font-size="16" x="0.0" y="16.4" font-family="微软雅黑" font-weight="bold" font-style="normal" text-decoration="none" family="微软雅黑" text-anchor="start" size="16">kubernetes/cmd/api-server/app/options</text></g></g><g id="ProcessOnG1055" transform="matrix(1.0,0.0,0.0,1.0,254.0,374.0)" opacity="1.0"><path id="ProcessOnPath1056" d="M0.0 0.0L160.0 0.0L160.0 20.0L0.0 20.0Z" stroke="none" stroke-width="0.0" stroke-dasharray="none" opacity="1.0" fill="none"/><g id="ProcessOnG1057" transform="matrix(1.0,0.0,0.0,1.0,0.0,1.875)"><text id="ProcessOnText1058" fill="#000000" font-size="13" x="0.0" y="13.325" font-family="微软雅黑" font-weight="normal" font-style="normal" text-decoration="none" family="微软雅黑" text-anchor="start" size="13">ServerRunOptions</text></g></g><g id="ProcessOnG1059" transform="matrix(1.0,0.0,0.0,1.0,254.0,394.0)" opacity="1.0"><path id="ProcessOnPath1060" d="M0.0 0.0L160.0 0.0L160.0 32.0L0.0 32.0Z" stroke="#323232" stroke-width="2.0" stroke-dasharray="none" opacity="1.0" fill="#ffb366"/><g id="ProcessOnG1061" transform="matrix(1.0,0.0,0.0,1.0,10.0,7.875)"><text id="ProcessOnText1062" fill="#000000" font-size="13" x="69.0" y="13.325" font-family="微软雅黑" font-weight="normal" font-style="normal" text-decoration="none" family="微软雅黑" text-anchor="middle" size="13">Etcd</text></g></g><g id="ProcessOnG1063" transform="matrix(1.0,0.0,0.0,1.0,211.0,52.0)" opacity="1.0"><path id="ProcessOnPath1064" d="M0.0 0.0L380.0 0.0L380.0 32.0L0.0 32.0Z" stroke="none" stroke-width="0.0" stroke-dasharray="none" opacity="1.0" fill="none"/><g id="ProcessOnG1065" transform="matrix(1.0,0.0,0.0,1.0,0.0,6.0)"><text id="ProcessOnText1066" fill="#000000" font-size="16" x="0.0" y="16.4" font-family="微软雅黑" font-weight="bold" font-style="normal" text-decoration="none" family="微软雅黑" text-anchor="start" size="16">kubernetes/pkg/master</text></g></g><g id="ProcessOnG1067" transform="matrix(1.0,0.0,0.0,1.0,564.0,204.0)" opacity="1.0"><path id="ProcessOnPath1068" d="M0.0 0.0L160.0 0.0L160.0 20.0L0.0 20.0Z" stroke="none" stroke-width="0.0" stroke-dasharray="none" opacity="1.0" fill="none"/><g id="ProcessOnG1069" transform="matrix(1.0,0.0,0.0,1.0,0.0,1.875)"><text id="ProcessOnText1070" fill="#000000" font-size="13" x="0.0" y="13.325" font-family="微软雅黑" font-weight="normal" font-style="normal" text-decoration="none" family="微软雅黑" text-anchor="start" size="13">ExtraConfig</text></g></g><g id="ProcessOnG1071" transform="matrix(1.0,0.0,0.0,1.0,564.0,224.0)" opacity="1.0"><path id="ProcessOnPath1072" d="M0.0 0.0L160.0 0.0L160.0 32.0L0.0 32.0Z" stroke="#323232" stroke-width="2.0" stroke-dasharray="none" opacity="1.0" fill="#ffffff"/><g id="ProcessOnG1073" transform="matrix(1.0,0.0,0.0,1.0,10.0,7.875)"><text id="ProcessOnText1074" fill="#000000" font-size="13" x="69.0" y="13.325" font-family="微软雅黑" font-weight="normal" font-style="normal" text-decoration="none" family="微软雅黑" text-anchor="middle" size="13">StorageFactory</text></g></g><g id="ProcessOnG1075"><path id="ProcessOnPath1076" d="M564.0 240.0C364.3621268680709 240.0 594.8954678049481 606.6395730409879 431.361695911422 721.147152872702" stroke="#323232" stroke-width="2.0" stroke-dasharray="none" fill="none" marker-end="url(#ProcessOnMarker1077)"/></g><g id="ProcessOnG1079" transform="matrix(1.0,0.0,0.0,1.0,641.0,438.0)" opacity="1.0"><path id="ProcessOnPath1080" d="M0.0 0.0L160.0 0.0L160.0 20.0L0.0 20.0Z" stroke="none" stroke-width="0.0" stroke-dasharray="none" opacity="1.0" fill="none"/><g id="ProcessOnG1081" transform="matrix(1.0,0.0,0.0,1.0,0.0,1.875)"><text id="ProcessOnText1082" fill="#000000" font-size="13" x="0.0" y="13.325" font-family="微软雅黑" font-weight="normal" font-style="normal" text-decoration="none" family="微软雅黑" text-anchor="start" size="13">completedConfig</text></g></g><g id="ProcessOnG1083" transform="matrix(1.0,0.0,0.0,1.0,641.0,458.0)" opacity="1.0"><path id="ProcessOnPath1084" d="M0.0 0.0L160.0 0.0L160.0 32.0L0.0 32.0Z" stroke="#323232" stroke-width="2.0" stroke-dasharray="none" opacity="1.0" fill="#ffffff"/></g><g id="ProcessOnG1085"><path id="ProcessOnPath1086" d="M641.0 474.0C617.777748673937 474.0 619.8163775155783 524.1096431330693 641.6381557247155 532.052120859954" stroke="#323232" stroke-width="2.0" stroke-dasharray="none" fill="none" marker-end="url(#ProcessOnMarker1087)"/></g><g id="ProcessOnG1089" transform="matrix(1.0,0.0,0.0,1.0,641.0,360.0)" opacity="1.0"><path id="ProcessOnPath1090" d="M0.0 0.0L160.0 0.0L160.0 20.0L0.0 20.0Z" stroke="none" stroke-width="0.0" stroke-dasharray="none" opacity="1.0" fill="none"/><g id="ProcessOnG1091" transform="matrix(1.0,0.0,0.0,1.0,0.0,1.875)"><text id="ProcessOnText1092" fill="#000000" font-size="13" x="0.0" y="13.325" font-family="微软雅黑" font-weight="normal" font-style="normal" text-decoration="none" family="微软雅黑" text-anchor="start" size="13">CompletedConfig</text></g></g><g id="ProcessOnG1093" transform="matrix(1.0,0.0,0.0,1.0,641.0,380.0)" opacity="1.0"><path id="ProcessOnPath1094" d="M0.0 0.0L160.0 0.0L160.0 32.0L0.0 32.0Z" stroke="#323232" stroke-width="2.0" stroke-dasharray="none" opacity="1.0" fill="#ffffff"/></g><g id="ProcessOnG1095"><path id="ProcessOnPath1096" d="M801.0 396.0C825.9392693852726 396.0 811.9696346926363 436.7320861794526 799.5 458.3301270189222" stroke="#323232" stroke-width="2.0" stroke-dasharray="none" fill="none" marker-end="url(#ProcessOnMarker1097)"/></g><g id="ProcessOnG1099" transform="matrix(1.0,0.0,0.0,1.0,257.0,108.0)" opacity="1.0"><path id="ProcessOnPath1100" d="M0.0 0.0L160.0 0.0L160.0 20.0L0.0 20.0Z" stroke="none" stroke-width="0.0" stroke-dasharray="none" opacity="1.0" fill="none"/><g id="ProcessOnG1101" transform="matrix(1.0,0.0,0.0,1.0,0.0,1.875)"><text id="ProcessOnText1102" fill="#000000" font-size="13" x="0.0" y="13.325" font-family="微软雅黑" font-weight="normal" font-style="normal" text-decoration="none" family="微软雅黑" text-anchor="start" size="13">completedConfig</text></g></g><g id="ProcessOnG1103" transform="matrix(1.0,0.0,0.0,1.0,257.0,128.0)" opacity="1.0"><path id="ProcessOnPath1104" d="M0.0 0.0L160.0 0.0L160.0 32.0L0.0 32.0Z" stroke="#323232" stroke-width="2.0" stroke-dasharray="none" opacity="1.0" fill="#ffffff"/><g id="ProcessOnG1105" transform="matrix(1.0,0.0,0.0,1.0,10.0,7.875)"><text id="ProcessOnText1106" fill="#000000" font-size="13" x="69.0" y="13.325" font-family="微软雅黑" font-weight="normal" font-style="normal" text-decoration="none" family="微软雅黑" text-anchor="middle" size="13">GenericConfig</text></g></g><g id="ProcessOnG1107" transform="matrix(1.0,0.0,0.0,1.0,257.0,160.0)" opacity="1.0"><path id="ProcessOnPath1108" d="M0.0 0.0L160.0 0.0L160.0 32.0L0.0 32.0Z" stroke="#323232" stroke-width="2.0" stroke-dasharray="none" opacity="1.0" fill="#ffffff"/><g id="ProcessOnG1109" transform="matrix(1.0,0.0,0.0,1.0,10.0,7.875)"><text id="ProcessOnText1110" fill="#000000" font-size="13" x="69.0" y="13.325" font-family="微软雅黑" font-weight="normal" font-style="normal" text-decoration="none" family="微软雅黑" text-anchor="middle" size="13">ExtraConfig</text></g></g><g id="ProcessOnG1111"><path id="ProcessOnPath1112" d="M417.0 176.0C479.0643362134178 176.0 520.5281005560236 180.5281005560236 564.4142135623731 224.4142135623731" stroke="#323232" stroke-width="2.0" stroke-dasharray="none" fill="none" marker-end="url(#ProcessOnMarker1113)"/></g><g id="ProcessOnG1115"><path id="ProcessOnPath1116" d="M417.0 144.0C547.7183600646465 143.99999999999997 522.9667790869701 326.29174346232844 641.4378467222199 381.53570957044417" stroke="#323232" stroke-width="2.0" stroke-dasharray="none" fill="none" marker-end="url(#ProcessOnMarker1117)"/></g><g id="ProcessOnG1119"><path id="ProcessOnPath1120" d="M201.5 299.0L563.75 299.0L563.75 299.0L926.0 299.0" stroke="#323232" stroke-width="2.0" stroke-dasharray="10.0 4.0" fill="none"/></g><g id="ProcessOnG1121"><path id="ProcessOnPath1122" d="M202.5 591.0L564.75 591.0L564.75 591.0L927.0 591.0" stroke="#323232" stroke-width="2.0" stroke-dasharray="10.0 4.0" fill="none"/></g><g id="ProcessOnG1123"><path id="ProcessOnPath1124" d="M543.0 301.5L543.0 443.25L543.0 443.25L543.0 585.0" stroke="#323232" stroke-width="2.0" stroke-dasharray="10.0 4.0" fill="none"/></g><g id="ProcessOnG1125"><path id="ProcessOnPath1126" d="M544.0 598.5L544.0 740.25L544.0 740.25L544.0 882.0" stroke="#323232" stroke-width="2.0" stroke-dasharray="10.0 4.0" fill="none"/></g><g id="ProcessOnG1127"><path id="ProcessOnPath1128" d="M254.0 410.0C185.5170094110954 410.0 172.4 347.6 118.0 306.0" stroke="#ff6666" stroke-width="2.0" stroke-dasharray="10.0 4.0" fill="none" marker-start="url(#ProcessOnMarker1129)"/><g id="ProcessOnG1131" transform="matrix(1.0,0.0,0.0,1.0,180.71887852916078,365.475)"><path id="ProcessOnPath1132" d="M0 0H16.0V16.25H0Z" fill="#fff" transform="matrix(1.0,0.0,0.0,1.0,-8.0,0.0)"/><text id="ProcessOnText1133" fill="#ff6666" font-size="13" x="0.0" y="13.325" font-family="微软雅黑" font-weight="normal" font-style="normal" text-decoration="none" family="微软雅黑" text-anchor="middle" size="13">(1)</text></g></g><g id="ProcessOnG1134"><path id="ProcessOnPath1135" d="M272.0 734.0C180.56783935616528 734.0 171.20000000000002 641.0 104.0 579.0" stroke="#ff6666" stroke-width="2.0" stroke-dasharray="10.0 4.0" fill="none" marker-start="url(#ProcessOnMarker1136)"/><g id="ProcessOnG1138" transform="matrix(1.0,0.0,0.0,1.0,178.912939758562,671.625)"><path id="ProcessOnPath1139" d="M0 0H126.0V16.25H0Z" fill="#fff" transform="matrix(1.0,0.0,0.0,1.0,-63.0,0.0)"/><text id="ProcessOnText1140" fill="#ff6666" font-size="13" x="0.0" y="13.325" font-family="微软雅黑" font-weight="normal" font-style="normal" text-decoration="none" family="微软雅黑" text-anchor="middle" size="13">(2) Create a instance</text></g></g><g id="ProcessOnG1141"><path id="ProcessOnPath1142" d="M352.0 750.0C352.0 868.9740588800985 583.5129705599508 585.429544233627 643.0 688.4641016151378" stroke="#ff6666" stroke-width="2.0" stroke-dasharray="10.0 4.0" fill="none" marker-end="url(#ProcessOnMarker1143)"/><g id="ProcessOnG1145" transform="matrix(1.0,0.0,0.0,1.0,475.19236395998155,717.0843638695393)"><path id="ProcessOnPath1146" d="M0 0H16.0V16.25H0Z" fill="#fff" transform="matrix(1.0,0.0,0.0,1.0,-8.0,0.0)"/><text id="ProcessOnText1147" fill="#ff6666" font-size="13" x="0.0" y="13.325" font-family="微软雅黑" font-weight="normal" font-style="normal" text-decoration="none" family="微软雅黑" text-anchor="middle" size="13">(3)</text></g></g><g id="ProcessOnG1148"><path id="ProcessOnPath1149" d="M414.0 410.0C572.8987098751907 410.0 482.10129012480934 736.0 641.0 736.0" stroke="#ff6666" stroke-width="2.0" stroke-dasharray="10.0 4.0" fill="none" marker-end="url(#ProcessOnMarker1150)"/><g id="ProcessOnG1152" transform="matrix(1.0,0.0,0.0,1.0,527.5,564.875)"><path id="ProcessOnPath1153" d="M0 0H130.0V16.25H0Z" fill="#fff" transform="matrix(1.0,0.0,0.0,1.0,-65.0,0.0)"/><text id="ProcessOnText1154" fill="#ff6666" font-size="13" x="0.0" y="13.325" font-family="微软雅黑" font-weight="normal" font-style="normal" text-decoration="none" family="微软雅黑" text-anchor="middle" size="13">(3) Save etcd options</text></g></g><g id="ProcessOnG1155"><path id="ProcessOnPath1156" d="M800.3015368960705 748.2898992833717C881.9333385523412 778.0014452557766 879.2000972130644 494.3999264337027 800.4684610648168 531.1130913087035" stroke="#ff6666" stroke-width="2.0" stroke-dasharray="10.0 4.0" fill="none" marker-end="url(#ProcessOnMarker1157)"/><g id="ProcessOnG1159" transform="matrix(1.0,0.0,0.0,1.0,860.5212881571379,628.9508882075642)"><path id="ProcessOnPath1160" d="M0 0H122.0V16.25H0Z" fill="#fff" transform="matrix(1.0,0.0,0.0,1.0,-61.0,0.0)"/><text id="ProcessOnText1161" fill="#ff6666" font-size="13" x="0.0" y="13.325" font-family="微软雅黑" font-weight="normal" font-style="normal" text-decoration="none" family="微软雅黑" text-anchor="middle" size="13">(4) Saved on Config</text></g></g><g id="ProcessOnG1162"><path id="ProcessOnPath1163" d="M272.9283628290596 718.2981333293569C132.31947661610718 550.7269880344004 423.89062705485355 423.2088341931238 564.4995132678058 255.63768889816714" stroke="#ff6666" stroke-width="2.0" stroke-dasharray="10.0 4.0" fill="none" marker-end="url(#ProcessOnMarker1164)"/><g id="ProcessOnG1166" transform="matrix(1.0,0.0,0.0,1.0,313.25727338871843,478.84291111376206)"><path id="ProcessOnPath1167" d="M0 0H153.0V16.25H0Z" fill="#fff" transform="matrix(1.0,0.0,0.0,1.0,-76.5,0.0)"/><text id="ProcessOnText1168" fill="#ff6666" font-size="13" x="0.0" y="13.325" font-family="微软雅黑" font-weight="normal" font-style="normal" text-decoration="none" family="微软雅黑" text-anchor="middle" size="13">(5) Saved on ExtraConfig</text></g></g><g id="ProcessOnG1169"><path id="ProcessOnPath1170" d="M690.0 224.0C690.0 108.31794722694092 516.8534694444791 71.65897361347051 416.6698729810778 129.5" stroke="#ff6666" stroke-width="2.0" stroke-dasharray="10.0 4.0" fill="none" marker-end="url(#ProcessOnMarker1171)"/><g id="ProcessOnG1173" transform="matrix(1.0,0.0,0.0,1.0,590.9037851643144,103.55384531515429)"><path id="ProcessOnPath1174" d="M0 0H16.0V16.25H0Z" fill="#fff" transform="matrix(1.0,0.0,0.0,1.0,-8.0,0.0)"/><text id="ProcessOnText1175" fill="#ff6666" font-size="13" x="0.0" y="13.325" font-family="微软雅黑" font-weight="normal" font-style="normal" text-decoration="none" family="微软雅黑" text-anchor="middle" size="13">(6)</text></g></g></g></g></svg>