<svg xmlns="http://www.w3.org/2000/svg" xmlns:xlink="http://www.w3.org/1999/xlink" id="processonSvg1000" viewBox="-70.0 -114.57545390538382 1210.0 1030.5754539053837" width="1210.0" height="1030.5754539053837"><defs id="ProcessOnDefs1001"><marker id="ProcessOnMarker1029" markerUnits="userSpaceOnUse" orient="auto" markerWidth="13.144543434498276" markerHeight="18.246037666503607" viewBox="-0.29389262614623657 -0.4045084971874737 13.144543434498276 18.246037666503607" refX="12.0" refY="8.71851033606433"><path id="ProcessOnPath1030" d="M0 0L12.0 8.71851033606433L0 17.43702067212866" stroke="#ffb366" stroke-width="1.0" fill="none" transform="matrix(1.0,0.0,0.0,1.0,0.0,0.0)"/></marker><marker id="ProcessOnMarker1052" markerUnits="userSpaceOnUse" orient="auto" markerWidth="13.144543434498276" markerHeight="18.246037666503607" viewBox="-0.29389262614623657 -0.4045084971874737 13.144543434498276 18.246037666503607" refX="12.0" refY="8.71851033606433"><path id="ProcessOnPath1053" d="M0 0L12.0 8.71851033606433L0 17.43702067212866" stroke="#ffb366" stroke-width="1.0" fill="none" transform="matrix(1.0,0.0,0.0,1.0,0.0,0.0)"/></marker><marker id="ProcessOnMarker1059" markerUnits="userSpaceOnUse" orient="auto" markerWidth="13.144543434498276" markerHeight="18.246037666503607" viewBox="-0.29389262614623657 -0.4045084971874737 13.144543434498276 18.246037666503607" refX="12.0" refY="8.71851033606433"><path id="ProcessOnPath1060" d="M0 0L12.0 8.71851033606433L0 17.43702067212866" stroke="#66ffff" stroke-width="1.0" fill="none" transform="matrix(1.0,0.0,0.0,1.0,0.0,0.0)"/></marker><marker id="ProcessOnMarker1066" markerUnits="userSpaceOnUse" orient="auto" markerWidth="13.144543434498276" markerHeight="18.246037666503607" viewBox="-0.29389262614623657 -0.4045084971874737 13.144543434498276 18.246037666503607" refX="12.0" refY="8.71851033606433"><path id="ProcessOnPath1067" d="M0 0L12.0 8.71851033606433L0 17.43702067212866" stroke="#66ffff" stroke-width="1.0" fill="none" transform="matrix(1.0,0.0,0.0,1.0,0.0,0.0)"/></marker><marker id="ProcessOnMarker1077" markerUnits="userSpaceOnUse" orient="auto" markerWidth="13.144543434498276" markerHeight="18.246037666503607" viewBox="-0.29389262614623657 -0.4045084971874737 13.144543434498276 18.246037666503607" refX="12.0" refY="8.71851033606433"><path id="ProcessOnPath1078" d="M0 0L12.0 8.71851033606433L0 17.43702067212866" stroke="#ff6666" stroke-width="1.0" fill="none" transform="matrix(1.0,0.0,0.0,1.0,0.0,0.0)"/></marker><marker id="ProcessOnMarker1096" markerUnits="userSpaceOnUse" orient="auto" markerWidth="13.144543434498276" markerHeight="18.246037666503607" viewBox="-0.29389262614623657 -0.4045084971874737 13.144543434498276 18.246037666503607" refX="12.0" refY="8.71851033606433"><path id="ProcessOnPath1097" d="M0 0L12.0 8.71851033606433L0 17.43702067212866" stroke="#ff6666" stroke-width="1.0" fill="none" transform="matrix(1.0,0.0,0.0,1.0,0.0,0.0)"/></marker><marker id="ProcessOnMarker1103" markerUnits="userSpaceOnUse" orient="auto" markerWidth="13.144543434498276" markerHeight="18.246037666503607" viewBox="-0.29389262614623657 -0.4045084971874737 13.144543434498276 18.246037666503607" refX="12.0" refY="8.71851033606433"><path id="ProcessOnPath1104" d="M0 0L12.0 8.71851033606433L0 17.43702067212866" stroke="#ff6666" stroke-width="1.0" fill="none" transform="matrix(1.0,0.0,0.0,1.0,0.0,0.0)"/></marker><marker id="ProcessOnMarker1110" markerUnits="userSpaceOnUse" orient="auto" markerWidth="13.144543434498276" markerHeight="18.246037666503607" viewBox="-0.29389262614623657 -0.4045084971874737 13.144543434498276 18.246037666503607" refX="12.0" refY="8.71851033606433"><path id="ProcessOnPath1111" d="M0 0L12.0 8.71851033606433L0 17.43702067212866" stroke="#323232" stroke-width="1.0" fill="none" transform="matrix(1.0,0.0,0.0,1.0,0.0,0.0)"/></marker><marker id="ProcessOnMarker1117" markerUnits="userSpaceOnUse" orient="auto" markerWidth="13.144543434498276" markerHeight="18.246037666503607" viewBox="-0.29389262614623657 -0.4045084971874737 13.144543434498276 18.246037666503607" refX="12.0" refY="8.71851033606433"><path id="ProcessOnPath1118" d="M0 0L12.0 8.71851033606433L0 17.43702067212866" stroke="#323232" stroke-width="1.0" fill="none" transform="matrix(1.0,0.0,0.0,1.0,0.0,0.0)"/></marker><marker id="ProcessOnMarker1140" markerUnits="userSpaceOnUse" orient="auto" markerWidth="13.144543434498276" markerHeight="18.246037666503607" viewBox="-0.29389262614623657 -0.4045084971874737 13.144543434498276 18.246037666503607" refX="12.0" refY="8.71851033606433"><path id="ProcessOnPath1141" d="M0 0L12.0 8.71851033606433L0 17.43702067212866" stroke="#323232" stroke-width="1.0" fill="none" transform="matrix(1.0,0.0,0.0,1.0,0.0,0.0)"/></marker><marker id="ProcessOnMarker1159" markerUnits="userSpaceOnUse" orient="auto" markerWidth="13.144543434498276" markerHeight="18.246037666503607" viewBox="-0.29389262614623657 -0.4045084971874737 13.144543434498276 18.246037666503607" refX="12.0" refY="8.71851033606433"><path id="ProcessOnPath1160" d="M0 0L12.0 8.71851033606433L0 17.43702067212866" stroke="#323232" stroke-width="1.0" fill="none" transform="matrix(1.0,0.0,0.0,1.0,0.0,0.0)"/></marker><marker id="ProcessOnMarker1175" markerUnits="userSpaceOnUse" orient="auto" markerWidth="13.144543434498276" markerHeight="18.246037666503607" viewBox="-0.29389262614623657 -0.4045084971874737 13.144543434498276 18.246037666503607" refX="12.0" refY="8.71851033606433"><path id="ProcessOnPath1176" d="M0 0L12.0 8.71851033606433L0 17.43702067212866" stroke="#323232" stroke-width="1.0" fill="none" transform="matrix(1.0,0.0,0.0,1.0,0.0,0.0)"/></marker><marker id="ProcessOnMarker1187" markerUnits="userSpaceOnUse" orient="auto" markerWidth="13.144543434498276" markerHeight="18.246037666503607" viewBox="-0.29389262614623657 -0.4045084971874737 13.144543434498276 18.246037666503607" refX="12.0" refY="8.71851033606433"><path id="ProcessOnPath1188" d="M0 0L12.0 8.71851033606433L0 17.43702067212866" stroke="#323232" stroke-width="1.0" fill="none" transform="matrix(1.0,0.0,0.0,1.0,0.0,0.0)"/></marker></defs><g id="ProcessOnG1002"><path id="ProcessOnPath1003" d="M-70.0 -114.57545390538382H1140.0V915.9999999999999H-70.0V-114.57545390538382Z" fill="none"/><g id="ProcessOnG1004"><g id="ProcessOnG1005" transform="matrix(1.0,0.0,0.0,1.0,40.0,369.0)" opacity="1.0"><path id="ProcessOnPath1006" d="M0.0 0.0L111.0 0.0L111.0 22.0L0.0 22.0Z" stroke="none" stroke-width="0.0" stroke-dasharray="none" opacity="1.0" fill="none"/><g id="ProcessOnG1007" transform="matrix(1.0,0.0,0.0,1.0,0.0,2.875)"><text id="ProcessOnText1008" fill="#000000" font-size="13" x="54.5" y="13.325" font-family="微软雅黑" font-weight="normal" font-style="normal" text-decoration="none" family="微软雅黑" text-anchor="middle" size="13">watch.Interface</text></g></g><g id="ProcessOnG1009" transform="matrix(1.0,0.0,0.0,1.0,454.0,92.0)" opacity="1.0"><path id="ProcessOnPath1010" d="M0.0 0.0L150.0 0.0L150.0 32.0L0.0 32.0Z" stroke="#323232" stroke-width="2.0" stroke-dasharray="10.0 4.0" opacity="1.0" fill="#ffffff"/><g id="ProcessOnG1011" transform="matrix(1.0,0.0,0.0,1.0,10.0,7.875)"><text id="ProcessOnText1012" fill="#000000" font-size="13" x="64.0" y="13.325" font-family="微软雅黑" font-weight="normal" font-style="normal" text-decoration="none" family="微软雅黑" text-anchor="middle" size="13">EventBroadcaster</text></g></g><g id="ProcessOnG1013" transform="matrix(1.0,0.0,0.0,1.0,50.0,391.0)" opacity="1.0"><path id="ProcessOnPath1014" d="M0.0 0.0L200.0 0.0L200.0 39.0L0.0 39.0Z" stroke="#323232" stroke-width="2.0" stroke-dasharray="10.0 4.0" opacity="1.0" fill="#ffffff"/><g id="ProcessOnG1015" transform="matrix(1.0,0.0,0.0,1.0,10.0,11.375)"><text id="ProcessOnText1016" fill="#000000" font-size="13" x="89.0" y="13.325" font-family="微软雅黑" font-weight="normal" font-style="normal" text-decoration="none" family="微软雅黑" text-anchor="middle" size="13">Stop()</text></g></g><g id="ProcessOnG1017"><path id="ProcessOnPath1018" d="M27.0 305.0L573.5 305.0L573.5 305.0L1120.0 305.0" stroke="#323232" stroke-width="2.0" stroke-dasharray="10.0 4.0" fill="none"/></g><g id="ProcessOnG1019" transform="matrix(1.0,0.0,0.0,1.0,23.0,319.0)" opacity="1.0"><path id="ProcessOnPath1020" d="M0.0 0.0L157.0 0.0L157.0 24.0L0.0 24.0Z" stroke="none" stroke-width="0.0" stroke-dasharray="none" opacity="1.0" fill="none"/><g id="ProcessOnG1021" transform="matrix(1.0,0.0,0.0,1.0,0.0,3.875)"><text id="ProcessOnText1022" fill="#000000" font-size="13" x="77.5" y="13.325" font-family="微软雅黑" font-weight="normal" font-style="normal" text-decoration="none" family="微软雅黑" text-anchor="middle" size="13">k8s.io/apimachinery/pkg</text></g></g><g id="ProcessOnG1023" transform="matrix(1.0,0.0,0.0,1.0,23.0,24.0)" opacity="1.0"><path id="ProcessOnPath1024" d="M0.0 0.0L108.0 0.0L108.0 21.0L0.0 21.0Z" stroke="none" stroke-width="0.0" stroke-dasharray="none" opacity="1.0" fill="none"/><g id="ProcessOnG1025" transform="matrix(1.0,0.0,0.0,1.0,0.0,2.375)"><text id="ProcessOnText1026" fill="#000000" font-size="13" x="53.0" y="13.325" font-family="微软雅黑" font-weight="normal" font-style="normal" text-decoration="none" family="微软雅黑" text-anchor="middle" size="13">k8s.io/client-go</text></g></g><g id="ProcessOnG1027"><path id="ProcessOnPath1028" d="M454.0 108.0C287.8651150420237 108.0 150.00000000000003 224.86511504202375 150.0 391.0" stroke="#ffb366" stroke-width="1.0" stroke-dasharray="5.0 2.0" fill="none" marker-end="url(#ProcessOnMarker1029)"/><g id="ProcessOnG1031" transform="matrix(1.0,0.0,0.0,1.0,239.6994181407589,179.0744181407589)"><path id="ProcessOnPath1032" d="M0 0H116.0V16.25H0Z" fill="#fff" transform="matrix(1.0,0.0,0.0,1.0,-58.0,0.0)"/><text id="ProcessOnText1033" fill="#000000" font-size="13" x="0.0" y="13.325" font-family="微软雅黑" font-weight="normal" font-style="normal" text-decoration="none" family="微软雅黑" text-anchor="middle" size="13">StartEventWatcher</text></g></g><g id="ProcessOnG1034"><path id="ProcessOnPath1035" d="M517.0 314.0L517.0 896.0" stroke="#323232" stroke-width="2.0" stroke-dasharray="10.0 4.0" fill="none"/></g><g id="ProcessOnG1036" transform="matrix(1.0,0.0,0.0,1.0,977.0,312.0)" opacity="1.0"><path id="ProcessOnPath1037" d="M0.0 0.0L86.0 0.0L86.0 22.0L0.0 22.0Z" stroke="none" stroke-width="0.0" stroke-dasharray="none" opacity="1.0" fill="none"/><g id="ProcessOnG1038" transform="matrix(1.0,0.0,0.0,1.0,0.0,2.875)"><text id="ProcessOnText1039" fill="#000000" font-size="13" x="42.0" y="13.325" font-family="微软雅黑" font-weight="normal" font-style="normal" text-decoration="none" family="微软雅黑" text-anchor="middle" size="13">k8s.io/api</text></g></g><g id="ProcessOnG1040" transform="matrix(1.0,0.0,0.0,1.0,573.0,398.0)" opacity="1.0"><path id="ProcessOnPath1041" d="M0.0 0.0L120.0 0.0L120.0 32.0L0.0 32.0Z" stroke="#323232" stroke-width="2.0" stroke-dasharray="none" opacity="1.0" fill="#ffffff"/></g><g id="ProcessOnG1042" transform="matrix(1.0,0.0,0.0,1.0,573.0,376.0)" opacity="1.0"><path id="ProcessOnPath1043" d="M0.0 0.0L65.0 0.0L65.0 22.0L0.0 22.0Z" stroke="none" stroke-width="0.0" stroke-dasharray="none" opacity="1.0" fill="none"/><g id="ProcessOnG1044" transform="matrix(1.0,0.0,0.0,1.0,0.0,2.875)"><text id="ProcessOnText1045" fill="#000000" font-size="13" x="31.5" y="13.325" font-family="微软雅黑" font-weight="normal" font-style="normal" text-decoration="none" family="微软雅黑" text-anchor="middle" size="13">v1.Event</text></g></g><g id="ProcessOnG1046" transform="matrix(1.0,0.0,0.0,1.0,723.0,92.0)" opacity="1.0"><path id="ProcessOnPath1047" d="M0.0 0.0L150.0 0.0L150.0 32.0L0.0 32.0Z" stroke="#323232" stroke-width="2.0" stroke-dasharray="10.0 4.0" opacity="1.0" fill="#ffffff"/><g id="ProcessOnG1048" transform="matrix(1.0,0.0,0.0,1.0,10.0,7.875)"><text id="ProcessOnText1049" fill="#000000" font-size="13" x="64.0" y="13.325" font-family="微软雅黑" font-weight="normal" font-style="normal" text-decoration="none" family="微软雅黑" text-anchor="middle" size="13">EventSink</text></g></g><g id="ProcessOnG1050"><path id="ProcessOnPath1051" d="M573.0 414.0C441.6701861723698 414.0 322.6701861723698 108.0 454.0 108.0" stroke="#ffb366" stroke-width="1.0" stroke-dasharray="5.0 2.0" fill="none" marker-end="url(#ProcessOnMarker1052)"/><g id="ProcessOnG1054" transform="matrix(1.0,0.0,0.0,1.0,415.0026396292774,252.875)"><path id="ProcessOnPath1055" d="M0 0H94.0V16.25H0Z" fill="#fff" transform="matrix(1.0,0.0,0.0,1.0,-47.0,0.0)"/><text id="ProcessOnText1056" fill="#000000" font-size="13" x="0.0" y="13.325" font-family="微软雅黑" font-weight="normal" font-style="normal" text-decoration="none" family="微软雅黑" text-anchor="middle" size="13">func(*v1.Event)</text></g></g><g id="ProcessOnG1057"><path id="ProcessOnPath1058" d="M529.0 92.0C529.0 -94.57545390538382 171.0 204.42454609461618 171.0 391.0" stroke="#66ffff" stroke-width="1.0" stroke-dasharray="5.0 2.0" fill="none" marker-end="url(#ProcessOnMarker1059)"/><g id="ProcessOnG1061" transform="matrix(1.0,0.0,0.0,1.0,350.0,93.44340957096213)"><path id="ProcessOnPath1062" d="M0 0H133.0V16.25H0Z" fill="#fff" transform="matrix(1.0,0.0,0.0,1.0,-66.5,0.0)"/><text id="ProcessOnText1063" fill="#000000" font-size="13" x="0.0" y="13.325" font-family="微软雅黑" font-weight="normal" font-style="normal" text-decoration="none" family="微软雅黑" text-anchor="middle" size="13">StartRecordingToSink</text></g></g><g id="ProcessOnG1064"><path id="ProcessOnPath1065" d="M723.0 108.0C645.1365297459714 108.0 529.0 14.136529745971373 529.0 92.0" stroke="#66ffff" stroke-width="1.0" stroke-dasharray="5.0 2.0" fill="none" marker-end="url(#ProcessOnMarker1066)"/><g id="ProcessOnG1068" transform="matrix(1.0,0.0,0.0,1.0,596.8011986547392,62.67619865473927)"><path id="ProcessOnPath1069" d="M0 0H60.0V16.25H0Z" fill="#fff" transform="matrix(1.0,0.0,0.0,1.0,-30.0,0.0)"/><text id="ProcessOnText1070" fill="#000000" font-size="13" x="0.0" y="13.325" font-family="微软雅黑" font-weight="normal" font-style="normal" text-decoration="none" family="微软雅黑" text-anchor="middle" size="13">argument</text></g></g><g id="ProcessOnG1071" transform="matrix(1.0,0.0,0.0,1.0,702.0,180.0)" opacity="1.0"><path id="ProcessOnPath1072" d="M0.0 0.0L150.0 0.0L150.0 32.0L0.0 32.0Z" stroke="#323232" stroke-width="2.0" stroke-dasharray="10.0 4.0" opacity="1.0" fill="#ffffff"/><g id="ProcessOnG1073" transform="matrix(1.0,0.0,0.0,1.0,10.0,7.875)"><text id="ProcessOnText1074" fill="#000000" font-size="13" x="64.0" y="13.325" font-family="微软雅黑" font-weight="normal" font-style="normal" text-decoration="none" family="微软雅黑" text-anchor="middle" size="13">EventRecorder</text></g></g><g id="ProcessOnG1075"><path id="ProcessOnPath1076" d="M529.0 124.0C529.0 198.95385246936945 627.0461475306306 196.0 702.0 196.0" stroke="#ff6666" stroke-width="1.0" stroke-dasharray="5.0 2.0" fill="none" marker-end="url(#ProcessOnMarker1077)"/><g id="ProcessOnG1079" transform="matrix(1.0,0.0,0.0,1.0,587.3923053239864,179.98269467601355)"><path id="ProcessOnPath1080" d="M0 0H83.0V16.25H0Z" fill="#fff" transform="matrix(1.0,0.0,0.0,1.0,-41.5,0.0)"/><text id="ProcessOnText1081" fill="#000000" font-size="13" x="0.0" y="13.325" font-family="微软雅黑" font-weight="normal" font-style="normal" text-decoration="none" family="微软雅黑" text-anchor="middle" size="13">NewRecorder</text></g></g><g id="ProcessOnG1082" transform="matrix(1.0,0.0,0.0,1.0,315.0,391.0)" opacity="1.0"><path id="ProcessOnPath1083" d="M0.0 0.0L120.0 0.0L120.0 32.0L0.0 32.0Z" stroke="#323232" stroke-width="2.0" stroke-dasharray="none" opacity="1.0" fill="#ffffff"/></g><g id="ProcessOnG1084" transform="matrix(1.0,0.0,0.0,1.0,312.0,369.0)" opacity="1.0"><path id="ProcessOnPath1085" d="M0.0 0.0L111.0 0.0L111.0 22.0L0.0 22.0Z" stroke="none" stroke-width="0.0" stroke-dasharray="none" opacity="1.0" fill="none"/><g id="ProcessOnG1086" transform="matrix(1.0,0.0,0.0,1.0,0.0,2.875)"><text id="ProcessOnText1087" fill="#000000" font-size="13" x="54.5" y="13.325" font-family="微软雅黑" font-weight="normal" font-style="normal" text-decoration="none" family="微软雅黑" text-anchor="middle" size="13">runtime.Scheme</text></g></g><g id="ProcessOnG1088" transform="matrix(1.0,0.0,0.0,1.0,782.0,398.0)" opacity="1.0"><path id="ProcessOnPath1089" d="M0.0 0.0L120.0 0.0L120.0 32.0L0.0 32.0Z" stroke="#323232" stroke-width="2.0" stroke-dasharray="none" opacity="1.0" fill="#ffffff"/></g><g id="ProcessOnG1090" transform="matrix(1.0,0.0,0.0,1.0,782.0,376.0)" opacity="1.0"><path id="ProcessOnPath1091" d="M0.0 0.0L105.0 0.0L105.0 22.0L0.0 22.0Z" stroke="none" stroke-width="0.0" stroke-dasharray="none" opacity="1.0" fill="none"/><g id="ProcessOnG1092" transform="matrix(1.0,0.0,0.0,1.0,0.0,2.875)"><text id="ProcessOnText1093" fill="#000000" font-size="13" x="51.5" y="13.325" font-family="微软雅黑" font-weight="normal" font-style="normal" text-decoration="none" family="微软雅黑" text-anchor="middle" size="13">v1.EventSource</text></g></g><g id="ProcessOnG1094"><path id="ProcessOnPath1095" d="M435.0 407.0C554.2811804099875 407.0 430.0 206.0 529.0 124.0" stroke="#ff6666" stroke-width="1.0" stroke-dasharray="5.0 2.0" fill="none" marker-end="url(#ProcessOnMarker1096)"/><g id="ProcessOnG1098" transform="matrix(1.0,0.0,0.0,1.0,489.60544265374534,288.125)"><path id="ProcessOnPath1099" d="M0 0H59.99999999999994V16.25H0Z" fill="#fff" transform="matrix(1.0,0.0,0.0,1.0,-29.99999999999997,0.0)"/><text id="ProcessOnText1100" fill="#000000" font-size="13" x="0.0" y="13.325" font-family="微软雅黑" font-weight="normal" font-style="normal" text-decoration="none" family="微软雅黑" text-anchor="middle" size="13">argument</text></g></g><g id="ProcessOnG1101"><path id="ProcessOnPath1102" d="M782.0 414.0C628.0602715346035 414.0 529.0 277.93972846539646 529.0 124.0" stroke="#ff6666" stroke-width="1.0" stroke-dasharray="5.0 2.0" fill="none" marker-end="url(#ProcessOnMarker1103)"/><g id="ProcessOnG1105" transform="matrix(1.0,0.0,0.0,1.0,597.7726018254764,318.60239817452367)"><path id="ProcessOnPath1106" d="M0 0H60.0V16.25H0Z" fill="#fff" transform="matrix(1.0,0.0,0.0,1.0,-30.0,0.0)"/><text id="ProcessOnText1107" fill="#000000" font-size="13" x="0.0" y="13.325" font-family="微软雅黑" font-weight="normal" font-style="normal" text-decoration="none" family="微软雅黑" text-anchor="middle" size="13">argument</text></g></g><g id="ProcessOnG1108"><path id="ProcessOnPath1109" d="M703.5 180.33012701892218C680.2381562156927 140.03943170677172 625.2618437843073 163.8265936970127 602.0 123.53589838486224" stroke="#323232" stroke-width="1.0" stroke-dasharray="5.0 2.0" fill="none" marker-end="url(#ProcessOnMarker1110)"/><g id="ProcessOnG1112" transform="matrix(1.0,0.0,0.0,1.0,652.75,143.8080127018922)"><path id="ProcessOnPath1113" d="M0 0H67.0V16.25H0Z" fill="#fff" transform="matrix(1.0,0.0,0.0,1.0,-33.5,0.0)"/><text id="ProcessOnText1114" fill="#000000" font-size="13" x="0.0" y="13.325" font-family="微软雅黑" font-weight="normal" font-style="normal" text-decoration="none" family="微软雅黑" text-anchor="middle" size="13">send event</text></g></g><g id="ProcessOnG1115"><path id="ProcessOnPath1116" d="M873.0 108.0C1027.0 291.0 624.0 277.0 650.0 398.0" stroke="#323232" stroke-width="1.0" stroke-dasharray="5.0 2.0" fill="none" marker-end="url(#ProcessOnMarker1117)"/><g id="ProcessOnG1119" transform="matrix(1.0,0.0,0.0,1.0,809.5,268.125)"><path id="ProcessOnPath1120" d="M0 0H75.0V16.25H0Z" fill="#fff" transform="matrix(1.0,0.0,0.0,1.0,-37.5,0.0)"/><text id="ProcessOnText1121" fill="#000000" font-size="13" x="0.0" y="13.325" font-family="微软雅黑" font-weight="normal" font-style="normal" text-decoration="none" family="微软雅黑" text-anchor="middle" size="13">store events</text></g></g><g id="ProcessOnG1122" transform="matrix(1.0,0.0,0.0,1.0,50.0,423.0)" opacity="1.0"><path id="ProcessOnPath1123" d="M0.0 0.0L200.0 0.0L200.0 32.0L0.0 32.0Z" stroke="#323232" stroke-width="2.0" stroke-dasharray="10.0 4.0" opacity="1.0" fill="#ffffff"/><g id="ProcessOnG1124" transform="matrix(1.0,0.0,0.0,1.0,10.0,7.875)"><text id="ProcessOnText1125" fill="#000000" font-size="13" x="89.0" y="13.325" font-family="微软雅黑" font-weight="normal" font-style="normal" text-decoration="none" family="微软雅黑" text-anchor="middle" size="13">ResultChan() &lt;-chan Event</text></g></g><g id="ProcessOnG1126" transform="matrix(1.0,0.0,0.0,1.0,368.0,552.0)" opacity="1.0"><path id="ProcessOnPath1127" d="M0.0 0.0L120.0 0.0L120.0 32.0L0.0 32.0Z" stroke="#323232" stroke-width="2.0" stroke-dasharray="none" opacity="1.0" fill="#ffffff"/><g id="ProcessOnG1128" transform="matrix(1.0,0.0,0.0,1.0,10.0,7.875)"><text id="ProcessOnText1129" fill="#000000" font-size="13" x="49.0" y="13.325" font-family="微软雅黑" font-weight="normal" font-style="normal" text-decoration="none" family="微软雅黑" text-anchor="middle" size="13">Type</text></g></g><g id="ProcessOnG1130" transform="matrix(1.0,0.0,0.0,1.0,365.0,530.0)" opacity="1.0"><path id="ProcessOnPath1131" d="M0.0 0.0L86.0 0.0L86.0 22.0L0.0 22.0Z" stroke="none" stroke-width="0.0" stroke-dasharray="none" opacity="1.0" fill="none"/><g id="ProcessOnG1132" transform="matrix(1.0,0.0,0.0,1.0,0.0,2.875)"><text id="ProcessOnText1133" fill="#000000" font-size="13" x="42.0" y="13.325" font-family="微软雅黑" font-weight="normal" font-style="normal" text-decoration="none" family="微软雅黑" text-anchor="middle" size="13">watch.Event</text></g></g><g id="ProcessOnG1134" transform="matrix(1.0,0.0,0.0,1.0,368.0,584.0)" opacity="1.0"><path id="ProcessOnPath1135" d="M0.0 0.0L120.0 0.0L120.0 32.0L0.0 32.0Z" stroke="#323232" stroke-width="2.0" stroke-dasharray="none" opacity="1.0" fill="#ffffff"/><g id="ProcessOnG1136" transform="matrix(1.0,0.0,0.0,1.0,10.0,7.875)"><text id="ProcessOnText1137" fill="#000000" font-size="13" x="49.0" y="13.325" font-family="微软雅黑" font-weight="normal" font-style="normal" text-decoration="none" family="微软雅黑" text-anchor="middle" size="13">Object</text></g></g><g id="ProcessOnG1138"><path id="ProcessOnPath1139" d="M368.0 568.0C298.0686050475182 568.0 319.9313949524818 439.0 250.0 439.0" stroke="#323232" stroke-width="1.0" stroke-dasharray="5.0 2.0" fill="none" marker-end="url(#ProcessOnMarker1140)"/><g id="ProcessOnG1142" transform="matrix(1.0,0.0,0.0,1.0,309.0,495.375)"><path id="ProcessOnPath1143" d="M0 0H108.0V16.25H0Z" fill="#fff" transform="matrix(1.0,0.0,0.0,1.0,-54.0,0.0)"/><text id="ProcessOnText1144" fill="#000000" font-size="13" x="0.0" y="13.325" font-family="微软雅黑" font-weight="normal" font-style="normal" text-decoration="none" family="微软雅黑" text-anchor="middle" size="13">accessed by chan</text></g></g><g id="ProcessOnG1145" transform="matrix(1.0,0.0,0.0,1.0,53.0,552.0)" opacity="1.0"><path id="ProcessOnPath1146" d="M0.0 0.0L111.0 0.0L111.0 22.0L0.0 22.0Z" stroke="none" stroke-width="0.0" stroke-dasharray="none" opacity="1.0" fill="none"/><g id="ProcessOnG1147" transform="matrix(1.0,0.0,0.0,1.0,0.0,2.875)"><text id="ProcessOnText1148" fill="#000000" font-size="13" x="54.5" y="13.325" font-family="微软雅黑" font-weight="normal" font-style="normal" text-decoration="none" family="微软雅黑" text-anchor="middle" size="13">runtime.Object</text></g></g><g id="ProcessOnG1149" transform="matrix(1.0,0.0,0.0,1.0,63.0,574.0)" opacity="1.0"><path id="ProcessOnPath1150" d="M0.0 0.0L200.0 0.0L200.0 39.0L0.0 39.0Z" stroke="#323232" stroke-width="2.0" stroke-dasharray="10.0 4.0" opacity="1.0" fill="#ffffff"/><g id="ProcessOnG1151" transform="matrix(1.0,0.0,0.0,1.0,10.0,11.375)"><text id="ProcessOnText1152" fill="#000000" font-size="13" x="89.0" y="13.325" font-family="微软雅黑" font-weight="normal" font-style="normal" text-decoration="none" family="微软雅黑" text-anchor="middle" size="13">GetObjectKind()</text></g></g><g id="ProcessOnG1153" transform="matrix(1.0,0.0,0.0,1.0,63.0,606.0)" opacity="1.0"><path id="ProcessOnPath1154" d="M0.0 0.0L200.0 0.0L200.0 32.0L0.0 32.0Z" stroke="#323232" stroke-width="2.0" stroke-dasharray="10.0 4.0" opacity="1.0" fill="#ffffff"/><g id="ProcessOnG1155" transform="matrix(1.0,0.0,0.0,1.0,10.0,7.875)"><text id="ProcessOnText1156" fill="#000000" font-size="13" x="89.0" y="13.325" font-family="微软雅黑" font-weight="normal" font-style="normal" text-decoration="none" family="微软雅黑" text-anchor="middle" size="13">DeepCopyObject()</text></g></g><g id="ProcessOnG1157"><path id="ProcessOnPath1158" d="M368.0 600.0C325.91960076235017 600.0 298.0 570.0 263.0 593.5" stroke="#323232" stroke-width="1.0" stroke-dasharray="5.0 2.0" fill="none" marker-end="url(#ProcessOnMarker1159)"/></g><g id="ProcessOnG1161" transform="matrix(1.0,0.0,0.0,1.0,281.0,679.0)" opacity="1.0"><path id="ProcessOnPath1162" d="M0.0 0.0L133.0 0.0L133.0 21.0L0.0 21.0Z" stroke="none" stroke-width="0.0" stroke-dasharray="none" opacity="1.0" fill="none"/><g id="ProcessOnG1163" transform="matrix(1.0,0.0,0.0,1.0,0.0,2.375)"><text id="ProcessOnText1164" fill="#000000" font-size="13" x="65.5" y="13.325" font-family="微软雅黑" font-weight="normal" font-style="normal" text-decoration="none" family="微软雅黑" text-anchor="middle" size="13">runtime.ObjectKind</text></g></g><g id="ProcessOnG1165" transform="matrix(1.0,0.0,0.0,1.0,288.0,700.0)" opacity="1.0"><path id="ProcessOnPath1166" d="M0.0 0.0L200.0 0.0L200.0 39.0L0.0 39.0Z" stroke="#323232" stroke-width="2.0" stroke-dasharray="10.0 4.0" opacity="1.0" fill="#ffffff"/><g id="ProcessOnG1167" transform="matrix(1.0,0.0,0.0,1.0,10.0,11.375)"><text id="ProcessOnText1168" fill="#000000" font-size="13" x="89.0" y="13.325" font-family="微软雅黑" font-weight="normal" font-style="normal" text-decoration="none" family="微软雅黑" text-anchor="middle" size="13">SetGroupVersionKind</text></g></g><g id="ProcessOnG1169" transform="matrix(1.0,0.0,0.0,1.0,288.0,732.0)" opacity="1.0"><path id="ProcessOnPath1170" d="M0.0 0.0L200.0 0.0L200.0 32.0L0.0 32.0Z" stroke="#323232" stroke-width="2.0" stroke-dasharray="10.0 4.0" opacity="1.0" fill="#ffffff"/><g id="ProcessOnG1171" transform="matrix(1.0,0.0,0.0,1.0,10.0,7.875)"><text id="ProcessOnText1172" fill="#000000" font-size="13" x="89.0" y="13.325" font-family="微软雅黑" font-weight="normal" font-style="normal" text-decoration="none" family="微软雅黑" text-anchor="middle" size="13">GroupVersionKind</text></g></g><g id="ProcessOnG1173"><path id="ProcessOnPath1174" d="M63.0 593.5C-50.0 671.0 184.8488487703603 719.5 288.0 719.5" stroke="#323232" stroke-width="1.0" stroke-dasharray="5.0 2.0" fill="none" marker-end="url(#ProcessOnMarker1175)"/><g id="ProcessOnG1177" transform="matrix(1.0,0.0,0.0,1.0,94.44331828888511,677.4375)"><path id="ProcessOnPath1178" d="M0 0H44.0V16.25H0Z" fill="#fff" transform="matrix(1.0,0.0,0.0,1.0,-22.0,0.0)"/><text id="ProcessOnText1179" fill="#000000" font-size="13" x="0.0" y="13.325" font-family="微软雅黑" font-weight="normal" font-style="normal" text-decoration="none" family="微软雅黑" text-anchor="middle" size="13">returns</text></g></g><g id="ProcessOnG1180" transform="matrix(1.0,0.0,0.0,1.0,83.5,851.0)" opacity="1.0"><path id="ProcessOnPath1181" d="M0.0 0.0L179.5 0.0L179.5 32.0L0.0 32.0Z" stroke="#323232" stroke-width="2.0" stroke-dasharray="none" opacity="1.0" fill="#ffffff"/><g id="ProcessOnG1182" transform="matrix(1.0,0.0,0.0,1.0,10.0,-0.25)"><text id="ProcessOnText1183" fill="#000000" font-size="13" x="78.75" y="13.325" font-family="微软雅黑" font-weight="normal" font-style="normal" text-decoration="none" family="微软雅黑" text-anchor="middle" size="13">runtime.GroupVersionKin</text><text id="ProcessOnText1184" fill="#000000" font-size="13" x="78.75" y="29.575" font-family="微软雅黑" font-weight="normal" font-style="normal" text-decoration="none" family="微软雅黑" text-anchor="middle" size="13">d</text></g></g><g id="ProcessOnG1185"><path id="ProcessOnPath1186" d="M388.0 764.0C388.0 856.6814436659248 173.25000000000003 758.3185563340752 173.25 851.0" stroke="#323232" stroke-width="1.0" stroke-dasharray="5.0 2.0" fill="none" marker-end="url(#ProcessOnMarker1187)"/><g id="ProcessOnG1189" transform="matrix(1.0,0.0,0.0,1.0,280.625,799.375)"><path id="ProcessOnPath1190" d="M0 0H47.0V16.25H0Z" fill="#fff" transform="matrix(1.0,0.0,0.0,1.0,-23.5,0.0)"/><text id="ProcessOnText1191" fill="#000000" font-size="13" x="0.0" y="13.325" font-family="微软雅黑" font-weight="normal" font-style="normal" text-decoration="none" family="微软雅黑" text-anchor="middle" size="13">handles</text></g></g></g></g></svg>