<svg xmlns="http://www.w3.org/2000/svg" xmlns:xlink="http://www.w3.org/1999/xlink" id="processonSvg1000" viewBox="4.0 35.5 1517.5 966.5" width="1517.5" height="966.5"><defs id="ProcessOnDefs1001"><marker id="ProcessOnMarker1021" markerUnits="userSpaceOnUse" orient="auto" markerWidth="13.144543434498276" markerHeight="18.246037666503607" viewBox="-0.29389262614623657 -0.4045084971874737 13.144543434498276 18.246037666503607" refX="12.0" refY="8.71851033606433"><path id="ProcessOnPath1022" d="M0 0L12.0 8.71851033606433L0 17.43702067212866" stroke="#323232" stroke-width="1.0" fill="none" transform="matrix(1.0,0.0,0.0,1.0,0.0,0.0)"/></marker><marker id="ProcessOnMarker1050" markerUnits="userSpaceOnUse" orient="auto" markerWidth="13.144543434498276" markerHeight="18.246037666503607" viewBox="-0.29389262614623657 -0.4045084971874737 13.144543434498276 18.246037666503607" refX="12.0" refY="8.71851033606433"><path id="ProcessOnPath1051" d="M0 0L12.0 8.71851033606433L0 17.43702067212866" stroke="#323232" stroke-width="1.0" fill="none" transform="matrix(1.0,0.0,0.0,1.0,0.0,0.0)"/></marker><marker id="ProcessOnMarker1074" markerUnits="userSpaceOnUse" orient="auto" markerWidth="14.118033988749895" markerHeight="9.174454630060925" viewBox="-0.5 -0.6881909602355868 14.118033988749895 9.174454630060925" refX="-0.5" refY="3.8990363547948754"><path id="ProcessOnPath1075" d="M12.0 3.8990363547948754L0.0 7.798072709589751V0.0Z" stroke="#323232" stroke-width="1.0" fill="#fff" transform="matrix(1.0,0.0,0.0,1.0,0.0,0.0)"/></marker><marker id="ProcessOnMarker1101" markerUnits="userSpaceOnUse" orient="auto" markerWidth="14.118033988749895" markerHeight="9.174454630060925" viewBox="-0.5 -0.6881909602355868 14.118033988749895 9.174454630060925" refX="-0.5" refY="3.8990363547948754"><path id="ProcessOnPath1102" d="M12.0 3.8990363547948754L0.0 7.798072709589751V0.0Z" stroke="#323232" stroke-width="1.0" fill="#fff" transform="matrix(1.0,0.0,0.0,1.0,0.0,0.0)"/></marker><marker id="ProcessOnMarker1108" markerUnits="userSpaceOnUse" orient="auto" markerWidth="13.144543434498276" markerHeight="18.246037666503607" viewBox="-0.29389262614623657 -0.4045084971874737 13.144543434498276 18.246037666503607" refX="12.0" refY="8.71851033606433"><path id="ProcessOnPath1109" d="M0 0L12.0 8.71851033606433L0 17.43702067212866" stroke="#323232" stroke-width="1.0" fill="none" transform="matrix(1.0,0.0,0.0,1.0,0.0,0.0)"/></marker><marker id="ProcessOnMarker1115" markerUnits="userSpaceOnUse" orient="auto" markerWidth="13.144543434498276" markerHeight="18.246037666503607" viewBox="-0.29389262614623657 -0.4045084971874737 13.144543434498276 18.246037666503607" refX="12.0" refY="8.71851033606433"><path id="ProcessOnPath1116" d="M0 0L12.0 8.71851033606433L0 17.43702067212866" stroke="#323232" stroke-width="1.0" fill="none" transform="matrix(1.0,0.0,0.0,1.0,0.0,0.0)"/></marker><marker id="ProcessOnMarker1134" markerUnits="userSpaceOnUse" orient="auto" markerWidth="13.144543434498276" markerHeight="18.246037666503607" viewBox="-0.29389262614623657 -0.4045084971874737 13.144543434498276 18.246037666503607" refX="12.0" refY="8.71851033606433"><path id="ProcessOnPath1135" d="M0 0L12.0 8.71851033606433L0 17.43702067212866" stroke="#323232" stroke-width="1.0" fill="none" transform="matrix(1.0,0.0,0.0,1.0,0.0,0.0)"/></marker><marker id="ProcessOnMarker1138" markerUnits="userSpaceOnUse" orient="auto" markerWidth="13.144543434498276" markerHeight="18.246037666503607" viewBox="-0.29389262614623657 -0.4045084971874737 13.144543434498276 18.246037666503607" refX="12.0" refY="8.71851033606433"><path id="ProcessOnPath1139" d="M0 0L12.0 8.71851033606433L0 17.43702067212866" stroke="#323232" stroke-width="1.0" fill="none" transform="matrix(1.0,0.0,0.0,1.0,0.0,0.0)"/></marker><marker id="ProcessOnMarker1148" markerUnits="userSpaceOnUse" orient="auto" markerWidth="13.144543434498276" markerHeight="18.246037666503607" viewBox="-0.29389262614623657 -0.4045084971874737 13.144543434498276 18.246037666503607" refX="12.0" refY="8.71851033606433"><path id="ProcessOnPath1149" d="M0 0L12.0 8.71851033606433L0 17.43702067212866" stroke="#323232" stroke-width="1.0" fill="none" transform="matrix(1.0,0.0,0.0,1.0,0.0,0.0)"/></marker><marker id="ProcessOnMarker1160" markerUnits="userSpaceOnUse" orient="auto" markerWidth="13.144543434498276" markerHeight="18.246037666503607" viewBox="-0.29389262614623657 -0.4045084971874737 13.144543434498276 18.246037666503607" refX="12.0" refY="8.71851033606433"><path id="ProcessOnPath1161" d="M0 0L12.0 8.71851033606433L0 17.43702067212866" stroke="#323232" stroke-width="1.0" fill="none" transform="matrix(1.0,0.0,0.0,1.0,0.0,0.0)"/></marker><marker id="ProcessOnMarker1164" markerUnits="userSpaceOnUse" orient="auto" markerWidth="13.144543434498276" markerHeight="18.246037666503607" viewBox="-0.29389262614623657 -0.4045084971874737 13.144543434498276 18.246037666503607" refX="12.0" refY="8.71851033606433"><path id="ProcessOnPath1165" d="M0 0L12.0 8.71851033606433L0 17.43702067212866" stroke="#323232" stroke-width="1.0" fill="none" transform="matrix(1.0,0.0,0.0,1.0,0.0,0.0)"/></marker><marker id="ProcessOnMarker1176" markerUnits="userSpaceOnUse" orient="auto" markerWidth="13.144543434498276" markerHeight="18.246037666503607" viewBox="-0.29389262614623657 -0.4045084971874737 13.144543434498276 18.246037666503607" refX="12.0" refY="8.71851033606433"><path id="ProcessOnPath1177" d="M0 0L12.0 8.71851033606433L0 17.43702067212866" stroke="#323232" stroke-width="1.0" fill="none" transform="matrix(1.0,0.0,0.0,1.0,0.0,0.0)"/></marker><marker id="ProcessOnMarker1180" markerUnits="userSpaceOnUse" orient="auto" markerWidth="13.144543434498276" markerHeight="18.246037666503607" viewBox="-0.29389262614623657 -0.4045084971874737 13.144543434498276 18.246037666503607" refX="12.0" refY="8.71851033606433"><path id="ProcessOnPath1181" d="M0 0L12.0 8.71851033606433L0 17.43702067212866" stroke="#323232" stroke-width="1.0" fill="none" transform="matrix(1.0,0.0,0.0,1.0,0.0,0.0)"/></marker><marker id="ProcessOnMarker1190" markerUnits="userSpaceOnUse" orient="auto" markerWidth="13.144543434498276" markerHeight="18.246037666503607" viewBox="-0.29389262614623657 -0.4045084971874737 13.144543434498276 18.246037666503607" refX="12.0" refY="8.71851033606433"><path id="ProcessOnPath1191" d="M0 0L12.0 8.71851033606433L0 17.43702067212866" stroke="#323232" stroke-width="1.0" fill="none" transform="matrix(1.0,0.0,0.0,1.0,0.0,0.0)"/></marker><marker id="ProcessOnMarker1210" markerUnits="userSpaceOnUse" orient="auto" markerWidth="13.144543434498276" markerHeight="18.246037666503607" viewBox="-0.29389262614623657 -0.4045084971874737 13.144543434498276 18.246037666503607" refX="12.0" refY="8.71851033606433"><path id="ProcessOnPath1211" d="M0 0L12.0 8.71851033606433L0 17.43702067212866" stroke="#323232" stroke-width="1.0" fill="none" transform="matrix(1.0,0.0,0.0,1.0,0.0,0.0)"/></marker><marker id="ProcessOnMarker1220" markerUnits="userSpaceOnUse" orient="auto" markerWidth="13.144543434498276" markerHeight="18.246037666503607" viewBox="-0.29389262614623657 -0.4045084971874737 13.144543434498276 18.246037666503607" refX="12.0" refY="8.71851033606433"><path id="ProcessOnPath1221" d="M0 0L12.0 8.71851033606433L0 17.43702067212866" stroke="#323232" stroke-width="1.0" fill="none" transform="matrix(1.0,0.0,0.0,1.0,0.0,0.0)"/></marker></defs><g id="ProcessOnG1002"><path id="ProcessOnPath1003" d="M4.0 35.5H1521.5V1002.0H4.0V35.5Z" fill="none"/><g id="ProcessOnG1004"><g id="ProcessOnG1005" transform="matrix(1.0,0.0,0.0,1.0,403.0,165.0)" opacity="1.0"><path id="ProcessOnPath1006" d="M0.0 0.0L136.0 0.0L136.0 32.0L0.0 32.0Z" stroke="#323232" stroke-width="2.0" stroke-dasharray="none" opacity="1.0" fill="#ffffff"/><g id="ProcessOnG1007" transform="matrix(1.0,0.0,0.0,1.0,10.0,7.875)"><text id="ProcessOnText1008" fill="#000000" font-size="13" x="57.0" y="13.325" font-family="微软雅黑" font-weight="normal" font-style="normal" text-decoration="none" family="微软雅黑" text-anchor="middle" size="13">Lock</text></g></g><g id="ProcessOnG1009" transform="matrix(1.0,0.0,0.0,1.0,401.0,139.0)" opacity="1.0"><path id="ProcessOnPath1010" d="M0.0 0.0L140.0 0.0L140.0 23.0L0.0 23.0Z" stroke="none" stroke-width="0.0" stroke-dasharray="none" opacity="1.0" fill="none"/><g id="ProcessOnG1011" transform="matrix(1.0,0.0,0.0,1.0,0.0,3.375)"><text id="ProcessOnText1012" fill="#000000" font-size="13" x="69.0" y="13.325" font-family="微软雅黑" font-weight="normal" font-style="normal" text-decoration="none" family="微软雅黑" text-anchor="middle" size="13">LeaderElectionConfig</text></g></g><g id="ProcessOnG1013" transform="matrix(1.0,0.0,0.0,1.0,798.0,101.0)" opacity="1.0"><path id="ProcessOnPath1014" d="M0.0 0.0L136.0 0.0L136.0 32.0L0.0 32.0Z" stroke="#323232" stroke-width="2.0" stroke-dasharray="10.0 4.0" opacity="1.0" fill="#ffffff"/></g><g id="ProcessOnG1015" transform="matrix(1.0,0.0,0.0,1.0,795.0,79.0)" opacity="1.0"><path id="ProcessOnPath1016" d="M0.0 0.0L76.0 0.0L76.0 22.0L0.0 22.0Z" stroke="none" stroke-width="0.0" stroke-dasharray="none" opacity="1.0" fill="none"/><g id="ProcessOnG1017" transform="matrix(1.0,0.0,0.0,1.0,0.0,2.875)"><text id="ProcessOnText1018" fill="#000000" font-size="13" x="37.0" y="13.325" font-family="微软雅黑" font-weight="normal" font-style="normal" text-decoration="none" family="微软雅黑" text-anchor="middle" size="13">rl.Interface</text></g></g><g id="ProcessOnG1019"><path id="ProcessOnPath1020" d="M539.0 181.0C645.7160718917258 181.0 691.2839281082742 117.0 798.0 117.0" stroke="#323232" stroke-width="1.0" stroke-dasharray="none" fill="none" marker-end="url(#ProcessOnMarker1021)"/></g><g id="ProcessOnG1023" transform="matrix(1.0,0.0,0.0,1.0,403.0,197.0)" opacity="1.0"><path id="ProcessOnPath1024" d="M0.0 0.0L136.0 0.0L136.0 32.0L0.0 32.0Z" stroke="#323232" stroke-width="2.0" stroke-dasharray="none" opacity="1.0" fill="#ffffff"/><g id="ProcessOnG1025" transform="matrix(1.0,0.0,0.0,1.0,10.0,7.875)"><text id="ProcessOnText1026" fill="#000000" font-size="13" x="57.0" y="13.325" font-family="微软雅黑" font-weight="normal" font-style="normal" text-decoration="none" family="微软雅黑" text-anchor="middle" size="13">...</text></g></g><g id="ProcessOnG1027" transform="matrix(1.0,0.0,0.0,1.0,403.0,229.0)" opacity="1.0"><path id="ProcessOnPath1028" d="M0.0 0.0L136.0 0.0L136.0 32.0L0.0 32.0Z" stroke="#323232" stroke-width="2.0" stroke-dasharray="none" opacity="1.0" fill="#ffffff"/><g id="ProcessOnG1029" transform="matrix(1.0,0.0,0.0,1.0,10.0,7.875)"><text id="ProcessOnText1030" fill="#000000" font-size="13" x="57.0" y="13.325" font-family="微软雅黑" font-weight="normal" font-style="normal" text-decoration="none" family="微软雅黑" text-anchor="middle" size="13">Callbacks</text></g></g><g id="ProcessOnG1031" transform="matrix(1.0,0.0,0.0,1.0,162.0,82.5)" opacity="1.0"><path id="ProcessOnPath1032" d="M0.0 0.0L136.0 0.0L136.0 32.0L0.0 32.0Z" stroke="#323232" stroke-width="2.0" stroke-dasharray="none" opacity="1.0" fill="#ffffff"/><g id="ProcessOnG1033" transform="matrix(1.0,0.0,0.0,1.0,10.0,7.875)"><text id="ProcessOnText1034" fill="#000000" font-size="13" x="57.0" y="13.325" font-family="微软雅黑" font-weight="normal" font-style="normal" text-decoration="none" family="微软雅黑" text-anchor="middle" size="13">OnStartedLeading</text></g></g><g id="ProcessOnG1035" transform="matrix(1.0,0.0,0.0,1.0,160.0,55.5)" opacity="1.0"><path id="ProcessOnPath1036" d="M0.0 0.0L114.0 0.0L114.0 24.0L0.0 24.0Z" stroke="none" stroke-width="0.0" stroke-dasharray="none" opacity="1.0" fill="none"/><g id="ProcessOnG1037" transform="matrix(1.0,0.0,0.0,1.0,0.0,3.875)"><text id="ProcessOnText1038" fill="#000000" font-size="13" x="56.0" y="13.325" font-family="微软雅黑" font-weight="normal" font-style="normal" text-decoration="none" family="微软雅黑" text-anchor="middle" size="13">LeaderCallbacks</text></g></g><g id="ProcessOnG1039" transform="matrix(1.0,0.0,0.0,1.0,162.0,114.5)" opacity="1.0"><path id="ProcessOnPath1040" d="M0.0 0.0L136.0 0.0L136.0 32.0L0.0 32.0Z" stroke="#323232" stroke-width="2.0" stroke-dasharray="none" opacity="1.0" fill="#ffffff"/><g id="ProcessOnG1041" transform="matrix(1.0,0.0,0.0,1.0,10.0,-0.25)"><text id="ProcessOnText1042" fill="#000000" font-size="13" x="57.0" y="13.325" font-family="微软雅黑" font-weight="normal" font-style="normal" text-decoration="none" family="微软雅黑" text-anchor="middle" size="13">OnStoppedLeadin</text><text id="ProcessOnText1043" fill="#000000" font-size="13" x="57.0" y="29.575" font-family="微软雅黑" font-weight="normal" font-style="normal" text-decoration="none" family="微软雅黑" text-anchor="middle" size="13">g</text></g></g><g id="ProcessOnG1044" transform="matrix(1.0,0.0,0.0,1.0,162.0,146.5)" opacity="1.0"><path id="ProcessOnPath1045" d="M0.0 0.0L136.0 0.0L136.0 32.0L0.0 32.0Z" stroke="#323232" stroke-width="2.0" stroke-dasharray="none" opacity="1.0" fill="#ffffff"/><g id="ProcessOnG1046" transform="matrix(1.0,0.0,0.0,1.0,10.0,7.875)"><text id="ProcessOnText1047" fill="#000000" font-size="13" x="57.0" y="13.325" font-family="微软雅黑" font-weight="normal" font-style="normal" text-decoration="none" family="微软雅黑" text-anchor="middle" size="13">OnNewLeader</text></g></g><g id="ProcessOnG1048"><path id="ProcessOnPath1049" d="M403.0 245.0C330.90312073328 245.0 370.09687926672 98.49999999999999 298.0 98.5" stroke="#323232" stroke-width="1.0" stroke-dasharray="none" fill="none" marker-end="url(#ProcessOnMarker1050)"/></g><g id="ProcessOnG1052" transform="matrix(1.0,0.0,0.0,1.0,561.0,326.0)" opacity="1.0"><path id="ProcessOnPath1053" d="M0.0 0.0L136.0 0.0L136.0 32.0L0.0 32.0Z" stroke="#323232" stroke-width="2.0" stroke-dasharray="none" opacity="1.0" fill="#ffffff"/><g id="ProcessOnG1054" transform="matrix(1.0,0.0,0.0,1.0,10.0,7.875)"><text id="ProcessOnText1055" fill="#000000" font-size="13" x="57.0" y="13.325" font-family="微软雅黑" font-weight="normal" font-style="normal" text-decoration="none" family="微软雅黑" text-anchor="middle" size="13">EndpointsMeta</text></g></g><g id="ProcessOnG1056" transform="matrix(1.0,0.0,0.0,1.0,559.0,306.0)" opacity="1.0"><path id="ProcessOnPath1057" d="M0.0 0.0L103.0 0.0L103.0 20.0L0.0 20.0Z" stroke="none" stroke-width="0.0" stroke-dasharray="none" opacity="1.0" fill="none"/><g id="ProcessOnG1058" transform="matrix(1.0,0.0,0.0,1.0,0.0,1.875)"><text id="ProcessOnText1059" fill="#000000" font-size="13" x="50.5" y="13.325" font-family="微软雅黑" font-weight="normal" font-style="normal" text-decoration="none" family="微软雅黑" text-anchor="middle" size="13">EndpointsLock</text></g></g><g id="ProcessOnG1060" transform="matrix(1.0,0.0,0.0,1.0,561.0,358.0)" opacity="1.0"><path id="ProcessOnPath1061" d="M0.0 0.0L136.0 0.0L136.0 32.0L0.0 32.0Z" stroke="#323232" stroke-width="2.0" stroke-dasharray="none" opacity="1.0" fill="#ffffff"/><g id="ProcessOnG1062" transform="matrix(1.0,0.0,0.0,1.0,10.0,7.875)"><text id="ProcessOnText1063" fill="#000000" font-size="13" x="57.0" y="13.325" font-family="微软雅黑" font-weight="normal" font-style="normal" text-decoration="none" family="微软雅黑" text-anchor="middle" size="13">Client</text></g></g><g id="ProcessOnG1064" transform="matrix(1.0,0.0,0.0,1.0,561.0,390.0)" opacity="1.0"><path id="ProcessOnPath1065" d="M0.0 0.0L136.0 0.0L136.0 32.0L0.0 32.0Z" stroke="#323232" stroke-width="2.0" stroke-dasharray="none" opacity="1.0" fill="#ffffff"/><g id="ProcessOnG1066" transform="matrix(1.0,0.0,0.0,1.0,10.0,7.875)"><text id="ProcessOnText1067" fill="#000000" font-size="13" x="57.0" y="13.325" font-family="微软雅黑" font-weight="normal" font-style="normal" text-decoration="none" family="微软雅黑" text-anchor="middle" size="13">LockConfig</text></g></g><g id="ProcessOnG1068" transform="matrix(1.0,0.0,0.0,1.0,561.0,422.0)" opacity="1.0"><path id="ProcessOnPath1069" d="M0.0 0.0L136.0 0.0L136.0 32.0L0.0 32.0Z" stroke="#323232" stroke-width="2.0" stroke-dasharray="none" opacity="1.0" fill="#ffffff"/><g id="ProcessOnG1070" transform="matrix(1.0,0.0,0.0,1.0,10.0,7.875)"><text id="ProcessOnText1071" fill="#000000" font-size="13" x="57.0" y="13.325" font-family="微软雅黑" font-weight="normal" font-style="normal" text-decoration="none" family="微软雅黑" text-anchor="middle" size="13">e</text></g></g><g id="ProcessOnG1072"><path id="ProcessOnPath1073" d="M561.1213203435597 326.12132034355966C469.0881579596275 234.08815795962752 823.0 263.1545464314422 823.0 146.6180339887499" stroke="#323232" stroke-width="1.0" stroke-dasharray="none" fill="none" marker-end="url(#ProcessOnMarker1074)"/><g id="ProcessOnG1076" transform="matrix(1.0,0.0,0.0,1.0,657.5482242778053,237.43343343818984)"><path id="ProcessOnPath1077" d="M0 0H71.0V16.25H0Z" fill="#fff" transform="matrix(1.0,0.0,0.0,1.0,-35.5,0.0)"/><text id="ProcessOnText1078" fill="#000000" font-size="13" x="0.0" y="13.325" font-family="微软雅黑" font-weight="normal" font-style="normal" text-decoration="none" family="微软雅黑" text-anchor="middle" size="13">implements</text></g></g><g id="ProcessOnG1079" transform="matrix(1.0,0.0,0.0,1.0,983.0,315.0)" opacity="1.0"><path id="ProcessOnPath1080" d="M0.0 0.0L136.0 0.0L136.0 32.0L0.0 32.0Z" stroke="#323232" stroke-width="2.0" stroke-dasharray="none" opacity="1.0" fill="#ffffff"/><g id="ProcessOnG1081" transform="matrix(1.0,0.0,0.0,1.0,10.0,7.875)"><text id="ProcessOnText1082" fill="#000000" font-size="13" x="57.0" y="13.325" font-family="微软雅黑" font-weight="normal" font-style="normal" text-decoration="none" family="微软雅黑" text-anchor="middle" size="13">ConfigMapMeta</text></g></g><g id="ProcessOnG1083" transform="matrix(1.0,0.0,0.0,1.0,981.0,295.0)" opacity="1.0"><path id="ProcessOnPath1084" d="M0.0 0.0L105.0 0.0L105.0 20.0L0.0 20.0Z" stroke="none" stroke-width="0.0" stroke-dasharray="none" opacity="1.0" fill="none"/><g id="ProcessOnG1085" transform="matrix(1.0,0.0,0.0,1.0,0.0,1.875)"><text id="ProcessOnText1086" fill="#000000" font-size="13" x="51.5" y="13.325" font-family="微软雅黑" font-weight="normal" font-style="normal" text-decoration="none" family="微软雅黑" text-anchor="middle" size="13">ConfigMapLock</text></g></g><g id="ProcessOnG1087" transform="matrix(1.0,0.0,0.0,1.0,983.0,347.0)" opacity="1.0"><path id="ProcessOnPath1088" d="M0.0 0.0L136.0 0.0L136.0 32.0L0.0 32.0Z" stroke="#323232" stroke-width="2.0" stroke-dasharray="none" opacity="1.0" fill="#ffffff"/><g id="ProcessOnG1089" transform="matrix(1.0,0.0,0.0,1.0,10.0,7.875)"><text id="ProcessOnText1090" fill="#000000" font-size="13" x="57.0" y="13.325" font-family="微软雅黑" font-weight="normal" font-style="normal" text-decoration="none" family="微软雅黑" text-anchor="middle" size="13">Client</text></g></g><g id="ProcessOnG1091" transform="matrix(1.0,0.0,0.0,1.0,983.0,379.0)" opacity="1.0"><path id="ProcessOnPath1092" d="M0.0 0.0L136.0 0.0L136.0 32.0L0.0 32.0Z" stroke="#323232" stroke-width="2.0" stroke-dasharray="none" opacity="1.0" fill="#ffffff"/><g id="ProcessOnG1093" transform="matrix(1.0,0.0,0.0,1.0,10.0,7.875)"><text id="ProcessOnText1094" fill="#000000" font-size="13" x="57.0" y="13.325" font-family="微软雅黑" font-weight="normal" font-style="normal" text-decoration="none" family="微软雅黑" text-anchor="middle" size="13">LockConfig</text></g></g><g id="ProcessOnG1095" transform="matrix(1.0,0.0,0.0,1.0,983.0,411.0)" opacity="1.0"><path id="ProcessOnPath1096" d="M0.0 0.0L136.0 0.0L136.0 32.0L0.0 32.0Z" stroke="#323232" stroke-width="2.0" stroke-dasharray="none" opacity="1.0" fill="#ffffff"/><g id="ProcessOnG1097" transform="matrix(1.0,0.0,0.0,1.0,10.0,7.875)"><text id="ProcessOnText1098" fill="#000000" font-size="13" x="57.0" y="13.325" font-family="微软雅黑" font-weight="normal" font-style="normal" text-decoration="none" family="微软雅黑" text-anchor="middle" size="13">cm</text></g></g><g id="ProcessOnG1099"><path id="ProcessOnPath1100" d="M1118.723391822844 316.2943057454042C1213.7435631476894 249.76046550176926 894.0 248.9982105731313 894.0 146.6180339887499" stroke="#323232" stroke-width="1.0" stroke-dasharray="none" fill="none" marker-end="url(#ProcessOnMarker1101)"/><g id="ProcessOnG1103" transform="matrix(1.0,0.0,0.0,1.0,1041.994260158239,236.773545994857)"><path id="ProcessOnPath1104" d="M0 0H71.0V16.25H0Z" fill="#fff" transform="matrix(1.0,0.0,0.0,1.0,-35.5,0.0)"/><text id="ProcessOnText1105" fill="#000000" font-size="13" x="0.0" y="13.325" font-family="微软雅黑" font-weight="normal" font-style="normal" text-decoration="none" family="微软雅黑" text-anchor="middle" size="13">implements</text></g></g><g id="ProcessOnG1106"><path id="ProcessOnPath1107" d="M539.0 181.0C621.8772586419218 181.0 687.0 243.1227413580782 687.0 326.0" stroke="#323232" stroke-width="1.0" stroke-dasharray="5.0 2.0" fill="none" marker-end="url(#ProcessOnMarker1108)"/><g id="ProcessOnG1110" transform="matrix(1.0,0.0,0.0,1.0,644.0789719907207,214.29602800927933)"><path id="ProcessOnPath1111" d="M0 0H146.0V16.25H0Z" fill="#fff" transform="matrix(1.0,0.0,0.0,1.0,-73.0,0.0)"/><text id="ProcessOnText1112" fill="#000000" font-size="13" x="0.0" y="13.325" font-family="微软雅黑" font-weight="normal" font-style="normal" text-decoration="none" family="微软雅黑" text-anchor="middle" size="13">EndpointsResourceLock</text></g></g><g id="ProcessOnG1113"><path id="ProcessOnPath1114" d="M539.0 181.0C724.8870825748925 180.99999999999997 831.1876724347271 210.10027892205363 983.4574561328669 316.7207293090531" stroke="#323232" stroke-width="1.0" stroke-dasharray="5.0 2.0" fill="none" marker-end="url(#ProcessOnMarker1115)"/><g id="ProcessOnG1117" transform="matrix(1.0,0.0,0.0,1.0,773.8352151452158,200.75269575940177)"><path id="ProcessOnPath1118" d="M0 0H160.0V16.25H0Z" fill="#fff" transform="matrix(1.0,0.0,0.0,1.0,-80.0,0.0)"/><text id="ProcessOnText1119" fill="#000000" font-size="13" x="0.0" y="13.325" font-family="微软雅黑" font-weight="normal" font-style="normal" text-decoration="none" family="微软雅黑" text-anchor="middle" size="13">ConfigMapsResourceLock</text></g></g><g id="ProcessOnG1120" transform="matrix(1.0,0.0,0.0,1.0,761.0,479.0)" opacity="1.0"><path id="ProcessOnPath1121" d="M0.0 0.0L136.0 0.0L136.0 32.0L0.0 32.0Z" stroke="#323232" stroke-width="2.0" stroke-dasharray="none" opacity="1.0" fill="#ffffff"/><g id="ProcessOnG1122" transform="matrix(1.0,0.0,0.0,1.0,10.0,7.875)"><text id="ProcessOnText1123" fill="#000000" font-size="13" x="57.0" y="13.325" font-family="微软雅黑" font-weight="normal" font-style="normal" text-decoration="none" family="微软雅黑" text-anchor="middle" size="13">Identity</text></g></g><g id="ProcessOnG1124" transform="matrix(1.0,0.0,0.0,1.0,759.0,459.0)" opacity="1.0"><path id="ProcessOnPath1125" d="M0.0 0.0L131.0 0.0L131.0 20.0L0.0 20.0Z" stroke="none" stroke-width="0.0" stroke-dasharray="none" opacity="1.0" fill="none"/><g id="ProcessOnG1126" transform="matrix(1.0,0.0,0.0,1.0,0.0,1.875)"><text id="ProcessOnText1127" fill="#000000" font-size="13" x="64.5" y="13.325" font-family="微软雅黑" font-weight="normal" font-style="normal" text-decoration="none" family="微软雅黑" text-anchor="middle" size="13">ResourceLockConfig</text></g></g><g id="ProcessOnG1128" transform="matrix(1.0,0.0,0.0,1.0,761.0,511.0)" opacity="1.0"><path id="ProcessOnPath1129" d="M0.0 0.0L136.0 0.0L136.0 32.0L0.0 32.0Z" stroke="#323232" stroke-width="2.0" stroke-dasharray="none" opacity="1.0" fill="#ffffff"/><g id="ProcessOnG1130" transform="matrix(1.0,0.0,0.0,1.0,10.0,7.875)"><text id="ProcessOnText1131" fill="#000000" font-size="13" x="57.0" y="13.325" font-family="微软雅黑" font-weight="normal" font-style="normal" text-decoration="none" family="微软雅黑" text-anchor="middle" size="13">EventRecorder</text></g></g><g id="ProcessOnG1132"><path id="ProcessOnPath1133" d="M697.0 406.0C736.1679637443259 406.0 736.7516810375553 449.2937323547304 761.9283628290596 479.2981333293569" stroke="#323232" stroke-width="1.0" stroke-dasharray="none" fill="none" marker-end="url(#ProcessOnMarker1134)"/></g><g id="ProcessOnG1136"><path id="ProcessOnPath1137" d="M983.0 395.0C930.2424412998479 395.0 949.7575587001521 495.0 897.0 495.0" stroke="#323232" stroke-width="1.0" stroke-dasharray="none" fill="none" marker-end="url(#ProcessOnMarker1138)"/></g><g id="ProcessOnG1140" transform="matrix(1.0,0.0,0.0,1.0,582.0,495.5)" opacity="1.0"><path id="ProcessOnPath1141" d="M0.0 0.0L136.0 0.0L136.0 32.0L0.0 32.0Z" stroke="#323232" stroke-width="2.0" stroke-dasharray="10.0 4.0" opacity="1.0" fill="#ffffff"/></g><g id="ProcessOnG1142" transform="matrix(1.0,0.0,0.0,1.0,578.0,472.5)" opacity="1.0"><path id="ProcessOnPath1143" d="M0.0 0.0L140.0 0.0L140.0 20.0L0.0 20.0Z" stroke="none" stroke-width="0.0" stroke-dasharray="none" opacity="1.0" fill="none"/><g id="ProcessOnG1144" transform="matrix(1.0,0.0,0.0,1.0,0.0,1.875)"><text id="ProcessOnText1145" fill="#000000" font-size="13" x="69.0" y="13.325" font-family="微软雅黑" font-weight="normal" font-style="normal" text-decoration="none" family="微软雅黑" text-anchor="middle" size="13">record.EventRecorder</text></g></g><g id="ProcessOnG1146"><path id="ProcessOnPath1147" d="M761.0 527.0C742.7166742631434 527.0 736.2833257368566 511.5 718.0 511.5" stroke="#323232" stroke-width="1.0" stroke-dasharray="none" fill="none" marker-end="url(#ProcessOnMarker1148)"/></g><g id="ProcessOnG1150"><path id="ProcessOnPath1151" d="M24.0 682.0L1501.5 682.0" stroke="#323232" stroke-width="2.0" stroke-dasharray="10.0 4.0" fill="none"/></g><g id="ProcessOnG1152" transform="matrix(1.0,0.0,0.0,1.0,1037.5,770.0)" opacity="1.0"><path id="ProcessOnPath1153" d="M0.0 0.0L136.0 0.0L136.0 32.0L0.0 32.0Z" stroke="#323232" stroke-width="2.0" stroke-dasharray="none" opacity="1.0" fill="#ffffff"/></g><g id="ProcessOnG1154" transform="matrix(1.0,0.0,0.0,1.0,1028.5,750.0)" opacity="1.0"><path id="ProcessOnPath1155" d="M0.0 0.0L135.0 0.0L135.0 20.0L0.0 20.0Z" stroke="none" stroke-width="0.0" stroke-dasharray="none" opacity="1.0" fill="none"/><g id="ProcessOnG1156" transform="matrix(1.0,0.0,0.0,1.0,0.0,1.875)"><text id="ProcessOnText1157" fill="#000000" font-size="13" x="66.5" y="13.325" font-family="微软雅黑" font-weight="normal" font-style="normal" text-decoration="none" family="微软雅黑" text-anchor="middle" size="13">metav1.ObjectMeta</text></g></g><g id="ProcessOnG1158"><path id="ProcessOnPath1159" d="M561.0 342.0C300.4810563509824 342.0 776.9810563509824 786.0 1037.5 786.0" stroke="#323232" stroke-width="1.0" stroke-dasharray="none" fill="none" marker-end="url(#ProcessOnMarker1160)"/></g><g id="ProcessOnG1162"><path id="ProcessOnPath1163" d="M1119.0 331.0C1302.3009547165534 331.0 1356.8009547165534 786.0 1173.5 786.0" stroke="#323232" stroke-width="1.0" stroke-dasharray="none" fill="none" marker-end="url(#ProcessOnMarker1164)"/></g><g id="ProcessOnG1166" transform="matrix(1.0,0.0,0.0,1.0,761.0,378.0)" opacity="1.0"><path id="ProcessOnPath1167" d="M0.0 0.0L136.0 0.0L136.0 32.0L0.0 32.0Z" stroke="#323232" stroke-width="2.0" stroke-dasharray="none" opacity="1.0" fill="#ffffff"/><g id="ProcessOnG1168" transform="matrix(1.0,0.0,0.0,1.0,10.0,7.875)"><text id="ProcessOnText1169" fill="#000000" font-size="13" x="57.0" y="13.325" font-family="微软雅黑" font-weight="normal" font-style="normal" text-decoration="none" family="微软雅黑" text-anchor="middle" size="13">restClient</text></g></g><g id="ProcessOnG1170" transform="matrix(1.0,0.0,0.0,1.0,759.0,358.0)" opacity="1.0"><path id="ProcessOnPath1171" d="M0.0 0.0L96.5 0.0L96.5 20.0L0.0 20.0Z" stroke="none" stroke-width="0.0" stroke-dasharray="none" opacity="1.0" fill="none"/><g id="ProcessOnG1172" transform="matrix(1.0,0.0,0.0,1.0,0.0,1.875)"><text id="ProcessOnText1173" fill="#000000" font-size="13" x="47.25" y="13.325" font-family="微软雅黑" font-weight="normal" font-style="normal" text-decoration="none" family="微软雅黑" text-anchor="middle" size="13">CoreV1Client</text></g></g><g id="ProcessOnG1174"><path id="ProcessOnPath1175" d="M697.0 374.0C723.8208873827843 374.0 734.1791126172157 394.0 761.0 394.0" stroke="#323232" stroke-width="1.0" stroke-dasharray="none" fill="none" marker-end="url(#ProcessOnMarker1176)"/></g><g id="ProcessOnG1178"><path id="ProcessOnPath1179" d="M983.0 363.0C946.433348526287 363.0 933.566651473713 394.0 897.0 394.0" stroke="#323232" stroke-width="1.0" stroke-dasharray="none" fill="none" marker-end="url(#ProcessOnMarker1180)"/></g><g id="ProcessOnG1182" transform="matrix(1.0,0.0,0.0,1.0,749.5,286.0)" opacity="1.0"><path id="ProcessOnPath1183" d="M0.0 0.0L136.0 0.0L136.0 32.0L0.0 32.0Z" stroke="#323232" stroke-width="2.0" stroke-dasharray="10.0 4.0" opacity="1.0" fill="#ffffff"/></g><g id="ProcessOnG1184" transform="matrix(1.0,0.0,0.0,1.0,743.0,261.0)" opacity="1.0"><path id="ProcessOnPath1185" d="M0.0 0.0L99.0 0.0L99.0 20.0L0.0 20.0Z" stroke="none" stroke-width="0.0" stroke-dasharray="none" opacity="1.0" fill="none"/><g id="ProcessOnG1186" transform="matrix(1.0,0.0,0.0,1.0,0.0,1.875)"><text id="ProcessOnText1187" fill="#000000" font-size="13" x="48.5" y="13.325" font-family="微软雅黑" font-weight="normal" font-style="normal" text-decoration="none" family="微软雅黑" text-anchor="middle" size="13">rest.Interface</text></g></g><g id="ProcessOnG1188"><path id="ProcessOnPath1189" d="M829.0 378.0C829.0 353.56314259156875 817.5 342.43685740843125 817.5 318.0" stroke="#323232" stroke-width="1.0" stroke-dasharray="none" fill="none" marker-end="url(#ProcessOnMarker1190)"/></g><g id="ProcessOnG1192" transform="matrix(1.0,0.0,0.0,1.0,1004.0,690.0)" opacity="1.0"><path id="ProcessOnPath1193" d="M0.0 0.0L136.0 0.0L136.0 22.0L0.0 22.0Z" stroke="none" stroke-width="0.0" stroke-dasharray="none" opacity="1.0" fill="none"/><g id="ProcessOnG1194" transform="matrix(1.0,0.0,0.0,1.0,0.0,2.875)"><text id="ProcessOnText1195" fill="#000000" font-size="13" x="67.0" y="13.325" font-family="微软雅黑" font-weight="normal" font-style="normal" text-decoration="none" family="微软雅黑" text-anchor="middle" size="13">k8s.io/apimachinery </text></g></g><g id="ProcessOnG1196"><path id="ProcessOnPath1197" d="M998.0 689.0L998.0 982.0" stroke="#323232" stroke-width="2.0" stroke-dasharray="10.0 4.0" fill="none"/></g><g id="ProcessOnG1198" transform="matrix(1.0,0.0,0.0,1.0,911.0,690.0)" opacity="1.0"><path id="ProcessOnPath1199" d="M0.0 0.0L85.0 0.0L85.0 22.0L0.0 22.0Z" stroke="none" stroke-width="0.0" stroke-dasharray="none" opacity="1.0" fill="none"/><g id="ProcessOnG1200" transform="matrix(1.0,0.0,0.0,1.0,0.0,2.875)"><text id="ProcessOnText1201" fill="#000000" font-size="13" x="41.5" y="13.325" font-family="微软雅黑" font-weight="normal" font-style="normal" text-decoration="none" family="微软雅黑" text-anchor="middle" size="13">k8s.io/api </text></g></g><g id="ProcessOnG1202" transform="matrix(1.0,0.0,0.0,1.0,389.0,745.0)" opacity="1.0"><path id="ProcessOnPath1203" d="M0.0 0.0L136.0 0.0L136.0 32.0L0.0 32.0Z" stroke="#323232" stroke-width="2.0" stroke-dasharray="none" opacity="1.0" fill="#ffffff"/></g><g id="ProcessOnG1204" transform="matrix(1.0,0.0,0.0,1.0,382.0,725.0)" opacity="1.0"><path id="ProcessOnPath1205" d="M0.0 0.0L80.0 0.0L80.0 20.0L0.0 20.0Z" stroke="none" stroke-width="0.0" stroke-dasharray="none" opacity="1.0" fill="none"/><g id="ProcessOnG1206" transform="matrix(1.0,0.0,0.0,1.0,0.0,1.875)"><text id="ProcessOnText1207" fill="#000000" font-size="13" x="39.0" y="13.325" font-family="微软雅黑" font-weight="normal" font-style="normal" text-decoration="none" family="微软雅黑" text-anchor="middle" size="13">Endpoints</text></g></g><g id="ProcessOnG1208"><path id="ProcessOnPath1209" d="M561.0 438.0C431.0 438.0 655.0 761.0 525.0 761.0" stroke="#323232" stroke-width="1.0" stroke-dasharray="none" fill="none" marker-end="url(#ProcessOnMarker1210)"/></g><g id="ProcessOnG1212" transform="matrix(1.0,0.0,0.0,1.0,659.0,745.0)" opacity="1.0"><path id="ProcessOnPath1213" d="M0.0 0.0L136.0 0.0L136.0 32.0L0.0 32.0Z" stroke="#323232" stroke-width="2.0" stroke-dasharray="none" opacity="1.0" fill="#ffffff"/></g><g id="ProcessOnG1214" transform="matrix(1.0,0.0,0.0,1.0,652.0,725.0)" opacity="1.0"><path id="ProcessOnPath1215" d="M0.0 0.0L80.0 0.0L80.0 20.0L0.0 20.0Z" stroke="none" stroke-width="0.0" stroke-dasharray="none" opacity="1.0" fill="none"/><g id="ProcessOnG1216" transform="matrix(1.0,0.0,0.0,1.0,0.0,1.875)"><text id="ProcessOnText1217" fill="#000000" font-size="13" x="39.0" y="13.325" font-family="微软雅黑" font-weight="normal" font-style="normal" text-decoration="none" family="微软雅黑" text-anchor="middle" size="13">ConfigMap</text></g></g><g id="ProcessOnG1218"><path id="ProcessOnPath1219" d="M1119.0 427.0C1224.0 443.0 866.0 763.0 795.0 761.0" stroke="#323232" stroke-width="1.0" stroke-dasharray="none" fill="none" marker-end="url(#ProcessOnMarker1220)"/></g></g></g></svg>