<svg xmlns="http://www.w3.org/2000/svg" xmlns:xlink="http://www.w3.org/1999/xlink" id="processonSvg1000" viewBox="69.0 27.0 1181.0 885.0" width="1181.0" height="885.0"><defs id="ProcessOnDefs1001"><marker id="ProcessOnMarker1015" markerUnits="userSpaceOnUse" orient="auto" markerWidth="13.144543434498276" markerHeight="18.246037666503607" viewBox="-0.29389262614623657 -0.4045084971874737 13.144543434498276 18.246037666503607" refX="12.0" refY="8.71851033606433"><path id="ProcessOnPath1016" d="M0 0L12.0 8.71851033606433L0 17.43702067212866" stroke="#323232" stroke-width="1.0" fill="none" transform="matrix(1.0,0.0,0.0,1.0,0.0,0.0)"/></marker><marker id="ProcessOnMarker1034" markerUnits="userSpaceOnUse" orient="auto" markerWidth="13.144543434498276" markerHeight="18.246037666503607" viewBox="-0.29389262614623657 -0.4045084971874737 13.144543434498276 18.246037666503607" refX="12.0" refY="8.71851033606433"><path id="ProcessOnPath1035" d="M0 0L12.0 8.71851033606433L0 17.43702067212866" stroke="#323232" stroke-width="1.0" fill="none" transform="matrix(1.0,0.0,0.0,1.0,0.0,0.0)"/></marker><marker id="ProcessOnMarker1054" markerUnits="userSpaceOnUse" orient="auto" markerWidth="13.144543434498276" markerHeight="18.246037666503607" viewBox="-0.29389262614623657 -0.4045084971874737 13.144543434498276 18.246037666503607" refX="12.0" refY="8.71851033606433"><path id="ProcessOnPath1055" d="M0 0L12.0 8.71851033606433L0 17.43702067212866" stroke="#323232" stroke-width="1.0" fill="none" transform="matrix(1.0,0.0,0.0,1.0,0.0,0.0)"/></marker><marker id="ProcessOnMarker1073" markerUnits="userSpaceOnUse" orient="auto" markerWidth="13.144543434498276" markerHeight="18.246037666503607" viewBox="-0.29389262614623657 -0.4045084971874737 13.144543434498276 18.246037666503607" refX="12.0" refY="8.71851033606433"><path id="ProcessOnPath1074" d="M0 0L12.0 8.71851033606433L0 17.43702067212866" stroke="#323232" stroke-width="1.0" fill="none" transform="matrix(1.0,0.0,0.0,1.0,0.0,0.0)"/></marker><marker id="ProcessOnMarker1092" markerUnits="userSpaceOnUse" orient="auto" markerWidth="13.144543434498276" markerHeight="18.246037666503607" viewBox="-0.29389262614623657 -0.4045084971874737 13.144543434498276 18.246037666503607" refX="12.0" refY="8.71851033606433"><path id="ProcessOnPath1093" d="M0 0L12.0 8.71851033606433L0 17.43702067212866" stroke="#323232" stroke-width="1.0" fill="none" transform="matrix(1.0,0.0,0.0,1.0,0.0,0.0)"/></marker><marker id="ProcessOnMarker1120" markerUnits="userSpaceOnUse" orient="auto" markerWidth="13.144543434498276" markerHeight="18.246037666503607" viewBox="-0.29389262614623657 -0.4045084971874737 13.144543434498276 18.246037666503607" refX="12.0" refY="8.71851033606433"><path id="ProcessOnPath1121" d="M0 0L12.0 8.71851033606433L0 17.43702067212866" stroke="#323232" stroke-width="1.0" fill="none" transform="matrix(1.0,0.0,0.0,1.0,0.0,0.0)"/></marker><marker id="ProcessOnMarker1135" markerUnits="userSpaceOnUse" orient="auto" markerWidth="13.144543434498276" markerHeight="18.246037666503607" viewBox="-0.29389262614623657 -0.4045084971874737 13.144543434498276 18.246037666503607" refX="12.0" refY="8.71851033606433"><path id="ProcessOnPath1136" d="M0 0L12.0 8.71851033606433L0 17.43702067212866" stroke="#323232" stroke-width="1.0" fill="none" transform="matrix(1.0,0.0,0.0,1.0,0.0,0.0)"/></marker><marker id="ProcessOnMarker1139" markerUnits="userSpaceOnUse" orient="auto" markerWidth="13.144543434498276" markerHeight="18.246037666503607" viewBox="-0.29389262614623657 -0.4045084971874737 13.144543434498276 18.246037666503607" refX="12.0" refY="8.71851033606433"><path id="ProcessOnPath1140" d="M0 0L12.0 8.71851033606433L0 17.43702067212866" stroke="#323232" stroke-width="1.0" fill="none" transform="matrix(1.0,0.0,0.0,1.0,0.0,0.0)"/></marker><marker id="ProcessOnMarker1155" markerUnits="userSpaceOnUse" orient="auto" markerWidth="13.144543434498276" markerHeight="18.246037666503607" viewBox="-0.29389262614623657 -0.4045084971874737 13.144543434498276 18.246037666503607" refX="12.0" refY="8.71851033606433"><path id="ProcessOnPath1156" d="M0 0L12.0 8.71851033606433L0 17.43702067212866" stroke="#323232" stroke-width="1.0" fill="none" transform="matrix(1.0,0.0,0.0,1.0,0.0,0.0)"/></marker><marker id="ProcessOnMarker1162" markerUnits="userSpaceOnUse" orient="auto" markerWidth="13.144543434498276" markerHeight="18.246037666503607" viewBox="-0.29389262614623657 -0.4045084971874737 13.144543434498276 18.246037666503607" refX="12.0" refY="8.71851033606433"><path id="ProcessOnPath1163" d="M0 0L12.0 8.71851033606433L0 17.43702067212866" stroke="#323232" stroke-width="1.0" fill="none" transform="matrix(1.0,0.0,0.0,1.0,0.0,0.0)"/></marker><marker id="ProcessOnMarker1178" markerUnits="userSpaceOnUse" orient="auto" markerWidth="13.144543434498276" markerHeight="18.246037666503607" viewBox="-0.29389262614623657 -0.4045084971874737 13.144543434498276 18.246037666503607" refX="12.0" refY="8.71851033606433"><path id="ProcessOnPath1179" d="M0 0L12.0 8.71851033606433L0 17.43702067212866" stroke="#323232" stroke-width="1.0" fill="none" transform="matrix(1.0,0.0,0.0,1.0,0.0,0.0)"/></marker><marker id="ProcessOnMarker1193" markerUnits="userSpaceOnUse" orient="auto" markerWidth="13.144543434498276" markerHeight="18.246037666503607" viewBox="-0.29389262614623657 -0.4045084971874737 13.144543434498276 18.246037666503607" refX="12.0" refY="8.71851033606433"><path id="ProcessOnPath1194" d="M0 0L12.0 8.71851033606433L0 17.43702067212866" stroke="#323232" stroke-width="1.0" fill="none" transform="matrix(1.0,0.0,0.0,1.0,0.0,0.0)"/></marker><marker id="ProcessOnMarker1217" markerUnits="userSpaceOnUse" orient="auto" markerWidth="13.144543434498276" markerHeight="18.246037666503607" viewBox="-0.29389262614623657 -0.4045084971874737 13.144543434498276 18.246037666503607" refX="12.0" refY="8.71851033606433"><path id="ProcessOnPath1218" d="M0 0L12.0 8.71851033606433L0 17.43702067212866" stroke="#323232" stroke-width="1.0" fill="none" transform="matrix(1.0,0.0,0.0,1.0,0.0,0.0)"/></marker><marker id="ProcessOnMarker1229" markerUnits="userSpaceOnUse" orient="auto" markerWidth="13.144543434498276" markerHeight="18.246037666503607" viewBox="-0.29389262614623657 -0.4045084971874737 13.144543434498276 18.246037666503607" refX="12.0" refY="8.71851033606433"><path id="ProcessOnPath1230" d="M0 0L12.0 8.71851033606433L0 17.43702067212866" stroke="#323232" stroke-width="1.0" fill="none" transform="matrix(1.0,0.0,0.0,1.0,0.0,0.0)"/></marker><marker id="ProcessOnMarker1253" markerUnits="userSpaceOnUse" orient="auto" markerWidth="13.144543434498276" markerHeight="18.246037666503607" viewBox="-0.29389262614623657 -0.4045084971874737 13.144543434498276 18.246037666503607" refX="12.0" refY="8.71851033606433"><path id="ProcessOnPath1254" d="M0 0L12.0 8.71851033606433L0 17.43702067212866" stroke="#323232" stroke-width="1.0" fill="none" transform="matrix(1.0,0.0,0.0,1.0,0.0,0.0)"/></marker></defs><g id="ProcessOnG1002"><path id="ProcessOnPath1003" d="M69.0 27.0H1250.0V912.0H69.0V27.0Z" fill="none"/><g id="ProcessOnG1004"><g id="ProcessOnG1005" transform="matrix(1.0,0.0,0.0,1.0,99.0,319.0)" opacity="1.0"><path id="ProcessOnPath1006" d="M0.0 0.0L152.0 0.0L152.0 32.0L0.0 32.0Z" stroke="#323232" stroke-width="2.0" stroke-dasharray="none" opacity="1.0" fill="#ffffff"/><g id="ProcessOnG1007" transform="matrix(1.0,0.0,0.0,1.0,10.0,7.875)"><text id="ProcessOnText1008" fill="#000000" font-size="13" x="65.0" y="13.325" font-family="微软雅黑" font-weight="normal" font-style="normal" text-decoration="none" family="微软雅黑" text-anchor="middle" size="13">...</text></g></g><g id="ProcessOnG1009" transform="matrix(1.0,0.0,0.0,1.0,436.0,237.0)" opacity="1.0"><path id="ProcessOnPath1010" d="M0.0 0.0L138.0 0.0L138.0 32.0L0.0 32.0Z" stroke="#323232" stroke-width="2.0" stroke-dasharray="none" opacity="1.0" fill="#ffffff"/><g id="ProcessOnG1011" transform="matrix(1.0,0.0,0.0,1.0,10.0,7.875)"><text id="ProcessOnText1012" fill="#ff6666" font-size="13" x="58.0" y="13.325" font-family="微软雅黑" font-weight="normal" font-style="normal" text-decoration="none" family="微软雅黑" text-anchor="middle" size="13">factory</text></g></g><g id="ProcessOnG1013"><path id="ProcessOnPath1014" d="M251.0 335.0C331.9434370409362 335.0 355.0565629590638 253.0 436.0 253.0" stroke="#323232" stroke-width="1.0" stroke-dasharray="5.0 2.0" fill="none" marker-end="url(#ProcessOnMarker1015)"/><g id="ProcessOnG1017" transform="matrix(1.0,0.0,0.0,1.0,343.5,285.875)"><path id="ProcessOnPath1018" d="M0 0H141.0V16.25H0Z" fill="#fff" transform="matrix(1.0,0.0,0.0,1.0,-70.5,0.0)"/><text id="ProcessOnText1019" fill="#000000" font-size="13" x="0.0" y="13.325" font-family="微软雅黑" font-weight="normal" font-style="normal" text-decoration="none" family="微软雅黑" text-anchor="middle" size="13">Admissionregistration()</text></g></g><g id="ProcessOnG1020" transform="matrix(1.0,0.0,0.0,1.0,436.0,215.0)" opacity="1.0"><path id="ProcessOnPath1021" d="M0.0 0.0L52.0 0.0L52.0 22.0L0.0 22.0Z" stroke="none" stroke-width="0.0" stroke-dasharray="none" opacity="1.0" fill="none"/><g id="ProcessOnG1022" transform="matrix(1.0,0.0,0.0,1.0,0.0,2.875)"><text id="ProcessOnText1023" fill="#000000" font-size="13" x="25.0" y="13.325" font-family="微软雅黑" font-weight="normal" font-style="normal" text-decoration="none" family="微软雅黑" text-anchor="middle" size="13">group</text></g></g><g id="ProcessOnG1024" transform="matrix(1.0,0.0,0.0,1.0,436.0,269.0)" opacity="1.0"><path id="ProcessOnPath1025" d="M0.0 0.0L138.0 0.0L138.0 32.0L0.0 32.0Z" stroke="#323232" stroke-width="2.0" stroke-dasharray="none" opacity="1.0" fill="#ffffff"/><g id="ProcessOnG1026" transform="matrix(1.0,0.0,0.0,1.0,10.0,7.875)"><text id="ProcessOnText1027" fill="#000000" font-size="13" x="58.0" y="13.325" font-family="微软雅黑" font-weight="normal" font-style="normal" text-decoration="none" family="微软雅黑" text-anchor="middle" size="13">namespace</text></g></g><g id="ProcessOnG1028" transform="matrix(1.0,0.0,0.0,1.0,436.0,301.0)" opacity="1.0"><path id="ProcessOnPath1029" d="M0.0 0.0L138.0 0.0L138.0 32.0L0.0 32.0Z" stroke="#323232" stroke-width="2.0" stroke-dasharray="none" opacity="1.0" fill="#ffffff"/><g id="ProcessOnG1030" transform="matrix(1.0,0.0,0.0,1.0,10.0,7.875)"><text id="ProcessOnText1031" fill="#ffb366" font-size="13" x="58.0" y="13.325" font-family="微软雅黑" font-weight="normal" font-style="normal" text-decoration="none" family="微软雅黑" text-anchor="middle" size="13">tweakListOptions</text></g></g><g id="ProcessOnG1032"><path id="ProcessOnPath1033" d="M436.0 245.0C351.69292081918627 245.0 238.65 234.69292081918624 238.65 319.0" stroke="#323232" stroke-width="1.0" stroke-dasharray="none" fill="none" marker-end="url(#ProcessOnMarker1034)"/></g><g id="ProcessOnG1036" transform="matrix(1.0,0.0,0.0,1.0,655.0,150.0)" opacity="1.0"><path id="ProcessOnPath1037" d="M0.0 0.0L138.0 0.0L138.0 32.0L0.0 32.0Z" stroke="#323232" stroke-width="2.0" stroke-dasharray="none" opacity="1.0" fill="#ffffff"/><g id="ProcessOnG1038" transform="matrix(1.0,0.0,0.0,1.0,10.0,7.875)"><text id="ProcessOnText1039" fill="#ff6666" font-size="13" x="58.0" y="13.325" font-family="微软雅黑" font-weight="normal" font-style="normal" text-decoration="none" family="微软雅黑" text-anchor="middle" size="13">factory</text></g></g><g id="ProcessOnG1040" transform="matrix(1.0,0.0,0.0,1.0,655.0,128.0)" opacity="1.0"><path id="ProcessOnPath1041" d="M0.0 0.0L106.0 0.0L106.0 22.0L0.0 22.0Z" stroke="none" stroke-width="0.0" stroke-dasharray="none" opacity="1.0" fill="none"/><g id="ProcessOnG1042" transform="matrix(1.0,0.0,0.0,1.0,0.0,2.875)"><text id="ProcessOnText1043" fill="#000000" font-size="13" x="52.0" y="13.325" font-family="微软雅黑" font-weight="normal" font-style="normal" text-decoration="none" family="微软雅黑" text-anchor="middle" size="13">v1alpha1.version</text></g></g><g id="ProcessOnG1044" transform="matrix(1.0,0.0,0.0,1.0,655.0,182.0)" opacity="1.0"><path id="ProcessOnPath1045" d="M0.0 0.0L138.0 0.0L138.0 32.0L0.0 32.0Z" stroke="#323232" stroke-width="2.0" stroke-dasharray="none" opacity="1.0" fill="#ffffff"/><g id="ProcessOnG1046" transform="matrix(1.0,0.0,0.0,1.0,10.0,7.875)"><text id="ProcessOnText1047" fill="#000000" font-size="13" x="58.0" y="13.325" font-family="微软雅黑" font-weight="normal" font-style="normal" text-decoration="none" family="微软雅黑" text-anchor="middle" size="13">namespace</text></g></g><g id="ProcessOnG1048" transform="matrix(1.0,0.0,0.0,1.0,655.0,214.0)" opacity="1.0"><path id="ProcessOnPath1049" d="M0.0 0.0L138.0 0.0L138.0 32.0L0.0 32.0Z" stroke="#323232" stroke-width="2.0" stroke-dasharray="none" opacity="1.0" fill="#ffffff"/><g id="ProcessOnG1050" transform="matrix(1.0,0.0,0.0,1.0,10.0,7.875)"><text id="ProcessOnText1051" fill="#ffb366" font-size="13" x="58.0" y="13.325" font-family="微软雅黑" font-weight="normal" font-style="normal" text-decoration="none" family="微软雅黑" text-anchor="middle" size="13">tweakListOptions</text></g></g><g id="ProcessOnG1052"><path id="ProcessOnPath1053" d="M574.0 253.0C621.5478706147815 253.0 607.4521293852185 166.0 655.0 166.0" stroke="#323232" stroke-width="1.0" stroke-dasharray="5.0 2.0" fill="none" marker-end="url(#ProcessOnMarker1054)"/><g id="ProcessOnG1056" transform="matrix(1.0,0.0,0.0,1.0,614.5,201.375)"><path id="ProcessOnPath1057" d="M0 0H66.0V16.25H0Z" fill="#fff" transform="matrix(1.0,0.0,0.0,1.0,-33.0,0.0)"/><text id="ProcessOnText1058" fill="#000000" font-size="13" x="0.0" y="13.325" font-family="微软雅黑" font-weight="normal" font-style="normal" text-decoration="none" family="微软雅黑" text-anchor="middle" size="13">V1alpha1()</text></g></g><g id="ProcessOnG1059" transform="matrix(1.0,0.0,0.0,1.0,655.0,287.0)" opacity="1.0"><path id="ProcessOnPath1060" d="M0.0 0.0L138.0 0.0L138.0 32.0L0.0 32.0Z" stroke="#323232" stroke-width="2.0" stroke-dasharray="none" opacity="1.0" fill="#ffffff"/><g id="ProcessOnG1061" transform="matrix(1.0,0.0,0.0,1.0,10.0,7.875)"><text id="ProcessOnText1062" fill="#ff6666" font-size="13" x="58.0" y="13.325" font-family="微软雅黑" font-weight="normal" font-style="normal" text-decoration="none" family="微软雅黑" text-anchor="middle" size="13">factory</text></g></g><g id="ProcessOnG1063" transform="matrix(1.0,0.0,0.0,1.0,655.0,265.0)" opacity="1.0"><path id="ProcessOnPath1064" d="M0.0 0.0L106.0 0.0L106.0 22.0L0.0 22.0Z" stroke="none" stroke-width="0.0" stroke-dasharray="none" opacity="1.0" fill="none"/><g id="ProcessOnG1065" transform="matrix(1.0,0.0,0.0,1.0,0.0,2.875)"><text id="ProcessOnText1066" fill="#000000" font-size="13" x="52.0" y="13.325" font-family="微软雅黑" font-weight="normal" font-style="normal" text-decoration="none" family="微软雅黑" text-anchor="middle" size="13">v1beta1.version</text></g></g><g id="ProcessOnG1067" transform="matrix(1.0,0.0,0.0,1.0,655.0,319.0)" opacity="1.0"><path id="ProcessOnPath1068" d="M0.0 0.0L138.0 0.0L138.0 32.0L0.0 32.0Z" stroke="#323232" stroke-width="2.0" stroke-dasharray="none" opacity="1.0" fill="#ffffff"/><g id="ProcessOnG1069" transform="matrix(1.0,0.0,0.0,1.0,10.0,7.875)"><text id="ProcessOnText1070" fill="#000000" font-size="13" x="58.0" y="13.325" font-family="微软雅黑" font-weight="normal" font-style="normal" text-decoration="none" family="微软雅黑" text-anchor="middle" size="13">namespace</text></g></g><g id="ProcessOnG1071"><path id="ProcessOnPath1072" d="M574.0 253.0C612.0757140445193 253.0 616.9242859554807 303.0 655.0 303.0" stroke="#323232" stroke-width="1.0" stroke-dasharray="5.0 2.0" fill="none" marker-end="url(#ProcessOnMarker1073)"/><g id="ProcessOnG1075" transform="matrix(1.0,0.0,0.0,1.0,614.5,269.875)"><path id="ProcessOnPath1076" d="M0 0H60.0V16.25H0Z" fill="#fff" transform="matrix(1.0,0.0,0.0,1.0,-30.0,0.0)"/><text id="ProcessOnText1077" fill="#000000" font-size="13" x="0.0" y="13.325" font-family="微软雅黑" font-weight="normal" font-style="normal" text-decoration="none" family="微软雅黑" text-anchor="middle" size="13">V1beta1()</text></g></g><g id="ProcessOnG1078" transform="matrix(1.0,0.0,0.0,1.0,975.0,74.0)" opacity="1.0"><path id="ProcessOnPath1079" d="M0.0 0.0L142.0 0.0L142.0 32.0L0.0 32.0Z" stroke="#323232" stroke-width="2.0" stroke-dasharray="none" opacity="1.0" fill="#ffffff"/><g id="ProcessOnG1080" transform="matrix(1.0,0.0,0.0,1.0,10.0,7.875)"><text id="ProcessOnText1081" fill="#ff6666" font-size="13" x="60.0" y="13.325" font-family="微软雅黑" font-weight="normal" font-style="normal" text-decoration="none" family="微软雅黑" text-anchor="middle" size="13">factory</text></g></g><g id="ProcessOnG1082" transform="matrix(1.0,0.0,0.0,1.0,960.0,47.0)" opacity="1.0"><path id="ProcessOnPath1083" d="M0.0 0.0L270.0 0.0L270.0 21.0L0.0 21.0Z" stroke="none" stroke-width="0.0" stroke-dasharray="none" opacity="1.0" fill="none"/><g id="ProcessOnG1084" transform="matrix(1.0,0.0,0.0,1.0,0.0,2.375)"><text id="ProcessOnText1085" fill="#000000" font-size="13" x="134.0" y="13.325" font-family="微软雅黑" font-weight="normal" font-style="normal" text-decoration="none" family="微软雅黑" text-anchor="middle" size="13">v1alpha1.initializerConfigurationInformer</text></g></g><g id="ProcessOnG1086" transform="matrix(1.0,0.0,0.0,1.0,975.0,106.0)" opacity="1.0"><path id="ProcessOnPath1087" d="M0.0 0.0L142.0 0.0L142.0 32.0L0.0 32.0Z" stroke="#323232" stroke-width="2.0" stroke-dasharray="none" opacity="1.0" fill="#ffffff"/><g id="ProcessOnG1088" transform="matrix(1.0,0.0,0.0,1.0,10.0,7.875)"><text id="ProcessOnText1089" fill="#ffb366" font-size="13" x="60.0" y="13.325" font-family="微软雅黑" font-weight="normal" font-style="normal" text-decoration="none" family="微软雅黑" text-anchor="middle" size="13">tweakListOptions</text></g></g><g id="ProcessOnG1090"><path id="ProcessOnPath1091" d="M793.0 166.0C871.892331693264 166.0 896.107668306736 90.0 975.0 90.0" stroke="#323232" stroke-width="1.0" stroke-dasharray="5.0 2.0" fill="none" marker-end="url(#ProcessOnMarker1092)"/><g id="ProcessOnG1094" transform="matrix(1.0,0.0,0.0,1.0,884.0,119.875)"><path id="ProcessOnPath1095" d="M0 0H153.0V16.25H0Z" fill="#fff" transform="matrix(1.0,0.0,0.0,1.0,-76.5,0.0)"/><text id="ProcessOnText1096" fill="#000000" font-size="13" x="0.0" y="13.325" font-family="微软雅黑" font-weight="normal" font-style="normal" text-decoration="none" family="微软雅黑" text-anchor="middle" size="13">InitializerConfigurations()</text></g></g><g id="ProcessOnG1097"><path id="ProcessOnPath1098" d="M1046.0 138.0C1046.0 343.9631034918633 839.0 442.0 645.0 461.0" stroke="#323232" stroke-width="1.0" stroke-dasharray="5.0 2.0" fill="none"/><g id="ProcessOnG1099" transform="matrix(1.0,0.0,0.0,1.0,918.25,361.4861638094487)"><path id="ProcessOnPath1100" d="M0 0H109.0V16.25H0Z" fill="#fff" transform="matrix(1.0,0.0,0.0,1.0,-54.5,0.0)"/><text id="ProcessOnText1101" fill="#000000" font-size="13" x="0.0" y="13.325" font-family="微软雅黑" font-weight="normal" font-style="normal" text-decoration="none" family="微软雅黑" text-anchor="middle" size="13">factory.Informer()</text></g></g><g id="ProcessOnG1102" transform="matrix(1.0,0.0,0.0,1.0,89.0,297.0)" opacity="1.0"><path id="ProcessOnPath1103" d="M0.0 0.0L145.0 0.0L145.0 22.0L0.0 22.0Z" stroke="none" stroke-width="0.0" stroke-dasharray="none" opacity="1.0" fill="none"/><g id="ProcessOnG1104" transform="matrix(1.0,0.0,0.0,1.0,0.0,2.875)"><text id="ProcessOnText1105" fill="#000000" font-size="13" x="71.5" y="13.325" font-family="微软雅黑" font-weight="normal" font-style="normal" text-decoration="none" family="微软雅黑" text-anchor="middle" size="13">sharedInformerFactory</text></g></g><g id="ProcessOnG1106" transform="matrix(1.0,0.0,0.0,1.0,99.0,351.0)" opacity="1.0"><path id="ProcessOnPath1107" d="M0.0 0.0L152.0 0.0L152.0 32.0L0.0 32.0Z" stroke="#323232" stroke-width="2.0" stroke-dasharray="none" opacity="1.0" fill="#ffffff"/><g id="ProcessOnG1108" transform="matrix(1.0,0.0,0.0,1.0,10.0,7.875)"><text id="ProcessOnText1109" fill="#000000" font-size="13" x="65.0" y="13.325" font-family="微软雅黑" font-weight="normal" font-style="normal" text-decoration="none" family="微软雅黑" text-anchor="middle" size="13">informers</text></g></g><g id="ProcessOnG1110" transform="matrix(1.0,0.0,0.0,1.0,99.0,383.0)" opacity="1.0"><path id="ProcessOnPath1111" d="M0.0 0.0L152.0 0.0L152.0 32.0L0.0 32.0Z" stroke="#323232" stroke-width="2.0" stroke-dasharray="none" opacity="1.0" fill="#ffffff"/><g id="ProcessOnG1112" transform="matrix(1.0,0.0,0.0,1.0,10.0,7.875)"><text id="ProcessOnText1113" fill="#000000" font-size="13" x="65.0" y="13.325" font-family="微软雅黑" font-weight="normal" font-style="normal" text-decoration="none" family="微软雅黑" text-anchor="middle" size="13">...</text></g></g><g id="ProcessOnG1114" transform="matrix(1.0,0.0,0.0,1.0,493.0,445.0)" opacity="1.0"><path id="ProcessOnPath1115" d="M0.0 0.0L152.0 0.0L152.0 32.0L0.0 32.0Z" stroke="#323232" stroke-width="2.0" stroke-dasharray="none" opacity="1.0" fill="#ffffff"/><g id="ProcessOnG1116" transform="matrix(1.0,0.0,0.0,1.0,10.0,7.875)"><text id="ProcessOnText1117" fill="#000000" font-size="13" x="65.0" y="13.325" font-family="微软雅黑" font-weight="normal" font-style="normal" text-decoration="none" family="微软雅黑" text-anchor="middle" size="13">reflect.Type</text></g></g><g id="ProcessOnG1118"><path id="ProcessOnPath1119" d="M251.0 367.0C354.84603988597735 367.0 389.15396011402265 461.0 493.0 461.0" stroke="#323232" stroke-width="1.0" stroke-dasharray="none" fill="none" marker-end="url(#ProcessOnMarker1120)"/><g id="ProcessOnG1122" transform="matrix(1.0,0.0,0.0,1.0,372.0,405.875)"><path id="ProcessOnPath1123" d="M0 0H27.0V16.25H0Z" fill="#fff" transform="matrix(1.0,0.0,0.0,1.0,-13.5,0.0)"/><text id="ProcessOnText1124" fill="#000000" font-size="13" x="0.0" y="13.325" font-family="微软雅黑" font-weight="normal" font-style="normal" text-decoration="none" family="微软雅黑" text-anchor="middle" size="13">map</text></g></g><g id="ProcessOnG1125" transform="matrix(1.0,0.0,0.0,1.0,858.0,451.5)" opacity="1.0"><path id="ProcessOnPath1126" d="M0.0 0.0L132.0 0.0L132.0 32.0L0.0 32.0Z" stroke="#323232" stroke-width="2.0" stroke-dasharray="none" opacity="1.0" fill="#ffffff"/><g id="ProcessOnG1127" transform="matrix(1.0,0.0,0.0,1.0,10.0,7.875)"><text id="ProcessOnText1128" fill="#000000" font-size="13" x="55.0" y="13.325" font-family="微软雅黑" font-weight="normal" font-style="normal" text-decoration="none" family="微软雅黑" text-anchor="middle" size="13">indexer</text></g></g><g id="ProcessOnG1129" transform="matrix(1.0,0.0,0.0,1.0,851.0,428.5)" opacity="1.0"><path id="ProcessOnPath1130" d="M0.0 0.0L132.0 0.0L132.0 20.0L0.0 20.0Z" stroke="none" stroke-width="0.0" stroke-dasharray="none" opacity="1.0" fill="none"/><g id="ProcessOnG1131" transform="matrix(1.0,0.0,0.0,1.0,0.0,1.875)"><text id="ProcessOnText1132" fill="#000000" font-size="13" x="65.0" y="13.325" font-family="微软雅黑" font-weight="normal" font-style="normal" text-decoration="none" family="微软雅黑" text-anchor="middle" size="13">sharedIndexInformer</text></g></g><g id="ProcessOnG1133"><path id="ProcessOnPath1134" d="M644.1432743418808 476.40373334128617C740.0 456.0 772.3832020438748 467.5 858.0 467.5" stroke="#323232" stroke-width="1.0" stroke-dasharray="none" fill="none" marker-end="url(#ProcessOnMarker1135)"/></g><g id="ProcessOnG1137"><path id="ProcessOnPath1138" d="M645.0 461.0C696.0 463.0 811.0 452.0 858.532088886238 453.2855752193731" stroke="#323232" stroke-width="1.0" stroke-dasharray="5.0 2.0" fill="none" marker-end="url(#ProcessOnMarker1139)"/></g><g id="ProcessOnG1141" transform="matrix(1.0,0.0,0.0,1.0,436.0,791.0)" opacity="1.0"><path id="ProcessOnPath1142" d="M0.0 0.0L138.0 0.0L138.0 32.0L0.0 32.0Z" stroke="#323232" stroke-width="2.0" stroke-dasharray="none" opacity="1.0" fill="#ffffff"/><g id="ProcessOnG1143" transform="matrix(1.0,0.0,0.0,1.0,10.0,7.875)"><text id="ProcessOnText1144" fill="#ff6666" font-size="13" x="58.0" y="13.325" font-family="微软雅黑" font-weight="normal" font-style="normal" text-decoration="none" family="微软雅黑" text-anchor="middle" size="13">factory</text></g></g><g id="ProcessOnG1145" transform="matrix(1.0,0.0,0.0,1.0,436.0,769.0)" opacity="1.0"><path id="ProcessOnPath1146" d="M0.0 0.0L52.0 0.0L52.0 22.0L0.0 22.0Z" stroke="none" stroke-width="0.0" stroke-dasharray="none" opacity="1.0" fill="none"/><g id="ProcessOnG1147" transform="matrix(1.0,0.0,0.0,1.0,0.0,2.875)"><text id="ProcessOnText1148" fill="#000000" font-size="13" x="25.0" y="13.325" font-family="微软雅黑" font-weight="normal" font-style="normal" text-decoration="none" family="微软雅黑" text-anchor="middle" size="13">group</text></g></g><g id="ProcessOnG1149" transform="matrix(1.0,0.0,0.0,1.0,436.0,823.0)" opacity="1.0"><path id="ProcessOnPath1150" d="M0.0 0.0L138.0 0.0L138.0 32.0L0.0 32.0Z" stroke="#323232" stroke-width="2.0" stroke-dasharray="none" opacity="1.0" fill="#ffffff"/><g id="ProcessOnG1151" transform="matrix(1.0,0.0,0.0,1.0,10.0,7.875)"><text id="ProcessOnText1152" fill="#000000" font-size="13" x="58.0" y="13.325" font-family="微软雅黑" font-weight="normal" font-style="normal" text-decoration="none" family="微软雅黑" text-anchor="middle" size="13">namespace</text></g></g><g id="ProcessOnG1153"><path id="ProcessOnPath1154" d="M251.0 399.0C425.83294883974247 399.0 261.16705116025753 795.0 436.0 795.0" stroke="#323232" stroke-width="1.0" stroke-dasharray="5.0 2.0" fill="none" marker-end="url(#ProcessOnMarker1155)"/><g id="ProcessOnG1157" transform="matrix(1.0,0.0,0.0,1.0,343.5,588.875)"><path id="ProcessOnPath1158" d="M0 0H37.0V16.25H0Z" fill="#fff" transform="matrix(1.0,0.0,0.0,1.0,-18.5,0.0)"/><text id="ProcessOnText1159" fill="#000000" font-size="13" x="0.0" y="13.325" font-family="微软雅黑" font-weight="normal" font-style="normal" text-decoration="none" family="微软雅黑" text-anchor="middle" size="13">Core()</text></g></g><g id="ProcessOnG1160"><path id="ProcessOnPath1161" d="M436.0 807.0C259.4223117152113 807.0 233.00000000000003 591.5776882847887 233.0 415.0" stroke="#323232" stroke-width="1.0" stroke-dasharray="none" fill="none" marker-end="url(#ProcessOnMarker1162)"/></g><g id="ProcessOnG1164" transform="matrix(1.0,0.0,0.0,1.0,655.0,791.0)" opacity="1.0"><path id="ProcessOnPath1165" d="M0.0 0.0L138.0 0.0L138.0 32.0L0.0 32.0Z" stroke="#323232" stroke-width="2.0" stroke-dasharray="none" opacity="1.0" fill="#ffffff"/><g id="ProcessOnG1166" transform="matrix(1.0,0.0,0.0,1.0,10.0,7.875)"><text id="ProcessOnText1167" fill="#ff6666" font-size="13" x="58.0" y="13.325" font-family="微软雅黑" font-weight="normal" font-style="normal" text-decoration="none" family="微软雅黑" text-anchor="middle" size="13">factory</text></g></g><g id="ProcessOnG1168" transform="matrix(1.0,0.0,0.0,1.0,655.0,769.0)" opacity="1.0"><path id="ProcessOnPath1169" d="M0.0 0.0L71.0 0.0L71.0 22.0L0.0 22.0Z" stroke="none" stroke-width="0.0" stroke-dasharray="none" opacity="1.0" fill="none"/><g id="ProcessOnG1170" transform="matrix(1.0,0.0,0.0,1.0,0.0,2.875)"><text id="ProcessOnText1171" fill="#000000" font-size="13" x="34.5" y="13.325" font-family="微软雅黑" font-weight="normal" font-style="normal" text-decoration="none" family="微软雅黑" text-anchor="middle" size="13">v1.version</text></g></g><g id="ProcessOnG1172" transform="matrix(1.0,0.0,0.0,1.0,655.0,823.0)" opacity="1.0"><path id="ProcessOnPath1173" d="M0.0 0.0L138.0 0.0L138.0 32.0L0.0 32.0Z" stroke="#323232" stroke-width="2.0" stroke-dasharray="none" opacity="1.0" fill="#ffffff"/><g id="ProcessOnG1174" transform="matrix(1.0,0.0,0.0,1.0,10.0,7.875)"><text id="ProcessOnText1175" fill="#000000" font-size="13" x="58.0" y="13.325" font-family="微软雅黑" font-weight="normal" font-style="normal" text-decoration="none" family="微软雅黑" text-anchor="middle" size="13">namespace</text></g></g><g id="ProcessOnG1176"><path id="ProcessOnPath1177" d="M574.0 807.0C606.4 807.0 622.6 807.0 655.0 807.0" stroke="#323232" stroke-width="1.0" stroke-dasharray="5.0 2.0" fill="none" marker-end="url(#ProcessOnMarker1178)"/><g id="ProcessOnG1180" transform="matrix(1.0,0.0,0.0,1.0,614.5,798.875)"><path id="ProcessOnPath1181" d="M0 0H25.0V16.25H0Z" fill="#fff" transform="matrix(1.0,0.0,0.0,1.0,-12.5,0.0)"/><text id="ProcessOnText1182" fill="#000000" font-size="13" x="0.0" y="13.325" font-family="微软雅黑" font-weight="normal" font-style="normal" text-decoration="none" family="微软雅黑" text-anchor="middle" size="13">V1()</text></g></g><g id="ProcessOnG1183" transform="matrix(1.0,0.0,0.0,1.0,978.0,642.0)" opacity="1.0"><path id="ProcessOnPath1184" d="M0.0 0.0L138.0 0.0L138.0 32.0L0.0 32.0Z" stroke="#323232" stroke-width="2.0" stroke-dasharray="none" opacity="1.0" fill="#ffffff"/><g id="ProcessOnG1185" transform="matrix(1.0,0.0,0.0,1.0,10.0,7.875)"><text id="ProcessOnText1186" fill="#ff6666" font-size="13" x="58.0" y="13.325" font-family="微软雅黑" font-weight="normal" font-style="normal" text-decoration="none" family="微软雅黑" text-anchor="middle" size="13">factory</text></g></g><g id="ProcessOnG1187" transform="matrix(1.0,0.0,0.0,1.0,978.0,620.0)" opacity="1.0"><path id="ProcessOnPath1188" d="M0.0 0.0L95.0 0.0L95.0 22.0L0.0 22.0Z" stroke="none" stroke-width="0.0" stroke-dasharray="none" opacity="1.0" fill="none"/><g id="ProcessOnG1189" transform="matrix(1.0,0.0,0.0,1.0,0.0,2.875)"><text id="ProcessOnText1190" fill="#000000" font-size="13" x="46.5" y="13.325" font-family="微软雅黑" font-weight="normal" font-style="normal" text-decoration="none" family="微软雅黑" text-anchor="middle" size="13">nodeInformer</text></g></g><g id="ProcessOnG1191"><path id="ProcessOnPath1192" d="M793.0 807.0C888.0166301233631 807.0 882.9833698766369 658.0 978.0 658.0" stroke="#323232" stroke-width="1.0" stroke-dasharray="5.0 2.0" fill="none" marker-end="url(#ProcessOnMarker1193)"/><g id="ProcessOnG1195" transform="matrix(1.0,0.0,0.0,1.0,885.5,724.375)"><path id="ProcessOnPath1196" d="M0 0H48.0V16.25H0Z" fill="#fff" transform="matrix(1.0,0.0,0.0,1.0,-24.0,0.0)"/><text id="ProcessOnText1197" fill="#000000" font-size="13" x="0.0" y="13.325" font-family="微软雅黑" font-weight="normal" font-style="normal" text-decoration="none" family="微软雅黑" text-anchor="middle" size="13">Nodes()</text></g></g><g id="ProcessOnG1198" transform="matrix(1.0,0.0,0.0,1.0,493.0,476.5)" opacity="1.0"><path id="ProcessOnPath1199" d="M0.0 0.0L152.0 0.0L152.0 32.0L0.0 32.0Z" stroke="#323232" stroke-width="2.0" stroke-dasharray="none" opacity="1.0" fill="#ffffff"/><g id="ProcessOnG1200" transform="matrix(1.0,0.0,0.0,1.0,10.0,7.875)"><text id="ProcessOnText1201" fill="#000000" font-size="13" x="65.0" y="13.325" font-family="微软雅黑" font-weight="normal" font-style="normal" text-decoration="none" family="微软雅黑" text-anchor="middle" size="13">reflect.Type</text></g></g><g id="ProcessOnG1202" transform="matrix(1.0,0.0,0.0,1.0,551.5,686.5)" opacity="1.0"><path id="ProcessOnPath1203" d="M0.0 0.0L132.0 0.0L132.0 32.0L0.0 32.0Z" stroke="#323232" stroke-width="2.0" stroke-dasharray="none" opacity="1.0" fill="#ffffff"/><g id="ProcessOnG1204" transform="matrix(1.0,0.0,0.0,1.0,10.0,7.875)"><text id="ProcessOnText1205" fill="#000000" font-size="13" x="55.0" y="13.325" font-family="微软雅黑" font-weight="normal" font-style="normal" text-decoration="none" family="微软雅黑" text-anchor="middle" size="13">indexer</text></g></g><g id="ProcessOnG1206" transform="matrix(1.0,0.0,0.0,1.0,544.5,663.5)" opacity="1.0"><path id="ProcessOnPath1207" d="M0.0 0.0L132.0 0.0L132.0 20.0L0.0 20.0Z" stroke="none" stroke-width="0.0" stroke-dasharray="none" opacity="1.0" fill="none"/><g id="ProcessOnG1208" transform="matrix(1.0,0.0,0.0,1.0,0.0,1.875)"><text id="ProcessOnText1209" fill="#000000" font-size="13" x="65.0" y="13.325" font-family="微软雅黑" font-weight="normal" font-style="normal" text-decoration="none" family="微软雅黑" text-anchor="middle" size="13">sharedIndexInformer</text></g></g><g id="ProcessOnG1210"><path id="ProcessOnPath1211" d="M978.7649833995417 645.7101007166283C840.7242210226169 595.4673720960138 791.8999110171525 492.5 645.0 492.5" stroke="#323232" stroke-width="1.0" stroke-dasharray="5.0 2.0" fill="none"/><g id="ProcessOnG1212" transform="matrix(1.0,0.0,0.0,1.0,815.2046724398563,542.1390271255837)"><path id="ProcessOnPath1213" d="M0 0H109.0V16.25H0Z" fill="#fff" transform="matrix(1.0,0.0,0.0,1.0,-54.5,0.0)"/><text id="ProcessOnText1214" fill="#000000" font-size="13" x="0.0" y="13.325" font-family="微软雅黑" font-weight="normal" font-style="normal" text-decoration="none" family="微软雅黑" text-anchor="middle" size="13">factory.Informer()</text></g></g><g id="ProcessOnG1215"><path id="ProcessOnPath1216" d="M645.0 492.5C730.4 492.5 768.9 702.5 683.5 702.5" stroke="#323232" stroke-width="1.0" stroke-dasharray="5.0 2.0" fill="none" marker-end="url(#ProcessOnMarker1217)"/></g><g id="ProcessOnG1219" transform="matrix(1.0,0.0,0.0,1.0,983.0,828.0)" opacity="1.0"><path id="ProcessOnPath1220" d="M0.0 0.0L138.0 0.0L138.0 32.0L0.0 32.0Z" stroke="#323232" stroke-width="2.0" stroke-dasharray="none" opacity="1.0" fill="#ffffff"/><g id="ProcessOnG1221" transform="matrix(1.0,0.0,0.0,1.0,10.0,7.875)"><text id="ProcessOnText1222" fill="#ff6666" font-size="13" x="58.0" y="13.325" font-family="微软雅黑" font-weight="normal" font-style="normal" text-decoration="none" family="微软雅黑" text-anchor="middle" size="13">factory</text></g></g><g id="ProcessOnG1223" transform="matrix(1.0,0.0,0.0,1.0,983.0,806.0)" opacity="1.0"><path id="ProcessOnPath1224" d="M0.0 0.0L95.0 0.0L95.0 22.0L0.0 22.0Z" stroke="none" stroke-width="0.0" stroke-dasharray="none" opacity="1.0" fill="none"/><g id="ProcessOnG1225" transform="matrix(1.0,0.0,0.0,1.0,0.0,2.875)"><text id="ProcessOnText1226" fill="#000000" font-size="13" x="46.5" y="13.325" font-family="微软雅黑" font-weight="normal" font-style="normal" text-decoration="none" family="微软雅黑" text-anchor="middle" size="13">nodeInformer</text></g></g><g id="ProcessOnG1227"><path id="ProcessOnPath1228" d="M793.0 807.0C870.4276436423065 807.0 905.5723563576935 844.0 983.0 844.0" stroke="#323232" stroke-width="1.0" stroke-dasharray="5.0 2.0" fill="none" marker-end="url(#ProcessOnMarker1229)"/><g id="ProcessOnG1231" transform="matrix(1.0,0.0,0.0,1.0,888.0,817.375)"><path id="ProcessOnPath1232" d="M0 0H38.0V16.25H0Z" fill="#fff" transform="matrix(1.0,0.0,0.0,1.0,-19.0,0.0)"/><text id="ProcessOnText1233" fill="#000000" font-size="13" x="0.0" y="13.325" font-family="微软雅黑" font-weight="normal" font-style="normal" text-decoration="none" family="微软雅黑" text-anchor="middle" size="13">Pods()</text></g></g><g id="ProcessOnG1234" transform="matrix(1.0,0.0,0.0,1.0,493.0,508.5)" opacity="1.0"><path id="ProcessOnPath1235" d="M0.0 0.0L152.0 0.0L152.0 32.0L0.0 32.0Z" stroke="#323232" stroke-width="2.0" stroke-dasharray="none" opacity="1.0" fill="#ffffff"/><g id="ProcessOnG1236" transform="matrix(1.0,0.0,0.0,1.0,10.0,7.875)"><text id="ProcessOnText1237" fill="#000000" font-size="13" x="65.0" y="13.325" font-family="微软雅黑" font-weight="normal" font-style="normal" text-decoration="none" family="微软雅黑" text-anchor="middle" size="13">reflect.Type</text></g></g><g id="ProcessOnG1238"><path id="ProcessOnPath1239" d="M983.8900075335089 832.8452365234814C817.7914179574382 755.3921921954155 828.2695161090501 524.5 645.0 524.5" stroke="#323232" stroke-width="1.0" stroke-dasharray="5.0 2.0" fill="none"/><g id="ProcessOnG1240" transform="matrix(1.0,0.0,0.0,1.0,820.8841012166217,641.502726638716)"><path id="ProcessOnPath1241" d="M0 0H109.0V16.25H0Z" fill="#fff" transform="matrix(1.0,0.0,0.0,1.0,-54.5,0.0)"/><text id="ProcessOnText1242" fill="#000000" font-size="13" x="0.0" y="13.325" font-family="微软雅黑" font-weight="normal" font-style="normal" text-decoration="none" family="微软雅黑" text-anchor="middle" size="13">factory.Informer()</text></g></g><g id="ProcessOnG1243" transform="matrix(1.0,0.0,0.0,1.0,402.5,591.5)" opacity="1.0"><path id="ProcessOnPath1244" d="M0.0 0.0L132.0 0.0L132.0 32.0L0.0 32.0Z" stroke="#323232" stroke-width="2.0" stroke-dasharray="none" opacity="1.0" fill="#ffffff"/><g id="ProcessOnG1245" transform="matrix(1.0,0.0,0.0,1.0,10.0,7.875)"><text id="ProcessOnText1246" fill="#000000" font-size="13" x="55.0" y="13.325" font-family="微软雅黑" font-weight="normal" font-style="normal" text-decoration="none" family="微软雅黑" text-anchor="middle" size="13">indexer</text></g></g><g id="ProcessOnG1247" transform="matrix(1.0,0.0,0.0,1.0,395.5,568.5)" opacity="1.0"><path id="ProcessOnPath1248" d="M0.0 0.0L132.0 0.0L132.0 20.0L0.0 20.0Z" stroke="none" stroke-width="0.0" stroke-dasharray="none" opacity="1.0" fill="none"/><g id="ProcessOnG1249" transform="matrix(1.0,0.0,0.0,1.0,0.0,1.875)"><text id="ProcessOnText1250" fill="#000000" font-size="13" x="65.0" y="13.325" font-family="微软雅黑" font-weight="normal" font-style="normal" text-decoration="none" family="微软雅黑" text-anchor="middle" size="13">sharedIndexInformer</text></g></g><g id="ProcessOnG1251"><path id="ProcessOnPath1252" d="M645.0 524.5C700.2800144717781 524.5 589.7800144717781 607.5 534.5 607.5" stroke="#323232" stroke-width="1.0" stroke-dasharray="5.0 2.0" fill="none" marker-end="url(#ProcessOnMarker1253)"/></g><g id="ProcessOnG1255" transform="matrix(1.0,0.0,0.0,1.0,655.0,351.0)" opacity="1.0"><path id="ProcessOnPath1256" d="M0.0 0.0L138.0 0.0L138.0 32.0L0.0 32.0Z" stroke="#323232" stroke-width="2.0" stroke-dasharray="none" opacity="1.0" fill="#ffffff"/><g id="ProcessOnG1257" transform="matrix(1.0,0.0,0.0,1.0,10.0,7.875)"><text id="ProcessOnText1258" fill="#ffb366" font-size="13" x="58.0" y="13.325" font-family="微软雅黑" font-weight="normal" font-style="normal" text-decoration="none" family="微软雅黑" text-anchor="middle" size="13">tweakListOptions</text></g></g><g id="ProcessOnG1259" transform="matrix(1.0,0.0,0.0,1.0,436.0,855.0)" opacity="1.0"><path id="ProcessOnPath1260" d="M0.0 0.0L138.0 0.0L138.0 32.0L0.0 32.0Z" stroke="#323232" stroke-width="2.0" stroke-dasharray="none" opacity="1.0" fill="#ffffff"/><g id="ProcessOnG1261" transform="matrix(1.0,0.0,0.0,1.0,10.0,7.875)"><text id="ProcessOnText1262" fill="#ffb366" font-size="13" x="58.0" y="13.325" font-family="微软雅黑" font-weight="normal" font-style="normal" text-decoration="none" family="微软雅黑" text-anchor="middle" size="13">tweakListOptions</text></g></g><g id="ProcessOnG1263" transform="matrix(1.0,0.0,0.0,1.0,655.0,855.0)" opacity="1.0"><path id="ProcessOnPath1264" d="M0.0 0.0L138.0 0.0L138.0 32.0L0.0 32.0Z" stroke="#323232" stroke-width="2.0" stroke-dasharray="none" opacity="1.0" fill="#ffffff"/><g id="ProcessOnG1265" transform="matrix(1.0,0.0,0.0,1.0,10.0,7.875)"><text id="ProcessOnText1266" fill="#ffb366" font-size="13" x="58.0" y="13.325" font-family="微软雅黑" font-weight="normal" font-style="normal" text-decoration="none" family="微软雅黑" text-anchor="middle" size="13">tweakListOptions</text></g></g><g id="ProcessOnG1267" transform="matrix(1.0,0.0,0.0,1.0,978.0,674.0)" opacity="1.0"><path id="ProcessOnPath1268" d="M0.0 0.0L138.0 0.0L138.0 32.0L0.0 32.0Z" stroke="#323232" stroke-width="2.0" stroke-dasharray="none" opacity="1.0" fill="#ffffff"/><g id="ProcessOnG1269" transform="matrix(1.0,0.0,0.0,1.0,10.0,7.875)"><text id="ProcessOnText1270" fill="#ffb366" font-size="13" x="58.0" y="13.325" font-family="微软雅黑" font-weight="normal" font-style="normal" text-decoration="none" family="微软雅黑" text-anchor="middle" size="13">tweakListOptions</text></g></g><g id="ProcessOnG1271" transform="matrix(1.0,0.0,0.0,1.0,983.0,860.0)" opacity="1.0"><path id="ProcessOnPath1272" d="M0.0 0.0L138.0 0.0L138.0 32.0L0.0 32.0Z" stroke="#323232" stroke-width="2.0" stroke-dasharray="none" opacity="1.0" fill="#ffffff"/><g id="ProcessOnG1273" transform="matrix(1.0,0.0,0.0,1.0,10.0,7.875)"><text id="ProcessOnText1274" fill="#ffb366" font-size="13" x="58.0" y="13.325" font-family="微软雅黑" font-weight="normal" font-style="normal" text-decoration="none" family="微软雅黑" text-anchor="middle" size="13">tweakListOptions</text></g></g></g></g></svg>