<svg xmlns="http://www.w3.org/2000/svg" xmlns:xlink="http://www.w3.org/1999/xlink" id="processonSvg1000" viewBox="57.0 9.0 919.0 711.0" width="919.0" height="711.0"><defs id="ProcessOnDefs1001"><marker id="ProcessOnMarker1020" markerUnits="userSpaceOnUse" orient="auto" markerWidth="13.144543434498276" markerHeight="18.246037666503607" viewBox="-0.29389262614623657 -0.4045084971874737 13.144543434498276 18.246037666503607" refX="12.0" refY="8.71851033606433"><path id="ProcessOnPath1021" d="M0 0L12.0 8.71851033606433L0 17.43702067212866" stroke="#323232" stroke-width="1.0" fill="none" transform="matrix(1.0,0.0,0.0,1.0,0.0,0.0)"/></marker><marker id="ProcessOnMarker1036" markerUnits="userSpaceOnUse" orient="auto" markerWidth="13.144543434498276" markerHeight="18.246037666503607" viewBox="-0.29389262614623657 -0.4045084971874737 13.144543434498276 18.246037666503607" refX="12.0" refY="8.71851033606433"><path id="ProcessOnPath1037" d="M0 0L12.0 8.71851033606433L0 17.43702067212866" stroke="#323232" stroke-width="1.0" fill="none" transform="matrix(1.0,0.0,0.0,1.0,0.0,0.0)"/></marker><marker id="ProcessOnMarker1088" markerUnits="userSpaceOnUse" orient="auto" markerWidth="13.144543434498276" markerHeight="18.246037666503607" viewBox="-0.29389262614623657 -0.4045084971874737 13.144543434498276 18.246037666503607" refX="12.0" refY="8.71851033606433"><path id="ProcessOnPath1089" d="M0 0L12.0 8.71851033606433L0 17.43702067212866" stroke="#323232" stroke-width="1.0" fill="none" transform="matrix(1.0,0.0,0.0,1.0,0.0,0.0)"/></marker><marker id="ProcessOnMarker1096" markerUnits="userSpaceOnUse" orient="auto" markerWidth="13.144543434498276" markerHeight="18.246037666503607" viewBox="-0.29389262614623657 -0.4045084971874737 13.144543434498276 18.246037666503607" refX="12.0" refY="8.71851033606433"><path id="ProcessOnPath1097" d="M0 0L12.0 8.71851033606433L0 17.43702067212866" stroke="#323232" stroke-width="1.0" fill="none" transform="matrix(1.0,0.0,0.0,1.0,0.0,0.0)"/></marker><marker id="ProcessOnMarker1108" markerUnits="userSpaceOnUse" orient="auto" markerWidth="13.144543434498276" markerHeight="18.246037666503607" viewBox="-0.29389262614623657 -0.4045084971874737 13.144543434498276 18.246037666503607" refX="12.0" refY="8.71851033606433"><path id="ProcessOnPath1109" d="M0 0L12.0 8.71851033606433L0 17.43702067212866" stroke="#323232" stroke-width="1.0" fill="none" transform="matrix(1.0,0.0,0.0,1.0,0.0,0.0)"/></marker><marker id="ProcessOnMarker1141" markerUnits="userSpaceOnUse" orient="auto" markerWidth="13.144543434498276" markerHeight="18.246037666503607" viewBox="-0.29389262614623657 -0.4045084971874737 13.144543434498276 18.246037666503607" refX="12.0" refY="8.71851033606433"><path id="ProcessOnPath1142" d="M0 0L12.0 8.71851033606433L0 17.43702067212866" stroke="#323232" stroke-width="1.0" fill="none" transform="matrix(1.0,0.0,0.0,1.0,0.0,0.0)"/></marker><marker id="ProcessOnMarker1178" markerUnits="userSpaceOnUse" orient="auto" markerWidth="13.144543434498276" markerHeight="18.246037666503607" viewBox="-0.29389262614623657 -0.4045084971874737 13.144543434498276 18.246037666503607" refX="12.0" refY="8.71851033606433"><path id="ProcessOnPath1179" d="M0 0L12.0 8.71851033606433L0 17.43702067212866" stroke="#323232" stroke-width="1.0" fill="none" transform="matrix(1.0,0.0,0.0,1.0,0.0,0.0)"/></marker></defs><g id="ProcessOnG1002"><path id="ProcessOnPath1003" d="M57.0 9.0H976.0V720.0H57.0V9.0Z" fill="none"/><g id="ProcessOnG1004"><g id="ProcessOnG1005" transform="matrix(1.0,0.0,0.0,1.0,454.0,29.0)" opacity="1.0"><path id="ProcessOnPath1006" d="M0.0 19.0C0.0 -6.333333333333333 156.0 -6.333333333333333 156.0 19.0C156.0 44.333333333333336 0.0 44.333333333333336 0.0 19.0Z" stroke="#323232" stroke-width="2.0" stroke-dasharray="none" opacity="1.0" fill="#ffffff"/><g id="ProcessOnG1007" transform="matrix(1.0,0.0,0.0,1.0,10.0,2.75)"><text id="ProcessOnText1008" fill="#000000" font-size="13" x="67.0" y="13.325" font-family="微软雅黑" font-weight="normal" font-style="normal" text-decoration="none" family="微软雅黑" text-anchor="middle" size="13">algorithmProviderMa</text><text id="ProcessOnText1009" fill="#000000" font-size="13" x="67.0" y="29.575" font-family="微软雅黑" font-weight="normal" font-style="normal" text-decoration="none" family="微软雅黑" text-anchor="middle" size="13">p</text></g></g><g id="ProcessOnG1010" transform="matrix(1.0,0.0,0.0,1.0,451.0,134.0)" opacity="1.0"><path id="ProcessOnPath1011" d="M0.0 0.0L200.0 0.0L200.0 32.0L0.0 32.0Z" stroke="#323232" stroke-width="2.0" stroke-dasharray="none" opacity="1.0" fill="#ffffff"/><g id="ProcessOnG1012" transform="matrix(1.0,0.0,0.0,1.0,10.0,7.875)"><text id="ProcessOnText1013" fill="#000000" font-size="13" x="89.0" y="13.325" font-family="微软雅黑" font-weight="normal" font-style="normal" text-decoration="none" family="微软雅黑" text-anchor="middle" size="13">DefaultProvider</text></g></g><g id="ProcessOnG1014" transform="matrix(1.0,0.0,0.0,1.0,451.0,166.0)" opacity="1.0"><path id="ProcessOnPath1015" d="M0.0 0.0L200.0 0.0L200.0 32.0L0.0 32.0Z" stroke="#323232" stroke-width="2.0" stroke-dasharray="none" opacity="1.0" fill="#ffffff"/><g id="ProcessOnG1016" transform="matrix(1.0,0.0,0.0,1.0,10.0,7.875)"><text id="ProcessOnText1017" fill="#000000" font-size="13" x="89.0" y="13.325" font-family="微软雅黑" font-weight="normal" font-style="normal" text-decoration="none" family="微软雅黑" text-anchor="middle" size="13">ClusterAutoscalerProvider</text></g></g><g id="ProcessOnG1018"><path id="ProcessOnPath1019" d="M532.0 67.0C532.0 94.85677655436824 551.0 106.14322344563176 551.0 134.0" stroke="#323232" stroke-width="1.0" stroke-dasharray="none" fill="none" marker-end="url(#ProcessOnMarker1020)"/></g><g id="ProcessOnG1022" transform="matrix(1.0,0.0,0.0,1.0,524.0,70.0)" opacity="1.0"><path id="ProcessOnPath1023" d="M0.0 0.0L54.0 0.0L54.0 20.0L0.0 20.0Z" stroke="none" stroke-width="0.0" stroke-dasharray="none" opacity="1.0" fill="none"/><g id="ProcessOnG1024" transform="matrix(1.0,0.0,0.0,1.0,0.0,1.875)"><text id="ProcessOnText1025" fill="#000000" font-size="13" x="26.0" y="13.325" font-family="微软雅黑" font-weight="normal" font-style="normal" text-decoration="none" family="微软雅黑" text-anchor="middle" size="13">map</text></g></g><g id="ProcessOnG1026" transform="matrix(1.0,0.0,0.0,1.0,99.0,232.0)" opacity="1.0"><path id="ProcessOnPath1027" d="M0.0 19.0C0.0 -6.333333333333333 156.0 -6.333333333333333 156.0 19.0C156.0 44.333333333333336 0.0 44.333333333333336 0.0 19.0Z" stroke="#323232" stroke-width="2.0" stroke-dasharray="none" opacity="1.0" fill="#ffffff"/><g id="ProcessOnG1028" transform="matrix(1.0,0.0,0.0,1.0,10.0,10.875)"><text id="ProcessOnText1029" fill="#000000" font-size="13" x="67.0" y="13.325" font-family="微软雅黑" font-weight="normal" font-style="normal" text-decoration="none" family="微软雅黑" text-anchor="middle" size="13">fitPredicateMap</text></g></g><g id="ProcessOnG1030" transform="matrix(1.0,0.0,0.0,1.0,77.0,316.0)" opacity="1.0"><path id="ProcessOnPath1031" d="M0.0 0.0L200.0 0.0L200.0 32.0L0.0 32.0Z" stroke="#323232" stroke-width="2.0" stroke-dasharray="none" opacity="1.0" fill="#ffffff"/><g id="ProcessOnG1032" transform="matrix(1.0,0.0,0.0,1.0,10.0,7.875)"><text id="ProcessOnText1033" fill="#000000" font-size="13" x="89.0" y="13.325" font-family="微软雅黑" font-weight="normal" font-style="normal" text-decoration="none" family="微软雅黑" text-anchor="middle" size="13">NoVolumeZoneConflict</text></g></g><g id="ProcessOnG1034"><path id="ProcessOnPath1035" d="M177.0 270.0C146.0 294.0 177.0 297.6 177.0 316.0" stroke="#323232" stroke-width="1.0" stroke-dasharray="none" fill="none" marker-end="url(#ProcessOnMarker1036)"/></g><g id="ProcessOnG1038" transform="matrix(1.0,0.0,0.0,1.0,166.0,281.0)" opacity="1.0"><path id="ProcessOnPath1039" d="M0.0 0.0L65.0 0.0L65.0 20.0L0.0 20.0Z" stroke="none" stroke-width="0.0" stroke-dasharray="none" opacity="1.0" fill="none"/><g id="ProcessOnG1040" transform="matrix(1.0,0.0,0.0,1.0,0.0,1.875)"><text id="ProcessOnText1041" fill="#000000" font-size="13" x="31.5" y="13.325" font-family="微软雅黑" font-weight="normal" font-style="normal" text-decoration="none" family="微软雅黑" text-anchor="middle" size="13">map keys</text></g></g><g id="ProcessOnG1042" transform="matrix(1.0,0.0,0.0,1.0,77.0,348.0)" opacity="1.0"><path id="ProcessOnPath1043" d="M0.0 0.0L200.0 0.0L200.0 32.0L0.0 32.0Z" stroke="#323232" stroke-width="2.0" stroke-dasharray="none" opacity="1.0" fill="#ffffff"/><g id="ProcessOnG1044" transform="matrix(1.0,0.0,0.0,1.0,10.0,7.875)"><text id="ProcessOnText1045" fill="#000000" font-size="13" x="89.0" y="13.325" font-family="微软雅黑" font-weight="normal" font-style="normal" text-decoration="none" family="微软雅黑" text-anchor="middle" size="13">MaxEBSVolumeCount</text></g></g><g id="ProcessOnG1046" transform="matrix(1.0,0.0,0.0,1.0,77.0,380.0)" opacity="1.0"><path id="ProcessOnPath1047" d="M0.0 0.0L200.0 0.0L200.0 32.0L0.0 32.0Z" stroke="#323232" stroke-width="2.0" stroke-dasharray="none" opacity="1.0" fill="#ffffff"/><g id="ProcessOnG1048" transform="matrix(1.0,0.0,0.0,1.0,10.0,7.875)"><text id="ProcessOnText1049" fill="#000000" font-size="13" x="89.0" y="13.325" font-family="微软雅黑" font-weight="normal" font-style="normal" text-decoration="none" family="微软雅黑" text-anchor="middle" size="13">MaxGCEPDVolumeCount</text></g></g><g id="ProcessOnG1050" transform="matrix(1.0,0.0,0.0,1.0,77.0,412.0)" opacity="1.0"><path id="ProcessOnPath1051" d="M0.0 0.0L200.0 0.0L200.0 32.0L0.0 32.0Z" stroke="#323232" stroke-width="2.0" stroke-dasharray="none" opacity="1.0" fill="#ffffff"/><g id="ProcessOnG1052" transform="matrix(1.0,0.0,0.0,1.0,10.0,7.875)"><text id="ProcessOnText1053" fill="#000000" font-size="13" x="89.0" y="13.325" font-family="微软雅黑" font-weight="normal" font-style="normal" text-decoration="none" family="微软雅黑" text-anchor="middle" size="13">MaxAzureDiskVolumeCount</text></g></g><g id="ProcessOnG1054" transform="matrix(1.0,0.0,0.0,1.0,77.0,444.0)" opacity="1.0"><path id="ProcessOnPath1055" d="M0.0 0.0L200.0 0.0L200.0 32.0L0.0 32.0Z" stroke="#323232" stroke-width="2.0" stroke-dasharray="none" opacity="1.0" fill="#ffffff"/><g id="ProcessOnG1056" transform="matrix(1.0,0.0,0.0,1.0,10.0,7.875)"><text id="ProcessOnText1057" fill="#000000" font-size="13" x="89.0" y="13.325" font-family="微软雅黑" font-weight="normal" font-style="normal" text-decoration="none" family="微软雅黑" text-anchor="middle" size="13">MatchInterPodAffinity</text></g></g><g id="ProcessOnG1058" transform="matrix(1.0,0.0,0.0,1.0,77.0,476.0)" opacity="1.0"><path id="ProcessOnPath1059" d="M0.0 0.0L200.0 0.0L200.0 32.0L0.0 32.0Z" stroke="#323232" stroke-width="2.0" stroke-dasharray="none" opacity="1.0" fill="#ffffff"/><g id="ProcessOnG1060" transform="matrix(1.0,0.0,0.0,1.0,10.0,7.875)"><text id="ProcessOnText1061" fill="#000000" font-size="13" x="89.0" y="13.325" font-family="微软雅黑" font-weight="normal" font-style="normal" text-decoration="none" family="微软雅黑" text-anchor="middle" size="13">NoDiskConflict</text></g></g><g id="ProcessOnG1062" transform="matrix(1.0,0.0,0.0,1.0,77.0,508.0)" opacity="1.0"><path id="ProcessOnPath1063" d="M0.0 0.0L200.0 0.0L200.0 32.0L0.0 32.0Z" stroke="#323232" stroke-width="2.0" stroke-dasharray="none" opacity="1.0" fill="#ffffff"/><g id="ProcessOnG1064" transform="matrix(1.0,0.0,0.0,1.0,10.0,7.875)"><text id="ProcessOnText1065" fill="#000000" font-size="13" x="89.0" y="13.325" font-family="微软雅黑" font-weight="normal" font-style="normal" text-decoration="none" family="微软雅黑" text-anchor="middle" size="13">GeneralPredicates</text></g></g><g id="ProcessOnG1066" transform="matrix(1.0,0.0,0.0,1.0,77.0,540.0)" opacity="1.0"><path id="ProcessOnPath1067" d="M0.0 0.0L200.0 0.0L200.0 32.0L0.0 32.0Z" stroke="#323232" stroke-width="2.0" stroke-dasharray="none" opacity="1.0" fill="#ffffff"/><g id="ProcessOnG1068" transform="matrix(1.0,0.0,0.0,1.0,10.0,7.875)"><text id="ProcessOnText1069" fill="#000000" font-size="13" x="89.0" y="13.325" font-family="微软雅黑" font-weight="normal" font-style="normal" text-decoration="none" family="微软雅黑" text-anchor="middle" size="13">CheckNodeMemoryPressure</text></g></g><g id="ProcessOnG1070" transform="matrix(1.0,0.0,0.0,1.0,77.0,572.0)" opacity="1.0"><path id="ProcessOnPath1071" d="M0.0 0.0L200.0 0.0L200.0 32.0L0.0 32.0Z" stroke="#323232" stroke-width="2.0" stroke-dasharray="none" opacity="1.0" fill="#ffffff"/><g id="ProcessOnG1072" transform="matrix(1.0,0.0,0.0,1.0,10.0,7.875)"><text id="ProcessOnText1073" fill="#000000" font-size="13" x="89.0" y="13.325" font-family="微软雅黑" font-weight="normal" font-style="normal" text-decoration="none" family="微软雅黑" text-anchor="middle" size="13">CheckNodeDiskPressure</text></g></g><g id="ProcessOnG1074" transform="matrix(1.0,0.0,0.0,1.0,77.0,604.0)" opacity="1.0"><path id="ProcessOnPath1075" d="M0.0 0.0L200.0 0.0L200.0 32.0L0.0 32.0Z" stroke="#323232" stroke-width="2.0" stroke-dasharray="none" opacity="1.0" fill="#ffffff"/><g id="ProcessOnG1076" transform="matrix(1.0,0.0,0.0,1.0,10.0,7.875)"><text id="ProcessOnText1077" fill="#000000" font-size="13" x="89.0" y="13.325" font-family="微软雅黑" font-weight="normal" font-style="normal" text-decoration="none" family="微软雅黑" text-anchor="middle" size="13">CheckNodeCondition</text></g></g><g id="ProcessOnG1078" transform="matrix(1.0,0.0,0.0,1.0,77.0,636.0)" opacity="1.0"><path id="ProcessOnPath1079" d="M0.0 0.0L200.0 0.0L200.0 32.0L0.0 32.0Z" stroke="#323232" stroke-width="2.0" stroke-dasharray="none" opacity="1.0" fill="#ffffff"/><g id="ProcessOnG1080" transform="matrix(1.0,0.0,0.0,1.0,10.0,7.875)"><text id="ProcessOnText1081" fill="#000000" font-size="13" x="89.0" y="13.325" font-family="微软雅黑" font-weight="normal" font-style="normal" text-decoration="none" family="微软雅黑" text-anchor="middle" size="13">PodToleratesNodeTaints</text></g></g><g id="ProcessOnG1082" transform="matrix(1.0,0.0,0.0,1.0,77.0,668.0)" opacity="1.0"><path id="ProcessOnPath1083" d="M0.0 0.0L200.0 0.0L200.0 32.0L0.0 32.0Z" stroke="#323232" stroke-width="2.0" stroke-dasharray="none" opacity="1.0" fill="#ffffff"/><g id="ProcessOnG1084" transform="matrix(1.0,0.0,0.0,1.0,10.0,7.875)"><text id="ProcessOnText1085" fill="#000000" font-size="13" x="89.0" y="13.325" font-family="微软雅黑" font-weight="normal" font-style="normal" text-decoration="none" family="微软雅黑" text-anchor="middle" size="13">CheckVolumeBinding</text></g></g><g id="ProcessOnG1086"><path id="ProcessOnPath1087" d="M451.0 150.0C387.0 192.0 253.0 212.6481736978006 253.0 316.0" stroke="#323232" stroke-width="1.0" stroke-dasharray="none" fill="none" marker-end="url(#ProcessOnMarker1088)"/></g><g id="ProcessOnG1090" transform="matrix(1.0,0.0,0.0,1.0,290.0,205.0)" opacity="1.0"><path id="ProcessOnPath1091" d="M0.0 0.0L125.0 0.0L125.0 20.0L0.0 20.0Z" stroke="none" stroke-width="0.0" stroke-dasharray="none" opacity="1.0" fill="none"/><g id="ProcessOnG1092" transform="matrix(1.0,0.0,0.0,1.0,0.0,1.875)"><text id="ProcessOnText1093" fill="#000000" font-size="13" x="61.5" y="13.325" font-family="微软雅黑" font-weight="normal" font-style="normal" text-decoration="none" family="微软雅黑" text-anchor="middle" size="13">FitPredicateKeys</text></g></g><g id="ProcessOnG1094"><path id="ProcessOnPath1095" d="M451.0 182.0C361.6621624033345 182.0 364.0565563374807 305.3548881929696 276.075961234939 320.86824088833464" stroke="#323232" stroke-width="1.0" stroke-dasharray="none" fill="none" marker-end="url(#ProcessOnMarker1096)"/></g><g id="ProcessOnG1098" transform="matrix(1.0,0.0,0.0,1.0,778.0,225.0)" opacity="1.0"><path id="ProcessOnPath1099" d="M0.0 19.0C0.0 -6.333333333333333 156.0 -6.333333333333333 156.0 19.0C156.0 44.333333333333336 0.0 44.333333333333336 0.0 19.0Z" stroke="#323232" stroke-width="2.0" stroke-dasharray="none" opacity="1.0" fill="#ffffff"/><g id="ProcessOnG1100" transform="matrix(1.0,0.0,0.0,1.0,10.0,10.875)"><text id="ProcessOnText1101" fill="#000000" font-size="13" x="67.0" y="13.325" font-family="微软雅黑" font-weight="normal" font-style="normal" text-decoration="none" family="微软雅黑" text-anchor="middle" size="13">priorityFunctionMap</text></g></g><g id="ProcessOnG1102" transform="matrix(1.0,0.0,0.0,1.0,756.0,301.0)" opacity="1.0"><path id="ProcessOnPath1103" d="M0.0 0.0L200.0 0.0L200.0 32.0L0.0 32.0Z" stroke="#323232" stroke-width="2.0" stroke-dasharray="none" opacity="1.0" fill="#ffffff"/><g id="ProcessOnG1104" transform="matrix(1.0,0.0,0.0,1.0,10.0,7.875)"><text id="ProcessOnText1105" fill="#000000" font-size="13" x="89.0" y="13.325" font-family="微软雅黑" font-weight="normal" font-style="normal" text-decoration="none" family="微软雅黑" text-anchor="middle" size="13">SelectorSpreadPriority</text></g></g><g id="ProcessOnG1106"><path id="ProcessOnPath1107" d="M856.0 263.0C837.0 280.0 856.0 285.8 856.0 301.0" stroke="#323232" stroke-width="1.0" stroke-dasharray="none" fill="none" marker-end="url(#ProcessOnMarker1108)"/></g><g id="ProcessOnG1110" transform="matrix(1.0,0.0,0.0,1.0,853.0,270.0)" opacity="1.0"><path id="ProcessOnPath1111" d="M0.0 0.0L65.0 0.0L65.0 20.0L0.0 20.0Z" stroke="none" stroke-width="0.0" stroke-dasharray="none" opacity="1.0" fill="none"/><g id="ProcessOnG1112" transform="matrix(1.0,0.0,0.0,1.0,0.0,1.875)"><text id="ProcessOnText1113" fill="#000000" font-size="13" x="31.5" y="13.325" font-family="微软雅黑" font-weight="normal" font-style="normal" text-decoration="none" family="微软雅黑" text-anchor="middle" size="13">map keys</text></g></g><g id="ProcessOnG1114" transform="matrix(1.0,0.0,0.0,1.0,756.0,333.0)" opacity="1.0"><path id="ProcessOnPath1115" d="M0.0 0.0L200.0 0.0L200.0 32.0L0.0 32.0Z" stroke="#323232" stroke-width="2.0" stroke-dasharray="none" opacity="1.0" fill="#ffffff"/><g id="ProcessOnG1116" transform="matrix(1.0,0.0,0.0,1.0,10.0,7.875)"><text id="ProcessOnText1117" fill="#000000" font-size="13" x="89.0" y="13.325" font-family="微软雅黑" font-weight="normal" font-style="normal" text-decoration="none" family="微软雅黑" text-anchor="middle" size="13">InterPodAffinityPriority</text></g></g><g id="ProcessOnG1118" transform="matrix(1.0,0.0,0.0,1.0,756.0,365.0)" opacity="1.0"><path id="ProcessOnPath1119" d="M0.0 0.0L200.0 0.0L200.0 32.0L0.0 32.0Z" stroke="#323232" stroke-width="2.0" stroke-dasharray="none" opacity="1.0" fill="#ffffff"/><g id="ProcessOnG1120" transform="matrix(1.0,0.0,0.0,1.0,10.0,7.875)"><text id="ProcessOnText1121" fill="#66ff66" font-size="13" x="89.0" y="13.325" font-family="微软雅黑" font-weight="normal" font-style="normal" text-decoration="none" family="微软雅黑" text-anchor="middle" size="13">LeastRequestedPriority</text></g></g><g id="ProcessOnG1122" transform="matrix(1.0,0.0,0.0,1.0,756.0,397.0)" opacity="1.0"><path id="ProcessOnPath1123" d="M0.0 0.0L200.0 0.0L200.0 32.0L0.0 32.0Z" stroke="#323232" stroke-width="2.0" stroke-dasharray="none" opacity="1.0" fill="#ffffff"/><g id="ProcessOnG1124" transform="matrix(1.0,0.0,0.0,1.0,10.0,7.875)"><text id="ProcessOnText1125" fill="#000000" font-size="13" x="89.0" y="13.325" font-family="微软雅黑" font-weight="normal" font-style="normal" text-decoration="none" family="微软雅黑" text-anchor="middle" size="13">BalancedResourceAllocation</text></g></g><g id="ProcessOnG1126" transform="matrix(1.0,0.0,0.0,1.0,756.0,429.0)" opacity="1.0"><path id="ProcessOnPath1127" d="M0.0 0.0L200.0 0.0L200.0 32.0L0.0 32.0Z" stroke="#323232" stroke-width="2.0" stroke-dasharray="none" opacity="1.0" fill="#ffffff"/><g id="ProcessOnG1128" transform="matrix(1.0,0.0,0.0,1.0,10.0,-0.25)"><text id="ProcessOnText1129" fill="#000000" font-size="13" x="89.0" y="13.325" font-family="微软雅黑" font-weight="normal" font-style="normal" text-decoration="none" family="微软雅黑" text-anchor="middle" size="13">NodePreferAvoidPodsPriorit</text><text id="ProcessOnText1130" fill="#000000" font-size="13" x="89.0" y="29.575" font-family="微软雅黑" font-weight="normal" font-style="normal" text-decoration="none" family="微软雅黑" text-anchor="middle" size="13">y</text></g></g><g id="ProcessOnG1131" transform="matrix(1.0,0.0,0.0,1.0,756.0,461.0)" opacity="1.0"><path id="ProcessOnPath1132" d="M0.0 0.0L200.0 0.0L200.0 32.0L0.0 32.0Z" stroke="#323232" stroke-width="2.0" stroke-dasharray="none" opacity="1.0" fill="#ffffff"/><g id="ProcessOnG1133" transform="matrix(1.0,0.0,0.0,1.0,10.0,7.875)"><text id="ProcessOnText1134" fill="#000000" font-size="13" x="89.0" y="13.325" font-family="微软雅黑" font-weight="normal" font-style="normal" text-decoration="none" family="微软雅黑" text-anchor="middle" size="13">NodeAffinityPriority</text></g></g><g id="ProcessOnG1135" transform="matrix(1.0,0.0,0.0,1.0,756.0,493.0)" opacity="1.0"><path id="ProcessOnPath1136" d="M0.0 0.0L200.0 0.0L200.0 32.0L0.0 32.0Z" stroke="#323232" stroke-width="2.0" stroke-dasharray="none" opacity="1.0" fill="#ffffff"/><g id="ProcessOnG1137" transform="matrix(1.0,0.0,0.0,1.0,10.0,7.875)"><text id="ProcessOnText1138" fill="#000000" font-size="13" x="89.0" y="13.325" font-family="微软雅黑" font-weight="normal" font-style="normal" text-decoration="none" family="微软雅黑" text-anchor="middle" size="13">TaintTolerationPriority</text></g></g><g id="ProcessOnG1139"><path id="ProcessOnPath1140" d="M651.0 150.0C729.9065269797119 150.0 677.0934730202881 317.0 756.0 317.0" stroke="#323232" stroke-width="1.0" stroke-dasharray="none" fill="none" marker-end="url(#ProcessOnMarker1141)"/></g><g id="ProcessOnG1143" transform="matrix(1.0,0.0,0.0,1.0,638.0,211.0)" opacity="1.0"><path id="ProcessOnPath1144" d="M0.0 0.0L134.0 0.0L134.0 21.0L0.0 21.0Z" stroke="none" stroke-width="0.0" stroke-dasharray="none" opacity="1.0" fill="none"/><g id="ProcessOnG1145" transform="matrix(1.0,0.0,0.0,1.0,0.0,2.375)"><text id="ProcessOnText1146" fill="#000000" font-size="13" x="66.0" y="13.325" font-family="微软雅黑" font-weight="normal" font-style="normal" text-decoration="none" family="微软雅黑" text-anchor="middle" size="13">PriorityFunctionKeys</text></g></g><g id="ProcessOnG1147" transform="matrix(1.0,0.0,0.0,1.0,476.0,301.0)" opacity="1.0"><path id="ProcessOnPath1148" d="M0.0 0.0L200.0 0.0L200.0 32.0L0.0 32.0Z" stroke="#323232" stroke-width="2.0" stroke-dasharray="none" opacity="1.0" fill="#ffffff"/><g id="ProcessOnG1149" transform="matrix(1.0,0.0,0.0,1.0,10.0,7.875)"><text id="ProcessOnText1150" fill="#000000" font-size="13" x="89.0" y="13.325" font-family="微软雅黑" font-weight="normal" font-style="normal" text-decoration="none" family="微软雅黑" text-anchor="middle" size="13">SelectorSpreadPriority</text></g></g><g id="ProcessOnG1151" transform="matrix(1.0,0.0,0.0,1.0,476.0,333.0)" opacity="1.0"><path id="ProcessOnPath1152" d="M0.0 0.0L200.0 0.0L200.0 32.0L0.0 32.0Z" stroke="#323232" stroke-width="2.0" stroke-dasharray="none" opacity="1.0" fill="#ffffff"/><g id="ProcessOnG1153" transform="matrix(1.0,0.0,0.0,1.0,10.0,7.875)"><text id="ProcessOnText1154" fill="#000000" font-size="13" x="89.0" y="13.325" font-family="微软雅黑" font-weight="normal" font-style="normal" text-decoration="none" family="微软雅黑" text-anchor="middle" size="13">InterPodAffinityPriority</text></g></g><g id="ProcessOnG1155" transform="matrix(1.0,0.0,0.0,1.0,476.0,365.0)" opacity="1.0"><path id="ProcessOnPath1156" d="M0.0 0.0L200.0 0.0L200.0 32.0L0.0 32.0Z" stroke="#323232" stroke-width="2.0" stroke-dasharray="none" opacity="1.0" fill="#ffffff"/><g id="ProcessOnG1157" transform="matrix(1.0,0.0,0.0,1.0,10.0,7.875)"><text id="ProcessOnText1158" fill="#ff6666" font-size="13" x="89.0" y="13.325" font-family="微软雅黑" font-weight="normal" font-style="normal" text-decoration="none" family="微软雅黑" text-anchor="middle" size="13">MostRequestedPriority</text></g></g><g id="ProcessOnG1159" transform="matrix(1.0,0.0,0.0,1.0,476.0,397.0)" opacity="1.0"><path id="ProcessOnPath1160" d="M0.0 0.0L200.0 0.0L200.0 32.0L0.0 32.0Z" stroke="#323232" stroke-width="2.0" stroke-dasharray="none" opacity="1.0" fill="#ffffff"/><g id="ProcessOnG1161" transform="matrix(1.0,0.0,0.0,1.0,10.0,7.875)"><text id="ProcessOnText1162" fill="#000000" font-size="13" x="89.0" y="13.325" font-family="微软雅黑" font-weight="normal" font-style="normal" text-decoration="none" family="微软雅黑" text-anchor="middle" size="13">BalancedResourceAllocation</text></g></g><g id="ProcessOnG1163" transform="matrix(1.0,0.0,0.0,1.0,476.0,429.0)" opacity="1.0"><path id="ProcessOnPath1164" d="M0.0 0.0L200.0 0.0L200.0 32.0L0.0 32.0Z" stroke="#323232" stroke-width="2.0" stroke-dasharray="none" opacity="1.0" fill="#ffffff"/><g id="ProcessOnG1165" transform="matrix(1.0,0.0,0.0,1.0,10.0,-0.25)"><text id="ProcessOnText1166" fill="#000000" font-size="13" x="89.0" y="13.325" font-family="微软雅黑" font-weight="normal" font-style="normal" text-decoration="none" family="微软雅黑" text-anchor="middle" size="13">NodePreferAvoidPodsPriorit</text><text id="ProcessOnText1167" fill="#000000" font-size="13" x="89.0" y="29.575" font-family="微软雅黑" font-weight="normal" font-style="normal" text-decoration="none" family="微软雅黑" text-anchor="middle" size="13">y</text></g></g><g id="ProcessOnG1168" transform="matrix(1.0,0.0,0.0,1.0,476.0,461.0)" opacity="1.0"><path id="ProcessOnPath1169" d="M0.0 0.0L200.0 0.0L200.0 32.0L0.0 32.0Z" stroke="#323232" stroke-width="2.0" stroke-dasharray="none" opacity="1.0" fill="#ffffff"/><g id="ProcessOnG1170" transform="matrix(1.0,0.0,0.0,1.0,10.0,7.875)"><text id="ProcessOnText1171" fill="#000000" font-size="13" x="89.0" y="13.325" font-family="微软雅黑" font-weight="normal" font-style="normal" text-decoration="none" family="微软雅黑" text-anchor="middle" size="13">NodeAffinityPriority</text></g></g><g id="ProcessOnG1172" transform="matrix(1.0,0.0,0.0,1.0,476.0,493.0)" opacity="1.0"><path id="ProcessOnPath1173" d="M0.0 0.0L200.0 0.0L200.0 32.0L0.0 32.0Z" stroke="#323232" stroke-width="2.0" stroke-dasharray="none" opacity="1.0" fill="#ffffff"/><g id="ProcessOnG1174" transform="matrix(1.0,0.0,0.0,1.0,10.0,7.875)"><text id="ProcessOnText1175" fill="#000000" font-size="13" x="89.0" y="13.325" font-family="微软雅黑" font-weight="normal" font-style="normal" text-decoration="none" family="微软雅黑" text-anchor="middle" size="13">TaintTolerationPriority</text></g></g><g id="ProcessOnG1176"><path id="ProcessOnPath1177" d="M651.0 182.0C699.7447132988733 182.0 706.0469225268654 264.1914721322083 674.7144247806269 301.53208888623794" stroke="#323232" stroke-width="1.0" stroke-dasharray="none" fill="none" marker-end="url(#ProcessOnMarker1178)"/></g></g></g></svg>