<svg xmlns="http://www.w3.org/2000/svg" xmlns:xlink="http://www.w3.org/1999/xlink" id="processonSvg1000" viewBox="-34.785950814780364 9.0 1398.9346950407457 827.0" width="1398.9346950407457" height="827.0"><defs id="ProcessOnDefs1001"><marker id="ProcessOnMarker1023" markerUnits="userSpaceOnUse" orient="auto" markerWidth="16.23606797749979" markerHeight="10.550836550532098" viewBox="-1.0 -1.3763819204711736 16.23606797749979 10.550836550532098" refX="-1.0" refY="3.8990363547948754"><path id="ProcessOnPath1024" d="M12.0 3.8990363547948754L0.0 7.798072709589751V0.0Z" stroke="#323232" stroke-width="2.0" fill="#323232" transform="matrix(1.0,0.0,0.0,1.0,0.0,0.0)"/></marker><marker id="ProcessOnMarker1047" markerUnits="userSpaceOnUse" orient="auto" markerWidth="14.289086868996552" markerHeight="19.055054660878554" viewBox="-0.5877852522924731 -0.8090169943749475 14.289086868996552 19.055054660878554" refX="12.0" refY="8.71851033606433"><path id="ProcessOnPath1048" d="M0 0L12.0 8.71851033606433L0 17.43702067212866" stroke="#323232" stroke-width="2.0" fill="none" transform="matrix(1.0,0.0,0.0,1.0,0.0,0.0)"/></marker><marker id="ProcessOnMarker1055" markerUnits="userSpaceOnUse" orient="auto" markerWidth="14.289086868996552" markerHeight="19.055054660878554" viewBox="-0.5877852522924731 -0.8090169943749475 14.289086868996552 19.055054660878554" refX="12.0" refY="8.71851033606433"><path id="ProcessOnPath1056" d="M0 0L12.0 8.71851033606433L0 17.43702067212866" stroke="#323232" stroke-width="2.0" fill="none" transform="matrix(1.0,0.0,0.0,1.0,0.0,0.0)"/></marker><marker id="ProcessOnMarker1072" markerUnits="userSpaceOnUse" orient="auto" markerWidth="14.289086868996552" markerHeight="19.055054660878554" viewBox="-0.5877852522924731 -0.8090169943749475 14.289086868996552 19.055054660878554" refX="12.0" refY="8.71851033606433"><path id="ProcessOnPath1073" d="M0 0L12.0 8.71851033606433L0 17.43702067212866" stroke="#323232" stroke-width="2.0" fill="none" transform="matrix(1.0,0.0,0.0,1.0,0.0,0.0)"/></marker><marker id="ProcessOnMarker1080" markerUnits="userSpaceOnUse" orient="auto" markerWidth="14.289086868996552" markerHeight="19.055054660878554" viewBox="-0.5877852522924731 -0.8090169943749475 14.289086868996552 19.055054660878554" refX="12.0" refY="8.71851033606433"><path id="ProcessOnPath1081" d="M0 0L12.0 8.71851033606433L0 17.43702067212866" stroke="#323232" stroke-width="2.0" fill="none" transform="matrix(1.0,0.0,0.0,1.0,0.0,0.0)"/></marker><marker id="ProcessOnMarker1096" markerUnits="userSpaceOnUse" orient="auto" markerWidth="14.289086868996552" markerHeight="19.055054660878554" viewBox="-0.5877852522924731 -0.8090169943749475 14.289086868996552 19.055054660878554" refX="12.0" refY="8.71851033606433"><path id="ProcessOnPath1097" d="M0 0L12.0 8.71851033606433L0 17.43702067212866" stroke="#323232" stroke-width="2.0" fill="none" transform="matrix(1.0,0.0,0.0,1.0,0.0,0.0)"/></marker><marker id="ProcessOnMarker1100" markerUnits="userSpaceOnUse" orient="auto" markerWidth="14.289086868996552" markerHeight="19.055054660878554" viewBox="-0.5877852522924731 -0.8090169943749475 14.289086868996552 19.055054660878554" refX="12.0" refY="8.71851033606433"><path id="ProcessOnPath1101" d="M0 0L12.0 8.71851033606433L0 17.43702067212866" stroke="#323232" stroke-width="2.0" fill="none" transform="matrix(1.0,0.0,0.0,1.0,0.0,0.0)"/></marker><marker id="ProcessOnMarker1108" markerUnits="userSpaceOnUse" orient="auto" markerWidth="14.289086868996552" markerHeight="19.055054660878554" viewBox="-0.5877852522924731 -0.8090169943749475 14.289086868996552 19.055054660878554" refX="12.0" refY="8.71851033606433"><path id="ProcessOnPath1109" d="M0 0L12.0 8.71851033606433L0 17.43702067212866" stroke="#323232" stroke-width="2.0" fill="none" transform="matrix(1.0,0.0,0.0,1.0,0.0,0.0)"/></marker><marker id="ProcessOnMarker1119" markerUnits="userSpaceOnUse" orient="auto" markerWidth="14.289086868996552" markerHeight="19.055054660878554" viewBox="-0.5877852522924731 -0.8090169943749475 14.289086868996552 19.055054660878554" refX="12.0" refY="8.71851033606433"><path id="ProcessOnPath1120" d="M0 0L12.0 8.71851033606433L0 17.43702067212866" stroke="#323232" stroke-width="2.0" fill="none" transform="matrix(1.0,0.0,0.0,1.0,0.0,0.0)"/></marker><marker id="ProcessOnMarker1131" markerUnits="userSpaceOnUse" orient="auto" markerWidth="14.289086868996552" markerHeight="19.055054660878554" viewBox="-0.5877852522924731 -0.8090169943749475 14.289086868996552 19.055054660878554" refX="12.0" refY="8.71851033606433"><path id="ProcessOnPath1132" d="M0 0L12.0 8.71851033606433L0 17.43702067212866" stroke="#323232" stroke-width="2.0" fill="none" transform="matrix(1.0,0.0,0.0,1.0,0.0,0.0)"/></marker><marker id="ProcessOnMarker1146" markerUnits="userSpaceOnUse" orient="auto" markerWidth="14.289086868996552" markerHeight="19.055054660878554" viewBox="-0.5877852522924731 -0.8090169943749475 14.289086868996552 19.055054660878554" refX="12.0" refY="8.71851033606433"><path id="ProcessOnPath1147" d="M0 0L12.0 8.71851033606433L0 17.43702067212866" stroke="#323232" stroke-width="2.0" fill="none" transform="matrix(1.0,0.0,0.0,1.0,0.0,0.0)"/></marker><marker id="ProcessOnMarker1158" markerUnits="userSpaceOnUse" orient="auto" markerWidth="14.289086868996552" markerHeight="19.055054660878554" viewBox="-0.5877852522924731 -0.8090169943749475 14.289086868996552 19.055054660878554" refX="12.0" refY="8.71851033606433"><path id="ProcessOnPath1159" d="M0 0L12.0 8.71851033606433L0 17.43702067212866" stroke="#323232" stroke-width="2.0" fill="none" transform="matrix(1.0,0.0,0.0,1.0,0.0,0.0)"/></marker><marker id="ProcessOnMarker1172" markerUnits="userSpaceOnUse" orient="auto" markerWidth="14.289086868996552" markerHeight="19.055054660878554" viewBox="-0.5877852522924731 -0.8090169943749475 14.289086868996552 19.055054660878554" refX="12.0" refY="8.71851033606433"><path id="ProcessOnPath1173" d="M0 0L12.0 8.71851033606433L0 17.43702067212866" stroke="#323232" stroke-width="2.0" fill="none" transform="matrix(1.0,0.0,0.0,1.0,0.0,0.0)"/></marker><marker id="ProcessOnMarker1191" markerUnits="userSpaceOnUse" orient="auto" markerWidth="14.289086868996552" markerHeight="19.055054660878554" viewBox="-0.5877852522924731 -0.8090169943749475 14.289086868996552 19.055054660878554" refX="12.0" refY="8.71851033606433"><path id="ProcessOnPath1192" d="M0 0L12.0 8.71851033606433L0 17.43702067212866" stroke="#323232" stroke-width="2.0" fill="none" transform="matrix(1.0,0.0,0.0,1.0,0.0,0.0)"/></marker><marker id="ProcessOnMarker1203" markerUnits="userSpaceOnUse" orient="auto" markerWidth="16.23606797749979" markerHeight="10.550836550532098" viewBox="-1.0 -1.3763819204711736 16.23606797749979 10.550836550532098" refX="-1.0" refY="3.8990363547948754"><path id="ProcessOnPath1204" d="M12.0 3.8990363547948754L0.0 7.798072709589751V0.0Z" stroke="#323232" stroke-width="2.0" fill="#fff" transform="matrix(1.0,0.0,0.0,1.0,0.0,0.0)"/></marker><marker id="ProcessOnMarker1210" markerUnits="userSpaceOnUse" orient="auto" markerWidth="14.289086868996552" markerHeight="19.055054660878554" viewBox="-0.5877852522924731 -0.8090169943749475 14.289086868996552 19.055054660878554" refX="12.0" refY="8.71851033606433"><path id="ProcessOnPath1211" d="M0 0L12.0 8.71851033606433L0 17.43702067212866" stroke="#323232" stroke-width="2.0" fill="none" transform="matrix(1.0,0.0,0.0,1.0,0.0,0.0)"/></marker><marker id="ProcessOnMarker1225" markerUnits="userSpaceOnUse" orient="auto" markerWidth="16.23606797749979" markerHeight="10.550836550532098" viewBox="-1.0 -1.3763819204711736 16.23606797749979 10.550836550532098" refX="-1.0" refY="3.8990363547948754"><path id="ProcessOnPath1226" d="M12.0 3.8990363547948754L0.0 7.798072709589751V0.0Z" stroke="#323232" stroke-width="2.0" fill="#fff" transform="matrix(1.0,0.0,0.0,1.0,0.0,0.0)"/></marker><marker id="ProcessOnMarker1238" markerUnits="userSpaceOnUse" orient="auto" markerWidth="14.289086868996552" markerHeight="19.055054660878554" viewBox="-0.5877852522924731 -0.8090169943749475 14.289086868996552 19.055054660878554" refX="12.0" refY="8.71851033606433"><path id="ProcessOnPath1239" d="M0 0L12.0 8.71851033606433L0 17.43702067212866" stroke="#323232" stroke-width="2.0" fill="none" transform="matrix(1.0,0.0,0.0,1.0,0.0,0.0)"/></marker><marker id="ProcessOnMarker1242" markerUnits="userSpaceOnUse" orient="auto" markerWidth="14.289086868996552" markerHeight="19.055054660878554" viewBox="-0.5877852522924731 -0.8090169943749475 14.289086868996552 19.055054660878554" refX="12.0" refY="8.71851033606433"><path id="ProcessOnPath1243" d="M0 0L12.0 8.71851033606433L0 17.43702067212866" stroke="#323232" stroke-width="2.0" fill="none" transform="matrix(1.0,0.0,0.0,1.0,0.0,0.0)"/></marker><marker id="ProcessOnMarker1254" markerUnits="userSpaceOnUse" orient="auto" markerWidth="16.23606797749979" markerHeight="10.550836550532098" viewBox="-1.0 -1.3763819204711736 16.23606797749979 10.550836550532098" refX="-1.0" refY="3.8990363547948754"><path id="ProcessOnPath1255" d="M12.0 3.8990363547948754L0.0 7.798072709589751V0.0Z" stroke="#323232" stroke-width="2.0" fill="#fff" transform="matrix(1.0,0.0,0.0,1.0,0.0,0.0)"/></marker><marker id="ProcessOnMarker1261" markerUnits="userSpaceOnUse" orient="auto" markerWidth="14.289086868996552" markerHeight="19.055054660878554" viewBox="-0.5877852522924731 -0.8090169943749475 14.289086868996552 19.055054660878554" refX="12.0" refY="8.71851033606433"><path id="ProcessOnPath1262" d="M0 0L12.0 8.71851033606433L0 17.43702067212866" stroke="#323232" stroke-width="2.0" fill="none" transform="matrix(1.0,0.0,0.0,1.0,0.0,0.0)"/></marker><marker id="ProcessOnMarker1269" markerUnits="userSpaceOnUse" orient="auto" markerWidth="14.289086868996552" markerHeight="19.055054660878554" viewBox="-0.5877852522924731 -0.8090169943749475 14.289086868996552 19.055054660878554" refX="12.0" refY="8.71851033606433"><path id="ProcessOnPath1270" d="M0 0L12.0 8.71851033606433L0 17.43702067212866" stroke="#323232" stroke-width="2.0" fill="none" transform="matrix(1.0,0.0,0.0,1.0,0.0,0.0)"/></marker><marker id="ProcessOnMarker1281" markerUnits="userSpaceOnUse" orient="auto" markerWidth="14.289086868996552" markerHeight="19.055054660878554" viewBox="-0.5877852522924731 -0.8090169943749475 14.289086868996552 19.055054660878554" refX="12.0" refY="8.71851033606433"><path id="ProcessOnPath1282" d="M0 0L12.0 8.71851033606433L0 17.43702067212866" stroke="#323232" stroke-width="2.0" fill="none" transform="matrix(1.0,0.0,0.0,1.0,0.0,0.0)"/></marker></defs><g id="ProcessOnG1002"><path id="ProcessOnPath1003" d="M-34.785950814780364 9.0H1364.1487442259654V836.0H-34.785950814780335V9.0Z" fill="none"/><g id="ProcessOnG1004"><g id="ProcessOnG1005" transform="matrix(1.0,0.0,0.0,1.0,532.0,326.0)" opacity="1.0"><path id="ProcessOnPath1006" d="M0.0 0.0L110.0 0.0L110.0 32.0L0.0 32.0Z" stroke="#323232" stroke-width="2.0" stroke-dasharray="none" opacity="1.0" fill="#ffffff"/><g id="ProcessOnG1007" transform="matrix(1.0,0.0,0.0,1.0,10.0,7.875)"><text id="ProcessOnText1008" fill="#000000" font-size="13" x="44.0" y="13.325" font-family="微软雅黑" font-weight="normal" font-style="normal" text-decoration="none" family="微软雅黑" text-anchor="middle" size="13">config</text></g></g><g id="ProcessOnG1009" transform="matrix(1.0,0.0,0.0,1.0,532.0,306.0)" opacity="1.0"><path id="ProcessOnPath1010" d="M0.0 0.0L78.0 0.0L78.0 20.0L0.0 20.0Z" stroke="none" stroke-width="0.0" stroke-dasharray="none" opacity="1.0" fill="none"/><g id="ProcessOnG1011" transform="matrix(1.0,0.0,0.0,1.0,0.0,1.875)"><text id="ProcessOnText1012" fill="#000000" font-size="13" x="0.0" y="13.325" font-family="微软雅黑" font-weight="normal" font-style="normal" text-decoration="none" family="微软雅黑" text-anchor="start" size="13">Scheduler</text></g></g><g id="ProcessOnG1013" transform="matrix(1.0,0.0,0.0,1.0,532.0,416.0)" opacity="1.0"><path id="ProcessOnPath1014" d="M0.0 0.0L156.0 0.0L156.0 33.0L0.0 33.0Z" stroke="#323232" stroke-width="2.0" stroke-dasharray="none" opacity="1.0" fill="#ffffff"/><g id="ProcessOnG1015" transform="matrix(1.0,0.0,0.0,1.0,10.0,8.375)"><text id="ProcessOnText1016" fill="#000000" font-size="13" x="67.0" y="13.325" font-family="微软雅黑" font-weight="normal" font-style="normal" text-decoration="none" family="微软雅黑" text-anchor="middle" size="13">SchedulerCache</text></g></g><g id="ProcessOnG1017" transform="matrix(1.0,0.0,0.0,1.0,532.0,396.0)" opacity="1.0"><path id="ProcessOnPath1018" d="M0.0 0.0L78.0 0.0L78.0 20.0L0.0 20.0Z" stroke="none" stroke-width="0.0" stroke-dasharray="none" opacity="1.0" fill="none"/><g id="ProcessOnG1019" transform="matrix(1.0,0.0,0.0,1.0,0.0,1.875)"><text id="ProcessOnText1020" fill="#000000" font-size="13" x="0.0" y="13.325" font-family="微软雅黑" font-weight="normal" font-style="normal" text-decoration="none" family="微软雅黑" text-anchor="start" size="13">Config</text></g></g><g id="ProcessOnG1021"><path id="ProcessOnPath1022" d="M532.0 342.0C495.8 342.0 495.8 432.5 516.7639320225002 432.5" stroke="#323232" stroke-width="2.0" stroke-dasharray="none" fill="none" marker-end="url(#ProcessOnMarker1023)"/></g><g id="ProcessOnG1025" transform="matrix(1.0,0.0,0.0,1.0,818.0,120.0)" opacity="1.0"><path id="ProcessOnPath1026" d="M0.0 0.0L148.0 0.0L148.0 32.0L0.0 32.0Z" stroke="#323232" stroke-width="2.0" stroke-dasharray="none" opacity="1.0" fill="#ffffff"/><g id="ProcessOnG1027" transform="matrix(1.0,0.0,0.0,1.0,10.0,7.875)"><text id="ProcessOnText1028" fill="#000000" font-size="13" x="63.0" y="13.325" font-family="微软雅黑" font-weight="normal" font-style="normal" text-decoration="none" family="微软雅黑" text-anchor="middle" size="13">client</text></g></g><g id="ProcessOnG1029" transform="matrix(1.0,0.0,0.0,1.0,818.0,100.0)" opacity="1.0"><path id="ProcessOnPath1030" d="M0.0 0.0L91.0 0.0L91.0 20.0L0.0 20.0Z" stroke="none" stroke-width="0.0" stroke-dasharray="none" opacity="1.0" fill="none"/><g id="ProcessOnG1031" transform="matrix(1.0,0.0,0.0,1.0,0.0,1.875)"><text id="ProcessOnText1032" fill="#000000" font-size="13" x="0.0" y="13.325" font-family="微软雅黑" font-weight="normal" font-style="normal" text-decoration="none" family="微软雅黑" text-anchor="start" size="13">configFactory</text></g></g><g id="ProcessOnG1033" transform="matrix(1.0,0.0,0.0,1.0,818.0,152.0)" opacity="1.0"><path id="ProcessOnPath1034" d="M0.0 0.0L148.0 0.0L148.0 32.0L0.0 32.0Z" stroke="#323232" stroke-width="2.0" stroke-dasharray="none" opacity="1.0" fill="#ffffff"/><g id="ProcessOnG1035" transform="matrix(1.0,0.0,0.0,1.0,10.0,7.875)"><text id="ProcessOnText1036" fill="#000000" font-size="13" x="63.0" y="13.325" font-family="微软雅黑" font-weight="normal" font-style="normal" text-decoration="none" family="微软雅黑" text-anchor="middle" size="13">scheduledPodLister</text></g></g><g id="ProcessOnG1037" transform="matrix(1.0,0.0,0.0,1.0,818.0,184.0)" opacity="1.0"><path id="ProcessOnPath1038" d="M0.0 0.0L148.0 0.0L148.0 32.0L0.0 32.0Z" stroke="#323232" stroke-width="2.0" stroke-dasharray="none" opacity="1.0" fill="#ffffff"/><g id="ProcessOnG1039" transform="matrix(1.0,0.0,0.0,1.0,10.0,7.875)"><text id="ProcessOnText1040" fill="#000000" font-size="13" x="63.0" y="13.325" font-family="微软雅黑" font-weight="normal" font-style="normal" text-decoration="none" family="微软雅黑" text-anchor="middle" size="13">podQueue</text></g></g><g id="ProcessOnG1041" transform="matrix(1.0,0.0,0.0,1.0,818.0,216.0)" opacity="1.0"><path id="ProcessOnPath1042" d="M0.0 0.0L148.0 0.0L148.0 32.0L0.0 32.0Z" stroke="#323232" stroke-width="2.0" stroke-dasharray="none" opacity="1.0" fill="#ffffff"/><g id="ProcessOnG1043" transform="matrix(1.0,0.0,0.0,1.0,10.0,7.875)"><text id="ProcessOnText1044" fill="#000000" font-size="13" x="63.0" y="13.325" font-family="微软雅黑" font-weight="normal" font-style="normal" text-decoration="none" family="微软雅黑" text-anchor="middle" size="13">schedulerCache</text></g></g><g id="ProcessOnG1045"><path id="ProcessOnPath1046" d="M688.0 432.5C783.5826344060467 432.5 722.4173655939533 232.0 818.0 232.0" stroke="#323232" stroke-width="2.0" stroke-dasharray="none" fill="none" marker-end="url(#ProcessOnMarker1047)"/></g><g id="ProcessOnG1049" transform="matrix(1.0,0.0,0.0,1.0,532.0,449.0)" opacity="1.0"><path id="ProcessOnPath1050" d="M0.0 0.0L156.0 0.0L156.0 33.0L0.0 33.0Z" stroke="#323232" stroke-width="2.0" stroke-dasharray="none" opacity="1.0" fill="#ffffff"/><g id="ProcessOnG1051" transform="matrix(1.0,0.0,0.0,1.0,10.0,8.375)"><text id="ProcessOnText1052" fill="#000000" font-size="13" x="67.0" y="13.325" font-family="微软雅黑" font-weight="normal" font-style="normal" text-decoration="none" family="微软雅黑" text-anchor="middle" size="13">Ecache</text></g></g><g id="ProcessOnG1053"><path id="ProcessOnPath1054" d="M688.0 465.5C711.6888159265085 465.5 715.0 442.4 733.0 427.0" stroke="#323232" stroke-width="2.0" stroke-dasharray="none" fill="none" marker-end="url(#ProcessOnMarker1055)"/><g id="ProcessOnG1057" transform="matrix(1.0,0.0,0.0,1.0,712.6333059724407,443.9)"><path id="ProcessOnPath1058" d="M0 0H14.0V16.25H0Z" fill="#fff" transform="matrix(1.0,0.0,0.0,1.0,-7.0,0.0)"/><text id="ProcessOnText1059" fill="#000000" font-size="13" x="0.0" y="13.325" font-family="微软雅黑" font-weight="normal" font-style="normal" text-decoration="none" family="微软雅黑" text-anchor="middle" size="13">nil</text></g></g><g id="ProcessOnG1060" transform="matrix(1.0,0.0,0.0,1.0,532.0,482.0)" opacity="1.0"><path id="ProcessOnPath1061" d="M0.0 0.0L156.0 0.0L156.0 33.0L0.0 33.0Z" stroke="#323232" stroke-width="2.0" stroke-dasharray="none" opacity="1.0" fill="#ffffff"/><g id="ProcessOnG1062" transform="matrix(1.0,0.0,0.0,1.0,10.0,8.375)"><text id="ProcessOnText1063" fill="#000000" font-size="13" x="67.0" y="13.325" font-family="微软雅黑" font-weight="normal" font-style="normal" text-decoration="none" family="微软雅黑" text-anchor="middle" size="13">nodeLister</text></g></g><g id="ProcessOnG1064" transform="matrix(1.0,0.0,0.0,1.0,788.0,482.0)" opacity="1.0"><path id="ProcessOnPath1065" d="M0.0 0.0L156.0 0.0L156.0 33.0L0.0 33.0Z" stroke="#323232" stroke-width="2.0" stroke-dasharray="none" opacity="1.0" fill="#ffffff"/></g><g id="ProcessOnG1066" transform="matrix(1.0,0.0,0.0,1.0,788.0,462.0)" opacity="1.0"><path id="ProcessOnPath1067" d="M0.0 0.0L78.0 0.0L78.0 20.0L0.0 20.0Z" stroke="none" stroke-width="0.0" stroke-dasharray="none" opacity="1.0" fill="none"/><g id="ProcessOnG1068" transform="matrix(1.0,0.0,0.0,1.0,0.0,1.875)"><text id="ProcessOnText1069" fill="#000000" font-size="13" x="0.0" y="13.325" font-family="微软雅黑" font-weight="normal" font-style="normal" text-decoration="none" family="微软雅黑" text-anchor="start" size="13">nodeLister</text></g></g><g id="ProcessOnG1070"><path id="ProcessOnPath1071" d="M688.0 498.5C728.0 498.5 748.0 498.5 788.0 498.5" stroke="#323232" stroke-width="2.0" stroke-dasharray="none" fill="none" marker-end="url(#ProcessOnMarker1072)"/></g><g id="ProcessOnG1074" transform="matrix(1.0,0.0,0.0,1.0,818.0,248.0)" opacity="1.0"><path id="ProcessOnPath1075" d="M0.0 0.0L148.0 0.0L148.0 32.0L0.0 32.0Z" stroke="#323232" stroke-width="2.0" stroke-dasharray="none" opacity="1.0" fill="#ffffff"/><g id="ProcessOnG1076" transform="matrix(1.0,0.0,0.0,1.0,10.0,7.875)"><text id="ProcessOnText1077" fill="#000000" font-size="13" x="63.0" y="13.325" font-family="微软雅黑" font-weight="normal" font-style="normal" text-decoration="none" family="微软雅黑" text-anchor="middle" size="13">nodeLister</text></g></g><g id="ProcessOnG1078"><path id="ProcessOnPath1079" d="M944.0 498.5C1038.211888846366 498.5 1060.211888846366 264.0 966.0 264.0" stroke="#323232" stroke-width="2.0" stroke-dasharray="none" fill="none" marker-end="url(#ProcessOnMarker1080)"/></g><g id="ProcessOnG1082" transform="matrix(1.0,0.0,0.0,1.0,532.0,515.0)" opacity="1.0"><path id="ProcessOnPath1083" d="M0.0 0.0L156.0 0.0L156.0 33.0L0.0 33.0Z" stroke="#323232" stroke-width="2.0" stroke-dasharray="none" opacity="1.0" fill="#ffffff"/><g id="ProcessOnG1084" transform="matrix(1.0,0.0,0.0,1.0,10.0,8.375)"><text id="ProcessOnText1085" fill="#000000" font-size="13" x="67.0" y="13.325" font-family="微软雅黑" font-weight="normal" font-style="normal" text-decoration="none" family="微软雅黑" text-anchor="middle" size="13">Algorithm</text></g></g><g id="ProcessOnG1086" transform="matrix(1.0,0.0,0.0,1.0,1004.0,568.0)" opacity="1.0"><path id="ProcessOnPath1087" d="M0.0 0.0L156.0 0.0L156.0 33.0L0.0 33.0Z" stroke="#323232" stroke-width="2.0" stroke-dasharray="none" opacity="1.0" fill="#ffffff"/><g id="ProcessOnG1088" transform="matrix(1.0,0.0,0.0,1.0,10.0,8.375)"><text id="ProcessOnText1089" fill="#000000" font-size="13" x="67.0" y="13.325" font-family="微软雅黑" font-weight="normal" font-style="normal" text-decoration="none" family="微软雅黑" text-anchor="middle" size="13">cache</text></g></g><g id="ProcessOnG1090" transform="matrix(1.0,0.0,0.0,1.0,1004.0,548.0)" opacity="1.0"><path id="ProcessOnPath1091" d="M0.0 0.0L116.0 0.0L116.0 20.0L0.0 20.0Z" stroke="none" stroke-width="0.0" stroke-dasharray="none" opacity="1.0" fill="none"/><g id="ProcessOnG1092" transform="matrix(1.0,0.0,0.0,1.0,0.0,1.875)"><text id="ProcessOnText1093" fill="#000000" font-size="13" x="0.0" y="13.325" font-family="微软雅黑" font-weight="normal" font-style="normal" text-decoration="none" family="微软雅黑" text-anchor="start" size="13">genericScheduler</text></g></g><g id="ProcessOnG1094"><path id="ProcessOnPath1095" d="M688.0 531.5C816.1655179835825 531.5 875.8344820164175 584.5 1004.0 584.5" stroke="#323232" stroke-width="2.0" stroke-dasharray="none" fill="none" marker-end="url(#ProcessOnMarker1096)"/></g><g id="ProcessOnG1098"><path id="ProcessOnPath1099" d="M1160.0 584.5C1320.9433440686505 584.5 1126.9433440686505 232.0 966.0 232.0" stroke="#323232" stroke-width="2.0" stroke-dasharray="none" fill="none" marker-end="url(#ProcessOnMarker1100)"/></g><g id="ProcessOnG1102" transform="matrix(1.0,0.0,0.0,1.0,1004.0,634.0)" opacity="1.0"><path id="ProcessOnPath1103" d="M0.0 0.0L156.0 0.0L156.0 33.0L0.0 33.0Z" stroke="#323232" stroke-width="2.0" stroke-dasharray="none" opacity="1.0" fill="#ffffff"/><g id="ProcessOnG1104" transform="matrix(1.0,0.0,0.0,1.0,10.0,8.375)"><text id="ProcessOnText1105" fill="#000000" font-size="13" x="67.0" y="13.325" font-family="微软雅黑" font-weight="normal" font-style="normal" text-decoration="none" family="微软雅黑" text-anchor="middle" size="13">equivalenceCache</text></g></g><g id="ProcessOnG1106"><path id="ProcessOnPath1107" d="M1160.0 650.5C1206.8892311730528 650.5 1220.6 614.8 1261.0 591.0" stroke="#323232" stroke-width="2.0" stroke-dasharray="none" fill="none" marker-end="url(#ProcessOnMarker1108)"/><g id="ProcessOnG1110" transform="matrix(1.0,0.0,0.0,1.0,1212.9334616898948,621.55)"><path id="ProcessOnPath1111" d="M0 0H18.0V16.25H0Z" fill="#fff" transform="matrix(1.0,0.0,0.0,1.0,-9.0,0.0)"/><text id="ProcessOnText1112" fill="#000000" font-size="13" x="0.0" y="13.325" font-family="微软雅黑" font-weight="normal" font-style="normal" text-decoration="none" family="微软雅黑" text-anchor="middle" size="13">ni l</text></g></g><g id="ProcessOnG1113" transform="matrix(1.0,0.0,0.0,1.0,1004.0,601.0)" opacity="1.0"><path id="ProcessOnPath1114" d="M0.0 0.0L156.0 0.0L156.0 33.0L0.0 33.0Z" stroke="#323232" stroke-width="2.0" stroke-dasharray="none" opacity="1.0" fill="#ffffff"/><g id="ProcessOnG1115" transform="matrix(1.0,0.0,0.0,1.0,10.0,8.375)"><text id="ProcessOnText1116" fill="#000000" font-size="13" x="67.0" y="13.325" font-family="微软雅黑" font-weight="normal" font-style="normal" text-decoration="none" family="微软雅黑" text-anchor="middle" size="13">schedulingQueue</text></g></g><g id="ProcessOnG1117"><path id="ProcessOnPath1118" d="M1160.0 617.5C1344.1487442259654 617.5 1150.1487442259654 200.0 966.0 200.0" stroke="#323232" stroke-width="2.0" stroke-dasharray="none" fill="none" marker-end="url(#ProcessOnMarker1119)"/></g><g id="ProcessOnG1121" transform="matrix(1.0,0.0,0.0,1.0,532.0,548.0)" opacity="1.0"><path id="ProcessOnPath1122" d="M0.0 0.0L156.0 0.0L156.0 33.0L0.0 33.0Z" stroke="#323232" stroke-width="2.0" stroke-dasharray="none" opacity="1.0" fill="#ffffff"/><g id="ProcessOnG1123" transform="matrix(1.0,0.0,0.0,1.0,10.0,8.375)"><text id="ProcessOnText1124" fill="#000000" font-size="13" x="67.0" y="13.325" font-family="微软雅黑" font-weight="normal" font-style="normal" text-decoration="none" family="微软雅黑" text-anchor="middle" size="13">GetBinder</text></g></g><g id="ProcessOnG1125" transform="matrix(1.0,0.0,0.0,1.0,238.0,151.0)" opacity="1.0"><path id="ProcessOnPath1126" d="M0.0 0.0L156.0 0.0L156.0 33.0L0.0 33.0Z" stroke="#323232" stroke-width="2.0" stroke-dasharray="10.0 4.0" opacity="1.0" fill="#ffffff"/><g id="ProcessOnG1127" transform="matrix(1.0,0.0,0.0,1.0,10.0,8.375)"><text id="ProcessOnText1128" fill="#000000" font-size="13" x="67.0" y="13.325" font-family="微软雅黑" font-weight="normal" font-style="normal" text-decoration="none" family="微软雅黑" text-anchor="middle" size="13">Binder</text></g></g><g id="ProcessOnG1129"><path id="ProcessOnPath1130" d="M532.0 564.5C363.8795669765272 564.5 562.1204330234727 167.5 394.0 167.5" stroke="#323232" stroke-width="2.0" stroke-dasharray="10.0 4.0" fill="none" marker-end="url(#ProcessOnMarker1131)"/><g id="ProcessOnG1133" transform="matrix(1.0,0.0,0.0,1.0,463.0,357.875)"><path id="ProcessOnPath1134" d="M0 0H38.0V16.25H0Z" fill="#fff" transform="matrix(1.0,0.0,0.0,1.0,-19.0,0.0)"/><text id="ProcessOnText1135" fill="#000000" font-size="13" x="0.0" y="13.325" font-family="微软雅黑" font-weight="normal" font-style="normal" text-decoration="none" family="微软雅黑" text-anchor="middle" size="13">return</text></g></g><g id="ProcessOnG1136" transform="matrix(1.0,0.0,0.0,1.0,532.0,581.0)" opacity="1.0"><path id="ProcessOnPath1137" d="M0.0 0.0L156.0 0.0L156.0 33.0L0.0 33.0Z" stroke="#323232" stroke-width="2.0" stroke-dasharray="none" opacity="1.0" fill="#ffffff"/><g id="ProcessOnG1138" transform="matrix(1.0,0.0,0.0,1.0,10.0,8.375)"><text id="ProcessOnText1139" fill="#000000" font-size="13" x="67.0" y="13.325" font-family="微软雅黑" font-weight="normal" font-style="normal" text-decoration="none" family="微软雅黑" text-anchor="middle" size="13">PodConditionUpdater</text></g></g><g id="ProcessOnG1140" transform="matrix(1.0,0.0,0.0,1.0,146.0,363.0)" opacity="1.0"><path id="ProcessOnPath1141" d="M0.0 0.0L156.0 0.0L156.0 33.0L0.0 33.0Z" stroke="#323232" stroke-width="2.0" stroke-dasharray="10.0 4.0" opacity="1.0" fill="#ffffff"/><g id="ProcessOnG1142" transform="matrix(1.0,0.0,0.0,1.0,10.0,8.375)"><text id="ProcessOnText1143" fill="#000000" font-size="13" x="67.0" y="13.325" font-family="微软雅黑" font-weight="normal" font-style="normal" text-decoration="none" family="微软雅黑" text-anchor="middle" size="13">PodConditionUpdater</text></g></g><g id="ProcessOnG1144"><path id="ProcessOnPath1145" d="M532.0 597.5C405.2410160974773 597.5 428.7589839025227 379.5 302.0 379.5" stroke="#323232" stroke-width="2.0" stroke-dasharray="none" fill="none" marker-end="url(#ProcessOnMarker1146)"/></g><g id="ProcessOnG1148" transform="matrix(1.0,0.0,0.0,1.0,532.0,614.0)" opacity="1.0"><path id="ProcessOnPath1149" d="M0.0 0.0L156.0 0.0L156.0 33.0L0.0 33.0Z" stroke="#323232" stroke-width="2.0" stroke-dasharray="none" opacity="1.0" fill="#ffffff"/><g id="ProcessOnG1150" transform="matrix(1.0,0.0,0.0,1.0,10.0,8.375)"><text id="ProcessOnText1151" fill="#000000" font-size="13" x="67.0" y="13.325" font-family="微软雅黑" font-weight="normal" font-style="normal" text-decoration="none" family="微软雅黑" text-anchor="middle" size="13">PodPreemptor</text></g></g><g id="ProcessOnG1152" transform="matrix(1.0,0.0,0.0,1.0,282.0,581.0)" opacity="1.0"><path id="ProcessOnPath1153" d="M0.0 0.0L156.0 0.0L156.0 33.0L0.0 33.0Z" stroke="#323232" stroke-width="2.0" stroke-dasharray="10.0 4.0" opacity="1.0" fill="#ffffff"/><g id="ProcessOnG1154" transform="matrix(1.0,0.0,0.0,1.0,10.0,8.375)"><text id="ProcessOnText1155" fill="#000000" font-size="13" x="67.0" y="13.325" font-family="微软雅黑" font-weight="normal" font-style="normal" text-decoration="none" family="微软雅黑" text-anchor="middle" size="13">PodPreemptor</text></g></g><g id="ProcessOnG1156"><path id="ProcessOnPath1157" d="M532.0 638.0C491.0585784321062 638.0 478.9414215678938 597.5 438.0 597.5" stroke="#323232" stroke-width="2.0" stroke-dasharray="none" fill="none" marker-end="url(#ProcessOnMarker1158)"/></g><g id="ProcessOnG1160" transform="matrix(1.0,0.0,0.0,1.0,532.0,647.0)" opacity="1.0"><path id="ProcessOnPath1161" d="M0.0 0.0L156.0 0.0L156.0 33.0L0.0 33.0Z" stroke="#323232" stroke-width="2.0" stroke-dasharray="none" opacity="1.0" fill="#ffffff"/><g id="ProcessOnG1162" transform="matrix(1.0,0.0,0.0,1.0,10.0,8.375)"><text id="ProcessOnText1163" fill="#000000" font-size="13" x="67.0" y="13.325" font-family="微软雅黑" font-weight="normal" font-style="normal" text-decoration="none" family="微软雅黑" text-anchor="middle" size="13">NextPod</text></g></g><g id="ProcessOnG1164" transform="matrix(1.0,0.0,0.0,1.0,1109.0,169.5)" opacity="1.0"><path id="ProcessOnPath1165" d="M0.0 0.0L156.0 0.0L156.0 33.0L0.0 33.0Z" stroke="#323232" stroke-width="2.0" stroke-dasharray="none" opacity="1.0" fill="#ffffff"/></g><g id="ProcessOnG1166" transform="matrix(1.0,0.0,0.0,1.0,1109.0,149.5)" opacity="1.0"><path id="ProcessOnPath1167" d="M0.0 0.0L78.0 0.0L78.0 20.0L0.0 20.0Z" stroke="none" stroke-width="0.0" stroke-dasharray="none" opacity="1.0" fill="none"/><g id="ProcessOnG1168" transform="matrix(1.0,0.0,0.0,1.0,0.0,1.875)"><text id="ProcessOnText1169" fill="#000000" font-size="13" x="0.0" y="13.325" font-family="微软雅黑" font-weight="normal" font-style="normal" text-decoration="none" family="微软雅黑" text-anchor="start" size="13">v1.Pod</text></g></g><g id="ProcessOnG1170"><path id="ProcessOnPath1171" d="M966.0 365.0C1057.6427847678146 365.0 1017.3572152321854 186.0 1109.0 186.0" stroke="#323232" stroke-width="2.0" stroke-dasharray="10.0 4.0" fill="none" marker-end="url(#ProcessOnMarker1172)"/><g id="ProcessOnG1174" transform="matrix(1.0,0.0,0.0,1.0,1037.5,267.375)"><path id="ProcessOnPath1175" d="M0 0H38.0V16.25H0Z" fill="#fff" transform="matrix(1.0,0.0,0.0,1.0,-19.0,0.0)"/><text id="ProcessOnText1176" fill="#000000" font-size="13" x="0.0" y="13.325" font-family="微软雅黑" font-weight="normal" font-style="normal" text-decoration="none" family="微软雅黑" text-anchor="middle" size="13">return</text></g></g><g id="ProcessOnG1177" transform="matrix(1.0,0.0,0.0,1.0,532.0,680.0)" opacity="1.0"><path id="ProcessOnPath1178" d="M0.0 0.0L156.0 0.0L156.0 33.0L0.0 33.0Z" stroke="#323232" stroke-width="2.0" stroke-dasharray="none" opacity="1.0" fill="#ffffff"/><g id="ProcessOnG1179" transform="matrix(1.0,0.0,0.0,1.0,10.0,8.375)"><text id="ProcessOnText1180" fill="#000000" font-size="13" x="67.0" y="13.325" font-family="微软雅黑" font-weight="normal" font-style="normal" text-decoration="none" family="微软雅黑" text-anchor="middle" size="13">WaitForCacheSync</text></g></g><g id="ProcessOnG1181" transform="matrix(1.0,0.0,0.0,1.0,532.0,713.0)" opacity="1.0"><path id="ProcessOnPath1182" d="M0.0 0.0L156.0 0.0L156.0 33.0L0.0 33.0Z" stroke="#323232" stroke-width="2.0" stroke-dasharray="none" opacity="1.0" fill="#ffffff"/><g id="ProcessOnG1183" transform="matrix(1.0,0.0,0.0,1.0,10.0,8.375)"><text id="ProcessOnText1184" fill="#000000" font-size="13" x="67.0" y="13.325" font-family="微软雅黑" font-weight="normal" font-style="normal" text-decoration="none" family="微软雅黑" text-anchor="middle" size="13">Recorder</text></g></g><g id="ProcessOnG1185" transform="matrix(1.0,0.0,0.0,1.0,532.0,746.0)" opacity="1.0"><path id="ProcessOnPath1186" d="M0.0 0.0L156.0 0.0L156.0 33.0L0.0 33.0Z" stroke="#323232" stroke-width="2.0" stroke-dasharray="none" opacity="1.0" fill="#ffffff"/><g id="ProcessOnG1187" transform="matrix(1.0,0.0,0.0,1.0,10.0,8.375)"><text id="ProcessOnText1188" fill="#000000" font-size="13" x="67.0" y="13.325" font-family="微软雅黑" font-weight="normal" font-style="normal" text-decoration="none" family="微软雅黑" text-anchor="middle" size="13">VolumeBinder</text></g></g><g id="ProcessOnG1189"><path id="ProcessOnPath1190" d="M688.0 762.5C745.0 712.0 700.0 338.0 818.0 296.0" stroke="#323232" stroke-width="2.0" stroke-dasharray="none" fill="none" marker-end="url(#ProcessOnMarker1191)"/></g><g id="ProcessOnG1193" transform="matrix(1.0,0.0,0.0,1.0,199.0,274.0)" opacity="1.0"><path id="ProcessOnPath1194" d="M0.0 0.0L110.0 0.0L110.0 32.0L0.0 32.0Z" stroke="#323232" stroke-width="2.0" stroke-dasharray="none" opacity="1.0" fill="#ffffff"/><g id="ProcessOnG1195" transform="matrix(1.0,0.0,0.0,1.0,10.0,7.875)"><text id="ProcessOnText1196" fill="#000000" font-size="13" x="44.0" y="13.325" font-family="微软雅黑" font-weight="normal" font-style="normal" text-decoration="none" family="微软雅黑" text-anchor="middle" size="13">Client</text></g></g><g id="ProcessOnG1197" transform="matrix(1.0,0.0,0.0,1.0,199.0,254.0)" opacity="1.0"><path id="ProcessOnPath1198" d="M0.0 0.0L78.0 0.0L78.0 20.0L0.0 20.0Z" stroke="none" stroke-width="0.0" stroke-dasharray="none" opacity="1.0" fill="none"/><g id="ProcessOnG1199" transform="matrix(1.0,0.0,0.0,1.0,0.0,1.875)"><text id="ProcessOnText1200" fill="#000000" font-size="13" x="0.0" y="13.325" font-family="微软雅黑" font-weight="normal" font-style="normal" text-decoration="none" family="微软雅黑" text-anchor="start" size="13">binder</text></g></g><g id="ProcessOnG1201"><path id="ProcessOnPath1202" d="M254.0 274.0C254.0 230.2845565045944 316.0 227.7154434954056 316.0 199.2360679774998" stroke="#323232" stroke-width="2.0" stroke-dasharray="none" fill="none" marker-end="url(#ProcessOnMarker1203)"/><g id="ProcessOnG1205" transform="matrix(1.0,0.0,0.0,1.0,285.0,222.77950849718746)"><path id="ProcessOnPath1206" d="M0 0H71.0V16.25H0Z" fill="#fff" transform="matrix(1.0,0.0,0.0,1.0,-35.5,0.0)"/><text id="ProcessOnText1207" fill="#000000" font-size="13" x="0.0" y="13.325" font-family="微软雅黑" font-weight="normal" font-style="normal" text-decoration="none" family="微软雅黑" text-anchor="middle" size="13">implements</text></g></g><g id="ProcessOnG1208"><path id="ProcessOnPath1209" d="M532.0 564.5C390.533820296157 564.5 450.466179703843 290.0 309.0 290.0" stroke="#323232" stroke-width="2.0" stroke-dasharray="none" fill="none" marker-end="url(#ProcessOnMarker1210)"/><g id="ProcessOnG1212" transform="matrix(1.0,0.0,0.0,1.0,420.5,419.125)"><path id="ProcessOnPath1213" d="M0 0H43.0V16.25H0Z" fill="#fff" transform="matrix(1.0,0.0,0.0,1.0,-21.5,0.0)"/><text id="ProcessOnText1214" fill="#000000" font-size="13" x="0.0" y="13.325" font-family="微软雅黑" font-weight="normal" font-style="normal" text-decoration="none" family="微软雅黑" text-anchor="middle" size="13">default</text></g></g><g id="ProcessOnG1215" transform="matrix(1.0,0.0,0.0,1.0,146.0,483.0)" opacity="1.0"><path id="ProcessOnPath1216" d="M0.0 0.0L110.0 0.0L110.0 32.0L0.0 32.0Z" stroke="#323232" stroke-width="2.0" stroke-dasharray="none" opacity="1.0" fill="#ffffff"/><g id="ProcessOnG1217" transform="matrix(1.0,0.0,0.0,1.0,10.0,7.875)"><text id="ProcessOnText1218" fill="#000000" font-size="13" x="44.0" y="13.325" font-family="微软雅黑" font-weight="normal" font-style="normal" text-decoration="none" family="微软雅黑" text-anchor="middle" size="13">Client</text></g></g><g id="ProcessOnG1219" transform="matrix(1.0,0.0,0.0,1.0,146.0,463.0)" opacity="1.0"><path id="ProcessOnPath1220" d="M0.0 0.0L136.0 0.0L136.0 20.0L0.0 20.0Z" stroke="none" stroke-width="0.0" stroke-dasharray="none" opacity="1.0" fill="none"/><g id="ProcessOnG1221" transform="matrix(1.0,0.0,0.0,1.0,0.0,1.875)"><text id="ProcessOnText1222" fill="#000000" font-size="13" x="0.0" y="13.325" font-family="微软雅黑" font-weight="normal" font-style="normal" text-decoration="none" family="微软雅黑" text-anchor="start" size="13">podConditionUpdater</text></g></g><g id="ProcessOnG1223"><path id="ProcessOnPath1224" d="M146.53553390593274 483.5355339059327C121.514075300051 458.51407530005105 119.19112511823012 417.8171177632164 134.62662812021023 404.8651928872191" stroke="#323232" stroke-width="2.0" stroke-dasharray="none" fill="none" marker-end="url(#ProcessOnMarker1225)"/><g id="ProcessOnG1227" transform="matrix(1.0,0.0,0.0,1.0,125.4097204101233,431.54928824786924)"><path id="ProcessOnPath1228" d="M0 0H71.0V16.25H0Z" fill="#fff" transform="matrix(1.0,0.0,0.0,1.0,-35.5,0.0)"/><text id="ProcessOnText1229" fill="#000000" font-size="13" x="0.0" y="13.325" font-family="微软雅黑" font-weight="normal" font-style="normal" text-decoration="none" family="微软雅黑" text-anchor="middle" size="13">implements</text></g></g><g id="ProcessOnG1230" transform="matrix(1.0,0.0,0.0,1.0,78.0,147.0)" opacity="1.0"><path id="ProcessOnPath1231" d="M0.0 0.0L110.0 0.0L110.0 32.0L0.0 32.0Z" stroke="#66ffff" stroke-width="2.0" stroke-dasharray="none" opacity="1.0" fill="#ffffff"/></g><g id="ProcessOnG1232" transform="matrix(1.0,0.0,0.0,1.0,78.0,127.0)" opacity="1.0"><path id="ProcessOnPath1233" d="M0.0 0.0L78.0 0.0L78.0 20.0L0.0 20.0Z" stroke="none" stroke-width="0.0" stroke-dasharray="none" opacity="1.0" fill="none"/><g id="ProcessOnG1234" transform="matrix(1.0,0.0,0.0,1.0,0.0,1.875)"><text id="ProcessOnText1235" fill="#66ffff" font-size="13" x="0.0" y="13.325" font-family="微软雅黑" font-weight="normal" font-style="normal" text-decoration="none" family="微软雅黑" text-anchor="start" size="13">Clientset</text></g></g><g id="ProcessOnG1236"><path id="ProcessOnPath1237" d="M199.0 290.0C148.00980486407215 290.0 238.99019513592785 163.0 188.0 163.0" stroke="#323232" stroke-width="2.0" stroke-dasharray="none" fill="none" marker-end="url(#ProcessOnMarker1238)"/></g><g id="ProcessOnG1240"><path id="ProcessOnPath1241" d="M146.0 499.0C17.510934317351342 499.0 118.00000000000003 307.48906568264863 118.0 179.0" stroke="#323232" stroke-width="2.0" stroke-dasharray="none" fill="none" marker-end="url(#ProcessOnMarker1242)"/></g><g id="ProcessOnG1244" transform="matrix(1.0,0.0,0.0,1.0,282.0,693.0)" opacity="1.0"><path id="ProcessOnPath1245" d="M0.0 0.0L110.0 0.0L110.0 32.0L0.0 32.0Z" stroke="#323232" stroke-width="2.0" stroke-dasharray="none" opacity="1.0" fill="#ffffff"/><g id="ProcessOnG1246" transform="matrix(1.0,0.0,0.0,1.0,10.0,7.875)"><text id="ProcessOnText1247" fill="#000000" font-size="13" x="44.0" y="13.325" font-family="微软雅黑" font-weight="normal" font-style="normal" text-decoration="none" family="微软雅黑" text-anchor="middle" size="13">Client</text></g></g><g id="ProcessOnG1248" transform="matrix(1.0,0.0,0.0,1.0,282.0,673.0)" opacity="1.0"><path id="ProcessOnPath1249" d="M0.0 0.0L136.0 0.0L136.0 20.0L0.0 20.0Z" stroke="none" stroke-width="0.0" stroke-dasharray="none" opacity="1.0" fill="none"/><g id="ProcessOnG1250" transform="matrix(1.0,0.0,0.0,1.0,0.0,1.875)"><text id="ProcessOnText1251" fill="#000000" font-size="13" x="0.0" y="13.325" font-family="微软雅黑" font-weight="normal" font-style="normal" text-decoration="none" family="微软雅黑" text-anchor="start" size="13">podConditionUpdater</text></g></g><g id="ProcessOnG1252"><path id="ProcessOnPath1253" d="M282.46410161513774 695.0C254.10394828344772 678.6262578396897 255.27059149488693 631.9153031743281 269.61510399074996 621.8711673927813" stroke="#323232" stroke-width="2.0" stroke-dasharray="none" fill="none" marker-end="url(#ProcessOnMarker1254)"/><g id="ProcessOnG1256" transform="matrix(1.0,0.0,0.0,1.0,260.0253531176115,647.9369813043543)"><path id="ProcessOnPath1257" d="M0 0H71.0V16.25H0Z" fill="#fff" transform="matrix(1.0,0.0,0.0,1.0,-35.5,0.0)"/><text id="ProcessOnText1258" fill="#000000" font-size="13" x="0.0" y="13.325" font-family="微软雅黑" font-weight="normal" font-style="normal" text-decoration="none" family="微软雅黑" text-anchor="middle" size="13">implements</text></g></g><g id="ProcessOnG1259"><path id="ProcessOnPath1260" d="M282.0 709.0C55.083534704604006 709.0 -14.785950814780364 384.1246205688659 81.1130913087035 178.46846106481675" stroke="#323232" stroke-width="2.0" stroke-dasharray="none" fill="none" marker-end="url(#ProcessOnMarker1261)"/></g><g id="ProcessOnG1263" transform="matrix(1.0,0.0,0.0,1.0,262.0,783.0)" opacity="1.0"><path id="ProcessOnPath1264" d="M0.0 0.0L156.0 0.0L156.0 33.0L0.0 33.0Z" stroke="#66ffff" stroke-width="2.0" stroke-dasharray="10.0 4.0" opacity="1.0" fill="#ffffff"/><g id="ProcessOnG1265" transform="matrix(1.0,0.0,0.0,1.0,10.0,8.375)"><text id="ProcessOnText1266" fill="#66ffff" font-size="13" x="67.0" y="13.325" font-family="微软雅黑" font-weight="normal" font-style="normal" text-decoration="none" family="微软雅黑" text-anchor="middle" size="13">record.EventRecorder</text></g></g><g id="ProcessOnG1267"><path id="ProcessOnPath1268" d="M532.0 729.5C478.4896271737899 729.5 471.5103728262101 799.5 418.0 799.5" stroke="#323232" stroke-width="2.0" stroke-dasharray="none" fill="none" marker-end="url(#ProcessOnMarker1269)"/></g><g id="ProcessOnG1271" transform="matrix(1.0,0.0,0.0,1.0,39.0,29.0)" opacity="1.0"><path id="ProcessOnPath1272" d="M0.0 0.0L238.0 0.0L238.0 37.0L0.0 37.0Z" stroke="none" stroke-width="0.0" stroke-dasharray="none" opacity="1.0" fill="none"/><g id="ProcessOnG1273" transform="matrix(1.0,0.0,0.0,1.0,0.0,6.0)"><text id="ProcessOnText1274" fill="#66ffff" font-size="20" x="118.0" y="20.5" font-family="微软雅黑" font-weight="normal" font-style="normal" text-decoration="none" family="微软雅黑" text-anchor="middle" size="20">Created before Config</text></g></g><g id="ProcessOnG1275" transform="matrix(1.0,0.0,0.0,1.0,818.0,349.0)" opacity="1.0"><path id="ProcessOnPath1276" d="M0.0 0.0L148.0 0.0L148.0 32.0L0.0 32.0Z" stroke="#323232" stroke-width="2.0" stroke-dasharray="10.0 4.0" opacity="1.0" fill="#ffffff"/><g id="ProcessOnG1277" transform="matrix(1.0,0.0,0.0,1.0,10.0,7.875)"><text id="ProcessOnText1278" fill="#000000" font-size="13" x="63.0" y="13.325" font-family="微软雅黑" font-weight="normal" font-style="normal" text-decoration="none" family="微软雅黑" text-anchor="middle" size="13">getNextPod()</text></g></g><g id="ProcessOnG1279"><path id="ProcessOnPath1280" d="M688.0 663.5C818.231946925476 663.5 687.768053074524 365.0 818.0 365.0" stroke="#323232" stroke-width="2.0" stroke-dasharray="none" fill="none" marker-end="url(#ProcessOnMarker1281)"/></g><g id="ProcessOnG1283" transform="matrix(1.0,0.0,0.0,1.0,818.0,280.0)" opacity="1.0"><path id="ProcessOnPath1284" d="M0.0 0.0L148.0 0.0L148.0 32.0L0.0 32.0Z" stroke="#323232" stroke-width="2.0" stroke-dasharray="none" opacity="1.0" fill="#ffffff"/><g id="ProcessOnG1285" transform="matrix(1.0,0.0,0.0,1.0,10.0,7.875)"><text id="ProcessOnText1286" fill="#000000" font-size="13" x="63.0" y="13.325" font-family="微软雅黑" font-weight="normal" font-style="normal" text-decoration="none" family="微软雅黑" text-anchor="middle" size="13">volumeBinder</text></g></g></g></g></svg>