<svg xmlns="http://www.w3.org/2000/svg" xmlns:xlink="http://www.w3.org/1999/xlink" id="processonSvg1000" viewBox="9.0 10.0 1161.0 955.5" width="1161.0" height="955.5"><defs id="ProcessOnDefs1001"><marker id="ProcessOnMarker1027" markerUnits="userSpaceOnUse" orient="auto" markerWidth="13.144543434498276" markerHeight="18.246037666503607" viewBox="-0.29389262614623657 -0.4045084971874737 13.144543434498276 18.246037666503607" refX="12.0" refY="8.71851033606433"><path id="ProcessOnPath1028" d="M0 0L12.0 8.71851033606433L0 17.43702067212866" stroke="#323232" stroke-width="1.0" fill="none" transform="matrix(1.0,0.0,0.0,1.0,0.0,0.0)"/></marker><marker id="ProcessOnMarker1039" markerUnits="userSpaceOnUse" orient="auto" markerWidth="13.144543434498276" markerHeight="18.246037666503607" viewBox="-0.29389262614623657 -0.4045084971874737 13.144543434498276 18.246037666503607" refX="12.0" refY="8.71851033606433"><path id="ProcessOnPath1040" d="M0 0L12.0 8.71851033606433L0 17.43702067212866" stroke="#323232" stroke-width="1.0" fill="none" transform="matrix(1.0,0.0,0.0,1.0,0.0,0.0)"/></marker><marker id="ProcessOnMarker1051" markerUnits="userSpaceOnUse" orient="auto" markerWidth="13.144543434498276" markerHeight="18.246037666503607" viewBox="-0.29389262614623657 -0.4045084971874737 13.144543434498276 18.246037666503607" refX="12.0" refY="8.71851033606433"><path id="ProcessOnPath1052" d="M0 0L12.0 8.71851033606433L0 17.43702067212866" stroke="#323232" stroke-width="1.0" fill="none" transform="matrix(1.0,0.0,0.0,1.0,0.0,0.0)"/></marker><marker id="ProcessOnMarker1059" markerUnits="userSpaceOnUse" orient="auto" markerWidth="13.144543434498276" markerHeight="18.246037666503607" viewBox="-0.29389262614623657 -0.4045084971874737 13.144543434498276 18.246037666503607" refX="12.0" refY="8.71851033606433"><path id="ProcessOnPath1060" d="M0 0L12.0 8.71851033606433L0 17.43702067212866" stroke="#323232" stroke-width="1.0" fill="none" transform="matrix(1.0,0.0,0.0,1.0,0.0,0.0)"/></marker><marker id="ProcessOnMarker1075" markerUnits="userSpaceOnUse" orient="auto" markerWidth="13.144543434498276" markerHeight="18.246037666503607" viewBox="-0.29389262614623657 -0.4045084971874737 13.144543434498276 18.246037666503607" refX="12.0" refY="8.71851033606433"><path id="ProcessOnPath1076" d="M0 0L12.0 8.71851033606433L0 17.43702067212866" stroke="#323232" stroke-width="1.0" fill="none" transform="matrix(1.0,0.0,0.0,1.0,0.0,0.0)"/></marker><marker id="ProcessOnMarker1087" markerUnits="userSpaceOnUse" orient="auto" markerWidth="13.144543434498276" markerHeight="18.246037666503607" viewBox="-0.29389262614623657 -0.4045084971874737 13.144543434498276 18.246037666503607" refX="12.0" refY="8.71851033606433"><path id="ProcessOnPath1088" d="M0 0L12.0 8.71851033606433L0 17.43702067212866" stroke="#323232" stroke-width="1.0" fill="none" transform="matrix(1.0,0.0,0.0,1.0,0.0,0.0)"/></marker><marker id="ProcessOnMarker1109" markerUnits="userSpaceOnUse" orient="auto" markerWidth="13.144543434498276" markerHeight="18.246037666503607" viewBox="-0.29389262614623657 -0.4045084971874737 13.144543434498276 18.246037666503607" refX="12.0" refY="8.71851033606433"><path id="ProcessOnPath1110" d="M0 0L12.0 8.71851033606433L0 17.43702067212866" stroke="#323232" stroke-width="1.0" fill="none" transform="matrix(1.0,0.0,0.0,1.0,0.0,0.0)"/></marker><marker id="ProcessOnMarker1121" markerUnits="userSpaceOnUse" orient="auto" markerWidth="13.144543434498276" markerHeight="18.246037666503607" viewBox="-0.29389262614623657 -0.4045084971874737 13.144543434498276 18.246037666503607" refX="12.0" refY="8.71851033606433"><path id="ProcessOnPath1122" d="M0 0L12.0 8.71851033606433L0 17.43702067212866" stroke="#323232" stroke-width="1.0" fill="none" transform="matrix(1.0,0.0,0.0,1.0,0.0,0.0)"/></marker><marker id="ProcessOnMarker1131" markerUnits="userSpaceOnUse" orient="auto" markerWidth="13.144543434498276" markerHeight="18.246037666503607" viewBox="-0.29389262614623657 -0.4045084971874737 13.144543434498276 18.246037666503607" refX="12.0" refY="8.71851033606433"><path id="ProcessOnPath1132" d="M0 0L12.0 8.71851033606433L0 17.43702067212866" stroke="#323232" stroke-width="1.0" fill="none" transform="matrix(1.0,0.0,0.0,1.0,0.0,0.0)"/></marker><marker id="ProcessOnMarker1143" markerUnits="userSpaceOnUse" orient="auto" markerWidth="13.144543434498276" markerHeight="18.246037666503607" viewBox="-0.29389262614623657 -0.4045084971874737 13.144543434498276 18.246037666503607" refX="12.0" refY="8.71851033606433"><path id="ProcessOnPath1144" d="M0 0L12.0 8.71851033606433L0 17.43702067212866" stroke="#323232" stroke-width="1.0" fill="none" transform="matrix(1.0,0.0,0.0,1.0,0.0,0.0)"/></marker><marker id="ProcessOnMarker1150" markerUnits="userSpaceOnUse" orient="auto" markerWidth="13.144543434498276" markerHeight="18.246037666503607" viewBox="-0.29389262614623657 -0.4045084971874737 13.144543434498276 18.246037666503607" refX="12.0" refY="8.71851033606433"><path id="ProcessOnPath1151" d="M0 0L12.0 8.71851033606433L0 17.43702067212866" stroke="#323232" stroke-width="1.0" fill="none" transform="matrix(1.0,0.0,0.0,1.0,0.0,0.0)"/></marker><marker id="ProcessOnMarker1173" markerUnits="userSpaceOnUse" orient="auto" markerWidth="13.144543434498276" markerHeight="18.246037666503607" viewBox="-0.29389262614623657 -0.4045084971874737 13.144543434498276 18.246037666503607" refX="12.0" refY="8.71851033606433"><path id="ProcessOnPath1174" d="M0 0L12.0 8.71851033606433L0 17.43702067212866" stroke="#323232" stroke-width="1.0" fill="none" transform="matrix(1.0,0.0,0.0,1.0,0.0,0.0)"/></marker><marker id="ProcessOnMarker1177" markerUnits="userSpaceOnUse" orient="auto" markerWidth="13.144543434498276" markerHeight="18.246037666503607" viewBox="-0.29389262614623657 -0.4045084971874737 13.144543434498276 18.246037666503607" refX="12.0" refY="8.71851033606433"><path id="ProcessOnPath1178" d="M0 0L12.0 8.71851033606433L0 17.43702067212866" stroke="#323232" stroke-width="1.0" fill="none" transform="matrix(1.0,0.0,0.0,1.0,0.0,0.0)"/></marker><marker id="ProcessOnMarker1214" markerUnits="userSpaceOnUse" orient="auto" markerWidth="13.144543434498276" markerHeight="18.246037666503607" viewBox="-0.29389262614623657 -0.4045084971874737 13.144543434498276 18.246037666503607" refX="12.0" refY="8.71851033606433"><path id="ProcessOnPath1215" d="M0 0L12.0 8.71851033606433L0 17.43702067212866" stroke="#323232" stroke-width="1.0" fill="none" transform="matrix(1.0,0.0,0.0,1.0,0.0,0.0)"/></marker><marker id="ProcessOnMarker1222" markerUnits="userSpaceOnUse" orient="auto" markerWidth="13.144543434498276" markerHeight="18.246037666503607" viewBox="-0.29389262614623657 -0.4045084971874737 13.144543434498276 18.246037666503607" refX="12.0" refY="8.71851033606433"><path id="ProcessOnPath1223" d="M0 0L12.0 8.71851033606433L0 17.43702067212866" stroke="#323232" stroke-width="1.0" fill="none" transform="matrix(1.0,0.0,0.0,1.0,0.0,0.0)"/></marker><marker id="ProcessOnMarker1230" markerUnits="userSpaceOnUse" orient="auto" markerWidth="13.144543434498276" markerHeight="18.246037666503607" viewBox="-0.29389262614623657 -0.4045084971874737 13.144543434498276 18.246037666503607" refX="12.0" refY="8.71851033606433"><path id="ProcessOnPath1231" d="M0 0L12.0 8.71851033606433L0 17.43702067212866" stroke="#323232" stroke-width="1.0" fill="none" transform="matrix(1.0,0.0,0.0,1.0,0.0,0.0)"/></marker><marker id="ProcessOnMarker1242" markerUnits="userSpaceOnUse" orient="auto" markerWidth="13.144543434498276" markerHeight="18.246037666503607" viewBox="-0.29389262614623657 -0.4045084971874737 13.144543434498276 18.246037666503607" refX="12.0" refY="8.71851033606433"><path id="ProcessOnPath1243" d="M0 0L12.0 8.71851033606433L0 17.43702067212866" stroke="#323232" stroke-width="1.0" fill="none" transform="matrix(1.0,0.0,0.0,1.0,0.0,0.0)"/></marker><marker id="ProcessOnMarker1249" markerUnits="userSpaceOnUse" orient="auto" markerWidth="13.144543434498276" markerHeight="18.246037666503607" viewBox="-0.29389262614623657 -0.4045084971874737 13.144543434498276 18.246037666503607" refX="12.0" refY="8.71851033606433"><path id="ProcessOnPath1250" d="M0 0L12.0 8.71851033606433L0 17.43702067212866" stroke="#323232" stroke-width="1.0" fill="none" transform="matrix(1.0,0.0,0.0,1.0,0.0,0.0)"/></marker><marker id="ProcessOnMarker1256" markerUnits="userSpaceOnUse" orient="auto" markerWidth="13.144543434498276" markerHeight="18.246037666503607" viewBox="-0.29389262614623657 -0.4045084971874737 13.144543434498276 18.246037666503607" refX="0.5567581822058033" refY="8.71851033606433"><path id="ProcessOnPath1257" d="M0 0L12.0 8.71851033606433L0 17.43702067212866" stroke="#323232" stroke-width="1.0" fill="none" transform="matrix(-1.0,1.2246467991473532E-16,-1.2246467991473532E-16,-1.0,12.556758182205805,17.43702067212866)"/></marker><marker id="ProcessOnMarker1258" markerUnits="userSpaceOnUse" orient="auto" markerWidth="13.144543434498276" markerHeight="18.246037666503607" viewBox="-0.29389262614623657 -0.4045084971874737 13.144543434498276 18.246037666503607" refX="12.0" refY="8.71851033606433"><path id="ProcessOnPath1259" d="M0 0L12.0 8.71851033606433L0 17.43702067212866" stroke="#323232" stroke-width="1.0" fill="none" transform="matrix(1.0,0.0,0.0,1.0,0.0,0.0)"/></marker></defs><g id="ProcessOnG1002"><path id="ProcessOnPath1003" d="M9.0 10.0H1170.0V965.5H9.0V10.0Z" fill="none"/><g id="ProcessOnG1004"><g id="ProcessOnG1005" transform="matrix(1.0,0.0,0.0,1.0,54.0,263.5)" opacity="1.0"><path id="ProcessOnPath1006" d="M0.0 0.0L148.0 0.0L148.0 32.0L0.0 32.0Z" stroke="#323232" stroke-width="2.0" stroke-dasharray="none" opacity="1.0" fill="#ffffff"/><g id="ProcessOnG1007" transform="matrix(1.0,0.0,0.0,1.0,10.0,7.875)"><text id="ProcessOnText1008" fill="#000000" font-size="13" x="63.0" y="13.325" font-family="微软雅黑" font-weight="normal" font-style="normal" text-decoration="none" family="微软雅黑" text-anchor="middle" size="13">assumedPods</text></g></g><g id="ProcessOnG1009" transform="matrix(1.0,0.0,0.0,1.0,54.0,243.5)" opacity="1.0"><path id="ProcessOnPath1010" d="M0.0 0.0L104.0 0.0L104.0 20.0L0.0 20.0Z" stroke="none" stroke-width="0.0" stroke-dasharray="none" opacity="1.0" fill="none"/><g id="ProcessOnG1011" transform="matrix(1.0,0.0,0.0,1.0,0.0,1.875)"><text id="ProcessOnText1012" fill="#000000" font-size="13" x="0.0" y="13.325" font-family="微软雅黑" font-weight="normal" font-style="normal" text-decoration="none" family="微软雅黑" text-anchor="start" size="13">schedulerCache</text></g></g><g id="ProcessOnG1013" transform="matrix(1.0,0.0,0.0,1.0,54.0,295.5)" opacity="1.0"><path id="ProcessOnPath1014" d="M0.0 0.0L148.0 0.0L148.0 32.0L0.0 32.0Z" stroke="#323232" stroke-width="2.0" stroke-dasharray="none" opacity="1.0" fill="#ffffff"/><g id="ProcessOnG1015" transform="matrix(1.0,0.0,0.0,1.0,10.0,7.875)"><text id="ProcessOnText1016" fill="#000000" font-size="13" x="63.0" y="13.325" font-family="微软雅黑" font-weight="normal" font-style="normal" text-decoration="none" family="微软雅黑" text-anchor="middle" size="13">podStates</text></g></g><g id="ProcessOnG1017" transform="matrix(1.0,0.0,0.0,1.0,323.0,179.5)" opacity="1.0"><path id="ProcessOnPath1018" d="M0.0 0.0L96.0 0.0L96.0 32.0L0.0 32.0Z" stroke="#323232" stroke-width="2.0" stroke-dasharray="10.0 4.0 2.0 4.0" opacity="1.0" fill="#ffffff"/><g id="ProcessOnG1019" transform="matrix(1.0,0.0,0.0,1.0,10.0,7.875)"><text id="ProcessOnText1020" fill="#000000" font-size="13" x="37.0" y="13.325" font-family="微软雅黑" font-weight="normal" font-style="italic" text-decoration="none" family="微软雅黑" text-anchor="middle" size="13">key-1</text></g></g><g id="ProcessOnG1021" transform="matrix(1.0,0.0,0.0,1.0,323.0,211.5)" opacity="1.0"><path id="ProcessOnPath1022" d="M0.0 0.0L96.0 0.0L96.0 32.0L0.0 32.0Z" stroke="#323232" stroke-width="2.0" stroke-dasharray="10.0 4.0 2.0 4.0" opacity="1.0" fill="#ffffff"/><g id="ProcessOnG1023" transform="matrix(1.0,0.0,0.0,1.0,10.0,7.875)"><text id="ProcessOnText1024" fill="#000000" font-size="13" x="37.0" y="13.325" font-family="微软雅黑" font-weight="normal" font-style="italic" text-decoration="none" family="微软雅黑" text-anchor="middle" size="13">key-2</text></g></g><g id="ProcessOnG1025"><path id="ProcessOnPath1026" d="M202.0 279.5C260.91960624444124 279.5 264.08039375555876 195.5 323.0 195.5" stroke="#323232" stroke-width="1.0" stroke-dasharray="none" fill="none" marker-end="url(#ProcessOnMarker1027)"/></g><g id="ProcessOnG1029" transform="matrix(1.0,0.0,0.0,1.0,323.0,267.5)" opacity="1.0"><path id="ProcessOnPath1030" d="M0.0 0.0L96.0 0.0L96.0 32.0L0.0 32.0Z" stroke="#323232" stroke-width="2.0" stroke-dasharray="10.0 4.0 2.0 4.0" opacity="1.0" fill="#ffffff"/><g id="ProcessOnG1031" transform="matrix(1.0,0.0,0.0,1.0,10.0,7.875)"><text id="ProcessOnText1032" fill="#000000" font-size="13" x="37.0" y="13.325" font-family="微软雅黑" font-weight="normal" font-style="italic" text-decoration="none" family="微软雅黑" text-anchor="middle" size="13">key-1</text></g></g><g id="ProcessOnG1033" transform="matrix(1.0,0.0,0.0,1.0,323.0,299.5)" opacity="1.0"><path id="ProcessOnPath1034" d="M0.0 0.0L96.0 0.0L96.0 32.0L0.0 32.0Z" stroke="#323232" stroke-width="2.0" stroke-dasharray="10.0 4.0 2.0 4.0" opacity="1.0" fill="#ffffff"/><g id="ProcessOnG1035" transform="matrix(1.0,0.0,0.0,1.0,10.0,7.875)"><text id="ProcessOnText1036" fill="#000000" font-size="13" x="37.0" y="13.325" font-family="微软雅黑" font-weight="normal" font-style="italic" text-decoration="none" family="微软雅黑" text-anchor="middle" size="13">key-2</text></g></g><g id="ProcessOnG1037"><path id="ProcessOnPath1038" d="M202.0 311.5C253.2814158292365 311.5 273.42170287098594 262.9633164814077 323.924038765061 271.86824088833464" stroke="#323232" stroke-width="1.0" stroke-dasharray="none" fill="none" marker-end="url(#ProcessOnMarker1039)"/></g><g id="ProcessOnG1041" transform="matrix(1.0,0.0,0.0,1.0,497.0,267.5)" opacity="1.0"><path id="ProcessOnPath1042" d="M0.0 0.0L116.0 0.0L116.0 32.0L0.0 32.0Z" stroke="#323232" stroke-width="2.0" stroke-dasharray="none" opacity="1.0" fill="#ffffff"/><g id="ProcessOnG1043" transform="matrix(1.0,0.0,0.0,1.0,10.0,7.875)"><text id="ProcessOnText1044" fill="#000000" font-size="13" x="47.0" y="13.325" font-family="微软雅黑" font-weight="normal" font-style="normal" text-decoration="none" family="微软雅黑" text-anchor="middle" size="13">pod</text></g></g><g id="ProcessOnG1045" transform="matrix(1.0,0.0,0.0,1.0,497.0,247.5)" opacity="1.0"><path id="ProcessOnPath1046" d="M0.0 0.0L104.0 0.0L104.0 20.0L0.0 20.0Z" stroke="none" stroke-width="0.0" stroke-dasharray="none" opacity="1.0" fill="none"/><g id="ProcessOnG1047" transform="matrix(1.0,0.0,0.0,1.0,0.0,1.875)"><text id="ProcessOnText1048" fill="#000000" font-size="13" x="0.0" y="13.325" font-family="微软雅黑" font-weight="normal" font-style="normal" text-decoration="none" family="微软雅黑" text-anchor="start" size="13">podStates</text></g></g><g id="ProcessOnG1049"><path id="ProcessOnPath1050" d="M419.0 195.5C455.79999999999995 195.5 474.20000000000005 195.5 511.0 195.5" stroke="#323232" stroke-width="1.0" stroke-dasharray="none" fill="none" marker-end="url(#ProcessOnMarker1051)"/></g><g id="ProcessOnG1053" transform="matrix(1.0,0.0,0.0,1.0,511.0,179.5)" opacity="1.0"><path id="ProcessOnPath1054" d="M0.0 0.0L96.0 0.0L96.0 32.0L0.0 32.0Z" stroke="#323232" stroke-width="2.0" stroke-dasharray="10.0 4.0 2.0 4.0" opacity="1.0" fill="#ffffff"/><g id="ProcessOnG1055" transform="matrix(1.0,0.0,0.0,1.0,10.0,7.875)"><text id="ProcessOnText1056" fill="#000000" font-size="13" x="37.0" y="13.325" font-family="微软雅黑" font-weight="normal" font-style="italic" text-decoration="none" family="微软雅黑" text-anchor="middle" size="13">true</text></g></g><g id="ProcessOnG1057"><path id="ProcessOnPath1058" d="M419.0 283.5C450.20000000000005 283.5 465.79999999999995 283.5 497.0 283.5" stroke="#323232" stroke-width="1.0" stroke-dasharray="none" fill="none" marker-end="url(#ProcessOnMarker1059)"/></g><g id="ProcessOnG1061" transform="matrix(1.0,0.0,0.0,1.0,54.0,327.5)" opacity="1.0"><path id="ProcessOnPath1062" d="M0.0 0.0L148.0 0.0L148.0 32.0L0.0 32.0Z" stroke="#323232" stroke-width="2.0" stroke-dasharray="none" opacity="1.0" fill="#ffffff"/><g id="ProcessOnG1063" transform="matrix(1.0,0.0,0.0,1.0,10.0,7.875)"><text id="ProcessOnText1064" fill="#000000" font-size="13" x="63.0" y="13.325" font-family="微软雅黑" font-weight="normal" font-style="normal" text-decoration="none" family="微软雅黑" text-anchor="middle" size="13">nodes</text></g></g><g id="ProcessOnG1065" transform="matrix(1.0,0.0,0.0,1.0,323.0,385.5)" opacity="1.0"><path id="ProcessOnPath1066" d="M0.0 0.0L96.0 0.0L96.0 32.0L0.0 32.0Z" stroke="#323232" stroke-width="2.0" stroke-dasharray="10.0 4.0 2.0 4.0" opacity="1.0" fill="#ffffff"/><g id="ProcessOnG1067" transform="matrix(1.0,0.0,0.0,1.0,10.0,7.875)"><text id="ProcessOnText1068" fill="#000000" font-size="13" x="37.0" y="13.325" font-family="微软雅黑" font-weight="normal" font-style="italic" text-decoration="none" family="微软雅黑" text-anchor="middle" size="13">key-1</text></g></g><g id="ProcessOnG1069" transform="matrix(1.0,0.0,0.0,1.0,323.0,417.5)" opacity="1.0"><path id="ProcessOnPath1070" d="M0.0 0.0L96.0 0.0L96.0 32.0L0.0 32.0Z" stroke="#323232" stroke-width="2.0" stroke-dasharray="10.0 4.0 2.0 4.0" opacity="1.0" fill="#ffffff"/><g id="ProcessOnG1071" transform="matrix(1.0,0.0,0.0,1.0,10.0,7.875)"><text id="ProcessOnText1072" fill="#000000" font-size="13" x="37.0" y="13.325" font-family="微软雅黑" font-weight="normal" font-style="italic" text-decoration="none" family="微软雅黑" text-anchor="middle" size="13">key-2</text></g></g><g id="ProcessOnG1073"><path id="ProcessOnPath1074" d="M202.0 343.5C255.67308450238352 343.5 269.3269154976165 401.5 323.0 401.5" stroke="#323232" stroke-width="1.0" stroke-dasharray="none" fill="none" marker-end="url(#ProcessOnMarker1075)"/></g><g id="ProcessOnG1077" transform="matrix(1.0,0.0,0.0,1.0,497.0,385.5)" opacity="1.0"><path id="ProcessOnPath1078" d="M0.0 0.0L130.0 0.0L130.0 32.0L0.0 32.0Z" stroke="#323232" stroke-width="2.0" stroke-dasharray="none" opacity="1.0" fill="#ffffff"/><g id="ProcessOnG1079" transform="matrix(1.0,0.0,0.0,1.0,10.0,7.875)"><text id="ProcessOnText1080" fill="#000000" font-size="13" x="54.0" y="13.325" font-family="微软雅黑" font-weight="normal" font-style="normal" text-decoration="none" family="微软雅黑" text-anchor="middle" size="13">node</text></g></g><g id="ProcessOnG1081" transform="matrix(1.0,0.0,0.0,1.0,497.0,365.5)" opacity="1.0"><path id="ProcessOnPath1082" d="M0.0 0.0L104.0 0.0L104.0 20.0L0.0 20.0Z" stroke="none" stroke-width="0.0" stroke-dasharray="none" opacity="1.0" fill="none"/><g id="ProcessOnG1083" transform="matrix(1.0,0.0,0.0,1.0,0.0,1.875)"><text id="ProcessOnText1084" fill="#000000" font-size="13" x="0.0" y="13.325" font-family="微软雅黑" font-weight="normal" font-style="normal" text-decoration="none" family="微软雅黑" text-anchor="start" size="13">NodeInfo</text></g></g><g id="ProcessOnG1085"><path id="ProcessOnPath1086" d="M419.0 401.5C450.2 401.5 465.8 401.5 497.0 401.5" stroke="#323232" stroke-width="1.0" stroke-dasharray="none" fill="none" marker-end="url(#ProcessOnMarker1087)"/></g><g id="ProcessOnG1089"><path id="ProcessOnPath1090" d="M687.0 30.0C687.0 303.6 687.0 440.4 687.0 714.0" stroke="#323232" stroke-width="2.0" stroke-dasharray="10.0 4.0" fill="none"/></g><g id="ProcessOnG1091" transform="matrix(1.0,0.0,0.0,1.0,808.0,127.5)" opacity="1.0"><path id="ProcessOnPath1092" d="M0.0 0.0L116.0 0.0L116.0 32.0L0.0 32.0Z" stroke="#323232" stroke-width="2.0" stroke-dasharray="none" opacity="1.0" fill="#ffffff"/><g id="ProcessOnG1093" transform="matrix(1.0,0.0,0.0,1.0,10.0,7.875)"><text id="ProcessOnText1094" fill="#000000" font-size="13" x="47.0" y="13.325" font-family="微软雅黑" font-weight="normal" font-style="normal" text-decoration="none" family="微软雅黑" text-anchor="middle" size="13">Spec</text></g></g><g id="ProcessOnG1095" transform="matrix(1.0,0.0,0.0,1.0,808.0,107.5)" opacity="1.0"><path id="ProcessOnPath1096" d="M0.0 0.0L104.0 0.0L104.0 20.0L0.0 20.0Z" stroke="none" stroke-width="0.0" stroke-dasharray="none" opacity="1.0" fill="none"/><g id="ProcessOnG1097" transform="matrix(1.0,0.0,0.0,1.0,0.0,1.875)"><text id="ProcessOnText1098" fill="#000000" font-size="13" x="0.0" y="13.325" font-family="微软雅黑" font-weight="normal" font-style="normal" text-decoration="none" family="微软雅黑" text-anchor="start" size="13">Pod</text></g></g><g id="ProcessOnG1099" transform="matrix(1.0,0.0,0.0,1.0,588.5,44.0)" opacity="1.0"><path id="ProcessOnPath1100" d="M0.0 0.0L93.0 0.0L93.0 30.0L0.0 30.0Z" stroke="none" stroke-width="0.0" stroke-dasharray="none" opacity="1.0" fill="none"/><g id="ProcessOnG1101" transform="matrix(1.0,0.0,0.0,1.0,0.0,3.75)"><text id="ProcessOnText1102" fill="#000000" font-size="18" x="0.0" y="18.45" font-family="微软雅黑" font-weight="bold" font-style="normal" text-decoration="none" family="微软雅黑" text-anchor="start" size="18">scheduler</text></g></g><g id="ProcessOnG1103" transform="matrix(1.0,0.0,0.0,1.0,701.5,44.0)" opacity="1.0"><path id="ProcessOnPath1104" d="M0.0 0.0L93.0 0.0L93.0 30.0L0.0 30.0Z" stroke="none" stroke-width="0.0" stroke-dasharray="none" opacity="1.0" fill="none"/><g id="ProcessOnG1105" transform="matrix(1.0,0.0,0.0,1.0,0.0,3.75)"><text id="ProcessOnText1106" fill="#000000" font-size="18" x="0.0" y="18.45" font-family="微软雅黑" font-weight="bold" font-style="normal" text-decoration="none" family="微软雅黑" text-anchor="start" size="18">api</text></g></g><g id="ProcessOnG1107"><path id="ProcessOnPath1108" d="M613.0 283.5C709.0208310732625 283.5 711.9791689267375 143.5 808.0 143.5" stroke="#323232" stroke-width="1.0" stroke-dasharray="none" fill="none" marker-end="url(#ProcessOnMarker1109)"/></g><g id="ProcessOnG1111" transform="matrix(1.0,0.0,0.0,1.0,1034.0,235.5)" opacity="1.0"><path id="ProcessOnPath1112" d="M0.0 0.0L116.0 0.0L116.0 32.0L0.0 32.0Z" stroke="#323232" stroke-width="2.0" stroke-dasharray="none" opacity="1.0" fill="#ffffff"/><g id="ProcessOnG1113" transform="matrix(1.0,0.0,0.0,1.0,10.0,7.875)"><text id="ProcessOnText1114" fill="#000000" font-size="13" x="47.0" y="13.325" font-family="微软雅黑" font-weight="normal" font-style="normal" text-decoration="none" family="微软雅黑" text-anchor="middle" size="13">NodeName</text></g></g><g id="ProcessOnG1115" transform="matrix(1.0,0.0,0.0,1.0,1034.0,215.5)" opacity="1.0"><path id="ProcessOnPath1116" d="M0.0 0.0L104.0 0.0L104.0 20.0L0.0 20.0Z" stroke="none" stroke-width="0.0" stroke-dasharray="none" opacity="1.0" fill="none"/><g id="ProcessOnG1117" transform="matrix(1.0,0.0,0.0,1.0,0.0,1.875)"><text id="ProcessOnText1118" fill="#000000" font-size="13" x="0.0" y="13.325" font-family="微软雅黑" font-weight="normal" font-style="normal" text-decoration="none" family="微软雅黑" text-anchor="start" size="13">PodSpec</text></g></g><g id="ProcessOnG1119"><path id="ProcessOnPath1120" d="M924.0 143.5C982.1481800171107 143.5 984.1063005364891 208.92590999144468 1034.4641016151377 238.0" stroke="#323232" stroke-width="1.0" stroke-dasharray="none" fill="none" marker-end="url(#ProcessOnMarker1121)"/></g><g id="ProcessOnG1123" transform="matrix(1.0,0.0,0.0,1.0,805.0,385.5)" opacity="1.0"><path id="ProcessOnPath1124" d="M0.0 0.0L116.0 0.0L116.0 32.0L0.0 32.0Z" stroke="#323232" stroke-width="2.0" stroke-dasharray="none" opacity="1.0" fill="#ffffff"/></g><g id="ProcessOnG1125" transform="matrix(1.0,0.0,0.0,1.0,805.0,365.5)" opacity="1.0"><path id="ProcessOnPath1126" d="M0.0 0.0L104.0 0.0L104.0 20.0L0.0 20.0Z" stroke="none" stroke-width="0.0" stroke-dasharray="none" opacity="1.0" fill="none"/><g id="ProcessOnG1127" transform="matrix(1.0,0.0,0.0,1.0,0.0,1.875)"><text id="ProcessOnText1128" fill="#000000" font-size="13" x="0.0" y="13.325" font-family="微软雅黑" font-weight="normal" font-style="normal" text-decoration="none" family="微软雅黑" text-anchor="start" size="13">Node</text></g></g><g id="ProcessOnG1129"><path id="ProcessOnPath1130" d="M627.0 401.5C698.2 401.5 733.8 401.5 805.0 401.5" stroke="#323232" stroke-width="1.0" stroke-dasharray="none" fill="none" marker-end="url(#ProcessOnMarker1131)"/></g><g id="ProcessOnG1133" transform="matrix(1.0,0.0,0.0,1.0,497.0,417.5)" opacity="1.0"><path id="ProcessOnPath1134" d="M0.0 0.0L130.0 0.0L130.0 32.0L0.0 32.0Z" stroke="#323232" stroke-width="2.0" stroke-dasharray="none" opacity="1.0" fill="#ffffff"/><g id="ProcessOnG1135" transform="matrix(1.0,0.0,0.0,1.0,10.0,7.875)"><text id="ProcessOnText1136" fill="#000000" font-size="13" x="54.0" y="13.325" font-family="微软雅黑" font-weight="normal" font-style="normal" text-decoration="none" family="微软雅黑" text-anchor="middle" size="13">pods</text></g></g><g id="ProcessOnG1137" transform="matrix(1.0,0.0,0.0,1.0,497.0,449.5)" opacity="1.0"><path id="ProcessOnPath1138" d="M0.0 0.0L130.0 0.0L130.0 31.5L0.0 31.5Z" stroke="#323232" stroke-width="2.0" stroke-dasharray="none" opacity="1.0" fill="#ffffff"/><g id="ProcessOnG1139" transform="matrix(1.0,0.0,0.0,1.0,10.0,7.625)"><text id="ProcessOnText1140" fill="#000000" font-size="13" x="54.0" y="13.325" font-family="微软雅黑" font-weight="normal" font-style="normal" text-decoration="none" family="微软雅黑" text-anchor="middle" size="13">podsWithAffinity</text></g></g><g id="ProcessOnG1141"><path id="ProcessOnPath1142" d="M627.0 433.5C758.7506382230142 433.5 715.2524438492242 251.74755615077584 808.4142135623731 158.5857864376269" stroke="#323232" stroke-width="1.0" stroke-dasharray="5.0 2.0" fill="none" marker-end="url(#ProcessOnMarker1143)"/><g id="ProcessOnG1145" transform="matrix(1.0,0.0,0.0,1.0,732.1779324723861,322.85355686124433)"><path id="ProcessOnPath1146" d="M0 0H26.0V16.25H0Z" fill="#fff" transform="matrix(1.0,0.0,0.0,1.0,-13.0,0.0)"/><text id="ProcessOnText1147" fill="#000000" font-size="13" x="0.0" y="13.325" font-family="微软雅黑" font-weight="normal" font-style="normal" text-decoration="none" family="微软雅黑" text-anchor="middle" size="13">slice</text></g></g><g id="ProcessOnG1148"><path id="ProcessOnPath1149" d="M627.0 465.25C827.0 326.0 829.0 305.7477086703571 829.0 159.0" stroke="#323232" stroke-width="1.0" stroke-dasharray="5.0 2.0" fill="none" marker-end="url(#ProcessOnMarker1150)"/><g id="ProcessOnG1152" transform="matrix(1.0,0.0,0.0,1.0,803.0,306.81164075138395)"><path id="ProcessOnPath1153" d="M0 0H26.0V16.25H0Z" fill="#fff" transform="matrix(1.0,0.0,0.0,1.0,-13.0,0.0)"/><text id="ProcessOnText1154" fill="#000000" font-size="13" x="0.0" y="13.325" font-family="微软雅黑" font-weight="normal" font-style="normal" text-decoration="none" family="微软雅黑" text-anchor="middle" size="13">slice</text></g></g><g id="ProcessOnG1155"><path id="ProcessOnPath1156" d="M690.0 560.0C872.8 560.0 964.2 560.0 1147.0 560.0" stroke="#323232" stroke-width="2.0" stroke-dasharray="10.0 4.0" fill="none"/></g><g id="ProcessOnG1157" transform="matrix(1.0,0.0,0.0,1.0,701.5,570.0)" opacity="1.0"><path id="ProcessOnPath1158" d="M0.0 0.0L109.5 0.0L109.5 30.0L0.0 30.0Z" stroke="none" stroke-width="0.0" stroke-dasharray="none" opacity="1.0" fill="none"/><g id="ProcessOnG1159" transform="matrix(1.0,0.0,0.0,1.0,0.0,3.75)"><text id="ProcessOnText1160" fill="#000000" font-size="18" x="0.0" y="18.45" font-family="微软雅黑" font-weight="bold" font-style="normal" text-decoration="none" family="微软雅黑" text-anchor="start" size="18">kubernetes</text></g></g><g id="ProcessOnG1161" transform="matrix(1.0,0.0,0.0,1.0,497.0,481.0)" opacity="1.0"><path id="ProcessOnPath1162" d="M0.0 0.0L130.0 0.0L130.0 31.5L0.0 31.5Z" stroke="#323232" stroke-width="2.0" stroke-dasharray="none" opacity="1.0" fill="#ffffff"/><g id="ProcessOnG1163" transform="matrix(1.0,0.0,0.0,1.0,10.0,7.625)"><text id="ProcessOnText1164" fill="#000000" font-size="13" x="54.0" y="13.325" font-family="微软雅黑" font-weight="normal" font-style="normal" text-decoration="none" family="微软雅黑" text-anchor="middle" size="13">usedPorts</text></g></g><g id="ProcessOnG1165" transform="matrix(1.0,0.0,0.0,1.0,805.0,653.5)" opacity="1.0"><path id="ProcessOnPath1166" d="M0.0 0.0L116.0 0.0L116.0 32.0L0.0 32.0Z" stroke="#323232" stroke-width="2.0" stroke-dasharray="none" opacity="1.0" fill="#ffffff"/></g><g id="ProcessOnG1167" transform="matrix(1.0,0.0,0.0,1.0,805.0,633.5)" opacity="1.0"><path id="ProcessOnPath1168" d="M0.0 0.0L104.0 0.0L104.0 20.0L0.0 20.0Z" stroke="none" stroke-width="0.0" stroke-dasharray="none" opacity="1.0" fill="none"/><g id="ProcessOnG1169" transform="matrix(1.0,0.0,0.0,1.0,0.0,1.875)"><text id="ProcessOnText1170" fill="#000000" font-size="13" x="0.0" y="13.325" font-family="微软雅黑" font-weight="normal" font-style="normal" text-decoration="none" family="微软雅黑" text-anchor="start" size="13">HostPortInfo</text></g></g><g id="ProcessOnG1171"><path id="ProcessOnPath1172" d="M627.0 496.75C678.0 562.0 705.7818061039206 669.5 805.0 669.5" stroke="#323232" stroke-width="1.0" stroke-dasharray="none" fill="none" marker-end="url(#ProcessOnMarker1173)"/></g><g id="ProcessOnG1175"><path id="ProcessOnPath1176" d="M371.0 385.5C416.0 373.0 763.4376227189005 251.5 1034.0 251.5" stroke="#323232" stroke-width="1.0" stroke-dasharray="5.0 2.0" fill="none" marker-end="url(#ProcessOnMarker1177)"/><g id="ProcessOnG1179" transform="matrix(1.0,0.0,0.0,1.0,617.9141085195877,305.6875)"><path id="ProcessOnPath1180" d="M0 0H30.0V16.25H0Z" fill="#fff" transform="matrix(1.0,0.0,0.0,1.0,-15.0,0.0)"/><text id="ProcessOnText1181" fill="#000000" font-size="13" x="0.0" y="13.325" font-family="微软雅黑" font-weight="normal" font-style="normal" text-decoration="none" family="微软雅黑" text-anchor="middle" size="13">from</text></g></g><g id="ProcessOnG1182"><path id="ProcessOnPath1183" d="M29.0 716.0C474.6 716.0 697.4 716.0 1143.0 716.0" stroke="#323232" stroke-width="2.0" stroke-dasharray="10.0 4.0" fill="none"/></g><g id="ProcessOnG1184" transform="matrix(1.0,0.0,0.0,1.0,33.5,732.0)" opacity="1.0"><path id="ProcessOnPath1185" d="M0.0 0.0L93.0 0.0L93.0 30.0L0.0 30.0Z" stroke="none" stroke-width="0.0" stroke-dasharray="none" opacity="1.0" fill="none"/><g id="ProcessOnG1186" transform="matrix(1.0,0.0,0.0,1.0,0.0,3.75)"><text id="ProcessOnText1187" fill="#000000" font-size="18" x="0.0" y="18.45" font-family="微软雅黑" font-weight="bold" font-style="normal" text-decoration="none" family="微软雅黑" text-anchor="start" size="18">client-go</text></g></g><g id="ProcessOnG1188" transform="matrix(1.0,0.0,0.0,1.0,63.0,824.5)" opacity="1.0"><path id="ProcessOnPath1189" d="M0.0 0.0L130.0 0.0L130.0 32.0L0.0 32.0Z" stroke="#323232" stroke-width="2.0" stroke-dasharray="none" opacity="1.0" fill="#ffffff"/><g id="ProcessOnG1190" transform="matrix(1.0,0.0,0.0,1.0,10.0,7.875)"><text id="ProcessOnText1191" fill="#000000" font-size="13" x="54.0" y="13.325" font-family="微软雅黑" font-weight="normal" font-style="normal" text-decoration="none" family="微软雅黑" text-anchor="middle" size="13">keyFunc</text></g></g><g id="ProcessOnG1192" transform="matrix(1.0,0.0,0.0,1.0,63.0,804.5)" opacity="1.0"><path id="ProcessOnPath1193" d="M0.0 0.0L104.0 0.0L104.0 20.0L0.0 20.0Z" stroke="none" stroke-width="0.0" stroke-dasharray="none" opacity="1.0" fill="none"/><g id="ProcessOnG1194" transform="matrix(1.0,0.0,0.0,1.0,0.0,1.875)"><text id="ProcessOnText1195" fill="#000000" font-size="13" x="0.0" y="13.325" font-family="微软雅黑" font-weight="normal" font-style="normal" text-decoration="none" family="微软雅黑" text-anchor="start" size="13">FIFO</text></g></g><g id="ProcessOnG1196" transform="matrix(1.0,0.0,0.0,1.0,63.0,856.5)" opacity="1.0"><path id="ProcessOnPath1197" d="M0.0 0.0L130.0 0.0L130.0 32.0L0.0 32.0Z" stroke="#323232" stroke-width="2.0" stroke-dasharray="none" opacity="1.0" fill="#ffffff"/><g id="ProcessOnG1198" transform="matrix(1.0,0.0,0.0,1.0,10.0,7.875)"><text id="ProcessOnText1199" fill="#000000" font-size="13" x="54.0" y="13.325" font-family="微软雅黑" font-weight="normal" font-style="normal" text-decoration="none" family="微软雅黑" text-anchor="middle" size="13">items</text></g></g><g id="ProcessOnG1200" transform="matrix(1.0,0.0,0.0,1.0,63.0,888.5)" opacity="1.0"><path id="ProcessOnPath1201" d="M0.0 0.0L130.0 0.0L130.0 32.0L0.0 32.0Z" stroke="#323232" stroke-width="2.0" stroke-dasharray="none" opacity="1.0" fill="#ffffff"/><g id="ProcessOnG1202" transform="matrix(1.0,0.0,0.0,1.0,10.0,7.875)"><text id="ProcessOnText1203" fill="#000000" font-size="13" x="54.0" y="13.325" font-family="微软雅黑" font-weight="normal" font-style="normal" text-decoration="none" family="微软雅黑" text-anchor="middle" size="13">queue</text></g></g><g id="ProcessOnG1204" transform="matrix(1.0,0.0,0.0,1.0,320.0,789.5)" opacity="1.0"><path id="ProcessOnPath1205" d="M0.0 0.0L96.0 0.0L96.0 32.0L0.0 32.0Z" stroke="#323232" stroke-width="2.0" stroke-dasharray="10.0 4.0 2.0 4.0" opacity="1.0" fill="#ffffff"/><g id="ProcessOnG1206" transform="matrix(1.0,0.0,0.0,1.0,10.0,7.875)"><text id="ProcessOnText1207" fill="#000000" font-size="13" x="37.0" y="13.325" font-family="微软雅黑" font-weight="normal" font-style="italic" text-decoration="none" family="微软雅黑" text-anchor="middle" size="13">key-1</text></g></g><g id="ProcessOnG1208" transform="matrix(1.0,0.0,0.0,1.0,320.0,821.5)" opacity="1.0"><path id="ProcessOnPath1209" d="M0.0 0.0L96.0 0.0L96.0 32.0L0.0 32.0Z" stroke="#323232" stroke-width="2.0" stroke-dasharray="10.0 4.0 2.0 4.0" opacity="1.0" fill="#ffffff"/><g id="ProcessOnG1210" transform="matrix(1.0,0.0,0.0,1.0,10.0,7.875)"><text id="ProcessOnText1211" fill="#000000" font-size="13" x="37.0" y="13.325" font-family="微软雅黑" font-weight="normal" font-style="italic" text-decoration="none" family="微软雅黑" text-anchor="middle" size="13">key-2</text></g></g><g id="ProcessOnG1212"><path id="ProcessOnPath1213" d="M193.0 872.5C250.43587728937376 872.5 262.56412271062624 805.5 320.0 805.5" stroke="#323232" stroke-width="1.0" stroke-dasharray="none" fill="none" marker-end="url(#ProcessOnMarker1214)"/></g><g id="ProcessOnG1216" transform="matrix(1.0,0.0,0.0,1.0,511.0,789.5)" opacity="1.0"><path id="ProcessOnPath1217" d="M0.0 0.0L116.0 0.0L116.0 32.0L0.0 32.0Z" stroke="#323232" stroke-width="2.0" stroke-dasharray="none" opacity="1.0" fill="#ffffff"/><g id="ProcessOnG1218" transform="matrix(1.0,0.0,0.0,1.0,10.0,7.875)"><text id="ProcessOnText1219" fill="#000000" font-size="13" x="47.0" y="13.325" font-family="微软雅黑" font-weight="normal" font-style="italic" text-decoration="none" family="微软雅黑" text-anchor="middle" size="13">interface{}</text></g></g><g id="ProcessOnG1220"><path id="ProcessOnPath1221" d="M416.0 805.5C454.0 805.5 473.0 805.5 511.0 805.5" stroke="#323232" stroke-width="1.0" stroke-dasharray="none" fill="none" marker-end="url(#ProcessOnMarker1222)"/></g><g id="ProcessOnG1224" transform="matrix(1.0,0.0,0.0,1.0,511.0,831.5)" opacity="1.0"><path id="ProcessOnPath1225" d="M0.0 0.0L116.0 0.0L116.0 32.0L0.0 32.0Z" stroke="#323232" stroke-width="2.0" stroke-dasharray="none" opacity="1.0" fill="#ffffff"/><g id="ProcessOnG1226" transform="matrix(1.0,0.0,0.0,1.0,10.0,7.875)"><text id="ProcessOnText1227" fill="#000000" font-size="13" x="47.0" y="13.325" font-family="微软雅黑" font-weight="normal" font-style="italic" text-decoration="none" family="微软雅黑" text-anchor="middle" size="13">interface{}</text></g></g><g id="ProcessOnG1228"><path id="ProcessOnPath1229" d="M416.0 837.5C454.2099463490856 837.5 472.7900536509144 847.5 511.0 847.5" stroke="#323232" stroke-width="1.0" stroke-dasharray="none" fill="none" marker-end="url(#ProcessOnMarker1230)"/></g><g id="ProcessOnG1232" transform="matrix(1.0,0.0,0.0,1.0,313.0,913.5)" opacity="1.0"><path id="ProcessOnPath1233" d="M0.0 0.0L96.0 0.0L96.0 32.0L0.0 32.0Z" stroke="#323232" stroke-width="2.0" stroke-dasharray="10.0 4.0 2.0 4.0" opacity="1.0" fill="#ffffff"/><g id="ProcessOnG1234" transform="matrix(1.0,0.0,0.0,1.0,10.0,7.875)"><text id="ProcessOnText1235" fill="#000000" font-size="13" x="37.0" y="13.325" font-family="微软雅黑" font-weight="normal" font-style="italic" text-decoration="none" family="微软雅黑" text-anchor="middle" size="13">key-1</text></g></g><g id="ProcessOnG1236" transform="matrix(1.0,0.0,0.0,1.0,409.0,913.5)" opacity="1.0"><path id="ProcessOnPath1237" d="M0.0 0.0L96.0 0.0L96.0 32.0L0.0 32.0Z" stroke="#323232" stroke-width="2.0" stroke-dasharray="10.0 4.0 2.0 4.0" opacity="1.0" fill="#ffffff"/><g id="ProcessOnG1238" transform="matrix(1.0,0.0,0.0,1.0,10.0,7.875)"><text id="ProcessOnText1239" fill="#000000" font-size="13" x="37.0" y="13.325" font-family="微软雅黑" font-weight="normal" font-style="italic" text-decoration="none" family="微软雅黑" text-anchor="middle" size="13">key-2</text></g></g><g id="ProcessOnG1240"><path id="ProcessOnPath1241" d="M193.0 904.5C242.03060268852505 904.5 263.96939731147495 929.5 313.0 929.5" stroke="#323232" stroke-width="1.0" stroke-dasharray="none" fill="none" marker-end="url(#ProcessOnMarker1242)"/><g id="ProcessOnG1244" transform="matrix(1.0,0.0,0.0,1.0,253.0,908.875)"><path id="ProcessOnPath1245" d="M0 0H26.0V16.25H0Z" fill="#fff" transform="matrix(1.0,0.0,0.0,1.0,-13.0,0.0)"/><text id="ProcessOnText1246" fill="#000000" font-size="13" x="0.0" y="13.325" font-family="微软雅黑" font-weight="normal" font-style="normal" text-decoration="none" family="微软雅黑" text-anchor="middle" size="13">slice</text></g></g><g id="ProcessOnG1247"><path id="ProcessOnPath1248" d="M128.0 824.5C128.00000000000003 727.4845373149208 368.0 692.4845373149208 368.0 789.5" stroke="#323232" stroke-width="1.0" stroke-dasharray="5.0 2.0" fill="none" marker-end="url(#ProcessOnMarker1249)"/><g id="ProcessOnG1251" transform="matrix(1.0,0.0,0.0,1.0,248.0,726.1134029861905)"><path id="ProcessOnPath1252" d="M0 0H49.0V16.25H0Z" fill="#fff" transform="matrix(1.0,0.0,0.0,1.0,-24.5,0.0)"/><text id="ProcessOnText1253" fill="#000000" font-size="13" x="0.0" y="13.325" font-family="微软雅黑" font-weight="normal" font-style="normal" text-decoration="none" family="微软雅黑" text-anchor="middle" size="13">calc key</text></g></g><g id="ProcessOnG1254"><path id="ProcessOnPath1255" d="M368.0 853.5C368.0 882.8748140118032 393.2984517333372 889.5758651402004 410.14715287270207 913.638304088578" stroke="#323232" stroke-width="1.0" stroke-dasharray="5.0 2.0" fill="none" marker-start="url(#ProcessOnMarker1256)" marker-end="url(#ProcessOnMarker1258)"/><g id="ProcessOnG1260" transform="matrix(1.0,0.0,0.0,1.0,382.7553135090892,877.4362926930737)"><path id="ProcessOnPath1261" d="M0 0H110.0V16.25H0Z" fill="#fff" transform="matrix(1.0,0.0,0.0,1.0,-55.0,0.0)"/><text id="ProcessOnText1262" fill="#000000" font-size="13" x="0.0" y="13.325" font-family="微软雅黑" font-weight="normal" font-style="normal" text-decoration="none" family="微软雅黑" text-anchor="middle" size="13">exactly same keys</text></g></g></g></g></svg>