<svg xmlns="http://www.w3.org/2000/svg" xmlns:xlink="http://www.w3.org/1999/xlink" id="processonSvg1000" viewBox="93.5 30.5 929.7142314907435 650.0" width="929.7142314907435" height="650.0"><defs id="ProcessOnDefs1001"><marker id="ProcessOnMarker1031" markerUnits="userSpaceOnUse" orient="auto" markerWidth="14.289086868996552" markerHeight="19.055054660878554" viewBox="-0.5877852522924731 -0.8090169943749475 14.289086868996552 19.055054660878554" refX="12.0" refY="8.71851033606433"><path id="ProcessOnPath1032" d="M0 0L12.0 8.71851033606433L0 17.43702067212866" stroke="#323232" stroke-width="2.0" fill="none" transform="matrix(1.0,0.0,0.0,1.0,0.0,0.0)"/></marker><marker id="ProcessOnMarker1047" markerUnits="userSpaceOnUse" orient="auto" markerWidth="14.289086868996552" markerHeight="19.055054660878554" viewBox="-0.5877852522924731 -0.8090169943749475 14.289086868996552 19.055054660878554" refX="12.0" refY="8.71851033606433"><path id="ProcessOnPath1048" d="M0 0L12.0 8.71851033606433L0 17.43702067212866" stroke="#323232" stroke-width="2.0" fill="none" transform="matrix(1.0,0.0,0.0,1.0,0.0,0.0)"/></marker><marker id="ProcessOnMarker1062" markerUnits="userSpaceOnUse" orient="auto" markerWidth="14.289086868996552" markerHeight="19.055054660878554" viewBox="-0.5877852522924731 -0.8090169943749475 14.289086868996552 19.055054660878554" refX="12.0" refY="8.71851033606433"><path id="ProcessOnPath1063" d="M0 0L12.0 8.71851033606433L0 17.43702067212866" stroke="#323232" stroke-width="2.0" fill="none" transform="matrix(1.0,0.0,0.0,1.0,0.0,0.0)"/></marker><marker id="ProcessOnMarker1079" markerUnits="userSpaceOnUse" orient="auto" markerWidth="14.289086868996552" markerHeight="19.055054660878554" viewBox="-0.5877852522924731 -0.8090169943749475 14.289086868996552 19.055054660878554" refX="12.0" refY="8.71851033606433"><path id="ProcessOnPath1080" d="M0 0L12.0 8.71851033606433L0 17.43702067212866" stroke="#323232" stroke-width="2.0" fill="none" transform="matrix(1.0,0.0,0.0,1.0,0.0,0.0)"/></marker><marker id="ProcessOnMarker1094" markerUnits="userSpaceOnUse" orient="auto" markerWidth="14.289086868996552" markerHeight="19.055054660878554" viewBox="-0.5877852522924731 -0.8090169943749475 14.289086868996552 19.055054660878554" refX="12.0" refY="8.71851033606433"><path id="ProcessOnPath1095" d="M0 0L12.0 8.71851033606433L0 17.43702067212866" stroke="#323232" stroke-width="2.0" fill="none" transform="matrix(1.0,0.0,0.0,1.0,0.0,0.0)"/></marker><marker id="ProcessOnMarker1108" markerUnits="userSpaceOnUse" orient="auto" markerWidth="14.289086868996552" markerHeight="19.055054660878554" viewBox="-0.5877852522924731 -0.8090169943749475 14.289086868996552 19.055054660878554" refX="12.0" refY="8.71851033606433"><path id="ProcessOnPath1109" d="M0 0L12.0 8.71851033606433L0 17.43702067212866" stroke="#323232" stroke-width="2.0" fill="none" transform="matrix(1.0,0.0,0.0,1.0,0.0,0.0)"/></marker><marker id="ProcessOnMarker1123" markerUnits="userSpaceOnUse" orient="auto" markerWidth="14.289086868996552" markerHeight="19.055054660878554" viewBox="-0.5877852522924731 -0.8090169943749475 14.289086868996552 19.055054660878554" refX="12.0" refY="8.71851033606433"><path id="ProcessOnPath1124" d="M0 0L12.0 8.71851033606433L0 17.43702067212866" stroke="#323232" stroke-width="2.0" fill="none" transform="matrix(1.0,0.0,0.0,1.0,0.0,0.0)"/></marker><marker id="ProcessOnMarker1142" markerUnits="userSpaceOnUse" orient="auto" markerWidth="14.289086868996552" markerHeight="19.055054660878554" viewBox="-0.5877852522924731 -0.8090169943749475 14.289086868996552 19.055054660878554" refX="12.0" refY="8.71851033606433"><path id="ProcessOnPath1143" d="M0 0L12.0 8.71851033606433L0 17.43702067212866" stroke="#323232" stroke-width="2.0" fill="none" transform="matrix(1.0,0.0,0.0,1.0,0.0,0.0)"/></marker><marker id="ProcessOnMarker1146" markerUnits="userSpaceOnUse" orient="auto" markerWidth="14.289086868996552" markerHeight="19.055054660878554" viewBox="-0.5877852522924731 -0.8090169943749475 14.289086868996552 19.055054660878554" refX="12.0" refY="8.71851033606433"><path id="ProcessOnPath1147" d="M0 0L12.0 8.71851033606433L0 17.43702067212866" stroke="#323232" stroke-width="2.0" fill="none" transform="matrix(1.0,0.0,0.0,1.0,0.0,0.0)"/></marker><marker id="ProcessOnMarker1150" markerUnits="userSpaceOnUse" orient="auto" markerWidth="14.289086868996552" markerHeight="19.055054660878554" viewBox="-0.5877852522924731 -0.8090169943749475 14.289086868996552 19.055054660878554" refX="12.0" refY="8.71851033606433"><path id="ProcessOnPath1151" d="M0 0L12.0 8.71851033606433L0 17.43702067212866" stroke="#323232" stroke-width="2.0" fill="none" transform="matrix(1.0,0.0,0.0,1.0,0.0,0.0)"/></marker><marker id="ProcessOnMarker1181" markerUnits="userSpaceOnUse" orient="auto" markerWidth="14.289086868996552" markerHeight="19.055054660878554" viewBox="-0.5877852522924731 -0.8090169943749475 14.289086868996552 19.055054660878554" refX="12.0" refY="8.71851033606433"><path id="ProcessOnPath1182" d="M0 0L12.0 8.71851033606433L0 17.43702067212866" stroke="#323232" stroke-width="2.0" fill="none" transform="matrix(1.0,0.0,0.0,1.0,0.0,0.0)"/></marker><marker id="ProcessOnMarker1185" markerUnits="userSpaceOnUse" orient="auto" markerWidth="14.289086868996552" markerHeight="19.055054660878554" viewBox="-0.5877852522924731 -0.8090169943749475 14.289086868996552 19.055054660878554" refX="12.0" refY="8.71851033606433"><path id="ProcessOnPath1186" d="M0 0L12.0 8.71851033606433L0 17.43702067212866" stroke="#323232" stroke-width="2.0" fill="none" transform="matrix(1.0,0.0,0.0,1.0,0.0,0.0)"/></marker><marker id="ProcessOnMarker1189" markerUnits="userSpaceOnUse" orient="auto" markerWidth="14.289086868996552" markerHeight="19.055054660878554" viewBox="-0.5877852522924731 -0.8090169943749475 14.289086868996552 19.055054660878554" refX="12.0" refY="8.71851033606433"><path id="ProcessOnPath1190" d="M0 0L12.0 8.71851033606433L0 17.43702067212866" stroke="#323232" stroke-width="2.0" fill="none" transform="matrix(1.0,0.0,0.0,1.0,0.0,0.0)"/></marker><marker id="ProcessOnMarker1196" markerUnits="userSpaceOnUse" orient="auto" markerWidth="14.289086868996552" markerHeight="19.055054660878554" viewBox="-0.5877852522924731 -0.8090169943749475 14.289086868996552 19.055054660878554" refX="12.0" refY="8.71851033606433"><path id="ProcessOnPath1197" d="M0 0L12.0 8.71851033606433L0 17.43702067212866" stroke="#323232" stroke-width="2.0" fill="none" transform="matrix(1.0,0.0,0.0,1.0,0.0,0.0)"/></marker><marker id="ProcessOnMarker1211" markerUnits="userSpaceOnUse" orient="auto" markerWidth="14.289086868996552" markerHeight="19.055054660878554" viewBox="-0.5877852522924731 -0.8090169943749475 14.289086868996552 19.055054660878554" refX="12.0" refY="8.71851033606433"><path id="ProcessOnPath1212" d="M0 0L12.0 8.71851033606433L0 17.43702067212866" stroke="#323232" stroke-width="2.0" fill="none" transform="matrix(1.0,0.0,0.0,1.0,0.0,0.0)"/></marker></defs><g id="ProcessOnG1002"><path id="ProcessOnPath1003" d="M93.5 30.5H1023.2142314907435V680.5H93.5V30.5Z" fill="none"/><g id="ProcessOnG1004"><g id="ProcessOnG1005" transform="matrix(1.0,0.0,0.0,1.0,113.5,301.5)" opacity="1.0"><path id="ProcessOnPath1006" d="M0.0 0.0L132.0 0.0L132.0 32.0L0.0 32.0Z" stroke="#323232" stroke-width="2.0" stroke-dasharray="none" opacity="1.0" fill="#ffffff"/><g id="ProcessOnG1007" transform="matrix(1.0,0.0,0.0,1.0,10.0,7.875)"><text id="ProcessOnText1008" fill="#000000" font-size="13" x="55.0" y="13.325" font-family="微软雅黑" font-weight="normal" font-style="normal" text-decoration="none" family="微软雅黑" text-anchor="middle" size="13">Dispenser</text></g></g><g id="ProcessOnG1009" transform="matrix(1.0,0.0,0.0,1.0,113.5,281.5)" opacity="1.0"><path id="ProcessOnPath1010" d="M0.0 0.0L132.0 0.0L132.0 20.0L0.0 20.0Z" stroke="none" stroke-width="0.0" stroke-dasharray="none" opacity="1.0" fill="none"/><g id="ProcessOnG1011" transform="matrix(1.0,0.0,0.0,1.0,0.0,1.875)"><text id="ProcessOnText1012" fill="#000000" font-size="13" x="0.0" y="13.325" font-family="微软雅黑" font-weight="normal" font-style="normal" text-decoration="none" family="微软雅黑" text-anchor="start" size="13">parser</text></g></g><g id="ProcessOnG1013" transform="matrix(1.0,0.0,0.0,1.0,113.5,333.5)" opacity="1.0"><path id="ProcessOnPath1014" d="M0.0 0.0L132.0 0.0L132.0 32.0L0.0 32.0Z" stroke="#323232" stroke-width="2.0" stroke-dasharray="none" opacity="1.0" fill="#ffffff"/><g id="ProcessOnG1015" transform="matrix(1.0,0.0,0.0,1.0,10.0,7.875)"><text id="ProcessOnText1016" fill="#000000" font-size="13" x="55.0" y="13.325" font-family="微软雅黑" font-weight="normal" font-style="normal" text-decoration="none" family="微软雅黑" text-anchor="middle" size="13">block</text></g></g><g id="ProcessOnG1017" transform="matrix(1.0,0.0,0.0,1.0,113.5,365.5)" opacity="1.0"><path id="ProcessOnPath1018" d="M0.0 0.0L132.0 0.0L132.0 32.0L0.0 32.0Z" stroke="#323232" stroke-width="2.0" stroke-dasharray="none" opacity="1.0" fill="#ffffff"/><g id="ProcessOnG1019" transform="matrix(1.0,0.0,0.0,1.0,10.0,7.875)"><text id="ProcessOnText1020" fill="#000000" font-size="13" x="55.0" y="13.325" font-family="微软雅黑" font-weight="normal" font-style="normal" text-decoration="none" family="微软雅黑" text-anchor="middle" size="13">validDirectives</text></g></g><g id="ProcessOnG1021" transform="matrix(1.0,0.0,0.0,1.0,378.5,110.5)" opacity="1.0"><path id="ProcessOnPath1022" d="M0.0 0.0L132.0 0.0L132.0 32.0L0.0 32.0Z" stroke="#323232" stroke-width="2.0" stroke-dasharray="none" opacity="1.0" fill="#ffffff"/><g id="ProcessOnG1023" transform="matrix(1.0,0.0,0.0,1.0,10.0,7.875)"><text id="ProcessOnText1024" fill="#000000" font-size="13" x="55.0" y="13.325" font-family="微软雅黑" font-weight="normal" font-style="normal" text-decoration="none" family="微软雅黑" text-anchor="middle" size="13">filename</text></g></g><g id="ProcessOnG1025" transform="matrix(1.0,0.0,0.0,1.0,378.5,90.5)" opacity="1.0"><path id="ProcessOnPath1026" d="M0.0 0.0L132.0 0.0L132.0 20.0L0.0 20.0Z" stroke="none" stroke-width="0.0" stroke-dasharray="none" opacity="1.0" fill="none"/><g id="ProcessOnG1027" transform="matrix(1.0,0.0,0.0,1.0,0.0,1.875)"><text id="ProcessOnText1028" fill="#000000" font-size="13" x="0.0" y="13.325" font-family="微软雅黑" font-weight="normal" font-style="normal" text-decoration="none" family="微软雅黑" text-anchor="start" size="13">Dispenser</text></g></g><g id="ProcessOnG1029"><path id="ProcessOnPath1030" d="M245.5 317.5C343.3943102239308 317.5 298.44797974438427 55.99728327541605 378.63830408857797 112.1471528727021" stroke="#323232" stroke-width="2.0" stroke-dasharray="none" fill="none" marker-end="url(#ProcessOnMarker1031)"/></g><g id="ProcessOnG1033" transform="matrix(1.0,0.0,0.0,1.0,378.5,142.5)" opacity="1.0"><path id="ProcessOnPath1034" d="M0.0 0.0L132.0 0.0L132.0 32.0L0.0 32.0Z" stroke="#323232" stroke-width="2.0" stroke-dasharray="none" opacity="1.0" fill="#ffffff"/><g id="ProcessOnG1035" transform="matrix(1.0,0.0,0.0,1.0,10.0,7.875)"><text id="ProcessOnText1036" fill="#000000" font-size="13" x="55.0" y="13.325" font-family="微软雅黑" font-weight="normal" font-style="normal" text-decoration="none" family="微软雅黑" text-anchor="middle" size="13">tokens</text></g></g><g id="ProcessOnG1037" transform="matrix(1.0,0.0,0.0,1.0,378.5,174.5)" opacity="1.0"><path id="ProcessOnPath1038" d="M0.0 0.0L132.0 0.0L132.0 32.0L0.0 32.0Z" stroke="#323232" stroke-width="2.0" stroke-dasharray="none" opacity="1.0" fill="#ffffff"/><g id="ProcessOnG1039" transform="matrix(1.0,0.0,0.0,1.0,10.0,7.875)"><text id="ProcessOnText1040" fill="#000000" font-size="13" x="55.0" y="13.325" font-family="微软雅黑" font-weight="normal" font-style="normal" text-decoration="none" family="微软雅黑" text-anchor="middle" size="13">cursor</text></g></g><g id="ProcessOnG1041" transform="matrix(1.0,0.0,0.0,1.0,650.0,142.5)" opacity="1.0"><path id="ProcessOnPath1042" d="M0.0 4.0Q0.0 0.0 4.0 0.0L37.5 0.0Q41.5 0.0 41.5 4.0L41.5 28.0Q41.5 32.0 37.5 32.0L4.0 32.0Q0.0 32.0 0.0 28.0Z" stroke="#323232" stroke-width="2.0" stroke-dasharray="none" opacity="1.0" fill="#ffffff"/></g><g id="ProcessOnG1043" transform="matrix(1.0,0.0,0.0,1.0,691.5,142.5)" opacity="1.0"><path id="ProcessOnPath1044" d="M0.0 4.0Q0.0 0.0 4.0 0.0L37.5 0.0Q41.5 0.0 41.5 4.0L41.5 28.0Q41.5 32.0 37.5 32.0L4.0 32.0Q0.0 32.0 0.0 28.0Z" stroke="#323232" stroke-width="2.0" stroke-dasharray="none" opacity="1.0" fill="#ffffff"/></g><g id="ProcessOnG1045"><path id="ProcessOnPath1046" d="M510.5 158.5C566.8092074875543 158.5 604.5125016628549 112.84951830823906 650.638304088578 145.1471528727021" stroke="#323232" stroke-width="2.0" stroke-dasharray="none" fill="none" marker-end="url(#ProcessOnMarker1047)"/><g id="ProcessOnG1049" transform="matrix(1.0,0.0,0.0,1.0,584.3879289424757,131.5869634746774)"><path id="ProcessOnPath1050" d="M0 0H26.0V16.25H0Z" fill="#fff" transform="matrix(1.0,0.0,0.0,1.0,-13.0,0.0)"/><text id="ProcessOnText1051" fill="#000000" font-size="13" x="0.0" y="13.325" font-family="微软雅黑" font-weight="normal" font-style="normal" text-decoration="none" family="微软雅黑" text-anchor="middle" size="13">slice</text></g></g><g id="ProcessOnG1052" transform="matrix(1.0,0.0,0.0,1.0,812.5,232.5)" opacity="1.0"><path id="ProcessOnPath1053" d="M0.0 0.0L132.0 0.0L132.0 32.0L0.0 32.0Z" stroke="#323232" stroke-width="2.0" stroke-dasharray="none" opacity="1.0" fill="#ffffff"/><g id="ProcessOnG1054" transform="matrix(1.0,0.0,0.0,1.0,10.0,7.875)"><text id="ProcessOnText1055" fill="#000000" font-size="13" x="55.0" y="13.325" font-family="微软雅黑" font-weight="normal" font-style="normal" text-decoration="none" family="微软雅黑" text-anchor="middle" size="13">File</text></g></g><g id="ProcessOnG1056" transform="matrix(1.0,0.0,0.0,1.0,812.5,212.5)" opacity="1.0"><path id="ProcessOnPath1057" d="M0.0 0.0L132.0 0.0L132.0 20.0L0.0 20.0Z" stroke="none" stroke-width="0.0" stroke-dasharray="none" opacity="1.0" fill="none"/><g id="ProcessOnG1058" transform="matrix(1.0,0.0,0.0,1.0,0.0,1.875)"><text id="ProcessOnText1059" fill="#000000" font-size="13" x="0.0" y="13.325" font-family="微软雅黑" font-weight="normal" font-style="normal" text-decoration="none" family="微软雅黑" text-anchor="start" size="13">Token</text></g></g><g id="ProcessOnG1060"><path id="ProcessOnPath1061" d="M670.75 174.5C670.75 236.0870792360745 769.5726789822581 189.5726789822582 813.1213203435597 233.12132034355966" stroke="#323232" stroke-width="2.0" stroke-dasharray="10.0 4.0" fill="none" marker-end="url(#ProcessOnMarker1062)"/><g id="ProcessOnG1064" transform="matrix(1.0,0.0,0.0,1.0,725.6049196612918,202.45007437481974)"><path id="ProcessOnPath1065" d="M0 0H44.0V16.25H0Z" fill="#fff" transform="matrix(1.0,0.0,0.0,1.0,-22.0,0.0)"/><text id="ProcessOnText1066" fill="#000000" font-size="13" x="0.0" y="13.325" font-family="微软雅黑" font-weight="normal" font-style="normal" text-decoration="none" family="微软雅黑" text-anchor="middle" size="13">type of</text></g></g><g id="ProcessOnG1067" transform="matrix(1.0,0.0,0.0,1.0,812.5,264.5)" opacity="1.0"><path id="ProcessOnPath1068" d="M0.0 0.0L132.0 0.0L132.0 32.0L0.0 32.0Z" stroke="#323232" stroke-width="2.0" stroke-dasharray="none" opacity="1.0" fill="#ffffff"/><g id="ProcessOnG1069" transform="matrix(1.0,0.0,0.0,1.0,10.0,7.875)"><text id="ProcessOnText1070" fill="#000000" font-size="13" x="55.0" y="13.325" font-family="微软雅黑" font-weight="normal" font-style="normal" text-decoration="none" family="微软雅黑" text-anchor="middle" size="13">Line</text></g></g><g id="ProcessOnG1071" transform="matrix(1.0,0.0,0.0,1.0,812.5,296.5)" opacity="1.0"><path id="ProcessOnPath1072" d="M0.0 0.0L132.0 0.0L132.0 32.0L0.0 32.0Z" stroke="#323232" stroke-width="2.0" stroke-dasharray="none" opacity="1.0" fill="#ffffff"/><g id="ProcessOnG1073" transform="matrix(1.0,0.0,0.0,1.0,10.0,7.875)"><text id="ProcessOnText1074" fill="#000000" font-size="13" x="55.0" y="13.325" font-family="微软雅黑" font-weight="normal" font-style="normal" text-decoration="none" family="微软雅黑" text-anchor="middle" size="13">Text</text></g></g><g id="ProcessOnG1075" transform="matrix(1.0,0.0,0.0,1.0,733.0,142.5)" opacity="1.0"><path id="ProcessOnPath1076" d="M0.0 4.0Q0.0 0.0 4.0 0.0L37.5 0.0Q41.5 0.0 41.5 4.0L41.5 28.0Q41.5 32.0 37.5 32.0L4.0 32.0Q0.0 32.0 0.0 28.0Z" stroke="#323232" stroke-width="2.0" stroke-dasharray="none" opacity="1.0" fill="#ffffff"/></g><g id="ProcessOnG1077"><path id="ProcessOnPath1078" d="M510.0 199.0C567.3048954758087 198.99999999999997 600.9705809680911 200.15244773790434 650.5980762113534 171.5" stroke="#323232" stroke-width="2.0" stroke-dasharray="10.0 4.0" fill="none" marker-end="url(#ProcessOnMarker1079)"/><g id="ProcessOnG1081" transform="matrix(1.0,0.0,0.0,1.0,583.1780631928816,187.8696679017141)"><path id="ProcessOnPath1082" d="M0 0H45.0V16.25H0Z" fill="#fff" transform="matrix(1.0,0.0,0.0,1.0,-22.5,0.0)"/><text id="ProcessOnText1083" fill="#000000" font-size="13" x="0.0" y="13.325" font-family="微软雅黑" font-weight="normal" font-style="normal" text-decoration="none" family="微软雅黑" text-anchor="middle" size="13">iterates</text></g></g><g id="ProcessOnG1084" transform="matrix(1.0,0.0,0.0,1.0,378.5,362.5)" opacity="1.0"><path id="ProcessOnPath1085" d="M0.0 0.0L132.0 0.0L132.0 32.0L0.0 32.0Z" stroke="#323232" stroke-width="2.0" stroke-dasharray="none" opacity="1.0" fill="#ffffff"/><g id="ProcessOnG1086" transform="matrix(1.0,0.0,0.0,1.0,10.0,7.875)"><text id="ProcessOnText1087" fill="#000000" font-size="13" x="55.0" y="13.325" font-family="微软雅黑" font-weight="normal" font-style="normal" text-decoration="none" family="微软雅黑" text-anchor="middle" size="13">Keys</text></g></g><g id="ProcessOnG1088" transform="matrix(1.0,0.0,0.0,1.0,378.5,342.5)" opacity="1.0"><path id="ProcessOnPath1089" d="M0.0 0.0L132.0 0.0L132.0 20.0L0.0 20.0Z" stroke="none" stroke-width="0.0" stroke-dasharray="none" opacity="1.0" fill="none"/><g id="ProcessOnG1090" transform="matrix(1.0,0.0,0.0,1.0,0.0,1.875)"><text id="ProcessOnText1091" fill="#000000" font-size="13" x="0.0" y="13.325" font-family="微软雅黑" font-weight="normal" font-style="normal" text-decoration="none" family="微软雅黑" text-anchor="start" size="13">ServerBlock</text></g></g><g id="ProcessOnG1092"><path id="ProcessOnPath1093" d="M245.5 349.5C299.15654194339976 349.5 334.96204624332 332.66533050329065 378.91491226573396 363.44145861810625" stroke="#323232" stroke-width="2.0" stroke-dasharray="none" fill="none" marker-end="url(#ProcessOnMarker1094)"/></g><g id="ProcessOnG1096" transform="matrix(1.0,0.0,0.0,1.0,378.5,394.5)" opacity="1.0"><path id="ProcessOnPath1097" d="M0.0 0.0L132.0 0.0L132.0 32.0L0.0 32.0Z" stroke="#323232" stroke-width="2.0" stroke-dasharray="none" opacity="1.0" fill="#ffffff"/><g id="ProcessOnG1098" transform="matrix(1.0,0.0,0.0,1.0,10.0,7.875)"><text id="ProcessOnText1099" fill="#000000" font-size="13" x="55.0" y="13.325" font-family="微软雅黑" font-weight="normal" font-style="normal" text-decoration="none" family="微软雅黑" text-anchor="middle" size="13">Tokens</text></g></g><g id="ProcessOnG1100" transform="matrix(1.0,0.0,0.0,1.0,635.0,303.5)" opacity="1.0"><path id="ProcessOnPath1101" d="M0.0 4.0Q0.0 0.0 4.0 0.0L37.5 0.0Q41.5 0.0 41.5 4.0L41.5 28.0Q41.5 32.0 37.5 32.0L4.0 32.0Q0.0 32.0 0.0 28.0Z" stroke="#323232" stroke-width="2.0" stroke-dasharray="none" opacity="1.0" fill="#ffffff"/></g><g id="ProcessOnG1102" transform="matrix(1.0,0.0,0.0,1.0,676.5,303.5)" opacity="1.0"><path id="ProcessOnPath1103" d="M0.0 4.0Q0.0 0.0 4.0 0.0L37.5 0.0Q41.5 0.0 41.5 4.0L41.5 28.0Q41.5 32.0 37.5 32.0L4.0 32.0Q0.0 32.0 0.0 28.0Z" stroke="#323232" stroke-width="2.0" stroke-dasharray="none" opacity="1.0" fill="#ffffff"/></g><g id="ProcessOnG1104" transform="matrix(1.0,0.0,0.0,1.0,718.0,303.5)" opacity="1.0"><path id="ProcessOnPath1105" d="M0.0 4.0Q0.0 0.0 4.0 0.0L37.5 0.0Q41.5 0.0 41.5 4.0L41.5 28.0Q41.5 32.0 37.5 32.0L4.0 32.0Q0.0 32.0 0.0 28.0Z" stroke="#323232" stroke-width="2.0" stroke-dasharray="none" opacity="1.0" fill="#ffffff"/></g><g id="ProcessOnG1106"><path id="ProcessOnPath1107" d="M510.5 378.5C568.0435101104383 378.5 583.6604842675608 283.52629830614956 635.8126155740733 307.8452365234814" stroke="#323232" stroke-width="2.0" stroke-dasharray="none" fill="none" marker-end="url(#ProcessOnMarker1108)"/><g id="ProcessOnG1110" transform="matrix(1.0,0.0,0.0,1.0,575.1780748385088,325.9280164302413)"><path id="ProcessOnPath1111" d="M0 0H65.0V16.25H0Z" fill="#fff" transform="matrix(1.0,0.0,0.0,1.0,-32.5,0.0)"/><text id="ProcessOnText1112" fill="#000000" font-size="13" x="0.0" y="13.325" font-family="微软雅黑" font-weight="normal" font-style="normal" text-decoration="none" family="微软雅黑" text-anchor="middle" size="13">string slice</text></g></g><g id="ProcessOnG1113" transform="matrix(1.0,0.0,0.0,1.0,595.5,426.5)" opacity="1.0"><path id="ProcessOnPath1114" d="M0.0 4.0Q0.0 0.0 4.0 0.0L100.0 0.0Q104.0 0.0 104.0 4.0L104.0 28.0Q104.0 32.0 100.0 32.0L4.0 32.0Q0.0 32.0 0.0 28.0Z" stroke="#323232" stroke-width="2.0" stroke-dasharray="none" opacity="1.0" fill="#ffffff"/><g id="ProcessOnG1115" transform="matrix(1.0,0.0,0.0,1.0,10.0,7.875)"><text id="ProcessOnText1116" fill="#000000" font-size="13" x="41.0" y="13.325" font-family="微软雅黑" font-weight="bold" font-style="italic" text-decoration="none" family="微软雅黑" text-anchor="middle" size="13">string</text></g></g><g id="ProcessOnG1117" transform="matrix(1.0,0.0,0.0,1.0,595.5,458.5)" opacity="1.0"><path id="ProcessOnPath1118" d="M0.0 4.0Q0.0 0.0 4.0 0.0L100.0 0.0Q104.0 0.0 104.0 4.0L104.0 28.0Q104.0 32.0 100.0 32.0L4.0 32.0Q0.0 32.0 0.0 28.0Z" stroke="#323232" stroke-width="2.0" stroke-dasharray="none" opacity="1.0" fill="#ffffff"/><g id="ProcessOnG1119" transform="matrix(1.0,0.0,0.0,1.0,10.0,7.875)"><text id="ProcessOnText1120" fill="#000000" font-size="13" x="41.0" y="13.325" font-family="微软雅黑" font-weight="bold" font-style="italic" text-decoration="none" family="微软雅黑" text-anchor="middle" size="13">string</text></g></g><g id="ProcessOnG1121"><path id="ProcessOnPath1122" d="M510.5 410.5C546.0415496335232 410.5 577.3349339278631 398.34352309336776 597.7207293090531 427.457456132867" stroke="#323232" stroke-width="2.0" stroke-dasharray="none" fill="none" marker-end="url(#ProcessOnMarker1123)"/><g id="ProcessOnG1125" transform="matrix(1.0,0.0,0.0,1.0,559.7937724991515,399.9360031766212)"><path id="ProcessOnPath1126" d="M0 0H27.0V16.25H0Z" fill="#fff" transform="matrix(1.0,0.0,0.0,1.0,-13.5,0.0)"/><text id="ProcessOnText1127" fill="#000000" font-size="13" x="0.0" y="13.325" font-family="微软雅黑" font-weight="normal" font-style="normal" text-decoration="none" family="微软雅黑" text-anchor="middle" size="13">map</text></g></g><g id="ProcessOnG1128" transform="matrix(1.0,0.0,0.0,1.0,816.25,416.5)" opacity="1.0"><path id="ProcessOnPath1129" d="M0.0 4.0Q0.0 0.0 4.0 0.0L37.5 0.0Q41.5 0.0 41.5 4.0L41.5 28.0Q41.5 32.0 37.5 32.0L4.0 32.0Q0.0 32.0 0.0 28.0Z" stroke="#323232" stroke-width="2.0" stroke-dasharray="none" opacity="1.0" fill="#ffffff"/></g><g id="ProcessOnG1130" transform="matrix(1.0,0.0,0.0,1.0,857.75,416.5)" opacity="1.0"><path id="ProcessOnPath1131" d="M0.0 4.0Q0.0 0.0 4.0 0.0L37.5 0.0Q41.5 0.0 41.5 4.0L41.5 28.0Q41.5 32.0 37.5 32.0L4.0 32.0Q0.0 32.0 0.0 28.0Z" stroke="#323232" stroke-width="2.0" stroke-dasharray="none" opacity="1.0" fill="#ffffff"/></g><g id="ProcessOnG1132" transform="matrix(1.0,0.0,0.0,1.0,899.25,416.5)" opacity="1.0"><path id="ProcessOnPath1133" d="M0.0 4.0Q0.0 0.0 4.0 0.0L37.5 0.0Q41.5 0.0 41.5 4.0L41.5 28.0Q41.5 32.0 37.5 32.0L4.0 32.0Q0.0 32.0 0.0 28.0Z" stroke="#323232" stroke-width="2.0" stroke-dasharray="none" opacity="1.0" fill="#ffffff"/></g><g id="ProcessOnG1134" transform="matrix(1.0,0.0,0.0,1.0,816.25,495.5)" opacity="1.0"><path id="ProcessOnPath1135" d="M0.0 4.0Q0.0 0.0 4.0 0.0L37.5 0.0Q41.5 0.0 41.5 4.0L41.5 28.0Q41.5 32.0 37.5 32.0L4.0 32.0Q0.0 32.0 0.0 28.0Z" stroke="#323232" stroke-width="2.0" stroke-dasharray="none" opacity="1.0" fill="#ffffff"/></g><g id="ProcessOnG1136" transform="matrix(1.0,0.0,0.0,1.0,857.75,495.5)" opacity="1.0"><path id="ProcessOnPath1137" d="M0.0 4.0Q0.0 0.0 4.0 0.0L37.5 0.0Q41.5 0.0 41.5 4.0L41.5 28.0Q41.5 32.0 37.5 32.0L4.0 32.0Q0.0 32.0 0.0 28.0Z" stroke="#323232" stroke-width="2.0" stroke-dasharray="none" opacity="1.0" fill="#ffffff"/></g><g id="ProcessOnG1138" transform="matrix(1.0,0.0,0.0,1.0,899.25,495.5)" opacity="1.0"><path id="ProcessOnPath1139" d="M0.0 4.0Q0.0 0.0 4.0 0.0L37.5 0.0Q41.5 0.0 41.5 4.0L41.5 28.0Q41.5 32.0 37.5 32.0L4.0 32.0Q0.0 32.0 0.0 28.0Z" stroke="#323232" stroke-width="2.0" stroke-dasharray="none" opacity="1.0" fill="#ffffff"/></g><g id="ProcessOnG1140"><path id="ProcessOnPath1141" d="M699.5 442.5C747.586170846613 442.5 783.2405832001845 384.2405832001844 817.2426406871193 418.24264068711926" stroke="#323232" stroke-width="2.0" stroke-dasharray="none" fill="none" marker-end="url(#ProcessOnMarker1142)"/></g><g id="ProcessOnG1144"><path id="ProcessOnPath1145" d="M699.5 474.5C747.4467048905242 474.5 771.7036057065185 482.9693416946521 816.7587704831436 499.3680805733027" stroke="#323232" stroke-width="2.0" stroke-dasharray="none" fill="none" marker-end="url(#ProcessOnMarker1146)"/></g><g id="ProcessOnG1148"><path id="ProcessOnPath1149" d="M837.0 416.5C837.0 379.9240516185841 860.0 364.5759483814159 860.0 328.0" stroke="#323232" stroke-width="2.0" stroke-dasharray="10.0 4.0" fill="none" marker-end="url(#ProcessOnMarker1150)"/><g id="ProcessOnG1152" transform="matrix(1.0,0.0,0.0,1.0,848.5,364.125)"><path id="ProcessOnPath1153" d="M0 0H44.0V16.25H0Z" fill="#fff" transform="matrix(1.0,0.0,0.0,1.0,-22.0,0.0)"/><text id="ProcessOnText1154" fill="#000000" font-size="13" x="0.0" y="13.325" font-family="微软雅黑" font-weight="normal" font-style="normal" text-decoration="none" family="微软雅黑" text-anchor="middle" size="13">type of</text></g></g><g id="ProcessOnG1155" transform="matrix(1.0,0.0,0.0,1.0,113.5,397.5)" opacity="1.0"><path id="ProcessOnPath1156" d="M0.0 0.0L132.0 0.0L132.0 32.0L0.0 32.0Z" stroke="#323232" stroke-width="2.0" stroke-dasharray="none" opacity="1.0" fill="#ffffff"/><g id="ProcessOnG1157" transform="matrix(1.0,0.0,0.0,1.0,10.0,7.875)"><text id="ProcessOnText1158" fill="#000000" font-size="13" x="55.0" y="13.325" font-family="微软雅黑" font-weight="normal" font-style="normal" text-decoration="none" family="微软雅黑" text-anchor="middle" size="13">definedSnippets</text></g></g><g id="ProcessOnG1159" transform="matrix(1.0,0.0,0.0,1.0,378.5,559.5)" opacity="1.0"><path id="ProcessOnPath1160" d="M0.0 4.0Q0.0 0.0 4.0 0.0L100.0 0.0Q104.0 0.0 104.0 4.0L104.0 28.0Q104.0 32.0 100.0 32.0L4.0 32.0Q0.0 32.0 0.0 28.0Z" stroke="#323232" stroke-width="2.0" stroke-dasharray="none" opacity="1.0" fill="#ffffff"/><g id="ProcessOnG1161" transform="matrix(1.0,0.0,0.0,1.0,10.0,7.875)"><text id="ProcessOnText1162" fill="#000000" font-size="13" x="41.0" y="13.325" font-family="微软雅黑" font-weight="bold" font-style="italic" text-decoration="none" family="微软雅黑" text-anchor="middle" size="13">string</text></g></g><g id="ProcessOnG1163" transform="matrix(1.0,0.0,0.0,1.0,378.5,591.5)" opacity="1.0"><path id="ProcessOnPath1164" d="M0.0 4.0Q0.0 0.0 4.0 0.0L100.0 0.0Q104.0 0.0 104.0 4.0L104.0 28.0Q104.0 32.0 100.0 32.0L4.0 32.0Q0.0 32.0 0.0 28.0Z" stroke="#323232" stroke-width="2.0" stroke-dasharray="none" opacity="1.0" fill="#ffffff"/><g id="ProcessOnG1165" transform="matrix(1.0,0.0,0.0,1.0,10.0,7.875)"><text id="ProcessOnText1166" fill="#000000" font-size="13" x="41.0" y="13.325" font-family="微软雅黑" font-weight="bold" font-style="italic" text-decoration="none" family="微软雅黑" text-anchor="middle" size="13">string</text></g></g><g id="ProcessOnG1167" transform="matrix(1.0,0.0,0.0,1.0,599.25,549.5)" opacity="1.0"><path id="ProcessOnPath1168" d="M0.0 4.0Q0.0 0.0 4.0 0.0L37.5 0.0Q41.5 0.0 41.5 4.0L41.5 28.0Q41.5 32.0 37.5 32.0L4.0 32.0Q0.0 32.0 0.0 28.0Z" stroke="#323232" stroke-width="2.0" stroke-dasharray="none" opacity="1.0" fill="#ffffff"/></g><g id="ProcessOnG1169" transform="matrix(1.0,0.0,0.0,1.0,640.75,549.5)" opacity="1.0"><path id="ProcessOnPath1170" d="M0.0 4.0Q0.0 0.0 4.0 0.0L37.5 0.0Q41.5 0.0 41.5 4.0L41.5 28.0Q41.5 32.0 37.5 32.0L4.0 32.0Q0.0 32.0 0.0 28.0Z" stroke="#323232" stroke-width="2.0" stroke-dasharray="none" opacity="1.0" fill="#ffffff"/></g><g id="ProcessOnG1171" transform="matrix(1.0,0.0,0.0,1.0,682.25,549.5)" opacity="1.0"><path id="ProcessOnPath1172" d="M0.0 4.0Q0.0 0.0 4.0 0.0L37.5 0.0Q41.5 0.0 41.5 4.0L41.5 28.0Q41.5 32.0 37.5 32.0L4.0 32.0Q0.0 32.0 0.0 28.0Z" stroke="#323232" stroke-width="2.0" stroke-dasharray="none" opacity="1.0" fill="#ffffff"/></g><g id="ProcessOnG1173" transform="matrix(1.0,0.0,0.0,1.0,599.25,628.5)" opacity="1.0"><path id="ProcessOnPath1174" d="M0.0 4.0Q0.0 0.0 4.0 0.0L37.5 0.0Q41.5 0.0 41.5 4.0L41.5 28.0Q41.5 32.0 37.5 32.0L4.0 32.0Q0.0 32.0 0.0 28.0Z" stroke="#323232" stroke-width="2.0" stroke-dasharray="none" opacity="1.0" fill="#ffffff"/></g><g id="ProcessOnG1175" transform="matrix(1.0,0.0,0.0,1.0,640.75,628.5)" opacity="1.0"><path id="ProcessOnPath1176" d="M0.0 4.0Q0.0 0.0 4.0 0.0L37.5 0.0Q41.5 0.0 41.5 4.0L41.5 28.0Q41.5 32.0 37.5 32.0L4.0 32.0Q0.0 32.0 0.0 28.0Z" stroke="#323232" stroke-width="2.0" stroke-dasharray="none" opacity="1.0" fill="#ffffff"/></g><g id="ProcessOnG1177" transform="matrix(1.0,0.0,0.0,1.0,682.25,628.5)" opacity="1.0"><path id="ProcessOnPath1178" d="M0.0 4.0Q0.0 0.0 4.0 0.0L37.5 0.0Q41.5 0.0 41.5 4.0L41.5 28.0Q41.5 32.0 37.5 32.0L4.0 32.0Q0.0 32.0 0.0 28.0Z" stroke="#323232" stroke-width="2.0" stroke-dasharray="none" opacity="1.0" fill="#ffffff"/></g><g id="ProcessOnG1179"><path id="ProcessOnPath1180" d="M482.5 575.5C530.586170846613 575.5 566.2405832001845 517.2405832001845 600.2426406871193 551.2426406871193" stroke="#323232" stroke-width="2.0" stroke-dasharray="none" fill="none" marker-end="url(#ProcessOnMarker1181)"/></g><g id="ProcessOnG1183"><path id="ProcessOnPath1184" d="M482.5 607.5C530.4467048905242 607.5 554.7036057065185 615.969341694652 599.7587704831436 632.3680805733027" stroke="#323232" stroke-width="2.0" stroke-dasharray="none" fill="none" marker-end="url(#ProcessOnMarker1185)"/></g><g id="ProcessOnG1187"><path id="ProcessOnPath1188" d="M245.5 413.5C325.35390608616564 413.5 328.88483663117285 499.6585811969429 380.2139380484327 560.8302222155949" stroke="#323232" stroke-width="2.0" stroke-dasharray="none" fill="none" marker-end="url(#ProcessOnMarker1189)"/><g id="ProcessOnG1191" transform="matrix(1.0,0.0,0.0,1.0,323.553770775056,456.10074572580294)"><path id="ProcessOnPath1192" d="M0 0H27.0V16.25H0Z" fill="#fff" transform="matrix(1.0,0.0,0.0,1.0,-13.5,0.0)"/><text id="ProcessOnText1193" fill="#000000" font-size="13" x="0.0" y="13.325" font-family="微软雅黑" font-weight="normal" font-style="normal" text-decoration="none" family="微软雅黑" text-anchor="middle" size="13">map</text></g></g><g id="ProcessOnG1194"><path id="ProcessOnPath1195" d="M723.1873844259267 552.8452365234814C811.60316334624 511.61628171120003 733.1825485223719 382.0879510524841 813.095760221445 326.13211781824475" stroke="#323232" stroke-width="2.0" stroke-dasharray="10.0 4.0" fill="none" marker-end="url(#ProcessOnMarker1196)"/><g id="ProcessOnG1198" transform="matrix(1.0,0.0,0.0,1.0,771.3300350316509,436.8862565790973)"><path id="ProcessOnPath1199" d="M0 0H44.0V16.25H0Z" fill="#fff" transform="matrix(1.0,0.0,0.0,1.0,-22.0,0.0)"/><text id="ProcessOnText1200" fill="#000000" font-size="13" x="0.0" y="13.325" font-family="微软雅黑" font-weight="normal" font-style="normal" text-decoration="none" family="微软雅黑" text-anchor="middle" size="13">type of</text></g></g><g id="ProcessOnG1201" transform="matrix(1.0,0.0,0.0,1.0,812.5,70.5)" opacity="1.0"><path id="ProcessOnPath1202" d="M0.0 0.0L132.0 0.0L132.0 32.0L0.0 32.0Z" stroke="#323232" stroke-width="2.0" stroke-dasharray="none" opacity="1.0" fill="#ffffff"/><g id="ProcessOnG1203" transform="matrix(1.0,0.0,0.0,1.0,10.0,7.875)"><text id="ProcessOnText1204" fill="#000000" font-size="13" x="55.0" y="13.325" font-family="微软雅黑" font-weight="normal" font-style="normal" text-decoration="none" family="微软雅黑" text-anchor="middle" size="13">token</text></g></g><g id="ProcessOnG1205" transform="matrix(1.0,0.0,0.0,1.0,812.5,50.5)" opacity="1.0"><path id="ProcessOnPath1206" d="M0.0 0.0L132.0 0.0L132.0 20.0L0.0 20.0Z" stroke="none" stroke-width="0.0" stroke-dasharray="none" opacity="1.0" fill="none"/><g id="ProcessOnG1207" transform="matrix(1.0,0.0,0.0,1.0,0.0,1.875)"><text id="ProcessOnText1208" fill="#000000" font-size="13" x="0.0" y="13.325" font-family="微软雅黑" font-weight="normal" font-style="normal" text-decoration="none" family="微软雅黑" text-anchor="start" size="13">lexer</text></g></g><g id="ProcessOnG1209"><path id="ProcessOnPath1210" d="M944.5 86.5C1003.2142314907435 86.49999999999999 989.4456218792475 195.54479470485592 944.467911113762 233.28557521937307" stroke="#323232" stroke-width="2.0" stroke-dasharray="none" fill="none" marker-end="url(#ProcessOnMarker1211)"/></g><g id="ProcessOnG1213" transform="matrix(1.0,0.0,0.0,1.0,812.5,102.5)" opacity="1.0"><path id="ProcessOnPath1214" d="M0.0 0.0L132.0 0.0L132.0 32.0L0.0 32.0Z" stroke="#323232" stroke-width="2.0" stroke-dasharray="none" opacity="1.0" fill="#ffffff"/><g id="ProcessOnG1215" transform="matrix(1.0,0.0,0.0,1.0,10.0,7.875)"><text id="ProcessOnText1216" fill="#000000" font-size="13" x="55.0" y="13.325" font-family="微软雅黑" font-weight="normal" font-style="normal" text-decoration="none" family="微软雅黑" text-anchor="middle" size="13">line</text></g></g></g></g></svg>