<svg xmlns="http://www.w3.org/2000/svg" xmlns:xlink="http://www.w3.org/1999/xlink" id="processonSvg1000" viewBox="41.55555555555554 246.0 439.8888888888889 473.0" width="439.8888888888889" height="473.0"><defs id="ProcessOnDefs1001"><marker id="ProcessOnMarker1018" markerUnits="userSpaceOnUse" orient="auto" markerWidth="16.23606797749979" markerHeight="10.550836550532098" viewBox="-1.0 -1.3763819204711736 16.23606797749979 10.550836550532098" refX="-1.0" refY="3.8990363547948754"><path id="ProcessOnPath1019" d="M12.0 3.8990363547948754L0.0 7.798072709589751V0.0Z" stroke="#323232" stroke-width="2.0" fill="#fff" transform="matrix(1.0,0.0,0.0,1.0,0.0,0.0)"/></marker><marker id="ProcessOnMarker1022" markerUnits="userSpaceOnUse" orient="auto" markerWidth="16.23606797749979" markerHeight="10.550836550532098" viewBox="-1.0 -1.3763819204711736 16.23606797749979 10.550836550532098" refX="-1.0" refY="3.8990363547948754"><path id="ProcessOnPath1023" d="M12.0 3.8990363547948754L0.0 7.798072709589751V0.0Z" stroke="#323232" stroke-width="2.0" fill="#fff" transform="matrix(1.0,0.0,0.0,1.0,0.0,0.0)"/></marker><marker id="ProcessOnMarker1028" markerUnits="userSpaceOnUse" orient="auto" markerWidth="16.23606797749979" markerHeight="10.550836550532098" viewBox="-1.0 -1.3763819204711736 16.23606797749979 10.550836550532098" refX="-1.0" refY="3.8990363547948754"><path id="ProcessOnPath1029" d="M12.0 3.8990363547948754L0.0 7.798072709589751V0.0Z" stroke="#ff0000" stroke-width="2.0" fill="#fff" transform="matrix(1.0,0.0,0.0,1.0,0.0,0.0)"/></marker><marker id="ProcessOnMarker1047" markerUnits="userSpaceOnUse" orient="auto" markerWidth="16.23606797749979" markerHeight="10.550836550532098" viewBox="-1.0 -1.3763819204711736 16.23606797749979 10.550836550532098" refX="-1.0" refY="3.8990363547948754"><path id="ProcessOnPath1048" d="M12.0 3.8990363547948754L0.0 7.798072709589751V0.0Z" stroke="#323232" stroke-width="2.0" fill="#fff" transform="matrix(1.0,0.0,0.0,1.0,0.0,0.0)"/></marker><marker id="ProcessOnMarker1051" markerUnits="userSpaceOnUse" orient="auto" markerWidth="16.23606797749979" markerHeight="10.550836550532098" viewBox="-1.0 -1.3763819204711736 16.23606797749979 10.550836550532098" refX="-1.0" refY="3.8990363547948754"><path id="ProcessOnPath1052" d="M12.0 3.8990363547948754L0.0 7.798072709589751V0.0Z" stroke="#323232" stroke-width="2.0" fill="#fff" transform="matrix(1.0,0.0,0.0,1.0,0.0,0.0)"/></marker><marker id="ProcessOnMarker1059" markerUnits="userSpaceOnUse" orient="auto" markerWidth="16.23606797749979" markerHeight="10.550836550532098" viewBox="-1.0 -1.3763819204711736 16.23606797749979 10.550836550532098" refX="-1.0" refY="3.8990363547948754"><path id="ProcessOnPath1060" d="M12.0 3.8990363547948754L0.0 7.798072709589751V0.0Z" stroke="#ff0000" stroke-width="2.0" fill="#fff" transform="matrix(1.0,0.0,0.0,1.0,0.0,0.0)"/></marker></defs><g id="ProcessOnG1002"><path id="ProcessOnPath1003" d="M41.55555555555554 246.0H481.44444444444446V719.0H41.55555555555554V246.0Z" fill="none"/><g id="ProcessOnG1004"><g id="ProcessOnG1005" transform="matrix(1.0,0.0,0.0,1.0,179.55555555555554,266.0)" opacity="1.0"><path id="ProcessOnPath1006" d="M0.0 0.0L100.0 0.0L100.0 32.0L0.0 32.0Z" stroke="#323232" stroke-width="2.0" stroke-dasharray="10.0 4.0" opacity="1.0" fill="#ffffff"/><g id="ProcessOnG1007" transform="matrix(1.0,0.0,0.0,1.0,10.0,7.875)"><text id="ProcessOnText1008" fill="#000000" font-size="13" x="39.0" y="13.325" font-family="微软雅黑" font-weight="normal" font-style="normal" text-decoration="none" family="微软雅黑" text-anchor="middle" size="13">Factory</text></g></g><g id="ProcessOnG1009" transform="matrix(1.0,0.0,0.0,1.0,206.5,399.0)" opacity="1.0"><path id="ProcessOnPath1010" d="M0.0 0.0L100.0 0.0L100.0 32.0L0.0 32.0Z" stroke="#323232" stroke-width="2.0" stroke-dasharray="none" opacity="1.0" fill="#ffffff"/></g><g id="ProcessOnG1011" transform="matrix(1.0,0.0,0.0,1.0,79.55555555555554,399.0)" opacity="1.0"><path id="ProcessOnPath1012" d="M0.0 0.0L100.0 0.0L100.0 32.0L0.0 32.0Z" stroke="#323232" stroke-width="2.0" stroke-dasharray="none" opacity="1.0" fill="#ffffff"/></g><g id="ProcessOnG1013" transform="matrix(1.0,0.0,0.0,1.0,61.55555555555554,308.5)" opacity="1.0"><path id="ProcessOnPath1014" d="M0.0 11.0L399.8888888888889 11.0" stroke="#323232" stroke-width="2.0" stroke-dasharray="10.0 4.0" opacity="1.0" fill="none"/><path id="ProcessOnPath1015" d="M0.0 0.0L399.8888888888889 0.0L399.8888888888889 21.0L0.0 21.0Z" stroke="none" stroke-width="0.0" stroke-dasharray="0.0 0.0" opacity="1.0" fill="none"/></g><g id="ProcessOnG1016"><path id="ProcessOnPath1017" d="M129.55555555555554 399.0C129.55555555555554 342.14791120811833 229.55555555555554 354.85208879188167 229.55555555555554 313.2360679774998" stroke="#323232" stroke-width="2.0" stroke-dasharray="10.0 4.0" fill="none" marker-end="url(#ProcessOnMarker1018)"/></g><g id="ProcessOnG1020"><path id="ProcessOnPath1021" d="M256.5 399.0C256.5 357.18707743021105 229.55555555555554 339.81292256978895 229.55555555555554 313.2360679774998" stroke="#323232" stroke-width="2.0" stroke-dasharray="10.0 4.0" fill="none" marker-end="url(#ProcessOnMarker1022)"/></g><g id="ProcessOnG1024" transform="matrix(1.0,0.0,0.0,1.0,338.5,399.0)" opacity="1.0"><path id="ProcessOnPath1025" d="M0.0 0.0L100.0 0.0L100.0 32.0L0.0 32.0Z" stroke="#ff0000" stroke-width="2.0" stroke-dasharray="none" opacity="1.0" fill="#ffffff"/></g><g id="ProcessOnG1026"><path id="ProcessOnPath1027" d="M388.5 399.0C388.5 323.6720913129768 229.55555555555554 373.3279086870232 229.55555555555554 313.2360679774998" stroke="#ff0000" stroke-width="2.0" stroke-dasharray="10.0 4.0" fill="none" marker-end="url(#ProcessOnMarker1028)"/></g><g id="ProcessOnG1030" transform="matrix(1.0,0.0,0.0,1.0,179.55555555555554,534.0)" opacity="1.0"><path id="ProcessOnPath1031" d="M0.0 0.0L100.0 0.0L100.0 32.0L0.0 32.0Z" stroke="#323232" stroke-width="2.0" stroke-dasharray="10.0 4.0" opacity="1.0" fill="#ffffff"/><g id="ProcessOnG1032" transform="matrix(1.0,0.0,0.0,1.0,10.0,7.875)"><text id="ProcessOnText1033" fill="#000000" font-size="13" x="39.0" y="13.325" font-family="微软雅黑" font-weight="normal" font-style="normal" text-decoration="none" family="微软雅黑" text-anchor="middle" size="13">Codec</text></g></g><g id="ProcessOnG1034" transform="matrix(1.0,0.0,0.0,1.0,206.5,667.0)" opacity="1.0"><path id="ProcessOnPath1035" d="M0.0 0.0L100.0 0.0L100.0 32.0L0.0 32.0Z" stroke="#323232" stroke-width="2.0" stroke-dasharray="none" opacity="1.0" fill="#ffffff"/><g id="ProcessOnG1036" transform="matrix(1.0,0.0,0.0,1.0,10.0,7.875)"><text id="ProcessOnText1037" fill="#000000" font-size="13" x="39.0" y="13.325" font-family="微软雅黑" font-weight="normal" font-style="normal" text-decoration="none" family="微软雅黑" text-anchor="middle" size="13">JSON</text></g></g><g id="ProcessOnG1038" transform="matrix(1.0,0.0,0.0,1.0,79.55555555555554,667.0)" opacity="1.0"><path id="ProcessOnPath1039" d="M0.0 0.0L100.0 0.0L100.0 32.0L0.0 32.0Z" stroke="#323232" stroke-width="2.0" stroke-dasharray="none" opacity="1.0" fill="#ffffff"/><g id="ProcessOnG1040" transform="matrix(1.0,0.0,0.0,1.0,10.0,7.875)"><text id="ProcessOnText1041" fill="#000000" font-size="13" x="39.0" y="13.325" font-family="微软雅黑" font-weight="normal" font-style="normal" text-decoration="none" family="微软雅黑" text-anchor="middle" size="13">XML</text></g></g><g id="ProcessOnG1042" transform="matrix(1.0,0.0,0.0,1.0,61.55555555555554,576.5)" opacity="1.0"><path id="ProcessOnPath1043" d="M0.0 11.0L399.8888888888889 11.0" stroke="#323232" stroke-width="2.0" stroke-dasharray="10.0 4.0" opacity="1.0" fill="none"/><path id="ProcessOnPath1044" d="M0.0 0.0L399.8888888888889 0.0L399.8888888888889 21.0L0.0 21.0Z" stroke="none" stroke-width="0.0" stroke-dasharray="0.0 0.0" opacity="1.0" fill="none"/></g><g id="ProcessOnG1045"><path id="ProcessOnPath1046" d="M129.55555555555554 667.0C129.55555555555554 610.1479112081183 229.55555555555554 622.8520887918817 229.55555555555554 581.2360679774998" stroke="#323232" stroke-width="2.0" stroke-dasharray="10.0 4.0" fill="none" marker-end="url(#ProcessOnMarker1047)"/></g><g id="ProcessOnG1049"><path id="ProcessOnPath1050" d="M256.5 667.0C256.5 625.187077430211 229.55555555555554 607.812922569789 229.55555555555554 581.2360679774998" stroke="#323232" stroke-width="2.0" stroke-dasharray="10.0 4.0" fill="none" marker-end="url(#ProcessOnMarker1051)"/></g><g id="ProcessOnG1053" transform="matrix(1.0,0.0,0.0,1.0,338.5,667.0)" opacity="1.0"><path id="ProcessOnPath1054" d="M0.0 0.0L100.0 0.0L100.0 32.0L0.0 32.0Z" stroke="#ff0000" stroke-width="2.0" stroke-dasharray="none" opacity="1.0" fill="#ffffff"/><g id="ProcessOnG1055" transform="matrix(1.0,0.0,0.0,1.0,10.0,7.875)"><text id="ProcessOnText1056" fill="#ff0000" font-size="13" x="39.0" y="13.325" font-family="微软雅黑" font-weight="normal" font-style="normal" text-decoration="none" family="微软雅黑" text-anchor="middle" size="13">YAML</text></g></g><g id="ProcessOnG1057"><path id="ProcessOnPath1058" d="M388.5 667.0C388.5 591.6720913129768 229.55555555555554 641.327908687023 229.55555555555554 581.2360679774998" stroke="#ff0000" stroke-width="2.0" stroke-dasharray="10.0 4.0" fill="none" marker-end="url(#ProcessOnMarker1059)"/></g></g></g></svg>