<svg xmlns="http://www.w3.org/2000/svg" xmlns:xlink="http://www.w3.org/1999/xlink" id="processonSvg1000" viewBox="-249.125 126.08642052917932 1755.25 387.8271589416413" width="1755.25" height="387.8271589416413"><defs id="ProcessOnDefs1001"><marker id="ProcessOnMarker1023" markerUnits="userSpaceOnUse" orient="auto" markerWidth="16.23606797749979" markerHeight="10.550836550532098" viewBox="-1.0 -1.3763819204711736 16.23606797749979 10.550836550532098" refX="-1.0" refY="3.8990363547948754"><path id="ProcessOnPath1024" d="M12.0 3.8990363547948754L0.0 7.798072709589751V0.0Z" stroke="#323232" stroke-width="2.0" fill="#323232" transform="matrix(1.0,0.0,0.0,1.0,0.0,0.0)"/></marker><marker id="ProcessOnMarker1049" markerUnits="userSpaceOnUse" orient="auto" markerWidth="16.23606797749979" markerHeight="10.550836550532098" viewBox="-1.0 -1.3763819204711736 16.23606797749979 10.550836550532098" refX="-1.0" refY="3.8990363547948754"><path id="ProcessOnPath1050" d="M12.0 3.8990363547948754L0.0 7.798072709589751V0.0Z" stroke="#323232" stroke-width="2.0" fill="#323232" transform="matrix(1.0,0.0,0.0,1.0,0.0,0.0)"/></marker><marker id="ProcessOnMarker1060" markerUnits="userSpaceOnUse" orient="auto" markerWidth="16.23606797749979" markerHeight="10.550836550532098" viewBox="-1.0 -1.3763819204711736 16.23606797749979 10.550836550532098" refX="-1.0" refY="3.8990363547948754"><path id="ProcessOnPath1061" d="M12.0 3.8990363547948754L0.0 7.798072709589751V0.0Z" stroke="#323232" stroke-width="2.0" fill="#323232" transform="matrix(1.0,0.0,0.0,1.0,0.0,0.0)"/></marker><marker id="ProcessOnMarker1074" markerUnits="userSpaceOnUse" orient="auto" markerWidth="16.23606797749979" markerHeight="10.550836550532098" viewBox="-1.0 -1.3763819204711736 16.23606797749979 10.550836550532098" refX="-1.0" refY="3.8990363547948754"><path id="ProcessOnPath1075" d="M12.0 3.8990363547948754L0.0 7.798072709589751V0.0Z" stroke="#323232" stroke-width="2.0" fill="#323232" transform="matrix(1.0,0.0,0.0,1.0,0.0,0.0)"/></marker><marker id="ProcessOnMarker1083" markerUnits="userSpaceOnUse" orient="auto" markerWidth="16.23606797749979" markerHeight="10.550836550532098" viewBox="-1.0 -1.3763819204711736 16.23606797749979 10.550836550532098" refX="-1.0" refY="3.8990363547948754"><path id="ProcessOnPath1084" d="M12.0 3.8990363547948754L0.0 7.798072709589751V0.0Z" stroke="#323232" stroke-width="2.0" fill="#323232" transform="matrix(1.0,0.0,0.0,1.0,0.0,0.0)"/></marker></defs><g id="ProcessOnG1002"><path id="ProcessOnPath1003" d="M-249.125 126.08642052917932H1506.125V513.9135794708207H-249.125V126.08642052917935Z" fill="none"/><g id="ProcessOnG1004"><g id="ProcessOnG1005" transform="matrix(1.0,0.0,0.0,1.0,925.1195233238855,186.55382768686403)" opacity="1.0"><path id="ProcessOnPath1006" d="M0.0 0.0L368.0 0.0L368.0 49.07086614173228L0.0 49.07086614173228Z" stroke="#323232" stroke-width="2.0" stroke-dasharray="10.0 4.0" opacity="1.0" fill="#ffffff"/><g id="ProcessOnG1007" transform="matrix(1.0,0.0,0.0,1.0,10.0,16.41043307086614)"><text id="ProcessOnText1008" fill="#000000" font-size="13" x="173.0" y="13.325" font-family="微软雅黑" font-weight="normal" font-style="normal" text-decoration="none" family="微软雅黑" text-anchor="middle" size="13">Config</text></g></g><g id="ProcessOnG1009" transform="matrix(1.0,0.0,0.0,1.0,-229.125,146.08642052917932)" opacity="1.0"><path id="ProcessOnPath1010" d="M0.0 0.0L361.71159491470127 0.0L361.71159491470127 50.787078602235695L0.0 50.787078602235695Z" stroke="#323232" stroke-width="2.0" stroke-dasharray="10.0 4.0" opacity="1.0" fill="#ffffff"/><g id="ProcessOnG1011" transform="matrix(1.0,0.0,0.0,1.0,10.0,17.268539301117848)"><text id="ProcessOnText1012" fill="#000000" font-size="13" x="169.85579745735063" y="13.325" font-family="微软雅黑" font-weight="normal" font-style="normal" text-decoration="none" family="微软雅黑" text-anchor="middle" size="13">KubeControllerManagerConfiguration</text></g></g><g id="ProcessOnG1013" transform="matrix(1.0,0.0,0.0,1.0,-229.12499999999997,244.66057773365068)" opacity="1.0"><path id="ProcessOnPath1014" d="M0.0 0.0L361.71159491470127 0.0L361.71159491470127 50.787078602235695L0.0 50.787078602235695Z" stroke="#323232" stroke-width="2.0" stroke-dasharray="none" opacity="1.0" fill="#ffffff"/><g id="ProcessOnG1015" transform="matrix(1.0,0.0,0.0,1.0,10.0,17.268539301117848)"><text id="ProcessOnText1016" fill="#000000" font-size="13" x="169.85579745735063" y="13.325" font-family="微软雅黑" font-weight="normal" font-style="normal" text-decoration="none" family="微软雅黑" text-anchor="middle" size="13">const InsecureKubeControllerManagerPort = 10252</text></g></g><g id="ProcessOnG1017" transform="matrix(1.0,0.0,0.0,1.0,419.2569282483783,164.10684072231595)" opacity="1.0"><path id="ProcessOnPath1018" d="M0.0 0.0L415.0 0.0L415.0 62.273876351580476L0.0 62.273876351580476Z" stroke="#323232" stroke-width="2.0" stroke-dasharray="10.0 4.0" opacity="1.0" fill="#ffffff"/><g id="ProcessOnG1019" transform="matrix(1.0,0.0,0.0,1.0,10.0,23.011938175790238)"><text id="ProcessOnText1020" fill="#000000" font-size="13" x="196.5" y="13.325" font-family="微软雅黑" font-weight="normal" font-style="normal" text-decoration="none" family="微软雅黑" text-anchor="middle" size="13">KubeControllerManagerConfiguration</text></g></g><g id="ProcessOnG1021"><path id="ProcessOnPath1022" d="M132.58659491470138 171.47995983029716C252.1150190028506 171.47995983029713 299.8465759118507 255.42301636184428 404.1389320225003 255.42301636184428" stroke="#323232" stroke-width="2.0" stroke-dasharray="none" fill="none" marker-end="url(#ProcessOnMarker1023)"/><g id="ProcessOnG1025" transform="matrix(1.0,0.0,0.0,1.0,274.0762889601632,205.3264880960707)"><path id="ProcessOnPath1026" d="M0 0H60.0V16.25H0Z" fill="#fff" transform="matrix(1.0,0.0,0.0,1.0,-30.0,0.0)"/><text id="ProcessOnText1027" fill="#000000" font-size="13" x="0.0" y="13.325" font-family="微软雅黑" font-weight="normal" font-style="normal" text-decoration="none" family="微软雅黑" text-anchor="middle" size="13">argument</text></g></g><g id="ProcessOnG1028" transform="matrix(1.0,0.0,0.0,1.0,419.37500000000006,286.55995453763455)" opacity="1.0"><path id="ProcessOnPath1029" d="M0.0 0.0L415.0 0.0L415.0 62.273876351580476L0.0 62.273876351580476Z" stroke="#323232" stroke-width="2.0" stroke-dasharray="none" opacity="1.0" fill="#ffffff"/><g id="ProcessOnG1030" transform="matrix(1.0,0.0,0.0,1.0,10.0,14.886938175790238)"><text id="ProcessOnText1031" fill="#000000" font-size="13" x="196.5" y="13.325" font-family="微软雅黑" font-weight="normal" font-style="normal" text-decoration="none" family="微软雅黑" text-anchor="middle" size="13">Generic.SecureServing.ServerCert.CertDirectory = "/var/run/ku</text><text id="ProcessOnText1032" fill="#000000" font-size="13" x="196.5" y="29.575" font-family="微软雅黑" font-weight="normal" font-style="normal" text-decoration="none" family="微软雅黑" text-anchor="middle" size="13">bernetes"</text></g></g><g id="ProcessOnG1033" transform="matrix(1.0,0.0,0.0,1.0,419.37500000000006,348.83383088921494)" opacity="1.0"><path id="ProcessOnPath1034" d="M0.0 0.0L415.0 0.0L415.0 62.273876351580476L0.0 62.273876351580476Z" stroke="#323232" stroke-width="2.0" stroke-dasharray="none" opacity="1.0" fill="#ffffff"/><g id="ProcessOnG1035" transform="matrix(1.0,0.0,0.0,1.0,10.0,14.886938175790238)"><text id="ProcessOnText1036" fill="#000000" font-size="13" x="196.5" y="13.325" font-family="微软雅黑" font-weight="normal" font-style="normal" text-decoration="none" family="微软雅黑" text-anchor="middle" size="13">Generic.SecureServing.ServerCert.PairName = "kube-controller</text><text id="ProcessOnText1037" fill="#000000" font-size="13" x="196.5" y="29.575" font-family="微软雅黑" font-weight="normal" font-style="normal" text-decoration="none" family="微软雅黑" text-anchor="middle" size="13">-manager"</text></g></g><g id="ProcessOnG1038" transform="matrix(1.0,0.0,0.0,1.0,419.37500000000006,411.1077072407953)" opacity="1.0"><path id="ProcessOnPath1039" d="M0.0 0.0L415.0 0.0L415.0 62.273876351580476L0.0 62.273876351580476Z" stroke="#323232" stroke-width="2.0" stroke-dasharray="none" opacity="1.0" fill="#ffffff"/><g id="ProcessOnG1040" transform="matrix(1.0,0.0,0.0,1.0,10.0,14.886938175790238)"><text id="ProcessOnText1041" fill="#000000" font-size="13" x="196.5" y="13.325" font-family="微软雅黑" font-weight="normal" font-style="normal" text-decoration="none" family="微软雅黑" text-anchor="middle" size="13">Generic.ComponentConfig.GCIgnoredResources &lt;|= garbageco</text><text id="ProcessOnText1042" fill="#000000" font-size="13" x="196.5" y="29.575" font-family="微软雅黑" font-weight="normal" font-style="normal" text-decoration="none" family="微软雅黑" text-anchor="middle" size="13">llector.DefaultIgnoredResources()</text></g></g><g id="ProcessOnG1043" transform="matrix(1.0,0.0,0.0,1.0,925.1195233238855,231.1681186486996)" opacity="1.0"><path id="ProcessOnPath1044" d="M0.0 0.0L368.0 0.0L368.0 49.07086614173228L0.0 49.07086614173228Z" stroke="#323232" stroke-width="2.0" stroke-dasharray="none" opacity="1.0" fill="#ffffff"/><g id="ProcessOnG1045" transform="matrix(1.0,0.0,0.0,1.0,10.0,16.41043307086614)"><text id="ProcessOnText1046" fill="#000000" font-size="13" x="173.0" y="13.325" font-family="微软雅黑" font-weight="normal" font-style="normal" text-decoration="none" family="微软雅黑" text-anchor="middle" size="13">Generic</text></g></g><g id="ProcessOnG1047"><path id="ProcessOnPath1048" d="M834.375 255.42301636184428C870.6729827833253 255.42301636184428 888.8215405405601 255.70355171956572 909.8834553463856 255.70355171956572" stroke="#323232" stroke-width="2.0" stroke-dasharray="none" fill="none" marker-end="url(#ProcessOnMarker1049)"/><g id="ProcessOnG1051" transform="matrix(1.0,0.0,0.0,1.0,877.8427531647553,247.43828404070499)"><path id="ProcessOnPath1052" d="M0 0H50.0V16.24999999999997H0Z" fill="#fff" transform="matrix(1.0,0.0,0.0,1.0,-25.0,0.0)"/><text id="ProcessOnText1053" fill="#000000" font-size="13" x="0.0" y="13.325" font-family="微软雅黑" font-weight="normal" font-style="normal" text-decoration="none" family="微软雅黑" text-anchor="middle" size="13">ApplyTo</text></g></g><g id="ProcessOnG1054" transform="matrix(1.0,0.0,0.0,1.0,925.1195233238855,280.2389847904319)" opacity="1.0"><path id="ProcessOnPath1055" d="M0.0 0.0L368.0 0.0L368.0 49.07086614173228L0.0 49.07086614173228Z" stroke="#323232" stroke-width="2.0" stroke-dasharray="none" opacity="1.0" fill="#ffffff"/><g id="ProcessOnG1056" transform="matrix(1.0,0.0,0.0,1.0,10.0,16.41043307086614)"><text id="ProcessOnText1057" fill="#000000" font-size="13" x="173.0" y="13.325" font-family="微软雅黑" font-weight="normal" font-style="normal" text-decoration="none" family="微软雅黑" text-anchor="middle" size="13">userAgent : 'controller-manager'</text></g></g><g id="ProcessOnG1058"><path id="ProcessOnPath1059" d="M1293.1195233238855 211.08926075773016C1321.7110550467598 211.08926075773016 1313.5334682771256 263.12469382859626 1326.8889320225003 263.12469382859626" stroke="#323232" stroke-width="2.0" stroke-dasharray="none" fill="none" marker-end="url(#ProcessOnMarker1060)"/></g><g id="ProcessOnG1062" transform="matrix(1.0,0.0,0.0,1.0,1342.125,235.6246938285963)" opacity="1.0"><path id="ProcessOnPath1063" d="M0.0 27.5C0.0 -9.166666666666666 144.0 -9.166666666666666 144.0 27.5C144.0 64.16666666666667 0.0 64.16666666666667 0.0 27.5Z" stroke="#323232" stroke-width="2.0" stroke-dasharray="none" opacity="1.0" fill="#ffffff"/><g id="ProcessOnG1064" transform="matrix(1.0,0.0,0.0,1.0,10.0,19.375)"><text id="ProcessOnText1065" fill="#000000" font-size="13" x="61.0" y="13.325" font-family="微软雅黑" font-weight="normal" font-style="normal" text-decoration="none" family="微软雅黑" text-anchor="middle" size="13">Run(c.Complete())</text></g></g><g id="ProcessOnG1066" transform="matrix(1.0,0.0,0.0,1.0,-177.34598667728335,308.7020902514555)" opacity="1.0"><path id="ProcessOnPath1067" d="M0.0 43.4468503937008C0.0 -14.482283464566933 257.5 -14.482283464566933 257.5 43.4468503937008C257.5 101.37598425196853 0.0 101.37598425196853 0.0 43.4468503937008Z" stroke="#323232" stroke-width="2.0" stroke-dasharray="none" opacity="1.0" fill="#ffffff"/><g id="ProcessOnG1068" transform="matrix(1.0,0.0,0.0,1.0,10.0,19.0718503937008)"><text id="ProcessOnText1069" fill="#000000" font-size="13" x="117.75" y="13.325" font-family="微软雅黑" font-weight="normal" font-style="normal" text-decoration="none" family="微软雅黑" text-anchor="middle" size="13">s.AddFlags(cmd.Flags(), KnownControl</text><text id="ProcessOnText1070" fill="#000000" font-size="13" x="117.75" y="29.575" font-family="微软雅黑" font-weight="normal" font-style="normal" text-decoration="none" family="微软雅黑" text-anchor="middle" size="13">lers(), ControllersDisabledByDefault.Lis</text><text id="ProcessOnText1071" fill="#000000" font-size="13" x="117.75" y="45.825" font-family="微软雅黑" font-weight="normal" font-style="normal" text-decoration="none" family="微软雅黑" text-anchor="middle" size="13">t())</text></g></g><g id="ProcessOnG1072"><path id="ProcessOnPath1073" d="M80.15401332271654 352.14894064515636C221.2507360235764 352.14894064515624 278.27827729914026 255.42301636184428 404.1389320225003 255.42301636184428" stroke="#323232" stroke-width="2.0" stroke-dasharray="none" fill="none" marker-end="url(#ProcessOnMarker1074)"/></g><g id="ProcessOnG1076" transform="matrix(1.0,0.0,0.0,1.0,-204.51920254264934,418.91357947082065)" opacity="1.0"><path id="ProcessOnPath1077" d="M0.0 0.0L312.5 0.0L312.5 75.0L0.0 75.0Z" stroke="#323232" stroke-width="2.0" stroke-dasharray="none" opacity="1.0" fill="#ffffff"/><g id="ProcessOnG1078" transform="matrix(1.0,0.0,0.0,1.0,10.0,21.25)"><text id="ProcessOnText1079" fill="#000000" font-size="13" x="145.25" y="13.325" font-family="微软雅黑" font-weight="normal" font-style="normal" text-decoration="none" family="微软雅黑" text-anchor="middle" size="13">Generic.ComponentConfig.xxx</text><text id="ProcessOnText1080" fill="#000000" font-size="13" x="145.25" y="29.575" font-family="微软雅黑" font-weight="normal" font-style="normal" text-decoration="none" family="微软雅黑" text-anchor="middle" size="13">Generic.ComponentConfig.LeaderElection.xxx</text></g></g><g id="ProcessOnG1081"><path id="ProcessOnPath1082" d="M-48.59598667728335 395.5957910388571L-48.482705484441595 403.6790074745734" stroke="#323232" stroke-width="2.0" stroke-dasharray="none" fill="none" marker-end="url(#ProcessOnMarker1083)"/></g><g id="ProcessOnG1085" transform="matrix(1.0,0.0,0.0,1.0,-229.12499999999994,193.873499131415)" opacity="1.0"><path id="ProcessOnPath1086" d="M0.0 0.0L361.71159491470127 0.0L361.71159491470127 50.787078602235695L0.0 50.787078602235695Z" stroke="#323232" stroke-width="2.0" stroke-dasharray="none" opacity="1.0" fill="#ffffff"/><g id="ProcessOnG1087" transform="matrix(1.0,0.0,0.0,1.0,10.0,9.143539301117848)"><text id="ProcessOnText1088" fill="#000000" font-size="13" x="169.85579745735063" y="13.325" font-family="微软雅黑" font-weight="normal" font-style="normal" text-decoration="none" family="微软雅黑" text-anchor="middle" size="13">func SetObjectDefaults_KubeControllerManagerConfig</text><text id="ProcessOnText1089" fill="#000000" font-size="13" x="169.85579745735063" y="29.575" font-family="微软雅黑" font-weight="normal" font-style="normal" text-decoration="none" family="微软雅黑" text-anchor="middle" size="13">uration(in *KubeControllerManagerConfiguration)</text></g></g><g id="ProcessOnG1090" transform="matrix(1.0,0.0,0.0,1.0,419.37500000000006,224.28607818605403)" opacity="1.0"><path id="ProcessOnPath1091" d="M0.0 0.0L415.0 0.0L415.0 62.273876351580476L0.0 62.273876351580476Z" stroke="#323232" stroke-width="2.0" stroke-dasharray="none" opacity="1.0" fill="#ffffff"/><g id="ProcessOnG1092" transform="matrix(1.0,0.0,0.0,1.0,10.0,14.886938175790238)"><text id="ProcessOnText1093" fill="#000000" font-size="13" x="196.5" y="13.325" font-family="微软雅黑" font-weight="normal" font-style="normal" text-decoration="none" family="微软雅黑" text-anchor="middle" size="13">Generic: cmoptions.NewGenericControllerManagerOptions(com</text><text id="ProcessOnText1094" fill="#000000" font-size="13" x="196.5" y="29.575" font-family="微软雅黑" font-weight="normal" font-style="normal" text-decoration="none" family="微软雅黑" text-anchor="middle" size="13">ponentConfig)</text></g></g></g></g></svg>