<svg xmlns="http://www.w3.org/2000/svg" xmlns:xlink="http://www.w3.org/1999/xlink" id="processonSvg1000" viewBox="-12.808173832217676 61.04293903211013 1558.4614022275546 903.9141219357797" width="1558.4614022275546" height="903.9141219357797"><defs id="ProcessOnDefs1001"><marker id="ProcessOnMarker1007" markerUnits="userSpaceOnUse" orient="auto" markerWidth="14.289086868996552" markerHeight="19.055054660878554" viewBox="-0.5877852522924731 -0.8090169943749475 14.289086868996552 19.055054660878554" refX="12.0" refY="8.71851033606433"><path id="ProcessOnPath1008" d="M0 0L12.0 8.71851033606433L0 17.43702067212866" stroke="#323232" stroke-width="2.0" fill="none" transform="matrix(1.0,0.0,0.0,1.0,0.0,0.0)"/></marker><marker id="ProcessOnMarker1063" markerUnits="userSpaceOnUse" orient="auto" markerWidth="14.289086868996552" markerHeight="19.055054660878554" viewBox="-0.5877852522924731 -0.8090169943749475 14.289086868996552 19.055054660878554" refX="12.0" refY="8.71851033606433"><path id="ProcessOnPath1064" d="M0 0L12.0 8.71851033606433L0 17.43702067212866" stroke="#323232" stroke-width="2.0" fill="none" transform="matrix(1.0,0.0,0.0,1.0,0.0,0.0)"/></marker><marker id="ProcessOnMarker1083" markerUnits="userSpaceOnUse" orient="auto" markerWidth="14.289086868996552" markerHeight="19.055054660878554" viewBox="-0.5877852522924731 -0.8090169943749475 14.289086868996552 19.055054660878554" refX="12.0" refY="8.71851033606433"><path id="ProcessOnPath1084" d="M0 0L12.0 8.71851033606433L0 17.43702067212866" stroke="#323232" stroke-width="2.0" fill="none" transform="matrix(1.0,0.0,0.0,1.0,0.0,0.0)"/></marker><marker id="ProcessOnMarker1098" markerUnits="userSpaceOnUse" orient="auto" markerWidth="16.23606797749979" markerHeight="10.550836550532098" viewBox="-1.0 -1.3763819204711736 16.23606797749979 10.550836550532098" refX="-1.0" refY="3.8990363547948754"><path id="ProcessOnPath1099" d="M12.0 3.8990363547948754L0.0 7.798072709589751V0.0Z" stroke="#323232" stroke-width="2.0" fill="#fff" transform="matrix(1.0,0.0,0.0,1.0,0.0,0.0)"/></marker><marker id="ProcessOnMarker1102" markerUnits="userSpaceOnUse" orient="auto" markerWidth="16.23606797749979" markerHeight="10.550836550532098" viewBox="-1.0 -1.3763819204711736 16.23606797749979 10.550836550532098" refX="-1.0" refY="3.8990363547948754"><path id="ProcessOnPath1103" d="M12.0 3.8990363547948754L0.0 7.798072709589751V0.0Z" stroke="#323232" stroke-width="2.0" fill="#fff" transform="matrix(1.0,0.0,0.0,1.0,0.0,0.0)"/></marker><marker id="ProcessOnMarker1114" markerUnits="userSpaceOnUse" orient="auto" markerWidth="14.289086868996552" markerHeight="19.055054660878554" viewBox="-0.5877852522924731 -0.8090169943749475 14.289086868996552 19.055054660878554" refX="12.0" refY="8.71851033606433"><path id="ProcessOnPath1115" d="M0 0L12.0 8.71851033606433L0 17.43702067212866" stroke="#323232" stroke-width="2.0" fill="none" transform="matrix(1.0,0.0,0.0,1.0,0.0,0.0)"/></marker><marker id="ProcessOnMarker1130" markerUnits="userSpaceOnUse" orient="auto" markerWidth="14.289086868996552" markerHeight="19.055054660878554" viewBox="-0.5877852522924731 -0.8090169943749475 14.289086868996552 19.055054660878554" refX="12.0" refY="8.71851033606433"><path id="ProcessOnPath1131" d="M0 0L12.0 8.71851033606433L0 17.43702067212866" stroke="#323232" stroke-width="2.0" fill="none" transform="matrix(1.0,0.0,0.0,1.0,0.0,0.0)"/></marker><marker id="ProcessOnMarker1142" markerUnits="userSpaceOnUse" orient="auto" markerWidth="14.289086868996552" markerHeight="19.055054660878554" viewBox="-0.5877852522924731 -0.8090169943749475 14.289086868996552 19.055054660878554" refX="12.0" refY="8.71851033606433"><path id="ProcessOnPath1143" d="M0 0L12.0 8.71851033606433L0 17.43702067212866" stroke="#323232" stroke-width="2.0" fill="none" transform="matrix(1.0,0.0,0.0,1.0,0.0,0.0)"/></marker><marker id="ProcessOnMarker1158" markerUnits="userSpaceOnUse" orient="auto" markerWidth="14.289086868996552" markerHeight="19.055054660878554" viewBox="-0.5877852522924731 -0.8090169943749475 14.289086868996552 19.055054660878554" refX="12.0" refY="8.71851033606433"><path id="ProcessOnPath1159" d="M0 0L12.0 8.71851033606433L0 17.43702067212866" stroke="#323232" stroke-width="2.0" fill="none" transform="matrix(1.0,0.0,0.0,1.0,0.0,0.0)"/></marker><marker id="ProcessOnMarker1166" markerUnits="userSpaceOnUse" orient="auto" markerWidth="14.289086868996552" markerHeight="19.055054660878554" viewBox="-0.5877852522924731 -0.8090169943749475 14.289086868996552 19.055054660878554" refX="12.0" refY="8.71851033606433"><path id="ProcessOnPath1167" d="M0 0L12.0 8.71851033606433L0 17.43702067212866" stroke="#323232" stroke-width="2.0" fill="none" transform="matrix(1.0,0.0,0.0,1.0,0.0,0.0)"/></marker><marker id="ProcessOnMarker1174" markerUnits="userSpaceOnUse" orient="auto" markerWidth="14.289086868996552" markerHeight="19.055054660878554" viewBox="-0.5877852522924731 -0.8090169943749475 14.289086868996552 19.055054660878554" refX="12.0" refY="8.71851033606433"><path id="ProcessOnPath1175" d="M0 0L12.0 8.71851033606433L0 17.43702067212866" stroke="#323232" stroke-width="2.0" fill="none" transform="matrix(1.0,0.0,0.0,1.0,0.0,0.0)"/></marker><marker id="ProcessOnMarker1178" markerUnits="userSpaceOnUse" orient="auto" markerWidth="14.289086868996552" markerHeight="19.055054660878554" viewBox="-0.5877852522924731 -0.8090169943749475 14.289086868996552 19.055054660878554" refX="12.0" refY="8.71851033606433"><path id="ProcessOnPath1179" d="M0 0L12.0 8.71851033606433L0 17.43702067212866" stroke="#323232" stroke-width="2.0" fill="none" transform="matrix(1.0,0.0,0.0,1.0,0.0,0.0)"/></marker><marker id="ProcessOnMarker1186" markerUnits="userSpaceOnUse" orient="auto" markerWidth="14.289086868996552" markerHeight="19.055054660878554" viewBox="-0.5877852522924731 -0.8090169943749475 14.289086868996552 19.055054660878554" refX="12.0" refY="8.71851033606433"><path id="ProcessOnPath1187" d="M0 0L12.0 8.71851033606433L0 17.43702067212866" stroke="#323232" stroke-width="2.0" fill="none" transform="matrix(1.0,0.0,0.0,1.0,0.0,0.0)"/></marker><marker id="ProcessOnMarker1194" markerUnits="userSpaceOnUse" orient="auto" markerWidth="14.289086868996552" markerHeight="19.055054660878554" viewBox="-0.5877852522924731 -0.8090169943749475 14.289086868996552 19.055054660878554" refX="12.0" refY="8.71851033606433"><path id="ProcessOnPath1195" d="M0 0L12.0 8.71851033606433L0 17.43702067212866" stroke="#323232" stroke-width="2.0" fill="none" transform="matrix(1.0,0.0,0.0,1.0,0.0,0.0)"/></marker><marker id="ProcessOnMarker1201" markerUnits="userSpaceOnUse" orient="auto" markerWidth="14.289086868996552" markerHeight="19.055054660878554" viewBox="-0.5877852522924731 -0.8090169943749475 14.289086868996552 19.055054660878554" refX="12.0" refY="8.71851033606433"><path id="ProcessOnPath1202" d="M0 0L12.0 8.71851033606433L0 17.43702067212866" stroke="#323232" stroke-width="2.0" fill="none" transform="matrix(1.0,0.0,0.0,1.0,0.0,0.0)"/></marker><marker id="ProcessOnMarker1212" markerUnits="userSpaceOnUse" orient="auto" markerWidth="16.23606797749979" markerHeight="10.550836550532098" viewBox="-1.0 -1.3763819204711736 16.23606797749979 10.550836550532098" refX="-1.0" refY="3.8990363547948754"><path id="ProcessOnPath1213" d="M12.0 3.8990363547948754L0.0 7.798072709589751V0.0Z" stroke="#323232" stroke-width="2.0" fill="#fff" transform="matrix(1.0,0.0,0.0,1.0,0.0,0.0)"/></marker><marker id="ProcessOnMarker1216" markerUnits="userSpaceOnUse" orient="auto" markerWidth="14.289086868996552" markerHeight="19.055054660878554" viewBox="-0.5877852522924731 -0.8090169943749475 14.289086868996552 19.055054660878554" refX="12.0" refY="8.71851033606433"><path id="ProcessOnPath1217" d="M0 0L12.0 8.71851033606433L0 17.43702067212866" stroke="#323232" stroke-width="2.0" fill="none" transform="matrix(1.0,0.0,0.0,1.0,0.0,0.0)"/></marker><marker id="ProcessOnMarker1224" markerUnits="userSpaceOnUse" orient="auto" markerWidth="14.289086868996552" markerHeight="19.055054660878554" viewBox="-0.5877852522924731 -0.8090169943749475 14.289086868996552 19.055054660878554" refX="12.0" refY="8.71851033606433"><path id="ProcessOnPath1225" d="M0 0L12.0 8.71851033606433L0 17.43702067212866" stroke="#323232" stroke-width="2.0" fill="none" transform="matrix(1.0,0.0,0.0,1.0,0.0,0.0)"/></marker><marker id="ProcessOnMarker1236" markerUnits="userSpaceOnUse" orient="auto" markerWidth="14.289086868996552" markerHeight="19.055054660878554" viewBox="-0.5877852522924731 -0.8090169943749475 14.289086868996552 19.055054660878554" refX="12.0" refY="8.71851033606433"><path id="ProcessOnPath1237" d="M0 0L12.0 8.71851033606433L0 17.43702067212866" stroke="#323232" stroke-width="2.0" fill="none" transform="matrix(1.0,0.0,0.0,1.0,0.0,0.0)"/></marker><marker id="ProcessOnMarker1244" markerUnits="userSpaceOnUse" orient="auto" markerWidth="16.23606797749979" markerHeight="10.550836550532098" viewBox="-1.0 -1.3763819204711736 16.23606797749979 10.550836550532098" refX="-1.0" refY="3.8990363547948754"><path id="ProcessOnPath1245" d="M12.0 3.8990363547948754L0.0 7.798072709589751V0.0Z" stroke="#323232" stroke-width="2.0" fill="#fff" transform="matrix(1.0,0.0,0.0,1.0,0.0,0.0)"/></marker><marker id="ProcessOnMarker1260" markerUnits="userSpaceOnUse" orient="auto" markerWidth="14.289086868996552" markerHeight="19.055054660878554" viewBox="-0.5877852522924731 -0.8090169943749475 14.289086868996552 19.055054660878554" refX="12.0" refY="8.71851033606433"><path id="ProcessOnPath1261" d="M0 0L12.0 8.71851033606433L0 17.43702067212866" stroke="#cc0000" stroke-width="2.0" fill="none" transform="matrix(1.0,0.0,0.0,1.0,0.0,0.0)"/></marker><marker id="ProcessOnMarker1264" markerUnits="userSpaceOnUse" orient="auto" markerWidth="14.289086868996552" markerHeight="19.055054660878554" viewBox="-0.5877852522924731 -0.8090169943749475 14.289086868996552 19.055054660878554" refX="12.0" refY="8.71851033606433"><path id="ProcessOnPath1265" d="M0 0L12.0 8.71851033606433L0 17.43702067212866" stroke="#cc0000" stroke-width="2.0" fill="none" transform="matrix(1.0,0.0,0.0,1.0,0.0,0.0)"/></marker><marker id="ProcessOnMarker1268" markerUnits="userSpaceOnUse" orient="auto" markerWidth="14.289086868996552" markerHeight="19.055054660878554" viewBox="-0.5877852522924731 -0.8090169943749475 14.289086868996552 19.055054660878554" refX="12.0" refY="8.71851033606433"><path id="ProcessOnPath1269" d="M0 0L12.0 8.71851033606433L0 17.43702067212866" stroke="#66ffff" stroke-width="2.0" fill="none" transform="matrix(1.0,0.0,0.0,1.0,0.0,0.0)"/></marker></defs><g id="ProcessOnG1002"><path id="ProcessOnPath1003" d="M-12.808173832217676 61.04293903211013H1545.653228395337V964.9570609678898H-12.808173832217562V61.0429390321101Z" fill="none"/><g id="ProcessOnG1004"><g id="ProcessOnG1005"><path id="ProcessOnPath1006" d="M387.92877344038004 504.68866210779686C483.3260105583797 504.68866210779686 530.7815199350028 515.4543771100304 626.1787570530022 515.4543771100304" stroke="#323232" stroke-width="2.0" stroke-dasharray="10.0 4.0" fill="none" marker-end="url(#ProcessOnMarker1007)"/><g id="ProcessOnG1009" transform="matrix(1.0,0.0,0.0,1.0,507.0537652466912,493.8215196089136)"><path id="ProcessOnPath1010" d="M0 0H158.0V32.5H0Z" fill="#fff" transform="matrix(1.0,0.0,0.0,1.0,-79.0,0.0)"/><text id="ProcessOnText1011" fill="#000000" font-size="13" x="0.0" y="13.325" font-family="微软雅黑" font-weight="normal" font-style="normal" text-decoration="none" family="微软雅黑" text-anchor="middle" size="13">AnonymousClientConfig()</text><text id="ProcessOnText1012" fill="#000000" font-size="13" x="0.0" y="29.575" font-family="微软雅黑" font-weight="normal" font-style="normal" text-decoration="none" family="微软雅黑" text-anchor="middle" size="13">argument</text></g></g><g id="ProcessOnG1013" transform="matrix(1.0,0.0,0.0,1.0,1254.5296143010787,583.5219583448157)" opacity="1.0"><path id="ProcessOnPath1014" d="M0.0 0.0L209.97020260069942 0.0L209.97020260069942 32.68269101145962L0.0 32.68269101145962Z" stroke="#323232" stroke-width="2.0" stroke-dasharray="10.0 4.0" opacity="1.0" fill="#ffffff"/><g id="ProcessOnG1015" transform="matrix(1.0,0.0,0.0,1.0,10.0,8.216345505729809)"><text id="ProcessOnText1016" fill="#000000" font-size="13" x="93.98510130034971" y="13.325" font-family="微软雅黑" font-weight="normal" font-style="normal" text-decoration="none" family="微软雅黑" text-anchor="middle" size="13">kubernetes.Interface</text></g></g><g id="ProcessOnG1017" transform="matrix(1.0,0.0,0.0,1.0,177.95857083968195,259.5684795218496)" opacity="1.0"><path id="ProcessOnPath1018" d="M0.0 0.0L209.97020260069942 0.0L209.97020260069942 32.68269101145962L0.0 32.68269101145962Z" stroke="#323232" stroke-width="2.0" stroke-dasharray="none" opacity="1.0" fill="#ffffff"/><g id="ProcessOnG1019" transform="matrix(1.0,0.0,0.0,1.0,10.0,8.216345505729809)"><text id="ProcessOnText1020" fill="#000000" font-size="13" x="93.98510130034971" y="13.325" font-family="微软雅黑" font-weight="normal" font-style="normal" text-decoration="none" family="微软雅黑" text-anchor="middle" size="13">ComponentConfig</text></g></g><g id="ProcessOnG1021" transform="matrix(1.0,0.0,0.0,1.0,177.95857083968195,292.2511705333091)" opacity="1.0"><path id="ProcessOnPath1022" d="M0.0 0.0L209.97020260069942 0.0L209.97020260069942 32.68269101145962L0.0 32.68269101145962Z" stroke="#323232" stroke-width="2.0" stroke-dasharray="none" opacity="1.0" fill="#ffffff"/><g id="ProcessOnG1023" transform="matrix(1.0,0.0,0.0,1.0,10.0,8.216345505729809)"><text id="ProcessOnText1024" fill="#000000" font-size="13" x="93.98510130034971" y="13.325" font-family="微软雅黑" font-weight="normal" font-style="normal" text-decoration="none" family="微软雅黑" text-anchor="middle" size="13">SecureServing</text></g></g><g id="ProcessOnG1025" transform="matrix(1.0,0.0,0.0,1.0,177.95857083968195,324.9338615447687)" opacity="1.0"><path id="ProcessOnPath1026" d="M0.0 0.0L209.97020260069942 0.0L209.97020260069942 32.68269101145962L0.0 32.68269101145962Z" stroke="#323232" stroke-width="2.0" stroke-dasharray="none" opacity="1.0" fill="#ffffff"/><g id="ProcessOnG1027" transform="matrix(1.0,0.0,0.0,1.0,10.0,8.216345505729809)"><text id="ProcessOnText1028" fill="#000000" font-size="13" x="93.98510130034971" y="13.325" font-family="微软雅黑" font-weight="normal" font-style="normal" text-decoration="none" family="微软雅黑" text-anchor="middle" size="13">InsecureServing</text></g></g><g id="ProcessOnG1029" transform="matrix(1.0,0.0,0.0,1.0,177.95857083968195,357.61655255622856)" opacity="1.0"><path id="ProcessOnPath1030" d="M0.0 0.0L209.97020260069942 0.0L209.97020260069942 32.68269101145962L0.0 32.68269101145962Z" stroke="#323232" stroke-width="2.0" stroke-dasharray="none" opacity="1.0" fill="#ffffff"/><g id="ProcessOnG1031" transform="matrix(1.0,0.0,0.0,1.0,10.0,8.216345505729809)"><text id="ProcessOnText1032" fill="#000000" font-size="13" x="93.98510130034971" y="13.325" font-family="微软雅黑" font-weight="normal" font-style="normal" text-decoration="none" family="微软雅黑" text-anchor="middle" size="13">Authentication</text></g></g><g id="ProcessOnG1033" transform="matrix(1.0,0.0,0.0,1.0,177.95857083968195,390.29924356768794)" opacity="1.0"><path id="ProcessOnPath1034" d="M0.0 0.0L209.97020260069942 0.0L209.97020260069942 32.68269101145962L0.0 32.68269101145962Z" stroke="#323232" stroke-width="2.0" stroke-dasharray="none" opacity="1.0" fill="#ffffff"/><g id="ProcessOnG1035" transform="matrix(1.0,0.0,0.0,1.0,10.0,8.216345505729809)"><text id="ProcessOnText1036" fill="#000000" font-size="13" x="93.98510130034971" y="13.325" font-family="微软雅黑" font-weight="normal" font-style="normal" text-decoration="none" family="微软雅黑" text-anchor="middle" size="13">Authorization</text></g></g><g id="ProcessOnG1037" transform="matrix(1.0,0.0,0.0,1.0,177.95857083968195,422.98193457914755)" opacity="1.0"><path id="ProcessOnPath1038" d="M0.0 0.0L209.97020260069942 0.0L209.97020260069942 32.68269101145962L0.0 32.68269101145962Z" stroke="#323232" stroke-width="2.0" stroke-dasharray="none" opacity="1.0" fill="#ffffff"/><g id="ProcessOnG1039" transform="matrix(1.0,0.0,0.0,1.0,10.0,8.216345505729809)"><text id="ProcessOnText1040" fill="#000000" font-size="13" x="93.98510130034971" y="13.325" font-family="微软雅黑" font-weight="normal" font-style="normal" text-decoration="none" family="微软雅黑" text-anchor="middle" size="13">Client</text></g></g><g id="ProcessOnG1041" transform="matrix(1.0,0.0,0.0,1.0,177.95857083968195,455.6646255906075)" opacity="1.0"><path id="ProcessOnPath1042" d="M0.0 0.0L209.97020260069942 0.0L209.97020260069942 32.68269101145962L0.0 32.68269101145962Z" stroke="#323232" stroke-width="2.0" stroke-dasharray="none" opacity="1.0" fill="#ffffff"/><g id="ProcessOnG1043" transform="matrix(1.0,0.0,0.0,1.0,10.0,8.216345505729809)"><text id="ProcessOnText1044" fill="#000000" font-size="13" x="93.98510130034971" y="13.325" font-family="微软雅黑" font-weight="normal" font-style="normal" text-decoration="none" family="微软雅黑" text-anchor="middle" size="13">LeaderElectionClient</text></g></g><g id="ProcessOnG1045" transform="matrix(1.0,0.0,0.0,1.0,177.95857083968195,488.34731660206705)" opacity="1.0"><path id="ProcessOnPath1046" d="M0.0 0.0L209.97020260069942 0.0L209.97020260069942 32.68269101145962L0.0 32.68269101145962Z" stroke="#323232" stroke-width="2.0" stroke-dasharray="none" opacity="1.0" fill="#ffffff"/><g id="ProcessOnG1047" transform="matrix(1.0,0.0,0.0,1.0,10.0,8.216345505729809)"><text id="ProcessOnText1048" fill="#000000" font-size="13" x="93.98510130034971" y="13.325" font-family="微软雅黑" font-weight="normal" font-style="normal" text-decoration="none" family="微软雅黑" text-anchor="middle" size="13">Kubeconfig</text></g></g><g id="ProcessOnG1049" transform="matrix(1.0,0.0,0.0,1.0,177.95857083968195,521.0300076135264)" opacity="1.0"><path id="ProcessOnPath1050" d="M0.0 0.0L209.97020260069942 0.0L209.97020260069942 32.68269101145962L0.0 32.68269101145962Z" stroke="#323232" stroke-width="2.0" stroke-dasharray="none" opacity="1.0" fill="#ffffff"/><g id="ProcessOnG1051" transform="matrix(1.0,0.0,0.0,1.0,10.0,8.216345505729809)"><text id="ProcessOnText1052" fill="#000000" font-size="13" x="93.98510130034971" y="13.325" font-family="微软雅黑" font-weight="normal" font-style="normal" text-decoration="none" family="微软雅黑" text-anchor="middle" size="13">EventRecorder</text></g></g><g id="ProcessOnG1053" transform="matrix(1.0,0.0,0.0,1.0,626.1787570530022,586.0486355474121)" opacity="1.0"><path id="ProcessOnPath1054" d="M0.0 0.0L209.97020260069942 0.0L209.97020260069942 33.16279801549316L0.0 33.16279801549316Z" stroke="#323232" stroke-width="2.0" stroke-dasharray="none" opacity="1.0" fill="#ffffff"/><g id="ProcessOnG1055" transform="matrix(1.0,0.0,0.0,1.0,10.0,8.45639900774658)"><text id="ProcessOnText1056" fill="#000000" font-size="13" x="93.98510130034971" y="13.325" font-family="微软雅黑" font-weight="normal" font-style="normal" text-decoration="none" family="微软雅黑" text-anchor="middle" size="13">SimpleControllerClientBuilder</text></g></g><g id="ProcessOnG1057" transform="matrix(1.0,0.0,0.0,1.0,626.1787570530022,619.2114335629057)" opacity="1.0"><path id="ProcessOnPath1058" d="M0.0 0.0L209.97020260069942 0.0L209.97020260069942 33.16279801549316L0.0 33.16279801549316Z" stroke="#323232" stroke-width="2.0" stroke-dasharray="none" opacity="1.0" fill="#ffffff"/><g id="ProcessOnG1059" transform="matrix(1.0,0.0,0.0,1.0,10.0,8.45639900774658)"><text id="ProcessOnText1060" fill="#000000" font-size="13" x="93.98510130034971" y="13.325" font-family="微软雅黑" font-weight="normal" font-style="normal" text-decoration="none" family="微软雅黑" text-anchor="middle" size="13">ClientConfig</text></g></g><g id="ProcessOnG1061"><path id="ProcessOnPath1062" d="M387.92877344038004 504.68866210779686C496.70476947198165 504.68866210779686 517.402761021401 635.7928325706524 626.1787570530022 635.7928325706524" stroke="#323232" stroke-width="2.0" stroke-dasharray="none" fill="none" marker-end="url(#ProcessOnMarker1063)"/></g><g id="ProcessOnG1065" transform="matrix(1.0,0.0,0.0,1.0,626.1787570530022,399.3845840558043)" opacity="1.0"><path id="ProcessOnPath1066" d="M0.0 0.0L209.97020260069942 0.0L209.97020260069942 33.16279801549316L0.0 33.16279801549316Z" stroke="#323232" stroke-width="2.0" stroke-dasharray="none" opacity="1.0" fill="#ffffff"/><g id="ProcessOnG1067" transform="matrix(1.0,0.0,0.0,1.0,10.0,8.45639900774658)"><text id="ProcessOnText1068" fill="#000000" font-size="13" x="93.98510130034971" y="13.325" font-family="微软雅黑" font-weight="normal" font-style="normal" text-decoration="none" family="微软雅黑" text-anchor="middle" size="13">SAControllerClientBuilder</text></g></g><g id="ProcessOnG1069" transform="matrix(1.0,0.0,0.0,1.0,626.1787570530022,498.8729781022838)" opacity="1.0"><path id="ProcessOnPath1070" d="M0.0 0.0L209.97020260069942 0.0L209.97020260069942 33.16279801549316L0.0 33.16279801549316Z" stroke="#323232" stroke-width="2.0" stroke-dasharray="none" opacity="1.0" fill="#ffffff"/><g id="ProcessOnG1071" transform="matrix(1.0,0.0,0.0,1.0,10.0,8.45639900774658)"><text id="ProcessOnText1072" fill="#000000" font-size="13" x="93.98510130034971" y="13.325" font-family="微软雅黑" font-weight="normal" font-style="normal" text-decoration="none" family="微软雅黑" text-anchor="middle" size="13">ClientConfig</text></g></g><g id="ProcessOnG1073" transform="matrix(1.0,0.0,0.0,1.0,626.1787570530022,432.54738207129725)" opacity="1.0"><path id="ProcessOnPath1074" d="M0.0 0.0L209.97020260069942 0.0L209.97020260069942 33.16279801549316L0.0 33.16279801549316Z" stroke="#323232" stroke-width="2.0" stroke-dasharray="none" opacity="1.0" fill="#ffffff"/><g id="ProcessOnG1075" transform="matrix(1.0,0.0,0.0,1.0,10.0,8.45639900774658)"><text id="ProcessOnText1076" fill="#000000" font-size="13" x="93.98510130034971" y="13.325" font-family="微软雅黑" font-weight="normal" font-style="normal" text-decoration="none" family="微软雅黑" text-anchor="middle" size="13">CoreClient</text></g></g><g id="ProcessOnG1077" transform="matrix(1.0,0.0,0.0,1.0,626.1787570530022,465.7101800867909)" opacity="1.0"><path id="ProcessOnPath1078" d="M0.0 0.0L209.97020260069942 0.0L209.97020260069942 33.16279801549316L0.0 33.16279801549316Z" stroke="#323232" stroke-width="2.0" stroke-dasharray="none" opacity="1.0" fill="#ffffff"/><g id="ProcessOnG1079" transform="matrix(1.0,0.0,0.0,1.0,10.0,8.45639900774658)"><text id="ProcessOnText1080" fill="#000000" font-size="13" x="93.98510130034971" y="13.325" font-family="微软雅黑" font-weight="normal" font-style="normal" text-decoration="none" family="微软雅黑" text-anchor="middle" size="13">AuthenticationClient</text></g></g><g id="ProcessOnG1081"><path id="ProcessOnPath1082" d="M387.92877344038004 439.3232800848776C484.7662285173891 439.3232800848776 529.3413019759936 482.2915790945375 626.1787570530022 482.2915790945375" stroke="#323232" stroke-width="2.0" stroke-dasharray="10.0 4.0" fill="none" marker-end="url(#ProcessOnMarker1083)"/><g id="ProcessOnG1085" transform="matrix(1.0,0.0,0.0,1.0,507.0537652466913,452.6824295897075)"><path id="ProcessOnPath1086" d="M0 0H115.99999999999994V16.25H0Z" fill="#fff" transform="matrix(1.0,0.0,0.0,1.0,-57.99999999999997,0.0)"/><text id="ProcessOnText1087" fill="#000000" font-size="13" x="0.0" y="13.325" font-family="微软雅黑" font-weight="normal" font-style="normal" text-decoration="none" family="微软雅黑" text-anchor="middle" size="13">AuthenticationV1()</text></g></g><g id="ProcessOnG1088" transform="matrix(1.0,0.0,0.0,1.0,626.1787570530022,532.0357761177769)" opacity="1.0"><path id="ProcessOnPath1089" d="M0.0 0.0L209.97020260069942 0.0L209.97020260069942 33.16279801549316L0.0 33.16279801549316Z" stroke="#323232" stroke-width="2.0" stroke-dasharray="none" opacity="1.0" fill="#ffffff"/><g id="ProcessOnG1090" transform="matrix(1.0,0.0,0.0,1.0,10.0,8.45639900774658)"><text id="ProcessOnText1091" fill="#000000" font-size="13" x="93.98510130034971" y="13.325" font-family="微软雅黑" font-weight="normal" font-style="normal" text-decoration="none" family="微软雅黑" text-anchor="middle" size="13">Namespace: "kube-system"</text></g></g><g id="ProcessOnG1092" transform="matrix(1.0,0.0,0.0,1.0,931.2244616660146,503.0233479844918)" opacity="1.0"><path id="ProcessOnPath1093" d="M0.0 0.0L209.97020260069942 0.0L209.97020260069942 32.83347746976043L0.0 32.83347746976043Z" stroke="#323232" stroke-width="2.0" stroke-dasharray="10.0 4.0" opacity="1.0" fill="#ffffff"/><g id="ProcessOnG1094" transform="matrix(1.0,0.0,0.0,1.0,10.0,8.291738734880216)"><text id="ProcessOnText1095" fill="#000000" font-size="13" x="93.98510130034971" y="13.325" font-family="微软雅黑" font-weight="normal" font-style="normal" text-decoration="none" family="微软雅黑" text-anchor="middle" size="13">ControllerClientBuilder</text></g></g><g id="ProcessOnG1096"><path id="ProcessOnPath1097" d="M836.1489596537037 602.6300345551589C886.6819880669129 602.6300345551589 879.8001128653128 512.0429390321102 916.1436171388306 517.2707790505757" stroke="#323232" stroke-width="2.0" stroke-dasharray="none" fill="none" marker-end="url(#ProcessOnMarker1098)"/></g><g id="ProcessOnG1100"><path id="ProcessOnPath1101" d="M836.1489596537037 415.96598306355105C892.3574874198976 415.96598306355105 873.8001128653123 530.0429390321102 916.2416507228276 522.2065182937487" stroke="#323232" stroke-width="2.0" stroke-dasharray="none" fill="none" marker-end="url(#ProcessOnMarker1102)"/></g><g id="ProcessOnG1104" transform="matrix(1.0,0.0,0.0,1.0,1261.7907201763019,101.24557797531011)" opacity="1.0"><path id="ProcessOnPath1105" d="M0.0 0.0L209.97020260069942 0.0L209.97020260069942 33.16279801549316L0.0 33.16279801549316Z" stroke="#323232" stroke-width="2.0" stroke-dasharray="none" opacity="1.0" fill="#ffffff"/><g id="ProcessOnG1106" transform="matrix(1.0,0.0,0.0,1.0,10.0,8.45639900774658)"><text id="ProcessOnText1107" fill="#000000" font-size="13" x="93.98510130034971" y="13.325" font-family="微软雅黑" font-weight="normal" font-style="normal" text-decoration="none" family="微软雅黑" text-anchor="middle" size="13">ControllerContext</text></g></g><g id="ProcessOnG1108" transform="matrix(1.0,0.0,0.0,1.0,1261.7907201763019,167.57117400629662)" opacity="1.0"><path id="ProcessOnPath1109" d="M0.0 0.0L209.97020260069942 0.0L209.97020260069942 33.16279801549316L0.0 33.16279801549316Z" stroke="#323232" stroke-width="2.0" stroke-dasharray="none" opacity="1.0" fill="#ffffff"/><g id="ProcessOnG1110" transform="matrix(1.0,0.0,0.0,1.0,10.0,8.45639900774658)"><text id="ProcessOnText1111" fill="#000000" font-size="13" x="93.98510130034971" y="13.325" font-family="微软雅黑" font-weight="normal" font-style="normal" text-decoration="none" family="微软雅黑" text-anchor="middle" size="13">ClientBuilder</text></g></g><g id="ProcessOnG1112"><path id="ProcessOnPath1113" d="M1261.7907201763019 184.15257301404318C1119.264301265196 184.15257301404318 1283.721083177818 519.4400867193718 1141.1946642667124 519.4400867193718" stroke="#323232" stroke-width="2.0" stroke-dasharray="none" fill="none" marker-end="url(#ProcessOnMarker1114)"/></g><g id="ProcessOnG1116" transform="matrix(1.0,0.0,0.0,1.0,1261.7907201763019,200.73397202178967)" opacity="1.0"><path id="ProcessOnPath1117" d="M0.0 0.0L209.97020260069942 0.0L209.97020260069942 33.16279801549316L0.0 33.16279801549316Z" stroke="#323232" stroke-width="2.0" stroke-dasharray="none" opacity="1.0" fill="#ffffff"/><g id="ProcessOnG1118" transform="matrix(1.0,0.0,0.0,1.0,10.0,8.45639900774658)"><text id="ProcessOnText1119" fill="#000000" font-size="13" x="93.98510130034971" y="13.325" font-family="微软雅黑" font-weight="normal" font-style="normal" text-decoration="none" family="微软雅黑" text-anchor="middle" size="13">InformerFactory</text></g></g><g id="ProcessOnG1120" transform="matrix(1.0,0.0,0.0,1.0,1261.7907201763019,134.40837599080336)" opacity="1.0"><path id="ProcessOnPath1121" d="M0.0 0.0L209.97020260069942 0.0L209.97020260069942 33.16279801549316L0.0 33.16279801549316Z" stroke="#323232" stroke-width="2.0" stroke-dasharray="none" opacity="1.0" fill="#ffffff"/><g id="ProcessOnG1122" transform="matrix(1.0,0.0,0.0,1.0,10.0,8.45639900774658)"><text id="ProcessOnText1123" fill="#000000" font-size="13" x="93.98510130034971" y="13.325" font-family="微软雅黑" font-weight="normal" font-style="normal" text-decoration="none" family="微软雅黑" text-anchor="middle" size="13">ComponentConfig</text></g></g><g id="ProcessOnG1124" transform="matrix(1.0,0.0,0.0,1.0,931.2244616660146,535.8568254542521)" opacity="1.0"><path id="ProcessOnPath1125" d="M0.0 0.0L209.97020260069942 0.0L209.97020260069942 33.530819201854676L0.0 33.530819201854676Z" stroke="#323232" stroke-width="2.0" stroke-dasharray="10.0 4.0" opacity="1.0" fill="#ffffff"/><g id="ProcessOnG1126" transform="matrix(1.0,0.0,0.0,1.0,10.0,8.640409600927338)"><text id="ProcessOnText1127" fill="#000000" font-size="13" x="93.98510130034971" y="13.325" font-family="微软雅黑" font-weight="normal" font-style="normal" text-decoration="none" family="微软雅黑" text-anchor="middle" size="13">...</text></g></g><g id="ProcessOnG1128"><path id="ProcessOnPath1129" d="M1141.1946642667124 586.1385415167985C1186.859845751796 586.1385415167985 1208.864432815995 599.8633038505455 1254.5296143010787 599.8633038505455" stroke="#323232" stroke-width="2.0" stroke-dasharray="10.0 4.0" fill="none" marker-end="url(#ProcessOnMarker1130)"/></g><g id="ProcessOnG1132" transform="matrix(1.0,0.0,0.0,1.0,1261.7907201763019,430.1262690210395)" opacity="1.0"><path id="ProcessOnPath1133" d="M0.0 0.0L209.97020260069942 0.0L209.97020260069942 32.68269101145962L0.0 32.68269101145962Z" stroke="#323232" stroke-width="2.0" stroke-dasharray="none" opacity="1.0" fill="#ffffff"/><g id="ProcessOnG1134" transform="matrix(1.0,0.0,0.0,1.0,10.0,8.216345505729809)"><text id="ProcessOnText1135" fill="#000000" font-size="13" x="93.98510130034971" y="13.325" font-family="微软雅黑" font-weight="normal" font-style="normal" text-decoration="none" family="微软雅黑" text-anchor="middle" size="13">sharedInformerFactory</text></g></g><g id="ProcessOnG1136" transform="matrix(1.0,0.0,0.0,1.0,1261.7907201763019,462.8089600324998)" opacity="1.0"><path id="ProcessOnPath1137" d="M0.0 0.0L209.97020260069942 0.0L209.97020260069942 32.68269101145962L0.0 32.68269101145962Z" stroke="#323232" stroke-width="2.0" stroke-dasharray="none" opacity="1.0" fill="#ffffff"/><g id="ProcessOnG1138" transform="matrix(1.0,0.0,0.0,1.0,10.0,8.216345505729809)"><text id="ProcessOnText1139" fill="#000000" font-size="13" x="93.98510130034971" y="13.325" font-family="微软雅黑" font-weight="normal" font-style="normal" text-decoration="none" family="微软雅黑" text-anchor="middle" size="13">client</text></g></g><g id="ProcessOnG1140"><path id="ProcessOnPath1141" d="M1471.7609227770015 479.15030553822965C1520.1333969664913 479.15030553822965 1512.8722910912682 599.8633038505455 1464.4998169017783 599.8633038505455" stroke="#323232" stroke-width="2.0" stroke-dasharray="none" fill="none" marker-end="url(#ProcessOnMarker1142)"/></g><g id="ProcessOnG1144" transform="matrix(1.0,0.0,0.0,1.0,1261.7907201763019,495.49165104395945)" opacity="1.0"><path id="ProcessOnPath1145" d="M0.0 0.0L209.97020260069942 0.0L209.97020260069942 32.68269101145962L0.0 32.68269101145962Z" stroke="#323232" stroke-width="2.0" stroke-dasharray="none" opacity="1.0" fill="#ffffff"/><g id="ProcessOnG1146" transform="matrix(1.0,0.0,0.0,1.0,10.0,8.216345505729809)"><text id="ProcessOnText1147" fill="#000000" font-size="13" x="93.98510130034971" y="13.325" font-family="微软雅黑" font-weight="normal" font-style="normal" text-decoration="none" family="微软雅黑" text-anchor="middle" size="13">...</text></g></g><g id="ProcessOnG1148" transform="matrix(1.0,0.0,0.0,1.0,931.2244616660146,569.3876446561068)" opacity="1.0"><path id="ProcessOnPath1149" d="M0.0 0.0L209.97020260069942 0.0L209.97020260069942 33.50179372138307L0.0 33.50179372138307Z" stroke="#323232" stroke-width="2.0" stroke-dasharray="10.0 4.0" opacity="1.0" fill="#ffffff"/><g id="ProcessOnG1150" transform="matrix(1.0,0.0,0.0,1.0,10.0,8.625896860691537)"><text id="ProcessOnText1151" fill="#000000" font-size="13" x="93.98510130034971" y="13.325" font-family="微软雅黑" font-weight="normal" font-style="normal" text-decoration="none" family="微软雅黑" text-anchor="middle" size="13">ClientOrDie</text></g></g><g id="ProcessOnG1152" transform="matrix(1.0,0.0,0.0,1.0,931.2244616660146,602.8894383774899)" opacity="1.0"><path id="ProcessOnPath1153" d="M0.0 0.0L209.97020260069942 0.0L209.97020260069942 33.50179372138307L0.0 33.50179372138307Z" stroke="#323232" stroke-width="2.0" stroke-dasharray="10.0 4.0" opacity="1.0" fill="#ffffff"/><g id="ProcessOnG1154" transform="matrix(1.0,0.0,0.0,1.0,10.0,8.625896860691537)"><text id="ProcessOnText1155" fill="#000000" font-size="13" x="93.98510130034971" y="13.325" font-family="微软雅黑" font-weight="normal" font-style="normal" text-decoration="none" family="微软雅黑" text-anchor="middle" size="13">...</text></g></g><g id="ProcessOnG1156"><path id="ProcessOnPath1157" d="M1261.7907201763019 150.98977499855008C908.6924968214198 150.98977499855008 741.0269967952644 275.9098250275793 387.92877344038004 275.9098250275793" stroke="#323232" stroke-width="2.0" stroke-dasharray="none" fill="none" marker-end="url(#ProcessOnMarker1158)"/></g><g id="ProcessOnG1160" transform="matrix(1.0,0.0,0.0,1.0,1261.7907201763019,233.8967700372828)" opacity="1.0"><path id="ProcessOnPath1161" d="M0.0 0.0L209.97020260069942 0.0L209.97020260069942 32.68269101145962L0.0 32.68269101145962Z" stroke="#323232" stroke-width="2.0" stroke-dasharray="none" opacity="1.0" fill="#ffffff"/><g id="ProcessOnG1162" transform="matrix(1.0,0.0,0.0,1.0,10.0,8.216345505729809)"><text id="ProcessOnText1163" fill="#000000" font-size="13" x="93.98510130034971" y="13.325" font-family="微软雅黑" font-weight="normal" font-style="normal" text-decoration="none" family="微软雅黑" text-anchor="middle" size="13">...</text></g></g><g id="ProcessOnG1164"><path id="ProcessOnPath1165" d="M1141.1946642667124 619.6403352381814C1187.2136896710815 619.6403352381814 1208.5105888967096 599.8633038505455 1254.5296143010787 599.8633038505455" stroke="#323232" stroke-width="2.0" stroke-dasharray="10.0 4.0" fill="none" marker-end="url(#ProcessOnMarker1166)"/></g><g id="ProcessOnG1168" transform="matrix(1.0,0.0,0.0,1.0,251.29190417301515,843.5532472107963)" opacity="1.0"><path id="ProcessOnPath1169" d="M0.0 0.0L209.97020260069942 0.0L209.97020260069942 32.68269101145962L0.0 32.68269101145962Z" stroke="#66ffff" stroke-width="2.0" stroke-dasharray="none" opacity="1.0" fill="#ffffff"/><g id="ProcessOnG1170" transform="matrix(1.0,0.0,0.0,1.0,10.0,8.216345505729809)"><text id="ProcessOnText1171" fill="#66ffff" font-size="13" x="93.98510130034971" y="13.325" font-family="微软雅黑" font-weight="normal" font-style="normal" text-decoration="none" family="微软雅黑" text-anchor="middle" size="13">kubernetes.Clientset</text></g></g><g id="ProcessOnG1172"><path id="ProcessOnPath1173" d="M177.95857083968195 439.3232800848776C7.191826167782324 439.3232800848776 80.52515950111544 859.8945927165261 251.29190417301515 859.8945927165261" stroke="#323232" stroke-width="2.0" stroke-dasharray="none" fill="none" marker-end="url(#ProcessOnMarker1174)"/></g><g id="ProcessOnG1176"><path id="ProcessOnPath1177" d="M177.95857083968195 472.00597109633725C20.054620003643123 472.00597109633725 93.38795333697632 859.8945927165261 251.29190417301515 859.8945927165261" stroke="#323232" stroke-width="2.0" stroke-dasharray="none" fill="none" marker-end="url(#ProcessOnMarker1178)"/></g><g id="ProcessOnG1180" transform="matrix(1.0,0.0,0.0,1.0,606.2985489570315,880.244951916202)" opacity="1.0"><path id="ProcessOnPath1181" d="M0.0 0.0L209.97020260069942 0.0L209.97020260069942 32.68269101145962L0.0 32.68269101145962Z" stroke="#323232" stroke-width="2.0" stroke-dasharray="none" opacity="1.0" fill="#ffffff"/><g id="ProcessOnG1182" transform="matrix(1.0,0.0,0.0,1.0,10.0,8.216345505729809)"><text id="ProcessOnText1183" fill="#000000" font-size="13" x="93.98510130034971" y="13.325" font-family="微软雅黑" font-weight="normal" font-style="normal" text-decoration="none" family="微软雅黑" text-anchor="middle" size="13">XXXClient</text></g></g><g id="ProcessOnG1184"><path id="ProcessOnPath1185" d="M460.018751557731 895.7479564808506C518.5316314290397 895.7479564808506 547.7856690857226 896.5862974219318 606.2985489570315 896.5862974219318" stroke="#323232" stroke-width="2.0" stroke-dasharray="none" fill="none" marker-end="url(#ProcessOnMarker1186)"/></g><g id="ProcessOnG1188" transform="matrix(1.0,0.0,0.0,1.0,1100.1129476344133,879.8032472107963)" opacity="1.0"><path id="ProcessOnPath1189" d="M0.0 0.0L209.97020260069942 0.0L209.97020260069942 32.68269101145962L0.0 32.68269101145962Z" stroke="#323232" stroke-width="2.0" stroke-dasharray="10.0 4.0" opacity="1.0" fill="#ffffff"/><g id="ProcessOnG1190" transform="matrix(1.0,0.0,0.0,1.0,10.0,8.216345505729809)"><text id="ProcessOnText1191" fill="#000000" font-size="13" x="93.98510130034971" y="13.325" font-family="微软雅黑" font-weight="normal" font-style="normal" text-decoration="none" family="微软雅黑" text-anchor="middle" size="13">XXXInterface</text></g></g><g id="ProcessOnG1192"><path id="ProcessOnPath1193" d="M387.92877344038004 439.3232800848776C483.3094444727535 439.3232800848776 530.7980860206291 449.12878107904436 626.1787570530022 449.12878107904436" stroke="#323232" stroke-width="2.0" stroke-dasharray="10.0 4.0" fill="none" marker-end="url(#ProcessOnMarker1194)"/><g id="ProcessOnG1196" transform="matrix(1.0,0.0,0.0,1.0,507.0537652466913,436.101030581961)"><path id="ProcessOnPath1197" d="M0 0H53.99999999999994V16.25H0Z" fill="#fff" transform="matrix(1.0,0.0,0.0,1.0,-26.99999999999997,0.0)"/><text id="ProcessOnText1198" fill="#000000" font-size="13" x="0.0" y="13.325" font-family="微软雅黑" font-weight="normal" font-style="normal" text-decoration="none" family="微软雅黑" text-anchor="middle" size="13">CoreV1()</text></g></g><g id="ProcessOnG1199"><path id="ProcessOnPath1200" d="M1359.5147156014284 616.2046493562754C1359.5147156014284 729.912943894962 1423.7914447737996 896.1445927165261 1310.0831502351127 896.1445927165261" stroke="#323232" stroke-width="2.0" stroke-dasharray="10.0 4.0" fill="none" marker-end="url(#ProcessOnMarker1201)"/><g id="ProcessOnG1203" transform="matrix(1.0,0.0,0.0,1.0,1377.4395433702782,790.6902314884082)"><path id="ProcessOnPath1204" d="M0 0H37.0V16.25H0Z" fill="#fff" transform="matrix(1.0,0.0,0.0,1.0,-18.5,0.0)"/><text id="ProcessOnText1205" fill="#000000" font-size="13" x="0.0" y="13.325" font-family="微软雅黑" font-weight="normal" font-style="normal" text-decoration="none" family="微软雅黑" text-anchor="middle" size="13">Core()</text></g></g><g id="ProcessOnG1206" transform="matrix(1.0,0.0,0.0,1.0,1261.7907201763019,335.4647360676277)" opacity="1.0"><path id="ProcessOnPath1207" d="M0.0 0.0L209.97020260069942 0.0L209.97020260069942 33.16279801549316L0.0 33.16279801549316Z" stroke="#323232" stroke-width="2.0" stroke-dasharray="10.0 4.0" opacity="1.0" fill="#ffffff"/><g id="ProcessOnG1208" transform="matrix(1.0,0.0,0.0,1.0,10.0,8.45639900774658)"><text id="ProcessOnText1209" fill="#000000" font-size="13" x="93.98510130034971" y="13.325" font-family="微软雅黑" font-weight="normal" font-style="normal" text-decoration="none" family="微软雅黑" text-anchor="middle" size="13">SharedInformerFactory</text></g></g><g id="ProcessOnG1210"><path id="ProcessOnPath1211" d="M1261.7907201763019 446.4676145267695C1224.0221283957437 446.4676145267695 1224.0221283957437 352.04613507537425 1246.5546521988022 352.04613507537425" stroke="#323232" stroke-width="2.0" stroke-dasharray="10.0 4.0" fill="none" marker-end="url(#ProcessOnMarker1212)"/></g><g id="ProcessOnG1214"><path id="ProcessOnPath1215" d="M1471.7609227770015 217.31537102953627C1525.6532283953368 217.31537102953627 1525.6532283953368 352.04613507537425 1471.7609227770015 352.04613507537425" stroke="#323232" stroke-width="2.0" stroke-dasharray="none" fill="none" marker-end="url(#ProcessOnMarker1216)"/></g><g id="ProcessOnG1218" transform="matrix(1.0,0.0,0.0,1.0,183.46634236984028,685.0300076135264)" opacity="1.0"><path id="ProcessOnPath1219" d="M0.0 0.0L209.97020260069942 0.0L209.97020260069942 32.68269101145962L0.0 32.68269101145962Z" stroke="#66ffff" stroke-width="2.0" stroke-dasharray="10.0 4.0" opacity="1.0" fill="#ffffff"/><g id="ProcessOnG1220" transform="matrix(1.0,0.0,0.0,1.0,10.0,8.216345505729809)"><text id="ProcessOnText1221" fill="#66ffff" font-size="13" x="93.98510130034971" y="13.325" font-family="微软雅黑" font-weight="normal" font-style="normal" text-decoration="none" family="微软雅黑" text-anchor="middle" size="13">record.EventRecorder</text></g></g><g id="ProcessOnG1222"><path id="ProcessOnPath1223" d="M177.95857083968195 537.3713531192562C112.32158669540107 537.3713531192562 117.8293582255593 701.3713531192562 183.46634236984028 701.3713531192562" stroke="#323232" stroke-width="2.0" stroke-dasharray="none" fill="none" marker-end="url(#ProcessOnMarker1224)"/></g><g id="ProcessOnG1226" transform="matrix(1.0,0.0,0.0,1.0,179.13654363856546,145.27078248060857)" opacity="1.0"><path id="ProcessOnPath1227" d="M0.0 0.0L209.97020260069942 0.0L209.97020260069942 32.68269101145962L0.0 32.68269101145962Z" stroke="#323232" stroke-width="2.0" stroke-dasharray="none" opacity="1.0" fill="#ffffff"/><g id="ProcessOnG1228" transform="matrix(1.0,0.0,0.0,1.0,10.0,8.216345505729809)"><text id="ProcessOnText1229" fill="#000000" font-size="13" x="93.98510130034971" y="13.325" font-family="微软雅黑" font-weight="normal" font-style="normal" text-decoration="none" family="微软雅黑" text-anchor="middle" size="13">Config</text></g></g><g id="ProcessOnG1230" transform="matrix(1.0,0.0,0.0,1.0,179.13654363856546,177.95347349206827)" opacity="1.0"><path id="ProcessOnPath1231" d="M0.0 0.0L209.97020260069942 0.0L209.97020260069942 32.68269101145962L0.0 32.68269101145962Z" stroke="#323232" stroke-width="2.0" stroke-dasharray="none" opacity="1.0" fill="#ffffff"/><g id="ProcessOnG1232" transform="matrix(1.0,0.0,0.0,1.0,10.0,8.216345505729809)"><text id="ProcessOnText1233" fill="#000000" font-size="13" x="93.98510130034971" y="13.325" font-family="微软雅黑" font-weight="normal" font-style="normal" text-decoration="none" family="微软雅黑" text-anchor="middle" size="13">Generic</text></g></g><g id="ProcessOnG1234"><path id="ProcessOnPath1235" d="M179.13654363856546 194.29481899779785C146.48714099984943 194.29481899779785 145.30916820096598 275.9098250275794 177.95857083968195 275.9098250275794" stroke="#323232" stroke-width="2.0" stroke-dasharray="none" fill="none" marker-end="url(#ProcessOnMarker1236)"/></g><g id="ProcessOnG1238" transform="matrix(1.0,0.0,0.0,1.0,179.13654363856546,210.6361645035276)" opacity="1.0"><path id="ProcessOnPath1239" d="M0.0 0.0L209.97020260069942 0.0L209.97020260069942 32.68269101145962L0.0 32.68269101145962Z" stroke="#323232" stroke-width="2.0" stroke-dasharray="none" opacity="1.0" fill="#ffffff"/><g id="ProcessOnG1240" transform="matrix(1.0,0.0,0.0,1.0,10.0,8.216345505729809)"><text id="ProcessOnText1241" fill="#000000" font-size="13" x="93.98510130034971" y="13.325" font-family="微软雅黑" font-weight="normal" font-style="normal" text-decoration="none" family="微软雅黑" text-anchor="middle" size="13">Extra</text></g></g><g id="ProcessOnG1242"><path id="ProcessOnPath1243" d="M816.2687515577309 896.5862974219318C929.8065674602512 896.5862974219318 986.5751317318941 896.1445927165261 1084.8768796569136 896.1445927165261" stroke="#323232" stroke-width="2.0" stroke-dasharray="none" fill="none" marker-end="url(#ProcessOnMarker1244)"/></g><g id="ProcessOnG1246" transform="matrix(1.0,0.0,0.0,1.0,250.04854895703238,879.4066109751208)" opacity="1.0"><path id="ProcessOnPath1247" d="M0.0 0.0L209.97020260069942 0.0L209.97020260069942 32.68269101145962L0.0 32.68269101145962Z" stroke="#323232" stroke-width="2.0" stroke-dasharray="none" opacity="1.0" fill="#ffffff"/><g id="ProcessOnG1248" transform="matrix(1.0,0.0,0.0,1.0,10.0,8.216345505729809)"><text id="ProcessOnText1249" fill="#000000" font-size="13" x="93.98510130034971" y="13.325" font-family="微软雅黑" font-weight="normal" font-style="normal" text-decoration="none" family="微软雅黑" text-anchor="middle" size="13">xxx</text></g></g><g id="ProcessOnG1250" transform="matrix(1.0,0.0,0.0,1.0,606.3766739570315,912.2743699564302)" opacity="1.0"><path id="ProcessOnPath1251" d="M0.0 0.0L209.97020260069942 0.0L209.97020260069942 32.68269101145962L0.0 32.68269101145962Z" stroke="#323232" stroke-width="2.0" stroke-dasharray="10.0 4.0" opacity="1.0" fill="#ffffff"/><g id="ProcessOnG1252" transform="matrix(1.0,0.0,0.0,1.0,10.0,8.216345505729809)"><text id="ProcessOnText1253" fill="#000000" font-size="13" x="93.98510130034971" y="13.325" font-family="微软雅黑" font-weight="normal" font-style="normal" text-decoration="none" family="微软雅黑" text-anchor="middle" size="13">rest.Interface</text></g></g><g id="ProcessOnG1254" transform="matrix(1.0,0.0,0.0,1.0,642.1787570530022,144.79067547657507)" opacity="1.0"><path id="ProcessOnPath1255" d="M0.0 0.0L209.97020260069942 0.0L209.97020260069942 33.16279801549316L0.0 33.16279801549316Z" stroke="#66ffff" stroke-width="2.0" stroke-dasharray="none" opacity="1.0" fill="#ffffff"/><g id="ProcessOnG1256" transform="matrix(1.0,0.0,0.0,1.0,10.0,8.45639900774658)"><text id="ProcessOnText1257" fill="#66ffff" font-size="13" x="93.98510130034971" y="13.325" font-family="微软雅黑" font-weight="normal" font-style="normal" text-decoration="none" family="微软雅黑" text-anchor="middle" size="13">Controller</text></g></g><g id="ProcessOnG1258"><path id="ProcessOnPath1259" d="M1261.7907201763019 217.31537102953615C1096.4130799017346 217.31537102953615 1017.526599928269 161.37207448432164 852.1489596537017 161.37207448432167" stroke="#cc0000" stroke-width="2.0" stroke-dasharray="10.0 4.0" fill="none" marker-end="url(#ProcessOnMarker1260)"/></g><g id="ProcessOnG1262"><path id="ProcessOnPath1263" d="M836.1489596537017 415.96598306355094C938.1874294859376 415.96598306355094 954.1874294859379 161.37207448432164 852.1489596537017 161.37207448432164" stroke="#cc0000" stroke-width="2.0" stroke-dasharray="10.0 4.0" fill="none" marker-end="url(#ProcessOnMarker1264)"/></g><g id="ProcessOnG1266"><path id="ProcessOnPath1267" d="M642.1787570530022 161.37207448432164C589.4945334334628 161.37207448432164 536.8001128653121 147.04293903211013 537.8001128653121 81.04293903211013" stroke="#66ffff" stroke-width="2.0" stroke-dasharray="none" fill="none" marker-end="url(#ProcessOnMarker1268)"/><g id="ProcessOnG1270" transform="matrix(1.0,0.0,0.0,1.0,569.8578511018299,137.83250675821589)"><path id="ProcessOnPath1271" d="M0 0H24.0V16.25H0Z" fill="#fff" transform="matrix(1.0,0.0,0.0,1.0,-12.0,0.0)"/><text id="ProcessOnText1272" fill="#66ffff" font-size="13" x="0.0" y="13.325" font-family="微软雅黑" font-weight="normal" font-style="normal" text-decoration="none" family="微软雅黑" text-anchor="middle" size="13">Run</text></g></g></g></g></svg>