<svg xmlns="http://www.w3.org/2000/svg" xmlns:xlink="http://www.w3.org/1999/xlink" id="processonSvg1000" viewBox="106.06667992304014 99.04293903211024 1541.9819060908885 862.3636719430107" width="1541.9819060908885" height="862.3636719430107"><defs id="ProcessOnDefs1001"><marker id="ProcessOnMarker1007" markerUnits="userSpaceOnUse" orient="auto" markerWidth="14.289086868996552" markerHeight="19.055054660878554" viewBox="-0.5877852522924731 -0.8090169943749475 14.289086868996552 19.055054660878554" refX="12.0" refY="8.71851033606433"><path id="ProcessOnPath1008" d="M0 0L12.0 8.71851033606433L0 17.43702067212866" stroke="#323232" stroke-width="2.0" fill="none" transform="matrix(1.0,0.0,0.0,1.0,0.0,0.0)"/></marker><marker id="ProcessOnMarker1063" markerUnits="userSpaceOnUse" orient="auto" markerWidth="14.289086868996552" markerHeight="19.055054660878554" viewBox="-0.5877852522924731 -0.8090169943749475 14.289086868996552 19.055054660878554" refX="12.0" refY="8.71851033606433"><path id="ProcessOnPath1064" d="M0 0L12.0 8.71851033606433L0 17.43702067212866" stroke="#323232" stroke-width="2.0" fill="none" transform="matrix(1.0,0.0,0.0,1.0,0.0,0.0)"/></marker><marker id="ProcessOnMarker1083" markerUnits="userSpaceOnUse" orient="auto" markerWidth="14.289086868996552" markerHeight="19.055054660878554" viewBox="-0.5877852522924731 -0.8090169943749475 14.289086868996552 19.055054660878554" refX="12.0" refY="8.71851033606433"><path id="ProcessOnPath1084" d="M0 0L12.0 8.71851033606433L0 17.43702067212866" stroke="#323232" stroke-width="2.0" fill="none" transform="matrix(1.0,0.0,0.0,1.0,0.0,0.0)"/></marker><marker id="ProcessOnMarker1098" markerUnits="userSpaceOnUse" orient="auto" markerWidth="16.23606797749979" markerHeight="10.550836550532098" viewBox="-1.0 -1.3763819204711736 16.23606797749979 10.550836550532098" refX="-1.0" refY="3.8990363547948754"><path id="ProcessOnPath1099" d="M12.0 3.8990363547948754L0.0 7.798072709589751V0.0Z" stroke="#323232" stroke-width="2.0" fill="#fff" transform="matrix(1.0,0.0,0.0,1.0,0.0,0.0)"/></marker><marker id="ProcessOnMarker1102" markerUnits="userSpaceOnUse" orient="auto" markerWidth="16.23606797749979" markerHeight="10.550836550532098" viewBox="-1.0 -1.3763819204711736 16.23606797749979 10.550836550532098" refX="-1.0" refY="3.8990363547948754"><path id="ProcessOnPath1103" d="M12.0 3.8990363547948754L0.0 7.798072709589751V0.0Z" stroke="#323232" stroke-width="2.0" fill="#fff" transform="matrix(1.0,0.0,0.0,1.0,0.0,0.0)"/></marker><marker id="ProcessOnMarker1114" markerUnits="userSpaceOnUse" orient="auto" markerWidth="14.289086868996552" markerHeight="19.055054660878554" viewBox="-0.5877852522924731 -0.8090169943749475 14.289086868996552 19.055054660878554" refX="12.0" refY="8.71851033606433"><path id="ProcessOnPath1115" d="M0 0L12.0 8.71851033606433L0 17.43702067212866" stroke="#323232" stroke-width="2.0" fill="none" transform="matrix(1.0,0.0,0.0,1.0,0.0,0.0)"/></marker><marker id="ProcessOnMarker1130" markerUnits="userSpaceOnUse" orient="auto" markerWidth="14.289086868996552" markerHeight="19.055054660878554" viewBox="-0.5877852522924731 -0.8090169943749475 14.289086868996552 19.055054660878554" refX="12.0" refY="8.71851033606433"><path id="ProcessOnPath1131" d="M0 0L12.0 8.71851033606433L0 17.43702067212866" stroke="#323232" stroke-width="2.0" fill="none" transform="matrix(1.0,0.0,0.0,1.0,0.0,0.0)"/></marker><marker id="ProcessOnMarker1142" markerUnits="userSpaceOnUse" orient="auto" markerWidth="14.289086868996552" markerHeight="19.055054660878554" viewBox="-0.5877852522924731 -0.8090169943749475 14.289086868996552 19.055054660878554" refX="12.0" refY="8.71851033606433"><path id="ProcessOnPath1143" d="M0 0L12.0 8.71851033606433L0 17.43702067212866" stroke="#323232" stroke-width="2.0" fill="none" transform="matrix(1.0,0.0,0.0,1.0,0.0,0.0)"/></marker><marker id="ProcessOnMarker1158" markerUnits="userSpaceOnUse" orient="auto" markerWidth="14.289086868996552" markerHeight="19.055054660878554" viewBox="-0.5877852522924731 -0.8090169943749475 14.289086868996552 19.055054660878554" refX="12.0" refY="8.71851033606433"><path id="ProcessOnPath1159" d="M0 0L12.0 8.71851033606433L0 17.43702067212866" stroke="#323232" stroke-width="2.0" fill="none" transform="matrix(1.0,0.0,0.0,1.0,0.0,0.0)"/></marker><marker id="ProcessOnMarker1166" markerUnits="userSpaceOnUse" orient="auto" markerWidth="14.289086868996552" markerHeight="19.055054660878554" viewBox="-0.5877852522924731 -0.8090169943749475 14.289086868996552 19.055054660878554" refX="12.0" refY="8.71851033606433"><path id="ProcessOnPath1167" d="M0 0L12.0 8.71851033606433L0 17.43702067212866" stroke="#323232" stroke-width="2.0" fill="none" transform="matrix(1.0,0.0,0.0,1.0,0.0,0.0)"/></marker><marker id="ProcessOnMarker1174" markerUnits="userSpaceOnUse" orient="auto" markerWidth="14.289086868996552" markerHeight="19.055054660878554" viewBox="-0.5877852522924731 -0.8090169943749475 14.289086868996552 19.055054660878554" refX="12.0" refY="8.71851033606433"><path id="ProcessOnPath1175" d="M0 0L12.0 8.71851033606433L0 17.43702067212866" stroke="#323232" stroke-width="2.0" fill="none" transform="matrix(1.0,0.0,0.0,1.0,0.0,0.0)"/></marker><marker id="ProcessOnMarker1178" markerUnits="userSpaceOnUse" orient="auto" markerWidth="14.289086868996552" markerHeight="19.055054660878554" viewBox="-0.5877852522924731 -0.8090169943749475 14.289086868996552 19.055054660878554" refX="12.0" refY="8.71851033606433"><path id="ProcessOnPath1179" d="M0 0L12.0 8.71851033606433L0 17.43702067212866" stroke="#323232" stroke-width="2.0" fill="none" transform="matrix(1.0,0.0,0.0,1.0,0.0,0.0)"/></marker><marker id="ProcessOnMarker1186" markerUnits="userSpaceOnUse" orient="auto" markerWidth="14.289086868996552" markerHeight="19.055054660878554" viewBox="-0.5877852522924731 -0.8090169943749475 14.289086868996552 19.055054660878554" refX="12.0" refY="8.71851033606433"><path id="ProcessOnPath1187" d="M0 0L12.0 8.71851033606433L0 17.43702067212866" stroke="#323232" stroke-width="2.0" fill="none" transform="matrix(1.0,0.0,0.0,1.0,0.0,0.0)"/></marker><marker id="ProcessOnMarker1194" markerUnits="userSpaceOnUse" orient="auto" markerWidth="14.289086868996552" markerHeight="19.055054660878554" viewBox="-0.5877852522924731 -0.8090169943749475 14.289086868996552 19.055054660878554" refX="12.0" refY="8.71851033606433"><path id="ProcessOnPath1195" d="M0 0L12.0 8.71851033606433L0 17.43702067212866" stroke="#323232" stroke-width="2.0" fill="none" transform="matrix(1.0,0.0,0.0,1.0,0.0,0.0)"/></marker><marker id="ProcessOnMarker1201" markerUnits="userSpaceOnUse" orient="auto" markerWidth="14.289086868996552" markerHeight="19.055054660878554" viewBox="-0.5877852522924731 -0.8090169943749475 14.289086868996552 19.055054660878554" refX="12.0" refY="8.71851033606433"><path id="ProcessOnPath1202" d="M0 0L12.0 8.71851033606433L0 17.43702067212866" stroke="#323232" stroke-width="2.0" fill="none" transform="matrix(1.0,0.0,0.0,1.0,0.0,0.0)"/></marker><marker id="ProcessOnMarker1212" markerUnits="userSpaceOnUse" orient="auto" markerWidth="16.23606797749979" markerHeight="10.550836550532098" viewBox="-1.0 -1.3763819204711736 16.23606797749979 10.550836550532098" refX="-1.0" refY="3.8990363547948754"><path id="ProcessOnPath1213" d="M12.0 3.8990363547948754L0.0 7.798072709589751V0.0Z" stroke="#323232" stroke-width="2.0" fill="#fff" transform="matrix(1.0,0.0,0.0,1.0,0.0,0.0)"/></marker><marker id="ProcessOnMarker1216" markerUnits="userSpaceOnUse" orient="auto" markerWidth="14.289086868996552" markerHeight="19.055054660878554" viewBox="-0.5877852522924731 -0.8090169943749475 14.289086868996552 19.055054660878554" refX="12.0" refY="8.71851033606433"><path id="ProcessOnPath1217" d="M0 0L12.0 8.71851033606433L0 17.43702067212866" stroke="#323232" stroke-width="2.0" fill="none" transform="matrix(1.0,0.0,0.0,1.0,0.0,0.0)"/></marker><marker id="ProcessOnMarker1224" markerUnits="userSpaceOnUse" orient="auto" markerWidth="14.289086868996552" markerHeight="19.055054660878554" viewBox="-0.5877852522924731 -0.8090169943749475 14.289086868996552 19.055054660878554" refX="12.0" refY="8.71851033606433"><path id="ProcessOnPath1225" d="M0 0L12.0 8.71851033606433L0 17.43702067212866" stroke="#323232" stroke-width="2.0" fill="none" transform="matrix(1.0,0.0,0.0,1.0,0.0,0.0)"/></marker><marker id="ProcessOnMarker1236" markerUnits="userSpaceOnUse" orient="auto" markerWidth="14.289086868996552" markerHeight="19.055054660878554" viewBox="-0.5877852522924731 -0.8090169943749475 14.289086868996552 19.055054660878554" refX="12.0" refY="8.71851033606433"><path id="ProcessOnPath1237" d="M0 0L12.0 8.71851033606433L0 17.43702067212866" stroke="#323232" stroke-width="2.0" fill="none" transform="matrix(1.0,0.0,0.0,1.0,0.0,0.0)"/></marker><marker id="ProcessOnMarker1244" markerUnits="userSpaceOnUse" orient="auto" markerWidth="16.23606797749979" markerHeight="10.550836550532098" viewBox="-1.0 -1.3763819204711736 16.23606797749979 10.550836550532098" refX="-1.0" refY="3.8990363547948754"><path id="ProcessOnPath1245" d="M12.0 3.8990363547948754L0.0 7.798072709589751V0.0Z" stroke="#323232" stroke-width="2.0" fill="#fff" transform="matrix(1.0,0.0,0.0,1.0,0.0,0.0)"/></marker><marker id="ProcessOnMarker1260" markerUnits="userSpaceOnUse" orient="auto" markerWidth="14.289086868996552" markerHeight="19.055054660878554" viewBox="-0.5877852522924731 -0.8090169943749475 14.289086868996552 19.055054660878554" refX="12.0" refY="8.71851033606433"><path id="ProcessOnPath1261" d="M0 0L12.0 8.71851033606433L0 17.43702067212866" stroke="#cc0000" stroke-width="2.0" fill="none" transform="matrix(1.0,0.0,0.0,1.0,0.0,0.0)"/></marker><marker id="ProcessOnMarker1264" markerUnits="userSpaceOnUse" orient="auto" markerWidth="14.289086868996552" markerHeight="19.055054660878554" viewBox="-0.5877852522924731 -0.8090169943749475 14.289086868996552 19.055054660878554" refX="12.0" refY="8.71851033606433"><path id="ProcessOnPath1265" d="M0 0L12.0 8.71851033606433L0 17.43702067212866" stroke="#cc0000" stroke-width="2.0" fill="none" transform="matrix(1.0,0.0,0.0,1.0,0.0,0.0)"/></marker><marker id="ProcessOnMarker1268" markerUnits="userSpaceOnUse" orient="auto" markerWidth="14.289086868996552" markerHeight="19.055054660878554" viewBox="-0.5877852522924731 -0.8090169943749475 14.289086868996552 19.055054660878554" refX="12.0" refY="8.71851033606433"><path id="ProcessOnPath1269" d="M0 0L12.0 8.71851033606433L0 17.43702067212866" stroke="#66ffff" stroke-width="2.0" fill="none" transform="matrix(1.0,0.0,0.0,1.0,0.0,0.0)"/></marker></defs><g id="ProcessOnG1002"><path id="ProcessOnPath1003" d="M106.06667992304014 99.04293903211024H1648.0485860139286V961.4066109751209H106.06667992304006V99.04293903211021Z" fill="none"/><g id="ProcessOnG1004"><g id="ProcessOnG1005"><path id="ProcessOnPath1006" d="M490.1067462392635 538.2511705333093C585.0420814635137 538.2511705333093 632.2434218287519 549.4916510439596 727.1787570530022 549.4916510439596" stroke="#323232" stroke-width="2.0" stroke-dasharray="10.0 4.0" fill="none" marker-end="url(#ProcessOnMarker1007)"/><g id="ProcessOnG1009" transform="matrix(1.0,0.0,0.0,1.0,608.6427516461329,527.6214107886344)"><path id="ProcessOnPath1010" d="M0 0H158.0V32.5H0Z" fill="#fff" transform="matrix(1.0,0.0,0.0,1.0,-79.0,0.0)"/><text id="ProcessOnText1011" fill="#000000" font-size="13" x="0.0" y="13.325" font-family="微软雅黑" font-weight="normal" font-style="normal" text-decoration="none" family="微软雅黑" text-anchor="middle" size="13">AnonymousClientConfig()</text><text id="ProcessOnText1012" fill="#000000" font-size="13" x="0.0" y="29.575" font-family="微软雅黑" font-weight="normal" font-style="normal" text-decoration="none" family="微软雅黑" text-anchor="middle" size="13">argument</text></g></g><g id="ProcessOnG1013" transform="matrix(1.0,0.0,0.0,1.0,1362.7907201763019,621.5219583448159)" opacity="1.0"><path id="ProcessOnPath1014" d="M0.0 0.0L209.97020260069942 0.0L209.97020260069942 32.0L0.0 32.0Z" stroke="#323232" stroke-width="2.0" stroke-dasharray="10.0 4.0" opacity="1.0" fill="#ffffff"/><g id="ProcessOnG1015" transform="matrix(1.0,0.0,0.0,1.0,10.0,7.875)"><text id="ProcessOnText1016" fill="#000000" font-size="13" x="93.98510130034971" y="13.325" font-family="微软雅黑" font-weight="normal" font-style="normal" text-decoration="none" family="微软雅黑" text-anchor="middle" size="13">kubernetes.Interface</text></g></g><g id="ProcessOnG1017" transform="matrix(1.0,0.0,0.0,1.0,278.95857083968195,297.5684795218497)" opacity="1.0"><path id="ProcessOnPath1018" d="M0.0 0.0L209.97020260069942 0.0L209.97020260069942 32.0L0.0 32.0Z" stroke="#323232" stroke-width="2.0" stroke-dasharray="none" opacity="1.0" fill="#ffffff"/><g id="ProcessOnG1019" transform="matrix(1.0,0.0,0.0,1.0,10.0,7.875)"><text id="ProcessOnText1020" fill="#000000" font-size="13" x="93.98510130034971" y="13.325" font-family="微软雅黑" font-weight="normal" font-style="normal" text-decoration="none" family="微软雅黑" text-anchor="middle" size="13">ComponentConfig</text></g></g><g id="ProcessOnG1021" transform="matrix(1.0,0.0,0.0,1.0,278.95857083968195,330.2511705333092)" opacity="1.0"><path id="ProcessOnPath1022" d="M0.0 0.0L209.97020260069942 0.0L209.97020260069942 32.0L0.0 32.0Z" stroke="#323232" stroke-width="2.0" stroke-dasharray="none" opacity="1.0" fill="#ffffff"/><g id="ProcessOnG1023" transform="matrix(1.0,0.0,0.0,1.0,10.0,7.875)"><text id="ProcessOnText1024" fill="#000000" font-size="13" x="93.98510130034971" y="13.325" font-family="微软雅黑" font-weight="normal" font-style="normal" text-decoration="none" family="微软雅黑" text-anchor="middle" size="13">SecureServing</text></g></g><g id="ProcessOnG1025" transform="matrix(1.0,0.0,0.0,1.0,278.9585708396819,362.2511705333092)" opacity="1.0"><path id="ProcessOnPath1026" d="M0.0 0.0L209.97020260069942 0.0L209.97020260069942 32.0L0.0 32.0Z" stroke="#323232" stroke-width="2.0" stroke-dasharray="none" opacity="1.0" fill="#ffffff"/><g id="ProcessOnG1027" transform="matrix(1.0,0.0,0.0,1.0,10.0,7.875)"><text id="ProcessOnText1028" fill="#000000" font-size="13" x="93.98510130034971" y="13.325" font-family="微软雅黑" font-weight="normal" font-style="normal" text-decoration="none" family="微软雅黑" text-anchor="middle" size="13">InsecureServing</text></g></g><g id="ProcessOnG1029" transform="matrix(1.0,0.0,0.0,1.0,280.1365436385654,394.2511705333092)" opacity="1.0"><path id="ProcessOnPath1030" d="M0.0 0.0L209.97020260069942 0.0L209.97020260069942 32.0L0.0 32.0Z" stroke="#323232" stroke-width="2.0" stroke-dasharray="none" opacity="1.0" fill="#ffffff"/><g id="ProcessOnG1031" transform="matrix(1.0,0.0,0.0,1.0,10.0,7.875)"><text id="ProcessOnText1032" fill="#000000" font-size="13" x="93.98510130034971" y="13.325" font-family="微软雅黑" font-weight="normal" font-style="normal" text-decoration="none" family="微软雅黑" text-anchor="middle" size="13">Authentication</text></g></g><g id="ProcessOnG1033" transform="matrix(1.0,0.0,0.0,1.0,280.1365436385654,426.2511705333092)" opacity="1.0"><path id="ProcessOnPath1034" d="M0.0 0.0L209.97020260069942 0.0L209.97020260069942 32.0L0.0 32.0Z" stroke="#323232" stroke-width="2.0" stroke-dasharray="none" opacity="1.0" fill="#ffffff"/><g id="ProcessOnG1035" transform="matrix(1.0,0.0,0.0,1.0,10.0,7.875)"><text id="ProcessOnText1036" fill="#000000" font-size="13" x="93.98510130034971" y="13.325" font-family="微软雅黑" font-weight="normal" font-style="normal" text-decoration="none" family="微软雅黑" text-anchor="middle" size="13">Authorization</text></g></g><g id="ProcessOnG1037" transform="matrix(1.0,0.0,0.0,1.0,280.1365436385654,458.2511705333092)" opacity="1.0"><path id="ProcessOnPath1038" d="M0.0 0.0L209.97020260069942 0.0L209.97020260069942 32.0L0.0 32.0Z" stroke="#323232" stroke-width="2.0" stroke-dasharray="none" opacity="1.0" fill="#ffffff"/><g id="ProcessOnG1039" transform="matrix(1.0,0.0,0.0,1.0,10.0,7.875)"><text id="ProcessOnText1040" fill="#000000" font-size="13" x="93.98510130034971" y="13.325" font-family="微软雅黑" font-weight="normal" font-style="normal" text-decoration="none" family="微软雅黑" text-anchor="middle" size="13">Client</text></g></g><g id="ProcessOnG1041" transform="matrix(1.0,0.0,0.0,1.0,280.1365436385654,490.2511705333092)" opacity="1.0"><path id="ProcessOnPath1042" d="M0.0 0.0L209.97020260069942 0.0L209.97020260069942 32.0L0.0 32.0Z" stroke="#323232" stroke-width="2.0" stroke-dasharray="none" opacity="1.0" fill="#ffffff"/><g id="ProcessOnG1043" transform="matrix(1.0,0.0,0.0,1.0,10.0,7.875)"><text id="ProcessOnText1044" fill="#000000" font-size="13" x="93.98510130034971" y="13.325" font-family="微软雅黑" font-weight="normal" font-style="normal" text-decoration="none" family="微软雅黑" text-anchor="middle" size="13">LeaderElectionClient</text></g></g><g id="ProcessOnG1045" transform="matrix(1.0,0.0,0.0,1.0,280.1365436385654,522.2511705333093)" opacity="1.0"><path id="ProcessOnPath1046" d="M0.0 0.0L209.97020260069942 0.0L209.97020260069942 32.0L0.0 32.0Z" stroke="#323232" stroke-width="2.0" stroke-dasharray="none" opacity="1.0" fill="#ffffff"/><g id="ProcessOnG1047" transform="matrix(1.0,0.0,0.0,1.0,10.0,7.875)"><text id="ProcessOnText1048" fill="#000000" font-size="13" x="93.98510130034971" y="13.325" font-family="微软雅黑" font-weight="normal" font-style="normal" text-decoration="none" family="微软雅黑" text-anchor="middle" size="13">Kubeconfig</text></g></g><g id="ProcessOnG1049" transform="matrix(1.0,0.0,0.0,1.0,280.1365436385654,554.2511705333093)" opacity="1.0"><path id="ProcessOnPath1050" d="M0.0 0.0L209.97020260069942 0.0L209.97020260069942 32.0L0.0 32.0Z" stroke="#323232" stroke-width="2.0" stroke-dasharray="none" opacity="1.0" fill="#ffffff"/><g id="ProcessOnG1051" transform="matrix(1.0,0.0,0.0,1.0,10.0,7.875)"><text id="ProcessOnText1052" fill="#000000" font-size="13" x="93.98510130034971" y="13.325" font-family="微软雅黑" font-weight="normal" font-style="normal" text-decoration="none" family="微软雅黑" text-anchor="middle" size="13">EventRecorder</text></g></g><g id="ProcessOnG1053" transform="matrix(1.0,0.0,0.0,1.0,727.1787570530022,624.0486355474122)" opacity="1.0"><path id="ProcessOnPath1054" d="M0.0 0.0L209.97020260069942 0.0L209.97020260069942 32.0L0.0 32.0Z" stroke="#323232" stroke-width="2.0" stroke-dasharray="none" opacity="1.0" fill="#ffffff"/><g id="ProcessOnG1055" transform="matrix(1.0,0.0,0.0,1.0,10.0,7.875)"><text id="ProcessOnText1056" fill="#000000" font-size="13" x="93.98510130034971" y="13.325" font-family="微软雅黑" font-weight="normal" font-style="normal" text-decoration="none" family="微软雅黑" text-anchor="middle" size="13">SimpleControllerClientBuilder</text></g></g><g id="ProcessOnG1057" transform="matrix(1.0,0.0,0.0,1.0,727.1787570530022,656.0486355474122)" opacity="1.0"><path id="ProcessOnPath1058" d="M0.0 0.0L209.97020260069942 0.0L209.97020260069942 32.0L0.0 32.0Z" stroke="#323232" stroke-width="2.0" stroke-dasharray="none" opacity="1.0" fill="#ffffff"/><g id="ProcessOnG1059" transform="matrix(1.0,0.0,0.0,1.0,10.0,7.875)"><text id="ProcessOnText1060" fill="#000000" font-size="13" x="93.98510130034971" y="13.325" font-family="微软雅黑" font-weight="normal" font-style="normal" text-decoration="none" family="微软雅黑" text-anchor="middle" size="13">ClientConfig</text></g></g><g id="ProcessOnG1061"><path id="ProcessOnPath1062" d="M490.1067462392635 538.2511705333093C598.9956069775187 538.2511705333093 618.289896314747 672.0486355474125 727.1787570530022 672.0486355474125" stroke="#323232" stroke-width="2.0" stroke-dasharray="none" fill="none" marker-end="url(#ProcessOnMarker1063)"/></g><g id="ProcessOnG1065" transform="matrix(1.0,0.0,0.0,1.0,727.1787570530022,437.3845840558044)" opacity="1.0"><path id="ProcessOnPath1066" d="M0.0 0.0L209.97020260069942 0.0L209.97020260069942 32.0L0.0 32.0Z" stroke="#323232" stroke-width="2.0" stroke-dasharray="none" opacity="1.0" fill="#ffffff"/><g id="ProcessOnG1067" transform="matrix(1.0,0.0,0.0,1.0,10.0,7.875)"><text id="ProcessOnText1068" fill="#000000" font-size="13" x="93.98510130034971" y="13.325" font-family="微软雅黑" font-weight="normal" font-style="normal" text-decoration="none" family="微软雅黑" text-anchor="middle" size="13">SAControllerClientBuilder</text></g></g><g id="ProcessOnG1069" transform="matrix(1.0,0.0,0.0,1.0,727.1787570530022,533.4916510439596)" opacity="1.0"><path id="ProcessOnPath1070" d="M0.0 0.0L209.97020260069942 0.0L209.97020260069942 32.0L0.0 32.0Z" stroke="#323232" stroke-width="2.0" stroke-dasharray="none" opacity="1.0" fill="#ffffff"/><g id="ProcessOnG1071" transform="matrix(1.0,0.0,0.0,1.0,10.0,7.875)"><text id="ProcessOnText1072" fill="#000000" font-size="13" x="93.98510130034971" y="13.325" font-family="微软雅黑" font-weight="normal" font-style="normal" text-decoration="none" family="微软雅黑" text-anchor="middle" size="13">ClientConfig</text></g></g><g id="ProcessOnG1073" transform="matrix(1.0,0.0,0.0,1.0,727.1787570530022,468.8089600324999)" opacity="1.0"><path id="ProcessOnPath1074" d="M0.0 0.0L209.97020260069942 0.0L209.97020260069942 32.0L0.0 32.0Z" stroke="#323232" stroke-width="2.0" stroke-dasharray="none" opacity="1.0" fill="#ffffff"/><g id="ProcessOnG1075" transform="matrix(1.0,0.0,0.0,1.0,10.0,7.875)"><text id="ProcessOnText1076" fill="#000000" font-size="13" x="93.98510130034971" y="13.325" font-family="微软雅黑" font-weight="normal" font-style="normal" text-decoration="none" family="微软雅黑" text-anchor="middle" size="13">CoreClient</text></g></g><g id="ProcessOnG1077" transform="matrix(1.0,0.0,0.0,1.0,727.1787570530022,501.4916510439595)" opacity="1.0"><path id="ProcessOnPath1078" d="M0.0 0.0L209.97020260069942 0.0L209.97020260069942 32.0L0.0 32.0Z" stroke="#323232" stroke-width="2.0" stroke-dasharray="none" opacity="1.0" fill="#ffffff"/><g id="ProcessOnG1079" transform="matrix(1.0,0.0,0.0,1.0,10.0,7.875)"><text id="ProcessOnText1080" fill="#000000" font-size="13" x="93.98510130034971" y="13.325" font-family="微软雅黑" font-weight="normal" font-style="normal" text-decoration="none" family="微软雅黑" text-anchor="middle" size="13">AuthenticationClient</text></g></g><g id="ProcessOnG1081"><path id="ProcessOnPath1082" d="M490.1067462392635 474.25117053330945C586.5000053115131 474.25117053330945 630.7854979807527 517.4916510439596 727.1787570530022 517.4916510439596" stroke="#323232" stroke-width="2.0" stroke-dasharray="10.0 4.0" fill="none" marker-end="url(#ProcessOnMarker1083)"/><g id="ProcessOnG1085" transform="matrix(1.0,0.0,0.0,1.0,608.6427516461329,487.74641078863453)"><path id="ProcessOnPath1086" d="M0 0H116.0V16.25H0Z" fill="#fff" transform="matrix(1.0,0.0,0.0,1.0,-58.0,0.0)"/><text id="ProcessOnText1087" fill="#000000" font-size="13" x="0.0" y="13.325" font-family="微软雅黑" font-weight="normal" font-style="normal" text-decoration="none" family="微软雅黑" text-anchor="middle" size="13">AuthenticationV1()</text></g></g><g id="ProcessOnG1088" transform="matrix(1.0,0.0,0.0,1.0,727.1787570530022,565.4916510439596)" opacity="1.0"><path id="ProcessOnPath1089" d="M0.0 0.0L209.97020260069942 0.0L209.97020260069942 32.0L0.0 32.0Z" stroke="#323232" stroke-width="2.0" stroke-dasharray="none" opacity="1.0" fill="#ffffff"/><g id="ProcessOnG1090" transform="matrix(1.0,0.0,0.0,1.0,10.0,7.875)"><text id="ProcessOnText1091" fill="#000000" font-size="13" x="93.98510130034971" y="13.325" font-family="微软雅黑" font-weight="normal" font-style="normal" text-decoration="none" family="微软雅黑" text-anchor="middle" size="13">Namespace: "kube-system"</text></g></g><g id="ProcessOnG1092" transform="matrix(1.0,0.0,0.0,1.0,1032.2244616660146,528.0233479844919)" opacity="1.0"><path id="ProcessOnPath1093" d="M0.0 0.0L209.97020260069942 0.0L209.97020260069942 32.0L0.0 32.0Z" stroke="#323232" stroke-width="2.0" stroke-dasharray="10.0 4.0" opacity="1.0" fill="#ffffff"/><g id="ProcessOnG1094" transform="matrix(1.0,0.0,0.0,1.0,10.0,7.875)"><text id="ProcessOnText1095" fill="#000000" font-size="13" x="93.98510130034971" y="13.325" font-family="微软雅黑" font-weight="normal" font-style="normal" text-decoration="none" family="微软雅黑" text-anchor="middle" size="13">ControllerClientBuilder</text></g></g><g id="ProcessOnG1096"><path id="ProcessOnPath1097" d="M937.1489596537037 640.0486355474125C991.2010929095663 640.0486355474125 978.172328410152 544.0233479844917 1016.9883936885147 544.0233479844917" stroke="#323232" stroke-width="2.0" stroke-dasharray="none" fill="none" marker-end="url(#ProcessOnMarker1098)"/></g><g id="ProcessOnG1100"><path id="ProcessOnPath1101" d="M937.1489596537037 453.38458405580457C989.6918740904392 453.38458405580457 979.6815472292791 544.0233479844917 1016.9883936885147 544.0233479844917" stroke="#323232" stroke-width="2.0" stroke-dasharray="none" fill="none" marker-end="url(#ProcessOnMarker1102)"/></g><g id="ProcessOnG1104" transform="matrix(1.0,0.0,0.0,1.0,1362.7907201763019,139.24557797531023)" opacity="1.0"><path id="ProcessOnPath1105" d="M0.0 0.0L209.97020260069942 0.0L209.97020260069942 32.0L0.0 32.0Z" stroke="#323232" stroke-width="2.0" stroke-dasharray="none" opacity="1.0" fill="#ffffff"/><g id="ProcessOnG1106" transform="matrix(1.0,0.0,0.0,1.0,10.0,7.875)"><text id="ProcessOnText1107" fill="#000000" font-size="13" x="93.98510130034971" y="13.325" font-family="微软雅黑" font-weight="normal" font-style="normal" text-decoration="none" family="微软雅黑" text-anchor="middle" size="13">ControllerContext</text></g></g><g id="ProcessOnG1108" transform="matrix(1.0,0.0,0.0,1.0,1362.7907201763019,203.24557797531023)" opacity="1.0"><path id="ProcessOnPath1109" d="M0.0 0.0L209.97020260069942 0.0L209.97020260069942 32.0L0.0 32.0Z" stroke="#323232" stroke-width="2.0" stroke-dasharray="none" opacity="1.0" fill="#ffffff"/><g id="ProcessOnG1110" transform="matrix(1.0,0.0,0.0,1.0,10.0,7.875)"><text id="ProcessOnText1111" fill="#000000" font-size="13" x="93.98510130034971" y="13.325" font-family="微软雅黑" font-weight="normal" font-style="normal" text-decoration="none" family="微软雅黑" text-anchor="middle" size="13">ClientBuilder</text></g></g><g id="ProcessOnG1112"><path id="ProcessOnPath1113" d="M1362.7907201763019 219.24557797531023C1224.212794896358 219.24557797531023 1380.7725895466563 544.0233479844917 1242.1946642667124 544.0233479844917" stroke="#323232" stroke-width="2.0" stroke-dasharray="none" fill="none" marker-end="url(#ProcessOnMarker1114)"/></g><g id="ProcessOnG1116" transform="matrix(1.0,0.0,0.0,1.0,1362.7907201763019,235.24557797531023)" opacity="1.0"><path id="ProcessOnPath1117" d="M0.0 0.0L209.97020260069942 0.0L209.97020260069942 32.0L0.0 32.0Z" stroke="#323232" stroke-width="2.0" stroke-dasharray="none" opacity="1.0" fill="#ffffff"/><g id="ProcessOnG1118" transform="matrix(1.0,0.0,0.0,1.0,10.0,7.875)"><text id="ProcessOnText1119" fill="#000000" font-size="13" x="93.98510130034971" y="13.325" font-family="微软雅黑" font-weight="normal" font-style="normal" text-decoration="none" family="微软雅黑" text-anchor="middle" size="13">InformerFactory</text></g></g><g id="ProcessOnG1120" transform="matrix(1.0,0.0,0.0,1.0,1362.7907201763019,171.24557797531023)" opacity="1.0"><path id="ProcessOnPath1121" d="M0.0 0.0L209.97020260069942 0.0L209.97020260069942 32.0L0.0 32.0Z" stroke="#323232" stroke-width="2.0" stroke-dasharray="none" opacity="1.0" fill="#ffffff"/><g id="ProcessOnG1122" transform="matrix(1.0,0.0,0.0,1.0,10.0,7.875)"><text id="ProcessOnText1123" fill="#000000" font-size="13" x="93.98510130034971" y="13.325" font-family="微软雅黑" font-weight="normal" font-style="normal" text-decoration="none" family="微软雅黑" text-anchor="middle" size="13">ComponentConfig</text></g></g><g id="ProcessOnG1124" transform="matrix(1.0,0.0,0.0,1.0,1032.2244616660146,573.8568254542522)" opacity="1.0"><path id="ProcessOnPath1125" d="M0.0 0.0L209.97020260069942 0.0L209.97020260069942 32.0L0.0 32.0Z" stroke="#323232" stroke-width="2.0" stroke-dasharray="10.0 4.0" opacity="1.0" fill="#ffffff"/><g id="ProcessOnG1126" transform="matrix(1.0,0.0,0.0,1.0,10.0,7.875)"><text id="ProcessOnText1127" fill="#000000" font-size="13" x="93.98510130034971" y="13.325" font-family="微软雅黑" font-weight="normal" font-style="normal" text-decoration="none" family="微软雅黑" text-anchor="middle" size="13">...</text></g></g><g id="ProcessOnG1128"><path id="ProcessOnPath1129" d="M1242.1946642667124 621.8568254542523C1290.8383567078547 621.8568254542523 1314.1470277351596 637.5219583448159 1362.7907201763019 637.5219583448159" stroke="#323232" stroke-width="2.0" stroke-dasharray="10.0 4.0" fill="none" marker-end="url(#ProcessOnMarker1130)"/></g><g id="ProcessOnG1132" transform="matrix(1.0,0.0,0.0,1.0,1362.7907201763019,468.1262690210396)" opacity="1.0"><path id="ProcessOnPath1133" d="M0.0 0.0L209.97020260069942 0.0L209.97020260069942 32.0L0.0 32.0Z" stroke="#323232" stroke-width="2.0" stroke-dasharray="none" opacity="1.0" fill="#ffffff"/><g id="ProcessOnG1134" transform="matrix(1.0,0.0,0.0,1.0,10.0,7.875)"><text id="ProcessOnText1135" fill="#000000" font-size="13" x="93.98510130034971" y="13.325" font-family="微软雅黑" font-weight="normal" font-style="normal" text-decoration="none" family="微软雅黑" text-anchor="middle" size="13">sharedInformerFactory</text></g></g><g id="ProcessOnG1136" transform="matrix(1.0,0.0,0.0,1.0,1362.7907201763019,500.1262690210396)" opacity="1.0"><path id="ProcessOnPath1137" d="M0.0 0.0L209.97020260069942 0.0L209.97020260069942 32.0L0.0 32.0Z" stroke="#323232" stroke-width="2.0" stroke-dasharray="none" opacity="1.0" fill="#ffffff"/><g id="ProcessOnG1138" transform="matrix(1.0,0.0,0.0,1.0,10.0,7.875)"><text id="ProcessOnText1139" fill="#000000" font-size="13" x="93.98510130034971" y="13.325" font-family="微软雅黑" font-weight="normal" font-style="normal" text-decoration="none" family="微软雅黑" text-anchor="middle" size="13">client</text></g></g><g id="ProcessOnG1140"><path id="ProcessOnPath1141" d="M1572.7609227770015 516.1262690210397C1621.319198506512 516.1262690210397 1621.319198506512 637.5219583448159 1572.7609227770015 637.5219583448159" stroke="#323232" stroke-width="2.0" stroke-dasharray="none" fill="none" marker-end="url(#ProcessOnMarker1142)"/></g><g id="ProcessOnG1144" transform="matrix(1.0,0.0,0.0,1.0,1362.7907201763019,532.1262690210397)" opacity="1.0"><path id="ProcessOnPath1145" d="M0.0 0.0L209.97020260069942 0.0L209.97020260069942 32.0L0.0 32.0Z" stroke="#323232" stroke-width="2.0" stroke-dasharray="none" opacity="1.0" fill="#ffffff"/><g id="ProcessOnG1146" transform="matrix(1.0,0.0,0.0,1.0,10.0,7.875)"><text id="ProcessOnText1147" fill="#000000" font-size="13" x="93.98510130034971" y="13.325" font-family="微软雅黑" font-weight="normal" font-style="normal" text-decoration="none" family="微软雅黑" text-anchor="middle" size="13">...</text></g></g><g id="ProcessOnG1148" transform="matrix(1.0,0.0,0.0,1.0,1032.2244616660146,605.8568254542522)" opacity="1.0"><path id="ProcessOnPath1149" d="M0.0 0.0L209.97020260069942 0.0L209.97020260069942 32.0L0.0 32.0Z" stroke="#323232" stroke-width="2.0" stroke-dasharray="10.0 4.0" opacity="1.0" fill="#ffffff"/><g id="ProcessOnG1150" transform="matrix(1.0,0.0,0.0,1.0,10.0,7.875)"><text id="ProcessOnText1151" fill="#000000" font-size="13" x="93.98510130034971" y="13.325" font-family="微软雅黑" font-weight="normal" font-style="normal" text-decoration="none" family="微软雅黑" text-anchor="middle" size="13">ClientOrDie</text></g></g><g id="ProcessOnG1152" transform="matrix(1.0,0.0,0.0,1.0,1032.2244616660146,637.8568254542522)" opacity="1.0"><path id="ProcessOnPath1153" d="M0.0 0.0L209.97020260069942 0.0L209.97020260069942 32.0L0.0 32.0Z" stroke="#323232" stroke-width="2.0" stroke-dasharray="10.0 4.0" opacity="1.0" fill="#ffffff"/><g id="ProcessOnG1154" transform="matrix(1.0,0.0,0.0,1.0,10.0,7.875)"><text id="ProcessOnText1155" fill="#000000" font-size="13" x="93.98510130034971" y="13.325" font-family="微软雅黑" font-weight="normal" font-style="normal" text-decoration="none" family="微软雅黑" text-anchor="middle" size="13">...</text></g></g><g id="ProcessOnG1156"><path id="ProcessOnPath1157" d="M1362.7907201763019 187.24557797531037C1009.6126512290397 187.24557797531037 842.1068423876422 313.56847952184955 488.92877344038004 313.5684795218496" stroke="#323232" stroke-width="2.0" stroke-dasharray="none" fill="none" marker-end="url(#ProcessOnMarker1158)"/></g><g id="ProcessOnG1160" transform="matrix(1.0,0.0,0.0,1.0,1362.7907201763019,267.2455779753102)" opacity="1.0"><path id="ProcessOnPath1161" d="M0.0 0.0L209.97020260069942 0.0L209.97020260069942 32.0L0.0 32.0Z" stroke="#323232" stroke-width="2.0" stroke-dasharray="none" opacity="1.0" fill="#ffffff"/><g id="ProcessOnG1162" transform="matrix(1.0,0.0,0.0,1.0,10.0,7.875)"><text id="ProcessOnText1163" fill="#000000" font-size="13" x="93.98510130034971" y="13.325" font-family="微软雅黑" font-weight="normal" font-style="normal" text-decoration="none" family="微软雅黑" text-anchor="middle" size="13">...</text></g></g><g id="ProcessOnG1164"><path id="ProcessOnPath1165" d="M1242.1946642667124 653.8568254542521C1290.8735904412808 653.8568254542521 1314.1117940017334 637.5219583448159 1362.7907201763019 637.5219583448159" stroke="#323232" stroke-width="2.0" stroke-dasharray="10.0 4.0" fill="none" marker-end="url(#ProcessOnMarker1166)"/></g><g id="ProcessOnG1168" transform="matrix(1.0,0.0,0.0,1.0,306.0485489570324,842.5532472107964)" opacity="1.0"><path id="ProcessOnPath1169" d="M0.0 0.0L209.97020260069942 0.0L209.97020260069942 32.0L0.0 32.0Z" stroke="#66ffff" stroke-width="2.0" stroke-dasharray="none" opacity="1.0" fill="#ffffff"/><g id="ProcessOnG1170" transform="matrix(1.0,0.0,0.0,1.0,10.0,7.875)"><text id="ProcessOnText1171" fill="#66ffff" font-size="13" x="93.98510130034971" y="13.325" font-family="微软雅黑" font-weight="normal" font-style="normal" text-decoration="none" family="微软雅黑" text-anchor="middle" size="13">kubernetes.Clientset</text></g></g><g id="ProcessOnG1172"><path id="ProcessOnPath1173" d="M280.1365436385654 474.25117053330945C126.06667992304014 474.25117053330945 151.97868524150712 858.5532472107964 306.0485489570324 858.5532472107964" stroke="#323232" stroke-width="2.0" stroke-dasharray="none" fill="none" marker-end="url(#ProcessOnMarker1174)"/></g><g id="ProcessOnG1176"><path id="ProcessOnPath1177" d="M280.1365436385654 506.25117053330916C138.8350587201715 506.25117053330916 164.74706403863848 858.5532472107964 306.0485489570324 858.5532472107964" stroke="#323232" stroke-width="2.0" stroke-dasharray="none" fill="none" marker-end="url(#ProcessOnMarker1178)"/></g><g id="ProcessOnG1180" transform="matrix(1.0,0.0,0.0,1.0,662.2985489570315,878.2449519162021)" opacity="1.0"><path id="ProcessOnPath1181" d="M0.0 0.0L209.97020260069942 0.0L209.97020260069942 32.0L0.0 32.0Z" stroke="#323232" stroke-width="2.0" stroke-dasharray="none" opacity="1.0" fill="#ffffff"/><g id="ProcessOnG1182" transform="matrix(1.0,0.0,0.0,1.0,10.0,7.875)"><text id="ProcessOnText1183" fill="#000000" font-size="13" x="93.98510130034971" y="13.325" font-family="微软雅黑" font-weight="normal" font-style="normal" text-decoration="none" family="微软雅黑" text-anchor="middle" size="13">XXXClient</text></g></g><g id="ProcessOnG1184"><path id="ProcessOnPath1185" d="M516.018751557731 893.4066109751209C574.5316314290399 893.4066109751209 603.7856690857226 894.2449519162021 662.2985489570315 894.2449519162021" stroke="#323232" stroke-width="2.0" stroke-dasharray="none" fill="none" marker-end="url(#ProcessOnMarker1186)"/></g><g id="ProcessOnG1188" transform="matrix(1.0,0.0,0.0,1.0,1156.1129476344133,877.8032472107964)" opacity="1.0"><path id="ProcessOnPath1189" d="M0.0 0.0L209.97020260069942 0.0L209.97020260069942 32.0L0.0 32.0Z" stroke="#323232" stroke-width="2.0" stroke-dasharray="10.0 4.0" opacity="1.0" fill="#ffffff"/><g id="ProcessOnG1190" transform="matrix(1.0,0.0,0.0,1.0,10.0,7.875)"><text id="ProcessOnText1191" fill="#000000" font-size="13" x="93.98510130034971" y="13.325" font-family="微软雅黑" font-weight="normal" font-style="normal" text-decoration="none" family="微软雅黑" text-anchor="middle" size="13">XXXInterface</text></g></g><g id="ProcessOnG1192"><path id="ProcessOnPath1193" d="M490.1067462392635 474.25117053330945C585.0295403240384 474.25117053330945 632.2559629682272 484.8089600325004 727.1787570530022 484.8089600325004" stroke="#323232" stroke-width="2.0" stroke-dasharray="10.0 4.0" fill="none" marker-end="url(#ProcessOnMarker1194)"/><g id="ProcessOnG1196" transform="matrix(1.0,0.0,0.0,1.0,608.6427516461328,471.40506528290496)"><path id="ProcessOnPath1197" d="M0 0H54.0V16.25H0Z" fill="#fff" transform="matrix(1.0,0.0,0.0,1.0,-27.0,0.0)"/><text id="ProcessOnText1198" fill="#000000" font-size="13" x="0.0" y="13.325" font-family="微软雅黑" font-weight="normal" font-style="normal" text-decoration="none" family="微软雅黑" text-anchor="middle" size="13">CoreV1()</text></g></g><g id="ProcessOnG1199"><path id="ProcessOnPath1200" d="M1467.7758214766516 653.5219583448159C1467.7758214766516 757.8878509828508 1470.4490428731476 893.8032472107964 1366.0831502351127 893.8032472107964" stroke="#323232" stroke-width="2.0" stroke-dasharray="10.0 4.0" fill="none" marker-end="url(#ProcessOnMarker1201)"/><g id="ProcessOnG1203" transform="matrix(1.0,0.0,0.0,1.0,1456.0666955951451,804.6748125170692)"><path id="ProcessOnPath1204" d="M0 0H37.0V16.25H0Z" fill="#fff" transform="matrix(1.0,0.0,0.0,1.0,-18.5,0.0)"/><text id="ProcessOnText1205" fill="#000000" font-size="13" x="0.0" y="13.325" font-family="微软雅黑" font-weight="normal" font-style="normal" text-decoration="none" family="微软雅黑" text-anchor="middle" size="13">Core()</text></g></g><g id="ProcessOnG1206" transform="matrix(1.0,0.0,0.0,1.0,1362.7907201763019,373.4647360676278)" opacity="1.0"><path id="ProcessOnPath1207" d="M0.0 0.0L209.97020260069942 0.0L209.97020260069942 32.0L0.0 32.0Z" stroke="#323232" stroke-width="2.0" stroke-dasharray="10.0 4.0" opacity="1.0" fill="#ffffff"/><g id="ProcessOnG1208" transform="matrix(1.0,0.0,0.0,1.0,10.0,7.875)"><text id="ProcessOnText1209" fill="#000000" font-size="13" x="93.98510130034971" y="13.325" font-family="微软雅黑" font-weight="normal" font-style="normal" text-decoration="none" family="微软雅黑" text-anchor="middle" size="13">SharedInformerFactory</text></g></g><g id="ProcessOnG1210"><path id="ProcessOnPath1211" d="M1362.7907201763019 484.12626902103983C1324.926106994937 484.12626902103983 1324.926106994937 389.46473606762777 1347.5546521988022 389.46473606762777" stroke="#323232" stroke-width="2.0" stroke-dasharray="10.0 4.0" fill="none" marker-end="url(#ProcessOnMarker1212)"/></g><g id="ProcessOnG1214"><path id="ProcessOnPath1215" d="M1572.7609227770015 251.24557797531023C1628.0485860139286 251.24557797531023 1628.0485860139286 389.46473606762777 1572.7609227770015 389.46473606762777" stroke="#323232" stroke-width="2.0" stroke-dasharray="none" fill="none" marker-end="url(#ProcessOnMarker1216)"/></g><g id="ProcessOnG1218" transform="matrix(1.0,0.0,0.0,1.0,284.4663423698403,723.0300076135265)" opacity="1.0"><path id="ProcessOnPath1219" d="M0.0 0.0L209.97020260069942 0.0L209.97020260069942 32.0L0.0 32.0Z" stroke="#66ffff" stroke-width="2.0" stroke-dasharray="10.0 4.0" opacity="1.0" fill="#ffffff"/><g id="ProcessOnG1220" transform="matrix(1.0,0.0,0.0,1.0,10.0,7.875)"><text id="ProcessOnText1221" fill="#66ffff" font-size="13" x="93.98510130034971" y="13.325" font-family="微软雅黑" font-weight="normal" font-style="normal" text-decoration="none" family="微软雅黑" text-anchor="middle" size="13">record.EventRecorder</text></g></g><g id="ProcessOnG1222"><path id="ProcessOnPath1223" d="M280.1365436385654 570.2511705333093C212.60279740371908 570.2511705333093 216.93259613499396 739.0300076135265 284.4663423698403 739.0300076135265" stroke="#323232" stroke-width="2.0" stroke-dasharray="none" fill="none" marker-end="url(#ProcessOnMarker1224)"/></g><g id="ProcessOnG1226" transform="matrix(1.0,0.0,0.0,1.0,280.1365436385654,183.37207448432176)" opacity="1.0"><path id="ProcessOnPath1227" d="M0.0 0.0L209.97020260069942 0.0L209.97020260069942 32.0L0.0 32.0Z" stroke="#323232" stroke-width="2.0" stroke-dasharray="none" opacity="1.0" fill="#ffffff"/><g id="ProcessOnG1228" transform="matrix(1.0,0.0,0.0,1.0,10.0,7.875)"><text id="ProcessOnText1229" fill="#000000" font-size="13" x="93.98510130034971" y="13.325" font-family="微软雅黑" font-weight="normal" font-style="normal" text-decoration="none" family="微软雅黑" text-anchor="middle" size="13">Config</text></g></g><g id="ProcessOnG1230" transform="matrix(1.0,0.0,0.0,1.0,280.1365436385654,215.37207448432176)" opacity="1.0"><path id="ProcessOnPath1231" d="M0.0 0.0L209.97020260069942 0.0L209.97020260069942 32.0L0.0 32.0Z" stroke="#323232" stroke-width="2.0" stroke-dasharray="none" opacity="1.0" fill="#ffffff"/><g id="ProcessOnG1232" transform="matrix(1.0,0.0,0.0,1.0,10.0,7.875)"><text id="ProcessOnText1233" fill="#000000" font-size="13" x="93.98510130034971" y="13.325" font-family="微软雅黑" font-weight="normal" font-style="normal" text-decoration="none" family="微软雅黑" text-anchor="middle" size="13">Generic</text></g></g><g id="ProcessOnG1234"><path id="ProcessOnPath1235" d="M280.1365436385654 231.37207448432153C247.25460544506274 231.37207448432153 246.0766326461793 313.5684795218497 278.95857083968195 313.5684795218497" stroke="#323232" stroke-width="2.0" stroke-dasharray="none" fill="none" marker-end="url(#ProcessOnMarker1236)"/></g><g id="ProcessOnG1238" transform="matrix(1.0,0.0,0.0,1.0,280.1365436385654,247.37207448432176)" opacity="1.0"><path id="ProcessOnPath1239" d="M0.0 0.0L209.97020260069942 0.0L209.97020260069942 32.0L0.0 32.0Z" stroke="#323232" stroke-width="2.0" stroke-dasharray="none" opacity="1.0" fill="#ffffff"/><g id="ProcessOnG1240" transform="matrix(1.0,0.0,0.0,1.0,10.0,7.875)"><text id="ProcessOnText1241" fill="#000000" font-size="13" x="93.98510130034971" y="13.325" font-family="微软雅黑" font-weight="normal" font-style="normal" text-decoration="none" family="微软雅黑" text-anchor="middle" size="13">Extra</text></g></g><g id="ProcessOnG1242"><path id="ProcessOnPath1243" d="M872.2687515577309 894.2449519162021C985.8065674602503 894.2449519162021 1042.5751317318939 893.8032472107964 1140.8768796569136 893.8032472107964" stroke="#323232" stroke-width="2.0" stroke-dasharray="none" fill="none" marker-end="url(#ProcessOnMarker1244)"/></g><g id="ProcessOnG1246" transform="matrix(1.0,0.0,0.0,1.0,306.0485489570324,877.4066109751209)" opacity="1.0"><path id="ProcessOnPath1247" d="M0.0 0.0L209.97020260069942 0.0L209.97020260069942 32.0L0.0 32.0Z" stroke="#323232" stroke-width="2.0" stroke-dasharray="none" opacity="1.0" fill="#ffffff"/><g id="ProcessOnG1248" transform="matrix(1.0,0.0,0.0,1.0,10.0,7.875)"><text id="ProcessOnText1249" fill="#000000" font-size="13" x="93.98510130034971" y="13.325" font-family="微软雅黑" font-weight="normal" font-style="normal" text-decoration="none" family="微软雅黑" text-anchor="middle" size="13">xxx</text></g></g><g id="ProcessOnG1250" transform="matrix(1.0,0.0,0.0,1.0,662.2985489570315,909.4066109751209)" opacity="1.0"><path id="ProcessOnPath1251" d="M0.0 0.0L209.97020260069942 0.0L209.97020260069942 32.0L0.0 32.0Z" stroke="#323232" stroke-width="2.0" stroke-dasharray="10.0 4.0" opacity="1.0" fill="#ffffff"/><g id="ProcessOnG1252" transform="matrix(1.0,0.0,0.0,1.0,10.0,7.875)"><text id="ProcessOnText1253" fill="#000000" font-size="13" x="93.98510130034971" y="13.325" font-family="微软雅黑" font-weight="normal" font-style="normal" text-decoration="none" family="微软雅黑" text-anchor="middle" size="13">rest.Interface</text></g></g><g id="ProcessOnG1254" transform="matrix(1.0,0.0,0.0,1.0,736.1787570530022,188.7906754765752)" opacity="1.0"><path id="ProcessOnPath1255" d="M0.0 0.0L209.97020260069942 0.0L209.97020260069942 32.0L0.0 32.0Z" stroke="#66ffff" stroke-width="2.0" stroke-dasharray="none" opacity="1.0" fill="#ffffff"/><g id="ProcessOnG1256" transform="matrix(1.0,0.0,0.0,1.0,10.0,7.875)"><text id="ProcessOnText1257" fill="#66ffff" font-size="13" x="93.98510130034971" y="13.325" font-family="微软雅黑" font-weight="normal" font-style="normal" text-decoration="none" family="微软雅黑" text-anchor="middle" size="13">Controller</text></g></g><g id="ProcessOnG1258"><path id="ProcessOnPath1259" d="M1362.7907201763019 251.2455779753101C1195.1012860058504 251.2455779753101 1113.8383938241532 204.7906754765752 946.1489596537017 204.79067547657522" stroke="#cc0000" stroke-width="2.0" stroke-dasharray="10.0 4.0" fill="none" marker-end="url(#ProcessOnMarker1260)"/></g><g id="ProcessOnG1262"><path id="ProcessOnPath1263" d="M937.1489596537017 453.38458405580445C1036.65166826624 453.38458405580445 1045.65166826624 204.7906754765752 946.1489596537017 204.7906754765752" stroke="#cc0000" stroke-width="2.0" stroke-dasharray="10.0 4.0" fill="none" marker-end="url(#ProcessOnMarker1264)"/></g><g id="ProcessOnG1266"><path id="ProcessOnPath1267" d="M736.1787570530022 204.7906754765752C684.2784300418056 204.7906754765752 641.0 167.0 638.8001128653121 119.04293903211024" stroke="#66ffff" stroke-width="2.0" stroke-dasharray="none" fill="none" marker-end="url(#ProcessOnMarker1268)"/><g id="ProcessOnG1270" transform="matrix(1.0,0.0,0.0,1.0,668.8517700054664,171.77570511730138)"><path id="ProcessOnPath1271" d="M0 0H24.0V16.25H0Z" fill="#fff" transform="matrix(1.0,0.0,0.0,1.0,-12.0,0.0)"/><text id="ProcessOnText1272" fill="#66ffff" font-size="13" x="0.0" y="13.325" font-family="微软雅黑" font-weight="normal" font-style="normal" text-decoration="none" family="微软雅黑" text-anchor="middle" size="13">Run</text></g></g></g></g></svg>