<svg xmlns="http://www.w3.org/2000/svg" xmlns:xlink="http://www.w3.org/1999/xlink" id="processonSvg1000" viewBox="91.29166666666677 90.125 1212.4166666666665 683.75" width="1212.4166666666665" height="683.75"><defs id="ProcessOnDefs1001"><marker id="ProcessOnMarker1011" markerUnits="userSpaceOnUse" orient="auto" markerWidth="14.289086868996552" markerHeight="19.055054660878554" viewBox="-0.5877852522924731 -0.8090169943749475 14.289086868996552 19.055054660878554" refX="12.0" refY="8.71851033606433"><path id="ProcessOnPath1012" d="M0 0L12.0 8.71851033606433L0 17.43702067212866" stroke="#323232" stroke-width="2.0" fill="none" transform="matrix(1.0,0.0,0.0,1.0,0.0,0.0)"/></marker><marker id="ProcessOnMarker1031" markerUnits="userSpaceOnUse" orient="auto" markerWidth="14.289086868996552" markerHeight="19.055054660878554" viewBox="-0.5877852522924731 -0.8090169943749475 14.289086868996552 19.055054660878554" refX="12.0" refY="8.71851033606433"><path id="ProcessOnPath1032" d="M0 0L12.0 8.71851033606433L0 17.43702067212866" stroke="#323232" stroke-width="2.0" fill="none" transform="matrix(1.0,0.0,0.0,1.0,0.0,0.0)"/></marker><marker id="ProcessOnMarker1047" markerUnits="userSpaceOnUse" orient="auto" markerWidth="14.289086868996552" markerHeight="19.055054660878554" viewBox="-0.5877852522924731 -0.8090169943749475 14.289086868996552 19.055054660878554" refX="12.0" refY="8.71851033606433"><path id="ProcessOnPath1048" d="M0 0L12.0 8.71851033606433L0 17.43702067212866" stroke="#80ff00" stroke-width="2.0" fill="none" transform="matrix(1.0,0.0,0.0,1.0,0.0,0.0)"/></marker><marker id="ProcessOnMarker1058" markerUnits="userSpaceOnUse" orient="auto" markerWidth="14.289086868996552" markerHeight="19.055054660878554" viewBox="-0.5877852522924731 -0.8090169943749475 14.289086868996552 19.055054660878554" refX="12.0" refY="8.71851033606433"><path id="ProcessOnPath1059" d="M0 0L12.0 8.71851033606433L0 17.43702067212866" stroke="#323232" stroke-width="2.0" fill="none" transform="matrix(1.0,0.0,0.0,1.0,0.0,0.0)"/></marker><marker id="ProcessOnMarker1062" markerUnits="userSpaceOnUse" orient="auto" markerWidth="14.289086868996552" markerHeight="19.055054660878554" viewBox="-0.5877852522924731 -0.8090169943749475 14.289086868996552 19.055054660878554" refX="12.0" refY="8.71851033606433"><path id="ProcessOnPath1063" d="M0 0L12.0 8.71851033606433L0 17.43702067212866" stroke="#0000ff" stroke-width="2.0" fill="none" transform="matrix(1.0,0.0,0.0,1.0,0.0,0.0)"/></marker><marker id="ProcessOnMarker1074" markerUnits="userSpaceOnUse" orient="auto" markerWidth="14.289086868996552" markerHeight="19.055054660878554" viewBox="-0.5877852522924731 -0.8090169943749475 14.289086868996552 19.055054660878554" refX="12.0" refY="8.71851033606433"><path id="ProcessOnPath1075" d="M0 0L12.0 8.71851033606433L0 17.43702067212866" stroke="#0000ff" stroke-width="2.0" fill="none" transform="matrix(1.0,0.0,0.0,1.0,0.0,0.0)"/></marker><marker id="ProcessOnMarker1099" markerUnits="userSpaceOnUse" orient="auto" markerWidth="14.289086868996552" markerHeight="19.055054660878554" viewBox="-0.5877852522924731 -0.8090169943749475 14.289086868996552 19.055054660878554" refX="12.0" refY="8.71851033606433"><path id="ProcessOnPath1100" d="M0 0L12.0 8.71851033606433L0 17.43702067212866" stroke="#323232" stroke-width="2.0" fill="none" transform="matrix(1.0,0.0,0.0,1.0,0.0,0.0)"/></marker><marker id="ProcessOnMarker1106" markerUnits="userSpaceOnUse" orient="auto" markerWidth="14.289086868996552" markerHeight="19.055054660878554" viewBox="-0.5877852522924731 -0.8090169943749475 14.289086868996552 19.055054660878554" refX="12.0" refY="8.71851033606433"><path id="ProcessOnPath1107" d="M0 0L12.0 8.71851033606433L0 17.43702067212866" stroke="#cc0000" stroke-width="2.0" fill="none" transform="matrix(1.0,0.0,0.0,1.0,0.0,0.0)"/></marker><marker id="ProcessOnMarker1123" markerUnits="userSpaceOnUse" orient="auto" markerWidth="14.289086868996552" markerHeight="19.055054660878554" viewBox="-0.5877852522924731 -0.8090169943749475 14.289086868996552 19.055054660878554" refX="12.0" refY="8.71851033606433"><path id="ProcessOnPath1124" d="M0 0L12.0 8.71851033606433L0 17.43702067212866" stroke="#cc0000" stroke-width="2.0" fill="none" transform="matrix(1.0,0.0,0.0,1.0,0.0,0.0)"/></marker><marker id="ProcessOnMarker1130" markerUnits="userSpaceOnUse" orient="auto" markerWidth="14.289086868996552" markerHeight="19.055054660878554" viewBox="-0.5877852522924731 -0.8090169943749475 14.289086868996552 19.055054660878554" refX="12.0" refY="8.71851033606433"><path id="ProcessOnPath1131" d="M0 0L12.0 8.71851033606433L0 17.43702067212866" stroke="#0000ff" stroke-width="2.0" fill="none" transform="matrix(1.0,0.0,0.0,1.0,0.0,0.0)"/></marker><marker id="ProcessOnMarker1138" markerUnits="userSpaceOnUse" orient="auto" markerWidth="14.289086868996552" markerHeight="19.055054660878554" viewBox="-0.5877852522924731 -0.8090169943749475 14.289086868996552 19.055054660878554" refX="12.0" refY="8.71851033606433"><path id="ProcessOnPath1139" d="M0 0L12.0 8.71851033606433L0 17.43702067212866" stroke="#323232" stroke-width="2.0" fill="none" transform="matrix(1.0,0.0,0.0,1.0,0.0,0.0)"/></marker><marker id="ProcessOnMarker1142" markerUnits="userSpaceOnUse" orient="auto" markerWidth="14.289086868996552" markerHeight="19.055054660878554" viewBox="-0.5877852522924731 -0.8090169943749475 14.289086868996552 19.055054660878554" refX="12.0" refY="8.71851033606433"><path id="ProcessOnPath1143" d="M0 0L12.0 8.71851033606433L0 17.43702067212866" stroke="#323232" stroke-width="2.0" fill="none" transform="matrix(1.0,0.0,0.0,1.0,0.0,0.0)"/></marker></defs><g id="ProcessOnG1002"><path id="ProcessOnPath1003" d="M91.29166666666677 90.125H1303.7083333333333V773.875H91.29166666666674V90.125Z" fill="none"/><g id="ProcessOnG1004"><g id="ProcessOnG1005" transform="matrix(1.0,0.0,0.0,1.0,479.5138888888889,197.70833333333326)" opacity="1.0"><path id="ProcessOnPath1006" d="M0.0 0.0L165.0 0.0L165.0 48.0L0.0 48.0Z" stroke="#323232" stroke-width="2.0" stroke-dasharray="10.0 4.0" opacity="1.0" fill="#ffffff"/><g id="ProcessOnG1007" transform="matrix(1.0,0.0,0.0,1.0,10.0,15.875)"><text id="ProcessOnText1008" fill="#000000" font-size="13" x="71.5" y="13.325" font-family="微软雅黑" font-weight="normal" font-style="normal" text-decoration="none" family="微软雅黑" text-anchor="middle" size="13">ControllerClientBuilder</text></g></g><g id="ProcessOnG1009"><path id="ProcessOnPath1010" d="M479.5138888888889 221.7083333333312C385.08396175481744 221.7083333333312 337.8697419488856 222.30092592592428 243.43981481481455 222.30092592592428" stroke="#323232" stroke-width="2.0" stroke-dasharray="none" fill="none" marker-end="url(#ProcessOnMarker1011)"/></g><g id="ProcessOnG1013" transform="matrix(1.0,0.0,0.0,1.0,171.4398148148149,202.80092592592632)" opacity="1.0"><path id="ProcessOnPath1014" d="M0.0 0.0L72.0 0.0L72.0 39.0L0.0 39.0Z" stroke="#323232" stroke-width="2.0" stroke-dasharray="none" opacity="1.0" fill="#ffffff"/><g id="ProcessOnG1015" transform="matrix(1.0,0.0,0.0,1.0,10.0,11.375)"><text id="ProcessOnText1016" fill="#000000" font-size="13" x="25.0" y="13.325" font-family="微软雅黑" font-weight="normal" font-style="normal" text-decoration="none" family="微软雅黑" text-anchor="middle" size="13">Config</text></g></g><g id="ProcessOnG1017" transform="matrix(1.0,0.0,0.0,1.0,132.7500000000002,132.62499999999977)" opacity="1.0"><path id="ProcessOnPath1018" d="M0.0 0.0L156.0 0.0L156.0 31.0L0.0 31.0Z" stroke="#ffffff" stroke-width="2.0" stroke-dasharray="none" opacity="1.0" fill="#ffffff"/><g id="ProcessOnG1019" transform="matrix(1.0,0.0,0.0,1.0,10.0,7.375)"><text id="ProcessOnText1020" fill="#000000" font-size="13" x="67.0" y="13.325" font-family="微软雅黑" font-weight="normal" font-style="normal" text-decoration="none" family="微软雅黑" text-anchor="middle" size="13">k8s.io/client-go/rest</text></g></g><g id="ProcessOnG1021" transform="matrix(1.0,0.0,0.0,1.0,111.29166666666677,709.3768592921285)" opacity="1.0"><path id="ProcessOnPath1022" d="M0.0 0.0L197.0 0.0L197.0 32.86390004930422L0.0 32.86390004930422Z" stroke="#ffffff" stroke-width="2.0" stroke-dasharray="none" opacity="1.0" fill="#ffffff"/><g id="ProcessOnG1023" transform="matrix(1.0,0.0,0.0,1.0,10.0,8.30695002465211)"><text id="ProcessOnText1024" fill="#000000" font-size="13" x="87.5" y="13.325" font-family="微软雅黑" font-weight="normal" font-style="normal" text-decoration="none" family="微软雅黑" text-anchor="middle" size="13">k8s.io/client-go/kubernetes</text></g></g><g id="ProcessOnG1025" transform="matrix(1.0,0.0,0.0,1.0,150.096193415638,472.845164609053)" opacity="1.0"><path id="ProcessOnPath1026" d="M0.0 0.0L109.0 0.0L109.0 40.0L0.0 40.0Z" stroke="#323232" stroke-width="2.0" stroke-dasharray="10.0 4.0" opacity="1.0" fill="#ffffff"/><g id="ProcessOnG1027" transform="matrix(1.0,0.0,0.0,1.0,10.0,11.875)"><text id="ProcessOnText1028" fill="#000000" font-size="13" x="43.5" y="13.325" font-family="微软雅黑" font-weight="normal" font-style="normal" text-decoration="none" family="微软雅黑" text-anchor="middle" size="13">Interface</text></g></g><g id="ProcessOnG1029"><path id="ProcessOnPath1030" d="M562.0138888888891 245.70833333333167L204.59619341563774 472.845164609053" stroke="#323232" stroke-width="2.0" stroke-dasharray="none" fill="none" marker-end="url(#ProcessOnMarker1031)"/></g><g id="ProcessOnG1033" transform="matrix(1.0,0.0,0.0,1.0,159.6009945130317,641.5416666666663)" opacity="1.0"><path id="ProcessOnPath1034" d="M0.0 0.0L92.0 0.0L92.0 40.0L0.0 40.0Z" stroke="#323232" stroke-width="2.0" stroke-dasharray="none" opacity="1.0" fill="#ffffff"/><g id="ProcessOnG1035" transform="matrix(1.0,0.0,0.0,1.0,10.0,11.875)"><text id="ProcessOnText1036" fill="#000000" font-size="13" x="35.0" y="13.325" font-family="微软雅黑" font-weight="normal" font-style="normal" text-decoration="none" family="微软雅黑" text-anchor="middle" size="13">Clientset</text></g></g><g id="ProcessOnG1037" transform="matrix(1.0,0.0,0.0,1.0,794.5138888888893,661.5115740740741)" opacity="1.0"><path id="ProcessOnPath1038" d="M0.0 0.0L142.0 0.0L142.0 45.0L0.0 45.0Z" stroke="#323232" stroke-width="2.0" stroke-dasharray="none" opacity="1.0" fill="#ffffff"/><g id="ProcessOnG1039" transform="matrix(1.0,0.0,0.0,1.0,10.0,14.375)"><text id="ProcessOnText1040" fill="#000000" font-size="13" x="60.0" y="13.325" font-family="微软雅黑" font-weight="normal" font-style="normal" text-decoration="none" family="微软雅黑" text-anchor="middle" size="13">ControllerContext</text></g></g><g id="ProcessOnG1041" transform="matrix(1.0,0.0,0.0,1.0,1031.291666666666,716.006488921759)" opacity="1.0"><path id="ProcessOnPath1042" d="M0.0 0.0L250.0 0.0L250.0 25.86390004930422L0.0 25.86390004930422Z" stroke="#ffffff" stroke-width="2.0" stroke-dasharray="none" opacity="1.0" fill="#ffffff"/><g id="ProcessOnG1043" transform="matrix(1.0,0.0,0.0,1.0,10.0,4.80695002465211)"><text id="ProcessOnText1044" fill="#000000" font-size="13" x="114.0" y="13.325" font-family="微软雅黑" font-weight="normal" font-style="normal" text-decoration="none" family="微软雅黑" text-anchor="middle" size="13">cmd/kube-controller-manager/app</text></g></g><g id="ProcessOnG1045"><path id="ProcessOnPath1046" d="M936.5138888888897 684.0115740740741C1004.4361158839406 684.0115740740741 1038.3972174493915 683.9479166666667 1106.319444444444 683.9479166666667" stroke="#80ff00" stroke-width="2.0" stroke-dasharray="10.0 4.0" fill="none" marker-end="url(#ProcessOnMarker1047)"/><g id="ProcessOnG1049" transform="matrix(1.0,0.0,0.0,1.0,1021.4166666666663,675.8547453703704)"><path id="ProcessOnPath1050" d="M0 0H60.0V16.25H0Z" fill="#fff" transform="matrix(1.0,0.0,0.0,1.0,-30.0,0.0)"/><text id="ProcessOnText1051" fill="#000000" font-size="13" x="0.0" y="13.325" font-family="微软雅黑" font-weight="normal" font-style="normal" text-decoration="none" family="微软雅黑" text-anchor="middle" size="13">argument</text></g></g><g id="ProcessOnG1052" transform="matrix(1.0,0.0,0.0,1.0,1106.319444444444,662.4062499999998)" opacity="1.0"><path id="ProcessOnPath1053" d="M0.0 21.541666666666742C0.0 -7.180555555555581 168.6388888888889 -7.180555555555581 168.6388888888889 21.541666666666742C168.6388888888889 50.26388888888906 0.0 50.26388888888906 0.0 21.541666666666742Z" stroke="#323232" stroke-width="2.0" stroke-dasharray="none" opacity="1.0" fill="#ffffff"/><g id="ProcessOnG1054" transform="matrix(1.0,0.0,0.0,1.0,10.0,13.416666666666742)"><text id="ProcessOnText1055" fill="#000000" font-size="13" x="73.31944444444446" y="13.325" font-family="微软雅黑" font-weight="normal" font-style="normal" text-decoration="none" family="微软雅黑" text-anchor="middle" size="13">startXXXController(ctx)</text></g></g><g id="ProcessOnG1056"><path id="ProcessOnPath1057" d="M204.59619341563774 512.845164609053L205.60099451303148 641.5416666666663" stroke="#323232" stroke-width="2.0" stroke-dasharray="none" fill="none" marker-end="url(#ProcessOnMarker1058)"/></g><g id="ProcessOnG1060"><path id="ProcessOnPath1061" d="M468.4861111111119 408.8749999999991L865.5138888888894 661.5115740740741" stroke="#0000ff" stroke-width="2.0" stroke-dasharray="none" fill="none" marker-end="url(#ProcessOnMarker1062)"/><g id="ProcessOnG1064" transform="matrix(1.0,0.0,0.0,1.0,667.0000000000007,518.9432870370366)"><path id="ProcessOnPath1065" d="M0 0H158.0V32.5H0Z" fill="#fff" transform="matrix(1.0,0.0,0.0,1.0,-79.0,0.0)"/><text id="ProcessOnText1066" fill="#000000" font-size="13" x="0.0" y="13.325" font-family="微软雅黑" font-weight="normal" font-style="normal" text-decoration="none" family="微软雅黑" text-anchor="middle" size="13">CreateControllerContext()</text><text id="ProcessOnText1067" fill="#000000" font-size="13" x="0.0" y="29.575" font-family="微软雅黑" font-weight="normal" font-style="normal" text-decoration="none" family="微软雅黑" text-anchor="middle" size="13">argument</text></g></g><g id="ProcessOnG1068" transform="matrix(1.0,0.0,0.0,1.0,1115.8101851851839,202.25231481481546)" opacity="1.0"><path id="ProcessOnPath1069" d="M0.0 0.0L141.79859473921283 0.0L141.79859473921283 40.09722222222172L0.0 40.09722222222172Z" stroke="#323232" stroke-width="2.0" stroke-dasharray="none" opacity="1.0" fill="#ffffff"/><g id="ProcessOnG1070" transform="matrix(1.0,0.0,0.0,1.0,10.0,11.923611111110858)"><text id="ProcessOnText1071" fill="#000000" font-size="13" x="59.899297369606415" y="13.325" font-family="微软雅黑" font-weight="normal" font-style="normal" text-decoration="none" family="微软雅黑" text-anchor="middle" size="13">CompletedConfig</text></g></g><g id="ProcessOnG1072"><path id="ProcessOnPath1073" d="M1186.7094825547902 242.3495370370356L865.5138888888894 661.5115740740741" stroke="#0000ff" stroke-width="2.0" stroke-dasharray="none" fill="none" marker-end="url(#ProcessOnMarker1074)"/><g id="ProcessOnG1076" transform="matrix(1.0,0.0,0.0,1.0,1026.1116857218399,435.68055555555486)"><path id="ProcessOnPath1077" d="M0 0H150.0V32.5H0Z" fill="#fff" transform="matrix(1.0,0.0,0.0,1.0,-75.0,0.0)"/><text id="ProcessOnText1078" fill="#000000" font-size="13" x="0.0" y="13.325" font-family="微软雅黑" font-weight="normal" font-style="normal" text-decoration="none" family="微软雅黑" text-anchor="middle" size="13">CreateControllerContext</text><text id="ProcessOnText1079" fill="#000000" font-size="13" x="0.0" y="29.575" font-family="微软雅黑" font-weight="normal" font-style="normal" text-decoration="none" family="微软雅黑" text-anchor="middle" size="13">argument</text></g></g><g id="ProcessOnG1080" transform="matrix(1.0,0.0,0.0,1.0,989.208333333333,130.12499999999977)" opacity="1.0"><path id="ProcessOnPath1081" d="M0.0 0.0L290.0 0.0L290.0 24.0L0.0 24.0Z" stroke="#ffffff" stroke-width="2.0" stroke-dasharray="none" opacity="1.0" fill="#ffffff"/><g id="ProcessOnG1082" transform="matrix(1.0,0.0,0.0,1.0,10.0,3.875)"><text id="ProcessOnText1083" fill="#000000" font-size="13" x="134.0" y="13.325" font-family="微软雅黑" font-weight="normal" font-style="normal" text-decoration="none" family="微软雅黑" text-anchor="middle" size="13">cmd/cloud-controller-manager/app/config</text></g></g><g id="ProcessOnG1084" transform="matrix(1.0,0.0,0.0,1.0,324.4583333333328,110.125)" opacity="1.0"><path id="ProcessOnPath1085" d="M11.0 0.0L11.0 643.75" stroke="#323232" stroke-width="2.0" stroke-dasharray="10.0 4.0" opacity="1.0" fill="none"/><path id="ProcessOnPath1086" d="M0.0 0.0L21.0 0.0L21.0 643.75L0.0 643.75Z" stroke="none" stroke-width="0.0" stroke-dasharray="0.0 0.0" opacity="1.0" fill="none"/></g><g id="ProcessOnG1087" transform="matrix(1.0,0.0,0.0,1.0,708.4583333333336,128.89062499999977)" opacity="1.0"><path id="ProcessOnPath1088" d="M0.0 0.0L112.0 0.0L112.0 25.0L0.0 25.0Z" stroke="#ffffff" stroke-width="2.0" stroke-dasharray="none" opacity="1.0" fill="#ffffff"/><g id="ProcessOnG1089" transform="matrix(1.0,0.0,0.0,1.0,10.0,4.375)"><text id="ProcessOnText1090" fill="#000000" font-size="13" x="45.0" y="13.325" font-family="微软雅黑" font-weight="normal" font-style="normal" text-decoration="none" family="微软雅黑" text-anchor="middle" size="13">pkg/controller</text></g></g><g id="ProcessOnG1091" transform="matrix(1.0,0.0,0.0,1.0,943.7916666666671,110.125)" opacity="1.0"><path id="ProcessOnPath1092" d="M11.0 0.0L11.0 318.75" stroke="#323232" stroke-width="2.0" stroke-dasharray="10.0 4.0" opacity="1.0" fill="none"/><path id="ProcessOnPath1093" d="M0.0 0.0L21.0 0.0L21.0 318.75L0.0 318.75Z" stroke="none" stroke-width="0.0" stroke-dasharray="0.0 0.0" opacity="1.0" fill="none"/></g><g id="ProcessOnG1094" transform="matrix(1.0,0.0,0.0,1.0,114.62500000000006,424.14351851851734)" opacity="1.0"><path id="ProcessOnPath1095" d="M0.0 11.0L1169.0833333333333 11.0" stroke="#323232" stroke-width="2.0" stroke-dasharray="10.0 4.0" opacity="1.0" fill="none"/><path id="ProcessOnPath1096" d="M0.0 0.0L1169.0833333333333 0.0L1169.0833333333333 21.0L0.0 21.0Z" stroke="none" stroke-width="0.0" stroke-dasharray="0.0 0.0" opacity="1.0" fill="none"/></g><g id="ProcessOnG1097"><path id="ProcessOnPath1098" d="M1115.8101851851839 222.30092592592473L644.5138888888891 221.7083333333312" stroke="#323232" stroke-width="2.0" stroke-dasharray="none" fill="none" marker-end="url(#ProcessOnMarker1099)"/><g id="ProcessOnG1101" transform="matrix(1.0,0.0,0.0,1.0,880.1620370370365,213.87962962962797)"><path id="ProcessOnPath1102" d="M0 0H163.0V16.25H0Z" fill="#fff" transform="matrix(1.0,0.0,0.0,1.0,-81.5,0.0)"/><text id="ProcessOnText1103" fill="#000000" font-size="13" x="0.0" y="13.325" font-family="微软雅黑" font-weight="normal" font-style="normal" text-decoration="none" family="微软雅黑" text-anchor="middle" size="13">SAControllerClientBuilder{}</text></g></g><g id="ProcessOnG1104"><path id="ProcessOnPath1105" d="M251.6009945130313 661.5416666666667L468.4861111111119 408.8749999999991" stroke="#cc0000" stroke-width="2.0" stroke-dasharray="none" fill="none" marker-end="url(#ProcessOnMarker1106)"/><g id="ProcessOnG1108" transform="matrix(1.0,0.0,0.0,1.0,360.0435528120716,510.8333333333329)"><path id="ProcessOnPath1109" d="M0 0H163.0V48.75H0Z" fill="#fff" transform="matrix(1.0,0.0,0.0,1.0,-81.5,0.0)"/><text id="ProcessOnText1110" fill="#000000" font-size="13" x="0.0" y="13.325" font-family="微软雅黑" font-weight="normal" font-style="normal" text-decoration="none" family="微软雅黑" text-anchor="middle" size="13">SAControllerClientBuilder{}</text><text id="ProcessOnText1111" fill="#000000" font-size="13" x="0.0" y="29.575" font-family="微软雅黑" font-weight="normal" font-style="normal" text-decoration="none" family="微软雅黑" text-anchor="middle" size="13">CoreV1()</text><text id="ProcessOnText1112" fill="#000000" font-size="13" x="0.0" y="45.825" font-family="微软雅黑" font-weight="normal" font-style="normal" text-decoration="none" family="微软雅黑" text-anchor="middle" size="13">AuthenticationV1()</text></g></g><g id="ProcessOnG1113" transform="matrix(1.0,0.0,0.0,1.0,723.4583333333336,376.0138888888873)" opacity="1.0"><path id="ProcessOnPath1114" d="M0.0 0.0L206.2685185185186 0.0L206.2685185185186 33.972222222222626L0.0 33.972222222222626Z" stroke="#323232" stroke-width="2.0" stroke-dasharray="none" opacity="1.0" fill="#ffffff"/><g id="ProcessOnG1115" transform="matrix(1.0,0.0,0.0,1.0,10.0,8.861111111111313)"><text id="ProcessOnText1116" fill="#000000" font-size="13" x="92.1342592592593" y="13.325" font-family="微软雅黑" font-weight="normal" font-style="normal" text-decoration="none" family="微软雅黑" text-anchor="middle" size="13">SimpleControllerClientBuilder</text></g></g><g id="ProcessOnG1117" transform="matrix(1.0,0.0,0.0,1.0,373.12499999999966,377.12499999999864)" opacity="1.0"><path id="ProcessOnPath1118" d="M0.0 0.0L190.7222222222225 0.0L190.7222222222225 31.750000000000227L0.0 31.750000000000227Z" stroke="#323232" stroke-width="2.0" stroke-dasharray="none" opacity="1.0" fill="#ffffff"/><g id="ProcessOnG1119" transform="matrix(1.0,0.0,0.0,1.0,10.0,7.750000000000114)"><text id="ProcessOnText1120" fill="#000000" font-size="13" x="84.36111111111126" y="13.325" font-family="微软雅黑" font-weight="normal" font-style="normal" text-decoration="none" family="微软雅黑" text-anchor="middle" size="13">SAControllerClientBuilder</text></g></g><g id="ProcessOnG1121"><path id="ProcessOnPath1122" d="M1115.8101851851839 222.30092592592473L468.4861111111119 377.12499999999864" stroke="#cc0000" stroke-width="2.0" stroke-dasharray="none" fill="none" marker-end="url(#ProcessOnMarker1123)"/><g id="ProcessOnG1125" transform="matrix(1.0,0.0,0.0,1.0,792.1481481481478,291.5879629629617)"><path id="ProcessOnPath1126" d="M0 0H163.0V16.25H0Z" fill="#fff" transform="matrix(1.0,0.0,0.0,1.0,-81.5,0.0)"/><text id="ProcessOnText1127" fill="#000000" font-size="13" x="0.0" y="13.325" font-family="微软雅黑" font-weight="normal" font-style="normal" text-decoration="none" family="微软雅黑" text-anchor="middle" size="13">SAControllerClientBuilder{}</text></g></g><g id="ProcessOnG1128"><path id="ProcessOnPath1129" d="M826.5925925925928 409.9861111111104L865.5138888888894 661.5115740740741" stroke="#0000ff" stroke-width="2.0" stroke-dasharray="none" fill="none" marker-end="url(#ProcessOnMarker1130)"/><g id="ProcessOnG1132" transform="matrix(1.0,0.0,0.0,1.0,846.0532407407411,519.4988425925923)"><path id="ProcessOnPath1133" d="M0 0H158.0V32.5H0Z" fill="#fff" transform="matrix(1.0,0.0,0.0,1.0,-79.0,0.0)"/><text id="ProcessOnText1134" fill="#000000" font-size="13" x="0.0" y="13.325" font-family="微软雅黑" font-weight="normal" font-style="normal" text-decoration="none" family="微软雅黑" text-anchor="middle" size="13">CreateControllerContext()</text><text id="ProcessOnText1135" fill="#000000" font-size="13" x="0.0" y="29.575" font-family="微软雅黑" font-weight="normal" font-style="normal" text-decoration="none" family="微软雅黑" text-anchor="middle" size="13">argument</text></g></g><g id="ProcessOnG1136"><path id="ProcessOnPath1137" d="M468.4861111111119 377.12499999999864L562.0138888888891 245.70833333333167" stroke="#323232" stroke-width="2.0" stroke-dasharray="none" fill="none" marker-end="url(#ProcessOnMarker1138)"/></g><g id="ProcessOnG1140"><path id="ProcessOnPath1141" d="M826.5925925925928 376.0138888888873L562.0138888888891 245.70833333333167" stroke="#323232" stroke-width="2.0" stroke-dasharray="none" fill="none" marker-end="url(#ProcessOnMarker1142)"/></g></g></g></svg>