<svg xmlns="http://www.w3.org/2000/svg" xmlns:xlink="http://www.w3.org/1999/xlink" id="processonSvg1000" viewBox="67.0 77.0 1412.0 407.0" width="1412.0" height="407.0"><defs id="ProcessOnDefs1001"><marker id="ProcessOnMarker1007" markerUnits="userSpaceOnUse" orient="auto" markerWidth="14.289086868996552" markerHeight="19.055054660878554" viewBox="-0.5877852522924731 -0.8090169943749475 14.289086868996552 19.055054660878554" refX="12.0" refY="8.71851033606433"><path id="ProcessOnPath1008" d="M0 0L12.0 8.71851033606433L0 17.43702067212866" stroke="#323232" stroke-width="2.0" fill="none" transform="matrix(1.0,0.0,0.0,1.0,0.0,0.0)"/></marker><marker id="ProcessOnMarker1029" markerUnits="userSpaceOnUse" orient="auto" markerWidth="16.23606797749979" markerHeight="10.550836550532098" viewBox="-1.0 -1.3763819204711736 16.23606797749979 10.550836550532098" refX="-1.0" refY="3.8990363547948754"><path id="ProcessOnPath1030" d="M12.0 3.8990363547948754L0.0 7.798072709589751V0.0Z" stroke="#323232" stroke-width="2.0" fill="#fff" transform="matrix(1.0,0.0,0.0,1.0,0.0,0.0)"/></marker><marker id="ProcessOnMarker1038" markerUnits="userSpaceOnUse" orient="auto" markerWidth="16.23606797749979" markerHeight="10.550836550532098" viewBox="-1.0 -1.3763819204711736 16.23606797749979 10.550836550532098" refX="-1.0" refY="3.8990363547948754"><path id="ProcessOnPath1039" d="M12.0 3.8990363547948754L0.0 7.798072709589751V0.0Z" stroke="#323232" stroke-width="2.0" fill="#fff" transform="matrix(1.0,0.0,0.0,1.0,0.0,0.0)"/></marker><marker id="ProcessOnMarker1050" markerUnits="userSpaceOnUse" orient="auto" markerWidth="14.289086868996552" markerHeight="19.055054660878554" viewBox="-0.5877852522924731 -0.8090169943749475 14.289086868996552 19.055054660878554" refX="12.0" refY="8.71851033606433"><path id="ProcessOnPath1051" d="M0 0L12.0 8.71851033606433L0 17.43702067212866" stroke="#323232" stroke-width="2.0" fill="none" transform="matrix(1.0,0.0,0.0,1.0,0.0,0.0)"/></marker><marker id="ProcessOnMarker1058" markerUnits="userSpaceOnUse" orient="auto" markerWidth="14.289086868996552" markerHeight="19.055054660878554" viewBox="-0.5877852522924731 -0.8090169943749475 14.289086868996552 19.055054660878554" refX="12.0" refY="8.71851033606433"><path id="ProcessOnPath1059" d="M0 0L12.0 8.71851033606433L0 17.43702067212866" stroke="#323232" stroke-width="2.0" fill="none" transform="matrix(1.0,0.0,0.0,1.0,0.0,0.0)"/></marker><marker id="ProcessOnMarker1065" markerUnits="userSpaceOnUse" orient="auto" markerWidth="14.289086868996552" markerHeight="19.055054660878554" viewBox="-0.5877852522924731 -0.8090169943749475 14.289086868996552 19.055054660878554" refX="12.0" refY="8.71851033606433"><path id="ProcessOnPath1066" d="M0 0L12.0 8.71851033606433L0 17.43702067212866" stroke="#323232" stroke-width="2.0" fill="none" transform="matrix(1.0,0.0,0.0,1.0,0.0,0.0)"/></marker><marker id="ProcessOnMarker1085" markerUnits="userSpaceOnUse" orient="auto" markerWidth="14.289086868996552" markerHeight="19.055054660878554" viewBox="-0.5877852522924731 -0.8090169943749475 14.289086868996552 19.055054660878554" refX="12.0" refY="8.71851033606433"><path id="ProcessOnPath1086" d="M0 0L12.0 8.71851033606433L0 17.43702067212866" stroke="#323232" stroke-width="2.0" fill="none" transform="matrix(1.0,0.0,0.0,1.0,0.0,0.0)"/></marker><marker id="ProcessOnMarker1089" markerUnits="userSpaceOnUse" orient="auto" markerWidth="14.289086868996552" markerHeight="19.055054660878554" viewBox="-0.5877852522924731 -0.8090169943749475 14.289086868996552 19.055054660878554" refX="12.0" refY="8.71851033606433"><path id="ProcessOnPath1090" d="M0 0L12.0 8.71851033606433L0 17.43702067212866" stroke="#323232" stroke-width="2.0" fill="none" transform="matrix(1.0,0.0,0.0,1.0,0.0,0.0)"/></marker><marker id="ProcessOnMarker1097" markerUnits="userSpaceOnUse" orient="auto" markerWidth="14.289086868996552" markerHeight="19.055054660878554" viewBox="-0.5877852522924731 -0.8090169943749475 14.289086868996552 19.055054660878554" refX="12.0" refY="8.71851033606433"><path id="ProcessOnPath1098" d="M0 0L12.0 8.71851033606433L0 17.43702067212866" stroke="#323232" stroke-width="2.0" fill="none" transform="matrix(1.0,0.0,0.0,1.0,0.0,0.0)"/></marker><marker id="ProcessOnMarker1112" markerUnits="userSpaceOnUse" orient="auto" markerWidth="14.289086868996552" markerHeight="19.055054660878554" viewBox="-0.5877852522924731 -0.8090169943749475 14.289086868996552 19.055054660878554" refX="12.0" refY="8.71851033606433"><path id="ProcessOnPath1113" d="M0 0L12.0 8.71851033606433L0 17.43702067212866" stroke="#323232" stroke-width="2.0" fill="none" transform="matrix(1.0,0.0,0.0,1.0,0.0,0.0)"/></marker><marker id="ProcessOnMarker1124" markerUnits="userSpaceOnUse" orient="auto" markerWidth="14.289086868996552" markerHeight="19.055054660878554" viewBox="-0.5877852522924731 -0.8090169943749475 14.289086868996552 19.055054660878554" refX="12.0" refY="8.71851033606433"><path id="ProcessOnPath1125" d="M0 0L12.0 8.71851033606433L0 17.43702067212866" stroke="#323232" stroke-width="2.0" fill="none" transform="matrix(1.0,0.0,0.0,1.0,0.0,0.0)"/></marker><marker id="ProcessOnMarker1143" markerUnits="userSpaceOnUse" orient="auto" markerWidth="14.289086868996552" markerHeight="19.055054660878554" viewBox="-0.5877852522924731 -0.8090169943749475 14.289086868996552 19.055054660878554" refX="12.0" refY="8.71851033606433"><path id="ProcessOnPath1144" d="M0 0L12.0 8.71851033606433L0 17.43702067212866" stroke="#323232" stroke-width="2.0" fill="none" transform="matrix(1.0,0.0,0.0,1.0,0.0,0.0)"/></marker><marker id="ProcessOnMarker1147" markerUnits="userSpaceOnUse" orient="auto" markerWidth="14.289086868996552" markerHeight="19.055054660878554" viewBox="-0.5877852522924731 -0.8090169943749475 14.289086868996552 19.055054660878554" refX="12.0" refY="8.71851033606433"><path id="ProcessOnPath1148" d="M0 0L12.0 8.71851033606433L0 17.43702067212866" stroke="#66ffff" stroke-width="2.0" fill="none" transform="matrix(1.0,0.0,0.0,1.0,0.0,0.0)"/></marker></defs><g id="ProcessOnG1002"><path id="ProcessOnPath1003" d="M67.0 77.0H1479.0V484.0H67.0V77.0Z" fill="none"/><g id="ProcessOnG1004"><g id="ProcessOnG1005"><path id="ProcessOnPath1006" d="M884.0 432.0C884.0 369.5666755650478 960.5666755650478 361.0 1023.0 361.0" stroke="#323232" stroke-width="2.0" stroke-dasharray="10.0 4.0" fill="none" marker-end="url(#ProcessOnMarker1007)"/><g id="ProcessOnG1009" transform="matrix(1.0,0.0,0.0,1.0,930.087503336893,364.96250333689295)"><path id="ProcessOnPath1010" d="M0 0H38.0V16.25H0Z" fill="#fff" transform="matrix(1.0,0.0,0.0,1.0,-19.0,0.0)"/><text id="ProcessOnText1011" fill="#000000" font-size="13" x="0.0" y="13.325" font-family="微软雅黑" font-weight="normal" font-style="normal" text-decoration="none" family="微软雅黑" text-anchor="middle" size="13">retrun</text></g></g><g id="ProcessOnG1012" transform="matrix(1.0,0.0,0.0,1.0,369.5,101.0)" opacity="1.0"><path id="ProcessOnPath1013" d="M0.0 0.0L199.5 0.0L199.5 32.0L0.0 32.0Z" stroke="#ffffff" stroke-width="2.0" stroke-dasharray="none" opacity="1.0" fill="#ffffff"/><g id="ProcessOnG1014" transform="matrix(1.0,0.0,0.0,1.0,10.0,7.875)"><text id="ProcessOnText1015" fill="#000000" font-size="13" x="88.75" y="13.325" font-family="微软雅黑" font-weight="normal" font-style="normal" text-decoration="none" family="微软雅黑" text-anchor="middle" size="13">CreateControllerContext()</text></g></g><g id="ProcessOnG1016" transform="matrix(1.0,0.0,0.0,1.0,369.5,133.0)" opacity="1.0"><path id="ProcessOnPath1017" d="M0.0 0.0L221.0 0.0L221.0 218.0L0.0 218.0Z" stroke="#323232" stroke-width="2.0" stroke-dasharray="none" opacity="1.0" fill="#ffffff"/></g><g id="ProcessOnG1018" transform="matrix(1.0,0.0,0.0,1.0,380.0,199.0)" opacity="1.0"><path id="ProcessOnPath1019" d="M0.0 0.0L200.0 0.0L200.0 32.0L0.0 32.0Z" stroke="#323232" stroke-width="2.0" stroke-dasharray="none" opacity="1.0" fill="#ffffff"/><g id="ProcessOnG1020" transform="matrix(1.0,0.0,0.0,1.0,10.0,-0.25)"><text id="ProcessOnText1021" fill="#000000" font-size="13" x="89.0" y="13.325" font-family="微软雅黑" font-weight="normal" font-style="normal" text-decoration="none" family="微软雅黑" text-anchor="middle" size="13">SimpleControllerClientBuilde</text><text id="ProcessOnText1022" fill="#000000" font-size="13" x="89.0" y="29.575" font-family="微软雅黑" font-weight="normal" font-style="normal" text-decoration="none" family="微软雅黑" text-anchor="middle" size="13">r</text></g></g><g id="ProcessOnG1023" transform="matrix(1.0,0.0,0.0,1.0,380.0,251.0)" opacity="1.0"><path id="ProcessOnPath1024" d="M0.0 0.0L200.0 0.0L200.0 30.0L0.0 30.0Z" stroke="#323232" stroke-width="2.0" stroke-dasharray="none" opacity="1.0" fill="#ffffff"/><g id="ProcessOnG1025" transform="matrix(1.0,0.0,0.0,1.0,10.0,6.875)"><text id="ProcessOnText1026" fill="#000000" font-size="13" x="89.0" y="13.325" font-family="微软雅黑" font-weight="normal" font-style="normal" text-decoration="none" family="微软雅黑" text-anchor="middle" size="13">SAControllerClientBuilder</text></g></g><g id="ProcessOnG1027"><path id="ProcessOnPath1028" d="M380.0 266.0C341.1505469793975 266.0 325.8494530206025 238.0 302.2360679774998 238.0" stroke="#323232" stroke-width="2.0" stroke-dasharray="none" fill="none" marker-end="url(#ProcessOnMarker1029)"/></g><g id="ProcessOnG1031" transform="matrix(1.0,0.0,0.0,1.0,87.0,222.0)" opacity="1.0"><path id="ProcessOnPath1032" d="M0.0 0.0L200.0 0.0L200.0 32.0L0.0 32.0Z" stroke="#323232" stroke-width="2.0" stroke-dasharray="none" opacity="1.0" fill="#ffffff"/><g id="ProcessOnG1033" transform="matrix(1.0,0.0,0.0,1.0,10.0,-0.25)"><text id="ProcessOnText1034" fill="#000000" font-size="13" x="89.0" y="13.325" font-family="微软雅黑" font-weight="normal" font-style="normal" text-decoration="none" family="微软雅黑" text-anchor="middle" size="13">SimpleControllerClientBuilde</text><text id="ProcessOnText1035" fill="#000000" font-size="13" x="89.0" y="29.575" font-family="微软雅黑" font-weight="normal" font-style="normal" text-decoration="none" family="微软雅黑" text-anchor="middle" size="13">r</text></g></g><g id="ProcessOnG1036"><path id="ProcessOnPath1037" d="M380.0 215.0C341.679248441608 215.0 325.320751558392 238.0 302.2360679774998 238.0" stroke="#323232" stroke-width="2.0" stroke-dasharray="none" fill="none" marker-end="url(#ProcessOnMarker1038)"/></g><g id="ProcessOnG1040" transform="matrix(1.0,0.0,0.0,1.0,380.0,148.0)" opacity="1.0"><path id="ProcessOnPath1041" d="M0.0 0.0L200.0 0.0L200.0 32.0L0.0 32.0Z" stroke="#323232" stroke-width="2.0" stroke-dasharray="none" opacity="1.0" fill="#ffffff"/><g id="ProcessOnG1042" transform="matrix(1.0,0.0,0.0,1.0,10.0,7.875)"><text id="ProcessOnText1043" fill="#000000" font-size="13" x="89.0" y="13.325" font-family="微软雅黑" font-weight="normal" font-style="normal" text-decoration="none" family="微软雅黑" text-anchor="middle" size="13">Generic</text></g></g><g id="ProcessOnG1044" transform="matrix(1.0,0.0,0.0,1.0,380.0,300.0)" opacity="1.0"><path id="ProcessOnPath1045" d="M0.0 0.0L200.0 0.0L200.0 32.0L0.0 32.0Z" stroke="#323232" stroke-width="2.0" stroke-dasharray="none" opacity="1.0" fill="#ffffff"/><g id="ProcessOnG1046" transform="matrix(1.0,0.0,0.0,1.0,10.0,7.875)"><text id="ProcessOnText1047" fill="#000000" font-size="13" x="89.0" y="13.325" font-family="微软雅黑" font-weight="normal" font-style="normal" text-decoration="none" family="微软雅黑" text-anchor="middle" size="13">stopCh chan struct{}</text></g></g><g id="ProcessOnG1048"><path id="ProcessOnPath1049" d="M580.0 215.0C594.8862352527427 215.0 597.1137647472573 196.0 612.0 196.0" stroke="#323232" stroke-width="2.0" stroke-dasharray="10.0 4.0" fill="none" marker-end="url(#ProcessOnMarker1050)"/></g><g id="ProcessOnG1052" transform="matrix(1.0,0.0,0.0,1.0,1023.0,185.0)" opacity="1.0"><path id="ProcessOnPath1053" d="M0.0 0.0L200.0 0.0L200.0 32.0L0.0 32.0Z" stroke="#323232" stroke-width="2.0" stroke-dasharray="none" opacity="1.0" fill="#ffffff"/><g id="ProcessOnG1054" transform="matrix(1.0,0.0,0.0,1.0,10.0,7.875)"><text id="ProcessOnText1055" fill="#000000" font-size="13" x="89.0" y="13.325" font-family="微软雅黑" font-weight="normal" font-style="normal" text-decoration="none" family="微软雅黑" text-anchor="middle" size="13">InformerFactory</text></g></g><g id="ProcessOnG1056"><path id="ProcessOnPath1057" d="M812.0 196.0C896.4236933567822 196.0 938.5763066432178 201.0 1023.0 201.0" stroke="#323232" stroke-width="2.0" stroke-dasharray="10.0 4.0" fill="none" marker-end="url(#ProcessOnMarker1058)"/><g id="ProcessOnG1060" transform="matrix(1.0,0.0,0.0,1.0,917.5,190.375)"><path id="ProcessOnPath1061" d="M0 0H171.0V16.25H0Z" fill="#fff" transform="matrix(1.0,0.0,0.0,1.0,-85.5,0.0)"/><text id="ProcessOnText1062" fill="#000000" font-size="13" x="0.0" y="13.325" font-family="微软雅黑" font-weight="normal" font-style="normal" text-decoration="none" family="微软雅黑" text-anchor="middle" size="13">NewSharedInformerFactory</text></g></g><g id="ProcessOnG1063"><path id="ProcessOnPath1064" d="M580.0 215.0C712.0 244.0 845.6537849290264 233.0 1023.0 233.0" stroke="#323232" stroke-width="2.0" stroke-dasharray="10.0 4.0" fill="none" marker-end="url(#ProcessOnMarker1065)"/><g id="ProcessOnG1067" transform="matrix(1.0,0.0,0.0,1.0,784.4951693483849,218.625)"><path id="ProcessOnPath1068" d="M0 0H138.0V32.5H0Z" fill="#fff" transform="matrix(1.0,0.0,0.0,1.0,-69.0,0.0)"/><text id="ProcessOnText1069" fill="#000000" font-size="13" x="0.0" y="13.325" font-family="微软雅黑" font-weight="normal" font-style="normal" text-decoration="none" family="微软雅黑" text-anchor="middle" size="13">GetAvailableResources</text><text id="ProcessOnText1070" fill="#000000" font-size="13" x="0.0" y="29.575" font-family="微软雅黑" font-weight="normal" font-style="normal" text-decoration="none" family="微软雅黑" text-anchor="middle" size="13">argument</text></g></g><g id="ProcessOnG1071" transform="matrix(1.0,0.0,0.0,1.0,1023.0,217.0)" opacity="1.0"><path id="ProcessOnPath1072" d="M0.0 0.0L200.0 0.0L200.0 32.0L0.0 32.0Z" stroke="#323232" stroke-width="2.0" stroke-dasharray="none" opacity="1.0" fill="#ffffff"/><g id="ProcessOnG1073" transform="matrix(1.0,0.0,0.0,1.0,10.0,7.875)"><text id="ProcessOnText1074" fill="#000000" font-size="13" x="89.0" y="13.325" font-family="微软雅黑" font-weight="normal" font-style="normal" text-decoration="none" family="微软雅黑" text-anchor="middle" size="13">AvailableResources</text></g></g><g id="ProcessOnG1075" transform="matrix(1.0,0.0,0.0,1.0,1023.0,97.0)" opacity="1.0"><path id="ProcessOnPath1076" d="M0.0 0.0L200.0 0.0L200.0 32.0L0.0 32.0Z" stroke="#323232" stroke-width="2.0" stroke-dasharray="none" opacity="1.0" fill="#ffffff"/><g id="ProcessOnG1077" transform="matrix(1.0,0.0,0.0,1.0,10.0,7.875)"><text id="ProcessOnText1078" fill="#000000" font-size="13" x="89.0" y="13.325" font-family="微软雅黑" font-weight="normal" font-style="normal" text-decoration="none" family="微软雅黑" text-anchor="middle" size="13">ControllerContext</text></g></g><g id="ProcessOnG1079" transform="matrix(1.0,0.0,0.0,1.0,1023.0,249.0)" opacity="1.0"><path id="ProcessOnPath1080" d="M0.0 0.0L200.0 0.0L200.0 32.0L0.0 32.0Z" stroke="#323232" stroke-width="2.0" stroke-dasharray="none" opacity="1.0" fill="#ffffff"/><g id="ProcessOnG1081" transform="matrix(1.0,0.0,0.0,1.0,10.0,7.875)"><text id="ProcessOnText1082" fill="#000000" font-size="13" x="89.0" y="13.325" font-family="微软雅黑" font-weight="normal" font-style="normal" text-decoration="none" family="微软雅黑" text-anchor="middle" size="13">ClientBuilder</text></g></g><g id="ProcessOnG1083"><path id="ProcessOnPath1084" d="M1222.5358983848623 126.0C1232.9282032302756 132.0 1232.9282032302756 150.0 1222.5358983848623 156.0" stroke="#323232" stroke-width="2.0" stroke-dasharray="none" fill="none" marker-end="url(#ProcessOnMarker1085)"/></g><g id="ProcessOnG1087"><path id="ProcessOnPath1088" d="M580.0 266.0C757.2004514666935 266.0 845.7995485333065 265.0 1023.0 265.0" stroke="#323232" stroke-width="2.0" stroke-dasharray="none" fill="none" marker-end="url(#ProcessOnMarker1089)"/></g><g id="ProcessOnG1091" transform="matrix(1.0,0.0,0.0,1.0,1023.0,153.0)" opacity="1.0"><path id="ProcessOnPath1092" d="M0.0 0.0L200.0 0.0L200.0 32.0L0.0 32.0Z" stroke="#323232" stroke-width="2.0" stroke-dasharray="none" opacity="1.0" fill="#ffffff"/><g id="ProcessOnG1093" transform="matrix(1.0,0.0,0.0,1.0,10.0,7.875)"><text id="ProcessOnText1094" fill="#000000" font-size="13" x="89.0" y="13.325" font-family="微软雅黑" font-weight="normal" font-style="normal" text-decoration="none" family="微软雅黑" text-anchor="middle" size="13">ComponentConfig</text></g></g><g id="ProcessOnG1095"><path id="ProcessOnPath1096" d="M580.0 164.0C757.2112863222882 163.99999999999997 845.7887136777118 169.0 1023.0 169.0" stroke="#323232" stroke-width="2.0" stroke-dasharray="none" fill="none" marker-end="url(#ProcessOnMarker1097)"/><g id="ProcessOnG1099" transform="matrix(1.0,0.0,0.0,1.0,801.5,158.375)"><path id="ProcessOnPath1100" d="M0 0H114.0V16.25H0Z" fill="#fff" transform="matrix(1.0,0.0,0.0,1.0,-57.0,0.0)"/><text id="ProcessOnText1101" fill="#000000" font-size="13" x="0.0" y="13.325" font-family="微软雅黑" font-weight="normal" font-style="normal" text-decoration="none" family="微软雅黑" text-anchor="middle" size="13">ComponentConfig</text></g></g><g id="ProcessOnG1102" transform="matrix(1.0,0.0,0.0,1.0,612.0,180.0)" opacity="1.0"><path id="ProcessOnPath1103" d="M0.0 0.0L200.0 0.0L200.0 32.0L0.0 32.0Z" stroke="#323232" stroke-width="2.0" stroke-dasharray="none" opacity="1.0" fill="#ffffff"/><g id="ProcessOnG1104" transform="matrix(1.0,0.0,0.0,1.0,10.0,7.875)"><text id="ProcessOnText1105" fill="#000000" font-size="13" x="89.0" y="13.325" font-family="微软雅黑" font-weight="normal" font-style="normal" text-decoration="none" family="微软雅黑" text-anchor="middle" size="13">clientset.Interface</text></g></g><g id="ProcessOnG1106" transform="matrix(1.0,0.0,0.0,1.0,1023.0,281.0)" opacity="1.0"><path id="ProcessOnPath1107" d="M0.0 0.0L200.0 0.0L200.0 32.0L0.0 32.0Z" stroke="#323232" stroke-width="2.0" stroke-dasharray="none" opacity="1.0" fill="#ffffff"/><g id="ProcessOnG1108" transform="matrix(1.0,0.0,0.0,1.0,10.0,7.875)"><text id="ProcessOnText1109" fill="#000000" font-size="13" x="89.0" y="13.325" font-family="微软雅黑" font-weight="normal" font-style="normal" text-decoration="none" family="微软雅黑" text-anchor="middle" size="13">Stop</text></g></g><g id="ProcessOnG1110"><path id="ProcessOnPath1111" d="M580.0 316.0C757.3629048025545 316.0 845.6370951974455 297.0 1023.0 297.0" stroke="#323232" stroke-width="2.0" stroke-dasharray="none" fill="none" marker-end="url(#ProcessOnMarker1112)"/></g><g id="ProcessOnG1114" transform="matrix(1.0,0.0,0.0,1.0,1023.0,345.0)" opacity="1.0"><path id="ProcessOnPath1115" d="M0.0 0.0L200.0 0.0L200.0 32.0L0.0 32.0Z" stroke="#323232" stroke-width="2.0" stroke-dasharray="none" opacity="1.0" fill="#ffffff"/><g id="ProcessOnG1116" transform="matrix(1.0,0.0,0.0,1.0,10.0,7.875)"><text id="ProcessOnText1117" fill="#000000" font-size="13" x="89.0" y="13.325" font-family="微软雅黑" font-weight="normal" font-style="normal" text-decoration="none" family="微软雅黑" text-anchor="middle" size="13">LoopMode</text></g></g><g id="ProcessOnG1118" transform="matrix(1.0,0.0,0.0,1.0,1023.0,313.0)" opacity="1.0"><path id="ProcessOnPath1119" d="M0.0 0.0L200.0 0.0L200.0 32.0L0.0 32.0Z" stroke="#323232" stroke-width="2.0" stroke-dasharray="none" opacity="1.0" fill="#ffffff"/><g id="ProcessOnG1120" transform="matrix(1.0,0.0,0.0,1.0,10.0,7.875)"><text id="ProcessOnText1121" fill="#000000" font-size="13" x="89.0" y="13.325" font-family="微软雅黑" font-weight="normal" font-style="normal" text-decoration="none" family="微软雅黑" text-anchor="middle" size="13">Cloud</text></g></g><g id="ProcessOnG1122"><path id="ProcessOnPath1123" d="M884.0 432.0C884.0 362.79884394029244 953.7988439402925 329.0 1023.0 329.0" stroke="#323232" stroke-width="2.0" stroke-dasharray="10.0 4.0" fill="none" marker-end="url(#ProcessOnMarker1124)"/><g id="ProcessOnG1126" transform="matrix(1.0,0.0,0.0,1.0,927.5495664776097,346.4245664776097)"><path id="ProcessOnPath1127" d="M0 0H38.0V16.25H0Z" fill="#fff" transform="matrix(1.0,0.0,0.0,1.0,-19.0,0.0)"/><text id="ProcessOnText1128" fill="#000000" font-size="13" x="0.0" y="13.325" font-family="微软雅黑" font-weight="normal" font-style="normal" text-decoration="none" family="微软雅黑" text-anchor="middle" size="13">retrun</text></g></g><g id="ProcessOnG1129" transform="matrix(1.0,0.0,0.0,1.0,784.0,432.0)" opacity="1.0"><path id="ProcessOnPath1130" d="M0.0 0.0L200.0 0.0L200.0 32.0L0.0 32.0Z" stroke="#ffffff" stroke-width="2.0" stroke-dasharray="none" opacity="1.0" fill="#ffffff"/><g id="ProcessOnG1131" transform="matrix(1.0,0.0,0.0,1.0,10.0,7.875)"><text id="ProcessOnText1132" fill="#000000" font-size="13" x="89.0" y="13.325" font-family="微软雅黑" font-weight="normal" font-style="normal" text-decoration="none" family="微软雅黑" text-anchor="middle" size="13">createCloudProvider</text></g></g><g id="ProcessOnG1133" transform="matrix(1.0,0.0,0.0,1.0,1023.0,377.0)" opacity="1.0"><path id="ProcessOnPath1134" d="M0.0 0.0L200.0 0.0L200.0 32.0L0.0 32.0Z" stroke="#323232" stroke-width="2.0" stroke-dasharray="none" opacity="1.0" fill="#ffffff"/><g id="ProcessOnG1135" transform="matrix(1.0,0.0,0.0,1.0,10.0,7.875)"><text id="ProcessOnText1136" fill="#000000" font-size="13" x="89.0" y="13.325" font-family="微软雅黑" font-weight="normal" font-style="normal" text-decoration="none" family="微软雅黑" text-anchor="middle" size="13">ResyncPeriod</text></g></g><g id="ProcessOnG1137" transform="matrix(1.0,0.0,0.0,1.0,1300.0,377.0)" opacity="1.0"><path id="ProcessOnPath1138" d="M0.0 0.0L120.0 0.0L120.0 32.0L0.0 32.0Z" stroke="#ffffff" stroke-width="2.0" stroke-dasharray="none" opacity="1.0" fill="#ffffff"/><g id="ProcessOnG1139" transform="matrix(1.0,0.0,0.0,1.0,10.0,7.875)"><text id="ProcessOnText1140" fill="#000000" font-size="13" x="49.0" y="13.325" font-family="微软雅黑" font-weight="normal" font-style="normal" text-decoration="none" family="微软雅黑" text-anchor="middle" size="13">ResyncPeriod(s)</text></g></g><g id="ProcessOnG1141"><path id="ProcessOnPath1142" d="M1300.0 393.0C1269.2 393.0 1253.8 393.0 1223.0 393.0" stroke="#323232" stroke-width="2.0" stroke-dasharray="10.0 4.0" fill="none" marker-end="url(#ProcessOnMarker1143)"/></g><g id="ProcessOnG1145"><path id="ProcessOnPath1146" d="M1223.0 113.0C1317.4 112.99999999999999 1364.6 113.0 1459.0 113.0" stroke="#66ffff" stroke-width="2.0" stroke-dasharray="10.0 4.0" fill="none" marker-end="url(#ProcessOnMarker1147)"/><g id="ProcessOnG1149" transform="matrix(1.0,0.0,0.0,1.0,1341.0,104.875)"><path id="ProcessOnPath1150" d="M0 0H38.0V16.25H0Z" fill="#fff" transform="matrix(1.0,0.0,0.0,1.0,-19.0,0.0)"/><text id="ProcessOnText1151" fill="#66ffff" font-size="13" x="0.0" y="13.325" font-family="微软雅黑" font-weight="normal" font-style="normal" text-decoration="none" family="微软雅黑" text-anchor="middle" size="13">retrun</text></g></g></g></g></svg>