<svg xmlns="http://www.w3.org/2000/svg" xmlns:xlink="http://www.w3.org/1999/xlink" id="processonSvg1000" viewBox="29.268606276061988 75.25 957.1461760588904 848.618722488996" width="957.1461760588904" height="848.618722488996"><defs id="ProcessOnDefs1001"><marker id="ProcessOnMarker1015" markerUnits="userSpaceOnUse" orient="auto" markerWidth="16.23606797749979" markerHeight="10.550836550532098" viewBox="-1.0 -1.3763819204711736 16.23606797749979 10.550836550532098" refX="-1.0" refY="3.8990363547948754"><path id="ProcessOnPath1016" d="M12.0 3.8990363547948754L0.0 7.798072709589751V0.0Z" stroke="#323232" stroke-width="2.0" fill="#323232" transform="matrix(1.0,0.0,0.0,1.0,0.0,0.0)"/></marker><marker id="ProcessOnMarker1023" markerUnits="userSpaceOnUse" orient="auto" markerWidth="16.23606797749979" markerHeight="10.550836550532098" viewBox="-1.0 -1.3763819204711736 16.23606797749979 10.550836550532098" refX="-1.0" refY="3.8990363547948754"><path id="ProcessOnPath1024" d="M12.0 3.8990363547948754L0.0 7.798072709589751V0.0Z" stroke="#323232" stroke-width="2.0" fill="#323232" transform="matrix(1.0,0.0,0.0,1.0,0.0,0.0)"/></marker><marker id="ProcessOnMarker1030" markerUnits="userSpaceOnUse" orient="auto" markerWidth="16.23606797749979" markerHeight="10.550836550532098" viewBox="-1.0 -1.3763819204711736 16.23606797749979 10.550836550532098" refX="-1.0" refY="3.8990363547948754"><path id="ProcessOnPath1031" d="M12.0 3.8990363547948754L0.0 7.798072709589751V0.0Z" stroke="#323232" stroke-width="2.0" fill="#323232" transform="matrix(1.0,0.0,0.0,1.0,0.0,0.0)"/></marker><marker id="ProcessOnMarker1042" markerUnits="userSpaceOnUse" orient="auto" markerWidth="16.23606797749979" markerHeight="10.550836550532098" viewBox="-1.0 -1.3763819204711736 16.23606797749979 10.550836550532098" refX="-1.0" refY="3.8990363547948754"><path id="ProcessOnPath1043" d="M12.0 3.8990363547948754L0.0 7.798072709589751V0.0Z" stroke="#323232" stroke-width="2.0" fill="#323232" transform="matrix(1.0,0.0,0.0,1.0,0.0,0.0)"/></marker><marker id="ProcessOnMarker1053" markerUnits="userSpaceOnUse" orient="auto" markerWidth="16.23606797749979" markerHeight="10.550836550532098" viewBox="-1.0 -1.3763819204711736 16.23606797749979 10.550836550532098" refX="-1.0" refY="3.8990363547948754"><path id="ProcessOnPath1054" d="M12.0 3.8990363547948754L0.0 7.798072709589751V0.0Z" stroke="#323232" stroke-width="2.0" fill="#323232" transform="matrix(1.0,0.0,0.0,1.0,0.0,0.0)"/></marker><marker id="ProcessOnMarker1067" markerUnits="userSpaceOnUse" orient="auto" markerWidth="16.23606797749979" markerHeight="10.550836550532098" viewBox="-1.0 -1.3763819204711736 16.23606797749979 10.550836550532098" refX="-1.0" refY="3.8990363547948754"><path id="ProcessOnPath1068" d="M12.0 3.8990363547948754L0.0 7.798072709589751V0.0Z" stroke="#323232" stroke-width="2.0" fill="#323232" transform="matrix(1.0,0.0,0.0,1.0,0.0,0.0)"/></marker><marker id="ProcessOnMarker1074" markerUnits="userSpaceOnUse" orient="auto" markerWidth="16.23606797749979" markerHeight="10.550836550532098" viewBox="-1.0 -1.3763819204711736 16.23606797749979 10.550836550532098" refX="-1.0" refY="3.8990363547948754"><path id="ProcessOnPath1075" d="M12.0 3.8990363547948754L0.0 7.798072709589751V0.0Z" stroke="#323232" stroke-width="2.0" fill="#323232" transform="matrix(1.0,0.0,0.0,1.0,0.0,0.0)"/></marker><marker id="ProcessOnMarker1078" markerUnits="userSpaceOnUse" orient="auto" markerWidth="16.23606797749979" markerHeight="10.550836550532098" viewBox="-1.0 -1.3763819204711736 16.23606797749979 10.550836550532098" refX="-1.0" refY="3.8990363547948754"><path id="ProcessOnPath1079" d="M12.0 3.8990363547948754L0.0 7.798072709589751V0.0Z" stroke="#cc0000" stroke-width="2.0" fill="#cc0000" transform="matrix(1.0,0.0,0.0,1.0,0.0,0.0)"/></marker><marker id="ProcessOnMarker1085" markerUnits="userSpaceOnUse" orient="auto" markerWidth="16.23606797749979" markerHeight="10.550836550532098" viewBox="-1.0 -1.3763819204711736 16.23606797749979 10.550836550532098" refX="-1.0" refY="3.8990363547948754"><path id="ProcessOnPath1086" d="M12.0 3.8990363547948754L0.0 7.798072709589751V0.0Z" stroke="#323232" stroke-width="2.0" fill="#323232" transform="matrix(1.0,0.0,0.0,1.0,0.0,0.0)"/></marker><marker id="ProcessOnMarker1092" markerUnits="userSpaceOnUse" orient="auto" markerWidth="16.23606797749979" markerHeight="10.550836550532098" viewBox="-1.0 -1.3763819204711736 16.23606797749979 10.550836550532098" refX="-1.0" refY="3.8990363547948754"><path id="ProcessOnPath1093" d="M12.0 3.8990363547948754L0.0 7.798072709589751V0.0Z" stroke="#323232" stroke-width="2.0" fill="#323232" transform="matrix(1.0,0.0,0.0,1.0,0.0,0.0)"/></marker><marker id="ProcessOnMarker1099" markerUnits="userSpaceOnUse" orient="auto" markerWidth="16.23606797749979" markerHeight="10.550836550532098" viewBox="-1.0 -1.3763819204711736 16.23606797749979 10.550836550532098" refX="-1.0" refY="3.8990363547948754"><path id="ProcessOnPath1100" d="M12.0 3.8990363547948754L0.0 7.798072709589751V0.0Z" stroke="#323232" stroke-width="2.0" fill="#323232" transform="matrix(1.0,0.0,0.0,1.0,0.0,0.0)"/></marker><marker id="ProcessOnMarker1106" markerUnits="userSpaceOnUse" orient="auto" markerWidth="16.23606797749979" markerHeight="10.550836550532098" viewBox="-1.0 -1.3763819204711736 16.23606797749979 10.550836550532098" refX="-1.0" refY="3.8990363547948754"><path id="ProcessOnPath1107" d="M12.0 3.8990363547948754L0.0 7.798072709589751V0.0Z" stroke="#cc0000" stroke-width="2.0" fill="#cc0000" transform="matrix(1.0,0.0,0.0,1.0,0.0,0.0)"/></marker><marker id="ProcessOnMarker1117" markerUnits="userSpaceOnUse" orient="auto" markerWidth="16.23606797749979" markerHeight="10.550836550532098" viewBox="-1.0 -1.3763819204711736 16.23606797749979 10.550836550532098" refX="-1.0" refY="3.8990363547948754"><path id="ProcessOnPath1118" d="M12.0 3.8990363547948754L0.0 7.798072709589751V0.0Z" stroke="#0000cc" stroke-width="2.0" fill="#0000cc" transform="matrix(1.0,0.0,0.0,1.0,0.0,0.0)"/></marker><marker id="ProcessOnMarker1128" markerUnits="userSpaceOnUse" orient="auto" markerWidth="16.23606797749979" markerHeight="10.550836550532098" viewBox="-1.0 -1.3763819204711736 16.23606797749979 10.550836550532098" refX="-1.0" refY="3.8990363547948754"><path id="ProcessOnPath1129" d="M12.0 3.8990363547948754L0.0 7.798072709589751V0.0Z" stroke="#323232" stroke-width="2.0" fill="#323232" transform="matrix(1.0,0.0,0.0,1.0,0.0,0.0)"/></marker><marker id="ProcessOnMarker1136" markerUnits="userSpaceOnUse" orient="auto" markerWidth="16.23606797749979" markerHeight="10.550836550532098" viewBox="-1.0 -1.3763819204711736 16.23606797749979 10.550836550532098" refX="-1.0" refY="3.8990363547948754"><path id="ProcessOnPath1137" d="M12.0 3.8990363547948754L0.0 7.798072709589751V0.0Z" stroke="#323232" stroke-width="2.0" fill="#323232" transform="matrix(1.0,0.0,0.0,1.0,0.0,0.0)"/></marker><marker id="ProcessOnMarker1143" markerUnits="userSpaceOnUse" orient="auto" markerWidth="16.23606797749979" markerHeight="10.550836550532098" viewBox="-1.0 -1.3763819204711736 16.23606797749979 10.550836550532098" refX="-1.0" refY="3.8990363547948754"><path id="ProcessOnPath1144" d="M12.0 3.8990363547948754L0.0 7.798072709589751V0.0Z" stroke="#323232" stroke-width="2.0" fill="#323232" transform="matrix(1.0,0.0,0.0,1.0,0.0,0.0)"/></marker><marker id="ProcessOnMarker1151" markerUnits="userSpaceOnUse" orient="auto" markerWidth="16.23606797749979" markerHeight="10.550836550532098" viewBox="-1.0 -1.3763819204711736 16.23606797749979 10.550836550532098" refX="-1.0" refY="3.8990363547948754"><path id="ProcessOnPath1152" d="M12.0 3.8990363547948754L0.0 7.798072709589751V0.0Z" stroke="#0000cc" stroke-width="2.0" fill="#0000cc" transform="matrix(1.0,0.0,0.0,1.0,0.0,0.0)"/></marker><marker id="ProcessOnMarker1158" markerUnits="userSpaceOnUse" orient="auto" markerWidth="16.23606797749979" markerHeight="10.550836550532098" viewBox="-1.0 -1.3763819204711736 16.23606797749979 10.550836550532098" refX="-1.0" refY="3.8990363547948754"><path id="ProcessOnPath1159" d="M12.0 3.8990363547948754L0.0 7.798072709589751V0.0Z" stroke="#0000cc" stroke-width="2.0" fill="#0000cc" transform="matrix(1.0,0.0,0.0,1.0,0.0,0.0)"/></marker><marker id="ProcessOnMarker1165" markerUnits="userSpaceOnUse" orient="auto" markerWidth="16.23606797749979" markerHeight="10.550836550532098" viewBox="-1.0 -1.3763819204711736 16.23606797749979 10.550836550532098" refX="-1.0" refY="3.8990363547948754"><path id="ProcessOnPath1166" d="M12.0 3.8990363547948754L0.0 7.798072709589751V0.0Z" stroke="#323232" stroke-width="2.0" fill="#323232" transform="matrix(1.0,0.0,0.0,1.0,0.0,0.0)"/></marker></defs><g id="ProcessOnG1002"><path id="ProcessOnPath1003" d="M29.268606276061988 75.25H986.4147823349524V923.868722488996H29.268606276061973V75.25Z" fill="none"/><g id="ProcessOnG1004"><g id="ProcessOnG1005" transform="matrix(1.0,0.0,0.0,1.0,351.33027522935777,242.0)" opacity="1.0"><path id="ProcessOnPath1006" d="M0.0 0.0L165.72018348623854 0.0L165.72018348623854 52.502450980392155L0.0 52.502450980392155Z" stroke="#323232" stroke-width="2.0" stroke-dasharray="none" opacity="1.0" fill="#ffffff"/><g id="ProcessOnG1007" transform="matrix(1.0,0.0,0.0,1.0,10.0,18.126225490196077)"><text id="ProcessOnText1008" fill="#000000" font-size="13" x="71.86009174311927" y="13.325" font-family="微软雅黑" font-weight="normal" font-style="normal" text-decoration="none" family="微软雅黑" text-anchor="middle" size="13">sharedInformerFactory</text></g></g><g id="ProcessOnG1009" transform="matrix(1.0,0.0,0.0,1.0,618.1215596330276,242.0)" opacity="1.0"><path id="ProcessOnPath1010" d="M0.0 0.0L165.72018348623854 0.0L165.72018348623854 52.502450980392155L0.0 52.502450980392155Z" stroke="#323232" stroke-width="2.0" stroke-dasharray="10.0 4.0" opacity="1.0" fill="#ffffff"/><g id="ProcessOnG1011" transform="matrix(1.0,0.0,0.0,1.0,10.0,18.126225490196077)"><text id="ProcessOnText1012" fill="#000000" font-size="13" x="71.86009174311927" y="13.325" font-family="微软雅黑" font-weight="normal" font-style="normal" text-decoration="none" family="微软雅黑" text-anchor="middle" size="13">SharedInformerFactory</text></g></g><g id="ProcessOnG1013"><path id="ProcessOnPath1014" d="M517.0504587155963 268.2512254901961C557.4788990825688 268.2512254901961 577.6931192660551 268.2512254901961 602.8854916555277 268.2512254901961" stroke="#323232" stroke-width="2.0" stroke-dasharray="10.0 4.0" fill="none" marker-end="url(#ProcessOnMarker1015)"/></g><g id="ProcessOnG1017" transform="matrix(1.0,0.0,0.0,1.0,351.33027522935777,392.7328431372549)" opacity="1.0"><path id="ProcessOnPath1018" d="M0.0 0.0L165.72018348623854 0.0L165.72018348623854 52.502450980392155L0.0 52.502450980392155Z" stroke="#323232" stroke-width="2.0" stroke-dasharray="none" opacity="1.0" fill="#ffffff"/><g id="ProcessOnG1019" transform="matrix(1.0,0.0,0.0,1.0,10.0,18.126225490196077)"><text id="ProcessOnText1020" fill="#000000" font-size="13" x="71.86009174311927" y="13.325" font-family="微软雅黑" font-weight="normal" font-style="normal" text-decoration="none" family="微软雅黑" text-anchor="middle" size="13">group</text></g></g><g id="ProcessOnG1021"><path id="ProcessOnPath1022" d="M434.190366972477 294.50245098039215C434.190366972477 333.79460784313727 434.190366972477 353.4406862745098 434.190366972477 377.49677515975515" stroke="#323232" stroke-width="2.0" stroke-dasharray="2.0 3.0" fill="none" marker-end="url(#ProcessOnMarker1023)"/><g id="ProcessOnG1025" transform="matrix(1.0,0.0,0.0,1.0,434.190366972477,333.5881385616361)"><path id="ProcessOnPath1026" d="M0 0H28.0V16.25H0Z" fill="#fff" transform="matrix(1.0,0.0,0.0,1.0,-14.0,0.0)"/><text id="ProcessOnText1027" fill="#000000" font-size="13" x="0.0" y="13.325" font-family="微软雅黑" font-weight="normal" font-style="normal" text-decoration="none" family="微软雅黑" text-anchor="middle" size="13">New</text></g></g><g id="ProcessOnG1028"><path id="ProcessOnPath1029" d="M517.0504587155963 418.98406862745105C557.4788990825688 418.98406862745105 577.6931192660551 418.98406862745105 602.8854916555277 418.98406862745105" stroke="#323232" stroke-width="2.0" stroke-dasharray="10.0 4.0" fill="none" marker-end="url(#ProcessOnMarker1030)"/></g><g id="ProcessOnG1032" transform="matrix(1.0,0.0,0.0,1.0,618.1215596330276,392.7328431372549)" opacity="1.0"><path id="ProcessOnPath1033" d="M0.0 0.0L165.72018348623854 0.0L165.72018348623854 52.502450980392155L0.0 52.502450980392155Z" stroke="#323232" stroke-width="2.0" stroke-dasharray="10.0 4.0" opacity="1.0" fill="#ffffff"/><g id="ProcessOnG1034" transform="matrix(1.0,0.0,0.0,1.0,10.0,18.126225490196077)"><text id="ProcessOnText1035" fill="#000000" font-size="13" x="71.86009174311927" y="13.325" font-family="微软雅黑" font-weight="normal" font-style="normal" text-decoration="none" family="微软雅黑" text-anchor="middle" size="13">Interface</text></g></g><g id="ProcessOnG1036" transform="matrix(1.0,0.0,0.0,1.0,351.33027522935777,546.8529411764705)" opacity="1.0"><path id="ProcessOnPath1037" d="M0.0 0.0L165.72018348623854 0.0L165.72018348623854 52.502450980392155L0.0 52.502450980392155Z" stroke="#323232" stroke-width="2.0" stroke-dasharray="none" opacity="1.0" fill="#ffffff"/><g id="ProcessOnG1038" transform="matrix(1.0,0.0,0.0,1.0,10.0,18.126225490196077)"><text id="ProcessOnText1039" fill="#000000" font-size="13" x="71.86009174311927" y="13.325" font-family="微软雅黑" font-weight="normal" font-style="normal" text-decoration="none" family="微软雅黑" text-anchor="middle" size="13">version</text></g></g><g id="ProcessOnG1040"><path id="ProcessOnPath1041" d="M434.190366972477 445.2352941176471C434.190366972477 485.88235294117646 434.190366972477 506.2058823529412 434.190366972477 531.6168731989707" stroke="#323232" stroke-width="2.0" stroke-dasharray="2.0 3.0" fill="none" marker-end="url(#ProcessOnMarker1042)"/><g id="ProcessOnG1044" transform="matrix(1.0,0.0,0.0,1.0,434.190366972477,486.0146091498713)"><path id="ProcessOnPath1045" d="M0 0H28.0V16.25H0Z" fill="#fff" transform="matrix(1.0,0.0,0.0,1.0,-14.0,0.0)"/><text id="ProcessOnText1046" fill="#000000" font-size="13" x="0.0" y="13.325" font-family="微软雅黑" font-weight="normal" font-style="normal" text-decoration="none" family="微软雅黑" text-anchor="middle" size="13">New</text></g></g><g id="ProcessOnG1047" transform="matrix(1.0,0.0,0.0,1.0,618.1215596330276,546.8529411764705)" opacity="1.0"><path id="ProcessOnPath1048" d="M0.0 0.0L165.72018348623854 0.0L165.72018348623854 52.502450980392155L0.0 52.502450980392155Z" stroke="#323232" stroke-width="2.0" stroke-dasharray="10.0 4.0" opacity="1.0" fill="#ffffff"/><g id="ProcessOnG1049" transform="matrix(1.0,0.0,0.0,1.0,10.0,18.126225490196077)"><text id="ProcessOnText1050" fill="#000000" font-size="13" x="71.86009174311927" y="13.325" font-family="微软雅黑" font-weight="normal" font-style="normal" text-decoration="none" family="微软雅黑" text-anchor="middle" size="13">Interface</text></g></g><g id="ProcessOnG1051"><path id="ProcessOnPath1052" d="M517.0504587155963 573.1041666666666C557.4788990825688 573.1041666666666 577.6931192660551 573.1041666666666 602.8854916555277 573.1041666666666" stroke="#323232" stroke-width="2.0" stroke-dasharray="10.0 4.0" fill="none" marker-end="url(#ProcessOnMarker1053)"/></g><g id="ProcessOnG1055" transform="matrix(1.0,0.0,0.0,1.0,351.33027522935777,698.4325980392157)" opacity="1.0"><path id="ProcessOnPath1056" d="M0.0 0.0L165.72018348623854 0.0L165.72018348623854 52.502450980392155L0.0 52.502450980392155Z" stroke="#323232" stroke-width="2.0" stroke-dasharray="none" opacity="1.0" fill="#ffffff"/><g id="ProcessOnG1057" transform="matrix(1.0,0.0,0.0,1.0,10.0,10.001225490196077)"><text id="ProcessOnText1058" fill="#000000" font-size="13" x="71.86009174311927" y="13.325" font-family="微软雅黑" font-weight="normal" font-style="normal" text-decoration="none" family="微软雅黑" text-anchor="middle" size="13">serviceAccountInforme</text><text id="ProcessOnText1059" fill="#000000" font-size="13" x="71.86009174311927" y="29.575" font-family="微软雅黑" font-weight="normal" font-style="normal" text-decoration="none" family="微软雅黑" text-anchor="middle" size="13">r</text></g></g><g id="ProcessOnG1060" transform="matrix(1.0,0.0,0.0,1.0,618.1215596330276,698.4325980392157)" opacity="1.0"><path id="ProcessOnPath1061" d="M0.0 0.0L165.72018348623854 0.0L165.72018348623854 52.502450980392155L0.0 52.502450980392155Z" stroke="#323232" stroke-width="2.0" stroke-dasharray="10.0 4.0" opacity="1.0" fill="#ffffff"/><g id="ProcessOnG1062" transform="matrix(1.0,0.0,0.0,1.0,10.0,10.001225490196077)"><text id="ProcessOnText1063" fill="#000000" font-size="13" x="71.86009174311927" y="13.325" font-family="微软雅黑" font-weight="normal" font-style="normal" text-decoration="none" family="微软雅黑" text-anchor="middle" size="13">ServiceAccountInform</text><text id="ProcessOnText1064" fill="#000000" font-size="13" x="71.86009174311927" y="29.575" font-family="微软雅黑" font-weight="normal" font-style="normal" text-decoration="none" family="微软雅黑" text-anchor="middle" size="13">er</text></g></g><g id="ProcessOnG1065"><path id="ProcessOnPath1066" d="M434.190366972477 599.3553921568628C434.190366972477 638.9862745098039 434.190366972477 658.8017156862745 434.190366972477 683.1965300617159" stroke="#323232" stroke-width="2.0" stroke-dasharray="2.0 3.0" fill="none" marker-end="url(#ProcessOnMarker1067)"/><g id="ProcessOnG1069" transform="matrix(1.0,0.0,0.0,1.0,434.190366972477,638.8644866008517)"><path id="ProcessOnPath1070" d="M0 0H28.0V16.25H0Z" fill="#fff" transform="matrix(1.0,0.0,0.0,1.0,-14.0,0.0)"/><text id="ProcessOnText1071" fill="#000000" font-size="13" x="0.0" y="13.325" font-family="微软雅黑" font-weight="normal" font-style="normal" text-decoration="none" family="微软雅黑" text-anchor="middle" size="13">New</text></g></g><g id="ProcessOnG1072"><path id="ProcessOnPath1073" d="M517.0504587155963 724.6838235294117C557.4788990825688 724.6838235294117 577.6931192660551 724.6838235294117 602.8854916555277 724.6838235294117" stroke="#323232" stroke-width="2.0" stroke-dasharray="10.0 4.0" fill="none" marker-end="url(#ProcessOnMarker1074)"/></g><g id="ProcessOnG1076"><path id="ProcessOnPath1077" d="M351.33027522935777 724.6838235294117C168.75723601367156 724.6838235294117 168.75723601367156 268.2512254901961 336.094207251858 268.2512254901961" stroke="#cc0000" stroke-width="2.0" stroke-dasharray="2.0 3.0" fill="none" marker-end="url(#ProcessOnMarker1078)"/><g id="ProcessOnG1080" transform="matrix(1.0,0.0,0.0,1.0,212.49598732040565,488.3425245098039)"><path id="ProcessOnPath1081" d="M0 0H74.0V16.25H0Z" fill="#fff" transform="matrix(1.0,0.0,0.0,1.0,-37.0,0.0)"/><text id="ProcessOnText1082" fill="#000000" font-size="13" x="0.0" y="13.325" font-family="微软雅黑" font-weight="normal" font-style="normal" text-decoration="none" family="微软雅黑" text-anchor="middle" size="13">InformerFor</text></g></g><g id="ProcessOnG1083"><path id="ProcessOnPath1084" d="M700.9816513761468 294.50245098039215C700.9816513761468 333.79460784313727 700.9816513761468 353.4406862745098 700.9816513761468 377.49677515975515" stroke="#323232" stroke-width="2.0" stroke-dasharray="none" fill="none" marker-end="url(#ProcessOnMarker1085)"/><g id="ProcessOnG1087" transform="matrix(1.0,0.0,0.0,1.0,700.9816513761468,333.5881385616361)"><path id="ProcessOnPath1088" d="M0 0H37.0V16.25H0Z" fill="#fff" transform="matrix(1.0,0.0,0.0,1.0,-18.5,0.0)"/><text id="ProcessOnText1089" fill="#000000" font-size="13" x="0.0" y="13.325" font-family="微软雅黑" font-weight="normal" font-style="normal" text-decoration="none" family="微软雅黑" text-anchor="middle" size="13">Core()</text></g></g><g id="ProcessOnG1090"><path id="ProcessOnPath1091" d="M700.9816513761468 445.2352941176471C700.9816513761468 485.88235294117646 700.9816513761468 506.2058823529412 700.9816513761468 531.6168731989707" stroke="#323232" stroke-width="2.0" stroke-dasharray="none" fill="none" marker-end="url(#ProcessOnMarker1092)"/><g id="ProcessOnG1094" transform="matrix(1.0,0.0,0.0,1.0,700.9816513761468,486.0146091498713)"><path id="ProcessOnPath1095" d="M0 0H25.0V16.25H0Z" fill="#fff" transform="matrix(1.0,0.0,0.0,1.0,-12.5,0.0)"/><text id="ProcessOnText1096" fill="#000000" font-size="13" x="0.0" y="13.325" font-family="微软雅黑" font-weight="normal" font-style="normal" text-decoration="none" family="微软雅黑" text-anchor="middle" size="13">V1()</text></g></g><g id="ProcessOnG1097"><path id="ProcessOnPath1098" d="M700.9816513761468 599.3553921568628C700.9816513761468 638.9862745098039 700.9816513761468 658.8017156862745 700.9816513761468 683.1965300617159" stroke="#323232" stroke-width="2.0" stroke-dasharray="none" fill="none" marker-end="url(#ProcessOnMarker1099)"/><g id="ProcessOnG1101" transform="matrix(1.0,0.0,0.0,1.0,700.9816513761468,638.8644866008517)"><path id="ProcessOnPath1102" d="M0 0H110.0V16.25H0Z" fill="#fff" transform="matrix(1.0,0.0,0.0,1.0,-55.0,0.0)"/><text id="ProcessOnText1103" fill="#000000" font-size="13" x="0.0" y="13.325" font-family="微软雅黑" font-weight="normal" font-style="normal" text-decoration="none" family="微软雅黑" text-anchor="middle" size="13">ServiceAccounts()</text></g></g><g id="ProcessOnG1104"><path id="ProcessOnPath1105" d="M783.8417431192661 724.6838235294117C966.4147823349524 724.6838235294117 966.4147823349524 268.251225490196 799.0778110967659 268.2512254901961" stroke="#cc0000" stroke-width="2.0" stroke-dasharray="none" fill="none" marker-end="url(#ProcessOnMarker1106)"/><g id="ProcessOnG1108" transform="matrix(1.0,0.0,0.0,1.0,922.6760310282184,488.3425245098039)"><path id="ProcessOnPath1109" d="M0 0H62.0V16.25H0Z" fill="#fff" transform="matrix(1.0,0.0,0.0,1.0,-31.0,0.0)"/><text id="ProcessOnText1110" fill="#000000" font-size="13" x="0.0" y="13.325" font-family="微软雅黑" font-weight="normal" font-style="normal" text-decoration="none" family="微软雅黑" text-anchor="middle" size="13">Informer()</text></g></g><g id="ProcessOnG1111" transform="matrix(1.0,0.0,0.0,1.0,617.885408029529,851.3662715086039)" opacity="1.0"><path id="ProcessOnPath1112" d="M0.0 0.0L165.72018348623854 0.0L165.72018348623854 52.502450980392155L0.0 52.502450980392155Z" stroke="#323232" stroke-width="2.0" stroke-dasharray="10.0 4.0" opacity="1.0" fill="#ffffff"/><g id="ProcessOnG1113" transform="matrix(1.0,0.0,0.0,1.0,10.0,18.126225490196077)"><text id="ProcessOnText1114" fill="#000000" font-size="13" x="71.86009174311927" y="13.325" font-family="微软雅黑" font-weight="normal" font-style="normal" text-decoration="none" family="微软雅黑" text-anchor="middle" size="13">ServiceAccountLister</text></g></g><g id="ProcessOnG1115"><path id="ProcessOnPath1116" d="M700.9816513761468 750.9350490196078C700.9816513761468 791.1076490713128 700.7454997726483 811.1936714568989 700.7454997726483 836.130203531104" stroke="#0000cc" stroke-width="2.0" stroke-dasharray="none" fill="none" marker-end="url(#ProcessOnMarker1117)"/><g id="ProcessOnG1119" transform="matrix(1.0,0.0,0.0,1.0,700.8635755743975,791.1211517669183)"><path id="ProcessOnPath1120" d="M0 0H41.0V16.25H0Z" fill="#fff" transform="matrix(1.0,0.0,0.0,1.0,-20.5,0.0)"/><text id="ProcessOnText1121" fill="#000000" font-size="13" x="0.0" y="13.325" font-family="微软雅黑" font-weight="normal" font-style="normal" text-decoration="none" family="微软雅黑" text-anchor="middle" size="13">Lister()</text></g></g><g id="ProcessOnG1122" transform="matrix(1.0,0.0,0.0,1.0,351.33027522935777,95.25)" opacity="1.0"><path id="ProcessOnPath1123" d="M0.0 0.0L165.72018348623854 0.0L165.72018348623854 52.502450980392155L0.0 52.502450980392155Z" stroke="#323232" stroke-width="2.0" stroke-dasharray="none" opacity="1.0" fill="#ffffff"/><g id="ProcessOnG1124" transform="matrix(1.0,0.0,0.0,1.0,10.0,18.126225490196077)"><text id="ProcessOnText1125" fill="#000000" font-size="13" x="71.86009174311927" y="13.325" font-family="微软雅黑" font-weight="normal" font-style="normal" text-decoration="none" family="微软雅黑" text-anchor="middle" size="13">cache</text></g></g><g id="ProcessOnG1126"><path id="ProcessOnPath1127" d="M434.190366972477 242.0C434.190366972477 204.30098039215687 434.190366972477 185.45147058823528 434.190366972477 162.98851895789196" stroke="#323232" stroke-width="2.0" stroke-dasharray="2.0 3.0" fill="none" marker-end="url(#ProcessOnMarker1128)"/></g><g id="ProcessOnG1130" transform="matrix(1.0,0.0,0.0,1.0,618.1215596330276,95.25)" opacity="1.0"><path id="ProcessOnPath1131" d="M0.0 0.0L165.72018348623854 0.0L165.72018348623854 52.502450980392155L0.0 52.502450980392155Z" stroke="#323232" stroke-width="2.0" stroke-dasharray="10.0 4.0" opacity="1.0" fill="#ffffff"/><g id="ProcessOnG1132" transform="matrix(1.0,0.0,0.0,1.0,10.0,18.126225490196077)"><text id="ProcessOnText1133" fill="#000000" font-size="13" x="71.86009174311927" y="13.325" font-family="微软雅黑" font-weight="normal" font-style="normal" text-decoration="none" family="微软雅黑" text-anchor="middle" size="13">Indexer</text></g></g><g id="ProcessOnG1134"><path id="ProcessOnPath1135" d="M700.9816513761468 242.0C700.9816513761468 204.30098039215687 700.9816513761468 185.45147058823528 700.9816513761468 162.98851895789196" stroke="#323232" stroke-width="2.0" stroke-dasharray="none" fill="none" marker-end="url(#ProcessOnMarker1136)"/><g id="ProcessOnG1138" transform="matrix(1.0,0.0,0.0,1.0,700.9816513761468,188.65573398738357)"><path id="ProcessOnPath1139" d="M0 0H76.0V16.25H0Z" fill="#fff" transform="matrix(1.0,0.0,0.0,1.0,-38.0,0.0)"/><text id="ProcessOnText1140" fill="#000000" font-size="13" x="0.0" y="13.325" font-family="微软雅黑" font-weight="normal" font-style="normal" text-decoration="none" family="微软雅黑" text-anchor="middle" size="13">GetIndexer()</text></g></g><g id="ProcessOnG1141"><path id="ProcessOnPath1142" d="M517.0504587155963 121.50122549019608C557.4788990825688 121.50122549019608 577.6931192660551 121.50122549019608 602.8854916555277 121.50122549019608" stroke="#323232" stroke-width="2.0" stroke-dasharray="10.0 4.0" fill="none" marker-end="url(#ProcessOnMarker1143)"/></g><g id="ProcessOnG1145" transform="matrix(1.0,0.0,0.0,1.0,351.33027522935777,850.4041723832395)" opacity="1.0"><path id="ProcessOnPath1146" d="M0.0 0.0L165.72018348623854 0.0L165.72018348623854 52.502450980392155L0.0 52.502450980392155Z" stroke="#323232" stroke-width="2.0" stroke-dasharray="none" opacity="1.0" fill="#ffffff"/><g id="ProcessOnG1147" transform="matrix(1.0,0.0,0.0,1.0,10.0,18.126225490196077)"><text id="ProcessOnText1148" fill="#000000" font-size="13" x="71.86009174311927" y="13.325" font-family="微软雅黑" font-weight="normal" font-style="normal" text-decoration="none" family="微软雅黑" text-anchor="middle" size="13">serviceAccountLister</text></g></g><g id="ProcessOnG1149"><path id="ProcessOnPath1150" d="M434.190366972477 750.9350490196078C434.190366972477 811.1631499952903 291.10217425367534 876.6553978734355 336.094207251858 876.6553978734355" stroke="#0000cc" stroke-width="2.0" stroke-dasharray="2.0 3.0" fill="none" marker-end="url(#ProcessOnMarker1151)"/><g id="ProcessOnG1153" transform="matrix(1.0,0.0,0.0,1.0,368.270274737849,828.2557613124027)"><path id="ProcessOnPath1154" d="M0 0H157.0V16.25H0Z" fill="#fff" transform="matrix(1.0,0.0,0.0,1.0,-78.5,0.0)"/><text id="ProcessOnText1155" fill="#000000" font-size="13" x="0.0" y="13.325" font-family="微软雅黑" font-weight="normal" font-style="normal" text-decoration="none" family="微软雅黑" text-anchor="middle" size="13">NewServiceAccountLister</text></g></g><g id="ProcessOnG1156"><path id="ProcessOnPath1157" d="M351.33027522935777 121.50122549019608C49.26860627606199 121.50122549019608 49.26860627606199 876.6553978734355 336.094207251858 876.6553978734355" stroke="#0000cc" stroke-width="2.0" stroke-dasharray="2.0 3.0" fill="none" marker-end="url(#ProcessOnMarker1158)"/><g id="ProcessOnG1160" transform="matrix(1.0,0.0,0.0,1.0,122.87951501719846,490.95331168181576)"><path id="ProcessOnPath1161" d="M0 0H60.0V16.25H0Z" fill="#fff" transform="matrix(1.0,0.0,0.0,1.0,-30.0,0.0)"/><text id="ProcessOnText1162" fill="#000000" font-size="13" x="0.0" y="13.325" font-family="微软雅黑" font-weight="normal" font-style="normal" text-decoration="none" family="微软雅黑" text-anchor="middle" size="13">argument</text></g></g><g id="ProcessOnG1163"><path id="ProcessOnPath1164" d="M517.0504587155964 876.6553978734355C557.38627433967 876.6553978734355 577.5495924054553 877.6174969988 602.6493400520292 877.6174969988" stroke="#323232" stroke-width="2.0" stroke-dasharray="10.0 4.0" fill="none" marker-end="url(#ProcessOnMarker1165)"/></g></g></g></svg>