<svg xmlns="http://www.w3.org/2000/svg" xmlns:xlink="http://www.w3.org/1999/xlink" id="processonSvg1000" viewBox="55.0 23.022468956228217 962.0 855.9775310437718" width="962.0" height="855.9775310437718"><defs id="ProcessOnDefs1001"><marker id="ProcessOnMarker1019" markerUnits="userSpaceOnUse" orient="auto" markerWidth="14.289086868996552" markerHeight="19.055054660878554" viewBox="-0.5877852522924731 -0.8090169943749475 14.289086868996552 19.055054660878554" refX="12.0" refY="8.71851033606433"><path id="ProcessOnPath1020" d="M0 0L12.0 8.71851033606433L0 17.43702067212866" stroke="#323232" stroke-width="2.0" fill="none" transform="matrix(1.0,0.0,0.0,1.0,0.0,0.0)"/></marker><marker id="ProcessOnMarker1035" markerUnits="userSpaceOnUse" orient="auto" markerWidth="14.289086868996552" markerHeight="19.055054660878554" viewBox="-0.5877852522924731 -0.8090169943749475 14.289086868996552 19.055054660878554" refX="12.0" refY="8.71851033606433"><path id="ProcessOnPath1036" d="M0 0L12.0 8.71851033606433L0 17.43702067212866" stroke="#323232" stroke-width="2.0" fill="none" transform="matrix(1.0,0.0,0.0,1.0,0.0,0.0)"/></marker><marker id="ProcessOnMarker1043" markerUnits="userSpaceOnUse" orient="auto" markerWidth="14.289086868996552" markerHeight="19.055054660878554" viewBox="-0.5877852522924731 -0.8090169943749475 14.289086868996552 19.055054660878554" refX="12.0" refY="8.71851033606433"><path id="ProcessOnPath1044" d="M0 0L12.0 8.71851033606433L0 17.43702067212866" stroke="#323232" stroke-width="2.0" fill="none" transform="matrix(1.0,0.0,0.0,1.0,0.0,0.0)"/></marker><marker id="ProcessOnMarker1057" markerUnits="userSpaceOnUse" orient="auto" markerWidth="14.289086868996552" markerHeight="19.055054660878554" viewBox="-0.5877852522924731 -0.8090169943749475 14.289086868996552 19.055054660878554" refX="12.0" refY="8.71851033606433"><path id="ProcessOnPath1058" d="M0 0L12.0 8.71851033606433L0 17.43702067212866" stroke="#323232" stroke-width="2.0" fill="none" transform="matrix(1.0,0.0,0.0,1.0,0.0,0.0)"/></marker><marker id="ProcessOnMarker1069" markerUnits="userSpaceOnUse" orient="auto" markerWidth="14.289086868996552" markerHeight="19.055054660878554" viewBox="-0.5877852522924731 -0.8090169943749475 14.289086868996552 19.055054660878554" refX="12.0" refY="8.71851033606433"><path id="ProcessOnPath1070" d="M0 0L12.0 8.71851033606433L0 17.43702067212866" stroke="#323232" stroke-width="2.0" fill="none" transform="matrix(1.0,0.0,0.0,1.0,0.0,0.0)"/></marker><marker id="ProcessOnMarker1096" markerUnits="userSpaceOnUse" orient="auto" markerWidth="14.289086868996552" markerHeight="19.055054660878554" viewBox="-0.5877852522924731 -0.8090169943749475 14.289086868996552 19.055054660878554" refX="12.0" refY="8.71851033606433"><path id="ProcessOnPath1097" d="M0 0L12.0 8.71851033606433L0 17.43702067212866" stroke="#323232" stroke-width="2.0" fill="none" transform="matrix(1.0,0.0,0.0,1.0,0.0,0.0)"/></marker><marker id="ProcessOnMarker1100" markerUnits="userSpaceOnUse" orient="auto" markerWidth="14.289086868996552" markerHeight="19.055054660878554" viewBox="-0.5877852522924731 -0.8090169943749475 14.289086868996552 19.055054660878554" refX="12.0" refY="8.71851033606433"><path id="ProcessOnPath1101" d="M0 0L12.0 8.71851033606433L0 17.43702067212866" stroke="#323232" stroke-width="2.0" fill="none" transform="matrix(1.0,0.0,0.0,1.0,0.0,0.0)"/></marker><marker id="ProcessOnMarker1104" markerUnits="userSpaceOnUse" orient="auto" markerWidth="14.289086868996552" markerHeight="19.055054660878554" viewBox="-0.5877852522924731 -0.8090169943749475 14.289086868996552 19.055054660878554" refX="12.0" refY="8.71851033606433"><path id="ProcessOnPath1105" d="M0 0L12.0 8.71851033606433L0 17.43702067212866" stroke="#323232" stroke-width="2.0" fill="none" transform="matrix(1.0,0.0,0.0,1.0,0.0,0.0)"/></marker><marker id="ProcessOnMarker1112" markerUnits="userSpaceOnUse" orient="auto" markerWidth="14.289086868996552" markerHeight="19.055054660878554" viewBox="-0.5877852522924731 -0.8090169943749475 14.289086868996552 19.055054660878554" refX="12.0" refY="8.71851033606433"><path id="ProcessOnPath1113" d="M0 0L12.0 8.71851033606433L0 17.43702067212866" stroke="#323232" stroke-width="2.0" fill="none" transform="matrix(1.0,0.0,0.0,1.0,0.0,0.0)"/></marker><marker id="ProcessOnMarker1131" markerUnits="userSpaceOnUse" orient="auto" markerWidth="14.289086868996552" markerHeight="19.055054660878554" viewBox="-0.5877852522924731 -0.8090169943749475 14.289086868996552 19.055054660878554" refX="12.0" refY="8.71851033606433"><path id="ProcessOnPath1132" d="M0 0L12.0 8.71851033606433L0 17.43702067212866" stroke="#323232" stroke-width="2.0" fill="none" transform="matrix(1.0,0.0,0.0,1.0,0.0,0.0)"/></marker><marker id="ProcessOnMarker1141" markerUnits="userSpaceOnUse" orient="auto" markerWidth="14.289086868996552" markerHeight="19.055054660878554" viewBox="-0.5877852522924731 -0.8090169943749475 14.289086868996552 19.055054660878554" refX="12.0" refY="8.71851033606433"><path id="ProcessOnPath1142" d="M0 0L12.0 8.71851033606433L0 17.43702067212866" stroke="#323232" stroke-width="2.0" fill="none" transform="matrix(1.0,0.0,0.0,1.0,0.0,0.0)"/></marker><marker id="ProcessOnMarker1149" markerUnits="userSpaceOnUse" orient="auto" markerWidth="14.289086868996552" markerHeight="19.055054660878554" viewBox="-0.5877852522924731 -0.8090169943749475 14.289086868996552 19.055054660878554" refX="12.0" refY="8.71851033606433"><path id="ProcessOnPath1150" d="M0 0L12.0 8.71851033606433L0 17.43702067212866" stroke="#323232" stroke-width="2.0" fill="none" transform="matrix(1.0,0.0,0.0,1.0,0.0,0.0)"/></marker><marker id="ProcessOnMarker1160" markerUnits="userSpaceOnUse" orient="auto" markerWidth="14.289086868996552" markerHeight="19.055054660878554" viewBox="-0.5877852522924731 -0.8090169943749475 14.289086868996552 19.055054660878554" refX="12.0" refY="8.71851033606433"><path id="ProcessOnPath1161" d="M0 0L12.0 8.71851033606433L0 17.43702067212866" stroke="#323232" stroke-width="2.0" fill="none" transform="matrix(1.0,0.0,0.0,1.0,0.0,0.0)"/></marker><marker id="ProcessOnMarker1171" markerUnits="userSpaceOnUse" orient="auto" markerWidth="14.289086868996552" markerHeight="19.055054660878554" viewBox="-0.5877852522924731 -0.8090169943749475 14.289086868996552 19.055054660878554" refX="12.0" refY="8.71851033606433"><path id="ProcessOnPath1172" d="M0 0L12.0 8.71851033606433L0 17.43702067212866" stroke="#323232" stroke-width="2.0" fill="none" transform="matrix(1.0,0.0,0.0,1.0,0.0,0.0)"/></marker><marker id="ProcessOnMarker1182" markerUnits="userSpaceOnUse" orient="auto" markerWidth="14.289086868996552" markerHeight="19.055054660878554" viewBox="-0.5877852522924731 -0.8090169943749475 14.289086868996552 19.055054660878554" refX="12.0" refY="8.71851033606433"><path id="ProcessOnPath1183" d="M0 0L12.0 8.71851033606433L0 17.43702067212866" stroke="#323232" stroke-width="2.0" fill="none" transform="matrix(1.0,0.0,0.0,1.0,0.0,0.0)"/></marker></defs><g id="ProcessOnG1002"><path id="ProcessOnPath1003" d="M55.0 23.022468956228217H1017.0V879.0H55.0V23.02246895622818Z" fill="none"/><g id="ProcessOnG1004"><g id="ProcessOnG1005" transform="matrix(1.0,0.0,0.0,1.0,75.0,408.0)" opacity="1.0"><path id="ProcessOnPath1006" d="M0.0 0.0L144.0 0.0L144.0 32.0L0.0 32.0Z" stroke="#323232" stroke-width="2.0" stroke-dasharray="none" opacity="1.0" fill="#ffffff"/><g id="ProcessOnG1007" transform="matrix(1.0,0.0,0.0,1.0,10.0,7.875)"><text id="ProcessOnText1008" fill="#000000" font-size="13" x="61.0" y="13.325" font-family="微软雅黑" font-weight="normal" font-style="normal" text-decoration="none" family="微软雅黑" text-anchor="middle" size="13">lockf</text></g></g><g id="ProcessOnG1009" transform="matrix(1.0,0.0,0.0,1.0,75.0,388.0)" opacity="1.0"><path id="ProcessOnPath1010" d="M0.0 0.0L144.0 0.0L144.0 20.0L0.0 20.0Z" stroke="none" stroke-width="0.0" stroke-dasharray="none" opacity="1.0" fill="none"/><g id="ProcessOnG1011" transform="matrix(1.0,0.0,0.0,1.0,0.0,1.875)"><text id="ProcessOnText1012" fill="#000000" font-size="13" x="0.0" y="13.325" font-family="微软雅黑" font-weight="normal" font-style="normal" text-decoration="none" family="微软雅黑" text-anchor="start" size="13">DB</text></g></g><g id="ProcessOnG1013" transform="matrix(1.0,0.0,0.0,1.0,237.0,76.0)" opacity="1.0"><path id="ProcessOnPath1014" d="M0.0 0.0L144.0 0.0L144.0 32.0L0.0 32.0Z" stroke="#323232" stroke-width="2.0" stroke-dasharray="10.0 4.0" opacity="1.0" fill="#ffffff"/><g id="ProcessOnG1015" transform="matrix(1.0,0.0,0.0,1.0,10.0,7.875)"><text id="ProcessOnText1016" fill="#000000" font-size="13" x="61.0" y="13.325" font-family="微软雅黑" font-weight="normal" font-style="normal" text-decoration="none" family="微软雅黑" text-anchor="middle" size="13">fileutil.Releaser</text></g></g><g id="ProcessOnG1017"><path id="ProcessOnPath1018" d="M219.0 424.0C357.2790989948711 424.0 104.19412782889478 43.02246895622822 237.7614807840235 78.81173331571765" stroke="#323232" stroke-width="2.0" stroke-dasharray="none" fill="none" marker-end="url(#ProcessOnMarker1019)"/></g><g id="ProcessOnG1021" transform="matrix(1.0,0.0,0.0,1.0,75.0,440.0)" opacity="1.0"><path id="ProcessOnPath1022" d="M0.0 0.0L144.0 0.0L144.0 32.0L0.0 32.0Z" stroke="#323232" stroke-width="2.0" stroke-dasharray="none" opacity="1.0" fill="#ffffff"/><g id="ProcessOnG1023" transform="matrix(1.0,0.0,0.0,1.0,10.0,7.875)"><text id="ProcessOnText1024" fill="#000000" font-size="13" x="61.0" y="13.325" font-family="微软雅黑" font-weight="normal" font-style="normal" text-decoration="none" family="微软雅黑" text-anchor="middle" size="13">chunkPool</text></g></g><g id="ProcessOnG1025" transform="matrix(1.0,0.0,0.0,1.0,335.0,149.0)" opacity="1.0"><path id="ProcessOnPath1026" d="M0.0 0.0L144.0 0.0L144.0 32.0L0.0 32.0Z" stroke="#323232" stroke-width="2.0" stroke-dasharray="10.0 4.0" opacity="1.0" fill="#ffffff"/><g id="ProcessOnG1027" transform="matrix(1.0,0.0,0.0,1.0,10.0,7.875)"><text id="ProcessOnText1028" fill="#000000" font-size="13" x="61.0" y="13.325" font-family="微软雅黑" font-weight="normal" font-style="normal" text-decoration="none" family="微软雅黑" text-anchor="middle" size="13">chunkenc.Pool</text></g></g><g id="ProcessOnG1029" transform="matrix(1.0,0.0,0.0,1.0,393.0,228.0)" opacity="1.0"><path id="ProcessOnPath1030" d="M0.0 0.0L144.0 0.0L144.0 32.0L0.0 32.0Z" stroke="#323232" stroke-width="2.0" stroke-dasharray="10.0 4.0" opacity="1.0" fill="#ffffff"/><g id="ProcessOnG1031" transform="matrix(1.0,0.0,0.0,1.0,10.0,7.875)"><text id="ProcessOnText1032" fill="#000000" font-size="13" x="61.0" y="13.325" font-family="微软雅黑" font-weight="normal" font-style="normal" text-decoration="none" family="微软雅黑" text-anchor="middle" size="13">Compactor</text></g></g><g id="ProcessOnG1033"><path id="ProcessOnPath1034" d="M219.0 456.0C344.3073022612808 456.0 209.69269773871915 165.0 335.0 165.0" stroke="#323232" stroke-width="2.0" stroke-dasharray="none" fill="none" marker-end="url(#ProcessOnMarker1035)"/></g><g id="ProcessOnG1037" transform="matrix(1.0,0.0,0.0,1.0,75.0,472.0)" opacity="1.0"><path id="ProcessOnPath1038" d="M0.0 0.0L144.0 0.0L144.0 32.0L0.0 32.0Z" stroke="#323232" stroke-width="2.0" stroke-dasharray="none" opacity="1.0" fill="#ffffff"/><g id="ProcessOnG1039" transform="matrix(1.0,0.0,0.0,1.0,10.0,7.875)"><text id="ProcessOnText1040" fill="#000000" font-size="13" x="61.0" y="13.325" font-family="微软雅黑" font-weight="normal" font-style="normal" text-decoration="none" family="微软雅黑" text-anchor="middle" size="13">compactor</text></g></g><g id="ProcessOnG1041"><path id="ProcessOnPath1042" d="M219.0 488.0C343.7161533636656 488.0 285.32276994371165 167.14192331816724 393.3301270189222 229.5" stroke="#323232" stroke-width="2.0" stroke-dasharray="none" fill="none" marker-end="url(#ProcessOnMarker1043)"/></g><g id="ProcessOnG1045" transform="matrix(1.0,0.0,0.0,1.0,75.0,504.0)" opacity="1.0"><path id="ProcessOnPath1046" d="M0.0 0.0L144.0 0.0L144.0 32.0L0.0 32.0Z" stroke="#323232" stroke-width="2.0" stroke-dasharray="none" opacity="1.0" fill="#ffffff"/><g id="ProcessOnG1047" transform="matrix(1.0,0.0,0.0,1.0,10.0,7.875)"><text id="ProcessOnText1048" fill="#000000" font-size="13" x="61.0" y="13.325" font-family="微软雅黑" font-weight="normal" font-style="normal" text-decoration="none" family="微软雅黑" text-anchor="middle" size="13">blocks</text></g></g><g id="ProcessOnG1049" transform="matrix(1.0,0.0,0.0,1.0,381.0,329.0)" opacity="1.0"><path id="ProcessOnPath1050" d="M0.0 4.0Q0.0 0.0 4.0 0.0L36.0 0.0Q40.0 0.0 40.0 4.0L40.0 28.0Q40.0 32.0 36.0 32.0L4.0 32.0Q0.0 32.0 0.0 28.0Z" stroke="#323232" stroke-width="2.0" stroke-dasharray="none" opacity="1.0" fill="#ffff66"/></g><g id="ProcessOnG1051" transform="matrix(1.0,0.0,0.0,1.0,421.0,329.0)" opacity="1.0"><path id="ProcessOnPath1052" d="M0.0 4.0Q0.0 0.0 4.0 0.0L36.0 0.0Q40.0 0.0 40.0 4.0L40.0 28.0Q40.0 32.0 36.0 32.0L4.0 32.0Q0.0 32.0 0.0 28.0Z" stroke="#323232" stroke-width="2.0" stroke-dasharray="none" opacity="1.0" fill="#ffff66"/></g><g id="ProcessOnG1053" transform="matrix(1.0,0.0,0.0,1.0,461.0,329.0)" opacity="1.0"><path id="ProcessOnPath1054" d="M0.0 4.0Q0.0 0.0 4.0 0.0L36.0 0.0Q40.0 0.0 40.0 4.0L40.0 28.0Q40.0 32.0 36.0 32.0L4.0 32.0Q0.0 32.0 0.0 28.0Z" stroke="#323232" stroke-width="2.0" stroke-dasharray="none" opacity="1.0" fill="#ffff66"/></g><g id="ProcessOnG1055"><path id="ProcessOnPath1056" d="M219.0 520.0C319.7487009841534 520.0 325.9336484315653 246.92895176223738 383.7207293090531 329.457456132867" stroke="#323232" stroke-width="2.0" stroke-dasharray="none" fill="none" marker-end="url(#ProcessOnMarker1057)"/></g><g id="ProcessOnG1059" transform="matrix(1.0,0.0,0.0,1.0,479.0,403.0)" opacity="1.0"><path id="ProcessOnPath1060" d="M0.0 0.0L144.0 0.0L144.0 32.0L0.0 32.0Z" stroke="#323232" stroke-width="2.0" stroke-dasharray="none" opacity="1.0" fill="#ffffff"/><g id="ProcessOnG1061" transform="matrix(1.0,0.0,0.0,1.0,10.0,7.875)"><text id="ProcessOnText1062" fill="#000000" font-size="13" x="61.0" y="13.325" font-family="微软雅黑" font-weight="normal" font-style="normal" text-decoration="none" family="微软雅黑" text-anchor="middle" size="13">chunkr</text></g></g><g id="ProcessOnG1063" transform="matrix(1.0,0.0,0.0,1.0,479.0,383.0)" opacity="1.0"><path id="ProcessOnPath1064" d="M0.0 0.0L144.0 0.0L144.0 20.0L0.0 20.0Z" stroke="none" stroke-width="0.0" stroke-dasharray="none" opacity="1.0" fill="none"/><g id="ProcessOnG1065" transform="matrix(1.0,0.0,0.0,1.0,0.0,1.875)"><text id="ProcessOnText1066" fill="#000000" font-size="13" x="0.0" y="13.325" font-family="微软雅黑" font-weight="normal" font-style="normal" text-decoration="none" family="微软雅黑" text-anchor="start" size="13">Block</text></g></g><g id="ProcessOnG1067"><path id="ProcessOnPath1068" d="M441.0 361.0C441.0 384.67948348443315 458.9570673691246 394.1602582577834 479.4641016151378 406.0" stroke="#323232" stroke-width="2.0" stroke-dasharray="10.0 4.0" fill="none" marker-end="url(#ProcessOnMarker1069)"/><g id="ProcessOnG1071" transform="matrix(1.0,0.0,0.0,1.0,452.54191296531394,379.8149031533312)"><path id="ProcessOnPath1072" d="M0 0H44.0V16.25H0Z" fill="#fff" transform="matrix(1.0,0.0,0.0,1.0,-22.0,0.0)"/><text id="ProcessOnText1073" fill="#000000" font-size="13" x="0.0" y="13.325" font-family="微软雅黑" font-weight="normal" font-style="normal" text-decoration="none" family="微软雅黑" text-anchor="middle" size="13">type of</text></g></g><g id="ProcessOnG1074" transform="matrix(1.0,0.0,0.0,1.0,479.0,435.0)" opacity="1.0"><path id="ProcessOnPath1075" d="M0.0 0.0L144.0 0.0L144.0 32.0L0.0 32.0Z" stroke="#323232" stroke-width="2.0" stroke-dasharray="none" opacity="1.0" fill="#ffffff"/><g id="ProcessOnG1076" transform="matrix(1.0,0.0,0.0,1.0,10.0,7.875)"><text id="ProcessOnText1077" fill="#000000" font-size="13" x="61.0" y="13.325" font-family="微软雅黑" font-weight="normal" font-style="normal" text-decoration="none" family="微软雅黑" text-anchor="middle" size="13">indexr</text></g></g><g id="ProcessOnG1078" transform="matrix(1.0,0.0,0.0,1.0,479.0,467.0)" opacity="1.0"><path id="ProcessOnPath1079" d="M0.0 0.0L144.0 0.0L144.0 32.0L0.0 32.0Z" stroke="#323232" stroke-width="2.0" stroke-dasharray="none" opacity="1.0" fill="#ffffff"/><g id="ProcessOnG1080" transform="matrix(1.0,0.0,0.0,1.0,10.0,7.875)"><text id="ProcessOnText1081" fill="#000000" font-size="13" x="61.0" y="13.325" font-family="微软雅黑" font-weight="normal" font-style="normal" text-decoration="none" family="微软雅黑" text-anchor="middle" size="13">tombstones</text></g></g><g id="ProcessOnG1082" transform="matrix(1.0,0.0,0.0,1.0,693.0,351.0)" opacity="1.0"><path id="ProcessOnPath1083" d="M0.0 0.0L144.0 0.0L144.0 32.0L0.0 32.0Z" stroke="#323232" stroke-width="2.0" stroke-dasharray="10.0 4.0" opacity="1.0" fill="#ffffff"/><g id="ProcessOnG1084" transform="matrix(1.0,0.0,0.0,1.0,10.0,7.875)"><text id="ProcessOnText1085" fill="#000000" font-size="13" x="61.0" y="13.325" font-family="微软雅黑" font-weight="normal" font-style="normal" text-decoration="none" family="微软雅黑" text-anchor="middle" size="13">ChunkReader</text></g></g><g id="ProcessOnG1086" transform="matrix(1.0,0.0,0.0,1.0,693.0,435.0)" opacity="1.0"><path id="ProcessOnPath1087" d="M0.0 0.0L144.0 0.0L144.0 32.0L0.0 32.0Z" stroke="#323232" stroke-width="2.0" stroke-dasharray="10.0 4.0" opacity="1.0" fill="#ffffff"/><g id="ProcessOnG1088" transform="matrix(1.0,0.0,0.0,1.0,10.0,7.875)"><text id="ProcessOnText1089" fill="#000000" font-size="13" x="61.0" y="13.325" font-family="微软雅黑" font-weight="normal" font-style="normal" text-decoration="none" family="微软雅黑" text-anchor="middle" size="13">IndexReader</text></g></g><g id="ProcessOnG1090" transform="matrix(1.0,0.0,0.0,1.0,693.0,521.0)" opacity="1.0"><path id="ProcessOnPath1091" d="M0.0 0.0L144.0 0.0L144.0 32.0L0.0 32.0Z" stroke="#323232" stroke-width="2.0" stroke-dasharray="10.0 4.0" opacity="1.0" fill="#ffffff"/><g id="ProcessOnG1092" transform="matrix(1.0,0.0,0.0,1.0,10.0,7.875)"><text id="ProcessOnText1093" fill="#000000" font-size="13" x="61.0" y="13.325" font-family="微软雅黑" font-weight="normal" font-style="normal" text-decoration="none" family="微软雅黑" text-anchor="middle" size="13">TombstoneReader</text></g></g><g id="ProcessOnG1094"><path id="ProcessOnPath1095" d="M623.0 419.0C657.8803669705467 419.0 658.1196330294533 367.0 693.0 367.0" stroke="#323232" stroke-width="2.0" stroke-dasharray="none" fill="none" marker-end="url(#ProcessOnMarker1096)"/></g><g id="ProcessOnG1098"><path id="ProcessOnPath1099" d="M623.0 451.0C651.0 451.0 665.0 451.0 693.0 451.0" stroke="#323232" stroke-width="2.0" stroke-dasharray="none" fill="none" marker-end="url(#ProcessOnMarker1100)"/></g><g id="ProcessOnG1102"><path id="ProcessOnPath1103" d="M623.0 483.0C658.3632577684806 483.0 657.6367422315194 537.0 693.0 537.0" stroke="#323232" stroke-width="2.0" stroke-dasharray="none" fill="none" marker-end="url(#ProcessOnMarker1104)"/></g><g id="ProcessOnG1106" transform="matrix(1.0,0.0,0.0,1.0,698.0,159.0)" opacity="1.0"><path id="ProcessOnPath1107" d="M0.0 4.0Q0.0 0.0 4.0 0.0L140.0 0.0Q144.0 0.0 144.0 4.0L144.0 28.0Q144.0 32.0 140.0 32.0L4.0 32.0Q0.0 32.0 0.0 28.0Z" stroke="#323232" stroke-width="2.0" stroke-dasharray="none" opacity="1.0" fill="#ffff66"/><g id="ProcessOnG1108" transform="matrix(1.0,0.0,0.0,1.0,10.0,7.875)"><text id="ProcessOnText1109" fill="#000000" font-size="13" x="61.0" y="13.325" font-family="微软雅黑" font-weight="normal" font-style="normal" text-decoration="none" family="微软雅黑" text-anchor="middle" size="13">chunkenc.Chunk</text></g></g><g id="ProcessOnG1110"><path id="ProcessOnPath1111" d="M837.0 367.0C918.9597104605757 367.0 908.4991602845364 115.13699422236152 841.361695911422 162.1471528727021" stroke="#323232" stroke-width="2.0" stroke-dasharray="10.0 4.0" fill="none" marker-end="url(#ProcessOnMarker1112)"/><g id="ProcessOnG1114" transform="matrix(1.0,0.0,0.0,1.0,895.0922885183447,238.81976694247334)"><path id="ProcessOnPath1115" d="M0 0H48.0V16.25H0Z" fill="#fff" transform="matrix(1.0,0.0,0.0,1.0,-24.0,0.0)"/><text id="ProcessOnText1116" fill="#000000" font-size="13" x="0.0" y="13.325" font-family="微软雅黑" font-weight="normal" font-style="normal" text-decoration="none" family="微软雅黑" text-anchor="middle" size="13">Chunk()</text></g></g><g id="ProcessOnG1117" transform="matrix(1.0,0.0,0.0,1.0,75.0,536.0)" opacity="1.0"><path id="ProcessOnPath1118" d="M0.0 0.0L144.0 0.0L144.0 32.0L0.0 32.0Z" stroke="#323232" stroke-width="2.0" stroke-dasharray="none" opacity="1.0" fill="#ffffff"/><g id="ProcessOnG1119" transform="matrix(1.0,0.0,0.0,1.0,10.0,7.875)"><text id="ProcessOnText1120" fill="#000000" font-size="13" x="61.0" y="13.325" font-family="微软雅黑" font-weight="normal" font-style="normal" text-decoration="none" family="微软雅黑" text-anchor="middle" size="13">head</text></g></g><g id="ProcessOnG1121" transform="matrix(1.0,0.0,0.0,1.0,372.0,588.0)" opacity="1.0"><path id="ProcessOnPath1122" d="M0.0 0.0L144.0 0.0L144.0 32.0L0.0 32.0Z" stroke="#323232" stroke-width="2.0" stroke-dasharray="none" opacity="1.0" fill="#ffffff"/><g id="ProcessOnG1123" transform="matrix(1.0,0.0,0.0,1.0,10.0,7.875)"><text id="ProcessOnText1124" fill="#000000" font-size="13" x="61.0" y="13.325" font-family="微软雅黑" font-weight="normal" font-style="normal" text-decoration="none" family="微软雅黑" text-anchor="middle" size="13">wal</text></g></g><g id="ProcessOnG1125" transform="matrix(1.0,0.0,0.0,1.0,372.0,568.0)" opacity="1.0"><path id="ProcessOnPath1126" d="M0.0 0.0L144.0 0.0L144.0 20.0L0.0 20.0Z" stroke="none" stroke-width="0.0" stroke-dasharray="none" opacity="1.0" fill="none"/><g id="ProcessOnG1127" transform="matrix(1.0,0.0,0.0,1.0,0.0,1.875)"><text id="ProcessOnText1128" fill="#000000" font-size="13" x="0.0" y="13.325" font-family="微软雅黑" font-weight="normal" font-style="normal" text-decoration="none" family="微软雅黑" text-anchor="start" size="13">Head</text></g></g><g id="ProcessOnG1129"><path id="ProcessOnPath1130" d="M219.0 552.0C282.0995697804475 552.0 332.0115288073233 539.727102978966 372.57115043874614 588.0641777724759" stroke="#323232" stroke-width="2.0" stroke-dasharray="none" fill="none" marker-end="url(#ProcessOnMarker1131)"/></g><g id="ProcessOnG1133" transform="matrix(1.0,0.0,0.0,1.0,623.0,656.0)" opacity="1.0"><path id="ProcessOnPath1134" d="M0.0 0.0L144.0 0.0L144.0 32.0L0.0 32.0Z" stroke="#323232" stroke-width="2.0" stroke-dasharray="10.0 4.0" opacity="1.0" fill="#ffffff"/><g id="ProcessOnG1135" transform="matrix(1.0,0.0,0.0,1.0,10.0,7.875)"><text id="ProcessOnText1136" fill="#000000" font-size="13" x="61.0" y="13.325" font-family="微软雅黑" font-weight="normal" font-style="normal" text-decoration="none" family="微软雅黑" text-anchor="middle" size="13">WAL</text></g></g><g id="ProcessOnG1137" transform="matrix(1.0,0.0,0.0,1.0,623.0,636.0)" opacity="1.0"><path id="ProcessOnPath1138" d="M0.0 0.0L144.0 0.0L144.0 20.0L0.0 20.0Z" stroke="none" stroke-width="0.0" stroke-dasharray="none" opacity="1.0" fill="none"/></g><g id="ProcessOnG1139"><path id="ProcessOnPath1140" d="M516.0 604.0C564.1420999348256 604.0 593.340429876976 619.6531007510863 624.2855752193731 656.532088886238" stroke="#323232" stroke-width="2.0" stroke-dasharray="none" fill="none" marker-end="url(#ProcessOnMarker1141)"/></g><g id="ProcessOnG1143" transform="matrix(1.0,0.0,0.0,1.0,853.0,579.0)" opacity="1.0"><path id="ProcessOnPath1144" d="M0.0 0.0L144.0 0.0L144.0 32.0L0.0 32.0Z" stroke="#323232" stroke-width="2.0" stroke-dasharray="10.0 4.0" opacity="1.0" fill="#ffffff"/><g id="ProcessOnG1145" transform="matrix(1.0,0.0,0.0,1.0,10.0,7.875)"><text id="ProcessOnText1146" fill="#000000" font-size="13" x="61.0" y="13.325" font-family="微软雅黑" font-weight="normal" font-style="normal" text-decoration="none" family="微软雅黑" text-anchor="middle" size="13">WALReader</text></g></g><g id="ProcessOnG1147"><path id="ProcessOnPath1148" d="M767.0 672.0C813.1735855224608 672.0 806.8264144775392 595.0 853.0 595.0" stroke="#323232" stroke-width="2.0" stroke-dasharray="10.0 4.0" fill="none" marker-end="url(#ProcessOnMarker1149)"/><g id="ProcessOnG1151" transform="matrix(1.0,0.0,0.0,1.0,810.0,625.375)"><path id="ProcessOnPath1152" d="M0 0H50.0V16.25H0Z" fill="#fff" transform="matrix(1.0,0.0,0.0,1.0,-25.0,0.0)"/><text id="ProcessOnText1153" fill="#000000" font-size="13" x="0.0" y="13.325" font-family="微软雅黑" font-weight="normal" font-style="normal" text-decoration="none" family="微软雅黑" text-anchor="middle" size="13">Reader()</text></g></g><g id="ProcessOnG1154" transform="matrix(1.0,0.0,0.0,1.0,853.0,737.0)" opacity="1.0"><path id="ProcessOnPath1155" d="M0.0 4.0Q0.0 0.0 4.0 0.0L140.0 0.0Q144.0 0.0 144.0 4.0L144.0 28.0Q144.0 32.0 140.0 32.0L4.0 32.0Q0.0 32.0 0.0 28.0Z" stroke="#323232" stroke-width="2.0" stroke-dasharray="none" opacity="1.0" fill="#ffff66"/><g id="ProcessOnG1156" transform="matrix(1.0,0.0,0.0,1.0,10.0,7.875)"><text id="ProcessOnText1157" fill="#000000" font-size="13" x="61.0" y="13.325" font-family="微软雅黑" font-weight="normal" font-style="normal" text-decoration="none" family="微软雅黑" text-anchor="middle" size="13">LogSeries</text></g></g><g id="ProcessOnG1158"><path id="ProcessOnPath1159" d="M767.0 672.0C814.2558991026517 672.0 805.7441008973483 753.0 853.0 753.0" stroke="#323232" stroke-width="2.0" stroke-dasharray="10.0 4.0" fill="none" marker-end="url(#ProcessOnMarker1160)"/><g id="ProcessOnG1162" transform="matrix(1.0,0.0,0.0,1.0,810.0,704.375)"><path id="ProcessOnPath1163" d="M0 0H67.0V16.25H0Z" fill="#fff" transform="matrix(1.0,0.0,0.0,1.0,-33.5,0.0)"/><text id="ProcessOnText1164" fill="#000000" font-size="13" x="0.0" y="13.325" font-family="微软雅黑" font-weight="normal" font-style="normal" text-decoration="none" family="微软雅黑" text-anchor="middle" size="13">LogSeries()</text></g></g><g id="ProcessOnG1165" transform="matrix(1.0,0.0,0.0,1.0,377.0,734.0)" opacity="1.0"><path id="ProcessOnPath1166" d="M0.0 4.0Q0.0 0.0 4.0 0.0L140.0 0.0Q144.0 0.0 144.0 4.0L144.0 28.0Q144.0 32.0 140.0 32.0L4.0 32.0Q0.0 32.0 0.0 28.0Z" stroke="#323232" stroke-width="2.0" stroke-dasharray="none" opacity="1.0" fill="#ffff66"/><g id="ProcessOnG1167" transform="matrix(1.0,0.0,0.0,1.0,10.0,7.875)"><text id="ProcessOnText1168" fill="#000000" font-size="13" x="61.0" y="13.325" font-family="微软雅黑" font-weight="normal" font-style="normal" text-decoration="none" family="微软雅黑" text-anchor="middle" size="13">RefSample</text></g></g><g id="ProcessOnG1169"><path id="ProcessOnPath1170" d="M623.0 672.0C571.6377570583215 672.0 572.3622429416785 750.0 521.0 750.0" stroke="#323232" stroke-width="2.0" stroke-dasharray="10.0 4.0" fill="none" marker-end="url(#ProcessOnMarker1171)"/><g id="ProcessOnG1173" transform="matrix(1.0,0.0,0.0,1.0,572.0,702.875)"><path id="ProcessOnPath1174" d="M0 0H82.0V16.25H0Z" fill="#fff" transform="matrix(1.0,0.0,0.0,1.0,-41.0,0.0)"/><text id="ProcessOnText1175" fill="#000000" font-size="13" x="0.0" y="13.325" font-family="微软雅黑" font-weight="normal" font-style="normal" text-decoration="none" family="微软雅黑" text-anchor="middle" size="13">LogSamples()</text></g></g><g id="ProcessOnG1176" transform="matrix(1.0,0.0,0.0,1.0,623.0,827.0)" opacity="1.0"><path id="ProcessOnPath1177" d="M0.0 4.0Q0.0 0.0 4.0 0.0L140.0 0.0Q144.0 0.0 144.0 4.0L144.0 28.0Q144.0 32.0 140.0 32.0L4.0 32.0Q0.0 32.0 0.0 28.0Z" stroke="#323232" stroke-width="2.0" stroke-dasharray="none" opacity="1.0" fill="#ffff66"/><g id="ProcessOnG1178" transform="matrix(1.0,0.0,0.0,1.0,10.0,7.875)"><text id="ProcessOnText1179" fill="#000000" font-size="13" x="61.0" y="13.325" font-family="微软雅黑" font-weight="normal" font-style="normal" text-decoration="none" family="微软雅黑" text-anchor="middle" size="13">Stone</text></g></g><g id="ProcessOnG1180"><path id="ProcessOnPath1181" d="M695.0 688.0C695.0 743.6 695.0 771.4 695.0 827.0" stroke="#323232" stroke-width="2.0" stroke-dasharray="10.0 4.0" fill="none" marker-end="url(#ProcessOnMarker1182)"/><g id="ProcessOnG1184" transform="matrix(1.0,0.0,0.0,1.0,695.0,749.375)"><path id="ProcessOnPath1185" d="M0 0H76.0V16.25H0Z" fill="#fff" transform="matrix(1.0,0.0,0.0,1.0,-38.0,0.0)"/><text id="ProcessOnText1186" fill="#000000" font-size="13" x="0.0" y="13.325" font-family="微软雅黑" font-weight="normal" font-style="normal" text-decoration="none" family="微软雅黑" text-anchor="middle" size="13">LogDeletes()</text></g></g></g></g></svg>