<svg xmlns="http://www.w3.org/2000/svg" xmlns:xlink="http://www.w3.org/1999/xlink" id="processonSvg1000" viewBox="28.0 57.0 941.0 532.0" width="941.0" height="532.0"><defs id="ProcessOnDefs1001"><marker id="ProcessOnMarker1031" markerUnits="userSpaceOnUse" orient="auto" markerWidth="14.289086868996552" markerHeight="19.055054660878554" viewBox="-0.5877852522924731 -0.8090169943749475 14.289086868996552 19.055054660878554" refX="12.0" refY="8.71851033606433"><path id="ProcessOnPath1032" d="M0 0L12.0 8.71851033606433L0 17.43702067212866" stroke="#323232" stroke-width="2.0" fill="none" transform="matrix(1.0,0.0,0.0,1.0,0.0,0.0)"/></marker><marker id="ProcessOnMarker1035" markerUnits="userSpaceOnUse" orient="auto" markerWidth="14.289086868996552" markerHeight="19.055054660878554" viewBox="-0.5877852522924731 -0.8090169943749475 14.289086868996552 19.055054660878554" refX="12.0" refY="8.71851033606433"><path id="ProcessOnPath1036" d="M0 0L12.0 8.71851033606433L0 17.43702067212866" stroke="#323232" stroke-width="2.0" fill="none" transform="matrix(1.0,0.0,0.0,1.0,0.0,0.0)"/></marker><marker id="ProcessOnMarker1043" markerUnits="userSpaceOnUse" orient="auto" markerWidth="14.289086868996552" markerHeight="19.055054660878554" viewBox="-0.5877852522924731 -0.8090169943749475 14.289086868996552 19.055054660878554" refX="12.0" refY="8.71851033606433"><path id="ProcessOnPath1044" d="M0 0L12.0 8.71851033606433L0 17.43702067212866" stroke="#323232" stroke-width="2.0" fill="none" transform="matrix(1.0,0.0,0.0,1.0,0.0,0.0)"/></marker><marker id="ProcessOnMarker1058" markerUnits="userSpaceOnUse" orient="auto" markerWidth="14.289086868996552" markerHeight="19.055054660878554" viewBox="-0.5877852522924731 -0.8090169943749475 14.289086868996552 19.055054660878554" refX="12.0" refY="8.71851033606433"><path id="ProcessOnPath1059" d="M0 0L12.0 8.71851033606433L0 17.43702067212866" stroke="#323232" stroke-width="2.0" fill="none" transform="matrix(1.0,0.0,0.0,1.0,0.0,0.0)"/></marker><marker id="ProcessOnMarker1069" markerUnits="userSpaceOnUse" orient="auto" markerWidth="14.289086868996552" markerHeight="19.055054660878554" viewBox="-0.5877852522924731 -0.8090169943749475 14.289086868996552 19.055054660878554" refX="12.0" refY="8.71851033606433"><path id="ProcessOnPath1070" d="M0 0L12.0 8.71851033606433L0 17.43702067212866" stroke="#323232" stroke-width="2.0" fill="none" transform="matrix(1.0,0.0,0.0,1.0,0.0,0.0)"/></marker><marker id="ProcessOnMarker1076" markerUnits="userSpaceOnUse" orient="auto" markerWidth="14.289086868996552" markerHeight="19.055054660878554" viewBox="-0.5877852522924731 -0.8090169943749475 14.289086868996552 19.055054660878554" refX="12.0" refY="8.71851033606433"><path id="ProcessOnPath1077" d="M0 0L12.0 8.71851033606433L0 17.43702067212866" stroke="#323232" stroke-width="2.0" fill="none" transform="matrix(1.0,0.0,0.0,1.0,0.0,0.0)"/></marker><marker id="ProcessOnMarker1088" markerUnits="userSpaceOnUse" orient="auto" markerWidth="14.289086868996552" markerHeight="19.055054660878554" viewBox="-0.5877852522924731 -0.8090169943749475 14.289086868996552 19.055054660878554" refX="12.0" refY="8.71851033606433"><path id="ProcessOnPath1089" d="M0 0L12.0 8.71851033606433L0 17.43702067212866" stroke="#323232" stroke-width="2.0" fill="none" transform="matrix(1.0,0.0,0.0,1.0,0.0,0.0)"/></marker><marker id="ProcessOnMarker1092" markerUnits="userSpaceOnUse" orient="auto" markerWidth="14.289086868996552" markerHeight="19.055054660878554" viewBox="-0.5877852522924731 -0.8090169943749475 14.289086868996552 19.055054660878554" refX="12.0" refY="8.71851033606433"><path id="ProcessOnPath1093" d="M0 0L12.0 8.71851033606433L0 17.43702067212866" stroke="#323232" stroke-width="2.0" fill="none" transform="matrix(1.0,0.0,0.0,1.0,0.0,0.0)"/></marker><marker id="ProcessOnMarker1096" markerUnits="userSpaceOnUse" orient="auto" markerWidth="14.289086868996552" markerHeight="19.055054660878554" viewBox="-0.5877852522924731 -0.8090169943749475 14.289086868996552 19.055054660878554" refX="12.0" refY="8.71851033606433"><path id="ProcessOnPath1097" d="M0 0L12.0 8.71851033606433L0 17.43702067212866" stroke="#323232" stroke-width="2.0" fill="none" transform="matrix(1.0,0.0,0.0,1.0,0.0,0.0)"/></marker></defs><g id="ProcessOnG1002"><path id="ProcessOnPath1003" d="M28.0 57.0H969.0V589.0H28.0V57.0Z" fill="none"/><g id="ProcessOnG1004"><g id="ProcessOnG1005" transform="matrix(1.0,0.0,0.0,1.0,739.0,224.0)" opacity="1.0"><path id="ProcessOnPath1006" d="M0.0 0.0L210.0 0.0L210.0 48.0L0.0 48.0Z" stroke="#323232" stroke-width="2.0" stroke-dasharray="10.0 4.0" opacity="1.0" fill="#ffffff"/></g><g id="ProcessOnG1007" transform="matrix(1.0,0.0,0.0,1.0,382.0,97.0)" opacity="1.0"><path id="ProcessOnPath1008" d="M0.0 0.0L256.0 0.0L256.0 472.0L0.0 472.0Z" stroke="#323232" stroke-width="2.0" stroke-dasharray="10.0 4.0" opacity="1.0" fill="#ffffff"/></g><g id="ProcessOnG1009" transform="matrix(1.0,0.0,0.0,1.0,382.0,77.0)" opacity="1.0"><path id="ProcessOnPath1010" d="M0.0 0.0L72.0 0.0L72.0 20.0L0.0 20.0Z" stroke="none" stroke-width="0.0" stroke-dasharray="none" opacity="1.0" fill="none"/><g id="ProcessOnG1011" transform="matrix(1.0,0.0,0.0,1.0,0.0,1.875)"><text id="ProcessOnText1012" fill="#000000" font-size="13" x="0.0" y="13.325" font-family="微软雅黑" font-weight="normal" font-style="normal" text-decoration="none" family="微软雅黑" text-anchor="start" size="13">Proxier</text></g></g><g id="ProcessOnG1013" transform="matrix(1.0,0.0,0.0,1.0,438.0,107.0)" opacity="1.0"><path id="ProcessOnPath1014" d="M0.0 4.0Q0.0 0.0 4.0 0.0L140.0 0.0Q144.0 0.0 144.0 4.0L144.0 28.0Q144.0 32.0 140.0 32.0L4.0 32.0Q0.0 32.0 0.0 28.0Z" stroke="#323232" stroke-width="2.0" stroke-dasharray="none" opacity="1.0" fill="#ffffff"/><g id="ProcessOnG1015" transform="matrix(1.0,0.0,0.0,1.0,10.0,7.875)"><text id="ProcessOnText1016" fill="#000000" font-size="13" x="61.0" y="13.325" font-family="微软雅黑" font-weight="normal" font-style="normal" text-decoration="none" family="微软雅黑" text-anchor="middle" size="13">OnServiceAdd</text></g></g><g id="ProcessOnG1017" transform="matrix(1.0,0.0,0.0,1.0,438.0,167.0)" opacity="1.0"><path id="ProcessOnPath1018" d="M0.0 4.0Q0.0 0.0 4.0 0.0L140.0 0.0Q144.0 0.0 144.0 4.0L144.0 28.0Q144.0 32.0 140.0 32.0L4.0 32.0Q0.0 32.0 0.0 28.0Z" stroke="#323232" stroke-width="2.0" stroke-dasharray="none" opacity="1.0" fill="#ffffff"/><g id="ProcessOnG1019" transform="matrix(1.0,0.0,0.0,1.0,10.0,7.875)"><text id="ProcessOnText1020" fill="#000000" font-size="13" x="61.0" y="13.325" font-family="微软雅黑" font-weight="normal" font-style="normal" text-decoration="none" family="微软雅黑" text-anchor="middle" size="13">OnServiceDelete</text></g></g><g id="ProcessOnG1021" transform="matrix(1.0,0.0,0.0,1.0,438.0,232.0)" opacity="1.0"><path id="ProcessOnPath1022" d="M0.0 4.0Q0.0 0.0 4.0 0.0L140.0 0.0Q144.0 0.0 144.0 4.0L144.0 28.0Q144.0 32.0 140.0 32.0L4.0 32.0Q0.0 32.0 0.0 28.0Z" stroke="#323232" stroke-width="2.0" stroke-dasharray="none" opacity="1.0" fill="#ffffff"/><g id="ProcessOnG1023" transform="matrix(1.0,0.0,0.0,1.0,10.0,7.875)"><text id="ProcessOnText1024" fill="#000000" font-size="13" x="61.0" y="13.325" font-family="微软雅黑" font-weight="normal" font-style="normal" text-decoration="none" family="微软雅黑" text-anchor="middle" size="13">OnServiceUpdate</text></g></g><g id="ProcessOnG1025" transform="matrix(1.0,0.0,0.0,1.0,438.0,306.0)" opacity="1.0"><path id="ProcessOnPath1026" d="M0.0 4.0Q0.0 0.0 4.0 0.0L140.0 0.0Q144.0 0.0 144.0 4.0L144.0 28.0Q144.0 32.0 140.0 32.0L4.0 32.0Q0.0 32.0 0.0 28.0Z" stroke="#323232" stroke-width="2.0" stroke-dasharray="none" opacity="1.0" fill="#ffffff"/><g id="ProcessOnG1027" transform="matrix(1.0,0.0,0.0,1.0,10.0,7.875)"><text id="ProcessOnText1028" fill="#000000" font-size="13" x="61.0" y="13.325" font-family="微软雅黑" font-weight="normal" font-style="normal" text-decoration="none" family="微软雅黑" text-anchor="middle" size="13">OnServiceSynced</text></g></g><g id="ProcessOnG1029"><path id="ProcessOnPath1030" d="M438.0 123.0L408.0 123.0L408.0 248.0L438.0 248.0" stroke="#323232" stroke-width="2.0" stroke-dasharray="10.0 4.0" fill="none" marker-end="url(#ProcessOnMarker1031)"/></g><g id="ProcessOnG1033"><path id="ProcessOnPath1034" d="M510.0 199.0L510.0 215.5L510.0 215.5L510.0 232.0" stroke="#323232" stroke-width="2.0" stroke-dasharray="10.0 4.0" fill="none" marker-end="url(#ProcessOnMarker1035)"/></g><g id="ProcessOnG1037" transform="matrix(1.0,0.0,0.0,1.0,438.0,372.0)" opacity="1.0"><path id="ProcessOnPath1038" d="M0.0 4.0Q0.0 0.0 4.0 0.0L140.0 0.0Q144.0 0.0 144.0 4.0L144.0 28.0Q144.0 32.0 140.0 32.0L4.0 32.0Q0.0 32.0 0.0 28.0Z" stroke="#323232" stroke-width="2.0" stroke-dasharray="none" opacity="1.0" fill="#ffffff"/><g id="ProcessOnG1039" transform="matrix(1.0,0.0,0.0,1.0,10.0,7.875)"><text id="ProcessOnText1040" fill="#000000" font-size="13" x="61.0" y="13.325" font-family="微软雅黑" font-weight="normal" font-style="normal" text-decoration="none" family="微软雅黑" text-anchor="middle" size="13">syncProxyRules</text></g></g><g id="ProcessOnG1041"><path id="ProcessOnPath1042" d="M510.0 338.0L510.0 355.0L510.0 355.0L510.0 372.0" stroke="#323232" stroke-width="2.0" stroke-dasharray="10.0 4.0" fill="none" marker-end="url(#ProcessOnMarker1043)"/></g><g id="ProcessOnG1045" transform="matrix(1.0,0.0,0.0,1.0,48.0,79.0)" opacity="1.0"><path id="ProcessOnPath1046" d="M0.0 0.0L168.0 0.0L168.0 22.0L0.0 22.0Z" stroke="none" stroke-width="0.0" stroke-dasharray="none" opacity="1.0" fill="none"/><g id="ProcessOnG1047" transform="matrix(1.0,0.0,0.0,1.0,0.0,2.875)"><text id="ProcessOnText1048" fill="#000000" font-size="13" x="0.0" y="13.325" font-family="微软雅黑" font-weight="normal" font-style="normal" text-decoration="none" family="微软雅黑" text-anchor="start" size="13">BoundedFrequencyRunner</text></g></g><g id="ProcessOnG1049" transform="matrix(1.0,0.0,0.0,1.0,48.0,101.0)" opacity="1.0"><path id="ProcessOnPath1050" d="M0.0 0.0L228.0 0.0L228.0 143.0L0.0 143.0Z" stroke="#323232" stroke-width="2.0" stroke-dasharray="10.0 4.0" opacity="1.0" fill="#ffffff"/></g><g id="ProcessOnG1051" transform="matrix(1.0,0.0,0.0,1.0,129.0,122.0)" opacity="1.0"><path id="ProcessOnPath1052" d="M0.0 0.0L96.0 0.0L0.0 0.0M0.0 50.0L96.0 50.0L0.0 50.0Z" stroke="#323232" stroke-width="2.0" stroke-dasharray="none" opacity="1.0" fill="#ffffff"/><path id="ProcessOnPath1053" d="M0.0 0.0L96.0 0.0L96.0 50.0L0.0 50.0L0.0 0.0Z" stroke="none" stroke-width="0.0" stroke-dasharray="none" opacity="1.0" fill="none"/><g id="ProcessOnG1054" transform="matrix(1.0,0.0,0.0,1.0,10.0,16.875)"><text id="ProcessOnText1055" fill="#000000" font-size="13" x="37.0" y="13.325" font-family="微软雅黑" font-weight="normal" font-style="normal" text-decoration="none" family="微软雅黑" text-anchor="middle" size="13">run</text></g></g><g id="ProcessOnG1056"><path id="ProcessOnPath1057" d="M438.90884651807323 258.9581109339984L331.9544232590366 258.9581109339984L331.9544232590366 146.0L225.0 146.0" stroke="#323232" stroke-width="2.0" stroke-dasharray="10.0 4.0" fill="none" marker-end="url(#ProcessOnMarker1058)"/><g id="ProcessOnG1060" transform="matrix(1.0,0.0,0.0,1.0,331.9544232590366,194.3540554669992)"><path id="ProcessOnPath1061" d="M0 0H61.0V16.25H0Z" fill="#fff" transform="matrix(1.0,0.0,0.0,1.0,-30.5,0.0)"/><text id="ProcessOnText1062" fill="#000000" font-size="13" x="0.0" y="13.325" font-family="微软雅黑" font-weight="bold" font-style="normal" text-decoration="none" family="微软雅黑" text-anchor="middle" size="13">(2) signal</text></g></g><g id="ProcessOnG1063" transform="matrix(1.0,0.0,0.0,1.0,113.0,204.0)" opacity="1.0"><path id="ProcessOnPath1064" d="M0.0 4.0Q0.0 0.0 4.0 0.0L140.0 0.0Q144.0 0.0 144.0 4.0L144.0 28.0Q144.0 32.0 140.0 32.0L4.0 32.0Q0.0 32.0 0.0 28.0Z" stroke="#323232" stroke-width="2.0" stroke-dasharray="none" opacity="1.0" fill="#ffffff"/><g id="ProcessOnG1065" transform="matrix(1.0,0.0,0.0,1.0,10.0,7.875)"><text id="ProcessOnText1066" fill="#000000" font-size="13" x="61.0" y="13.325" font-family="微软雅黑" font-weight="normal" font-style="normal" text-decoration="none" family="微软雅黑" text-anchor="middle" size="13">fn</text></g></g><g id="ProcessOnG1067"><path id="ProcessOnPath1068" d="M129.0 147.0L83.0 147.0L83.0 220.0L113.0 220.0" stroke="#323232" stroke-width="2.0" stroke-dasharray="10.0 4.0" fill="none" marker-end="url(#ProcessOnMarker1069)"/><g id="ProcessOnG1071" transform="matrix(1.0,0.0,0.0,1.0,83.0,167.375)"><path id="ProcessOnPath1072" d="M0 0H20.0V16.25H0Z" fill="#fff" transform="matrix(1.0,0.0,0.0,1.0,-10.0,0.0)"/><text id="ProcessOnText1073" fill="#000000" font-size="13" x="0.0" y="13.325" font-family="微软雅黑" font-weight="normal" font-style="normal" text-decoration="none" family="微软雅黑" text-anchor="middle" size="13">call</text></g></g><g id="ProcessOnG1074"><path id="ProcessOnPath1075" d="M257.0 220.0L301.5 220.0L301.5 388.0L438.0 388.0" stroke="#323232" stroke-width="2.0" stroke-dasharray="none" fill="none" marker-end="url(#ProcessOnMarker1076)"/></g><g id="ProcessOnG1078" transform="matrix(1.0,0.0,0.0,1.0,438.0,438.0)" opacity="1.0"><path id="ProcessOnPath1079" d="M0.0 4.0Q0.0 0.0 4.0 0.0L140.0 0.0Q144.0 0.0 144.0 4.0L144.0 28.0Q144.0 32.0 140.0 32.0L4.0 32.0Q0.0 32.0 0.0 28.0Z" stroke="#323232" stroke-width="2.0" stroke-dasharray="none" opacity="1.0" fill="#ffffff"/><g id="ProcessOnG1080" transform="matrix(1.0,0.0,0.0,1.0,10.0,7.875)"><text id="ProcessOnText1081" fill="#000000" font-size="13" x="61.0" y="13.325" font-family="微软雅黑" font-weight="normal" font-style="normal" text-decoration="none" family="微软雅黑" text-anchor="middle" size="13">UpdateServiceMap</text></g></g><g id="ProcessOnG1082" transform="matrix(1.0,0.0,0.0,1.0,427.0,506.0)" opacity="1.0"><path id="ProcessOnPath1083" d="M0.0 4.0Q0.0 0.0 4.0 0.0L162.0 0.0Q166.0 0.0 166.0 4.0L166.0 28.0Q166.0 32.0 162.0 32.0L4.0 32.0Q0.0 32.0 0.0 28.0Z" stroke="#323232" stroke-width="2.0" stroke-dasharray="none" opacity="1.0" fill="#ffffff"/><g id="ProcessOnG1084" transform="matrix(1.0,0.0,0.0,1.0,10.0,7.875)"><text id="ProcessOnText1085" fill="#000000" font-size="13" x="72.0" y="13.325" font-family="微软雅黑" font-weight="normal" font-style="normal" text-decoration="none" family="微软雅黑" text-anchor="middle" size="13">UpdateEndpointsMap</text></g></g><g id="ProcessOnG1086"><path id="ProcessOnPath1087" d="M510.0 404.0L510.0 421.0L510.0 421.0L510.0 438.0" stroke="#323232" stroke-width="2.0" stroke-dasharray="10.0 4.0" fill="none" marker-end="url(#ProcessOnMarker1088)"/></g><g id="ProcessOnG1090"><path id="ProcessOnPath1091" d="M582.0 388.0L623.0 388.0L623.0 522.0L593.0 522.0" stroke="#323232" stroke-width="2.0" stroke-dasharray="10.0 4.0" fill="none" marker-end="url(#ProcessOnMarker1092)"/></g><g id="ProcessOnG1094"><path id="ProcessOnPath1095" d="M582.0 248.0L677.0 248.0L677.0 248.0L772.0 248.0" stroke="#323232" stroke-width="2.0" stroke-dasharray="10.0 4.0" fill="none" marker-end="url(#ProcessOnMarker1096)"/><g id="ProcessOnG1098" transform="matrix(1.0,0.0,0.0,1.0,677.0,239.875)"><path id="ProcessOnPath1099" d="M0 0H18.0V16.25H0Z" fill="#fff" transform="matrix(1.0,0.0,0.0,1.0,-9.0,0.0)"/><text id="ProcessOnText1100" fill="#000000" font-size="13" x="0.0" y="13.325" font-family="微软雅黑" font-weight="bold" font-style="normal" text-decoration="none" family="微软雅黑" text-anchor="middle" size="13">(1)</text></g></g><g id="ProcessOnG1101" transform="matrix(1.0,0.0,0.0,1.0,739.0,204.0)" opacity="1.0"><path id="ProcessOnPath1102" d="M0.0 0.0L153.0 0.0L153.0 20.0L0.0 20.0Z" stroke="none" stroke-width="0.0" stroke-dasharray="none" opacity="1.0" fill="none"/><g id="ProcessOnG1103" transform="matrix(1.0,0.0,0.0,1.0,0.0,1.875)"><text id="ProcessOnText1104" fill="#000000" font-size="13" x="0.0" y="13.325" font-family="微软雅黑" font-weight="normal" font-style="normal" text-decoration="none" family="微软雅黑" text-anchor="start" size="13">ServiceChangeTracker</text></g></g><g id="ProcessOnG1105" transform="matrix(1.0,0.0,0.0,1.0,772.0,232.0)" opacity="1.0"><path id="ProcessOnPath1106" d="M0.0 4.0Q0.0 0.0 4.0 0.0L140.0 0.0Q144.0 0.0 144.0 4.0L144.0 28.0Q144.0 32.0 140.0 32.0L4.0 32.0Q0.0 32.0 0.0 28.0Z" stroke="#323232" stroke-width="2.0" stroke-dasharray="none" opacity="1.0" fill="#ffffff"/><g id="ProcessOnG1107" transform="matrix(1.0,0.0,0.0,1.0,10.0,7.875)"><text id="ProcessOnText1108" fill="#000000" font-size="13" x="61.0" y="13.325" font-family="微软雅黑" font-weight="normal" font-style="normal" text-decoration="none" family="微软雅黑" text-anchor="middle" size="13">Update</text></g></g></g></g></svg>