<svg xmlns="http://www.w3.org/2000/svg" xmlns:xlink="http://www.w3.org/1999/xlink" id="processonSvg1000" viewBox="171.0 75.0 561.4547170863195 452.0" width="561.4547170863195" height="452.0"><defs id="ProcessOnDefs1001"><marker id="ProcessOnMarker1023" markerUnits="userSpaceOnUse" orient="auto" markerWidth="14.289086868996552" markerHeight="19.055054660878554" viewBox="-0.5877852522924731 -0.8090169943749475 14.289086868996552 19.055054660878554" refX="12.0" refY="8.71851033606433"><path id="ProcessOnPath1024" d="M0 0L12.0 8.71851033606433L0 17.43702067212866" stroke="#323232" stroke-width="2.0" fill="none" transform="matrix(1.0,0.0,0.0,1.0,0.0,0.0)"/></marker><marker id="ProcessOnMarker1029" markerUnits="userSpaceOnUse" orient="auto" markerWidth="14.289086868996552" markerHeight="19.055054660878554" viewBox="-0.5877852522924731 -0.8090169943749475 14.289086868996552 19.055054660878554" refX="12.0" refY="8.71851033606433"><path id="ProcessOnPath1030" d="M0 0L12.0 8.71851033606433L0 17.43702067212866" stroke="#323232" stroke-width="2.0" fill="none" transform="matrix(1.0,0.0,0.0,1.0,0.0,0.0)"/></marker><marker id="ProcessOnMarker1038" markerUnits="userSpaceOnUse" orient="auto" markerWidth="14.289086868996552" markerHeight="19.055054660878554" viewBox="-0.5877852522924731 -0.8090169943749475 14.289086868996552 19.055054660878554" refX="12.0" refY="8.71851033606433"><path id="ProcessOnPath1039" d="M0 0L12.0 8.71851033606433L0 17.43702067212866" stroke="#323232" stroke-width="2.0" fill="none" transform="matrix(1.0,0.0,0.0,1.0,0.0,0.0)"/></marker><marker id="ProcessOnMarker1055" markerUnits="userSpaceOnUse" orient="auto" markerWidth="14.289086868996552" markerHeight="19.055054660878554" viewBox="-0.5877852522924731 -0.8090169943749475 14.289086868996552 19.055054660878554" refX="12.0" refY="8.71851033606433"><path id="ProcessOnPath1056" d="M0 0L12.0 8.71851033606433L0 17.43702067212866" stroke="#323232" stroke-width="2.0" fill="none" transform="matrix(1.0,0.0,0.0,1.0,0.0,0.0)"/></marker><marker id="ProcessOnMarker1062" markerUnits="userSpaceOnUse" orient="auto" markerWidth="14.289086868996552" markerHeight="19.055054660878554" viewBox="-0.5877852522924731 -0.8090169943749475 14.289086868996552 19.055054660878554" refX="12.0" refY="8.71851033606433"><path id="ProcessOnPath1063" d="M0 0L12.0 8.71851033606433L0 17.43702067212866" stroke="#323232" stroke-width="2.0" fill="none" transform="matrix(1.0,0.0,0.0,1.0,0.0,0.0)"/></marker><marker id="ProcessOnMarker1069" markerUnits="userSpaceOnUse" orient="auto" markerWidth="14.289086868996552" markerHeight="19.055054660878554" viewBox="-0.5877852522924731 -0.8090169943749475 14.289086868996552 19.055054660878554" refX="12.0" refY="8.71851033606433"><path id="ProcessOnPath1070" d="M0 0L12.0 8.71851033606433L0 17.43702067212866" stroke="#323232" stroke-width="2.0" fill="none" transform="matrix(1.0,0.0,0.0,1.0,0.0,0.0)"/></marker></defs><g id="ProcessOnG1002"><path id="ProcessOnPath1003" d="M171.0 75.0H732.4547170863195V527.0H171.0V75.0Z" fill="none"/><g id="ProcessOnG1004"><g id="ProcessOnG1005" transform="matrix(1.0,0.0,0.0,1.0,191.0,95.0)" opacity="1.0"><path id="ProcessOnPath1006" d="M0.0 0.0L98.0 0.0L98.0 20.0L0.0 20.0Z" stroke="none" stroke-width="0.0" stroke-dasharray="none" opacity="1.0" fill="none"/><g id="ProcessOnG1007" transform="matrix(1.0,0.0,0.0,1.0,0.0,1.875)"><text id="ProcessOnText1008" fill="#000000" font-size="13" x="0.0" y="13.325" font-family="微软雅黑" font-weight="normal" font-style="normal" text-decoration="none" family="微软雅黑" text-anchor="start" size="13">iptables.Proxier</text></g></g><g id="ProcessOnG1009" transform="matrix(1.0,0.0,0.0,1.0,496.0,119.0)" opacity="1.0"><path id="ProcessOnPath1010" d="M0.0 0.0L168.0 0.0L168.0 22.0L0.0 22.0Z" stroke="none" stroke-width="0.0" stroke-dasharray="none" opacity="1.0" fill="none"/><g id="ProcessOnG1011" transform="matrix(1.0,0.0,0.0,1.0,0.0,2.875)"><text id="ProcessOnText1012" fill="#000000" font-size="13" x="0.0" y="13.325" font-family="微软雅黑" font-weight="normal" font-style="normal" text-decoration="none" family="微软雅黑" text-anchor="start" size="13">BoundedFrequencyRunner</text></g></g><g id="ProcessOnG1013" transform="matrix(1.0,0.0,0.0,1.0,496.0,141.0)" opacity="1.0"><path id="ProcessOnPath1014" d="M0.0 0.0L98.0 0.0L98.0 32.0L0.0 32.0Z" stroke="#323232" stroke-width="2.0" stroke-dasharray="none" opacity="1.0" fill="#ffffff"/><g id="ProcessOnG1015" transform="matrix(1.0,0.0,0.0,1.0,10.0,7.875)"><text id="ProcessOnText1016" fill="#000000" font-size="13" x="38.0" y="13.325" font-family="微软雅黑" font-weight="normal" font-style="normal" text-decoration="none" family="微软雅黑" text-anchor="middle" size="13">fn</text></g></g><g id="ProcessOnG1017" transform="matrix(1.0,0.0,0.0,1.0,191.0,147.0)" opacity="1.0"><path id="ProcessOnPath1018" d="M0.0 0.0L136.0 0.0L136.0 32.0L0.0 32.0Z" stroke="#323232" stroke-width="2.0" stroke-dasharray="10.0 4.0" opacity="1.0" fill="#ffffff"/><g id="ProcessOnG1019" transform="matrix(1.0,0.0,0.0,1.0,10.0,7.875)"><text id="ProcessOnText1020" fill="#000000" font-size="13" x="57.0" y="13.325" font-family="微软雅黑" font-weight="normal" font-style="normal" text-decoration="none" family="微软雅黑" text-anchor="middle" size="13">syncProxyRules</text></g></g><g id="ProcessOnG1021"><path id="ProcessOnPath1022" d="M496.0 157.0C428.3574098662684 157.0 394.6425901337316 163.0 327.0 163.0" stroke="#323232" stroke-width="2.0" stroke-dasharray="none" fill="none" marker-end="url(#ProcessOnMarker1023)"/></g><g id="ProcessOnG1025" transform="matrix(1.0,0.0,0.0,1.0,381.0,327.0)" opacity="1.0"><path id="ProcessOnPath1026" d="M0.0 0.0L328.0 0.0L328.0 180.0L0.0 180.0Z" stroke="#323232" stroke-width="2.0" stroke-dasharray="10.0 4.0" opacity="1.0" fill="#ffffff"/></g><g id="ProcessOnG1027"><path id="ProcessOnPath1028" d="M545.0 173.0C545.0 234.60000000000002 545.0 265.4 545.0 327.0" stroke="#323232" stroke-width="2.0" stroke-dasharray="10.0 4.0" fill="none" marker-end="url(#ProcessOnMarker1029)"/><g id="ProcessOnG1031" transform="matrix(1.0,0.0,0.0,1.0,545.0,241.875)"><path id="ProcessOnPath1032" d="M0 0H66.0V16.25H0Z" fill="#fff" transform="matrix(1.0,0.0,0.0,1.0,-33.0,0.0)"/><text id="ProcessOnText1033" fill="#000000" font-size="13" x="0.0" y="13.325" font-family="微软雅黑" font-weight="normal" font-style="normal" text-decoration="none" family="微软雅黑" text-anchor="middle" size="13">Loop body</text></g></g><g id="ProcessOnG1034" transform="matrix(1.0,0.0,0.0,1.0,191.0,115.0)" opacity="1.0"><path id="ProcessOnPath1035" d="M0.0 0.0L136.0 0.0L136.0 32.0L0.0 32.0Z" stroke="#323232" stroke-width="2.0" stroke-dasharray="none" opacity="1.0" fill="#ffffff"/></g><g id="ProcessOnG1036"><path id="ProcessOnPath1037" d="M327.0 131.0C394.9848003438718 131.0 437.58753744613165 110.00759982806412 496.46410161513774 144.0" stroke="#323232" stroke-width="2.0" stroke-dasharray="10.0 4.0" fill="none" marker-end="url(#ProcessOnMarker1038)"/><g id="ProcessOnG1040" transform="matrix(1.0,0.0,0.0,1.0,415.1476393731435,116.62784993552404)"><path id="ProcessOnPath1041" d="M0 0H31.0V16.25H0Z" fill="#fff" transform="matrix(1.0,0.0,0.0,1.0,-15.5,0.0)"/><text id="ProcessOnText1042" fill="#000000" font-size="13" x="0.0" y="13.325" font-family="微软雅黑" font-weight="normal" font-style="normal" text-decoration="none" family="微软雅黑" text-anchor="middle" size="13">Loop</text></g></g><g id="ProcessOnG1043" transform="matrix(1.0,0.0,0.0,1.0,489.0,350.0)" opacity="1.0"><path id="ProcessOnPath1044" d="M0.0 0.0L96.0 0.0L0.0 0.0M0.0 50.0L96.0 50.0L0.0 50.0Z" stroke="#323232" stroke-width="2.0" stroke-dasharray="none" opacity="1.0" fill="#ffffff"/><path id="ProcessOnPath1045" d="M0.0 0.0L96.0 0.0L96.0 50.0L0.0 50.0L0.0 0.0Z" stroke="none" stroke-width="0.0" stroke-dasharray="none" opacity="1.0" fill="none"/><g id="ProcessOnG1046" transform="matrix(1.0,0.0,0.0,1.0,10.0,16.875)"><text id="ProcessOnText1047" fill="#000000" font-size="13" x="37.0" y="13.325" font-family="微软雅黑" font-weight="normal" font-style="normal" text-decoration="none" family="微软雅黑" text-anchor="middle" size="13">timer.C()</text></g></g><g id="ProcessOnG1048" transform="matrix(1.0,0.0,0.0,1.0,489.0,429.0)" opacity="1.0"><path id="ProcessOnPath1049" d="M0.0 0.0L96.0 0.0L0.0 0.0M0.0 50.0L96.0 50.0L0.0 50.0Z" stroke="#323232" stroke-width="2.0" stroke-dasharray="none" opacity="1.0" fill="#ffffff"/><path id="ProcessOnPath1050" d="M0.0 0.0L96.0 0.0L96.0 50.0L0.0 50.0L0.0 0.0Z" stroke="none" stroke-width="0.0" stroke-dasharray="none" opacity="1.0" fill="none"/><g id="ProcessOnG1051" transform="matrix(1.0,0.0,0.0,1.0,10.0,16.875)"><text id="ProcessOnText1052" fill="#000000" font-size="13" x="37.0" y="13.325" font-family="微软雅黑" font-weight="normal" font-style="normal" text-decoration="none" family="微软雅黑" text-anchor="middle" size="13">run</text></g></g><g id="ProcessOnG1053"><path id="ProcessOnPath1054" d="M489.0 453.0C361.1680024830009 453.0 322.0 292.0 325.2792706909469 178.54254386713302" stroke="#323232" stroke-width="2.0" stroke-dasharray="10.0 4.0" fill="none" marker-end="url(#ProcessOnMarker1055)"/><g id="ProcessOnG1057" transform="matrix(1.0,0.0,0.0,1.0,357.97290976749366,350.19281798339165)"><path id="ProcessOnPath1058" d="M0 0H20.0V16.25H0Z" fill="#fff" transform="matrix(1.0,0.0,0.0,1.0,-10.0,0.0)"/><text id="ProcessOnText1059" fill="#000000" font-size="13" x="0.0" y="13.325" font-family="微软雅黑" font-weight="normal" font-style="normal" text-decoration="none" family="微软雅黑" text-anchor="middle" size="13">call</text></g></g><g id="ProcessOnG1060"><path id="ProcessOnPath1061" d="M489.0 374.0C385.7372283928036 374.0 430.2627716071964 173.00000000000009 327.0 173.0" stroke="#323232" stroke-width="2.0" stroke-dasharray="10.0 4.0" fill="none" marker-end="url(#ProcessOnMarker1062)"/><g id="ProcessOnG1064" transform="matrix(1.0,0.0,0.0,1.0,408.0,265.375)"><path id="ProcessOnPath1065" d="M0 0H20.0V16.25H0Z" fill="#fff" transform="matrix(1.0,0.0,0.0,1.0,-10.0,0.0)"/><text id="ProcessOnText1066" fill="#000000" font-size="13" x="0.0" y="13.325" font-family="微软雅黑" font-weight="normal" font-style="normal" text-decoration="none" family="微软雅黑" text-anchor="middle" size="13">call</text></g></g><g id="ProcessOnG1067"><path id="ProcessOnPath1068" d="M594.0 157.0C712.4547170863195 156.99999999999997 703.4547170863195 453.0 585.0 453.0" stroke="#323232" stroke-width="2.0" stroke-dasharray="10.0 4.0" fill="none" marker-end="url(#ProcessOnMarker1069)"/><g id="ProcessOnG1071" transform="matrix(1.0,0.0,0.0,1.0,678.3410378147396,296.875)"><path id="ProcessOnPath1072" d="M0 0H24.0V16.25H0Z" fill="#fff" transform="matrix(1.0,0.0,0.0,1.0,-12.0,0.0)"/><text id="ProcessOnText1073" fill="#000000" font-size="13" x="0.0" y="13.325" font-family="微软雅黑" font-weight="normal" font-style="normal" text-decoration="none" family="微软雅黑" text-anchor="middle" size="13">Run</text></g></g></g></g></svg>