<svg xmlns="http://www.w3.org/2000/svg" xmlns:xlink="http://www.w3.org/1999/xlink" id="processonSvg1000" viewBox="19.0 26.0 961.0 687.0" width="961.0" height="687.0"><defs id="ProcessOnDefs1001"><marker id="ProcessOnMarker1017" markerUnits="userSpaceOnUse" orient="auto" markerWidth="14.289086868996552" markerHeight="19.055054660878554" viewBox="-0.5877852522924731 -0.8090169943749475 14.289086868996552 19.055054660878554" refX="12.0" refY="8.71851033606433"><path id="ProcessOnPath1018" d="M0 0L12.0 8.71851033606433L0 17.43702067212866" stroke="#66ffff" stroke-width="2.0" fill="none" transform="matrix(1.0,0.0,0.0,1.0,0.0,0.0)"/></marker><marker id="ProcessOnMarker1032" markerUnits="userSpaceOnUse" orient="auto" markerWidth="14.289086868996552" markerHeight="19.055054660878554" viewBox="-0.5877852522924731 -0.8090169943749475 14.289086868996552 19.055054660878554" refX="12.0" refY="8.71851033606433"><path id="ProcessOnPath1033" d="M0 0L12.0 8.71851033606433L0 17.43702067212866" stroke="#66ffff" stroke-width="2.0" fill="none" transform="matrix(1.0,0.0,0.0,1.0,0.0,0.0)"/></marker><marker id="ProcessOnMarker1055" markerUnits="userSpaceOnUse" orient="auto" markerWidth="14.289086868996552" markerHeight="19.055054660878554" viewBox="-0.5877852522924731 -0.8090169943749475 14.289086868996552 19.055054660878554" refX="12.0" refY="8.71851033606433"><path id="ProcessOnPath1056" d="M0 0L12.0 8.71851033606433L0 17.43702067212866" stroke="#323232" stroke-width="2.0" fill="none" transform="matrix(1.0,0.0,0.0,1.0,0.0,0.0)"/></marker><marker id="ProcessOnMarker1059" markerUnits="userSpaceOnUse" orient="auto" markerWidth="14.289086868996552" markerHeight="19.055054660878554" viewBox="-0.5877852522924731 -0.8090169943749475 14.289086868996552 19.055054660878554" refX="12.0" refY="8.71851033606433"><path id="ProcessOnPath1060" d="M0 0L12.0 8.71851033606433L0 17.43702067212866" stroke="#323232" stroke-width="2.0" fill="none" transform="matrix(1.0,0.0,0.0,1.0,0.0,0.0)"/></marker><marker id="ProcessOnMarker1063" markerUnits="userSpaceOnUse" orient="auto" markerWidth="14.289086868996552" markerHeight="19.055054660878554" viewBox="-0.5877852522924731 -0.8090169943749475 14.289086868996552 19.055054660878554" refX="12.0" refY="8.71851033606433"><path id="ProcessOnPath1064" d="M0 0L12.0 8.71851033606433L0 17.43702067212866" stroke="#323232" stroke-width="2.0" fill="none" transform="matrix(1.0,0.0,0.0,1.0,0.0,0.0)"/></marker><marker id="ProcessOnMarker1067" markerUnits="userSpaceOnUse" orient="auto" markerWidth="14.289086868996552" markerHeight="19.055054660878554" viewBox="-0.5877852522924731 -0.8090169943749475 14.289086868996552 19.055054660878554" refX="12.0" refY="8.71851033606433"><path id="ProcessOnPath1068" d="M0 0L12.0 8.71851033606433L0 17.43702067212866" stroke="#323232" stroke-width="2.0" fill="none" transform="matrix(1.0,0.0,0.0,1.0,0.0,0.0)"/></marker><marker id="ProcessOnMarker1071" markerUnits="userSpaceOnUse" orient="auto" markerWidth="14.289086868996552" markerHeight="19.055054660878554" viewBox="-0.5877852522924731 -0.8090169943749475 14.289086868996552 19.055054660878554" refX="12.0" refY="8.71851033606433"><path id="ProcessOnPath1072" d="M0 0L12.0 8.71851033606433L0 17.43702067212866" stroke="#323232" stroke-width="2.0" fill="none" transform="matrix(1.0,0.0,0.0,1.0,0.0,0.0)"/></marker><marker id="ProcessOnMarker1075" markerUnits="userSpaceOnUse" orient="auto" markerWidth="14.289086868996552" markerHeight="19.055054660878554" viewBox="-0.5877852522924731 -0.8090169943749475 14.289086868996552 19.055054660878554" refX="12.0" refY="8.71851033606433"><path id="ProcessOnPath1076" d="M0 0L12.0 8.71851033606433L0 17.43702067212866" stroke="#66ffff" stroke-width="2.0" fill="none" transform="matrix(1.0,0.0,0.0,1.0,0.0,0.0)"/></marker><marker id="ProcessOnMarker1082" markerUnits="userSpaceOnUse" orient="auto" markerWidth="14.289086868996552" markerHeight="19.055054660878554" viewBox="-0.5877852522924731 -0.8090169943749475 14.289086868996552 19.055054660878554" refX="12.0" refY="8.71851033606433"><path id="ProcessOnPath1083" d="M0 0L12.0 8.71851033606433L0 17.43702067212866" stroke="#ffb366" stroke-width="2.0" fill="none" transform="matrix(1.0,0.0,0.0,1.0,0.0,0.0)"/></marker><marker id="ProcessOnMarker1089" markerUnits="userSpaceOnUse" orient="auto" markerWidth="14.289086868996552" markerHeight="19.055054660878554" viewBox="-0.5877852522924731 -0.8090169943749475 14.289086868996552 19.055054660878554" refX="12.0" refY="8.71851033606433"><path id="ProcessOnPath1090" d="M0 0L12.0 8.71851033606433L0 17.43702067212866" stroke="#ffb366" stroke-width="2.0" fill="none" transform="matrix(1.0,0.0,0.0,1.0,0.0,0.0)"/></marker><marker id="ProcessOnMarker1111" markerUnits="userSpaceOnUse" orient="auto" markerWidth="14.289086868996552" markerHeight="19.055054660878554" viewBox="-0.5877852522924731 -0.8090169943749475 14.289086868996552 19.055054660878554" refX="12.0" refY="8.71851033606433"><path id="ProcessOnPath1112" d="M0 0L12.0 8.71851033606433L0 17.43702067212866" stroke="#ff6666" stroke-width="2.0" fill="none" transform="matrix(1.0,0.0,0.0,1.0,0.0,0.0)"/></marker><marker id="ProcessOnMarker1118" markerUnits="userSpaceOnUse" orient="auto" markerWidth="14.289086868996552" markerHeight="19.055054660878554" viewBox="-0.5877852522924731 -0.8090169943749475 14.289086868996552 19.055054660878554" refX="12.0" refY="8.71851033606433"><path id="ProcessOnPath1119" d="M0 0L12.0 8.71851033606433L0 17.43702067212866" stroke="#ff6666" stroke-width="2.0" fill="none" transform="matrix(1.0,0.0,0.0,1.0,0.0,0.0)"/></marker><marker id="ProcessOnMarker1126" markerUnits="userSpaceOnUse" orient="auto" markerWidth="14.289086868996552" markerHeight="19.055054660878554" viewBox="-0.5877852522924731 -0.8090169943749475 14.289086868996552 19.055054660878554" refX="12.0" refY="8.71851033606433"><path id="ProcessOnPath1127" d="M0 0L12.0 8.71851033606433L0 17.43702067212866" stroke="#ff6666" stroke-width="2.0" fill="none" transform="matrix(1.0,0.0,0.0,1.0,0.0,0.0)"/></marker></defs><g id="ProcessOnG1002"><path id="ProcessOnPath1003" d="M19.0 26.0H980.0V713.0H19.0V26.0Z" fill="none"/><g id="ProcessOnG1004"><g id="ProcessOnG1005" transform="matrix(1.0,0.0,0.0,1.0,181.0,178.5)" opacity="1.0"><path id="ProcessOnPath1006" d="M0.0 210.75C0.0 -70.25 779.0 -70.25 779.0 210.75C779.0 491.75 0.0 491.75 0.0 210.75Z" stroke="#323232" stroke-width="2.0" stroke-dasharray="10.0 4.0" opacity="1.0" fill="#ffffff"/></g><g id="ProcessOnG1007" transform="matrix(1.0,0.0,0.0,1.0,511.0,46.0)" opacity="1.0"><path id="ProcessOnPath1008" d="M0.0 0.0L100.0 0.0L100.0 32.0L0.0 32.0Z" stroke="#323232" stroke-width="2.0" stroke-dasharray="none" opacity="1.0" fill="#ffffff"/><g id="ProcessOnG1009" transform="matrix(1.0,0.0,0.0,1.0,10.0,7.875)"><text id="ProcessOnText1010" fill="#000000" font-size="13" x="39.0" y="13.325" font-family="微软雅黑" font-weight="normal" font-style="normal" text-decoration="none" family="微软雅黑" text-anchor="middle" size="13">client</text></g></g><g id="ProcessOnG1011" transform="matrix(1.0,0.0,0.0,1.0,511.0,409.0)" opacity="1.0"><path id="ProcessOnPath1012" d="M0.0 0.0L100.0 0.0L100.0 32.0L0.0 32.0Z" stroke="#323232" stroke-width="2.0" stroke-dasharray="none" opacity="1.0" fill="#ffffff"/><g id="ProcessOnG1013" transform="matrix(1.0,0.0,0.0,1.0,10.0,7.875)"><text id="ProcessOnText1014" fill="#000000" font-size="13" x="39.0" y="13.325" font-family="微软雅黑" font-weight="normal" font-style="normal" text-decoration="none" family="微软雅黑" text-anchor="middle" size="13">Balancer</text></g></g><g id="ProcessOnG1015"><path id="ProcessOnPath1016" d="M511.0 62.0L481.0 62.0L481.0 412.55291427061513L511.7955549577344 412.55291427061513" stroke="#66ffff" stroke-width="2.0" stroke-dasharray="10.0 4.0" fill="none" marker-end="url(#ProcessOnMarker1017)"/><g id="ProcessOnG1019" transform="matrix(1.0,0.0,0.0,1.0,481.0,229.54923461417476)"><path id="ProcessOnPath1020" d="M0 0H50.0V16.25H0Z" fill="#fff" transform="matrix(1.0,0.0,0.0,1.0,-25.0,0.0)"/><text id="ProcessOnText1021" fill="#66ffff" font-size="13" x="0.0" y="13.325" font-family="微软雅黑" font-weight="bold" font-style="normal" text-decoration="none" family="微软雅黑" text-anchor="middle" size="13">CIP/VIP</text></g></g><g id="ProcessOnG1022" transform="matrix(1.0,0.0,0.0,1.0,239.0,349.0)" opacity="1.0"><path id="ProcessOnPath1023" d="M0.0 0.0L100.0 0.0L100.0 32.0L0.0 32.0Z" stroke="#323232" stroke-width="2.0" stroke-dasharray="none" opacity="1.0" fill="#ffffff"/><g id="ProcessOnG1024" transform="matrix(1.0,0.0,0.0,1.0,10.0,7.875)"><text id="ProcessOnText1025" fill="#000000" font-size="13" x="39.0" y="13.325" font-family="微软雅黑" font-weight="normal" font-style="normal" text-decoration="none" family="微软雅黑" text-anchor="middle" size="13">Real Server</text></g></g><g id="ProcessOnG1026" transform="matrix(1.0,0.0,0.0,1.0,764.0,349.0)" opacity="1.0"><path id="ProcessOnPath1027" d="M0.0 0.0L100.0 0.0L100.0 32.0L0.0 32.0Z" stroke="#323232" stroke-width="2.0" stroke-dasharray="none" opacity="1.0" fill="#ffffff"/><g id="ProcessOnG1028" transform="matrix(1.0,0.0,0.0,1.0,10.0,7.875)"><text id="ProcessOnText1029" fill="#000000" font-size="13" x="39.0" y="13.325" font-family="微软雅黑" font-weight="normal" font-style="normal" text-decoration="none" family="微软雅黑" text-anchor="middle" size="13">Real Server</text></g></g><g id="ProcessOnG1030"><path id="ProcessOnPath1031" d="M611.0 425.0L687.5 425.0L687.5 365.0L764.0 365.0" stroke="#66ffff" stroke-width="2.0" stroke-dasharray="10.0 4.0" fill="none" marker-end="url(#ProcessOnMarker1032)"/><g id="ProcessOnG1034" transform="matrix(1.0,0.0,0.0,1.0,687.5,386.875)"><path id="ProcessOnPath1035" d="M0 0H50.0V16.25H0Z" fill="#fff" transform="matrix(1.0,0.0,0.0,1.0,-25.0,0.0)"/><text id="ProcessOnText1036" fill="#66ffff" font-size="13" x="0.0" y="13.325" font-family="微软雅黑" font-weight="bold" font-style="normal" text-decoration="none" family="微软雅黑" text-anchor="middle" size="13">CIP/VIP</text></g></g><g id="ProcessOnG1037" transform="matrix(1.0,0.0,0.0,1.0,39.0,58.0)" opacity="1.0"><path id="ProcessOnPath1038" d="M0.0 0.0L162.0 0.0L162.0 32.0L0.0 32.0Z" stroke="none" stroke-width="0.0" stroke-dasharray="none" opacity="1.0" fill="none"/><g id="ProcessOnG1039" transform="matrix(1.0,0.0,0.0,1.0,0.0,3.5)"><text id="ProcessOnText1040" fill="#66ffff" font-size="20" x="0.0" y="20.5" font-family="微软雅黑" font-weight="bold" font-style="normal" text-decoration="none" family="微软雅黑" text-anchor="start" size="20">Request path</text></g></g><g id="ProcessOnG1041" transform="matrix(1.0,0.0,0.0,1.0,39.0,90.0)" opacity="1.0"><path id="ProcessOnPath1042" d="M0.0 0.0L162.0 0.0L162.0 32.0L0.0 32.0Z" stroke="none" stroke-width="0.0" stroke-dasharray="none" opacity="1.0" fill="none"/><g id="ProcessOnG1043" transform="matrix(1.0,0.0,0.0,1.0,0.0,3.5)"><text id="ProcessOnText1044" fill="#ffb366" font-size="20" x="0.0" y="20.5" font-family="微软雅黑" font-weight="bold" font-style="normal" text-decoration="none" family="微软雅黑" text-anchor="start" size="20">Response path</text></g></g><g id="ProcessOnG1045" transform="matrix(1.0,0.0,0.0,1.0,511.0,166.0)" opacity="1.0"><path id="ProcessOnPath1046" d="M0.0 0.0L100.0 0.0L100.0 32.0L0.0 32.0Z" stroke="#323232" stroke-width="2.0" stroke-dasharray="none" opacity="1.0" fill="#66b2ff"/><g id="ProcessOnG1047" transform="matrix(1.0,0.0,0.0,1.0,10.0,7.875)"><text id="ProcessOnText1048" fill="#000000" font-size="13" x="39.0" y="13.325" font-family="微软雅黑" font-weight="normal" font-style="normal" text-decoration="none" family="微软雅黑" text-anchor="middle" size="13">Router</text></g></g><g id="ProcessOnG1049" transform="matrix(1.0,0.0,0.0,1.0,511.0,260.0)" opacity="1.0"><path id="ProcessOnPath1050" d="M0.0 0.0L100.0 0.0L100.0 32.0L0.0 32.0Z" stroke="#323232" stroke-width="2.0" stroke-dasharray="none" opacity="1.0" fill="#66b2ff"/><g id="ProcessOnG1051" transform="matrix(1.0,0.0,0.0,1.0,10.0,7.875)"><text id="ProcessOnText1052" fill="#000000" font-size="13" x="39.0" y="13.325" font-family="微软雅黑" font-weight="normal" font-style="normal" text-decoration="none" family="微软雅黑" text-anchor="middle" size="13">switch</text></g></g><g id="ProcessOnG1053"><path id="ProcessOnPath1054" d="M561.0 78.0L561.0 122.0L561.0 122.0L561.0 166.0" stroke="#323232" stroke-width="2.0" stroke-dasharray="none" fill="none" marker-end="url(#ProcessOnMarker1055)"/></g><g id="ProcessOnG1057"><path id="ProcessOnPath1058" d="M561.0 198.0L561.0 229.0L561.0 229.0L561.0 260.0" stroke="#323232" stroke-width="2.0" stroke-dasharray="none" fill="none" marker-end="url(#ProcessOnMarker1059)"/></g><g id="ProcessOnG1061"><path id="ProcessOnPath1062" d="M561.0 292.0L561.0 350.5L561.0 350.5L561.0 409.0" stroke="#323232" stroke-width="2.0" stroke-dasharray="none" fill="none" marker-end="url(#ProcessOnMarker1063)"/></g><g id="ProcessOnG1065"><path id="ProcessOnPath1066" d="M511.0 276.0L289.0 276.0L289.0 349.0" stroke="#323232" stroke-width="2.0" stroke-dasharray="none" fill="none" marker-end="url(#ProcessOnMarker1067)"/></g><g id="ProcessOnG1069"><path id="ProcessOnPath1070" d="M611.0 276.0L814.0 276.0L814.0 349.0" stroke="#323232" stroke-width="2.0" stroke-dasharray="none" fill="none" marker-end="url(#ProcessOnMarker1071)"/></g><g id="ProcessOnG1073"><path id="ProcessOnPath1074" d="M511.0 425.0L425.0 425.0L425.0 365.0L339.0 365.0" stroke="#66ffff" stroke-width="2.0" stroke-dasharray="10.0 4.0" fill="none" marker-end="url(#ProcessOnMarker1075)"/><g id="ProcessOnG1077" transform="matrix(1.0,0.0,0.0,1.0,425.0,386.875)"><path id="ProcessOnPath1078" d="M0 0H50.0V16.25H0Z" fill="#fff" transform="matrix(1.0,0.0,0.0,1.0,-25.0,0.0)"/><text id="ProcessOnText1079" fill="#66ffff" font-size="13" x="0.0" y="13.325" font-family="微软雅黑" font-weight="bold" font-style="normal" text-decoration="none" family="微软雅黑" text-anchor="middle" size="13">CIP/VIP</text></g></g><g id="ProcessOnG1080"><path id="ProcessOnPath1081" d="M864.0 365.0L894.0 365.0L894.0 53.0L611.0 53.0" stroke="#ffb366" stroke-width="2.0" stroke-dasharray="10.0 4.0" fill="none" marker-end="url(#ProcessOnMarker1082)"/><g id="ProcessOnG1084" transform="matrix(1.0,0.0,0.0,1.0,894.0,74.375)"><path id="ProcessOnPath1085" d="M0 0H48.0V16.25H0Z" fill="#fff" transform="matrix(1.0,0.0,0.0,1.0,-24.0,0.0)"/><text id="ProcessOnText1086" fill="#ffb366" font-size="13" x="0.0" y="13.325" font-family="微软雅黑" font-weight="normal" font-style="normal" text-decoration="none" family="微软雅黑" text-anchor="middle" size="13">VIP/CIP</text></g></g><g id="ProcessOnG1087"><path id="ProcessOnPath1088" d="M239.0 365.0L209.0 365.0L209.0 53.0L511.0 53.0" stroke="#ffb366" stroke-width="2.0" stroke-dasharray="10.0 4.0" fill="none" marker-end="url(#ProcessOnMarker1089)"/><g id="ProcessOnG1091" transform="matrix(1.0,0.0,0.0,1.0,209.0,64.875)"><path id="ProcessOnPath1092" d="M0 0H50.0V16.25H0Z" fill="#fff" transform="matrix(1.0,0.0,0.0,1.0,-25.0,0.0)"/><text id="ProcessOnText1093" fill="#ffb366" font-size="13" x="0.0" y="13.325" font-family="微软雅黑" font-weight="bold" font-style="normal" text-decoration="none" family="微软雅黑" text-anchor="middle" size="13">VIP/CIP</text></g></g><g id="ProcessOnG1094" transform="matrix(1.0,0.0,0.0,1.0,511.0,448.0)" opacity="1.0"><path id="ProcessOnPath1095" d="M0.0 0.0L158.0 0.0L158.0 36.0L0.0 36.0Z" stroke="none" stroke-width="0.0" stroke-dasharray="none" opacity="1.0" fill="none"/><g id="ProcessOnG1096" transform="matrix(1.0,0.0,0.0,1.0,0.0,0.0)"><text id="ProcessOnText1097" fill="#66b2ff" font-size="13" x="0.0" y="13.325" font-family="微软雅黑" font-weight="normal" font-style="normal" text-decoration="none" family="微软雅黑" text-anchor="start" size="13"> eth0   192.168.1.2</text><text id="ProcessOnText1098" fill="#66b2ff" font-size="13" x="0.0" y="29.575" font-family="微软雅黑" font-weight="normal" font-style="normal" text-decoration="none" family="微软雅黑" text-anchor="start" size="13"> eth0:1  192.168.1.100</text></g></g><g id="ProcessOnG1099" transform="matrix(1.0,0.0,0.0,1.0,764.0,395.0)" opacity="1.0"><path id="ProcessOnPath1100" d="M0.0 0.0L158.0 0.0L158.0 36.0L0.0 36.0Z" stroke="none" stroke-width="0.0" stroke-dasharray="none" opacity="1.0" fill="none"/><g id="ProcessOnG1101" transform="matrix(1.0,0.0,0.0,1.0,0.0,0.0)"><text id="ProcessOnText1102" fill="#66b2ff" font-size="13" x="0.0" y="13.325" font-family="微软雅黑" font-weight="normal" font-style="normal" text-decoration="none" family="微软雅黑" text-anchor="start" size="13"> eth0   192.168.1.4</text><text id="ProcessOnText1103" fill="#66b2ff" font-size="13" x="0.0" y="29.575" font-family="微软雅黑" font-weight="normal" font-style="normal" text-decoration="none" family="微软雅黑" text-anchor="start" size="13"> lo0     192.168.1.100</text></g></g><g id="ProcessOnG1104" transform="matrix(1.0,0.0,0.0,1.0,239.0,395.0)" opacity="1.0"><path id="ProcessOnPath1105" d="M0.0 0.0L158.0 0.0L158.0 36.0L0.0 36.0Z" stroke="none" stroke-width="0.0" stroke-dasharray="none" opacity="1.0" fill="none"/><g id="ProcessOnG1106" transform="matrix(1.0,0.0,0.0,1.0,0.0,0.0)"><text id="ProcessOnText1107" fill="#66b2ff" font-size="13" x="0.0" y="13.325" font-family="微软雅黑" font-weight="normal" font-style="normal" text-decoration="none" family="微软雅黑" text-anchor="start" size="13"> eth0   192.168.1.3</text><text id="ProcessOnText1108" fill="#66b2ff" font-size="13" x="0.0" y="29.575" font-family="微软雅黑" font-weight="normal" font-style="normal" text-decoration="none" family="微软雅黑" text-anchor="start" size="13"> lo0     192.168.1.100</text></g></g><g id="ProcessOnG1109"><path id="ProcessOnPath1110" d="M590.0 409.0L590.0 350.5L590.0 350.5L590.0 292.0" stroke="#ff6666" stroke-width="2.0" stroke-dasharray="10.0 4.0" fill="none" marker-end="url(#ProcessOnMarker1111)"/><g id="ProcessOnG1113" transform="matrix(1.0,0.0,0.0,1.0,590.0,342.375)"><path id="ProcessOnPath1114" d="M0 0H31.0V16.25H0Z" fill="#fff" transform="matrix(1.0,0.0,0.0,1.0,-15.5,0.0)"/><text id="ProcessOnText1115" fill="#ff6666" font-size="13" x="0.0" y="13.325" font-family="微软雅黑" font-weight="normal" font-style="normal" text-decoration="none" family="微软雅黑" text-anchor="middle" size="13">MAC</text></g></g><g id="ProcessOnG1116"><path id="ProcessOnPath1117" d="M610.1206147584282 286.31595971334866L789.0 286.31595971334866L789.0 349.0" stroke="#ff6666" stroke-width="2.0" stroke-dasharray="10.0 4.0" fill="none" marker-end="url(#ProcessOnMarker1118)"/></g><g id="ProcessOnG1120" transform="matrix(1.0,0.0,0.0,1.0,39.0,122.0)" opacity="1.0"><path id="ProcessOnPath1121" d="M0.0 0.0L162.0 0.0L162.0 32.0L0.0 32.0Z" stroke="none" stroke-width="0.0" stroke-dasharray="none" opacity="1.0" fill="none"/><g id="ProcessOnG1122" transform="matrix(1.0,0.0,0.0,1.0,0.0,3.5)"><text id="ProcessOnText1123" fill="#ff6666" font-size="20" x="0.0" y="20.5" font-family="微软雅黑" font-weight="bold" font-style="normal" text-decoration="none" family="微软雅黑" text-anchor="start" size="20">Internal path</text></g></g><g id="ProcessOnG1124"><path id="ProcessOnPath1125" d="M511.86370330515626 286.96472381958995L316.0 286.96472381958995L316.0 349.0" stroke="#ff6666" stroke-width="2.0" stroke-dasharray="10.0 4.0" fill="none" marker-end="url(#ProcessOnMarker1126)"/></g><g id="ProcessOnG1128" transform="matrix(1.0,0.0,0.0,1.0,248.0,621.0)" opacity="1.0"><path id="ProcessOnPath1129" d="M0.0 0.0L370.0 0.0L370.0 72.0L0.0 72.0Z" stroke="none" stroke-width="0.0" stroke-dasharray="none" opacity="1.0" fill="none"/><g id="ProcessOnG1130" transform="matrix(1.0,0.0,0.0,1.0,0.0,0.0)"><text id="ProcessOnText1131" fill="#ff6666" font-size="18" x="0.0" y="18.45" font-family="微软雅黑" font-weight="bold" font-style="normal" text-decoration="none" family="微软雅黑" text-anchor="start" size="18"> 不支持端口映射</text><text id="ProcessOnText1132" fill="#ff6666" font-size="18" x="0.0" y="40.95" font-family="微软雅黑" font-weight="bold" font-style="normal" text-decoration="none" family="微软雅黑" text-anchor="start" size="18"> 不能跨局域网</text></g></g></g></g></svg>