<svg xmlns="http://www.w3.org/2000/svg" xmlns:xlink="http://www.w3.org/1999/xlink" id="processonSvg1000" viewBox="14.75 14.0 1166.9874362094304 960.0" width="1166.9874362094304" height="960.0"><defs id="ProcessOnDefs1001"><marker id="ProcessOnMarker1057" markerUnits="userSpaceOnUse" orient="auto" markerWidth="14.289086868996552" markerHeight="19.055054660878554" viewBox="-0.5877852522924731 -0.8090169943749475 14.289086868996552 19.055054660878554" refX="12.0" refY="8.71851033606433"><path id="ProcessOnPath1058" d="M0 0L12.0 8.71851033606433L0 17.43702067212866" stroke="#323232" stroke-width="2.0" fill="none" transform="matrix(1.0,0.0,0.0,1.0,0.0,0.0)"/></marker><marker id="ProcessOnMarker1063" markerUnits="userSpaceOnUse" orient="auto" markerWidth="14.289086868996552" markerHeight="19.055054660878554" viewBox="-0.5877852522924731 -0.8090169943749475 14.289086868996552 19.055054660878554" refX="12.0" refY="8.71851033606433"><path id="ProcessOnPath1064" d="M0 0L12.0 8.71851033606433L0 17.43702067212866" stroke="#323232" stroke-width="2.0" fill="none" transform="matrix(1.0,0.0,0.0,1.0,0.0,0.0)"/></marker><marker id="ProcessOnMarker1082" markerUnits="userSpaceOnUse" orient="auto" markerWidth="14.289086868996552" markerHeight="19.055054660878554" viewBox="-0.5877852522924731 -0.8090169943749475 14.289086868996552 19.055054660878554" refX="12.0" refY="8.71851033606433"><path id="ProcessOnPath1083" d="M0 0L12.0 8.71851033606433L0 17.43702067212866" stroke="#323232" stroke-width="2.0" fill="none" transform="matrix(1.0,0.0,0.0,1.0,0.0,0.0)"/></marker><marker id="ProcessOnMarker1086" markerUnits="userSpaceOnUse" orient="auto" markerWidth="14.289086868996552" markerHeight="19.055054660878554" viewBox="-0.5877852522924731 -0.8090169943749475 14.289086868996552 19.055054660878554" refX="12.0" refY="8.71851033606433"><path id="ProcessOnPath1087" d="M0 0L12.0 8.71851033606433L0 17.43702067212866" stroke="#323232" stroke-width="2.0" fill="none" transform="matrix(1.0,0.0,0.0,1.0,0.0,0.0)"/></marker><marker id="ProcessOnMarker1093" markerUnits="userSpaceOnUse" orient="auto" markerWidth="14.289086868996552" markerHeight="19.055054660878554" viewBox="-0.5877852522924731 -0.8090169943749475 14.289086868996552 19.055054660878554" refX="12.0" refY="8.71851033606433"><path id="ProcessOnPath1094" d="M0 0L12.0 8.71851033606433L0 17.43702067212866" stroke="#323232" stroke-width="2.0" fill="none" transform="matrix(1.0,0.0,0.0,1.0,0.0,0.0)"/></marker><marker id="ProcessOnMarker1100" markerUnits="userSpaceOnUse" orient="auto" markerWidth="14.289086868996552" markerHeight="19.055054660878554" viewBox="-0.5877852522924731 -0.8090169943749475 14.289086868996552 19.055054660878554" refX="12.0" refY="8.71851033606433"><path id="ProcessOnPath1101" d="M0 0L12.0 8.71851033606433L0 17.43702067212866" stroke="#323232" stroke-width="2.0" fill="none" transform="matrix(1.0,0.0,0.0,1.0,0.0,0.0)"/></marker><marker id="ProcessOnMarker1115" markerUnits="userSpaceOnUse" orient="auto" markerWidth="14.289086868996552" markerHeight="19.055054660878554" viewBox="-0.5877852522924731 -0.8090169943749475 14.289086868996552 19.055054660878554" refX="12.0" refY="8.71851033606433"><path id="ProcessOnPath1116" d="M0 0L12.0 8.71851033606433L0 17.43702067212866" stroke="#323232" stroke-width="2.0" fill="none" transform="matrix(1.0,0.0,0.0,1.0,0.0,0.0)"/></marker><marker id="ProcessOnMarker1122" markerUnits="userSpaceOnUse" orient="auto" markerWidth="14.289086868996552" markerHeight="19.055054660878554" viewBox="-0.5877852522924731 -0.8090169943749475 14.289086868996552 19.055054660878554" refX="12.0" refY="8.71851033606433"><path id="ProcessOnPath1123" d="M0 0L12.0 8.71851033606433L0 17.43702067212866" stroke="#323232" stroke-width="2.0" fill="none" transform="matrix(1.0,0.0,0.0,1.0,0.0,0.0)"/></marker><marker id="ProcessOnMarker1128" markerUnits="userSpaceOnUse" orient="auto" markerWidth="14.289086868996552" markerHeight="19.055054660878554" viewBox="-0.5877852522924731 -0.8090169943749475 14.289086868996552 19.055054660878554" refX="12.0" refY="8.71851033606433"><path id="ProcessOnPath1129" d="M0 0L12.0 8.71851033606433L0 17.43702067212866" stroke="#323232" stroke-width="2.0" fill="none" transform="matrix(1.0,0.0,0.0,1.0,0.0,0.0)"/></marker><marker id="ProcessOnMarker1132" markerUnits="userSpaceOnUse" orient="auto" markerWidth="14.289086868996552" markerHeight="19.055054660878554" viewBox="-0.5877852522924731 -0.8090169943749475 14.289086868996552 19.055054660878554" refX="12.0" refY="8.71851033606433"><path id="ProcessOnPath1133" d="M0 0L12.0 8.71851033606433L0 17.43702067212866" stroke="#323232" stroke-width="2.0" fill="none" transform="matrix(1.0,0.0,0.0,1.0,0.0,0.0)"/></marker><marker id="ProcessOnMarker1139" markerUnits="userSpaceOnUse" orient="auto" markerWidth="14.289086868996552" markerHeight="19.055054660878554" viewBox="-0.5877852522924731 -0.8090169943749475 14.289086868996552 19.055054660878554" refX="12.0" refY="8.71851033606433"><path id="ProcessOnPath1140" d="M0 0L12.0 8.71851033606433L0 17.43702067212866" stroke="#323232" stroke-width="2.0" fill="none" transform="matrix(1.0,0.0,0.0,1.0,0.0,0.0)"/></marker><marker id="ProcessOnMarker1162" markerUnits="userSpaceOnUse" orient="auto" markerWidth="14.289086868996552" markerHeight="19.055054660878554" viewBox="-0.5877852522924731 -0.8090169943749475 14.289086868996552 19.055054660878554" refX="12.0" refY="8.71851033606433"><path id="ProcessOnPath1163" d="M0 0L12.0 8.71851033606433L0 17.43702067212866" stroke="#323232" stroke-width="2.0" fill="none" transform="matrix(1.0,0.0,0.0,1.0,0.0,0.0)"/></marker><marker id="ProcessOnMarker1182" markerUnits="userSpaceOnUse" orient="auto" markerWidth="14.289086868996552" markerHeight="19.055054660878554" viewBox="-0.5877852522924731 -0.8090169943749475 14.289086868996552 19.055054660878554" refX="12.0" refY="8.71851033606433"><path id="ProcessOnPath1183" d="M0 0L12.0 8.71851033606433L0 17.43702067212866" stroke="#323232" stroke-width="2.0" fill="none" transform="matrix(1.0,0.0,0.0,1.0,0.0,0.0)"/></marker><marker id="ProcessOnMarker1186" markerUnits="userSpaceOnUse" orient="auto" markerWidth="14.289086868996552" markerHeight="19.055054660878554" viewBox="-0.5877852522924731 -0.8090169943749475 14.289086868996552 19.055054660878554" refX="12.0" refY="8.71851033606433"><path id="ProcessOnPath1187" d="M0 0L12.0 8.71851033606433L0 17.43702067212866" stroke="#323232" stroke-width="2.0" fill="none" transform="matrix(1.0,0.0,0.0,1.0,0.0,0.0)"/></marker><marker id="ProcessOnMarker1207" markerUnits="userSpaceOnUse" orient="auto" markerWidth="14.289086868996552" markerHeight="19.055054660878554" viewBox="-0.5877852522924731 -0.8090169943749475 14.289086868996552 19.055054660878554" refX="12.0" refY="8.71851033606433"><path id="ProcessOnPath1208" d="M0 0L12.0 8.71851033606433L0 17.43702067212866" stroke="#323232" stroke-width="2.0" fill="none" transform="matrix(1.0,0.0,0.0,1.0,0.0,0.0)"/></marker><marker id="ProcessOnMarker1211" markerUnits="userSpaceOnUse" orient="auto" markerWidth="14.289086868996552" markerHeight="19.055054660878554" viewBox="-0.5877852522924731 -0.8090169943749475 14.289086868996552 19.055054660878554" refX="12.0" refY="8.71851033606433"><path id="ProcessOnPath1212" d="M0 0L12.0 8.71851033606433L0 17.43702067212866" stroke="#323232" stroke-width="2.0" fill="none" transform="matrix(1.0,0.0,0.0,1.0,0.0,0.0)"/></marker><marker id="ProcessOnMarker1222" markerUnits="userSpaceOnUse" orient="auto" markerWidth="14.289086868996552" markerHeight="19.055054660878554" viewBox="-0.5877852522924731 -0.8090169943749475 14.289086868996552 19.055054660878554" refX="12.0" refY="8.71851033606433"><path id="ProcessOnPath1223" d="M0 0L12.0 8.71851033606433L0 17.43702067212866" stroke="#323232" stroke-width="2.0" fill="none" transform="matrix(1.0,0.0,0.0,1.0,0.0,0.0)"/></marker><marker id="ProcessOnMarker1226" markerUnits="userSpaceOnUse" orient="auto" markerWidth="16.23606797749979" markerHeight="10.550836550532098" viewBox="-1.0 -1.3763819204711736 16.23606797749979 10.550836550532098" refX="-1.0" refY="3.8990363547948754"><path id="ProcessOnPath1227" d="M12.0 3.8990363547948754L0.0 7.798072709589751V0.0Z" stroke="#323232" stroke-width="2.0" fill="#fff" transform="matrix(1.0,0.0,0.0,1.0,0.0,0.0)"/></marker><marker id="ProcessOnMarker1238" markerUnits="userSpaceOnUse" orient="auto" markerWidth="14.289086868996552" markerHeight="19.055054660878554" viewBox="-0.5877852522924731 -0.8090169943749475 14.289086868996552 19.055054660878554" refX="12.0" refY="8.71851033606433"><path id="ProcessOnPath1239" d="M0 0L12.0 8.71851033606433L0 17.43702067212866" stroke="#323232" stroke-width="2.0" fill="none" transform="matrix(1.0,0.0,0.0,1.0,0.0,0.0)"/></marker><marker id="ProcessOnMarker1242" markerUnits="userSpaceOnUse" orient="auto" markerWidth="14.289086868996552" markerHeight="19.055054660878554" viewBox="-0.5877852522924731 -0.8090169943749475 14.289086868996552 19.055054660878554" refX="12.0" refY="8.71851033606433"><path id="ProcessOnPath1243" d="M0 0L12.0 8.71851033606433L0 17.43702067212866" stroke="#66ffff" stroke-width="2.0" fill="none" transform="matrix(1.0,0.0,0.0,1.0,0.0,0.0)"/></marker><marker id="ProcessOnMarker1249" markerUnits="userSpaceOnUse" orient="auto" markerWidth="14.289086868996552" markerHeight="19.055054660878554" viewBox="-0.5877852522924731 -0.8090169943749475 14.289086868996552 19.055054660878554" refX="12.0" refY="8.71851033606433"><path id="ProcessOnPath1250" d="M0 0L12.0 8.71851033606433L0 17.43702067212866" stroke="#ff6666" stroke-width="2.0" fill="none" transform="matrix(1.0,0.0,0.0,1.0,0.0,0.0)"/></marker><marker id="ProcessOnMarker1256" markerUnits="userSpaceOnUse" orient="auto" markerWidth="14.289086868996552" markerHeight="19.055054660878554" viewBox="-0.5877852522924731 -0.8090169943749475 14.289086868996552 19.055054660878554" refX="12.0" refY="8.71851033606433"><path id="ProcessOnPath1257" d="M0 0L12.0 8.71851033606433L0 17.43702067212866" stroke="#323232" stroke-width="2.0" fill="none" transform="matrix(1.0,0.0,0.0,1.0,0.0,0.0)"/></marker><marker id="ProcessOnMarker1267" markerUnits="userSpaceOnUse" orient="auto" markerWidth="14.289086868996552" markerHeight="19.055054660878554" viewBox="-0.5877852522924731 -0.8090169943749475 14.289086868996552 19.055054660878554" refX="1.1135163644116066" refY="8.71851033606433"><path id="ProcessOnPath1268" d="M0 0L12.0 8.71851033606433L0 17.43702067212866" stroke="#323232" stroke-width="2.0" fill="none" transform="matrix(-1.0,1.2246467991473532E-16,-1.2246467991473532E-16,-1.0,13.113516364411606,17.43702067212866)"/></marker></defs><g id="ProcessOnG1002"><path id="ProcessOnPath1003" d="M14.75 14.0H1181.7374362094304V974.0H14.75V14.0Z" fill="none"/><g id="ProcessOnG1004"><g id="ProcessOnG1005" transform="matrix(1.0,0.0,0.0,1.0,132.25,121.5)" opacity="1.0"><path id="ProcessOnPath1006" d="M0.0 0.0L143.5 0.0L143.5 20.0L0.0 20.0Z" stroke="none" stroke-width="0.0" stroke-dasharray="none" opacity="1.0" fill="none"/><g id="ProcessOnG1007" transform="matrix(1.0,0.0,0.0,1.0,0.0,1.875)"><text id="ProcessOnText1008" fill="#000000" font-size="13" x="0.0" y="13.325" font-family="微软雅黑" font-weight="normal" font-style="normal" text-decoration="none" family="微软雅黑" text-anchor="start" size="13">ServiceChangeTracker</text></g></g><g id="ProcessOnG1009" transform="matrix(1.0,0.0,0.0,1.0,132.25,141.5)" opacity="1.0"><path id="ProcessOnPath1010" d="M0.0 0.0L136.0 0.0L136.0 32.0L0.0 32.0Z" stroke="#323232" stroke-width="2.0" stroke-dasharray="none" opacity="1.0" fill="#ffffff"/><g id="ProcessOnG1011" transform="matrix(1.0,0.0,0.0,1.0,10.0,7.875)"><text id="ProcessOnText1012" fill="#000000" font-size="13" x="57.0" y="13.325" font-family="微软雅黑" font-weight="normal" font-style="normal" text-decoration="none" family="微软雅黑" text-anchor="middle" size="13">items</text></g></g><g id="ProcessOnG1013" transform="matrix(1.0,0.0,0.0,1.0,852.6374362094305,275.0)" opacity="1.0"><path id="ProcessOnPath1014" d="M0.0 0.0L291.25 0.0L291.25 53.0L0.0 53.0Z" stroke="#323232" stroke-width="2.0" stroke-dasharray="none" opacity="1.0" fill="#ffffcc"/></g><g id="ProcessOnG1015" transform="matrix(1.0,0.0,0.0,1.0,881.1374362094305,285.5)" opacity="1.0"><path id="ProcessOnPath1016" d="M0.0 0.0L98.0 0.0L98.0 32.0L0.0 32.0Z" stroke="#323232" stroke-width="2.0" stroke-dasharray="none" opacity="1.0" fill="#ffffff"/><g id="ProcessOnG1017" transform="matrix(1.0,0.0,0.0,1.0,10.0,7.875)"><text id="ProcessOnText1018" fill="#000000" font-size="13" x="38.0" y="13.325" font-family="微软雅黑" font-weight="normal" font-style="italic" text-decoration="none" family="微软雅黑" text-anchor="middle" size="13">key</text></g></g><g id="ProcessOnG1019" transform="matrix(1.0,0.0,0.0,1.0,1032.1374362094305,285.5)" opacity="1.0"><path id="ProcessOnPath1020" d="M0.0 0.0L98.0 0.0L98.0 32.0L0.0 32.0Z" stroke="#323232" stroke-width="2.0" stroke-dasharray="none" opacity="1.0" fill="#ffffff"/><g id="ProcessOnG1021" transform="matrix(1.0,0.0,0.0,1.0,10.0,7.875)"><text id="ProcessOnText1022" fill="#000000" font-size="13" x="38.0" y="13.325" font-family="微软雅黑" font-weight="normal" font-style="italic" text-decoration="none" family="微软雅黑" text-anchor="middle" size="13">value</text></g></g><g id="ProcessOnG1023" transform="matrix(1.0,0.0,0.0,1.0,387.63743620943046,246.5)" opacity="1.0"><path id="ProcessOnPath1024" d="M0.0 0.0L98.0 0.0L98.0 32.0L0.0 32.0Z" stroke="#323232" stroke-width="2.0" stroke-dasharray="none" opacity="1.0" fill="#ffffff"/><g id="ProcessOnG1025" transform="matrix(1.0,0.0,0.0,1.0,10.0,7.875)"><text id="ProcessOnText1026" fill="#000000" font-size="13" x="38.0" y="13.325" font-family="微软雅黑" font-weight="normal" font-style="normal" text-decoration="none" family="微软雅黑" text-anchor="middle" size="13">Namespace</text></g></g><g id="ProcessOnG1027" transform="matrix(1.0,0.0,0.0,1.0,387.63743620943046,226.5)" opacity="1.0"><path id="ProcessOnPath1028" d="M0.0 0.0L122.0 0.0L122.0 20.0L0.0 20.0Z" stroke="none" stroke-width="0.0" stroke-dasharray="none" opacity="1.0" fill="none"/><g id="ProcessOnG1029" transform="matrix(1.0,0.0,0.0,1.0,0.0,1.875)"><text id="ProcessOnText1030" fill="#000000" font-size="13" x="0.0" y="13.325" font-family="微软雅黑" font-weight="normal" font-style="normal" text-decoration="none" family="微软雅黑" text-anchor="start" size="13">NamespacedName</text></g></g><g id="ProcessOnG1031" transform="matrix(1.0,0.0,0.0,1.0,387.63743620943046,278.5)" opacity="1.0"><path id="ProcessOnPath1032" d="M0.0 0.0L98.0 0.0L98.0 32.0L0.0 32.0Z" stroke="#323232" stroke-width="2.0" stroke-dasharray="none" opacity="1.0" fill="#ffffff"/><g id="ProcessOnG1033" transform="matrix(1.0,0.0,0.0,1.0,10.0,7.875)"><text id="ProcessOnText1034" fill="#000000" font-size="13" x="38.0" y="13.325" font-family="微软雅黑" font-weight="normal" font-style="normal" text-decoration="none" family="微软雅黑" text-anchor="middle" size="13">Name</text></g></g><g id="ProcessOnG1035" transform="matrix(1.0,0.0,0.0,1.0,852.6374362094305,255.0)" opacity="1.0"><path id="ProcessOnPath1036" d="M0.0 0.0L83.25 0.0L83.25 20.0L0.0 20.0Z" stroke="none" stroke-width="0.0" stroke-dasharray="none" opacity="1.0" fill="none"/><g id="ProcessOnG1037" transform="matrix(1.0,0.0,0.0,1.0,0.0,1.875)"><text id="ProcessOnText1038" fill="#000000" font-size="13" x="0.0" y="13.325" font-family="微软雅黑" font-weight="normal" font-style="normal" text-decoration="none" family="微软雅黑" text-anchor="start" size="13">ServiceMap</text></g></g><g id="ProcessOnG1039" transform="matrix(1.0,0.0,0.0,1.0,762.1374362094305,162.0)" opacity="1.0"><path id="ProcessOnPath1040" d="M0.0 0.0L98.0 0.0L98.0 32.0L0.0 32.0Z" stroke="#323232" stroke-width="2.0" stroke-dasharray="none" opacity="1.0" fill="#ffffff"/><g id="ProcessOnG1041" transform="matrix(1.0,0.0,0.0,1.0,10.0,7.875)"><text id="ProcessOnText1042" fill="#000000" font-size="13" x="38.0" y="13.325" font-family="微软雅黑" font-weight="normal" font-style="normal" text-decoration="none" family="微软雅黑" text-anchor="middle" size="13">previous</text></g></g><g id="ProcessOnG1043" transform="matrix(1.0,0.0,0.0,1.0,762.1374362094305,142.0)" opacity="1.0"><path id="ProcessOnPath1044" d="M0.0 0.0L122.0 0.0L122.0 20.0L0.0 20.0Z" stroke="none" stroke-width="0.0" stroke-dasharray="none" opacity="1.0" fill="none"/><g id="ProcessOnG1045" transform="matrix(1.0,0.0,0.0,1.0,0.0,1.875)"><text id="ProcessOnText1046" fill="#000000" font-size="13" x="0.0" y="13.325" font-family="微软雅黑" font-weight="normal" font-style="normal" text-decoration="none" family="微软雅黑" text-anchor="start" size="13">serviceChange</text></g></g><g id="ProcessOnG1047" transform="matrix(1.0,0.0,0.0,1.0,762.1374362094305,194.0)" opacity="1.0"><path id="ProcessOnPath1048" d="M0.0 0.0L98.0 0.0L98.0 32.0L0.0 32.0Z" stroke="#323232" stroke-width="2.0" stroke-dasharray="none" opacity="1.0" fill="#ffffff"/><g id="ProcessOnG1049" transform="matrix(1.0,0.0,0.0,1.0,10.0,7.875)"><text id="ProcessOnText1050" fill="#000000" font-size="13" x="38.0" y="13.325" font-family="微软雅黑" font-weight="normal" font-style="normal" text-decoration="none" family="微软雅黑" text-anchor="middle" size="13">current</text></g></g><g id="ProcessOnG1051" transform="matrix(1.0,0.0,0.0,1.0,1032.1374362094305,364.5)" opacity="1.0"><path id="ProcessOnPath1052" d="M0.0 0.0L98.0 0.0L98.0 32.0L0.0 32.0Z" stroke="#323232" stroke-width="2.0" stroke-dasharray="10.0 4.0" opacity="1.0" fill="#ffffff"/><g id="ProcessOnG1053" transform="matrix(1.0,0.0,0.0,1.0,10.0,7.875)"><text id="ProcessOnText1054" fill="#000000" font-size="13" x="38.0" y="13.325" font-family="微软雅黑" font-weight="normal" font-style="normal" text-decoration="none" family="微软雅黑" text-anchor="middle" size="13">ServicePort</text></g></g><g id="ProcessOnG1055"><path id="ProcessOnPath1056" d="M1130.1374362094305 301.5C1161.7374362094304 301.5 1161.7374362094304 380.5 1130.1374362094305 380.5" stroke="#323232" stroke-width="2.0" stroke-dasharray="none" fill="none" marker-end="url(#ProcessOnMarker1057)"/></g><g id="ProcessOnG1059" transform="matrix(1.0,0.0,0.0,1.0,613.7624362094305,376.0)" opacity="1.0"><path id="ProcessOnPath1060" d="M0.0 0.0L98.0 0.0L98.0 32.0L0.0 32.0Z" stroke="#323232" stroke-width="2.0" stroke-dasharray="none" opacity="1.0" fill="#ffffcc"/></g><g id="ProcessOnG1061"><path id="ProcessOnPath1062" d="M711.592911113762 407.7144247806269C788.3299290258144 472.1044282082744 949.0 428.1730625440147 949.0 328.0" stroke="#323232" stroke-width="2.0" stroke-dasharray="10.0 4.0" fill="none" marker-end="url(#ProcessOnMarker1063)"/><g id="ProcessOnG1065" transform="matrix(1.0,0.0,0.0,1.0,859.0728372739006,421.44336212968676)"><path id="ProcessOnPath1066" d="M0 0H44.0V16.25H0Z" fill="#fff" transform="matrix(1.0,0.0,0.0,1.0,-22.0,0.0)"/><text id="ProcessOnText1067" fill="#000000" font-size="13" x="0.0" y="13.325" font-family="微软雅黑" font-weight="normal" font-style="normal" text-decoration="none" family="微软雅黑" text-anchor="middle" size="13">type of</text></g></g><g id="ProcessOnG1068" transform="matrix(1.0,0.0,0.0,1.0,371.13743620943046,131.5)" opacity="1.0"><path id="ProcessOnPath1069" d="M0.0 0.0L291.25 0.0L291.25 53.0L0.0 53.0Z" stroke="#323232" stroke-width="2.0" stroke-dasharray="none" opacity="1.0" fill="#ffffcc"/></g><g id="ProcessOnG1070" transform="matrix(1.0,0.0,0.0,1.0,399.63743620943046,142.0)" opacity="1.0"><path id="ProcessOnPath1071" d="M0.0 0.0L98.0 0.0L98.0 32.0L0.0 32.0Z" stroke="#323232" stroke-width="2.0" stroke-dasharray="none" opacity="1.0" fill="#ffffff"/><g id="ProcessOnG1072" transform="matrix(1.0,0.0,0.0,1.0,10.0,7.875)"><text id="ProcessOnText1073" fill="#000000" font-size="13" x="38.0" y="13.325" font-family="微软雅黑" font-weight="normal" font-style="italic" text-decoration="none" family="微软雅黑" text-anchor="middle" size="13">key</text></g></g><g id="ProcessOnG1074" transform="matrix(1.0,0.0,0.0,1.0,550.6374362094305,142.0)" opacity="1.0"><path id="ProcessOnPath1075" d="M0.0 0.0L98.0 0.0L98.0 32.0L0.0 32.0Z" stroke="#323232" stroke-width="2.0" stroke-dasharray="none" opacity="1.0" fill="#ffffff"/><g id="ProcessOnG1076" transform="matrix(1.0,0.0,0.0,1.0,10.0,7.875)"><text id="ProcessOnText1077" fill="#000000" font-size="13" x="38.0" y="13.325" font-family="微软雅黑" font-weight="normal" font-style="italic" text-decoration="none" family="微软雅黑" text-anchor="middle" size="13">value</text></g></g><g id="ProcessOnG1078" transform="matrix(1.0,0.0,0.0,1.0,151.25,244.5)" opacity="1.0"><path id="ProcessOnPath1079" d="M0.0 0.0L98.0 0.0L98.0 32.0L0.0 32.0Z" stroke="#323232" stroke-width="2.0" stroke-dasharray="none" opacity="1.0" fill="#ffffcc"/></g><g id="ProcessOnG1080"><path id="ProcessOnPath1081" d="M132.25 157.5C90.35489288711628 157.5 109.35489288711628 260.5 151.25 260.5" stroke="#323232" stroke-width="2.0" stroke-dasharray="none" fill="none" marker-end="url(#ProcessOnMarker1082)"/></g><g id="ProcessOnG1084"><path id="ProcessOnPath1085" d="M249.25 260.5C312.9528063503742 260.5 307.43462985905626 158.0 371.13743620943046 158.0" stroke="#323232" stroke-width="2.0" stroke-dasharray="10.0 4.0" fill="none" marker-end="url(#ProcessOnMarker1086)"/><g id="ProcessOnG1088" transform="matrix(1.0,0.0,0.0,1.0,310.19371810471523,201.125)"><path id="ProcessOnPath1089" d="M0 0H44.0V16.25H0Z" fill="#fff" transform="matrix(1.0,0.0,0.0,1.0,-22.0,0.0)"/><text id="ProcessOnText1090" fill="#000000" font-size="13" x="0.0" y="13.325" font-family="微软雅黑" font-weight="normal" font-style="normal" text-decoration="none" family="微软雅黑" text-anchor="middle" size="13">type of</text></g></g><g id="ProcessOnG1091"><path id="ProcessOnPath1092" d="M399.63743620943046 158.0C362.9640815094175 158.0 356.70404480292905 230.66332264999355 388.46410161513774 249.0" stroke="#323232" stroke-width="2.0" stroke-dasharray="10.0 4.0" fill="none" marker-end="url(#ProcessOnMarker1093)"/><g id="ProcessOnG1095" transform="matrix(1.0,0.0,0.0,1.0,368.38823959520096,188.49874599374758)"><path id="ProcessOnPath1096" d="M0 0H44.0V16.25H0Z" fill="#fff" transform="matrix(1.0,0.0,0.0,1.0,-22.0,0.0)"/><text id="ProcessOnText1097" fill="#000000" font-size="13" x="0.0" y="13.325" font-family="微软雅黑" font-weight="normal" font-style="normal" text-decoration="none" family="微软雅黑" text-anchor="middle" size="13">type of</text></g></g><g id="ProcessOnG1098"><path id="ProcessOnPath1099" d="M648.6374362094305 158.0C694.1230403834761 158.0 724.9478304879776 137.63125856162978 762.2074561328669 163.72072930905313" stroke="#323232" stroke-width="2.0" stroke-dasharray="10.0 4.0" fill="none" marker-end="url(#ProcessOnMarker1100)"/><g id="ProcessOnG1102" transform="matrix(1.0,0.0,0.0,1.0,708.5071881195823,142.9518131242428)"><path id="ProcessOnPath1103" d="M0 0H44.0V16.25H0Z" fill="#fff" transform="matrix(1.0,0.0,0.0,1.0,-22.0,0.0)"/><text id="ProcessOnText1104" fill="#000000" font-size="13" x="0.0" y="13.325" font-family="微软雅黑" font-weight="normal" font-style="normal" text-decoration="none" family="微软雅黑" text-anchor="middle" size="13">type of</text></g></g><g id="ProcessOnG1105" transform="matrix(1.0,0.0,0.0,1.0,34.75,556.0)" opacity="1.0"><path id="ProcessOnPath1106" d="M0.0 4.0Q0.0 0.0 4.0 0.0L96.25 0.0Q100.25 0.0 100.25 4.0L100.25 28.0Q100.25 32.0 96.25 32.0L4.0 32.0Q0.0 32.0 0.0 28.0Z" stroke="#323232" stroke-width="2.0" stroke-dasharray="none" opacity="1.0" fill="#ffffff"/><g id="ProcessOnG1107" transform="matrix(1.0,0.0,0.0,1.0,10.0,7.875)"><text id="ProcessOnText1108" fill="#000000" font-size="13" x="39.125" y="13.325" font-family="微软雅黑" font-weight="normal" font-style="normal" text-decoration="none" family="微软雅黑" text-anchor="middle" size="13">api.Service</text></g></g><g id="ProcessOnG1109" transform="matrix(1.0,0.0,0.0,1.0,235.13743620943046,556.0)" opacity="1.0"><path id="ProcessOnPath1110" d="M0.0 4.0Q0.0 0.0 4.0 0.0L141.86256379056954 0.0Q145.86256379056954 0.0 145.86256379056954 4.0L145.86256379056954 28.0Q145.86256379056954 32.0 141.86256379056954 32.0L4.0 32.0Q0.0 32.0 0.0 28.0Z" stroke="#323232" stroke-width="2.0" stroke-dasharray="none" opacity="1.0" fill="#ffffff"/><g id="ProcessOnG1111" transform="matrix(1.0,0.0,0.0,1.0,10.0,7.875)"><text id="ProcessOnText1112" fill="#000000" font-size="13" x="61.93128189528477" y="13.325" font-family="微软雅黑" font-weight="normal" font-style="normal" text-decoration="none" family="微软雅黑" text-anchor="middle" size="13">NamespacedName</text></g></g><g id="ProcessOnG1113"><path id="ProcessOnPath1114" d="M135.0 572.0C175.05497448377218 572.0 195.08246172565828 572.0 235.13743620943046 572.0" stroke="#323232" stroke-width="2.0" stroke-dasharray="10.0 4.0" fill="none" marker-end="url(#ProcessOnMarker1115)"/><g id="ProcessOnG1117" transform="matrix(1.0,0.0,0.0,1.0,185.06871810471523,563.875)"><path id="ProcessOnPath1118" d="M0 0H66.0V16.25H0Z" fill="#fff" transform="matrix(1.0,0.0,0.0,1.0,-33.0,0.0)"/><text id="ProcessOnText1119" fill="#000000" font-size="13" x="0.0" y="13.325" font-family="微软雅黑" font-weight="bold" font-style="normal" text-decoration="none" family="微软雅黑" text-anchor="middle" size="13">generates</text></g></g><g id="ProcessOnG1120"><path id="ProcessOnPath1121" d="M762.1374362094305 178.0C674.1977836060685 178.0 799.7020888127925 392.0 711.7624362094305 392.0" stroke="#323232" stroke-width="2.0" stroke-dasharray="none" fill="none" marker-end="url(#ProcessOnMarker1122)"/></g><g id="ProcessOnG1124" transform="matrix(1.0,0.0,0.0,1.0,716.0,480.5)" opacity="1.0"><path id="ProcessOnPath1125" d="M0.0 0.0L98.0 0.0L98.0 32.0L0.0 32.0Z" stroke="#323232" stroke-width="2.0" stroke-dasharray="none" opacity="1.0" fill="#ffffcc"/></g><g id="ProcessOnG1126"><path id="ProcessOnPath1127" d="M762.1374362094305 210.0C645.674926861276 210.0 930.4625093481544 496.5 814.0 496.5" stroke="#323232" stroke-width="2.0" stroke-dasharray="none" fill="none" marker-end="url(#ProcessOnMarker1128)"/></g><g id="ProcessOnG1130"><path id="ProcessOnPath1131" d="M813.3572123903134 512.233955556881C880.4697021541607 592.2155063408882 998.2624362094305 432.4084994055427 998.2624362094305 328.0" stroke="#323232" stroke-width="2.0" stroke-dasharray="10.0 4.0" fill="none" marker-end="url(#ProcessOnMarker1132)"/><g id="ProcessOnG1134" transform="matrix(1.0,0.0,0.0,1.0,930.9770079613147,481.1382465995217)"><path id="ProcessOnPath1135" d="M0 0H44.0V16.25H0Z" fill="#fff" transform="matrix(1.0,0.0,0.0,1.0,-22.0,0.0)"/><text id="ProcessOnText1136" fill="#000000" font-size="13" x="0.0" y="13.325" font-family="微软雅黑" font-weight="normal" font-style="normal" text-decoration="none" family="微软雅黑" text-anchor="middle" size="13">type of</text></g></g><g id="ProcessOnG1137"><path id="ProcessOnPath1138" d="M308.06871810471523 556.0C308.06871810471523 436.1700364858645 200.25000000000003 396.3299635141355 200.25 276.5" stroke="#323232" stroke-width="2.0" stroke-dasharray="10.0 4.0" fill="none" marker-end="url(#ProcessOnMarker1139)"/><g id="ProcessOnG1141" transform="matrix(1.0,0.0,0.0,1.0,254.15935905235762,408.125)"><path id="ProcessOnPath1142" d="M0 0H110.0V16.25H0Z" fill="#fff" transform="matrix(1.0,0.0,0.0,1.0,-55.0,0.0)"/><text id="ProcessOnText1143" fill="#000000" font-size="13" x="0.0" y="13.325" font-family="微软雅黑" font-weight="bold" font-style="normal" text-decoration="none" family="微软雅黑" text-anchor="middle" size="13">already in map ?</text></g></g><g id="ProcessOnG1144" transform="matrix(1.0,0.0,0.0,1.0,34.75,692.5)" opacity="1.0"><path id="ProcessOnPath1145" d="M0.0 0.0L79.25 0.0L79.25 20.0L0.0 20.0Z" stroke="none" stroke-width="0.0" stroke-dasharray="none" opacity="1.0" fill="none"/><g id="ProcessOnG1146" transform="matrix(1.0,0.0,0.0,1.0,0.0,1.875)"><text id="ProcessOnText1147" fill="#000000" font-size="13" x="0.0" y="13.325" font-family="微软雅黑" font-weight="normal" font-style="normal" text-decoration="none" family="微软雅黑" text-anchor="start" size="13">api.Service</text></g></g><g id="ProcessOnG1148" transform="matrix(1.0,0.0,0.0,1.0,34.75,712.5)" opacity="1.0"><path id="ProcessOnPath1149" d="M0.0 0.0L136.0 0.0L136.0 32.0L0.0 32.0Z" stroke="#323232" stroke-width="2.0" stroke-dasharray="none" opacity="1.0" fill="#ffffff"/><g id="ProcessOnG1150" transform="matrix(1.0,0.0,0.0,1.0,10.0,7.875)"><text id="ProcessOnText1151" fill="#000000" font-size="13" x="57.0" y="13.325" font-family="微软雅黑" font-weight="normal" font-style="normal" text-decoration="none" family="微软雅黑" text-anchor="middle" size="13">Spec</text></g></g><g id="ProcessOnG1152" transform="matrix(1.0,0.0,0.0,1.0,235.13743620943046,692.5)" opacity="1.0"><path id="ProcessOnPath1153" d="M0.0 0.0L106.86256379056954 0.0L106.86256379056954 20.0L0.0 20.0Z" stroke="none" stroke-width="0.0" stroke-dasharray="none" opacity="1.0" fill="none"/><g id="ProcessOnG1154" transform="matrix(1.0,0.0,0.0,1.0,0.0,1.875)"><text id="ProcessOnText1155" fill="#000000" font-size="13" x="0.0" y="13.325" font-family="微软雅黑" font-weight="normal" font-style="normal" text-decoration="none" family="微软雅黑" text-anchor="start" size="13">api.ServiceSpec</text></g></g><g id="ProcessOnG1156" transform="matrix(1.0,0.0,0.0,1.0,235.13743620943046,712.5)" opacity="1.0"><path id="ProcessOnPath1157" d="M0.0 0.0L136.0 0.0L136.0 32.0L0.0 32.0Z" stroke="#323232" stroke-width="2.0" stroke-dasharray="none" opacity="1.0" fill="#ffffff"/><g id="ProcessOnG1158" transform="matrix(1.0,0.0,0.0,1.0,10.0,7.875)"><text id="ProcessOnText1159" fill="#000000" font-size="13" x="57.0" y="13.325" font-family="微软雅黑" font-weight="normal" font-style="normal" text-decoration="none" family="微软雅黑" text-anchor="middle" size="13">Ports</text></g></g><g id="ProcessOnG1160"><path id="ProcessOnPath1161" d="M170.75 728.5C196.50497448377217 728.5 209.3824617256583 728.5 235.13743620943046 728.5" stroke="#323232" stroke-width="2.0" stroke-dasharray="none" fill="none" marker-end="url(#ProcessOnMarker1162)"/></g><g id="ProcessOnG1164" transform="matrix(1.0,0.0,0.0,1.0,235.13743620943046,850.5)" opacity="1.0"><path id="ProcessOnPath1165" d="M0.0 0.0L106.86256379056954 0.0L106.86256379056954 20.0L0.0 20.0Z" stroke="none" stroke-width="0.0" stroke-dasharray="none" opacity="1.0" fill="none"/><g id="ProcessOnG1166" transform="matrix(1.0,0.0,0.0,1.0,0.0,1.875)"><text id="ProcessOnText1167" fill="#000000" font-size="13" x="0.0" y="13.325" font-family="微软雅黑" font-weight="normal" font-style="normal" text-decoration="none" family="微软雅黑" text-anchor="start" size="13">api.ServicePort</text></g></g><g id="ProcessOnG1168" transform="matrix(1.0,0.0,0.0,1.0,235.13743620943046,870.5)" opacity="1.0"><path id="ProcessOnPath1169" d="M0.0 0.0L136.0 0.0L136.0 32.0L0.0 32.0Z" stroke="#323232" stroke-width="2.0" stroke-dasharray="none" opacity="1.0" fill="#ffcc99"/><g id="ProcessOnG1170" transform="matrix(1.0,0.0,0.0,1.0,10.0,7.875)"><text id="ProcessOnText1171" fill="#000000" font-size="13" x="57.0" y="13.325" font-family="微软雅黑" font-weight="normal" font-style="normal" text-decoration="none" family="微软雅黑" text-anchor="middle" size="13">Name</text></g></g><g id="ProcessOnG1172" transform="matrix(1.0,0.0,0.0,1.0,435.0,796.0)" opacity="1.0"><path id="ProcessOnPath1173" d="M0.0 4.0Q0.0 0.0 4.0 0.0L36.0 0.0Q40.0 0.0 40.0 4.0L40.0 28.0Q40.0 32.0 36.0 32.0L4.0 32.0Q0.0 32.0 0.0 28.0Z" stroke="#323232" stroke-width="2.0" stroke-dasharray="none" opacity="1.0" fill="#ffffff"/></g><g id="ProcessOnG1174" transform="matrix(1.0,0.0,0.0,1.0,475.0,796.0)" opacity="1.0"><path id="ProcessOnPath1175" d="M0.0 4.0Q0.0 0.0 4.0 0.0L36.0 0.0Q40.0 0.0 40.0 4.0L40.0 28.0Q40.0 32.0 36.0 32.0L4.0 32.0Q0.0 32.0 0.0 28.0Z" stroke="#323232" stroke-width="2.0" stroke-dasharray="none" opacity="1.0" fill="#ffffff"/></g><g id="ProcessOnG1176" transform="matrix(1.0,0.0,0.0,1.0,515.0,796.0)" opacity="1.0"><path id="ProcessOnPath1177" d="M0.0 4.0Q0.0 0.0 4.0 0.0L36.0 0.0Q40.0 0.0 40.0 4.0L40.0 28.0Q40.0 32.0 36.0 32.0L4.0 32.0Q0.0 32.0 0.0 28.0Z" stroke="#323232" stroke-width="2.0" stroke-dasharray="none" opacity="1.0" fill="#ffffff"/></g><g id="ProcessOnG1178" transform="matrix(1.0,0.0,0.0,1.0,555.0,796.0)" opacity="1.0"><path id="ProcessOnPath1179" d="M0.0 4.0Q0.0 0.0 4.0 0.0L36.0 0.0Q40.0 0.0 40.0 4.0L40.0 28.0Q40.0 32.0 36.0 32.0L4.0 32.0Q0.0 32.0 0.0 28.0Z" stroke="#323232" stroke-width="2.0" stroke-dasharray="none" opacity="1.0" fill="#ffffff"/></g><g id="ProcessOnG1180"><path id="ProcessOnPath1181" d="M371.13743620943046 728.5C409.17492534633004 728.5 409.6389673979214 770.6389673979214 436.53553390593277 797.5355339059328" stroke="#323232" stroke-width="2.0" stroke-dasharray="none" fill="none" marker-end="url(#ProcessOnMarker1182)"/></g><g id="ProcessOnG1184"><path id="ProcessOnPath1185" d="M455.0 828.0C455.0 868.9002290566248 412.0376652660552 886.5 371.13743620943046 886.5" stroke="#323232" stroke-width="2.0" stroke-dasharray="10.0 4.0" fill="none" marker-end="url(#ProcessOnMarker1186)"/><g id="ProcessOnG1188" transform="matrix(1.0,0.0,0.0,1.0,428.4063040009495,864.4625858962343)"><path id="ProcessOnPath1189" d="M0 0H44.0V16.25H0Z" fill="#fff" transform="matrix(1.0,0.0,0.0,1.0,-22.0,0.0)"/><text id="ProcessOnText1190" fill="#000000" font-size="13" x="0.0" y="13.325" font-family="微软雅黑" font-weight="normal" font-style="normal" text-decoration="none" family="微软雅黑" text-anchor="middle" size="13">type of</text></g></g><g id="ProcessOnG1191" transform="matrix(1.0,0.0,0.0,1.0,526.3874362094305,589.0)" opacity="1.0"><path id="ProcessOnPath1192" d="M0.0 4.0Q0.0 0.0 4.0 0.0L132.0 0.0Q136.0 0.0 136.0 4.0L136.0 30.0Q136.0 34.0 132.0 34.0L4.0 34.0Q0.0 34.0 0.0 30.0Z" stroke="#323232" stroke-width="2.0" stroke-dasharray="none" opacity="1.0" fill="#ffffff"/><g id="ProcessOnG1193" transform="matrix(1.0,0.0,0.0,1.0,10.0,8.875)"><text id="ProcessOnText1194" fill="#000000" font-size="13" x="57.0" y="13.325" font-family="微软雅黑" font-weight="normal" font-style="italic" text-decoration="none" family="微软雅黑" text-anchor="middle" size="13">ServicePortName</text></g></g><g id="ProcessOnG1195" transform="matrix(1.0,0.0,0.0,1.0,390.63743620943046,388.5)" opacity="1.0"><path id="ProcessOnPath1196" d="M0.0 0.0L98.0 0.0L98.0 32.0L0.0 32.0Z" stroke="#323232" stroke-width="2.0" stroke-dasharray="none" opacity="1.0" fill="#ffffff"/></g><g id="ProcessOnG1197" transform="matrix(1.0,0.0,0.0,1.0,390.63743620943046,368.5)" opacity="1.0"><path id="ProcessOnPath1198" d="M0.0 0.0L122.0 0.0L122.0 20.0L0.0 20.0Z" stroke="none" stroke-width="0.0" stroke-dasharray="none" opacity="1.0" fill="none"/><g id="ProcessOnG1199" transform="matrix(1.0,0.0,0.0,1.0,0.0,1.875)"><text id="ProcessOnText1200" fill="#000000" font-size="13" x="0.0" y="13.325" font-family="微软雅黑" font-weight="normal" font-style="normal" text-decoration="none" family="微软雅黑" text-anchor="start" size="13">ServicePortName</text></g></g><g id="ProcessOnG1201" transform="matrix(1.0,0.0,0.0,1.0,390.63743620943046,420.5)" opacity="1.0"><path id="ProcessOnPath1202" d="M0.0 0.0L98.0 0.0L98.0 32.0L0.0 32.0Z" stroke="#323232" stroke-width="2.0" stroke-dasharray="none" opacity="1.0" fill="#ffcc99"/><g id="ProcessOnG1203" transform="matrix(1.0,0.0,0.0,1.0,10.0,7.875)"><text id="ProcessOnText1204" fill="#000000" font-size="13" x="38.0" y="13.325" font-family="微软雅黑" font-weight="normal" font-style="normal" text-decoration="none" family="微软雅黑" text-anchor="middle" size="13">Port</text></g></g><g id="ProcessOnG1205"><path id="ProcessOnPath1206" d="M488.63743620943046 404.5C550.6451211646778 404.5 546.7945588048102 244.1186086181486 485.0228318114495 249.52293445648596" stroke="#323232" stroke-width="2.0" stroke-dasharray="none" fill="none" marker-end="url(#ProcessOnMarker1207)"/></g><g id="ProcessOnG1209"><path id="ProcessOnPath1210" d="M881.1374362094305 301.5C719.9434738915949 301.5 634.4661121238 323.5669608891033 488.3747688518534 391.6904730469628" stroke="#323232" stroke-width="2.0" stroke-dasharray="10.0 4.0" fill="none" marker-end="url(#ProcessOnMarker1211)"/><g id="ProcessOnG1213" transform="matrix(1.0,0.0,0.0,1.0,679.0926203884336,312.9239194642841)"><path id="ProcessOnPath1214" d="M0 0H44.0V16.25H0Z" fill="#fff" transform="matrix(1.0,0.0,0.0,1.0,-22.0,0.0)"/><text id="ProcessOnText1215" fill="#000000" font-size="13" x="0.0" y="13.325" font-family="微软雅黑" font-weight="normal" font-style="normal" text-decoration="none" family="微软雅黑" text-anchor="middle" size="13">type of</text></g></g><g id="ProcessOnG1216" transform="matrix(1.0,0.0,0.0,1.0,748.1374362094305,589.0)" opacity="1.0"><path id="ProcessOnPath1217" d="M0.0 4.0Q0.0 0.0 4.0 0.0L132.0 0.0Q136.0 0.0 136.0 4.0L136.0 30.0Q136.0 34.0 132.0 34.0L4.0 34.0Q0.0 34.0 0.0 30.0Z" stroke="#323232" stroke-width="2.0" stroke-dasharray="none" opacity="1.0" fill="#ffffff"/><g id="ProcessOnG1218" transform="matrix(1.0,0.0,0.0,1.0,10.0,8.875)"><text id="ProcessOnText1219" fill="#000000" font-size="13" x="57.0" y="13.325" font-family="微软雅黑" font-weight="normal" font-style="italic" text-decoration="none" family="微软雅黑" text-anchor="middle" size="13">serviceInfo</text></g></g><g id="ProcessOnG1220"><path id="ProcessOnPath1221" d="M662.3874362094305 606.0C696.6874362094304 606.0 713.8374362094305 606.0 748.1374362094305 606.0" stroke="#323232" stroke-width="2.0" stroke-dasharray="none" fill="none" marker-end="url(#ProcessOnMarker1222)"/></g><g id="ProcessOnG1224"><path id="ProcessOnPath1225" d="M884.1374362094305 606.0C999.1673453635283 606.0 1081.1374362094305 511.5299091540978 1081.1374362094305 411.7360679774998" stroke="#323232" stroke-width="2.0" stroke-dasharray="none" fill="none" marker-end="url(#ProcessOnMarker1226)"/></g><g id="ProcessOnG1228" transform="matrix(1.0,0.0,0.0,1.0,526.3874362094305,623.0)" opacity="1.0"><path id="ProcessOnPath1229" d="M0.0 4.0Q0.0 0.0 4.0 0.0L132.0 0.0Q136.0 0.0 136.0 4.0L136.0 30.0Q136.0 34.0 132.0 34.0L4.0 34.0Q0.0 34.0 0.0 30.0Z" stroke="#323232" stroke-width="2.0" stroke-dasharray="none" opacity="1.0" fill="#ffffff"/><g id="ProcessOnG1230" transform="matrix(1.0,0.0,0.0,1.0,10.0,8.875)"><text id="ProcessOnText1231" fill="#000000" font-size="13" x="57.0" y="13.325" font-family="微软雅黑" font-weight="normal" font-style="italic" text-decoration="none" family="微软雅黑" text-anchor="middle" size="13">ServicePortName</text></g></g><g id="ProcessOnG1232" transform="matrix(1.0,0.0,0.0,1.0,748.1374362094305,623.0)" opacity="1.0"><path id="ProcessOnPath1233" d="M0.0 4.0Q0.0 0.0 4.0 0.0L132.0 0.0Q136.0 0.0 136.0 4.0L136.0 30.0Q136.0 34.0 132.0 34.0L4.0 34.0Q0.0 34.0 0.0 30.0Z" stroke="#323232" stroke-width="2.0" stroke-dasharray="none" opacity="1.0" fill="#ffffff"/><g id="ProcessOnG1234" transform="matrix(1.0,0.0,0.0,1.0,10.0,8.875)"><text id="ProcessOnText1235" fill="#000000" font-size="13" x="57.0" y="13.325" font-family="微软雅黑" font-weight="normal" font-style="italic" text-decoration="none" family="微软雅黑" text-anchor="middle" size="13">serviceInfo</text></g></g><g id="ProcessOnG1236"><path id="ProcessOnPath1237" d="M662.3874362094305 640.0C696.6874362094304 640.0 713.8374362094305 640.0 748.1374362094305 640.0" stroke="#323232" stroke-width="2.0" stroke-dasharray="none" fill="none" marker-end="url(#ProcessOnMarker1238)"/></g><g id="ProcessOnG1240"><path id="ProcessOnPath1241" d="M613.7624362094305 392.0C527.553404929136 392.0 478.9939896750791 519.2966080563072 528.4414586181063 589.914912265734" stroke="#66ffff" stroke-width="2.0" stroke-dasharray="none" fill="none" marker-end="url(#ProcessOnMarker1242)"/><g id="ProcessOnG1244" transform="matrix(1.0,0.0,0.0,1.0,520.2307598300227,456.3505920543319)"><path id="ProcessOnPath1245" d="M0 0H98.0V16.25H0Z" fill="#fff" transform="matrix(1.0,0.0,0.0,1.0,-49.0,0.0)"/><text id="ProcessOnText1246" fill="#66ffff" font-size="13" x="0.0" y="13.325" font-family="微软雅黑" font-weight="bold" font-style="normal" text-decoration="none" family="微软雅黑" text-anchor="middle" size="13">on add service</text></g></g><g id="ProcessOnG1247"><path id="ProcessOnPath1248" d="M716.0 496.5C672.3615049787926 496.5 674.2151436050414 548.6916913502982 659.2898992833716 589.6984631039295" stroke="#ff6666" stroke-width="2.0" stroke-dasharray="none" fill="none" marker-end="url(#ProcessOnMarker1249)"/><g id="ProcessOnG1251" transform="matrix(1.0,0.0,0.0,1.0,676.8774806293592,519.596692144353)"><path id="ProcessOnPath1252" d="M0 0H167.0V16.25H0Z" fill="#fff" transform="matrix(1.0,0.0,0.0,1.0,-83.5,0.0)"/><text id="ProcessOnText1253" fill="#ff6666" font-size="13" x="0.0" y="13.325" font-family="微软雅黑" font-weight="bold" font-style="normal" text-decoration="none" family="微软雅黑" text-anchor="middle" size="13">on update/delete service</text></g></g><g id="ProcessOnG1254"><path id="ProcessOnPath1255" d="M84.875 588.0C84.87500000000003 764.8771801560658 350.7882803112923 580.758449473882 526.9923893961835 596.1743114854953" stroke="#323232" stroke-width="2.0" stroke-dasharray="10.0 4.0" fill="none" marker-end="url(#ProcessOnMarker1256)"/><g id="ProcessOnG1258" transform="matrix(1.0,0.0,0.0,1.0,239.8571537912576,644.5101500469174)"><path id="ProcessOnPath1259" d="M0 0H125.0V16.25H0Z" fill="#fff" transform="matrix(1.0,0.0,0.0,1.0,-62.5,0.0)"/><text id="ProcessOnText1260" fill="#000000" font-size="13" x="0.0" y="13.325" font-family="微软雅黑" font-weight="bold" font-style="normal" text-decoration="none" family="微软雅黑" text-anchor="middle" size="13">generates the map</text></g></g><g id="ProcessOnG1261" transform="matrix(1.0,0.0,0.0,1.0,145.88743620943046,34.0)" opacity="1.0"><path id="ProcessOnPath1262" d="M0.0 4.0Q0.0 0.0 4.0 0.0L96.25 0.0Q100.25 0.0 100.25 4.0L100.25 28.0Q100.25 32.0 96.25 32.0L4.0 32.0Q0.0 32.0 0.0 28.0Z" stroke="#323232" stroke-width="2.0" stroke-dasharray="none" opacity="1.0" fill="#ffffff"/><g id="ProcessOnG1263" transform="matrix(1.0,0.0,0.0,1.0,10.0,7.875)"><text id="ProcessOnText1264" fill="#000000" font-size="13" x="39.125" y="13.325" font-family="微软雅黑" font-weight="normal" font-style="normal" text-decoration="none" family="微软雅黑" text-anchor="middle" size="13">a instance</text></g></g><g id="ProcessOnG1265"><path id="ProcessOnPath1266" d="M84.875 556.0C84.875 515.6 84.875 495.4 84.875 455.0" stroke="#323232" stroke-width="2.0" stroke-dasharray="10.0 4.0" fill="none" marker-start="url(#ProcessOnMarker1267)"/><g id="ProcessOnG1269" transform="matrix(1.0,0.0,0.0,1.0,84.875,497.375)"><path id="ProcessOnPath1270" d="M0 0H96.0V16.25H0Z" fill="#fff" transform="matrix(1.0,0.0,0.0,1.0,-48.0,0.0)"/><text id="ProcessOnText1271" fill="#000000" font-size="13" x="0.0" y="13.325" font-family="微软雅黑" font-weight="bold" font-style="normal" text-decoration="none" family="微软雅黑" text-anchor="middle" size="13">from informer</text></g></g><g id="ProcessOnG1272" transform="matrix(1.0,0.0,0.0,1.0,294.01243620943046,34.0)" opacity="1.0"><path id="ProcessOnPath1273" d="M0.0 0.0L127.98756379056954 0.0L127.98756379056954 32.0L0.0 32.0Z" stroke="#323232" stroke-width="2.0" stroke-dasharray="none" opacity="1.0" fill="#ffffcc"/><g id="ProcessOnG1274" transform="matrix(1.0,0.0,0.0,1.0,10.0,7.875)"><text id="ProcessOnText1275" fill="#000000" font-size="13" x="52.99378189528477" y="13.325" font-family="微软雅黑" font-weight="normal" font-style="normal" text-decoration="none" family="微软雅黑" text-anchor="middle" size="13">map</text></g></g><g id="ProcessOnG1276" transform="matrix(1.0,0.0,0.0,1.0,497.63743620943046,874.75)" opacity="1.0"><path id="ProcessOnPath1277" d="M0.0 0.0L588.3625637905695 0.0L588.3625637905695 79.25L0.0 79.25Z" stroke="none" stroke-width="0.0" stroke-dasharray="none" opacity="1.0" fill="none"/><g id="ProcessOnG1278" transform="matrix(1.0,0.0,0.0,1.0,0.0,0.0)"><text id="ProcessOnText1279" fill="#66b2ff" font-size="13" x="0.0" y="13.325" font-family="微软雅黑" font-weight="normal" font-style="normal" text-decoration="none" family="微软雅黑" text-anchor="start" size="13"></text><text id="ProcessOnText1280" fill="#66b2ff" font-size="13" x="0.0" y="29.575" font-family="微软雅黑" font-weight="normal" font-style="normal" text-decoration="none" family="微软雅黑" text-anchor="start" size="13"> ServiceChangeTracker.item 指向的 map 中，每一条记录对应一个服务的状态改变</text><text id="ProcessOnText1281" fill="#66b2ff" font-size="13" x="0.0" y="45.825" font-family="微软雅黑" font-weight="normal" font-style="normal" text-decoration="none" family="微软雅黑" text-anchor="start" size="13"></text><text id="ProcessOnText1282" fill="#66b2ff" font-size="13" x="0.0" y="62.075" font-family="微软雅黑" font-weight="normal" font-style="normal" text-decoration="none" family="微软雅黑" text-anchor="start" size="13"> 如果没有任何服务发生变化，item 域指向空 map</text></g></g></g></g></svg>