<svg xmlns="http://www.w3.org/2000/svg" xmlns:xlink="http://www.w3.org/1999/xlink" id="processonSvg1000" viewBox="11.875 16.0 967.125 1324.0" width="967.125" height="1324.0"><defs id="ProcessOnDefs1001"><marker id="ProcessOnMarker1223" markerUnits="userSpaceOnUse" orient="auto" markerWidth="14.289086868996552" markerHeight="19.055054660878554" viewBox="-0.5877852522924731 -0.8090169943749475 14.289086868996552 19.055054660878554" refX="12.0" refY="8.71851033606433"><path id="ProcessOnPath1224" d="M0 0L12.0 8.71851033606433L0 17.43702067212866" stroke="#323232" stroke-width="2.0" fill="none" transform="matrix(1.0,0.0,0.0,1.0,0.0,0.0)"/></marker><marker id="ProcessOnMarker1252" markerUnits="userSpaceOnUse" orient="auto" markerWidth="14.289086868996552" markerHeight="19.055054660878554" viewBox="-0.5877852522924731 -0.8090169943749475 14.289086868996552 19.055054660878554" refX="12.0" refY="8.71851033606433"><path id="ProcessOnPath1253" d="M0 0L12.0 8.71851033606433L0 17.43702067212866" stroke="#323232" stroke-width="2.0" fill="none" transform="matrix(1.0,0.0,0.0,1.0,0.0,0.0)"/></marker><marker id="ProcessOnMarker1261" markerUnits="userSpaceOnUse" orient="auto" markerWidth="14.289086868996552" markerHeight="19.055054660878554" viewBox="-0.5877852522924731 -0.8090169943749475 14.289086868996552 19.055054660878554" refX="12.0" refY="8.71851033606433"><path id="ProcessOnPath1262" d="M0 0L12.0 8.71851033606433L0 17.43702067212866" stroke="#323232" stroke-width="2.0" fill="none" transform="matrix(1.0,0.0,0.0,1.0,0.0,0.0)"/></marker><marker id="ProcessOnMarker1274" markerUnits="userSpaceOnUse" orient="auto" markerWidth="14.289086868996552" markerHeight="19.055054660878554" viewBox="-0.5877852522924731 -0.8090169943749475 14.289086868996552 19.055054660878554" refX="12.0" refY="8.71851033606433"><path id="ProcessOnPath1275" d="M0 0L12.0 8.71851033606433L0 17.43702067212866" stroke="#323232" stroke-width="2.0" fill="none" transform="matrix(1.0,0.0,0.0,1.0,0.0,0.0)"/></marker><marker id="ProcessOnMarker1278" markerUnits="userSpaceOnUse" orient="auto" markerWidth="14.289086868996552" markerHeight="19.055054660878554" viewBox="-0.5877852522924731 -0.8090169943749475 14.289086868996552 19.055054660878554" refX="12.0" refY="8.71851033606433"><path id="ProcessOnPath1279" d="M0 0L12.0 8.71851033606433L0 17.43702067212866" stroke="#323232" stroke-width="2.0" fill="none" transform="matrix(1.0,0.0,0.0,1.0,0.0,0.0)"/></marker><marker id="ProcessOnMarker1289" markerUnits="userSpaceOnUse" orient="auto" markerWidth="14.289086868996552" markerHeight="19.055054660878554" viewBox="-0.5877852522924731 -0.8090169943749475 14.289086868996552 19.055054660878554" refX="12.0" refY="8.71851033606433"><path id="ProcessOnPath1290" d="M0 0L12.0 8.71851033606433L0 17.43702067212866" stroke="#323232" stroke-width="2.0" fill="none" transform="matrix(1.0,0.0,0.0,1.0,0.0,0.0)"/></marker></defs><g id="ProcessOnG1002"><path id="ProcessOnPath1003" d="M11.875 16.0H979.0V1340.0H11.875V16.0Z" fill="none"/><g id="ProcessOnG1004"><g id="ProcessOnG1005" transform="matrix(1.0,0.0,0.0,1.0,212.0,103.0)" opacity="1.0"><path id="ProcessOnPath1006" d="M0.0 0.0L96.0 0.0L96.0 32.0L0.0 32.0Z" stroke="#323232" stroke-width="2.0" stroke-dasharray="none" opacity="1.0" fill="#ffffff"/><g id="ProcessOnG1007" transform="matrix(1.0,0.0,0.0,1.0,10.0,7.875)"><text id="ProcessOnText1008" fill="#000000" font-size="13" x="37.0" y="13.325" font-family="微软雅黑" font-weight="normal" font-style="italic" text-decoration="none" family="微软雅黑" text-anchor="middle" size="13">A</text></g></g><g id="ProcessOnG1009" transform="matrix(1.0,0.0,0.0,1.0,212.0,135.0)" opacity="1.0"><path id="ProcessOnPath1010" d="M0.0 0.0L96.0 0.0L96.0 32.0L0.0 32.0Z" stroke="#323232" stroke-width="2.0" stroke-dasharray="none" opacity="1.0" fill="#ffffff"/><g id="ProcessOnG1011" transform="matrix(1.0,0.0,0.0,1.0,10.0,7.875)"><text id="ProcessOnText1012" fill="#000000" font-size="13" x="37.0" y="13.325" font-family="微软雅黑" font-weight="normal" font-style="italic" text-decoration="none" family="微软雅黑" text-anchor="middle" size="13">D</text></g></g><g id="ProcessOnG1013" transform="matrix(1.0,0.0,0.0,1.0,434.0,103.0)" opacity="1.0"><path id="ProcessOnPath1014" d="M0.0 0.0L96.0 0.0L96.0 32.0L0.0 32.0Z" stroke="#323232" stroke-width="2.0" stroke-dasharray="none" opacity="1.0" fill="#ffffff"/><g id="ProcessOnG1015" transform="matrix(1.0,0.0,0.0,1.0,10.0,7.875)"><text id="ProcessOnText1016" fill="#000000" font-size="13" x="37.0" y="13.325" font-family="微软雅黑" font-weight="normal" font-style="italic" text-decoration="none" family="微软雅黑" text-anchor="middle" size="13">A</text></g></g><g id="ProcessOnG1017" transform="matrix(1.0,0.0,0.0,1.0,434.0,135.0)" opacity="1.0"><path id="ProcessOnPath1018" d="M0.0 0.0L96.0 0.0L96.0 32.0L0.0 32.0Z" stroke="#323232" stroke-width="2.0" stroke-dasharray="none" opacity="1.0" fill="#ffffff"/><g id="ProcessOnG1019" transform="matrix(1.0,0.0,0.0,1.0,10.0,7.875)"><text id="ProcessOnText1020" fill="#000000" font-size="13" x="37.0" y="13.325" font-family="微软雅黑" font-weight="normal" font-style="italic" text-decoration="none" family="微软雅黑" text-anchor="middle" size="13">D</text></g></g><g id="ProcessOnG1021" transform="matrix(1.0,0.0,0.0,1.0,653.0,103.0)" opacity="1.0"><path id="ProcessOnPath1022" d="M0.0 0.0L96.0 0.0L96.0 32.0L0.0 32.0Z" stroke="#323232" stroke-width="2.0" stroke-dasharray="none" opacity="1.0" fill="#ffffff"/><g id="ProcessOnG1023" transform="matrix(1.0,0.0,0.0,1.0,10.0,7.875)"><text id="ProcessOnText1024" fill="#000000" font-size="13" x="37.0" y="13.325" font-family="微软雅黑" font-weight="normal" font-style="italic" text-decoration="none" family="微软雅黑" text-anchor="middle" size="13">A</text></g></g><g id="ProcessOnG1025" transform="matrix(1.0,0.0,0.0,1.0,653.0,135.0)" opacity="1.0"><path id="ProcessOnPath1026" d="M0.0 0.0L96.0 0.0L96.0 32.0L0.0 32.0Z" stroke="#323232" stroke-width="2.0" stroke-dasharray="none" opacity="1.0" fill="#ffffff"/><g id="ProcessOnG1027" transform="matrix(1.0,0.0,0.0,1.0,10.0,7.875)"><text id="ProcessOnText1028" fill="#000000" font-size="13" x="37.0" y="13.325" font-family="微软雅黑" font-weight="normal" font-style="italic" text-decoration="none" family="微软雅黑" text-anchor="middle" size="13">B</text></g></g><g id="ProcessOnG1029" transform="matrix(1.0,0.0,0.0,1.0,653.0,167.0)" opacity="1.0"><path id="ProcessOnPath1030" d="M0.0 0.0L96.0 0.0L96.0 32.0L0.0 32.0Z" stroke="#323232" stroke-width="2.0" stroke-dasharray="none" opacity="1.0" fill="#ffffff"/><g id="ProcessOnG1031" transform="matrix(1.0,0.0,0.0,1.0,10.0,7.875)"><text id="ProcessOnText1032" fill="#000000" font-size="13" x="37.0" y="13.325" font-family="微软雅黑" font-weight="normal" font-style="italic" text-decoration="none" family="微软雅黑" text-anchor="middle" size="13">C</text></g></g><g id="ProcessOnG1033" transform="matrix(1.0,0.0,0.0,1.0,653.0,199.0)" opacity="1.0"><path id="ProcessOnPath1034" d="M0.0 0.0L96.0 0.0L96.0 32.0L0.0 32.0Z" stroke="#323232" stroke-width="2.0" stroke-dasharray="none" opacity="1.0" fill="#ffffff"/><g id="ProcessOnG1035" transform="matrix(1.0,0.0,0.0,1.0,10.0,7.875)"><text id="ProcessOnText1036" fill="#000000" font-size="13" x="37.0" y="13.325" font-family="微软雅黑" font-weight="normal" font-style="italic" text-decoration="none" family="微软雅黑" text-anchor="middle" size="13">E</text></g></g><g id="ProcessOnG1037" transform="matrix(1.0,0.0,0.0,1.0,212.0,83.0)" opacity="1.0"><path id="ProcessOnPath1038" d="M0.0 0.0L81.0 0.0L81.0 20.0L0.0 20.0Z" stroke="none" stroke-width="0.0" stroke-dasharray="none" opacity="1.0" fill="none"/><g id="ProcessOnG1039" transform="matrix(1.0,0.0,0.0,1.0,0.0,1.875)"><text id="ProcessOnText1040" fill="#000000" font-size="13" x="0.0" y="13.325" font-family="微软雅黑" font-weight="normal" font-style="normal" text-decoration="none" family="微软雅黑" text-anchor="start" size="13">serviceMap</text></g></g><g id="ProcessOnG1041" transform="matrix(1.0,0.0,0.0,1.0,434.0,83.0)" opacity="1.0"><path id="ProcessOnPath1042" d="M0.0 0.0L81.0 0.0L81.0 20.0L0.0 20.0Z" stroke="none" stroke-width="0.0" stroke-dasharray="none" opacity="1.0" fill="none"/><g id="ProcessOnG1043" transform="matrix(1.0,0.0,0.0,1.0,0.0,1.875)"><text id="ProcessOnText1044" fill="#000000" font-size="13" x="0.0" y="13.325" font-family="微软雅黑" font-weight="normal" font-style="normal" text-decoration="none" family="微软雅黑" text-anchor="start" size="13">previous</text></g></g><g id="ProcessOnG1045" transform="matrix(1.0,0.0,0.0,1.0,653.0,83.0)" opacity="1.0"><path id="ProcessOnPath1046" d="M0.0 0.0L81.0 0.0L81.0 20.0L0.0 20.0Z" stroke="none" stroke-width="0.0" stroke-dasharray="none" opacity="1.0" fill="none"/><g id="ProcessOnG1047" transform="matrix(1.0,0.0,0.0,1.0,0.0,1.875)"><text id="ProcessOnText1048" fill="#000000" font-size="13" x="0.0" y="13.325" font-family="微软雅黑" font-weight="normal" font-style="normal" text-decoration="none" family="微软雅黑" text-anchor="start" size="13">current</text></g></g><g id="ProcessOnG1049"><path id="ProcessOnPath1050" d="M56.0 252.0L499.5 252.0L499.5 252.0L943.0 252.0" stroke="#323232" stroke-width="2.0" stroke-dasharray="10.0 4.0" fill="none"/></g><g id="ProcessOnG1051" transform="matrix(1.0,0.0,0.0,1.0,659.0,319.0)" opacity="1.0"><path id="ProcessOnPath1052" d="M0.0 0.0L96.0 0.0L96.0 32.0L0.0 32.0Z" stroke="#323232" stroke-width="2.0" stroke-dasharray="none" opacity="1.0" fill="#ffffff"/><g id="ProcessOnG1053" transform="matrix(1.0,0.0,0.0,1.0,10.0,7.875)"><text id="ProcessOnText1054" fill="#000000" font-size="13" x="37.0" y="13.325" font-family="微软雅黑" font-weight="normal" font-style="italic" text-decoration="none" family="微软雅黑" text-anchor="middle" size="13">A</text></g></g><g id="ProcessOnG1055" transform="matrix(1.0,0.0,0.0,1.0,659.0,351.0)" opacity="1.0"><path id="ProcessOnPath1056" d="M0.0 0.0L96.0 0.0L96.0 32.0L0.0 32.0Z" stroke="#323232" stroke-width="2.0" stroke-dasharray="none" opacity="1.0" fill="#ffffff"/><g id="ProcessOnG1057" transform="matrix(1.0,0.0,0.0,1.0,10.0,7.875)"><text id="ProcessOnText1058" fill="#000000" font-size="13" x="37.0" y="13.325" font-family="微软雅黑" font-weight="normal" font-style="italic" text-decoration="none" family="微软雅黑" text-anchor="middle" size="13">B</text></g></g><g id="ProcessOnG1059" transform="matrix(1.0,0.0,0.0,1.0,659.0,383.0)" opacity="1.0"><path id="ProcessOnPath1060" d="M0.0 0.0L96.0 0.0L96.0 32.0L0.0 32.0Z" stroke="#323232" stroke-width="2.0" stroke-dasharray="none" opacity="1.0" fill="#ffffff"/><g id="ProcessOnG1061" transform="matrix(1.0,0.0,0.0,1.0,10.0,7.875)"><text id="ProcessOnText1062" fill="#000000" font-size="13" x="37.0" y="13.325" font-family="微软雅黑" font-weight="normal" font-style="italic" text-decoration="none" family="微软雅黑" text-anchor="middle" size="13">C</text></g></g><g id="ProcessOnG1063" transform="matrix(1.0,0.0,0.0,1.0,659.0,415.0)" opacity="1.0"><path id="ProcessOnPath1064" d="M0.0 0.0L96.0 0.0L96.0 32.0L0.0 32.0Z" stroke="#323232" stroke-width="2.0" stroke-dasharray="none" opacity="1.0" fill="#ffffff"/><g id="ProcessOnG1065" transform="matrix(1.0,0.0,0.0,1.0,10.0,7.875)"><text id="ProcessOnText1066" fill="#000000" font-size="13" x="37.0" y="13.325" font-family="微软雅黑" font-weight="normal" font-style="italic" text-decoration="none" family="微软雅黑" text-anchor="middle" size="13">E</text></g></g><g id="ProcessOnG1067" transform="matrix(1.0,0.0,0.0,1.0,220.5,299.0)" opacity="1.0"><path id="ProcessOnPath1068" d="M0.0 0.0L81.0 0.0L81.0 20.0L0.0 20.0Z" stroke="none" stroke-width="0.0" stroke-dasharray="none" opacity="1.0" fill="none"/><g id="ProcessOnG1069" transform="matrix(1.0,0.0,0.0,1.0,0.0,1.875)"><text id="ProcessOnText1070" fill="#000000" font-size="13" x="0.0" y="13.325" font-family="微软雅黑" font-weight="normal" font-style="normal" text-decoration="none" family="微软雅黑" text-anchor="start" size="13">serviceMap</text></g></g><g id="ProcessOnG1071" transform="matrix(1.0,0.0,0.0,1.0,659.0,299.0)" opacity="1.0"><path id="ProcessOnPath1072" d="M0.0 0.0L81.0 0.0L81.0 20.0L0.0 20.0Z" stroke="none" stroke-width="0.0" stroke-dasharray="none" opacity="1.0" fill="none"/><g id="ProcessOnG1073" transform="matrix(1.0,0.0,0.0,1.0,0.0,1.875)"><text id="ProcessOnText1074" fill="#000000" font-size="13" x="0.0" y="13.325" font-family="微软雅黑" font-weight="normal" font-style="normal" text-decoration="none" family="微软雅黑" text-anchor="start" size="13">current</text></g></g><g id="ProcessOnG1075"><path id="ProcessOnPath1076" d="M62.0 498.0L505.5 498.0L505.5 498.0L949.0 498.0" stroke="#323232" stroke-width="2.0" stroke-dasharray="10.0 4.0" fill="none"/></g><g id="ProcessOnG1077" transform="matrix(1.0,0.0,0.0,1.0,220.5,570.0)" opacity="1.0"><path id="ProcessOnPath1078" d="M0.0 0.0L96.0 0.0L96.0 32.0L0.0 32.0Z" stroke="#323232" stroke-width="2.0" stroke-dasharray="none" opacity="1.0" fill="#ffcccc"/><g id="ProcessOnG1079" transform="matrix(1.0,0.0,0.0,1.0,10.0,7.875)"><text id="ProcessOnText1080" fill="#000000" font-size="13" x="37.0" y="13.325" font-family="微软雅黑" font-weight="normal" font-style="italic" text-decoration="none" family="微软雅黑" text-anchor="middle" size="13">A</text></g></g><g id="ProcessOnG1081" transform="matrix(1.0,0.0,0.0,1.0,220.5,602.0)" opacity="1.0"><path id="ProcessOnPath1082" d="M0.0 0.0L96.0 0.0L96.0 32.0L0.0 32.0Z" stroke="#323232" stroke-width="2.0" stroke-dasharray="none" opacity="1.0" fill="#ffffff"/><g id="ProcessOnG1083" transform="matrix(1.0,0.0,0.0,1.0,10.0,7.875)"><text id="ProcessOnText1084" fill="#000000" font-size="13" x="37.0" y="13.325" font-family="微软雅黑" font-weight="normal" font-style="italic" text-decoration="none" family="微软雅黑" text-anchor="middle" size="13">D</text></g></g><g id="ProcessOnG1085" transform="matrix(1.0,0.0,0.0,1.0,666.0,570.0)" opacity="1.0"><path id="ProcessOnPath1086" d="M0.0 0.0L96.0 0.0L96.0 32.0L0.0 32.0Z" stroke="#323232" stroke-width="2.0" stroke-dasharray="none" opacity="1.0" fill="#ffffff"/><g id="ProcessOnG1087" transform="matrix(1.0,0.0,0.0,1.0,10.0,7.875)"><text id="ProcessOnText1088" fill="#000000" font-size="13" x="37.0" y="13.325" font-family="微软雅黑" font-weight="normal" font-style="italic" text-decoration="none" family="微软雅黑" text-anchor="middle" size="13">A</text></g></g><g id="ProcessOnG1089" transform="matrix(1.0,0.0,0.0,1.0,666.0,602.0)" opacity="1.0"><path id="ProcessOnPath1090" d="M0.0 0.0L96.0 0.0L96.0 32.0L0.0 32.0Z" stroke="#323232" stroke-width="2.0" stroke-dasharray="none" opacity="1.0" fill="#ffffff"/><g id="ProcessOnG1091" transform="matrix(1.0,0.0,0.0,1.0,10.0,7.875)"><text id="ProcessOnText1092" fill="#000000" font-size="13" x="37.0" y="13.325" font-family="微软雅黑" font-weight="normal" font-style="italic" text-decoration="none" family="微软雅黑" text-anchor="middle" size="13">B</text></g></g><g id="ProcessOnG1093" transform="matrix(1.0,0.0,0.0,1.0,666.0,634.0)" opacity="1.0"><path id="ProcessOnPath1094" d="M0.0 0.0L96.0 0.0L96.0 32.0L0.0 32.0Z" stroke="#323232" stroke-width="2.0" stroke-dasharray="none" opacity="1.0" fill="#ffffff"/><g id="ProcessOnG1095" transform="matrix(1.0,0.0,0.0,1.0,10.0,7.875)"><text id="ProcessOnText1096" fill="#000000" font-size="13" x="37.0" y="13.325" font-family="微软雅黑" font-weight="normal" font-style="italic" text-decoration="none" family="微软雅黑" text-anchor="middle" size="13">C</text></g></g><g id="ProcessOnG1097" transform="matrix(1.0,0.0,0.0,1.0,666.0,666.0)" opacity="1.0"><path id="ProcessOnPath1098" d="M0.0 0.0L96.0 0.0L96.0 32.0L0.0 32.0Z" stroke="#323232" stroke-width="2.0" stroke-dasharray="none" opacity="1.0" fill="#ffffff"/><g id="ProcessOnG1099" transform="matrix(1.0,0.0,0.0,1.0,10.0,7.875)"><text id="ProcessOnText1100" fill="#000000" font-size="13" x="37.0" y="13.325" font-family="微软雅黑" font-weight="normal" font-style="italic" text-decoration="none" family="微软雅黑" text-anchor="middle" size="13">E</text></g></g><g id="ProcessOnG1101" transform="matrix(1.0,0.0,0.0,1.0,220.5,550.0)" opacity="1.0"><path id="ProcessOnPath1102" d="M0.0 0.0L81.0 0.0L81.0 20.0L0.0 20.0Z" stroke="none" stroke-width="0.0" stroke-dasharray="none" opacity="1.0" fill="none"/><g id="ProcessOnG1103" transform="matrix(1.0,0.0,0.0,1.0,0.0,1.875)"><text id="ProcessOnText1104" fill="#000000" font-size="13" x="0.0" y="13.325" font-family="微软雅黑" font-weight="normal" font-style="normal" text-decoration="none" family="微软雅黑" text-anchor="start" size="13">previous</text></g></g><g id="ProcessOnG1105" transform="matrix(1.0,0.0,0.0,1.0,666.0,550.0)" opacity="1.0"><path id="ProcessOnPath1106" d="M0.0 0.0L81.0 0.0L81.0 20.0L0.0 20.0Z" stroke="none" stroke-width="0.0" stroke-dasharray="none" opacity="1.0" fill="none"/><g id="ProcessOnG1107" transform="matrix(1.0,0.0,0.0,1.0,0.0,1.875)"><text id="ProcessOnText1108" fill="#000000" font-size="13" x="0.0" y="13.325" font-family="微软雅黑" font-weight="normal" font-style="normal" text-decoration="none" family="微软雅黑" text-anchor="start" size="13">current</text></g></g><g id="ProcessOnG1109"><path id="ProcessOnPath1110" d="M68.0 712.0L511.5 712.0L511.5 712.0L955.0 712.0" stroke="#323232" stroke-width="2.0" stroke-dasharray="10.0 4.0" fill="none"/></g><g id="ProcessOnG1111"><path id="ProcessOnPath1112" d="M72.0 971.0L515.5 971.0L515.5 971.0L959.0 971.0" stroke="#323232" stroke-width="2.0" stroke-dasharray="10.0 4.0" fill="none"/></g><g id="ProcessOnG1113" transform="matrix(1.0,0.0,0.0,1.0,220.5,319.0)" opacity="1.0"><path id="ProcessOnPath1114" d="M0.0 0.0L96.0 0.0L96.0 32.0L0.0 32.0Z" stroke="#323232" stroke-width="2.0" stroke-dasharray="none" opacity="1.0" fill="#ffe6cc"/><g id="ProcessOnG1115" transform="matrix(1.0,0.0,0.0,1.0,10.0,7.875)"><text id="ProcessOnText1116" fill="#000000" font-size="13" x="37.0" y="13.325" font-family="微软雅黑" font-weight="normal" font-style="italic" text-decoration="none" family="微软雅黑" text-anchor="middle" size="13">A</text></g></g><g id="ProcessOnG1117" transform="matrix(1.0,0.0,0.0,1.0,220.5,351.0)" opacity="1.0"><path id="ProcessOnPath1118" d="M0.0 0.0L96.0 0.0L96.0 32.0L0.0 32.0Z" stroke="#323232" stroke-width="2.0" stroke-dasharray="none" opacity="1.0" fill="#ccffff"/><g id="ProcessOnG1119" transform="matrix(1.0,0.0,0.0,1.0,10.0,7.875)"><text id="ProcessOnText1120" fill="#000000" font-size="13" x="37.0" y="13.325" font-family="微软雅黑" font-weight="normal" font-style="italic" text-decoration="none" family="微软雅黑" text-anchor="middle" size="13">B</text></g></g><g id="ProcessOnG1121" transform="matrix(1.0,0.0,0.0,1.0,220.5,383.0)" opacity="1.0"><path id="ProcessOnPath1122" d="M0.0 0.0L96.0 0.0L96.0 32.0L0.0 32.0Z" stroke="#323232" stroke-width="2.0" stroke-dasharray="none" opacity="1.0" fill="#ccffff"/><g id="ProcessOnG1123" transform="matrix(1.0,0.0,0.0,1.0,10.0,7.875)"><text id="ProcessOnText1124" fill="#000000" font-size="13" x="37.0" y="13.325" font-family="微软雅黑" font-weight="normal" font-style="italic" text-decoration="none" family="微软雅黑" text-anchor="middle" size="13">C</text></g></g><g id="ProcessOnG1125" transform="matrix(1.0,0.0,0.0,1.0,220.5,415.0)" opacity="1.0"><path id="ProcessOnPath1126" d="M0.0 0.0L96.0 0.0L96.0 32.0L0.0 32.0Z" stroke="#323232" stroke-width="2.0" stroke-dasharray="none" opacity="1.0" fill="#ffffff"/><g id="ProcessOnG1127" transform="matrix(1.0,0.0,0.0,1.0,10.0,7.875)"><text id="ProcessOnText1128" fill="#000000" font-size="13" x="37.0" y="13.325" font-family="微软雅黑" font-weight="normal" font-style="italic" text-decoration="none" family="微软雅黑" text-anchor="middle" size="13">D</text></g></g><g id="ProcessOnG1129" transform="matrix(1.0,0.0,0.0,1.0,220.5,447.0)" opacity="1.0"><path id="ProcessOnPath1130" d="M0.0 0.0L96.0 0.0L96.0 32.0L0.0 32.0Z" stroke="#323232" stroke-width="2.0" stroke-dasharray="none" opacity="1.0" fill="#ccffff"/><g id="ProcessOnG1131" transform="matrix(1.0,0.0,0.0,1.0,10.0,7.875)"><text id="ProcessOnText1132" fill="#000000" font-size="13" x="37.0" y="13.325" font-family="微软雅黑" font-weight="normal" font-style="italic" text-decoration="none" family="微软雅黑" text-anchor="middle" size="13">E</text></g></g><g id="ProcessOnG1133" transform="matrix(1.0,0.0,0.0,1.0,335.75,334.0)" opacity="1.0"><path id="ProcessOnPath1134" d="M0.0 0.0L292.5 0.0L292.5 22.0L0.0 22.0Z" stroke="none" stroke-width="0.0" stroke-dasharray="none" opacity="1.0" fill="none"/><g id="ProcessOnG1135" transform="matrix(1.0,0.0,0.0,1.0,0.0,0.0)"><text id="ProcessOnText1136" fill="#ff6666" font-size="13" x="0.0" y="13.325" font-family="微软雅黑" font-weight="normal" font-style="normal" text-decoration="none" family="微软雅黑" text-anchor="start" size="13"> current 中全部元素，添加/修改 至 serviceMap</text></g></g><g id="ProcessOnG1137" transform="matrix(1.0,0.0,0.0,1.0,210.0,36.0)" opacity="1.0"><path id="ProcessOnPath1138" d="M0.0 0.0L96.0 0.0L96.0 32.0L0.0 32.0Z" stroke="#323232" stroke-width="2.0" stroke-dasharray="none" opacity="1.0" fill="#ffe6cc"/><g id="ProcessOnG1139" transform="matrix(1.0,0.0,0.0,1.0,10.0,7.875)"><text id="ProcessOnText1140" fill="#000000" font-size="13" x="37.0" y="13.325" font-family="微软雅黑" font-weight="normal" font-style="italic" text-decoration="none" family="微软雅黑" text-anchor="middle" size="13">Modify</text></g></g><g id="ProcessOnG1141" transform="matrix(1.0,0.0,0.0,1.0,75.5,36.0)" opacity="1.0"><path id="ProcessOnPath1142" d="M0.0 0.0L96.0 0.0L96.0 32.0L0.0 32.0Z" stroke="#323232" stroke-width="2.0" stroke-dasharray="none" opacity="1.0" fill="#ccffff"/><g id="ProcessOnG1143" transform="matrix(1.0,0.0,0.0,1.0,10.0,7.875)"><text id="ProcessOnText1144" fill="#000000" font-size="13" x="37.0" y="13.325" font-family="微软雅黑" font-weight="normal" font-style="italic" text-decoration="none" family="微软雅黑" text-anchor="middle" size="13">Add</text></g></g><g id="ProcessOnG1145" transform="matrix(1.0,0.0,0.0,1.0,338.0,36.0)" opacity="1.0"><path id="ProcessOnPath1146" d="M0.0 0.0L96.0 0.0L96.0 32.0L0.0 32.0Z" stroke="#323232" stroke-width="2.0" stroke-dasharray="none" opacity="1.0" fill="#ffcccc"/><g id="ProcessOnG1147" transform="matrix(1.0,0.0,0.0,1.0,10.0,7.875)"><text id="ProcessOnText1148" fill="#000000" font-size="13" x="37.0" y="13.325" font-family="微软雅黑" font-weight="normal" font-style="italic" text-decoration="none" family="微软雅黑" text-anchor="middle" size="13">Delete</text></g></g><g id="ProcessOnG1149" transform="matrix(1.0,0.0,0.0,1.0,335.75,585.0)" opacity="1.0"><path id="ProcessOnPath1150" d="M0.0 0.0L292.5 0.0L292.5 22.0L0.0 22.0Z" stroke="none" stroke-width="0.0" stroke-dasharray="none" opacity="1.0" fill="none"/><g id="ProcessOnG1151" transform="matrix(1.0,0.0,0.0,1.0,0.0,0.0)"><text id="ProcessOnText1152" fill="#ff6666" font-size="13" x="0.0" y="13.325" font-family="微软雅黑" font-weight="normal" font-style="normal" text-decoration="none" family="微软雅黑" text-anchor="start" size="13"> 删除 previous 中与 current 公有的 key</text></g></g><g id="ProcessOnG1153" transform="matrix(1.0,0.0,0.0,1.0,220.5,771.0)" opacity="1.0"><path id="ProcessOnPath1154" d="M0.0 0.0L81.0 0.0L81.0 20.0L0.0 20.0Z" stroke="none" stroke-width="0.0" stroke-dasharray="none" opacity="1.0" fill="none"/><g id="ProcessOnG1155" transform="matrix(1.0,0.0,0.0,1.0,0.0,1.875)"><text id="ProcessOnText1156" fill="#000000" font-size="13" x="0.0" y="13.325" font-family="微软雅黑" font-weight="normal" font-style="normal" text-decoration="none" family="微软雅黑" text-anchor="start" size="13">serviceMap</text></g></g><g id="ProcessOnG1157" transform="matrix(1.0,0.0,0.0,1.0,220.5,791.0)" opacity="1.0"><path id="ProcessOnPath1158" d="M0.0 0.0L96.0 0.0L96.0 32.0L0.0 32.0Z" stroke="#323232" stroke-width="2.0" stroke-dasharray="none" opacity="1.0" fill="#ffe6cc"/><g id="ProcessOnG1159" transform="matrix(1.0,0.0,0.0,1.0,10.0,7.875)"><text id="ProcessOnText1160" fill="#000000" font-size="13" x="37.0" y="13.325" font-family="微软雅黑" font-weight="normal" font-style="italic" text-decoration="none" family="微软雅黑" text-anchor="middle" size="13">A</text></g></g><g id="ProcessOnG1161" transform="matrix(1.0,0.0,0.0,1.0,220.5,823.0)" opacity="1.0"><path id="ProcessOnPath1162" d="M0.0 0.0L96.0 0.0L96.0 32.0L0.0 32.0Z" stroke="#323232" stroke-width="2.0" stroke-dasharray="none" opacity="1.0" fill="#ccffff"/><g id="ProcessOnG1163" transform="matrix(1.0,0.0,0.0,1.0,10.0,7.875)"><text id="ProcessOnText1164" fill="#000000" font-size="13" x="37.0" y="13.325" font-family="微软雅黑" font-weight="normal" font-style="italic" text-decoration="none" family="微软雅黑" text-anchor="middle" size="13">B</text></g></g><g id="ProcessOnG1165" transform="matrix(1.0,0.0,0.0,1.0,220.5,855.0)" opacity="1.0"><path id="ProcessOnPath1166" d="M0.0 0.0L96.0 0.0L96.0 32.0L0.0 32.0Z" stroke="#323232" stroke-width="2.0" stroke-dasharray="none" opacity="1.0" fill="#ccffff"/><g id="ProcessOnG1167" transform="matrix(1.0,0.0,0.0,1.0,10.0,7.875)"><text id="ProcessOnText1168" fill="#000000" font-size="13" x="37.0" y="13.325" font-family="微软雅黑" font-weight="normal" font-style="italic" text-decoration="none" family="微软雅黑" text-anchor="middle" size="13">C</text></g></g><g id="ProcessOnG1169" transform="matrix(1.0,0.0,0.0,1.0,220.5,887.0)" opacity="1.0"><path id="ProcessOnPath1170" d="M0.0 0.0L96.0 0.0L96.0 32.0L0.0 32.0Z" stroke="#323232" stroke-width="2.0" stroke-dasharray="none" opacity="1.0" fill="#ffcccc"/><g id="ProcessOnG1171" transform="matrix(1.0,0.0,0.0,1.0,10.0,7.875)"><text id="ProcessOnText1172" fill="#000000" font-size="13" x="37.0" y="13.325" font-family="微软雅黑" font-weight="normal" font-style="italic" text-decoration="none" family="微软雅黑" text-anchor="middle" size="13">D</text></g></g><g id="ProcessOnG1173" transform="matrix(1.0,0.0,0.0,1.0,220.5,919.0)" opacity="1.0"><path id="ProcessOnPath1174" d="M0.0 0.0L96.0 0.0L96.0 32.0L0.0 32.0Z" stroke="#323232" stroke-width="2.0" stroke-dasharray="none" opacity="1.0" fill="#ccffff"/><g id="ProcessOnG1175" transform="matrix(1.0,0.0,0.0,1.0,10.0,7.875)"><text id="ProcessOnText1176" fill="#000000" font-size="13" x="37.0" y="13.325" font-family="微软雅黑" font-weight="normal" font-style="italic" text-decoration="none" family="微软雅黑" text-anchor="middle" size="13">E</text></g></g><g id="ProcessOnG1177" transform="matrix(1.0,0.0,0.0,1.0,666.0,796.0)" opacity="1.0"><path id="ProcessOnPath1178" d="M0.0 0.0L96.0 0.0L96.0 32.0L0.0 32.0Z" stroke="#323232" stroke-width="2.0" stroke-dasharray="none" opacity="1.0" fill="#ffffff"/><g id="ProcessOnG1179" transform="matrix(1.0,0.0,0.0,1.0,10.0,7.875)"><text id="ProcessOnText1180" fill="#000000" font-size="13" x="37.0" y="13.325" font-family="微软雅黑" font-weight="normal" font-style="italic" text-decoration="none" family="微软雅黑" text-anchor="middle" size="13">D</text></g></g><g id="ProcessOnG1181" transform="matrix(1.0,0.0,0.0,1.0,666.0,776.0)" opacity="1.0"><path id="ProcessOnPath1182" d="M0.0 0.0L81.0 0.0L81.0 20.0L0.0 20.0Z" stroke="none" stroke-width="0.0" stroke-dasharray="none" opacity="1.0" fill="none"/><g id="ProcessOnG1183" transform="matrix(1.0,0.0,0.0,1.0,0.0,1.875)"><text id="ProcessOnText1184" fill="#000000" font-size="13" x="0.0" y="13.325" font-family="微软雅黑" font-weight="normal" font-style="normal" text-decoration="none" family="微软雅黑" text-anchor="start" size="13">previous</text></g></g><g id="ProcessOnG1185" transform="matrix(1.0,0.0,0.0,1.0,326.375,796.0)" opacity="1.0"><path id="ProcessOnPath1186" d="M0.0 0.0L311.25 0.0L311.25 22.0L0.0 22.0Z" stroke="none" stroke-width="0.0" stroke-dasharray="none" opacity="1.0" fill="none"/><g id="ProcessOnG1187" transform="matrix(1.0,0.0,0.0,1.0,0.0,0.0)"><text id="ProcessOnText1188" fill="#ff6666" font-size="13" x="0.0" y="13.325" font-family="微软雅黑" font-weight="normal" font-style="normal" text-decoration="none" family="微软雅黑" text-anchor="start" size="13"> 将 previous 剩余所有的 key 从 serviceMap 中移除</text></g></g><g id="ProcessOnG1189" transform="matrix(1.0,0.0,0.0,1.0,54.0,259.0)" opacity="1.0"><path id="ProcessOnPath1190" d="M0.0 0.0L247.5 0.0L247.5 29.0L0.0 29.0Z" stroke="none" stroke-width="0.0" stroke-dasharray="none" opacity="1.0" fill="none"/><g id="ProcessOnG1191" transform="matrix(1.0,0.0,0.0,1.0,0.0,3.25)"><text id="ProcessOnText1192" fill="#000000" font-size="18" x="0.0" y="18.45" font-family="微软雅黑" font-weight="normal" font-style="normal" text-decoration="none" family="微软雅黑" text-anchor="start" size="18">serviceMap.merge(current)</text></g></g><g id="ProcessOnG1193" transform="matrix(1.0,0.0,0.0,1.0,54.0,521.0)" opacity="1.0"><path id="ProcessOnPath1194" d="M0.0 0.0L247.5 0.0L247.5 29.0L0.0 29.0Z" stroke="none" stroke-width="0.0" stroke-dasharray="none" opacity="1.0" fill="none"/><g id="ProcessOnG1195" transform="matrix(1.0,0.0,0.0,1.0,0.0,3.25)"><text id="ProcessOnText1196" fill="#000000" font-size="18" x="0.0" y="18.45" font-family="微软雅黑" font-weight="normal" font-style="normal" text-decoration="none" family="微软雅黑" text-anchor="start" size="18">previous.filter(current)</text></g></g><g id="ProcessOnG1197" transform="matrix(1.0,0.0,0.0,1.0,54.0,732.0)" opacity="1.0"><path id="ProcessOnPath1198" d="M0.0 0.0L272.375 0.0L272.375 30.0L0.0 30.0Z" stroke="none" stroke-width="0.0" stroke-dasharray="none" opacity="1.0" fill="none"/><g id="ProcessOnG1199" transform="matrix(1.0,0.0,0.0,1.0,0.0,3.75)"><text id="ProcessOnText1200" fill="#000000" font-size="18" x="0.0" y="18.45" font-family="微软雅黑" font-weight="normal" font-style="normal" text-decoration="none" family="微软雅黑" text-anchor="start" size="18">serviceMap.unmerge(previous)</text></g></g><g id="ProcessOnG1201" transform="matrix(1.0,0.0,0.0,1.0,737.0,1111.0)" opacity="1.0"><path id="ProcessOnPath1202" d="M0.0 0.0L164.0 0.0L164.0 32.0L0.0 32.0Z" stroke="#323232" stroke-width="2.0" stroke-dasharray="none" opacity="1.0" fill="#ffffff"/><g id="ProcessOnG1203" transform="matrix(1.0,0.0,0.0,1.0,10.0,7.875)"><text id="ProcessOnText1204" fill="#000000" font-size="13" x="71.0" y="13.325" font-family="微软雅黑" font-weight="normal" font-style="normal" text-decoration="none" family="微软雅黑" text-anchor="middle" size="13">HealthCheckNodePort</text></g></g><g id="ProcessOnG1205" transform="matrix(1.0,0.0,0.0,1.0,737.0,1091.0)" opacity="1.0"><path id="ProcessOnPath1206" d="M0.0 0.0L110.0 0.0L110.0 20.0L0.0 20.0Z" stroke="none" stroke-width="0.0" stroke-dasharray="none" opacity="1.0" fill="none"/><g id="ProcessOnG1207" transform="matrix(1.0,0.0,0.0,1.0,0.0,1.875)"><text id="ProcessOnText1208" fill="#000000" font-size="13" x="0.0" y="13.325" font-family="微软雅黑" font-weight="normal" font-style="normal" text-decoration="none" family="微软雅黑" text-anchor="start" size="13">BaseServiceInfo</text></g></g><g id="ProcessOnG1209" transform="matrix(1.0,0.0,0.0,1.0,105.0,1042.0)" opacity="1.0"><path id="ProcessOnPath1210" d="M0.0 0.0L164.0 0.0L164.0 32.0L0.0 32.0Z" stroke="#323232" stroke-width="2.0" stroke-dasharray="none" opacity="1.0" fill="#ffffff"/><g id="ProcessOnG1211" transform="matrix(1.0,0.0,0.0,1.0,10.0,7.875)"><text id="ProcessOnText1212" fill="#000000" font-size="13" x="71.0" y="13.325" font-family="微软雅黑" font-weight="normal" font-style="normal" text-decoration="none" family="微软雅黑" text-anchor="middle" size="13">HCServiceNodePorts</text></g></g><g id="ProcessOnG1213" transform="matrix(1.0,0.0,0.0,1.0,105.0,1022.0)" opacity="1.0"><path id="ProcessOnPath1214" d="M0.0 0.0L158.0 0.0L158.0 20.0L0.0 20.0Z" stroke="none" stroke-width="0.0" stroke-dasharray="none" opacity="1.0" fill="none"/><g id="ProcessOnG1215" transform="matrix(1.0,0.0,0.0,1.0,0.0,1.875)"><text id="ProcessOnText1216" fill="#000000" font-size="13" x="0.0" y="13.325" font-family="微软雅黑" font-weight="normal" font-style="normal" text-decoration="none" family="微软雅黑" text-anchor="start" size="13">UpdateServiceMapResult</text></g></g><g id="ProcessOnG1217" transform="matrix(1.0,0.0,0.0,1.0,105.0,1074.0)" opacity="1.0"><path id="ProcessOnPath1218" d="M0.0 0.0L164.0 0.0L164.0 32.0L0.0 32.0Z" stroke="#323232" stroke-width="2.0" stroke-dasharray="none" opacity="1.0" fill="#ffffff"/><g id="ProcessOnG1219" transform="matrix(1.0,0.0,0.0,1.0,10.0,7.875)"><text id="ProcessOnText1220" fill="#000000" font-size="13" x="71.0" y="13.325" font-family="微软雅黑" font-weight="normal" font-style="normal" text-decoration="none" family="微软雅黑" text-anchor="middle" size="13">UDPStaleClusterIP</text></g></g><g id="ProcessOnG1221"><path id="ProcessOnPath1222" d="M269.0 1090.0C311.3093370309675 1090.0 297.0 1149.6906629690325 297.0 1192.0" stroke="#323232" stroke-width="2.0" stroke-dasharray="none" fill="none" marker-end="url(#ProcessOnMarker1223)"/></g><g id="ProcessOnG1225" transform="matrix(1.0,0.0,0.0,1.0,282.0,1192.0)" opacity="1.0"><path id="ProcessOnPath1226" d="M0.0 0.0L30.0 0.0L30.0 30.0L0.0 30.0Z" stroke="#323232" stroke-width="2.0" stroke-dasharray="none" opacity="1.0" fill="#ffffff"/></g><g id="ProcessOnG1227" transform="matrix(1.0,0.0,0.0,1.0,312.0,1192.0)" opacity="1.0"><path id="ProcessOnPath1228" d="M0.0 0.0L30.0 0.0L30.0 30.0L0.0 30.0Z" stroke="#323232" stroke-width="2.0" stroke-dasharray="none" opacity="1.0" fill="#ffffff"/></g><g id="ProcessOnG1229" transform="matrix(1.0,0.0,0.0,1.0,342.0,1192.0)" opacity="1.0"><path id="ProcessOnPath1230" d="M0.0 0.0L30.0 0.0L30.0 30.0L0.0 30.0Z" stroke="#323232" stroke-width="2.0" stroke-dasharray="none" opacity="1.0" fill="#ffffff"/></g><g id="ProcessOnG1231" transform="matrix(1.0,0.0,0.0,1.0,372.0,1192.0)" opacity="1.0"><path id="ProcessOnPath1232" d="M0.0 0.0L30.0 0.0L30.0 30.0L0.0 30.0Z" stroke="#323232" stroke-width="2.0" stroke-dasharray="none" opacity="1.0" fill="#ffffff"/></g><g id="ProcessOnG1233" transform="matrix(1.0,0.0,0.0,1.0,31.875,1244.0)" opacity="1.0"><path id="ProcessOnPath1234" d="M0.0 0.0L688.125 0.0L688.125 76.0L0.0 76.0Z" stroke="none" stroke-width="0.0" stroke-dasharray="none" opacity="1.0" fill="none"/><g id="ProcessOnG1235" transform="matrix(1.0,0.0,0.0,1.0,0.0,0.0)"><text id="ProcessOnText1236" fill="#ff6666" font-size="13" x="0.0" y="13.325" font-family="微软雅黑" font-weight="normal" font-style="normal" text-decoration="none" family="微软雅黑" text-anchor="start" size="13"> </text><text id="ProcessOnText1237" fill="#ff6666" font-size="13" x="0.0" y="29.575" font-family="微软雅黑" font-weight="normal" font-style="normal" text-decoration="none" family="微软雅黑" text-anchor="start" size="13"> HCServiceNodePorts: serviceMap 剩余的 key，到健康检查 Port 的映射；如果 port 为 0，不需要检查；</text><text id="ProcessOnText1238" fill="#ff6666" font-size="13" x="0.0" y="45.825" font-family="微软雅黑" font-weight="normal" font-style="normal" text-decoration="none" family="微软雅黑" text-anchor="start" size="13"></text><text id="ProcessOnText1239" fill="#ff6666" font-size="13" x="0.0" y="62.075" font-family="微软雅黑" font-weight="normal" font-style="normal" text-decoration="none" family="微软雅黑" text-anchor="start" size="13"> UDPStaleClusterIP: 从 serviceMap 中移除的 UDP Port 集合</text></g></g><g id="ProcessOnG1240" transform="matrix(1.0,0.0,0.0,1.0,378.375,1005.5)" opacity="1.0"><path id="ProcessOnPath1241" d="M0.0 0.0L291.25 0.0L291.25 53.0L0.0 53.0Z" stroke="#323232" stroke-width="2.0" stroke-dasharray="none" opacity="1.0" fill="#ffffcc"/></g><g id="ProcessOnG1242" transform="matrix(1.0,0.0,0.0,1.0,406.875,1016.0)" opacity="1.0"><path id="ProcessOnPath1243" d="M0.0 0.0L98.0 0.0L98.0 32.0L0.0 32.0Z" stroke="#323232" stroke-width="2.0" stroke-dasharray="none" opacity="1.0" fill="#ffffff"/><g id="ProcessOnG1244" transform="matrix(1.0,0.0,0.0,1.0,10.0,7.875)"><text id="ProcessOnText1245" fill="#000000" font-size="13" x="38.0" y="13.325" font-family="微软雅黑" font-weight="normal" font-style="italic" text-decoration="none" family="微软雅黑" text-anchor="middle" size="13">key</text></g></g><g id="ProcessOnG1246" transform="matrix(1.0,0.0,0.0,1.0,557.875,1016.0)" opacity="1.0"><path id="ProcessOnPath1247" d="M0.0 0.0L98.0 0.0L98.0 32.0L0.0 32.0Z" stroke="#323232" stroke-width="2.0" stroke-dasharray="none" opacity="1.0" fill="#ffffff"/><g id="ProcessOnG1248" transform="matrix(1.0,0.0,0.0,1.0,10.0,7.875)"><text id="ProcessOnText1249" fill="#000000" font-size="13" x="38.0" y="13.325" font-family="微软雅黑" font-weight="normal" font-style="italic" text-decoration="none" family="微软雅黑" text-anchor="middle" size="13">value</text></g></g><g id="ProcessOnG1250"><path id="ProcessOnPath1251" d="M269.0 1058.0C317.2346314996765 1058.0 336.959634586668 983.8826842501618 378.7320508075689 1008.0" stroke="#323232" stroke-width="2.0" stroke-dasharray="none" fill="none" marker-end="url(#ProcessOnMarker1252)"/></g><g id="ProcessOnG1254" transform="matrix(1.0,0.0,0.0,1.0,387.875,1136.0)" opacity="1.0"><path id="ProcessOnPath1255" d="M0.0 0.0L136.0 0.0L136.0 32.0L0.0 32.0Z" stroke="#323232" stroke-width="2.0" stroke-dasharray="none" opacity="1.0" fill="#ffffff"/><g id="ProcessOnG1256" transform="matrix(1.0,0.0,0.0,1.0,10.0,-0.25)"><text id="ProcessOnText1257" fill="#000000" font-size="13" x="57.0" y="13.325" font-family="微软雅黑" font-weight="normal" font-style="normal" text-decoration="none" family="微软雅黑" text-anchor="middle" size="13">NamespacedNam</text><text id="ProcessOnText1258" fill="#000000" font-size="13" x="57.0" y="29.575" font-family="微软雅黑" font-weight="normal" font-style="normal" text-decoration="none" family="微软雅黑" text-anchor="middle" size="13">e</text></g></g><g id="ProcessOnG1259"><path id="ProcessOnPath1260" d="M455.875 1048.0C455.875 1083.2 455.875 1100.8 455.875 1136.0" stroke="#323232" stroke-width="2.0" stroke-dasharray="10.0 4.0" fill="none" marker-end="url(#ProcessOnMarker1261)"/><g id="ProcessOnG1263" transform="matrix(1.0,0.0,0.0,1.0,455.875,1083.875)"><path id="ProcessOnPath1264" d="M0 0H44.0V16.25H0Z" fill="#fff" transform="matrix(1.0,0.0,0.0,1.0,-22.0,0.0)"/><text id="ProcessOnText1265" fill="#000000" font-size="13" x="0.0" y="13.325" font-family="微软雅黑" font-weight="normal" font-style="normal" text-decoration="none" family="微软雅黑" text-anchor="middle" size="13">type of</text></g></g><g id="ProcessOnG1266" transform="matrix(1.0,0.0,0.0,1.0,737.0,1229.0)" opacity="1.0"><path id="ProcessOnPath1267" d="M0.0 0.0L164.0 0.0L164.0 32.0L0.0 32.0Z" stroke="#323232" stroke-width="2.0" stroke-dasharray="none" opacity="1.0" fill="#ffffff"/></g><g id="ProcessOnG1268" transform="matrix(1.0,0.0,0.0,1.0,737.0,1209.0)" opacity="1.0"><path id="ProcessOnPath1269" d="M0.0 0.0L110.0 0.0L110.0 20.0L0.0 20.0Z" stroke="none" stroke-width="0.0" stroke-dasharray="none" opacity="1.0" fill="none"/><g id="ProcessOnG1270" transform="matrix(1.0,0.0,0.0,1.0,0.0,1.875)"><text id="ProcessOnText1271" fill="#000000" font-size="13" x="0.0" y="13.325" font-family="微软雅黑" font-weight="normal" font-style="normal" text-decoration="none" family="微软雅黑" text-anchor="start" size="13">serviceInfo</text></g></g><g id="ProcessOnG1272"><path id="ProcessOnPath1273" d="M901.0 1245.0C948.2 1245.0 948.2 1127.0 901.0 1127.0" stroke="#323232" stroke-width="2.0" stroke-dasharray="none" fill="none" marker-end="url(#ProcessOnMarker1274)"/></g><g id="ProcessOnG1276"><path id="ProcessOnPath1277" d="M606.875 1048.0C606.875 1100.8 606.875 1127.2 606.875 1180.0" stroke="#323232" stroke-width="2.0" stroke-dasharray="10.0 4.0" fill="none" marker-end="url(#ProcessOnMarker1278)"/><g id="ProcessOnG1280" transform="matrix(1.0,0.0,0.0,1.0,606.875,1105.875)"><path id="ProcessOnPath1281" d="M0 0H16.0V16.25H0Z" fill="#fff" transform="matrix(1.0,0.0,0.0,1.0,-8.0,0.0)"/><text id="ProcessOnText1282" fill="#000000" font-size="13" x="0.0" y="13.325" font-family="微软雅黑" font-weight="normal" font-style="normal" text-decoration="none" family="微软雅黑" text-anchor="middle" size="13">int</text></g></g><g id="ProcessOnG1283" transform="matrix(1.0,0.0,0.0,1.0,524.875,1180.0)" opacity="1.0"><path id="ProcessOnPath1284" d="M0.0 0.0L164.0 0.0L164.0 32.0L0.0 32.0Z" stroke="#323232" stroke-width="2.0" stroke-dasharray="none" opacity="1.0" fill="#ffffff"/><g id="ProcessOnG1285" transform="matrix(1.0,0.0,0.0,1.0,10.0,7.875)"><text id="ProcessOnText1286" fill="#000000" font-size="13" x="71.0" y="13.325" font-family="微软雅黑" font-weight="normal" font-style="italic" text-decoration="none" family="微软雅黑" text-anchor="middle" size="13">HealthCheckNodePort</text></g></g><g id="ProcessOnG1287"><path id="ProcessOnPath1288" d="M688.875 1196.0C722.525 1196.0 703.35 1127.0 737.0 1127.0" stroke="#323232" stroke-width="2.0" stroke-dasharray="none" fill="none" marker-end="url(#ProcessOnMarker1289)"/><g id="ProcessOnG1291" transform="matrix(1.0,0.0,0.0,1.0,712.9375,1153.375)"><path id="ProcessOnPath1292" d="M0 0H30.0V16.25H0Z" fill="#fff" transform="matrix(1.0,0.0,0.0,1.0,-15.0,0.0)"/><text id="ProcessOnText1293" fill="#000000" font-size="13" x="0.0" y="13.325" font-family="微软雅黑" font-weight="normal" font-style="normal" text-decoration="none" family="微软雅黑" text-anchor="middle" size="13">from</text></g></g><g id="ProcessOnG1294" transform="matrix(1.0,0.0,0.0,1.0,54.0,978.0)" opacity="1.0"><path id="ProcessOnPath1295" d="M0.0 0.0L272.375 0.0L272.375 30.0L0.0 30.0Z" stroke="none" stroke-width="0.0" stroke-dasharray="none" opacity="1.0" fill="none"/><g id="ProcessOnG1296" transform="matrix(1.0,0.0,0.0,1.0,0.0,3.75)"><text id="ProcessOnText1297" fill="#000000" font-size="18" x="0.0" y="18.45" font-family="微软雅黑" font-weight="normal" font-style="normal" text-decoration="none" family="微软雅黑" text-anchor="start" size="18">return value</text></g></g></g></g></svg>