<svg xmlns="http://www.w3.org/2000/svg" xmlns:xlink="http://www.w3.org/1999/xlink" id="processonSvg1000" viewBox="90.4444580078125 41.05560302734375 1025.1544994279982 465.0" width="1025.1544994279982" height="465.0"><defs id="ProcessOnDefs1001"><marker id="ProcessOnMarker1017" markerUnits="userSpaceOnUse" orient="auto" markerWidth="16.23606797749979" markerHeight="10.550836550532098" viewBox="-1.0 -1.3763819204711736 16.23606797749979 10.550836550532098" refX="15.23606797749979" refY="3.8990363547948754"><path id="ProcessOnPath1018" d="M12.0 3.8990363547948754L0.0 7.798072709589751V0.0Z" stroke="#323232" stroke-width="2.0" fill="#fff" transform="matrix(-1.0,1.2246467991473532E-16,-1.2246467991473532E-16,-1.0,14.23606797749979,7.798072709589751)"/></marker><marker id="ProcessOnMarker1028" markerUnits="userSpaceOnUse" orient="auto" markerWidth="16.23606797749979" markerHeight="10.550836550532098" viewBox="-1.0 -1.3763819204711736 16.23606797749979 10.550836550532098" refX="15.23606797749979" refY="3.8990363547948754"><path id="ProcessOnPath1029" d="M12.0 3.8990363547948754L0.0 7.798072709589751V0.0Z" stroke="#323232" stroke-width="2.0" fill="#fff" transform="matrix(-1.0,1.2246467991473532E-16,-1.2246467991473532E-16,-1.0,14.23606797749979,7.798072709589751)"/></marker><marker id="ProcessOnMarker1039" markerUnits="userSpaceOnUse" orient="auto" markerWidth="16.23606797749979" markerHeight="10.550836550532098" viewBox="-1.0 -1.3763819204711736 16.23606797749979 10.550836550532098" refX="15.23606797749979" refY="3.8990363547948754"><path id="ProcessOnPath1040" d="M12.0 3.8990363547948754L0.0 7.798072709589751V0.0Z" stroke="#000000" stroke-width="2.0" fill="#fff" transform="matrix(-1.0,1.2246467991473532E-16,-1.2246467991473532E-16,-1.0,14.23606797749979,7.798072709589751)"/></marker><marker id="ProcessOnMarker1046" markerUnits="userSpaceOnUse" orient="auto" markerWidth="16.23606797749979" markerHeight="10.550836550532098" viewBox="-1.0 -1.3763819204711736 16.23606797749979 10.550836550532098" refX="-1.0" refY="3.8990363547948754"><path id="ProcessOnPath1047" d="M12.0 3.8990363547948754L0.0 7.798072709589751V0.0Z" stroke="#000000" stroke-width="2.0" fill="#000000" transform="matrix(1.0,0.0,0.0,1.0,0.0,0.0)"/></marker><marker id="ProcessOnMarker1053" markerUnits="userSpaceOnUse" orient="auto" markerWidth="16.23606797749979" markerHeight="10.550836550532098" viewBox="-1.0 -1.3763819204711736 16.23606797749979 10.550836550532098" refX="-1.0" refY="3.8990363547948754"><path id="ProcessOnPath1054" d="M12.0 3.8990363547948754L0.0 7.798072709589751V0.0Z" stroke="#000000" stroke-width="2.0" fill="#fff" transform="matrix(1.0,0.0,0.0,1.0,0.0,0.0)"/></marker></defs><g id="ProcessOnG1002"><path id="ProcessOnPath1003" d="M90.4444580078125 41.05560302734375H1115.5989574358107V506.05560302734375H90.4444580078125V41.05560302734375Z" fill="none"/><g id="ProcessOnG1004"><g id="ProcessOnG1005" transform="matrix(1.0,0.0,0.0,1.0,482.4444580078125,61.05560302734375)" opacity="1.0"><path id="ProcessOnPath1006" d="M0.0 0.0L171.0 0.0L171.0 68.0L0.0 68.0Z" stroke="#ff0000" stroke-width="2.0" stroke-dasharray="none" opacity="1.0" fill="#ffffff"/><g id="ProcessOnG1007" transform="matrix(1.0,0.0,0.0,1.0,10.0,22.75)"><text id="ProcessOnText1008" fill="#ff0000" font-size="18" x="74.5" y="18.45" font-family="微软雅黑" font-weight="bold" font-style="normal" text-decoration="none" family="微软雅黑" text-anchor="middle" size="18">事务管理器 TM</text></g></g><g id="ProcessOnG1009" transform="matrix(1.0,0.0,0.0,1.0,132.4444580078125,374.05560302734375)" opacity="1.0"><path id="ProcessOnPath1010" d="M0.0 0.0L171.0 0.0L171.0 68.0L0.0 68.0Z" stroke="#323232" stroke-width="2.0" stroke-dasharray="none" opacity="1.0" fill="#ffffff"/><g id="ProcessOnG1011" transform="matrix(1.0,0.0,0.0,1.0,10.0,22.75)"><text id="ProcessOnText1012" fill="#000000" font-size="18" x="74.5" y="18.45" font-family="微软雅黑" font-weight="bold" font-style="normal" text-decoration="none" family="微软雅黑" text-anchor="middle" size="18">资源管理器 RM</text></g></g><g id="ProcessOnG1013" transform="matrix(1.0,0.0,0.0,1.0,110.4444580078125,138.05560302734375)" opacity="1.0"><path id="ProcessOnPath1014" d="M0.0 0.0L927.0 0.0L927.0 25.0L0.0 25.0Z" stroke="#323232" stroke-width="2.0" stroke-dasharray="10.0 4.0" opacity="1.0" fill="#ffffff"/></g><g id="ProcessOnG1015"><path id="ProcessOnPath1016" d="M153.4444580078125 177.29167100484355L153.4444580078125 268.05560302734375L153.4444580078125 268.05560302734375L153.4444580078125 374.05560302734375" stroke="#323232" stroke-width="2.0" stroke-dasharray="none" fill="none" marker-start="url(#ProcessOnMarker1017)"/><g id="ProcessOnG1019" transform="matrix(1.0,0.0,0.0,1.0,153.4444580078125,265.67363701609366)"><path id="ProcessOnPath1020" d="M0 0H48.0V20.0H0Z" fill="#fff" transform="matrix(1.0,0.0,0.0,1.0,-24.0,0.0)"/><text id="ProcessOnText1021" fill="#000000" font-size="16" x="0.0" y="16.4" font-family="微软雅黑" font-weight="bold" font-style="normal" text-decoration="none" family="微软雅黑" text-anchor="middle" size="16">Agree</text></g></g><g id="ProcessOnG1022" transform="matrix(1.0,0.0,0.0,1.0,482.4444580078125,378.05560302734375)" opacity="1.0"><path id="ProcessOnPath1023" d="M0.0 0.0L171.0 0.0L171.0 68.0L0.0 68.0Z" stroke="#323232" stroke-width="2.0" stroke-dasharray="none" opacity="1.0" fill="#ffffff"/><g id="ProcessOnG1024" transform="matrix(1.0,0.0,0.0,1.0,10.0,22.75)"><text id="ProcessOnText1025" fill="#000000" font-size="18" x="74.5" y="18.45" font-family="微软雅黑" font-weight="bold" font-style="normal" text-decoration="none" family="微软雅黑" text-anchor="middle" size="18">资源管理器 RM</text></g></g><g id="ProcessOnG1026"><path id="ProcessOnPath1027" d="M503.4444580078125 181.29167100484355L503.4444580078125 272.05560302734375L503.4444580078125 272.05560302734375L503.4444580078125 378.05560302734375" stroke="#323232" stroke-width="2.0" stroke-dasharray="none" fill="none" marker-start="url(#ProcessOnMarker1028)"/><g id="ProcessOnG1030" transform="matrix(1.0,0.0,0.0,1.0,503.4444580078125,269.67363701609366)"><path id="ProcessOnPath1031" d="M0 0H48.0V20.0H0Z" fill="#fff" transform="matrix(1.0,0.0,0.0,1.0,-24.0,0.0)"/><text id="ProcessOnText1032" fill="#000000" font-size="16" x="0.0" y="16.4" font-family="微软雅黑" font-weight="bold" font-style="normal" text-decoration="none" family="微软雅黑" text-anchor="middle" size="16">Agree</text></g></g><g id="ProcessOnG1033" transform="matrix(1.0,0.0,0.0,1.0,840.4444580078125,378.05560302734375)" opacity="1.0"><path id="ProcessOnPath1034" d="M0.0 0.0L171.0 0.0L171.0 68.0L0.0 68.0Z" stroke="#ff0000" stroke-width="2.0" stroke-dasharray="none" opacity="1.0" fill="#ffffff"/><g id="ProcessOnG1035" transform="matrix(1.0,0.0,0.0,1.0,10.0,22.75)"><text id="ProcessOnText1036" fill="#ff0000" font-size="18" x="74.5" y="18.45" font-family="微软雅黑" font-weight="bold" font-style="normal" text-decoration="none" family="微软雅黑" text-anchor="middle" size="18">资源管理器 RM</text></g></g><g id="ProcessOnG1037"><path id="ProcessOnPath1038" d="M854.4583282470703 177.82286759908183L854.4583282470703 270.58679962158203L853.4583282470703 270.58679962158203L853.4583282470703 378.58679962158203" stroke="#000000" stroke-width="2.0" stroke-dasharray="none" fill="none" marker-start="url(#ProcessOnMarker1039)"/><g id="ProcessOnG1041" transform="matrix(1.0,0.0,0.0,1.0,853.4583282470703,267.70483361033195)"><path id="ProcessOnPath1042" d="M0 0H114.0V20.0H0Z" fill="#fff" transform="matrix(1.0,0.0,0.0,1.0,-57.0,0.0)"/><text id="ProcessOnText1043" fill="#ff0000" font-size="16" x="0.0" y="16.4" font-family="微软雅黑" font-weight="bold" font-style="normal" text-decoration="none" family="微软雅黑" text-anchor="middle" size="16">Agree / Abort</text></g></g><g id="ProcessOnG1044"><path id="ProcessOnPath1045" d="M957.4583282470703 445.58679962158203L957.4583282470703 476.05560302734375L1041.4444580078125 476.05560302734375L1041.4444580078125 412.05560302734375L1026.6805259853122 412.05560302734375" stroke="#000000" stroke-width="2.0" stroke-dasharray="none" fill="none" marker-end="url(#ProcessOnMarker1046)"/><g id="ProcessOnG1048" transform="matrix(1.0,0.0,0.0,1.0,1023.5989574358107,466.05560302734375)"><path id="ProcessOnPath1049" d="M0 0H144.0V20.0H0Z" fill="#fff" transform="matrix(1.0,0.0,0.0,1.0,-72.0,0.0)"/><text id="ProcessOnText1050" fill="#ff0000" font-size="16" x="0.0" y="16.4" font-family="微软雅黑" font-weight="bold" font-style="normal" text-decoration="none" family="微软雅黑" text-anchor="middle" size="16">Commit/Rollback</text></g></g><g id="ProcessOnG1051"><path id="ProcessOnPath1052" d="M987.4583282470703 162.58679962158203L987.4583282470703 270.58679962158203L987.4583282470703 270.58679962158203L987.4583282470703 363.35073164408226" stroke="#000000" stroke-width="2.0" stroke-dasharray="none" fill="none" marker-end="url(#ProcessOnMarker1053)"/><g id="ProcessOnG1055" transform="matrix(1.0,0.0,0.0,1.0,987.4583282470703,252.96876563283217)"><path id="ProcessOnPath1056" d="M0 0H144.0V20.0H0Z" fill="#fff" transform="matrix(1.0,0.0,0.0,1.0,-72.0,0.0)"/><text id="ProcessOnText1057" fill="#ff0000" font-size="16" x="0.0" y="16.4" font-family="微软雅黑" font-weight="bold" font-style="normal" text-decoration="none" family="微软雅黑" text-anchor="middle" size="16">Commit/Rollback</text></g></g></g></g></svg>