<svg xmlns="http://www.w3.org/2000/svg" xmlns:xlink="http://www.w3.org/1999/xlink" id="processonSvg1000" viewBox="71.77783203125 114.166748046875 967.0 496.0" width="967.0" height="496.0"><defs id="ProcessOnDefs1001"><marker id="ProcessOnMarker1017" markerUnits="userSpaceOnUse" orient="auto" markerWidth="16.23606797749979" markerHeight="10.550836550532098" viewBox="-1.0 -1.3763819204711736 16.23606797749979 10.550836550532098" refX="15.23606797749979" refY="3.8990363547948754"><path id="ProcessOnPath1018" d="M12.0 3.8990363547948754L0.0 7.798072709589751V0.0Z" stroke="#323232" stroke-width="2.0" fill="#fff" transform="matrix(-1.0,1.2246467991473532E-16,-1.2246467991473532E-16,-1.0,14.23606797749979,7.798072709589751)"/></marker><marker id="ProcessOnMarker1024" markerUnits="userSpaceOnUse" orient="auto" markerWidth="16.23606797749979" markerHeight="10.550836550532098" viewBox="-1.0 -1.3763819204711736 16.23606797749979 10.550836550532098" refX="-1.0" refY="3.8990363547948754"><path id="ProcessOnPath1025" d="M12.0 3.8990363547948754L0.0 7.798072709589751V0.0Z" stroke="#323232" stroke-width="2.0" fill="#323232" transform="matrix(1.0,0.0,0.0,1.0,0.0,0.0)"/></marker><marker id="ProcessOnMarker1028" markerUnits="userSpaceOnUse" orient="auto" markerWidth="16.23606797749979" markerHeight="10.550836550532098" viewBox="-1.0 -1.3763819204711736 16.23606797749979 10.550836550532098" refX="-1.0" refY="3.8990363547948754"><path id="ProcessOnPath1029" d="M12.0 3.8990363547948754L0.0 7.798072709589751V0.0Z" stroke="#323232" stroke-width="2.0" fill="#fff" transform="matrix(1.0,0.0,0.0,1.0,0.0,0.0)"/></marker><marker id="ProcessOnMarker1035" markerUnits="userSpaceOnUse" orient="auto" markerWidth="16.23606797749979" markerHeight="10.550836550532098" viewBox="-1.0 -1.3763819204711736 16.23606797749979 10.550836550532098" refX="-1.0" refY="3.8990363547948754"><path id="ProcessOnPath1036" d="M12.0 3.8990363547948754L0.0 7.798072709589751V0.0Z" stroke="#ff0000" stroke-width="2.0" fill="#fff" transform="matrix(1.0,0.0,0.0,1.0,0.0,0.0)"/></marker><marker id="ProcessOnMarker1050" markerUnits="userSpaceOnUse" orient="auto" markerWidth="16.23606797749979" markerHeight="10.550836550532098" viewBox="-1.0 -1.3763819204711736 16.23606797749979 10.550836550532098" refX="15.23606797749979" refY="3.8990363547948754"><path id="ProcessOnPath1051" d="M12.0 3.8990363547948754L0.0 7.798072709589751V0.0Z" stroke="#323232" stroke-width="2.0" fill="#fff" transform="matrix(-1.0,1.2246467991473532E-16,-1.2246467991473532E-16,-1.0,14.23606797749979,7.798072709589751)"/></marker><marker id="ProcessOnMarker1057" markerUnits="userSpaceOnUse" orient="auto" markerWidth="16.23606797749979" markerHeight="10.550836550532098" viewBox="-1.0 -1.3763819204711736 16.23606797749979 10.550836550532098" refX="-1.0" refY="3.8990363547948754"><path id="ProcessOnPath1058" d="M12.0 3.8990363547948754L0.0 7.798072709589751V0.0Z" stroke="#323232" stroke-width="2.0" fill="#323232" transform="matrix(1.0,0.0,0.0,1.0,0.0,0.0)"/></marker><marker id="ProcessOnMarker1061" markerUnits="userSpaceOnUse" orient="auto" markerWidth="16.23606797749979" markerHeight="10.550836550532098" viewBox="-1.0 -1.3763819204711736 16.23606797749979 10.550836550532098" refX="-1.0" refY="3.8990363547948754"><path id="ProcessOnPath1062" d="M12.0 3.8990363547948754L0.0 7.798072709589751V0.0Z" stroke="#323232" stroke-width="2.0" fill="#fff" transform="matrix(1.0,0.0,0.0,1.0,0.0,0.0)"/></marker><marker id="ProcessOnMarker1068" markerUnits="userSpaceOnUse" orient="auto" markerWidth="16.23606797749979" markerHeight="10.550836550532098" viewBox="-1.0 -1.3763819204711736 16.23606797749979 10.550836550532098" refX="-1.0" refY="3.8990363547948754"><path id="ProcessOnPath1069" d="M12.0 3.8990363547948754L0.0 7.798072709589751V0.0Z" stroke="#ff0000" stroke-width="2.0" fill="#fff" transform="matrix(1.0,0.0,0.0,1.0,0.0,0.0)"/></marker><marker id="ProcessOnMarker1083" markerUnits="userSpaceOnUse" orient="auto" markerWidth="16.23606797749979" markerHeight="10.550836550532098" viewBox="-1.0 -1.3763819204711736 16.23606797749979 10.550836550532098" refX="15.23606797749979" refY="3.8990363547948754"><path id="ProcessOnPath1084" d="M12.0 3.8990363547948754L0.0 7.798072709589751V0.0Z" stroke="#ff0000" stroke-width="2.0" fill="#fff" transform="matrix(-1.0,1.2246467991473532E-16,-1.2246467991473532E-16,-1.0,14.23606797749979,7.798072709589751)"/></marker><marker id="ProcessOnMarker1090" markerUnits="userSpaceOnUse" orient="auto" markerWidth="16.23606797749979" markerHeight="10.550836550532098" viewBox="-1.0 -1.3763819204711736 16.23606797749979 10.550836550532098" refX="-1.0" refY="3.8990363547948754"><path id="ProcessOnPath1091" d="M12.0 3.8990363547948754L0.0 7.798072709589751V0.0Z" stroke="#323232" stroke-width="2.0" fill="#323232" transform="matrix(1.0,0.0,0.0,1.0,0.0,0.0)"/></marker><marker id="ProcessOnMarker1094" markerUnits="userSpaceOnUse" orient="auto" markerWidth="16.23606797749979" markerHeight="10.550836550532098" viewBox="-1.0 -1.3763819204711736 16.23606797749979 10.550836550532098" refX="-1.0" refY="3.8990363547948754"><path id="ProcessOnPath1095" d="M12.0 3.8990363547948754L0.0 7.798072709589751V0.0Z" stroke="#323232" stroke-width="2.0" fill="#fff" transform="matrix(1.0,0.0,0.0,1.0,0.0,0.0)"/></marker><marker id="ProcessOnMarker1101" markerUnits="userSpaceOnUse" orient="auto" markerWidth="16.23606797749979" markerHeight="10.550836550532098" viewBox="-1.0 -1.3763819204711736 16.23606797749979 10.550836550532098" refX="-1.0" refY="3.8990363547948754"><path id="ProcessOnPath1102" d="M12.0 3.8990363547948754L0.0 7.798072709589751V0.0Z" stroke="#ff0000" stroke-width="2.0" fill="#fff" transform="matrix(1.0,0.0,0.0,1.0,0.0,0.0)"/></marker></defs><g id="ProcessOnG1002"><path id="ProcessOnPath1003" d="M71.77783203125 114.166748046875H1038.77783203125V610.166748046875H71.77783203125V114.166748046875Z" fill="none"/><g id="ProcessOnG1004"><g id="ProcessOnG1005" transform="matrix(1.0,0.0,0.0,1.0,463.77783203125,134.166748046875)" opacity="1.0"><path id="ProcessOnPath1006" d="M0.0 0.0L171.0 0.0L171.0 68.0L0.0 68.0Z" stroke="#323232" stroke-width="2.0" stroke-dasharray="none" opacity="1.0" fill="#ffffff"/><g id="ProcessOnG1007" transform="matrix(1.0,0.0,0.0,1.0,10.0,22.75)"><text id="ProcessOnText1008" fill="#000000" font-size="18" x="74.5" y="18.45" font-family="微软雅黑" font-weight="bold" font-style="normal" text-decoration="none" family="微软雅黑" text-anchor="middle" size="18">事务管理器 TM</text></g></g><g id="ProcessOnG1009" transform="matrix(1.0,0.0,0.0,1.0,113.77783203125,447.166748046875)" opacity="1.0"><path id="ProcessOnPath1010" d="M0.0 0.0L171.0 0.0L171.0 68.0L0.0 68.0Z" stroke="#323232" stroke-width="2.0" stroke-dasharray="none" opacity="1.0" fill="#ffffff"/><g id="ProcessOnG1011" transform="matrix(1.0,0.0,0.0,1.0,10.0,22.75)"><text id="ProcessOnText1012" fill="#000000" font-size="18" x="74.5" y="18.45" font-family="微软雅黑" font-weight="bold" font-style="normal" text-decoration="none" family="微软雅黑" text-anchor="middle" size="18">资源管理器 RM</text></g></g><g id="ProcessOnG1013" transform="matrix(1.0,0.0,0.0,1.0,91.77783203125,211.166748046875)" opacity="1.0"><path id="ProcessOnPath1014" d="M0.0 0.0L927.0 0.0L927.0 25.0L0.0 25.0Z" stroke="#323232" stroke-width="2.0" stroke-dasharray="10.0 4.0" opacity="1.0" fill="#ffffff"/></g><g id="ProcessOnG1015"><path id="ProcessOnPath1016" d="M134.77783203125 250.4028160243748L134.77783203125 341.166748046875L134.77783203125 341.166748046875L134.77783203125 447.166748046875" stroke="#323232" stroke-width="2.0" stroke-dasharray="none" fill="none" marker-start="url(#ProcessOnMarker1017)"/><g id="ProcessOnG1019" transform="matrix(1.0,0.0,0.0,1.0,134.77783203125,338.7847820356249)"><path id="ProcessOnPath1020" d="M0 0H48.0V20.0H0Z" fill="#fff" transform="matrix(1.0,0.0,0.0,1.0,-24.0,0.0)"/><text id="ProcessOnText1021" fill="#000000" font-size="16" x="0.0" y="16.4" font-family="微软雅黑" font-weight="bold" font-style="normal" text-decoration="none" family="微软雅黑" text-anchor="middle" size="16">Agree</text></g></g><g id="ProcessOnG1022"><path id="ProcessOnPath1023" d="M199.27783203125 515.166748046875L199.27783203125 552.166748046875L261.77783203125 551.166748046875L261.77783203125 529.4028160243748" stroke="#323232" stroke-width="2.0" stroke-dasharray="none" fill="none" marker-end="url(#ProcessOnMarker1024)"/></g><g id="ProcessOnG1026"><path id="ProcessOnPath1027" d="M258.77783203125 447.166748046875L258.77783203125 341.166748046875L258.77783203125 341.166748046875L258.77783203125 250.4028160243748" stroke="#323232" stroke-width="2.0" stroke-dasharray="none" fill="none" marker-end="url(#ProcessOnMarker1028)"/><g id="ProcessOnG1030" transform="matrix(1.0,0.0,0.0,1.0,258.77783203125,338.7847820356249)"><path id="ProcessOnPath1031" d="M0 0H34.0V20.0H0Z" fill="#fff" transform="matrix(1.0,0.0,0.0,1.0,-17.0,0.0)"/><text id="ProcessOnText1032" fill="#000000" font-size="16" x="0.0" y="16.4" font-family="微软雅黑" font-weight="bold" font-style="normal" text-decoration="none" family="微软雅黑" text-anchor="middle" size="16">ACK</text></g></g><g id="ProcessOnG1033"><path id="ProcessOnPath1034" d="M198.77783203125 235.166748046875L198.77783203125 341.166748046875L199.27783203125 341.166748046875L199.27783203125 431.9306800693752" stroke="#ff0000" stroke-width="2.0" stroke-dasharray="none" fill="none" marker-end="url(#ProcessOnMarker1035)"/><g id="ProcessOnG1037" transform="matrix(1.0,0.0,0.0,1.0,198.77783203125,323.79871405812514)"><path id="ProcessOnPath1038" d="M0 0H70.0V20.0H0Z" fill="#fff" transform="matrix(1.0,0.0,0.0,1.0,-35.0,0.0)"/><text id="ProcessOnText1039" fill="#ff0000" font-size="16" x="0.0" y="16.4" font-family="微软雅黑" font-weight="bold" font-style="normal" text-decoration="none" family="微软雅黑" text-anchor="middle" size="16">Rollback</text></g></g><g id="ProcessOnG1040" transform="matrix(1.0,0.0,0.0,1.0,147.77783203125,546.166748046875)" opacity="1.0"><path id="ProcessOnPath1041" d="M0.0 0.0L160.0 0.0L160.0 40.0L0.0 40.0Z" stroke="none" stroke-width="0.0" stroke-dasharray="none" opacity="1.0" fill="none"/><g id="ProcessOnG1042" transform="matrix(1.0,0.0,0.0,1.0,0.0,10.0)"><text id="ProcessOnText1043" fill="#000000" font-size="16" x="79.0" y="16.4" font-family="微软雅黑" font-weight="bold" font-style="normal" text-decoration="none" family="微软雅黑" text-anchor="middle" size="16">Undo</text></g></g><g id="ProcessOnG1044" transform="matrix(1.0,0.0,0.0,1.0,463.77783203125,451.166748046875)" opacity="1.0"><path id="ProcessOnPath1045" d="M0.0 0.0L171.0 0.0L171.0 68.0L0.0 68.0Z" stroke="#323232" stroke-width="2.0" stroke-dasharray="none" opacity="1.0" fill="#ffffff"/><g id="ProcessOnG1046" transform="matrix(1.0,0.0,0.0,1.0,10.0,22.75)"><text id="ProcessOnText1047" fill="#000000" font-size="18" x="74.5" y="18.45" font-family="微软雅黑" font-weight="bold" font-style="normal" text-decoration="none" family="微软雅黑" text-anchor="middle" size="18">资源管理器 RM</text></g></g><g id="ProcessOnG1048"><path id="ProcessOnPath1049" d="M484.77783203125 254.4028160243748L484.77783203125 345.166748046875L484.77783203125 345.166748046875L484.77783203125 451.166748046875" stroke="#323232" stroke-width="2.0" stroke-dasharray="none" fill="none" marker-start="url(#ProcessOnMarker1050)"/><g id="ProcessOnG1052" transform="matrix(1.0,0.0,0.0,1.0,484.77783203125,342.7847820356249)"><path id="ProcessOnPath1053" d="M0 0H48.0V20.0H0Z" fill="#fff" transform="matrix(1.0,0.0,0.0,1.0,-24.0,0.0)"/><text id="ProcessOnText1054" fill="#000000" font-size="16" x="0.0" y="16.4" font-family="微软雅黑" font-weight="bold" font-style="normal" text-decoration="none" family="微软雅黑" text-anchor="middle" size="16">Agree</text></g></g><g id="ProcessOnG1055"><path id="ProcessOnPath1056" d="M549.27783203125 519.166748046875L549.27783203125 556.166748046875L611.77783203125 555.166748046875L611.77783203125 533.4028160243748" stroke="#323232" stroke-width="2.0" stroke-dasharray="none" fill="none" marker-end="url(#ProcessOnMarker1057)"/></g><g id="ProcessOnG1059"><path id="ProcessOnPath1060" d="M608.77783203125 451.166748046875L608.77783203125 345.166748046875L608.77783203125 345.166748046875L608.77783203125 254.4028160243748" stroke="#323232" stroke-width="2.0" stroke-dasharray="none" fill="none" marker-end="url(#ProcessOnMarker1061)"/><g id="ProcessOnG1063" transform="matrix(1.0,0.0,0.0,1.0,608.77783203125,342.7847820356249)"><path id="ProcessOnPath1064" d="M0 0H34.0V20.0H0Z" fill="#fff" transform="matrix(1.0,0.0,0.0,1.0,-17.0,0.0)"/><text id="ProcessOnText1065" fill="#000000" font-size="16" x="0.0" y="16.4" font-family="微软雅黑" font-weight="bold" font-style="normal" text-decoration="none" family="微软雅黑" text-anchor="middle" size="16">ACK</text></g></g><g id="ProcessOnG1066"><path id="ProcessOnPath1067" d="M548.77783203125 239.166748046875L548.77783203125 345.166748046875L549.27783203125 345.166748046875L549.27783203125 435.9306800693752" stroke="#ff0000" stroke-width="2.0" stroke-dasharray="none" fill="none" marker-end="url(#ProcessOnMarker1068)"/><g id="ProcessOnG1070" transform="matrix(1.0,0.0,0.0,1.0,548.77783203125,327.79871405812514)"><path id="ProcessOnPath1071" d="M0 0H70.0V20.0H0Z" fill="#fff" transform="matrix(1.0,0.0,0.0,1.0,-35.0,0.0)"/><text id="ProcessOnText1072" fill="#ff0000" font-size="16" x="0.0" y="16.4" font-family="微软雅黑" font-weight="bold" font-style="normal" text-decoration="none" family="微软雅黑" text-anchor="middle" size="16">Rollback</text></g></g><g id="ProcessOnG1073" transform="matrix(1.0,0.0,0.0,1.0,497.77783203125,550.166748046875)" opacity="1.0"><path id="ProcessOnPath1074" d="M0.0 0.0L160.0 0.0L160.0 40.0L0.0 40.0Z" stroke="none" stroke-width="0.0" stroke-dasharray="none" opacity="1.0" fill="none"/><g id="ProcessOnG1075" transform="matrix(1.0,0.0,0.0,1.0,0.0,10.0)"><text id="ProcessOnText1076" fill="#000000" font-size="16" x="79.0" y="16.4" font-family="微软雅黑" font-weight="bold" font-style="normal" text-decoration="none" family="微软雅黑" text-anchor="middle" size="16">Undo</text></g></g><g id="ProcessOnG1077" transform="matrix(1.0,0.0,0.0,1.0,821.77783203125,451.166748046875)" opacity="1.0"><path id="ProcessOnPath1078" d="M0.0 0.0L171.0 0.0L171.0 68.0L0.0 68.0Z" stroke="#323232" stroke-width="2.0" stroke-dasharray="none" opacity="1.0" fill="#ffffff"/><g id="ProcessOnG1079" transform="matrix(1.0,0.0,0.0,1.0,10.0,22.75)"><text id="ProcessOnText1080" fill="#000000" font-size="18" x="74.5" y="18.45" font-family="微软雅黑" font-weight="bold" font-style="normal" text-decoration="none" family="微软雅黑" text-anchor="middle" size="18">资源管理器 RM</text></g></g><g id="ProcessOnG1081"><path id="ProcessOnPath1082" d="M842.77783203125 254.4028160243748L842.77783203125 345.166748046875L842.77783203125 345.166748046875L842.77783203125 451.166748046875" stroke="#ff0000" stroke-width="2.0" stroke-dasharray="none" fill="none" marker-start="url(#ProcessOnMarker1083)"/><g id="ProcessOnG1085" transform="matrix(1.0,0.0,0.0,1.0,842.77783203125,342.7847820356249)"><path id="ProcessOnPath1086" d="M0 0H48.0V20.0H0Z" fill="#fff" transform="matrix(1.0,0.0,0.0,1.0,-24.0,0.0)"/><text id="ProcessOnText1087" fill="#ff0000" font-size="16" x="0.0" y="16.4" font-family="微软雅黑" font-weight="bold" font-style="normal" text-decoration="none" family="微软雅黑" text-anchor="middle" size="16">Abort</text></g></g><g id="ProcessOnG1088"><path id="ProcessOnPath1089" d="M907.27783203125 519.166748046875L907.27783203125 556.166748046875L969.77783203125 555.166748046875L969.77783203125 533.4028160243748" stroke="#323232" stroke-width="2.0" stroke-dasharray="none" fill="none" marker-end="url(#ProcessOnMarker1090)"/></g><g id="ProcessOnG1092"><path id="ProcessOnPath1093" d="M966.77783203125 451.166748046875L966.77783203125 345.166748046875L966.77783203125 345.166748046875L966.77783203125 254.4028160243748" stroke="#323232" stroke-width="2.0" stroke-dasharray="none" fill="none" marker-end="url(#ProcessOnMarker1094)"/><g id="ProcessOnG1096" transform="matrix(1.0,0.0,0.0,1.0,966.77783203125,342.7847820356249)"><path id="ProcessOnPath1097" d="M0 0H34.0V20.0H0Z" fill="#fff" transform="matrix(1.0,0.0,0.0,1.0,-17.0,0.0)"/><text id="ProcessOnText1098" fill="#000000" font-size="16" x="0.0" y="16.4" font-family="微软雅黑" font-weight="bold" font-style="normal" text-decoration="none" family="微软雅黑" text-anchor="middle" size="16">ACK</text></g></g><g id="ProcessOnG1099"><path id="ProcessOnPath1100" d="M906.77783203125 239.166748046875L906.77783203125 345.166748046875L907.27783203125 345.166748046875L907.27783203125 435.9306800693752" stroke="#ff0000" stroke-width="2.0" stroke-dasharray="none" fill="none" marker-end="url(#ProcessOnMarker1101)"/><g id="ProcessOnG1103" transform="matrix(1.0,0.0,0.0,1.0,906.77783203125,327.79871405812514)"><path id="ProcessOnPath1104" d="M0 0H70.0V20.0H0Z" fill="#fff" transform="matrix(1.0,0.0,0.0,1.0,-35.0,0.0)"/><text id="ProcessOnText1105" fill="#ff0000" font-size="16" x="0.0" y="16.4" font-family="微软雅黑" font-weight="bold" font-style="normal" text-decoration="none" family="微软雅黑" text-anchor="middle" size="16">Rollback</text></g></g><g id="ProcessOnG1106" transform="matrix(1.0,0.0,0.0,1.0,855.77783203125,550.166748046875)" opacity="1.0"><path id="ProcessOnPath1107" d="M0.0 0.0L160.0 0.0L160.0 40.0L0.0 40.0Z" stroke="none" stroke-width="0.0" stroke-dasharray="none" opacity="1.0" fill="none"/><g id="ProcessOnG1108" transform="matrix(1.0,0.0,0.0,1.0,0.0,10.0)"><text id="ProcessOnText1109" fill="#000000" font-size="16" x="79.0" y="16.4" font-family="微软雅黑" font-weight="bold" font-style="normal" text-decoration="none" family="微软雅黑" text-anchor="middle" size="16">Undo</text></g></g></g></g></svg>