<svg xmlns="http://www.w3.org/2000/svg" xmlns:xlink="http://www.w3.org/1999/xlink" id="processonSvg1000" viewBox="56.0 89.5 967.0 495.0" width="967.0" height="495.0"><defs id="ProcessOnDefs1001"><marker id="ProcessOnMarker1017" markerUnits="userSpaceOnUse" orient="auto" markerWidth="16.23606797749979" markerHeight="10.550836550532098" viewBox="-1.0 -1.3763819204711736 16.23606797749979 10.550836550532098" refX="15.23606797749979" refY="3.8990363547948754"><path id="ProcessOnPath1018" d="M12.0 3.8990363547948754L0.0 7.798072709589751V0.0Z" stroke="#323232" stroke-width="2.0" fill="#fff" transform="matrix(-1.0,1.2246467991473532E-16,-1.2246467991473532E-16,-1.0,14.23606797749979,7.798072709589751)"/></marker><marker id="ProcessOnMarker1024" markerUnits="userSpaceOnUse" orient="auto" markerWidth="16.23606797749979" markerHeight="10.550836550532098" viewBox="-1.0 -1.3763819204711736 16.23606797749979 10.550836550532098" refX="-1.0" refY="3.8990363547948754"><path id="ProcessOnPath1025" d="M12.0 3.8990363547948754L0.0 7.798072709589751V0.0Z" stroke="#323232" stroke-width="2.0" fill="#323232" transform="matrix(1.0,0.0,0.0,1.0,0.0,0.0)"/></marker><marker id="ProcessOnMarker1028" markerUnits="userSpaceOnUse" orient="auto" markerWidth="16.23606797749979" markerHeight="10.550836550532098" viewBox="-1.0 -1.3763819204711736 16.23606797749979 10.550836550532098" refX="-1.0" refY="3.8990363547948754"><path id="ProcessOnPath1029" d="M12.0 3.8990363547948754L0.0 7.798072709589751V0.0Z" stroke="#323232" stroke-width="2.0" fill="#fff" transform="matrix(1.0,0.0,0.0,1.0,0.0,0.0)"/></marker><marker id="ProcessOnMarker1035" markerUnits="userSpaceOnUse" orient="auto" markerWidth="16.23606797749979" markerHeight="10.550836550532098" viewBox="-1.0 -1.3763819204711736 16.23606797749979 10.550836550532098" refX="-1.0" refY="3.8990363547948754"><path id="ProcessOnPath1036" d="M12.0 3.8990363547948754L0.0 7.798072709589751V0.0Z" stroke="#000000" stroke-width="2.0" fill="#fff" transform="matrix(1.0,0.0,0.0,1.0,0.0,0.0)"/></marker><marker id="ProcessOnMarker1050" markerUnits="userSpaceOnUse" orient="auto" markerWidth="16.23606797749979" markerHeight="10.550836550532098" viewBox="-1.0 -1.3763819204711736 16.23606797749979 10.550836550532098" refX="15.23606797749979" refY="3.8990363547948754"><path id="ProcessOnPath1051" d="M12.0 3.8990363547948754L0.0 7.798072709589751V0.0Z" stroke="#323232" stroke-width="2.0" fill="#fff" transform="matrix(-1.0,1.2246467991473532E-16,-1.2246467991473532E-16,-1.0,14.23606797749979,7.798072709589751)"/></marker><marker id="ProcessOnMarker1057" markerUnits="userSpaceOnUse" orient="auto" markerWidth="16.23606797749979" markerHeight="10.550836550532098" viewBox="-1.0 -1.3763819204711736 16.23606797749979 10.550836550532098" refX="-1.0" refY="3.8990363547948754"><path id="ProcessOnPath1058" d="M12.0 3.8990363547948754L0.0 7.798072709589751V0.0Z" stroke="#323232" stroke-width="2.0" fill="#323232" transform="matrix(1.0,0.0,0.0,1.0,0.0,0.0)"/></marker><marker id="ProcessOnMarker1061" markerUnits="userSpaceOnUse" orient="auto" markerWidth="16.23606797749979" markerHeight="10.550836550532098" viewBox="-1.0 -1.3763819204711736 16.23606797749979 10.550836550532098" refX="-1.0" refY="3.8990363547948754"><path id="ProcessOnPath1062" d="M12.0 3.8990363547948754L0.0 7.798072709589751V0.0Z" stroke="#323232" stroke-width="2.0" fill="#fff" transform="matrix(1.0,0.0,0.0,1.0,0.0,0.0)"/></marker><marker id="ProcessOnMarker1068" markerUnits="userSpaceOnUse" orient="auto" markerWidth="16.23606797749979" markerHeight="10.550836550532098" viewBox="-1.0 -1.3763819204711736 16.23606797749979 10.550836550532098" refX="-1.0" refY="3.8990363547948754"><path id="ProcessOnPath1069" d="M12.0 3.8990363547948754L0.0 7.798072709589751V0.0Z" stroke="#000000" stroke-width="2.0" fill="#fff" transform="matrix(1.0,0.0,0.0,1.0,0.0,0.0)"/></marker><marker id="ProcessOnMarker1079" markerUnits="userSpaceOnUse" orient="auto" markerWidth="16.23606797749979" markerHeight="10.550836550532098" viewBox="-1.0 -1.3763819204711736 16.23606797749979 10.550836550532098" refX="15.23606797749979" refY="3.8990363547948754"><path id="ProcessOnPath1080" d="M12.0 3.8990363547948754L0.0 7.798072709589751V0.0Z" stroke="#000000" stroke-width="2.0" fill="#fff" transform="matrix(-1.0,1.2246467991473532E-16,-1.2246467991473532E-16,-1.0,14.23606797749979,7.798072709589751)"/></marker><marker id="ProcessOnMarker1086" markerUnits="userSpaceOnUse" orient="auto" markerWidth="16.23606797749979" markerHeight="10.550836550532098" viewBox="-1.0 -1.3763819204711736 16.23606797749979 10.550836550532098" refX="-1.0" refY="3.8990363547948754"><path id="ProcessOnPath1087" d="M12.0 3.8990363547948754L0.0 7.798072709589751V0.0Z" stroke="#323232" stroke-width="2.0" fill="#323232" transform="matrix(1.0,0.0,0.0,1.0,0.0,0.0)"/></marker><marker id="ProcessOnMarker1090" markerUnits="userSpaceOnUse" orient="auto" markerWidth="16.23606797749979" markerHeight="10.550836550532098" viewBox="-1.0 -1.3763819204711736 16.23606797749979 10.550836550532098" refX="-1.0" refY="3.8990363547948754"><path id="ProcessOnPath1091" d="M12.0 3.8990363547948754L0.0 7.798072709589751V0.0Z" stroke="#323232" stroke-width="2.0" fill="#fff" transform="matrix(1.0,0.0,0.0,1.0,0.0,0.0)"/></marker><marker id="ProcessOnMarker1097" markerUnits="userSpaceOnUse" orient="auto" markerWidth="16.23606797749979" markerHeight="10.550836550532098" viewBox="-1.0 -1.3763819204711736 16.23606797749979 10.550836550532098" refX="-1.0" refY="3.8990363547948754"><path id="ProcessOnPath1098" d="M12.0 3.8990363547948754L0.0 7.798072709589751V0.0Z" stroke="#000000" stroke-width="2.0" fill="#fff" transform="matrix(1.0,0.0,0.0,1.0,0.0,0.0)"/></marker></defs><g id="ProcessOnG1002"><path id="ProcessOnPath1003" d="M56.0 89.5H1023.0V584.5H56.0V89.5Z" fill="none"/><g id="ProcessOnG1004"><g id="ProcessOnG1005" transform="matrix(1.0,0.0,0.0,1.0,448.0,109.5)" opacity="1.0"><path id="ProcessOnPath1006" d="M0.0 0.0L171.0 0.0L171.0 68.0L0.0 68.0Z" stroke="#323232" stroke-width="2.0" stroke-dasharray="none" opacity="1.0" fill="#ffffff"/><g id="ProcessOnG1007" transform="matrix(1.0,0.0,0.0,1.0,10.0,22.75)"><text id="ProcessOnText1008" fill="#000000" font-size="18" x="74.5" y="18.45" font-family="微软雅黑" font-weight="bold" font-style="normal" text-decoration="none" family="微软雅黑" text-anchor="middle" size="18">事务管理器 TM</text></g></g><g id="ProcessOnG1009" transform="matrix(1.0,0.0,0.0,1.0,98.0,422.5)" opacity="1.0"><path id="ProcessOnPath1010" d="M0.0 0.0L171.0 0.0L171.0 68.0L0.0 68.0Z" stroke="#323232" stroke-width="2.0" stroke-dasharray="none" opacity="1.0" fill="#ffffff"/><g id="ProcessOnG1011" transform="matrix(1.0,0.0,0.0,1.0,10.0,22.75)"><text id="ProcessOnText1012" fill="#000000" font-size="18" x="74.5" y="18.45" font-family="微软雅黑" font-weight="bold" font-style="normal" text-decoration="none" family="微软雅黑" text-anchor="middle" size="18">资源管理器 RM</text></g></g><g id="ProcessOnG1013" transform="matrix(1.0,0.0,0.0,1.0,76.0,186.5)" opacity="1.0"><path id="ProcessOnPath1014" d="M0.0 0.0L927.0 0.0L927.0 25.0L0.0 25.0Z" stroke="#323232" stroke-width="2.0" stroke-dasharray="10.0 4.0" opacity="1.0" fill="#ffffff"/></g><g id="ProcessOnG1015"><path id="ProcessOnPath1016" d="M119.0 225.7360679774998L119.0 316.5L119.0 316.5L119.0 422.5" stroke="#323232" stroke-width="2.0" stroke-dasharray="none" fill="none" marker-start="url(#ProcessOnMarker1017)"/><g id="ProcessOnG1019" transform="matrix(1.0,0.0,0.0,1.0,119.0,314.1180339887499)"><path id="ProcessOnPath1020" d="M0 0H48.0V20.0H0Z" fill="#fff" transform="matrix(1.0,0.0,0.0,1.0,-24.0,0.0)"/><text id="ProcessOnText1021" fill="#000000" font-size="16" x="0.0" y="16.4" font-family="微软雅黑" font-weight="bold" font-style="normal" text-decoration="none" family="微软雅黑" text-anchor="middle" size="16">Agree</text></g></g><g id="ProcessOnG1022"><path id="ProcessOnPath1023" d="M183.5 490.5L183.5 527.5L246.0 526.5L246.0 504.7360679774998" stroke="#323232" stroke-width="2.0" stroke-dasharray="none" fill="none" marker-end="url(#ProcessOnMarker1024)"/></g><g id="ProcessOnG1026"><path id="ProcessOnPath1027" d="M243.0 422.5L243.0 316.5L243.0 316.5L243.0 225.7360679774998" stroke="#323232" stroke-width="2.0" stroke-dasharray="none" fill="none" marker-end="url(#ProcessOnMarker1028)"/><g id="ProcessOnG1030" transform="matrix(1.0,0.0,0.0,1.0,243.0,314.1180339887499)"><path id="ProcessOnPath1031" d="M0 0H34.0V20.0H0Z" fill="#fff" transform="matrix(1.0,0.0,0.0,1.0,-17.0,0.0)"/><text id="ProcessOnText1032" fill="#000000" font-size="16" x="0.0" y="16.4" font-family="微软雅黑" font-weight="bold" font-style="normal" text-decoration="none" family="微软雅黑" text-anchor="middle" size="16">ACK</text></g></g><g id="ProcessOnG1033"><path id="ProcessOnPath1034" d="M183.0 210.5L183.0 316.5L183.5 316.5L183.5 407.2639320225002" stroke="#000000" stroke-width="2.0" stroke-dasharray="none" fill="none" marker-end="url(#ProcessOnMarker1035)"/><g id="ProcessOnG1037" transform="matrix(1.0,0.0,0.0,1.0,183.0,299.13196601125014)"><path id="ProcessOnPath1038" d="M0 0H66.0V20.0H0Z" fill="#fff" transform="matrix(1.0,0.0,0.0,1.0,-33.0,0.0)"/><text id="ProcessOnText1039" fill="#000000" font-size="16" x="0.0" y="16.4" font-family="微软雅黑" font-weight="bold" font-style="normal" text-decoration="none" family="微软雅黑" text-anchor="middle" size="16">Commit</text></g></g><g id="ProcessOnG1040" transform="matrix(1.0,0.0,0.0,1.0,132.0,521.5)" opacity="1.0"><path id="ProcessOnPath1041" d="M0.0 0.0L160.0 0.0L160.0 40.0L0.0 40.0Z" stroke="none" stroke-width="0.0" stroke-dasharray="none" opacity="1.0" fill="none"/><g id="ProcessOnG1042" transform="matrix(1.0,0.0,0.0,1.0,0.0,10.0)"><text id="ProcessOnText1043" fill="#000000" font-size="16" x="79.0" y="16.4" font-family="微软雅黑" font-weight="bold" font-style="normal" text-decoration="none" family="微软雅黑" text-anchor="middle" size="16">Commit</text></g></g><g id="ProcessOnG1044" transform="matrix(1.0,0.0,0.0,1.0,448.0,426.5)" opacity="1.0"><path id="ProcessOnPath1045" d="M0.0 0.0L171.0 0.0L171.0 68.0L0.0 68.0Z" stroke="#323232" stroke-width="2.0" stroke-dasharray="none" opacity="1.0" fill="#ffffff"/><g id="ProcessOnG1046" transform="matrix(1.0,0.0,0.0,1.0,10.0,22.75)"><text id="ProcessOnText1047" fill="#000000" font-size="18" x="74.5" y="18.45" font-family="微软雅黑" font-weight="bold" font-style="normal" text-decoration="none" family="微软雅黑" text-anchor="middle" size="18">资源管理器 RM</text></g></g><g id="ProcessOnG1048"><path id="ProcessOnPath1049" d="M469.0 229.7360679774998L469.0 320.5L469.0 320.5L469.0 426.5" stroke="#323232" stroke-width="2.0" stroke-dasharray="none" fill="none" marker-start="url(#ProcessOnMarker1050)"/><g id="ProcessOnG1052" transform="matrix(1.0,0.0,0.0,1.0,469.0,318.1180339887499)"><path id="ProcessOnPath1053" d="M0 0H48.0V20.0H0Z" fill="#fff" transform="matrix(1.0,0.0,0.0,1.0,-24.0,0.0)"/><text id="ProcessOnText1054" fill="#000000" font-size="16" x="0.0" y="16.4" font-family="微软雅黑" font-weight="bold" font-style="normal" text-decoration="none" family="微软雅黑" text-anchor="middle" size="16">Agree</text></g></g><g id="ProcessOnG1055"><path id="ProcessOnPath1056" d="M533.5 494.5L533.5 531.5L596.0 530.5L596.0 508.7360679774998" stroke="#323232" stroke-width="2.0" stroke-dasharray="none" fill="none" marker-end="url(#ProcessOnMarker1057)"/></g><g id="ProcessOnG1059"><path id="ProcessOnPath1060" d="M593.0 426.5L593.0 320.5L593.0 320.5L593.0 229.7360679774998" stroke="#323232" stroke-width="2.0" stroke-dasharray="none" fill="none" marker-end="url(#ProcessOnMarker1061)"/><g id="ProcessOnG1063" transform="matrix(1.0,0.0,0.0,1.0,593.0,318.1180339887499)"><path id="ProcessOnPath1064" d="M0 0H34.0V20.0H0Z" fill="#fff" transform="matrix(1.0,0.0,0.0,1.0,-17.0,0.0)"/><text id="ProcessOnText1065" fill="#000000" font-size="16" x="0.0" y="16.4" font-family="微软雅黑" font-weight="bold" font-style="normal" text-decoration="none" family="微软雅黑" text-anchor="middle" size="16">ACK</text></g></g><g id="ProcessOnG1066"><path id="ProcessOnPath1067" d="M533.0 214.5L533.0 320.5L533.5 320.5L533.5 411.2639320225002" stroke="#000000" stroke-width="2.0" stroke-dasharray="none" fill="none" marker-end="url(#ProcessOnMarker1068)"/><g id="ProcessOnG1070" transform="matrix(1.0,0.0,0.0,1.0,533.0,303.13196601125014)"><path id="ProcessOnPath1071" d="M0 0H66.0V20.0H0Z" fill="#fff" transform="matrix(1.0,0.0,0.0,1.0,-33.0,0.0)"/><text id="ProcessOnText1072" fill="#000000" font-size="16" x="0.0" y="16.4" font-family="微软雅黑" font-weight="bold" font-style="normal" text-decoration="none" family="微软雅黑" text-anchor="middle" size="16">Commit</text></g></g><g id="ProcessOnG1073" transform="matrix(1.0,0.0,0.0,1.0,806.0,426.5)" opacity="1.0"><path id="ProcessOnPath1074" d="M0.0 0.0L171.0 0.0L171.0 68.0L0.0 68.0Z" stroke="#323232" stroke-width="2.0" stroke-dasharray="none" opacity="1.0" fill="#ffffff"/><g id="ProcessOnG1075" transform="matrix(1.0,0.0,0.0,1.0,10.0,22.75)"><text id="ProcessOnText1076" fill="#000000" font-size="18" x="74.5" y="18.45" font-family="微软雅黑" font-weight="bold" font-style="normal" text-decoration="none" family="微软雅黑" text-anchor="middle" size="18">资源管理器 RM</text></g></g><g id="ProcessOnG1077"><path id="ProcessOnPath1078" d="M827.0 229.7360679774998L827.0 320.5L827.0 320.5L827.0 426.5" stroke="#000000" stroke-width="2.0" stroke-dasharray="none" fill="none" marker-start="url(#ProcessOnMarker1079)"/><g id="ProcessOnG1081" transform="matrix(1.0,0.0,0.0,1.0,827.0,318.1180339887499)"><path id="ProcessOnPath1082" d="M0 0H48.0V20.0H0Z" fill="#fff" transform="matrix(1.0,0.0,0.0,1.0,-24.0,0.0)"/><text id="ProcessOnText1083" fill="#000000" font-size="16" x="0.0" y="16.4" font-family="微软雅黑" font-weight="bold" font-style="normal" text-decoration="none" family="微软雅黑" text-anchor="middle" size="16">Agree</text></g></g><g id="ProcessOnG1084"><path id="ProcessOnPath1085" d="M891.5 494.5L891.5 531.5L954.0 530.5L954.0 508.7360679774998" stroke="#323232" stroke-width="2.0" stroke-dasharray="none" fill="none" marker-end="url(#ProcessOnMarker1086)"/></g><g id="ProcessOnG1088"><path id="ProcessOnPath1089" d="M951.0 426.5L951.0 320.5L951.0 320.5L951.0 229.7360679774998" stroke="#323232" stroke-width="2.0" stroke-dasharray="none" fill="none" marker-end="url(#ProcessOnMarker1090)"/><g id="ProcessOnG1092" transform="matrix(1.0,0.0,0.0,1.0,951.0,318.1180339887499)"><path id="ProcessOnPath1093" d="M0 0H34.0V20.0H0Z" fill="#fff" transform="matrix(1.0,0.0,0.0,1.0,-17.0,0.0)"/><text id="ProcessOnText1094" fill="#000000" font-size="16" x="0.0" y="16.4" font-family="微软雅黑" font-weight="bold" font-style="normal" text-decoration="none" family="微软雅黑" text-anchor="middle" size="16">ACK</text></g></g><g id="ProcessOnG1095"><path id="ProcessOnPath1096" d="M891.0 214.5L891.0 320.5L891.5 320.5L891.5 411.2639320225002" stroke="#000000" stroke-width="2.0" stroke-dasharray="none" fill="none" marker-end="url(#ProcessOnMarker1097)"/><g id="ProcessOnG1099" transform="matrix(1.0,0.0,0.0,1.0,891.0,303.13196601125014)"><path id="ProcessOnPath1100" d="M0 0H66.0V20.0H0Z" fill="#fff" transform="matrix(1.0,0.0,0.0,1.0,-33.0,0.0)"/><text id="ProcessOnText1101" fill="#000000" font-size="16" x="0.0" y="16.4" font-family="微软雅黑" font-weight="bold" font-style="normal" text-decoration="none" family="微软雅黑" text-anchor="middle" size="16">Commit</text></g></g><g id="ProcessOnG1102" transform="matrix(1.0,0.0,0.0,1.0,484.0,524.5)" opacity="1.0"><path id="ProcessOnPath1103" d="M0.0 0.0L160.0 0.0L160.0 40.0L0.0 40.0Z" stroke="none" stroke-width="0.0" stroke-dasharray="none" opacity="1.0" fill="none"/><g id="ProcessOnG1104" transform="matrix(1.0,0.0,0.0,1.0,0.0,10.0)"><text id="ProcessOnText1105" fill="#000000" font-size="16" x="79.0" y="16.4" font-family="微软雅黑" font-weight="bold" font-style="normal" text-decoration="none" family="微软雅黑" text-anchor="middle" size="16">Commit</text></g></g><g id="ProcessOnG1106" transform="matrix(1.0,0.0,0.0,1.0,843.0,524.5)" opacity="1.0"><path id="ProcessOnPath1107" d="M0.0 0.0L160.0 0.0L160.0 40.0L0.0 40.0Z" stroke="none" stroke-width="0.0" stroke-dasharray="none" opacity="1.0" fill="none"/><g id="ProcessOnG1108" transform="matrix(1.0,0.0,0.0,1.0,0.0,10.0)"><text id="ProcessOnText1109" fill="#000000" font-size="16" x="79.0" y="16.4" font-family="微软雅黑" font-weight="bold" font-style="normal" text-decoration="none" family="微软雅黑" text-anchor="middle" size="16">Commit</text></g></g></g></g></svg>