<svg xmlns="http://www.w3.org/2000/svg" xmlns:xlink="http://www.w3.org/1999/xlink" id="processonSvg1000" viewBox="31.0 23.5 993.5 492.0" width="993.5" height="492.0"><defs id="ProcessOnDefs1001"><marker id="ProcessOnMarker1017" markerUnits="userSpaceOnUse" orient="auto" markerWidth="16.23606797749979" markerHeight="10.550836550532098" viewBox="-1.0 -1.3763819204711736 16.23606797749979 10.550836550532098" refX="15.23606797749979" refY="3.8990363547948754"><path id="ProcessOnPath1018" d="M12.0 3.8990363547948754L0.0 7.798072709589751V0.0Z" stroke="#323232" stroke-width="2.0" fill="#fff" transform="matrix(-1.0,1.2246467991473532E-16,-1.2246467991473532E-16,-1.0,14.23606797749979,7.798072709589751)"/></marker><marker id="ProcessOnMarker1024" markerUnits="userSpaceOnUse" orient="auto" markerWidth="16.23606797749979" markerHeight="10.550836550532098" viewBox="-1.0 -1.3763819204711736 16.23606797749979 10.550836550532098" refX="-1.0" refY="3.8990363547948754"><path id="ProcessOnPath1025" d="M12.0 3.8990363547948754L0.0 7.798072709589751V0.0Z" stroke="#323232" stroke-width="2.0" fill="#323232" transform="matrix(1.0,0.0,0.0,1.0,0.0,0.0)"/></marker><marker id="ProcessOnMarker1035" markerUnits="userSpaceOnUse" orient="auto" markerWidth="16.23606797749979" markerHeight="10.550836550532098" viewBox="-1.0 -1.3763819204711736 16.23606797749979 10.550836550532098" refX="15.23606797749979" refY="3.8990363547948754"><path id="ProcessOnPath1036" d="M12.0 3.8990363547948754L0.0 7.798072709589751V0.0Z" stroke="#000000" stroke-width="2.0" fill="#fff" transform="matrix(-1.0,1.2246467991473532E-16,-1.2246467991473532E-16,-1.0,14.23606797749979,7.798072709589751)"/></marker><marker id="ProcessOnMarker1042" markerUnits="userSpaceOnUse" orient="auto" markerWidth="16.23606797749979" markerHeight="10.550836550532098" viewBox="-1.0 -1.3763819204711736 16.23606797749979 10.550836550532098" refX="-1.0" refY="3.8990363547948754"><path id="ProcessOnPath1043" d="M12.0 3.8990363547948754L0.0 7.798072709589751V0.0Z" stroke="#323232" stroke-width="2.0" fill="#323232" transform="matrix(1.0,0.0,0.0,1.0,0.0,0.0)"/></marker><marker id="ProcessOnMarker1053" markerUnits="userSpaceOnUse" orient="auto" markerWidth="16.23606797749979" markerHeight="10.550836550532098" viewBox="-1.0 -1.3763819204711736 16.23606797749979 10.550836550532098" refX="15.23606797749979" refY="3.8990363547948754"><path id="ProcessOnPath1054" d="M12.0 3.8990363547948754L0.0 7.798072709589751V0.0Z" stroke="#323232" stroke-width="2.0" fill="#fff" transform="matrix(-1.0,1.2246467991473532E-16,-1.2246467991473532E-16,-1.0,14.23606797749979,7.798072709589751)"/></marker><marker id="ProcessOnMarker1060" markerUnits="userSpaceOnUse" orient="auto" markerWidth="16.23606797749979" markerHeight="10.550836550532098" viewBox="-1.0 -1.3763819204711736 16.23606797749979 10.550836550532098" refX="-1.0" refY="3.8990363547948754"><path id="ProcessOnPath1061" d="M12.0 3.8990363547948754L0.0 7.798072709589751V0.0Z" stroke="#323232" stroke-width="2.0" fill="#fff" transform="matrix(1.0,0.0,0.0,1.0,0.0,0.0)"/></marker><marker id="ProcessOnMarker1067" markerUnits="userSpaceOnUse" orient="auto" markerWidth="16.23606797749979" markerHeight="10.550836550532098" viewBox="-1.0 -1.3763819204711736 16.23606797749979 10.550836550532098" refX="-1.0" refY="3.8990363547948754"><path id="ProcessOnPath1068" d="M12.0 3.8990363547948754L0.0 7.798072709589751V0.0Z" stroke="#323232" stroke-width="2.0" fill="#fff" transform="matrix(1.0,0.0,0.0,1.0,0.0,0.0)"/></marker></defs><g id="ProcessOnG1002"><path id="ProcessOnPath1003" d="M31.0 23.5H1024.5V515.5H31.0V23.5Z" fill="none"/><g id="ProcessOnG1004"><g id="ProcessOnG1005" transform="matrix(1.0,0.0,0.0,1.0,423.0,43.5)" opacity="1.0"><path id="ProcessOnPath1006" d="M0.0 0.0L171.0 0.0L171.0 68.0L0.0 68.0Z" stroke="#ff0000" stroke-width="2.0" stroke-dasharray="none" opacity="1.0" fill="#ffffff"/><g id="ProcessOnG1007" transform="matrix(1.0,0.0,0.0,1.0,10.0,22.75)"><text id="ProcessOnText1008" fill="#ff0000" font-size="18" x="74.5" y="18.45" font-family="微软雅黑" font-weight="bold" font-style="normal" text-decoration="none" family="微软雅黑" text-anchor="middle" size="18">事务管理器 TM</text></g></g><g id="ProcessOnG1009" transform="matrix(1.0,0.0,0.0,1.0,73.0,356.5)" opacity="1.0"><path id="ProcessOnPath1010" d="M0.0 0.0L171.0 0.0L171.0 68.0L0.0 68.0Z" stroke="#323232" stroke-width="2.0" stroke-dasharray="none" opacity="1.0" fill="#ffffff"/><g id="ProcessOnG1011" transform="matrix(1.0,0.0,0.0,1.0,10.0,22.75)"><text id="ProcessOnText1012" fill="#000000" font-size="18" x="74.5" y="18.45" font-family="微软雅黑" font-weight="bold" font-style="normal" text-decoration="none" family="微软雅黑" text-anchor="middle" size="18">资源管理器 RM</text></g></g><g id="ProcessOnG1013" transform="matrix(1.0,0.0,0.0,1.0,51.0,120.5)" opacity="1.0"><path id="ProcessOnPath1014" d="M0.0 0.0L927.0 0.0L927.0 25.0L0.0 25.0Z" stroke="#323232" stroke-width="2.0" stroke-dasharray="10.0 4.0" opacity="1.0" fill="#ffffff"/></g><g id="ProcessOnG1015"><path id="ProcessOnPath1016" d="M116.56944274902344 160.19959565694316L116.56944274902344 250.96352767944336L115.56944274902344 250.96352767944336L115.56944274902344 356.96352767944336" stroke="#323232" stroke-width="2.0" stroke-dasharray="none" fill="none" marker-start="url(#ProcessOnMarker1017)"/><g id="ProcessOnG1019" transform="matrix(1.0,0.0,0.0,1.0,115.56944274902344,248.08156166819327)"><path id="ProcessOnPath1020" d="M0 0H27.0V20.0H0Z" fill="#fff" transform="matrix(1.0,0.0,0.0,1.0,-13.5,0.0)"/><text id="ProcessOnText1021" fill="#000000" font-size="16" x="0.0" y="16.4" font-family="微软雅黑" font-weight="bold" font-style="normal" text-decoration="none" family="微软雅黑" text-anchor="middle" size="16">Yes</text></g></g><g id="ProcessOnG1022"><path id="ProcessOnPath1023" d="M212.01388549804688 423.7994785308838L212.01388549804688 454.5L274.0 454.5L274.0 390.5L259.2360679774998 390.5" stroke="#323232" stroke-width="2.0" stroke-dasharray="none" fill="none" marker-end="url(#ProcessOnMarker1024)"/><g id="ProcessOnG1026" transform="matrix(1.0,0.0,0.0,1.0,267.0386480257155,444.5)"><path id="ProcessOnPath1027" d="M0 0H90.0V20.0H0Z" fill="#fff" transform="matrix(1.0,0.0,0.0,1.0,-45.0,0.0)"/><text id="ProcessOnText1028" fill="#000000" font-size="16" x="0.0" y="16.4" font-family="微软雅黑" font-weight="bold" font-style="normal" text-decoration="none" family="微软雅黑" text-anchor="middle" size="16">Cancel TS ?</text></g></g><g id="ProcessOnG1029" transform="matrix(1.0,0.0,0.0,1.0,414.0,359.5)" opacity="1.0"><path id="ProcessOnPath1030" d="M0.0 0.0L171.0 0.0L171.0 68.0L0.0 68.0Z" stroke="#323232" stroke-width="2.0" stroke-dasharray="none" opacity="1.0" fill="#ffffff"/><g id="ProcessOnG1031" transform="matrix(1.0,0.0,0.0,1.0,10.0,22.75)"><text id="ProcessOnText1032" fill="#000000" font-size="18" x="74.5" y="18.45" font-family="微软雅黑" font-weight="bold" font-style="normal" text-decoration="none" family="微软雅黑" text-anchor="middle" size="18">资源管理器 RM</text></g></g><g id="ProcessOnG1033"><path id="ProcessOnPath1034" d="M457.56944274902344 163.19959565694316L457.56944274902344 253.96352767944336L456.56944274902344 253.96352767944336L456.56944274902344 359.96352767944336" stroke="#000000" stroke-width="2.0" stroke-dasharray="none" fill="none" marker-start="url(#ProcessOnMarker1035)"/><g id="ProcessOnG1037" transform="matrix(1.0,0.0,0.0,1.0,456.56944274902344,251.08156166819327)"><path id="ProcessOnPath1038" d="M0 0H27.0V20.0H0Z" fill="#fff" transform="matrix(1.0,0.0,0.0,1.0,-13.5,0.0)"/><text id="ProcessOnText1039" fill="#000000" font-size="16" x="0.0" y="16.4" font-family="微软雅黑" font-weight="bold" font-style="normal" text-decoration="none" family="微软雅黑" text-anchor="middle" size="16">Yes</text></g></g><g id="ProcessOnG1040"><path id="ProcessOnPath1041" d="M553.0138854980469 426.7994785308838L553.0138854980469 457.5L615.0 457.5L615.0 393.5L600.2360679774998 393.5" stroke="#323232" stroke-width="2.0" stroke-dasharray="none" fill="none" marker-end="url(#ProcessOnMarker1042)"/><g id="ProcessOnG1044" transform="matrix(1.0,0.0,0.0,1.0,608.0386480257155,447.5)"><path id="ProcessOnPath1045" d="M0 0H90.0V20.0H0Z" fill="#fff" transform="matrix(1.0,0.0,0.0,1.0,-45.0,0.0)"/><text id="ProcessOnText1046" fill="#000000" font-size="16" x="0.0" y="16.4" font-family="微软雅黑" font-weight="bold" font-style="normal" text-decoration="none" family="微软雅黑" text-anchor="middle" size="16">Cancel TS ?</text></g></g><g id="ProcessOnG1047" transform="matrix(1.0,0.0,0.0,1.0,749.0,359.5)" opacity="1.0"><path id="ProcessOnPath1048" d="M0.0 0.0L171.0 0.0L171.0 68.0L0.0 68.0Z" stroke="#ff0000" stroke-width="2.0" stroke-dasharray="none" opacity="1.0" fill="#ffffff"/><g id="ProcessOnG1049" transform="matrix(1.0,0.0,0.0,1.0,10.0,22.75)"><text id="ProcessOnText1050" fill="#ff0000" font-size="18" x="74.5" y="18.45" font-family="微软雅黑" font-weight="bold" font-style="normal" text-decoration="none" family="微软雅黑" text-anchor="middle" size="18">资源管理器 RM</text></g></g><g id="ProcessOnG1051"><path id="ProcessOnPath1052" d="M779.0138854980469 160.0450737148045L779.0138854980469 252.3090057373047L780.0138854980469 252.3090057373047L780.0138854980469 359.8090057373047" stroke="#323232" stroke-width="2.0" stroke-dasharray="none" fill="none" marker-start="url(#ProcessOnMarker1053)"/><g id="ProcessOnG1055" transform="matrix(1.0,0.0,0.0,1.0,780.0138854980469,249.4270397260546)"><path id="ProcessOnPath1056" d="M0 0H70.0V20.0H0Z" fill="#fff" transform="matrix(1.0,0.0,0.0,1.0,-35.0,0.0)"/><text id="ProcessOnText1057" fill="#ff0000" font-size="16" x="0.0" y="16.4" font-family="微软雅黑" font-weight="bold" font-style="normal" text-decoration="none" family="微软雅黑" text-anchor="middle" size="16">Yes / No</text></g></g><g id="ProcessOnG1058"><path id="ProcessOnPath1059" d="M889.0138854980469 144.8090057373047L889.0138854980469 252.3090057373047L889.0138854980469 252.3090057373047L889.0138854980469 344.5729377598049" stroke="#323232" stroke-width="2.0" stroke-dasharray="none" fill="none" marker-end="url(#ProcessOnMarker1060)"/><g id="ProcessOnG1062" transform="matrix(1.0,0.0,0.0,1.0,889.0138854980469,234.6909717485548)"><path id="ProcessOnPath1063" d="M0 0H149.0V20.0H0Z" fill="#fff" transform="matrix(1.0,0.0,0.0,1.0,-74.5,0.0)"/><text id="ProcessOnText1064" fill="#ff0000" font-size="16" x="0.0" y="16.4" font-family="微软雅黑" font-weight="bold" font-style="normal" text-decoration="none" family="微软雅黑" text-anchor="middle" size="16">PreCommit/Abort</text></g></g><g id="ProcessOnG1065"><path id="ProcessOnPath1066" d="M891.0138854980469 427.4756774902344L891.0138854980469 457.5L950.0 457.5L950.0 393.5L935.2360679774998 393.5" stroke="#323232" stroke-width="2.0" stroke-dasharray="none" fill="none" marker-end="url(#ProcessOnMarker1067)"/></g><g id="ProcessOnG1069" transform="matrix(1.0,0.0,0.0,1.0,844.5,455.5)" opacity="1.0"><path id="ProcessOnPath1070" d="M0.0 0.0L160.0 0.0L160.0 40.0L0.0 40.0Z" stroke="none" stroke-width="0.0" stroke-dasharray="none" opacity="1.0" fill="none"/><g id="ProcessOnG1071" transform="matrix(1.0,0.0,0.0,1.0,0.0,0.0)"><text id="ProcessOnText1072" fill="#ff0000" font-size="16" x="79.0" y="16.4" font-family="微软雅黑" font-weight="bold" font-style="normal" text-decoration="none" family="微软雅黑" text-anchor="middle" size="16">PreCommit/Cancel </text><text id="ProcessOnText1073" fill="#ff0000" font-size="16" x="79.0" y="36.4" font-family="微软雅黑" font-weight="bold" font-style="normal" text-decoration="none" family="微软雅黑" text-anchor="middle" size="16">TS</text></g></g></g></g></svg>