<svg xmlns="http://www.w3.org/2000/svg" xmlns:xlink="http://www.w3.org/1999/xlink" id="processonSvg1000" viewBox="37.5 32.987869262695455 1352.0 421.80209350585915" width="1352.0" height="421.80209350585915"><defs id="ProcessOnDefs1001"><marker id="ProcessOnMarker1057" markerUnits="userSpaceOnUse" orient="auto" markerWidth="16.23606797749979" markerHeight="10.550836550532098" viewBox="-1.0 -1.3763819204711736 16.23606797749979 10.550836550532098" refX="-1.0" refY="3.8990363547948754"><path id="ProcessOnPath1058" d="M12.0 3.8990363547948754L0.0 7.798072709589751V0.0Z" stroke="#323232" stroke-width="2.0" fill="#323232" transform="matrix(1.0,0.0,0.0,1.0,0.0,0.0)"/></marker><marker id="ProcessOnMarker1061" markerUnits="userSpaceOnUse" orient="auto" markerWidth="16.23606797749979" markerHeight="10.550836550532098" viewBox="-1.0 -1.3763819204711736 16.23606797749979 10.550836550532098" refX="-1.0" refY="3.8990363547948754"><path id="ProcessOnPath1062" d="M12.0 3.8990363547948754L0.0 7.798072709589751V0.0Z" stroke="#323232" stroke-width="2.0" fill="#323232" transform="matrix(1.0,0.0,0.0,1.0,0.0,0.0)"/></marker><marker id="ProcessOnMarker1065" markerUnits="userSpaceOnUse" orient="auto" markerWidth="16.23606797749979" markerHeight="10.550836550532098" viewBox="-1.0 -1.3763819204711736 16.23606797749979 10.550836550532098" refX="-1.0" refY="3.8990363547948754"><path id="ProcessOnPath1066" d="M12.0 3.8990363547948754L0.0 7.798072709589751V0.0Z" stroke="#323232" stroke-width="2.0" fill="#323232" transform="matrix(1.0,0.0,0.0,1.0,0.0,0.0)"/></marker><marker id="ProcessOnMarker1069" markerUnits="userSpaceOnUse" orient="auto" markerWidth="16.23606797749979" markerHeight="10.550836550532098" viewBox="-1.0 -1.3763819204711736 16.23606797749979 10.550836550532098" refX="-1.0" refY="3.8990363547948754"><path id="ProcessOnPath1070" d="M12.0 3.8990363547948754L0.0 7.798072709589751V0.0Z" stroke="#323232" stroke-width="2.0" fill="#323232" transform="matrix(1.0,0.0,0.0,1.0,0.0,0.0)"/></marker><marker id="ProcessOnMarker1073" markerUnits="userSpaceOnUse" orient="auto" markerWidth="16.23606797749979" markerHeight="10.550836550532098" viewBox="-1.0 -1.3763819204711736 16.23606797749979 10.550836550532098" refX="-1.0" refY="3.8990363547948754"><path id="ProcessOnPath1074" d="M12.0 3.8990363547948754L0.0 7.798072709589751V0.0Z" stroke="#323232" stroke-width="2.0" fill="#323232" transform="matrix(1.0,0.0,0.0,1.0,0.0,0.0)"/></marker><marker id="ProcessOnMarker1077" markerUnits="userSpaceOnUse" orient="auto" markerWidth="16.23606797749979" markerHeight="10.550836550532098" viewBox="-1.0 -1.3763819204711736 16.23606797749979 10.550836550532098" refX="-1.0" refY="3.8990363547948754"><path id="ProcessOnPath1078" d="M12.0 3.8990363547948754L0.0 7.798072709589751V0.0Z" stroke="#323232" stroke-width="2.0" fill="#323232" transform="matrix(1.0,0.0,0.0,1.0,0.0,0.0)"/></marker><marker id="ProcessOnMarker1081" markerUnits="userSpaceOnUse" orient="auto" markerWidth="16.23606797749979" markerHeight="10.550836550532098" viewBox="-1.0 -1.3763819204711736 16.23606797749979 10.550836550532098" refX="-1.0" refY="3.8990363547948754"><path id="ProcessOnPath1082" d="M12.0 3.8990363547948754L0.0 7.798072709589751V0.0Z" stroke="#323232" stroke-width="2.0" fill="#323232" transform="matrix(1.0,0.0,0.0,1.0,0.0,0.0)"/></marker><marker id="ProcessOnMarker1085" markerUnits="userSpaceOnUse" orient="auto" markerWidth="16.23606797749979" markerHeight="10.550836550532098" viewBox="-1.0 -1.3763819204711736 16.23606797749979 10.550836550532098" refX="-1.0" refY="3.8990363547948754"><path id="ProcessOnPath1086" d="M12.0 3.8990363547948754L0.0 7.798072709589751V0.0Z" stroke="#323232" stroke-width="2.0" fill="#323232" transform="matrix(1.0,0.0,0.0,1.0,0.0,0.0)"/></marker><marker id="ProcessOnMarker1089" markerUnits="userSpaceOnUse" orient="auto" markerWidth="16.23606797749979" markerHeight="10.550836550532098" viewBox="-1.0 -1.3763819204711736 16.23606797749979 10.550836550532098" refX="-1.0" refY="3.8990363547948754"><path id="ProcessOnPath1090" d="M12.0 3.8990363547948754L0.0 7.798072709589751V0.0Z" stroke="#323232" stroke-width="2.0" fill="#323232" transform="matrix(1.0,0.0,0.0,1.0,0.0,0.0)"/></marker><marker id="ProcessOnMarker1093" markerUnits="userSpaceOnUse" orient="auto" markerWidth="16.23606797749979" markerHeight="10.550836550532098" viewBox="-1.0 -1.3763819204711736 16.23606797749979 10.550836550532098" refX="-1.0" refY="3.8990363547948754"><path id="ProcessOnPath1094" d="M12.0 3.8990363547948754L0.0 7.798072709589751V0.0Z" stroke="#323232" stroke-width="2.0" fill="#323232" transform="matrix(1.0,0.0,0.0,1.0,0.0,0.0)"/></marker><marker id="ProcessOnMarker1097" markerUnits="userSpaceOnUse" orient="auto" markerWidth="16.23606797749979" markerHeight="10.550836550532098" viewBox="-1.0 -1.3763819204711736 16.23606797749979 10.550836550532098" refX="-1.0" refY="3.8990363547948754"><path id="ProcessOnPath1098" d="M12.0 3.8990363547948754L0.0 7.798072709589751V0.0Z" stroke="#323232" stroke-width="2.0" fill="#323232" transform="matrix(1.0,0.0,0.0,1.0,0.0,0.0)"/></marker><marker id="ProcessOnMarker1105" markerUnits="userSpaceOnUse" orient="auto" markerWidth="16.23606797749979" markerHeight="10.550836550532098" viewBox="-1.0 -1.3763819204711736 16.23606797749979 10.550836550532098" refX="-1.0" refY="3.8990363547948754"><path id="ProcessOnPath1106" d="M12.0 3.8990363547948754L0.0 7.798072709589751V0.0Z" stroke="#323232" stroke-width="2.0" fill="#323232" transform="matrix(1.0,0.0,0.0,1.0,0.0,0.0)"/></marker><marker id="ProcessOnMarker1109" markerUnits="userSpaceOnUse" orient="auto" markerWidth="16.23606797749979" markerHeight="10.550836550532098" viewBox="-1.0 -1.3763819204711736 16.23606797749979 10.550836550532098" refX="-1.0" refY="3.8990363547948754"><path id="ProcessOnPath1110" d="M12.0 3.8990363547948754L0.0 7.798072709589751V0.0Z" stroke="#323232" stroke-width="2.0" fill="#323232" transform="matrix(1.0,0.0,0.0,1.0,0.0,0.0)"/></marker><marker id="ProcessOnMarker1113" markerUnits="userSpaceOnUse" orient="auto" markerWidth="16.23606797749979" markerHeight="10.550836550532098" viewBox="-1.0 -1.3763819204711736 16.23606797749979 10.550836550532098" refX="-1.0" refY="3.8990363547948754"><path id="ProcessOnPath1114" d="M12.0 3.8990363547948754L0.0 7.798072709589751V0.0Z" stroke="#323232" stroke-width="2.0" fill="#323232" transform="matrix(1.0,0.0,0.0,1.0,0.0,0.0)"/></marker><marker id="ProcessOnMarker1117" markerUnits="userSpaceOnUse" orient="auto" markerWidth="16.23606797749979" markerHeight="10.550836550532098" viewBox="-1.0 -1.3763819204711736 16.23606797749979 10.550836550532098" refX="-1.0" refY="3.8990363547948754"><path id="ProcessOnPath1118" d="M12.0 3.8990363547948754L0.0 7.798072709589751V0.0Z" stroke="#323232" stroke-width="2.0" fill="#323232" transform="matrix(1.0,0.0,0.0,1.0,0.0,0.0)"/></marker><marker id="ProcessOnMarker1121" markerUnits="userSpaceOnUse" orient="auto" markerWidth="16.23606797749979" markerHeight="10.550836550532098" viewBox="-1.0 -1.3763819204711736 16.23606797749979 10.550836550532098" refX="-1.0" refY="3.8990363547948754"><path id="ProcessOnPath1122" d="M12.0 3.8990363547948754L0.0 7.798072709589751V0.0Z" stroke="#323232" stroke-width="2.0" fill="#323232" transform="matrix(1.0,0.0,0.0,1.0,0.0,0.0)"/></marker><marker id="ProcessOnMarker1125" markerUnits="userSpaceOnUse" orient="auto" markerWidth="16.23606797749979" markerHeight="10.550836550532098" viewBox="-1.0 -1.3763819204711736 16.23606797749979 10.550836550532098" refX="-1.0" refY="3.8990363547948754"><path id="ProcessOnPath1126" d="M12.0 3.8990363547948754L0.0 7.798072709589751V0.0Z" stroke="#323232" stroke-width="2.0" fill="#323232" transform="matrix(1.0,0.0,0.0,1.0,0.0,0.0)"/></marker><marker id="ProcessOnMarker1129" markerUnits="userSpaceOnUse" orient="auto" markerWidth="16.23606797749979" markerHeight="10.550836550532098" viewBox="-1.0 -1.3763819204711736 16.23606797749979 10.550836550532098" refX="-1.0" refY="3.8990363547948754"><path id="ProcessOnPath1130" d="M12.0 3.8990363547948754L0.0 7.798072709589751V0.0Z" stroke="#323232" stroke-width="2.0" fill="#323232" transform="matrix(1.0,0.0,0.0,1.0,0.0,0.0)"/></marker><marker id="ProcessOnMarker1133" markerUnits="userSpaceOnUse" orient="auto" markerWidth="16.23606797749979" markerHeight="10.550836550532098" viewBox="-1.0 -1.3763819204711736 16.23606797749979 10.550836550532098" refX="-1.0" refY="3.8990363547948754"><path id="ProcessOnPath1134" d="M12.0 3.8990363547948754L0.0 7.798072709589751V0.0Z" stroke="#323232" stroke-width="2.0" fill="#323232" transform="matrix(1.0,0.0,0.0,1.0,0.0,0.0)"/></marker><marker id="ProcessOnMarker1137" markerUnits="userSpaceOnUse" orient="auto" markerWidth="16.23606797749979" markerHeight="10.550836550532098" viewBox="-1.0 -1.3763819204711736 16.23606797749979 10.550836550532098" refX="-1.0" refY="3.8990363547948754"><path id="ProcessOnPath1138" d="M12.0 3.8990363547948754L0.0 7.798072709589751V0.0Z" stroke="#323232" stroke-width="2.0" fill="#323232" transform="matrix(1.0,0.0,0.0,1.0,0.0,0.0)"/></marker><marker id="ProcessOnMarker1141" markerUnits="userSpaceOnUse" orient="auto" markerWidth="16.23606797749979" markerHeight="10.550836550532098" viewBox="-1.0 -1.3763819204711736 16.23606797749979 10.550836550532098" refX="-1.0" refY="3.8990363547948754"><path id="ProcessOnPath1142" d="M12.0 3.8990363547948754L0.0 7.798072709589751V0.0Z" stroke="#323232" stroke-width="2.0" fill="#323232" transform="matrix(1.0,0.0,0.0,1.0,0.0,0.0)"/></marker><marker id="ProcessOnMarker1145" markerUnits="userSpaceOnUse" orient="auto" markerWidth="16.23606797749979" markerHeight="10.550836550532098" viewBox="-1.0 -1.3763819204711736 16.23606797749979 10.550836550532098" refX="-1.0" refY="3.8990363547948754"><path id="ProcessOnPath1146" d="M12.0 3.8990363547948754L0.0 7.798072709589751V0.0Z" stroke="#323232" stroke-width="2.0" fill="#323232" transform="matrix(1.0,0.0,0.0,1.0,0.0,0.0)"/></marker></defs><g id="ProcessOnG1002"><path id="ProcessOnPath1003" d="M37.5 32.987869262695455H1389.5V454.7899627685546H37.5V32.987869262695426Z" fill="none"/><g id="ProcessOnG1004"><g id="ProcessOnG1005" transform="matrix(1.0,0.0,0.0,1.0,57.5,332.7899627685546)" opacity="1.0"><path id="ProcessOnPath1006" d="M0.0 0.0L1312.0 0.0L1312.0 102.0L0.0 102.0Z" stroke="#323232" stroke-width="2.0" stroke-dasharray="10.0 4.0" opacity="1.0" fill="#ffffff"/></g><g id="ProcessOnG1007" transform="matrix(1.0,0.0,0.0,1.0,634.1875057220458,52.987869262695455)" opacity="1.0"><path id="ProcessOnPath1008" d="M0.0 0.0L133.8194465637207 0.0L133.8194465637207 49.80209350585966L0.0 49.80209350585966Z" stroke="#323232" stroke-width="2.0" stroke-dasharray="none" opacity="1.0" fill="#ffffff"/><g id="ProcessOnG1009" transform="matrix(1.0,0.0,0.0,1.0,10.0,13.65104675292983)"><text id="ProcessOnText1010" fill="#000000" font-size="18" x="55.90972328186035" y="18.45" font-family="微软雅黑" font-weight="bold" font-style="normal" text-decoration="none" family="微软雅黑" text-anchor="middle" size="18">8  20  101</text></g></g><g id="ProcessOnG1011" transform="matrix(1.0,0.0,0.0,1.0,225.6527900695803,184.78996276855457)" opacity="1.0"><path id="ProcessOnPath1012" d="M0.0 0.0L91.55554962158203 0.0L91.55554962158203 54.0L0.0 54.0Z" stroke="#323232" stroke-width="2.0" stroke-dasharray="none" opacity="1.0" fill="#ffffff"/><g id="ProcessOnG1013" transform="matrix(1.0,0.0,0.0,1.0,10.0,15.75)"><text id="ProcessOnText1014" fill="#000000" font-size="18" x="34.777774810791016" y="18.45" font-family="微软雅黑" font-weight="bold" font-style="normal" text-decoration="none" family="微软雅黑" text-anchor="middle" size="18">3   5   8</text></g></g><g id="ProcessOnG1015" transform="matrix(1.0,0.0,0.0,1.0,646.166669845581,184.78996276855457)" opacity="1.0"><path id="ProcessOnPath1016" d="M0.0 0.0L109.86111831665028 0.0L109.86111831665028 54.0L0.0 54.0Z" stroke="#323232" stroke-width="2.0" stroke-dasharray="none" opacity="1.0" fill="#ffffff"/><g id="ProcessOnG1017" transform="matrix(1.0,0.0,0.0,1.0,10.0,15.75)"><text id="ProcessOnText1018" fill="#000000" font-size="18" x="43.93055915832514" y="18.45" font-family="微软雅黑" font-weight="bold" font-style="normal" text-decoration="none" family="微软雅黑" text-anchor="middle" size="18">15 20 25</text></g></g><g id="ProcessOnG1019" transform="matrix(1.0,0.0,0.0,1.0,1061.9861221313474,184.78996276855457)" opacity="1.0"><path id="ProcessOnPath1020" d="M0.0 0.0L152.40276718139683 0.0L152.40276718139683 54.0L0.0 54.0Z" stroke="#323232" stroke-width="2.0" stroke-dasharray="none" opacity="1.0" fill="#ffffff"/><g id="ProcessOnG1021" transform="matrix(1.0,0.0,0.0,1.0,10.0,15.75)"><text id="ProcessOnText1022" fill="#000000" font-size="18" x="65.20138359069841" y="18.45" font-family="微软雅黑" font-weight="bold" font-style="normal" text-decoration="none" family="微软雅黑" text-anchor="middle" size="18">29 45 101</text></g></g><g id="ProcessOnG1023" transform="matrix(1.0,0.0,0.0,1.0,86.31945419311535,356.7899627685546)" opacity="1.0"><path id="ProcessOnPath1024" d="M0.0 0.0L91.55554962158203 0.0L91.55554962158203 54.0L0.0 54.0Z" stroke="#323232" stroke-width="2.0" stroke-dasharray="none" opacity="1.0" fill="#ffffff"/><g id="ProcessOnG1025" transform="matrix(1.0,0.0,0.0,1.0,10.0,15.75)"><text id="ProcessOnText1026" fill="#000000" font-size="18" x="34.777774810791016" y="18.45" font-family="微软雅黑" font-weight="bold" font-style="normal" text-decoration="none" family="微软雅黑" text-anchor="middle" size="18">1   2   3</text></g></g><g id="ProcessOnG1027" transform="matrix(1.0,0.0,0.0,1.0,225.6527900695803,356.7899627685546)" opacity="1.0"><path id="ProcessOnPath1028" d="M0.0 0.0L91.55554962158203 0.0L91.55554962158203 54.0L0.0 54.0Z" stroke="#323232" stroke-width="2.0" stroke-dasharray="none" opacity="1.0" fill="#ffffff"/><g id="ProcessOnG1029" transform="matrix(1.0,0.0,0.0,1.0,10.0,15.75)"><text id="ProcessOnText1030" fill="#000000" font-size="18" x="34.777774810791016" y="18.45" font-family="微软雅黑" font-weight="bold" font-style="normal" text-decoration="none" family="微软雅黑" text-anchor="middle" size="18">4   5</text></g></g><g id="ProcessOnG1031" transform="matrix(1.0,0.0,0.0,1.0,367.76389694213884,356.7899627685546)" opacity="1.0"><path id="ProcessOnPath1032" d="M0.0 0.0L91.55554962158203 0.0L91.55554962158203 54.0L0.0 54.0Z" stroke="#323232" stroke-width="2.0" stroke-dasharray="none" opacity="1.0" fill="#ffffff"/><g id="ProcessOnG1033" transform="matrix(1.0,0.0,0.0,1.0,10.0,15.75)"><text id="ProcessOnText1034" fill="#000000" font-size="18" x="34.777774810791016" y="18.45" font-family="微软雅黑" font-weight="bold" font-style="normal" text-decoration="none" family="微软雅黑" text-anchor="middle" size="18">7   8</text></g></g><g id="ProcessOnG1035" transform="matrix(1.0,0.0,0.0,1.0,505.05555725097656,356.7899627685546)" opacity="1.0"><path id="ProcessOnPath1036" d="M0.0 0.0L103.70832824707054 0.0L103.70832824707054 54.0L0.0 54.0Z" stroke="#323232" stroke-width="2.0" stroke-dasharray="none" opacity="1.0" fill="#ffffff"/><g id="ProcessOnG1037" transform="matrix(1.0,0.0,0.0,1.0,10.0,15.75)"><text id="ProcessOnText1038" fill="#000000" font-size="18" x="40.85416412353527" y="18.45" font-family="微软雅黑" font-weight="bold" font-style="normal" text-decoration="none" family="微软雅黑" text-anchor="middle" size="18">12 13 15</text></g></g><g id="ProcessOnG1039" transform="matrix(1.0,0.0,0.0,1.0,655.3194541931151,356.7899627685546)" opacity="1.0"><path id="ProcessOnPath1040" d="M0.0 0.0L91.55554962158203 0.0L91.55554962158203 54.0L0.0 54.0Z" stroke="#323232" stroke-width="2.0" stroke-dasharray="none" opacity="1.0" fill="#ffffff"/><g id="ProcessOnG1041" transform="matrix(1.0,0.0,0.0,1.0,10.0,15.75)"><text id="ProcessOnText1042" fill="#000000" font-size="18" x="34.777774810791016" y="18.45" font-family="微软雅黑" font-weight="bold" font-style="normal" text-decoration="none" family="微软雅黑" text-anchor="middle" size="18">17 20</text></g></g><g id="ProcessOnG1043" transform="matrix(1.0,0.0,0.0,1.0,792.0555572509766,356.7899627685546)" opacity="1.0"><path id="ProcessOnPath1044" d="M0.0 0.0L103.43055725097645 0.0L103.43055725097645 54.0L0.0 54.0Z" stroke="#323232" stroke-width="2.0" stroke-dasharray="none" opacity="1.0" fill="#ffffff"/><g id="ProcessOnG1045" transform="matrix(1.0,0.0,0.0,1.0,10.0,15.75)"><text id="ProcessOnText1046" fill="#000000" font-size="18" x="40.715278625488224" y="18.45" font-family="微软雅黑" font-weight="bold" font-style="normal" text-decoration="none" family="微软雅黑" text-anchor="middle" size="18">23 24 25</text></g></g><g id="ProcessOnG1047" transform="matrix(1.0,0.0,0.0,1.0,941.3194541931151,356.7899627685546)" opacity="1.0"><path id="ProcessOnPath1048" d="M0.0 0.0L109.66666412353516 0.0L109.66666412353516 54.0L0.0 54.0Z" stroke="#323232" stroke-width="2.0" stroke-dasharray="none" opacity="1.0" fill="#ffffff"/><g id="ProcessOnG1049" transform="matrix(1.0,0.0,0.0,1.0,10.0,15.75)"><text id="ProcessOnText1050" fill="#000000" font-size="18" x="43.83333206176758" y="18.45" font-family="微软雅黑" font-weight="bold" font-style="normal" text-decoration="none" family="微软雅黑" text-anchor="middle" size="18">27 28 29</text></g></g><g id="ProcessOnG1051" transform="matrix(1.0,0.0,0.0,1.0,1088.319454193115,356.7899627685546)" opacity="1.0"><path id="ProcessOnPath1052" d="M0.0 0.0L99.73610305786156 0.0L99.73610305786156 54.0L0.0 54.0Z" stroke="#323232" stroke-width="2.0" stroke-dasharray="none" opacity="1.0" fill="#ffffff"/><g id="ProcessOnG1053" transform="matrix(1.0,0.0,0.0,1.0,10.0,15.75)"><text id="ProcessOnText1054" fill="#000000" font-size="18" x="38.86805152893078" y="18.45" font-family="微软雅黑" font-weight="bold" font-style="normal" text-decoration="none" family="微软雅黑" text-anchor="middle" size="18">33 36 45</text></g></g><g id="ProcessOnG1055"><path id="ProcessOnPath1056" d="M701.0972290039059 102.78996276855437L286.39652486321324 181.93377488836052" stroke="#323232" stroke-width="2.0" stroke-dasharray="none" fill="none" marker-end="url(#ProcessOnMarker1057)"/></g><g id="ProcessOnG1059"><path id="ProcessOnPath1060" d="M701.0972290039059 102.78996276855437L701.097229003906 169.55389479105477" stroke="#323232" stroke-width="2.0" stroke-dasharray="none" fill="none" marker-end="url(#ProcessOnMarker1061)"/></g><g id="ProcessOnG1063"><path id="ProcessOnPath1064" d="M701.0972290039059 102.78996276855437L1123.2126811546273 181.98062181558666" stroke="#323232" stroke-width="2.0" stroke-dasharray="none" fill="none" marker-end="url(#ProcessOnMarker1065)"/></g><g id="ProcessOnG1067"><path id="ProcessOnPath1068" d="M271.43056488037126 238.78996276855435L143.72401311185726 346.94335631139916" stroke="#323232" stroke-width="2.0" stroke-dasharray="none" fill="none" marker-end="url(#ProcessOnMarker1069)"/></g><g id="ProcessOnG1071"><path id="ProcessOnPath1072" d="M271.43056488037126 238.78996276855435L271.43056488037126 341.5538947910548" stroke="#323232" stroke-width="2.0" stroke-dasharray="none" fill="none" marker-end="url(#ProcessOnMarker1073)"/></g><g id="ProcessOnG1075"><path id="ProcessOnPath1076" d="M271.43056488037126 238.78996276855435L401.8197404958988 347.0568186198001" stroke="#323232" stroke-width="2.0" stroke-dasharray="none" fill="none" marker-end="url(#ProcessOnMarker1077)"/></g><g id="ProcessOnG1079"><path id="ProcessOnPath1080" d="M701.097229003906 238.78996276855435L568.7006489903317 347.1405175319886" stroke="#323232" stroke-width="2.0" stroke-dasharray="none" fill="none" marker-end="url(#ProcessOnMarker1081)"/></g><g id="ProcessOnG1083"><path id="ProcessOnPath1084" d="M701.097229003906 238.78996276855435L701.0972290039061 341.5538947910548" stroke="#323232" stroke-width="2.0" stroke-dasharray="none" fill="none" marker-end="url(#ProcessOnMarker1085)"/></g><g id="ProcessOnG1087"><path id="ProcessOnPath1088" d="M701.0972290039062 238.78996276855457L832.0300364743096 347.07958703878256" stroke="#323232" stroke-width="2.0" stroke-dasharray="none" fill="none" marker-end="url(#ProcessOnMarker1089)"/></g><g id="ProcessOnG1091"><path id="ProcessOnPath1092" d="M1138.1875057220461 238.78996276855435L1007.8721449804173 347.0537212721028" stroke="#323232" stroke-width="2.0" stroke-dasharray="none" fill="none" marker-end="url(#ProcessOnMarker1093)"/></g><g id="ProcessOnG1095"><path id="ProcessOnPath1096" d="M1138.1875057220461 238.78996276855435L1138.1875057220461 341.5538947910548" stroke="#323232" stroke-width="2.0" stroke-dasharray="none" fill="none" marker-end="url(#ProcessOnMarker1097)"/></g><g id="ProcessOnG1099" transform="matrix(1.0,0.0,0.0,1.0,1227.541675567627,356.7899627685546)" opacity="1.0"><path id="ProcessOnPath1100" d="M0.0 0.0L110.51388168334961 0.0L110.51388168334961 54.0L0.0 54.0Z" stroke="#323232" stroke-width="2.0" stroke-dasharray="none" opacity="1.0" fill="#ffffff"/><g id="ProcessOnG1101" transform="matrix(1.0,0.0,0.0,1.0,10.0,15.75)"><text id="ProcessOnText1102" fill="#000000" font-size="18" x="44.256940841674805" y="18.45" font-family="微软雅黑" font-weight="bold" font-style="normal" text-decoration="none" family="微软雅黑" text-anchor="middle" size="18">50 99 101</text></g></g><g id="ProcessOnG1103"><path id="ProcessOnPath1104" d="M1138.1875057220457 238.78996276855457L1270.993831039466 347.1574755618617" stroke="#323232" stroke-width="2.0" stroke-dasharray="none" fill="none" marker-end="url(#ProcessOnMarker1105)"/></g><g id="ProcessOnG1107"><path id="ProcessOnPath1108" d="M177.87500381469738 383.7899627685546L201.76389694213884 383.7899627685546L201.76389694213884 383.7899627685546L210.4167220920805 383.7899627685546" stroke="#323232" stroke-width="2.0" stroke-dasharray="none" fill="none" marker-end="url(#ProcessOnMarker1109)"/></g><g id="ProcessOnG1111"><path id="ProcessOnPath1112" d="M317.20833969116234 383.7899627685546L342.4861183166506 383.7899627685546L342.4861183166506 383.7899627685546L352.52782896463907 383.7899627685546" stroke="#323232" stroke-width="2.0" stroke-dasharray="none" fill="none" marker-end="url(#ProcessOnMarker1113)"/></g><g id="ProcessOnG1115"><path id="ProcessOnPath1116" d="M459.3194465637209 383.7899627685546L482.18750190734875 383.7899627685546L482.18750190734875 383.7899627685546L489.8194892734768 383.7899627685546" stroke="#323232" stroke-width="2.0" stroke-dasharray="none" fill="none" marker-end="url(#ProcessOnMarker1117)"/></g><g id="ProcessOnG1119"><path id="ProcessOnPath1120" d="M608.7638854980471 383.7899627685546L632.041669845581 383.7899627685546L632.041669845581 383.7899627685546L640.0833862156153 383.7899627685546" stroke="#323232" stroke-width="2.0" stroke-dasharray="none" fill="none" marker-end="url(#ProcessOnMarker1121)"/></g><g id="ProcessOnG1123"><path id="ProcessOnPath1124" d="M746.8750038146972 383.7899627685546L769.4652805328369 383.7899627685546L769.4652805328369 383.7899627685546L776.8194892734767 383.7899627685546" stroke="#323232" stroke-width="2.0" stroke-dasharray="none" fill="none" marker-end="url(#ProcessOnMarker1125)"/></g><g id="ProcessOnG1127"><path id="ProcessOnPath1128" d="M895.486114501953 383.7899627685546L918.4027843475341 383.7899627685546L918.4027843475341 383.7899627685546L926.0833862156153 383.7899627685546" stroke="#323232" stroke-width="2.0" stroke-dasharray="none" fill="none" marker-end="url(#ProcessOnMarker1129)"/></g><g id="ProcessOnG1131"><path id="ProcessOnPath1132" d="M1050.9861183166504 383.7899627685546L1069.6527862548828 383.7899627685546L1069.6527862548828 383.7899627685546L1073.0833862156153 383.7899627685546" stroke="#323232" stroke-width="2.0" stroke-dasharray="none" fill="none" marker-end="url(#ProcessOnMarker1133)"/></g><g id="ProcessOnG1135"><path id="ProcessOnPath1136" d="M1188.0555572509766 383.7899627685546L1207.7986164093018 383.7899627685546L1207.7986164093018 383.7899627685546L1212.3056075901272 383.7899627685546" stroke="#323232" stroke-width="2.0" stroke-dasharray="none" fill="none" marker-end="url(#ProcessOnMarker1137)"/></g><g id="ProcessOnG1139"><path id="ProcessOnPath1140" d="M317.20833969116234 211.78996276855457L481.6875047683717 211.78996276855457L481.6875047683717 211.78996276855457L630.9306018680812 211.78996276855457" stroke="#323232" stroke-width="2.0" stroke-dasharray="none" fill="none" marker-end="url(#ProcessOnMarker1141)"/></g><g id="ProcessOnG1143"><path id="ProcessOnPath1144" d="M756.0277881622313 211.78996276855457L909.0069551467893 211.78996276855457L909.0069551467893 211.78996276855457L1046.7500541538477 211.78996276855457" stroke="#323232" stroke-width="2.0" stroke-dasharray="none" fill="none" marker-end="url(#ProcessOnMarker1145)"/></g></g></g></svg>