<svg xmlns="http://www.w3.org/2000/svg" xmlns:xlink="http://www.w3.org/1999/xlink" id="processonSvg1000" viewBox="117.35420036315918 121.09895324707031 1408.9583473205566 410.8020935058594" width="1408.9583473205566" height="410.8020935058594"><defs id="ProcessOnDefs1001"><marker id="ProcessOnMarker1055" markerUnits="userSpaceOnUse" orient="auto" markerWidth="16.23606797749979" markerHeight="10.550836550532098" viewBox="-1.0 -1.3763819204711736 16.23606797749979 10.550836550532098" refX="-1.0" refY="3.8990363547948754"><path id="ProcessOnPath1056" d="M12.0 3.8990363547948754L0.0 7.798072709589751V0.0Z" stroke="#323232" stroke-width="2.0" fill="#323232" transform="matrix(1.0,0.0,0.0,1.0,0.0,0.0)"/></marker><marker id="ProcessOnMarker1059" markerUnits="userSpaceOnUse" orient="auto" markerWidth="16.23606797749979" markerHeight="10.550836550532098" viewBox="-1.0 -1.3763819204711736 16.23606797749979 10.550836550532098" refX="-1.0" refY="3.8990363547948754"><path id="ProcessOnPath1060" d="M12.0 3.8990363547948754L0.0 7.798072709589751V0.0Z" stroke="#323232" stroke-width="2.0" fill="#323232" transform="matrix(1.0,0.0,0.0,1.0,0.0,0.0)"/></marker><marker id="ProcessOnMarker1063" markerUnits="userSpaceOnUse" orient="auto" markerWidth="16.23606797749979" markerHeight="10.550836550532098" viewBox="-1.0 -1.3763819204711736 16.23606797749979 10.550836550532098" refX="-1.0" refY="3.8990363547948754"><path id="ProcessOnPath1064" d="M12.0 3.8990363547948754L0.0 7.798072709589751V0.0Z" stroke="#323232" stroke-width="2.0" fill="#323232" transform="matrix(1.0,0.0,0.0,1.0,0.0,0.0)"/></marker><marker id="ProcessOnMarker1067" markerUnits="userSpaceOnUse" orient="auto" markerWidth="16.23606797749979" markerHeight="10.550836550532098" viewBox="-1.0 -1.3763819204711736 16.23606797749979 10.550836550532098" refX="-1.0" refY="3.8990363547948754"><path id="ProcessOnPath1068" d="M12.0 3.8990363547948754L0.0 7.798072709589751V0.0Z" stroke="#323232" stroke-width="2.0" fill="#323232" transform="matrix(1.0,0.0,0.0,1.0,0.0,0.0)"/></marker><marker id="ProcessOnMarker1071" markerUnits="userSpaceOnUse" orient="auto" markerWidth="16.23606797749979" markerHeight="10.550836550532098" viewBox="-1.0 -1.3763819204711736 16.23606797749979 10.550836550532098" refX="-1.0" refY="3.8990363547948754"><path id="ProcessOnPath1072" d="M12.0 3.8990363547948754L0.0 7.798072709589751V0.0Z" stroke="#323232" stroke-width="2.0" fill="#323232" transform="matrix(1.0,0.0,0.0,1.0,0.0,0.0)"/></marker><marker id="ProcessOnMarker1075" markerUnits="userSpaceOnUse" orient="auto" markerWidth="16.23606797749979" markerHeight="10.550836550532098" viewBox="-1.0 -1.3763819204711736 16.23606797749979 10.550836550532098" refX="-1.0" refY="3.8990363547948754"><path id="ProcessOnPath1076" d="M12.0 3.8990363547948754L0.0 7.798072709589751V0.0Z" stroke="#323232" stroke-width="2.0" fill="#323232" transform="matrix(1.0,0.0,0.0,1.0,0.0,0.0)"/></marker><marker id="ProcessOnMarker1079" markerUnits="userSpaceOnUse" orient="auto" markerWidth="16.23606797749979" markerHeight="10.550836550532098" viewBox="-1.0 -1.3763819204711736 16.23606797749979 10.550836550532098" refX="-1.0" refY="3.8990363547948754"><path id="ProcessOnPath1080" d="M12.0 3.8990363547948754L0.0 7.798072709589751V0.0Z" stroke="#323232" stroke-width="2.0" fill="#323232" transform="matrix(1.0,0.0,0.0,1.0,0.0,0.0)"/></marker><marker id="ProcessOnMarker1083" markerUnits="userSpaceOnUse" orient="auto" markerWidth="16.23606797749979" markerHeight="10.550836550532098" viewBox="-1.0 -1.3763819204711736 16.23606797749979 10.550836550532098" refX="-1.0" refY="3.8990363547948754"><path id="ProcessOnPath1084" d="M12.0 3.8990363547948754L0.0 7.798072709589751V0.0Z" stroke="#323232" stroke-width="2.0" fill="#323232" transform="matrix(1.0,0.0,0.0,1.0,0.0,0.0)"/></marker><marker id="ProcessOnMarker1087" markerUnits="userSpaceOnUse" orient="auto" markerWidth="16.23606797749979" markerHeight="10.550836550532098" viewBox="-1.0 -1.3763819204711736 16.23606797749979 10.550836550532098" refX="-1.0" refY="3.8990363547948754"><path id="ProcessOnPath1088" d="M12.0 3.8990363547948754L0.0 7.798072709589751V0.0Z" stroke="#323232" stroke-width="2.0" fill="#323232" transform="matrix(1.0,0.0,0.0,1.0,0.0,0.0)"/></marker><marker id="ProcessOnMarker1091" markerUnits="userSpaceOnUse" orient="auto" markerWidth="16.23606797749979" markerHeight="10.550836550532098" viewBox="-1.0 -1.3763819204711736 16.23606797749979 10.550836550532098" refX="-1.0" refY="3.8990363547948754"><path id="ProcessOnPath1092" d="M12.0 3.8990363547948754L0.0 7.798072709589751V0.0Z" stroke="#323232" stroke-width="2.0" fill="#323232" transform="matrix(1.0,0.0,0.0,1.0,0.0,0.0)"/></marker><marker id="ProcessOnMarker1095" markerUnits="userSpaceOnUse" orient="auto" markerWidth="16.23606797749979" markerHeight="10.550836550532098" viewBox="-1.0 -1.3763819204711736 16.23606797749979 10.550836550532098" refX="-1.0" refY="3.8990363547948754"><path id="ProcessOnPath1096" d="M12.0 3.8990363547948754L0.0 7.798072709589751V0.0Z" stroke="#323232" stroke-width="2.0" fill="#323232" transform="matrix(1.0,0.0,0.0,1.0,0.0,0.0)"/></marker><marker id="ProcessOnMarker1103" markerUnits="userSpaceOnUse" orient="auto" markerWidth="16.23606797749979" markerHeight="10.550836550532098" viewBox="-1.0 -1.3763819204711736 16.23606797749979 10.550836550532098" refX="-1.0" refY="3.8990363547948754"><path id="ProcessOnPath1104" d="M12.0 3.8990363547948754L0.0 7.798072709589751V0.0Z" stroke="#323232" stroke-width="2.0" fill="#323232" transform="matrix(1.0,0.0,0.0,1.0,0.0,0.0)"/></marker><marker id="ProcessOnMarker1107" markerUnits="userSpaceOnUse" orient="auto" markerWidth="16.23606797749979" markerHeight="10.550836550532098" viewBox="-1.0 -1.3763819204711736 16.23606797749979 10.550836550532098" refX="-1.0" refY="3.8990363547948754"><path id="ProcessOnPath1108" d="M12.0 3.8990363547948754L0.0 7.798072709589751V0.0Z" stroke="#323232" stroke-width="2.0" fill="#323232" transform="matrix(1.0,0.0,0.0,1.0,0.0,0.0)"/></marker><marker id="ProcessOnMarker1111" markerUnits="userSpaceOnUse" orient="auto" markerWidth="16.23606797749979" markerHeight="10.550836550532098" viewBox="-1.0 -1.3763819204711736 16.23606797749979 10.550836550532098" refX="-1.0" refY="3.8990363547948754"><path id="ProcessOnPath1112" d="M12.0 3.8990363547948754L0.0 7.798072709589751V0.0Z" stroke="#323232" stroke-width="2.0" fill="#323232" transform="matrix(1.0,0.0,0.0,1.0,0.0,0.0)"/></marker><marker id="ProcessOnMarker1115" markerUnits="userSpaceOnUse" orient="auto" markerWidth="16.23606797749979" markerHeight="10.550836550532098" viewBox="-1.0 -1.3763819204711736 16.23606797749979 10.550836550532098" refX="-1.0" refY="3.8990363547948754"><path id="ProcessOnPath1116" d="M12.0 3.8990363547948754L0.0 7.798072709589751V0.0Z" stroke="#323232" stroke-width="2.0" fill="#323232" transform="matrix(1.0,0.0,0.0,1.0,0.0,0.0)"/></marker><marker id="ProcessOnMarker1119" markerUnits="userSpaceOnUse" orient="auto" markerWidth="16.23606797749979" markerHeight="10.550836550532098" viewBox="-1.0 -1.3763819204711736 16.23606797749979 10.550836550532098" refX="-1.0" refY="3.8990363547948754"><path id="ProcessOnPath1120" d="M12.0 3.8990363547948754L0.0 7.798072709589751V0.0Z" stroke="#323232" stroke-width="2.0" fill="#323232" transform="matrix(1.0,0.0,0.0,1.0,0.0,0.0)"/></marker><marker id="ProcessOnMarker1123" markerUnits="userSpaceOnUse" orient="auto" markerWidth="16.23606797749979" markerHeight="10.550836550532098" viewBox="-1.0 -1.3763819204711736 16.23606797749979 10.550836550532098" refX="-1.0" refY="3.8990363547948754"><path id="ProcessOnPath1124" d="M12.0 3.8990363547948754L0.0 7.798072709589751V0.0Z" stroke="#323232" stroke-width="2.0" fill="#323232" transform="matrix(1.0,0.0,0.0,1.0,0.0,0.0)"/></marker><marker id="ProcessOnMarker1127" markerUnits="userSpaceOnUse" orient="auto" markerWidth="16.23606797749979" markerHeight="10.550836550532098" viewBox="-1.0 -1.3763819204711736 16.23606797749979 10.550836550532098" refX="-1.0" refY="3.8990363547948754"><path id="ProcessOnPath1128" d="M12.0 3.8990363547948754L0.0 7.798072709589751V0.0Z" stroke="#323232" stroke-width="2.0" fill="#323232" transform="matrix(1.0,0.0,0.0,1.0,0.0,0.0)"/></marker><marker id="ProcessOnMarker1131" markerUnits="userSpaceOnUse" orient="auto" markerWidth="16.23606797749979" markerHeight="10.550836550532098" viewBox="-1.0 -1.3763819204711736 16.23606797749979 10.550836550532098" refX="-1.0" refY="3.8990363547948754"><path id="ProcessOnPath1132" d="M12.0 3.8990363547948754L0.0 7.798072709589751V0.0Z" stroke="#323232" stroke-width="2.0" fill="#323232" transform="matrix(1.0,0.0,0.0,1.0,0.0,0.0)"/></marker><marker id="ProcessOnMarker1135" markerUnits="userSpaceOnUse" orient="auto" markerWidth="16.23606797749979" markerHeight="10.550836550532098" viewBox="-1.0 -1.3763819204711736 16.23606797749979 10.550836550532098" refX="-1.0" refY="3.8990363547948754"><path id="ProcessOnPath1136" d="M12.0 3.8990363547948754L0.0 7.798072709589751V0.0Z" stroke="#323232" stroke-width="2.0" fill="#323232" transform="matrix(1.0,0.0,0.0,1.0,0.0,0.0)"/></marker><marker id="ProcessOnMarker1143" markerUnits="userSpaceOnUse" orient="auto" markerWidth="16.23606797749979" markerHeight="10.550836550532098" viewBox="-1.0 -1.3763819204711736 16.23606797749979 10.550836550532098" refX="-1.0" refY="3.8990363547948754"><path id="ProcessOnPath1144" d="M12.0 3.8990363547948754L0.0 7.798072709589751V0.0Z" stroke="#323232" stroke-width="2.0" fill="#323232" transform="matrix(1.0,0.0,0.0,1.0,0.0,0.0)"/></marker><marker id="ProcessOnMarker1147" markerUnits="userSpaceOnUse" orient="auto" markerWidth="16.23606797749979" markerHeight="10.550836550532098" viewBox="-1.0 -1.3763819204711736 16.23606797749979 10.550836550532098" refX="-1.0" refY="3.8990363547948754"><path id="ProcessOnPath1148" d="M12.0 3.8990363547948754L0.0 7.798072709589751V0.0Z" stroke="#323232" stroke-width="2.0" fill="#323232" transform="matrix(1.0,0.0,0.0,1.0,0.0,0.0)"/></marker><marker id="ProcessOnMarker1155" markerUnits="userSpaceOnUse" orient="auto" markerWidth="16.23606797749979" markerHeight="10.550836550532098" viewBox="-1.0 -1.3763819204711736 16.23606797749979 10.550836550532098" refX="-1.0" refY="3.8990363547948754"><path id="ProcessOnPath1156" d="M12.0 3.8990363547948754L0.0 7.798072709589751V0.0Z" stroke="#323232" stroke-width="2.0" fill="#323232" transform="matrix(1.0,0.0,0.0,1.0,0.0,0.0)"/></marker></defs><g id="ProcessOnG1002"><path id="ProcessOnPath1003" d="M117.35420036315918 121.09895324707031H1526.3125476837158V531.9010467529297H117.35420036315918V121.09895324707031Z" fill="none"/><g id="ProcessOnG1004"><g id="ProcessOnG1005" transform="matrix(1.0,0.0,0.0,1.0,794.2222518920897,141.0989532470703)" opacity="1.0"><path id="ProcessOnPath1006" d="M0.0 0.0L133.8194465637207 0.0L133.8194465637207 49.80209350585966L0.0 49.80209350585966Z" stroke="#ff8000" stroke-width="2.0" stroke-dasharray="none" opacity="1.0" fill="#ffffff"/><g id="ProcessOnG1007" transform="matrix(1.0,0.0,0.0,1.0,10.0,13.65104675292983)"><text id="ProcessOnText1008" fill="#000000" font-size="18" x="55.90972328186035" y="18.45" font-family="微软雅黑" font-weight="bold" font-style="normal" text-decoration="none" family="微软雅黑" text-anchor="middle" size="18">8 20 45 105</text></g></g><g id="ProcessOnG1009" transform="matrix(1.0,0.0,0.0,1.0,276.68753623962414,282.9010467529297)" opacity="1.0"><path id="ProcessOnPath1010" d="M0.0 0.0L91.55554962158203 0.0L91.55554962158203 54.0L0.0 54.0Z" stroke="#323232" stroke-width="2.0" stroke-dasharray="none" opacity="1.0" fill="#ffffff"/><g id="ProcessOnG1011" transform="matrix(1.0,0.0,0.0,1.0,10.0,15.75)"><text id="ProcessOnText1012" fill="#000000" font-size="18" x="34.777774810791016" y="18.45" font-family="微软雅黑" font-weight="bold" font-style="normal" text-decoration="none" family="微软雅黑" text-anchor="middle" size="18">3   5   8</text></g></g><g id="ProcessOnG1013" transform="matrix(1.0,0.0,0.0,1.0,627.3542003631591,285.9010467529297)" opacity="1.0"><path id="ProcessOnPath1014" d="M0.0 0.0L91.55554962158203 0.0L91.55554962158203 54.0L0.0 54.0Z" stroke="#323232" stroke-width="2.0" stroke-dasharray="none" opacity="1.0" fill="#ffffff"/><g id="ProcessOnG1015" transform="matrix(1.0,0.0,0.0,1.0,10.0,15.75)"><text id="ProcessOnText1016" fill="#000000" font-size="18" x="34.777774810791016" y="18.45" font-family="微软雅黑" font-weight="bold" font-style="normal" text-decoration="none" family="微软雅黑" text-anchor="middle" size="18">15   20</text></g></g><g id="ProcessOnG1017" transform="matrix(1.0,0.0,0.0,1.0,986.9670386314388,285.9010467529297)" opacity="1.0"><path id="ProcessOnPath1018" d="M0.0 0.0L120.44098758697555 0.0L120.44098758697555 54.0L0.0 54.0Z" stroke="#ff8000" stroke-width="2.0" stroke-dasharray="none" opacity="1.0" fill="#ffffff"/><g id="ProcessOnG1019" transform="matrix(1.0,0.0,0.0,1.0,10.0,15.75)"><text id="ProcessOnText1020" fill="#000000" font-size="18" x="49.220493793487776" y="18.45" font-family="微软雅黑" font-weight="bold" font-style="normal" text-decoration="none" family="微软雅黑" text-anchor="middle" size="18">25 29 45</text></g></g><g id="ProcessOnG1021" transform="matrix(1.0,0.0,0.0,1.0,137.35420036315918,457.9010467529297)" opacity="1.0"><path id="ProcessOnPath1022" d="M0.0 0.0L91.55554962158203 0.0L91.55554962158203 54.0L0.0 54.0Z" stroke="#323232" stroke-width="2.0" stroke-dasharray="none" opacity="1.0" fill="#ffffff"/><g id="ProcessOnG1023" transform="matrix(1.0,0.0,0.0,1.0,10.0,15.75)"><text id="ProcessOnText1024" fill="#000000" font-size="18" x="34.777774810791016" y="18.45" font-family="微软雅黑" font-weight="bold" font-style="normal" text-decoration="none" family="微软雅黑" text-anchor="middle" size="18">1   2   3</text></g></g><g id="ProcessOnG1025" transform="matrix(1.0,0.0,0.0,1.0,276.68753623962414,457.9010467529297)" opacity="1.0"><path id="ProcessOnPath1026" d="M0.0 0.0L91.55554962158203 0.0L91.55554962158203 54.0L0.0 54.0Z" stroke="#323232" stroke-width="2.0" stroke-dasharray="none" opacity="1.0" fill="#ffffff"/><g id="ProcessOnG1027" transform="matrix(1.0,0.0,0.0,1.0,10.0,15.75)"><text id="ProcessOnText1028" fill="#000000" font-size="18" x="34.777774810791016" y="18.45" font-family="微软雅黑" font-weight="bold" font-style="normal" text-decoration="none" family="微软雅黑" text-anchor="middle" size="18">4   5</text></g></g><g id="ProcessOnG1029" transform="matrix(1.0,0.0,0.0,1.0,418.7986431121827,457.9010467529297)" opacity="1.0"><path id="ProcessOnPath1030" d="M0.0 0.0L91.55554962158203 0.0L91.55554962158203 54.0L0.0 54.0Z" stroke="#323232" stroke-width="2.0" stroke-dasharray="none" opacity="1.0" fill="#ffffff"/><g id="ProcessOnG1031" transform="matrix(1.0,0.0,0.0,1.0,10.0,15.75)"><text id="ProcessOnText1032" fill="#000000" font-size="18" x="34.777774810791016" y="18.45" font-family="微软雅黑" font-weight="bold" font-style="normal" text-decoration="none" family="微软雅黑" text-anchor="middle" size="18">7   8</text></g></g><g id="ProcessOnG1033" transform="matrix(1.0,0.0,0.0,1.0,556.0903034210204,457.9010467529297)" opacity="1.0"><path id="ProcessOnPath1034" d="M0.0 0.0L103.70832824707054 0.0L103.70832824707054 54.0L0.0 54.0Z" stroke="#323232" stroke-width="2.0" stroke-dasharray="none" opacity="1.0" fill="#ffffff"/><g id="ProcessOnG1035" transform="matrix(1.0,0.0,0.0,1.0,10.0,15.75)"><text id="ProcessOnText1036" fill="#000000" font-size="18" x="40.85416412353527" y="18.45" font-family="微软雅黑" font-weight="bold" font-style="normal" text-decoration="none" family="微软雅黑" text-anchor="middle" size="18">12 13 15</text></g></g><g id="ProcessOnG1037" transform="matrix(1.0,0.0,0.0,1.0,706.354200363159,457.9010467529297)" opacity="1.0"><path id="ProcessOnPath1038" d="M0.0 0.0L91.55554962158203 0.0L91.55554962158203 54.0L0.0 54.0Z" stroke="#323232" stroke-width="2.0" stroke-dasharray="none" opacity="1.0" fill="#ffffff"/><g id="ProcessOnG1039" transform="matrix(1.0,0.0,0.0,1.0,10.0,15.75)"><text id="ProcessOnText1040" fill="#000000" font-size="18" x="34.777774810791016" y="18.45" font-family="微软雅黑" font-weight="bold" font-style="normal" text-decoration="none" family="微软雅黑" text-anchor="middle" size="18">17 20</text></g></g><g id="ProcessOnG1041" transform="matrix(1.0,0.0,0.0,1.0,843.0903034210204,457.9010467529297)" opacity="1.0"><path id="ProcessOnPath1042" d="M0.0 0.0L103.43055725097645 0.0L103.43055725097645 54.0L0.0 54.0Z" stroke="#323232" stroke-width="2.0" stroke-dasharray="none" opacity="1.0" fill="#ffffff"/><g id="ProcessOnG1043" transform="matrix(1.0,0.0,0.0,1.0,10.0,15.75)"><text id="ProcessOnText1044" fill="#000000" font-size="18" x="40.715278625488224" y="18.45" font-family="微软雅黑" font-weight="bold" font-style="normal" text-decoration="none" family="微软雅黑" text-anchor="middle" size="18">23 24 25</text></g></g><g id="ProcessOnG1045" transform="matrix(1.0,0.0,0.0,1.0,992.354200363159,457.9010467529297)" opacity="1.0"><path id="ProcessOnPath1046" d="M0.0 0.0L109.66666412353516 0.0L109.66666412353516 54.0L0.0 54.0Z" stroke="#323232" stroke-width="2.0" stroke-dasharray="none" opacity="1.0" fill="#ffffff"/><g id="ProcessOnG1047" transform="matrix(1.0,0.0,0.0,1.0,10.0,15.75)"><text id="ProcessOnText1048" fill="#000000" font-size="18" x="43.83333206176758" y="18.45" font-family="微软雅黑" font-weight="bold" font-style="normal" text-decoration="none" family="微软雅黑" text-anchor="middle" size="18">27 28 29</text></g></g><g id="ProcessOnG1049" transform="matrix(1.0,0.0,0.0,1.0,1139.3542003631587,457.9010467529297)" opacity="1.0"><path id="ProcessOnPath1050" d="M0.0 0.0L99.73610305786156 0.0L99.73610305786156 54.0L0.0 54.0Z" stroke="#323232" stroke-width="2.0" stroke-dasharray="none" opacity="1.0" fill="#ffffff"/><g id="ProcessOnG1051" transform="matrix(1.0,0.0,0.0,1.0,10.0,15.75)"><text id="ProcessOnText1052" fill="#000000" font-size="18" x="38.86805152893078" y="18.45" font-family="微软雅黑" font-weight="bold" font-style="normal" text-decoration="none" family="微软雅黑" text-anchor="middle" size="18">33 36 45</text></g></g><g id="ProcessOnG1053"><path id="ProcessOnPath1054" d="M861.1319751739499 190.90104675292923L337.48390779149776 280.3359893766248" stroke="#323232" stroke-width="2.0" stroke-dasharray="none" fill="none" marker-end="url(#ProcessOnMarker1055)"/></g><g id="ProcessOnG1057"><path id="ProcessOnPath1058" d="M861.1319751739499 190.90104675292923L686.7304728261367 279.0294654925161" stroke="#323232" stroke-width="2.0" stroke-dasharray="none" fill="none" marker-end="url(#ProcessOnMarker1059)"/></g><g id="ProcessOnG1061"><path id="ProcessOnPath1062" d="M861.1319751739499 190.90104675292923L1033.618000546865 278.9724414080382" stroke="#323232" stroke-width="2.0" stroke-dasharray="none" fill="none" marker-end="url(#ProcessOnMarker1063)"/></g><g id="ProcessOnG1065"><path id="ProcessOnPath1066" d="M322.4653110504151 336.90104675292923L194.63571118131455 447.91096040255894" stroke="#323232" stroke-width="2.0" stroke-dasharray="none" fill="none" marker-end="url(#ProcessOnMarker1067)"/></g><g id="ProcessOnG1069"><path id="ProcessOnPath1070" d="M322.4653110504151 336.90104675292923L322.4653110504151 442.6649787754299" stroke="#323232" stroke-width="2.0" stroke-dasharray="none" fill="none" marker-end="url(#ProcessOnMarker1071)"/></g><g id="ProcessOnG1073"><path id="ProcessOnPath1074" d="M322.4653110504151 336.90104675292923L452.9757431785581 448.02369321621376" stroke="#323232" stroke-width="2.0" stroke-dasharray="none" fill="none" marker-end="url(#ProcessOnMarker1075)"/></g><g id="ProcessOnG1077"><path id="ProcessOnPath1078" d="M673.13197517395 339.90104675292923L615.3119490143038 444.5647060176339" stroke="#323232" stroke-width="2.0" stroke-dasharray="none" fill="none" marker-end="url(#ProcessOnMarker1079)"/></g><g id="ProcessOnG1081"><path id="ProcessOnPath1082" d="M673.13197517395 339.90104675292923L743.6557813370516 445.2404027940182" stroke="#323232" stroke-width="2.0" stroke-dasharray="none" fill="none" marker-end="url(#ProcessOnMarker1083)"/></g><g id="ProcessOnG1085"><path id="ProcessOnPath1086" d="M1047.1875324249268 339.90104675292923L906.8520736228544 448.57260593379885" stroke="#323232" stroke-width="2.0" stroke-dasharray="none" fill="none" marker-end="url(#ProcessOnMarker1087)"/></g><g id="ProcessOnG1089"><path id="ProcessOnPath1090" d="M1047.1875324249268 339.90104675292923L1047.1875324249265 442.6649787754299" stroke="#323232" stroke-width="2.0" stroke-dasharray="none" fill="none" marker-end="url(#ProcessOnMarker1091)"/></g><g id="ProcessOnG1093"><path id="ProcessOnPath1094" d="M1047.1875324249268 339.90104675292923L1177.5028931665552 448.16480525647785" stroke="#323232" stroke-width="2.0" stroke-dasharray="none" fill="none" marker-end="url(#ProcessOnMarker1095)"/></g><g id="ProcessOnG1097" transform="matrix(1.0,0.0,0.0,1.0,1278.576421737671,457.9010467529297)" opacity="1.0"><path id="ProcessOnPath1098" d="M0.0 0.0L93.73612594604492 0.0L93.73612594604492 54.0L0.0 54.0Z" stroke="#ff8000" stroke-width="2.0" stroke-dasharray="none" opacity="1.0" fill="#ffffff"/><g id="ProcessOnG1099" transform="matrix(1.0,0.0,0.0,1.0,10.0,15.75)"><text id="ProcessOnText1100" fill="#000000" font-size="18" x="35.86806297302246" y="18.45" font-family="微软雅黑" font-weight="bold" font-style="normal" text-decoration="none" family="微软雅黑" text-anchor="middle" size="18">50 99</text></g></g><g id="ProcessOnG1101"><path id="ProcessOnPath1102" d="M1388.0920538902283 339.9010467529297L1332.589013867988 444.44394934912225" stroke="#323232" stroke-width="2.0" stroke-dasharray="none" fill="none" marker-end="url(#ProcessOnMarker1103)"/></g><g id="ProcessOnG1105"><path id="ProcessOnPath1106" d="M228.9097499847412 484.9010467529297L252.79864311218267 484.9010467529297L252.79864311218267 484.9010467529297L261.45146826212437 484.9010467529297" stroke="#323232" stroke-width="2.0" stroke-dasharray="none" fill="none" marker-end="url(#ProcessOnMarker1107)"/></g><g id="ProcessOnG1109"><path id="ProcessOnPath1110" d="M368.24308586120617 484.9010467529297L393.52086448669445 484.9010467529297L393.52086448669445 484.9010467529297L403.5625751346829 484.9010467529297" stroke="#323232" stroke-width="2.0" stroke-dasharray="none" fill="none" marker-end="url(#ProcessOnMarker1111)"/></g><g id="ProcessOnG1113"><path id="ProcessOnPath1114" d="M510.35419273376465 484.9010467529297L533.2222480773926 484.9010467529297L533.2222480773926 484.9010467529297L540.8542354435206 484.9010467529297" stroke="#323232" stroke-width="2.0" stroke-dasharray="none" fill="none" marker-end="url(#ProcessOnMarker1115)"/></g><g id="ProcessOnG1117"><path id="ProcessOnPath1118" d="M659.7986316680909 484.9010467529297L683.0764160156249 484.9010467529297L683.0764160156249 484.9010467529297L691.1181323856591 484.9010467529297" stroke="#323232" stroke-width="2.0" stroke-dasharray="none" fill="none" marker-end="url(#ProcessOnMarker1119)"/></g><g id="ProcessOnG1121"><path id="ProcessOnPath1122" d="M797.909749984741 484.9010467529297L820.5000267028807 484.9010467529297L820.5000267028807 484.9010467529297L827.8542354435206 484.9010467529297" stroke="#323232" stroke-width="2.0" stroke-dasharray="none" fill="none" marker-end="url(#ProcessOnMarker1123)"/></g><g id="ProcessOnG1125"><path id="ProcessOnPath1126" d="M946.5208606719968 484.9010467529297L969.4375305175779 484.9010467529297L969.4375305175779 484.9010467529297L977.1181323856591 484.9010467529297" stroke="#323232" stroke-width="2.0" stroke-dasharray="none" fill="none" marker-end="url(#ProcessOnMarker1127)"/></g><g id="ProcessOnG1129"><path id="ProcessOnPath1130" d="M1102.0208644866943 484.9010467529297L1120.6875324249268 484.9010467529297L1120.6875324249268 484.9010467529297L1124.118132385659 484.9010467529297" stroke="#323232" stroke-width="2.0" stroke-dasharray="none" fill="none" marker-end="url(#ProcessOnMarker1131)"/></g><g id="ProcessOnG1133"><path id="ProcessOnPath1134" d="M1239.0903034210205 484.9010467529297L1258.8333625793457 484.9010467529297L1258.8333625793457 484.9010467529297L1263.3403537601712 484.9010467529297" stroke="#323232" stroke-width="2.0" stroke-dasharray="none" fill="none" marker-end="url(#ProcessOnMarker1135)"/></g><g id="ProcessOnG1137" transform="matrix(1.0,0.0,0.0,1.0,1409.576421737671,457.9010467529297)" opacity="1.0"><path id="ProcessOnPath1138" d="M0.0 0.0L96.73612594604492 0.0L96.73612594604492 54.0L0.0 54.0Z" stroke="#ff8000" stroke-width="2.0" stroke-dasharray="none" opacity="1.0" fill="#ffffff"/><g id="ProcessOnG1139" transform="matrix(1.0,0.0,0.0,1.0,10.0,15.75)"><text id="ProcessOnText1140" fill="#000000" font-size="18" x="37.36806297302246" y="18.45" font-family="微软雅黑" font-weight="bold" font-style="normal" text-decoration="none" family="微软雅黑" text-anchor="middle" size="18">101 105</text></g></g><g id="ProcessOnG1141"><path id="ProcessOnPath1142" d="M1388.0920538902283 339.9010467529297L1450.1831453899836 444.7900063913185" stroke="#323232" stroke-width="2.0" stroke-dasharray="none" fill="none" marker-end="url(#ProcessOnMarker1143)"/></g><g id="ProcessOnG1145"><path id="ProcessOnPath1146" d="M1372.3125476837158 484.9010467529297L1394.3403537601712 484.9010467529297" stroke="#323232" stroke-width="2.0" stroke-dasharray="none" fill="none" marker-end="url(#ProcessOnMarker1147)"/></g><g id="ProcessOnG1149" transform="matrix(1.0,0.0,0.0,1.0,1344.8715600967403,285.9010467529297)" opacity="1.0"><path id="ProcessOnPath1150" d="M0.0 0.0L86.44098758697555 0.0L86.44098758697555 54.0L0.0 54.0Z" stroke="#ff8000" stroke-width="2.0" stroke-dasharray="none" opacity="1.0" fill="#ffffff"/><g id="ProcessOnG1151" transform="matrix(1.0,0.0,0.0,1.0,10.0,15.75)"><text id="ProcessOnText1152" fill="#000000" font-size="18" x="32.220493793487776" y="18.45" font-family="微软雅黑" font-weight="bold" font-style="normal" text-decoration="none" family="微软雅黑" text-anchor="middle" size="18">99 105</text></g></g><g id="ProcessOnG1153"><path id="ProcessOnPath1154" d="M861.1319751739501 190.90104675293014L1373.0977006104004 283.1978750723467" stroke="#323232" stroke-width="2.0" stroke-dasharray="none" fill="none" marker-end="url(#ProcessOnMarker1155)"/></g></g></g></svg>