<svg xmlns="http://www.w3.org/2000/svg" xmlns:xlink="http://www.w3.org/1999/xlink" id="processonSvg1000" viewBox="243.22222518920898 189.72222137451172 300.55554962158203 197.55555725097656" width="300.55554962158203" height="197.55555725097656"><defs id="ProcessOnDefs1001"><marker id="ProcessOnMarker1019" markerUnits="userSpaceOnUse" orient="auto" markerWidth="16.23606797749979" markerHeight="10.550836550532098" viewBox="-1.0 -1.3763819204711736 16.23606797749979 10.550836550532098" refX="-1.0" refY="3.8990363547948754"><path id="ProcessOnPath1020" d="M12.0 3.8990363547948754L0.0 7.798072709589751V0.0Z" stroke="#323232" stroke-width="2.0" fill="#323232" transform="matrix(1.0,0.0,0.0,1.0,0.0,0.0)"/></marker><marker id="ProcessOnMarker1023" markerUnits="userSpaceOnUse" orient="auto" markerWidth="16.23606797749979" markerHeight="10.550836550532098" viewBox="-1.0 -1.3763819204711736 16.23606797749979 10.550836550532098" refX="-1.0" refY="3.8990363547948754"><path id="ProcessOnPath1024" d="M12.0 3.8990363547948754L0.0 7.798072709589751V0.0Z" stroke="#323232" stroke-width="2.0" fill="#323232" transform="matrix(1.0,0.0,0.0,1.0,0.0,0.0)"/></marker></defs><g id="ProcessOnG1002"><path id="ProcessOnPath1003" d="M243.22222518920898 189.72222137451172H543.777774810791V387.2777786254883H243.22222518920898V189.72222137451172Z" fill="none"/><g id="ProcessOnG1004"><g id="ProcessOnG1005" transform="matrix(1.0,0.0,0.0,1.0,263.222225189209,311.7222213745117)" opacity="1.0"><path id="ProcessOnPath1006" d="M0.0 0.0L86.77778625488281 0.0L86.77778625488281 55.55555725097656L0.0 55.55555725097656Z" stroke="#323232" stroke-width="2.0" stroke-dasharray="none" opacity="1.0" fill="#ffffff"/><g id="ProcessOnG1007" transform="matrix(1.0,0.0,0.0,1.0,10.0,16.52777862548828)"><text id="ProcessOnText1008" fill="#000000" font-size="18" x="32.388893127441406" y="18.45" font-family="微软雅黑" font-weight="bold" font-style="normal" text-decoration="none" family="微软雅黑" text-anchor="middle" size="18">1   2</text></g></g><g id="ProcessOnG1009" transform="matrix(1.0,0.0,0.0,1.0,346.222225189209,209.72222137451172)" opacity="1.0"><path id="ProcessOnPath1010" d="M0.0 0.0L91.55554962158203 0.0L91.55554962158203 54.0L0.0 54.0Z" stroke="#323232" stroke-width="2.0" stroke-dasharray="none" opacity="1.0" fill="#ffffff"/><g id="ProcessOnG1011" transform="matrix(1.0,0.0,0.0,1.0,10.0,15.75)"><text id="ProcessOnText1012" fill="#000000" font-size="18" x="34.777774810791016" y="18.45" font-family="微软雅黑" font-weight="bold" font-style="normal" text-decoration="none" family="微软雅黑" text-anchor="middle" size="18">3</text></g></g><g id="ProcessOnG1013" transform="matrix(1.0,0.0,0.0,1.0,432.222225189209,312.5)" opacity="1.0"><path id="ProcessOnPath1014" d="M0.0 0.0L91.55554962158203 0.0L91.55554962158203 54.0L0.0 54.0Z" stroke="#323232" stroke-width="2.0" stroke-dasharray="none" opacity="1.0" fill="#ffffff"/><g id="ProcessOnG1015" transform="matrix(1.0,0.0,0.0,1.0,10.0,15.75)"><text id="ProcessOnText1016" fill="#000000" font-size="18" x="34.777774810791016" y="18.45" font-family="微软雅黑" font-weight="bold" font-style="normal" text-decoration="none" family="微软雅黑" text-anchor="middle" size="18">4   5   7</text></g></g><g id="ProcessOnG1017"><path id="ProcessOnPath1018" d="M392.0 263.7222213745117L319.8925786203602 304.2562599752025" stroke="#323232" stroke-width="2.0" stroke-dasharray="none" fill="none" marker-end="url(#ProcessOnMarker1019)"/></g><g id="ProcessOnG1021"><path id="ProcessOnPath1022" d="M392.0 263.7222213745117L464.74722165061183 304.983243156987" stroke="#323232" stroke-width="2.0" stroke-dasharray="none" fill="none" marker-end="url(#ProcessOnMarker1023)"/></g></g></g></svg>