<svg xmlns="http://www.w3.org/2000/svg" xmlns:xlink="http://www.w3.org/1999/xlink" id="processonSvg1000" viewBox="243.22222518920898 190.72222137451172 373.55554962158203 196.55555725097656" width="373.55554962158203" height="196.55555725097656"><defs id="ProcessOnDefs1001"><marker id="ProcessOnMarker1019" markerUnits="userSpaceOnUse" orient="auto" markerWidth="16.23606797749979" markerHeight="10.550836550532098" viewBox="-1.0 -1.3763819204711736 16.23606797749979 10.550836550532098" refX="-1.0" refY="3.8990363547948754"><path id="ProcessOnPath1020" d="M12.0 3.8990363547948754L0.0 7.798072709589751V0.0Z" stroke="#323232" stroke-width="2.0" fill="#323232" transform="matrix(1.0,0.0,0.0,1.0,0.0,0.0)"/></marker><marker id="ProcessOnMarker1023" markerUnits="userSpaceOnUse" orient="auto" markerWidth="16.23606797749979" markerHeight="10.550836550532098" viewBox="-1.0 -1.3763819204711736 16.23606797749979 10.550836550532098" refX="-1.0" refY="3.8990363547948754"><path id="ProcessOnPath1024" d="M12.0 3.8990363547948754L0.0 7.798072709589751V0.0Z" stroke="#323232" stroke-width="2.0" fill="#323232" transform="matrix(1.0,0.0,0.0,1.0,0.0,0.0)"/></marker><marker id="ProcessOnMarker1031" markerUnits="userSpaceOnUse" orient="auto" markerWidth="16.23606797749979" markerHeight="10.550836550532098" viewBox="-1.0 -1.3763819204711736 16.23606797749979 10.550836550532098" refX="-1.0" refY="3.8990363547948754"><path id="ProcessOnPath1032" d="M12.0 3.8990363547948754L0.0 7.798072709589751V0.0Z" stroke="#323232" stroke-width="2.0" fill="#323232" transform="matrix(1.0,0.0,0.0,1.0,0.0,0.0)"/></marker></defs><g id="ProcessOnG1002"><path id="ProcessOnPath1003" d="M243.22222518920898 190.72222137451172H616.777774810791V387.2777786254883H243.22222518920898V190.72222137451172Z" fill="none"/><g id="ProcessOnG1004"><g id="ProcessOnG1005" transform="matrix(1.0,0.0,0.0,1.0,263.222225189209,311.7222213745117)" opacity="1.0"><path id="ProcessOnPath1006" d="M0.0 0.0L86.77778625488281 0.0L86.77778625488281 55.55555725097656L0.0 55.55555725097656Z" stroke="#323232" stroke-width="2.0" stroke-dasharray="none" opacity="1.0" fill="#ffffff"/><g id="ProcessOnG1007" transform="matrix(1.0,0.0,0.0,1.0,10.0,16.52777862548828)"><text id="ProcessOnText1008" fill="#000000" font-size="18" x="32.388893127441406" y="18.45" font-family="微软雅黑" font-weight="bold" font-style="normal" text-decoration="none" family="微软雅黑" text-anchor="middle" size="18">1   2</text></g></g><g id="ProcessOnG1009" transform="matrix(1.0,0.0,0.0,1.0,378.222225189209,210.72222137451172)" opacity="1.0"><path id="ProcessOnPath1010" d="M0.0 0.0L91.55554962158203 0.0L91.55554962158203 54.0L0.0 54.0Z" stroke="#323232" stroke-width="2.0" stroke-dasharray="none" opacity="1.0" fill="#ffffff"/><g id="ProcessOnG1011" transform="matrix(1.0,0.0,0.0,1.0,10.0,15.75)"><text id="ProcessOnText1012" fill="#000000" font-size="18" x="34.777774810791016" y="18.45" font-family="微软雅黑" font-weight="bold" font-style="normal" text-decoration="none" family="微软雅黑" text-anchor="middle" size="18">3   5</text></g></g><g id="ProcessOnG1013" transform="matrix(1.0,0.0,0.0,1.0,378.222225189209,312.5)" opacity="1.0"><path id="ProcessOnPath1014" d="M0.0 0.0L91.55554962158203 0.0L91.55554962158203 54.0L0.0 54.0Z" stroke="#323232" stroke-width="2.0" stroke-dasharray="none" opacity="1.0" fill="#ffffff"/><g id="ProcessOnG1015" transform="matrix(1.0,0.0,0.0,1.0,10.0,15.75)"><text id="ProcessOnText1016" fill="#000000" font-size="18" x="34.777774810791016" y="18.45" font-family="微软雅黑" font-weight="bold" font-style="normal" text-decoration="none" family="微软雅黑" text-anchor="middle" size="18">4</text></g></g><g id="ProcessOnG1017"><path id="ProcessOnPath1018" d="M424.0 264.7222213745117L320.7556047921346 306.05907121229285" stroke="#323232" stroke-width="2.0" stroke-dasharray="none" fill="none" marker-end="url(#ProcessOnMarker1019)"/></g><g id="ProcessOnG1021"><path id="ProcessOnPath1022" d="M424.0 264.7222213745117L424.0 297.2639320225002" stroke="#323232" stroke-width="2.0" stroke-dasharray="none" fill="none" marker-end="url(#ProcessOnMarker1023)"/></g><g id="ProcessOnG1025" transform="matrix(1.0,0.0,0.0,1.0,505.222225189209,312.5)" opacity="1.0"><path id="ProcessOnPath1026" d="M0.0 0.0L91.55554962158203 0.0L91.55554962158203 54.0L0.0 54.0Z" stroke="#323232" stroke-width="2.0" stroke-dasharray="none" opacity="1.0" fill="#ffffff"/><g id="ProcessOnG1027" transform="matrix(1.0,0.0,0.0,1.0,10.0,15.75)"><text id="ProcessOnText1028" fill="#000000" font-size="18" x="34.777774810791016" y="18.45" font-family="微软雅黑" font-weight="bold" font-style="normal" text-decoration="none" family="微软雅黑" text-anchor="middle" size="18">7   8</text></g></g><g id="ProcessOnG1029"><path id="ProcessOnPath1030" d="M424.0 264.7222213745117L536.739672898553 307.13522243007884" stroke="#323232" stroke-width="2.0" stroke-dasharray="none" fill="none" marker-end="url(#ProcessOnMarker1031)"/></g></g></g></svg>