<svg xmlns="http://www.w3.org/2000/svg" xmlns:xlink="http://www.w3.org/1999/xlink" id="processonSvg1000" viewBox="355.1111183166504 129.38888740539556 771.2222213745117 394.2222251892089" width="771.2222213745117" height="394.2222251892089"><defs id="ProcessOnDefs1001"><marker id="ProcessOnMarker1045" markerUnits="userSpaceOnUse" orient="auto" markerWidth="16.23606797749979" markerHeight="10.550836550532098" viewBox="-1.0 -1.3763819204711736 16.23606797749979 10.550836550532098" refX="-1.0" refY="3.8990363547948754"><path id="ProcessOnPath1046" d="M12.0 3.8990363547948754L0.0 7.798072709589751V0.0Z" stroke="#323232" stroke-width="2.0" fill="#323232" transform="matrix(1.0,0.0,0.0,1.0,0.0,0.0)"/></marker><marker id="ProcessOnMarker1055" markerUnits="userSpaceOnUse" orient="auto" markerWidth="16.23606797749979" markerHeight="10.550836550532098" viewBox="-1.0 -1.3763819204711736 16.23606797749979 10.550836550532098" refX="-1.0" refY="3.8990363547948754"><path id="ProcessOnPath1056" d="M12.0 3.8990363547948754L0.0 7.798072709589751V0.0Z" stroke="#323232" stroke-width="2.0" fill="#323232" transform="matrix(1.0,0.0,0.0,1.0,0.0,0.0)"/></marker><marker id="ProcessOnMarker1062" markerUnits="userSpaceOnUse" orient="auto" markerWidth="16.23606797749979" markerHeight="10.550836550532098" viewBox="-1.0 -1.3763819204711736 16.23606797749979 10.550836550532098" refX="-1.0" refY="3.8990363547948754"><path id="ProcessOnPath1063" d="M12.0 3.8990363547948754L0.0 7.798072709589751V0.0Z" stroke="#323232" stroke-width="2.0" fill="#323232" transform="matrix(1.0,0.0,0.0,1.0,0.0,0.0)"/></marker><marker id="ProcessOnMarker1069" markerUnits="userSpaceOnUse" orient="auto" markerWidth="16.23606797749979" markerHeight="10.550836550532098" viewBox="-1.0 -1.3763819204711736 16.23606797749979 10.550836550532098" refX="-1.0" refY="3.8990363547948754"><path id="ProcessOnPath1070" d="M12.0 3.8990363547948754L0.0 7.798072709589751V0.0Z" stroke="#323232" stroke-width="2.0" fill="#323232" transform="matrix(1.0,0.0,0.0,1.0,0.0,0.0)"/></marker></defs><g id="ProcessOnG1002"><path id="ProcessOnPath1003" d="M355.1111183166504 129.38888740539556H1126.333339691162V523.6111125946045H355.1111183166504V129.38888740539556Z" fill="none"/><g id="ProcessOnG1004"><g id="ProcessOnG1005" transform="matrix(1.0,0.0,0.0,1.0,421.3333320617676,227.38888740539554)" opacity="1.0"><path id="ProcessOnPath1006" d="M0.0 0.0L310.0 0.0L310.0 182.0L0.0 182.0Z" stroke="#323232" stroke-width="2.0" stroke-dasharray="none" opacity="1.0" fill="#ffffff"/></g><g id="ProcessOnG1007" transform="matrix(1.0,0.0,0.0,1.0,836.0000038146973,260.27777671813965)" opacity="1.0"><path id="ProcessOnPath1008" d="M0.0 0.0L254.33333587646484 0.0L270.33333587646484 16.0L270.33333587646484 116.22222137451172L0.0 116.22222137451172L0.0 0.0Z" stroke="none" stroke-width="0.0" stroke-dasharray="none" opacity="1.0" fill="#ffffaa"/><path id="ProcessOnPath1009" d="M254.33333587646484 0.0L254.33333587646484 16.0L270.33333587646484 16.0Z" stroke="none" stroke-width="0.0" stroke-dasharray="none" opacity="1.0" fill="#cdcd78"/><path id="ProcessOnPath1010" d="M0.0 0.0L254.33333587646484 0.0L270.33333587646484 16.0L270.33333587646484 116.22222137451172L0.0 116.22222137451172L0.0 0.0Z" stroke="none" stroke-width="0.0" stroke-dasharray="none" opacity="1.0" fill="none"/><g id="ProcessOnG1011" transform="matrix(1.0,0.0,0.0,1.0,10.0,-11.88888931274414)"><text id="ProcessOnText1012" fill="#000000" font-size="16" x="0.0" y="16.4" font-family="微软雅黑" font-weight="bold" font-style="normal" text-decoration="none" family="微软雅黑" text-anchor="start" size="16"></text><text id="ProcessOnText1013" fill="#000000" font-size="16" x="0.0" y="36.4" font-family="微软雅黑" font-weight="bold" font-style="normal" text-decoration="none" family="微软雅黑" text-anchor="start" size="16">KeyNum: 2</text><text id="ProcessOnText1014" fill="#000000" font-size="16" x="0.0" y="56.4" font-family="微软雅黑" font-weight="bold" font-style="normal" text-decoration="none" family="微软雅黑" text-anchor="start" size="16">Parent: nil</text><text id="ProcessOnText1015" fill="#000000" font-size="16" x="0.0" y="76.4" font-family="微软雅黑" font-weight="bold" font-style="normal" text-decoration="none" family="微软雅黑" text-anchor="start" size="16">IsLeaf: false</text><text id="ProcessOnText1016" fill="#000000" font-size="16" x="0.0" y="96.4" font-family="微软雅黑" font-weight="bold" font-style="normal" text-decoration="none" family="微软雅黑" text-anchor="start" size="16">Key: []int{9, 21}</text><text id="ProcessOnText1017" fill="#000000" font-size="16" x="0.0" y="116.4" font-family="微软雅黑" font-weight="bold" font-style="normal" text-decoration="none" family="微软雅黑" text-anchor="start" size="16">Children: []*BTNode{T1, T2, T3}</text><text id="ProcessOnText1018" fill="#000000" font-size="16" x="0.0" y="136.4" font-family="微软雅黑" font-weight="bold" font-style="normal" text-decoration="none" family="微软雅黑" text-anchor="start" size="16"></text></g></g><g id="ProcessOnG1019" transform="matrix(1.0,0.0,0.0,1.0,494.6666679382324,299.3888874053955)" opacity="1.0"><path id="ProcessOnPath1020" d="M0.0 0.0L54.44444274902344 0.0L54.44444274902344 38.0L0.0 38.0Z" stroke="#323232" stroke-width="2.0" stroke-dasharray="none" opacity="1.0" fill="#99ccff"/><g id="ProcessOnG1021" transform="matrix(1.0,0.0,0.0,1.0,10.0,7.75)"><text id="ProcessOnText1022" fill="#000000" font-size="18" x="16.22222137451172" y="18.45" font-family="微软雅黑" font-weight="bold" font-style="normal" text-decoration="none" family="微软雅黑" text-anchor="middle" size="18">9</text></g></g><g id="ProcessOnG1023" transform="matrix(1.0,0.0,0.0,1.0,603.5555534362793,299.3888874053955)" opacity="1.0"><path id="ProcessOnPath1024" d="M0.0 0.0L54.44444274902344 0.0L54.44444274902344 38.0L0.0 38.0Z" stroke="#323232" stroke-width="2.0" stroke-dasharray="none" opacity="1.0" fill="#99ccff"/><g id="ProcessOnG1025" transform="matrix(1.0,0.0,0.0,1.0,10.0,7.75)"><text id="ProcessOnText1026" fill="#000000" font-size="18" x="16.22222137451172" y="18.45" font-family="微软雅黑" font-weight="bold" font-style="normal" text-decoration="none" family="微软雅黑" text-anchor="middle" size="18">21</text></g></g><g id="ProcessOnG1027" transform="matrix(1.0,0.0,0.0,1.0,440.22222518920904,353.3888874053955)" opacity="1.0"><path id="ProcessOnPath1028" d="M0.0 0.0L54.44444274902344 0.0L54.44444274902344 38.0L0.0 38.0Z" stroke="#323232" stroke-width="2.0" stroke-dasharray="none" opacity="1.0" fill="#66cc00"/><g id="ProcessOnG1029" transform="matrix(1.0,0.0,0.0,1.0,10.0,7.75)"><text id="ProcessOnText1030" fill="#000000" font-size="18" x="16.22222137451172" y="18.45" font-family="微软雅黑" font-weight="bold" font-style="normal" text-decoration="none" family="微软雅黑" text-anchor="middle" size="18">T1</text></g></g><g id="ProcessOnG1031" transform="matrix(1.0,0.0,0.0,1.0,549.1111106872559,353.3888874053955)" opacity="1.0"><path id="ProcessOnPath1032" d="M0.0 0.0L54.44444274902344 0.0L54.44444274902344 38.0L0.0 38.0Z" stroke="#323232" stroke-width="2.0" stroke-dasharray="none" opacity="1.0" fill="#66cc00"/><g id="ProcessOnG1033" transform="matrix(1.0,0.0,0.0,1.0,10.0,7.75)"><text id="ProcessOnText1034" fill="#000000" font-size="18" x="16.22222137451172" y="18.45" font-family="微软雅黑" font-weight="bold" font-style="normal" text-decoration="none" family="微软雅黑" text-anchor="middle" size="18">T2</text></g></g><g id="ProcessOnG1035" transform="matrix(1.0,0.0,0.0,1.0,660.1111183166504,353.3888874053955)" opacity="1.0"><path id="ProcessOnPath1036" d="M0.0 0.0L54.44444274902344 0.0L54.44444274902344 38.0L0.0 38.0Z" stroke="#323232" stroke-width="2.0" stroke-dasharray="none" opacity="1.0" fill="#66cc00"/><g id="ProcessOnG1037" transform="matrix(1.0,0.0,0.0,1.0,10.0,7.75)"><text id="ProcessOnText1038" fill="#000000" font-size="18" x="16.22222137451172" y="18.45" font-family="微软雅黑" font-weight="bold" font-style="normal" text-decoration="none" family="微软雅黑" text-anchor="middle" size="18">T3</text></g></g><g id="ProcessOnG1039" transform="matrix(1.0,0.0,0.0,1.0,549.1111106872559,247.38888740539554)" opacity="1.0"><path id="ProcessOnPath1040" d="M0.0 0.0L54.44444274902344 0.0L54.44444274902344 38.0L0.0 38.0Z" stroke="#323232" stroke-width="2.0" stroke-dasharray="none" opacity="1.0" fill="#ff9999"/><g id="ProcessOnG1041" transform="matrix(1.0,0.0,0.0,1.0,10.0,7.75)"><text id="ProcessOnText1042" fill="#000000" font-size="18" x="16.22222137451172" y="18.45" font-family="微软雅黑" font-weight="bold" font-style="normal" text-decoration="none" family="微软雅黑" text-anchor="middle" size="18">P</text></g></g><g id="ProcessOnG1043"><path id="ProcessOnPath1044" d="M576.3333320617676 247.38888740539554L592.3000905342142 201.76957748411928" stroke="#323232" stroke-width="2.0" stroke-dasharray="none" fill="none" marker-end="url(#ProcessOnMarker1045)"/></g><g id="ProcessOnG1047" transform="matrix(1.0,0.0,0.0,1.0,570.1111106872559,149.38888740539556)" opacity="1.0"><path id="ProcessOnPath1048" d="M0.0 0.0L54.44444274902344 0.0L54.44444274902344 38.0L0.0 38.0Z" stroke="#323232" stroke-width="2.0" stroke-dasharray="none" opacity="1.0" fill="#000000"/><g id="ProcessOnG1049" transform="matrix(1.0,0.0,0.0,1.0,10.0,6.5)"><text id="ProcessOnText1050" fill="#ffffff" font-size="20" x="16.22222137451172" y="20.5" font-family="微软雅黑" font-weight="bold" font-style="normal" text-decoration="none" family="微软雅黑" text-anchor="middle" size="20">Nil</text></g></g><g id="ProcessOnG1051" transform="matrix(1.0,0.0,0.0,1.0,736.4444465637207,288.3888874053955)" opacity="1.0"><path id="ProcessOnPath1052" d="M0.0 30.0L30.0 0.0L30.0 19.8L60.0 19.8L60.0 0.0L90.0 30.0L60.0 60.0L60.0 40.2L30.0 40.2L30.0 60.0L0.0 30.0Z" stroke="#323232" stroke-width="2.0" stroke-dasharray="none" opacity="1.0" fill="#ffffff"/></g><g id="ProcessOnG1053"><path id="ProcessOnPath1054" d="M467.4444465637207 391.3888874053955L397.7980020176491 484.4145349867229" stroke="#323232" stroke-width="2.0" stroke-dasharray="none" fill="none" marker-end="url(#ProcessOnMarker1055)"/><g id="ProcessOnG1057" transform="matrix(1.0,0.0,0.0,1.0,432.6212242906849,425.4017111960592)"><path id="ProcessOnPath1058" d="M0 0H52.0V25.0H0Z" fill="#fff" transform="matrix(1.0,0.0,0.0,1.0,-26.0,0.0)"/><text id="ProcessOnText1059" fill="#000000" font-size="20" x="0.0" y="20.5" font-family="微软雅黑" font-weight="bold" font-style="normal" text-decoration="none" family="微软雅黑" text-anchor="middle" size="20">n &lt; 9</text></g></g><g id="ProcessOnG1060"><path id="ProcessOnPath1061" d="M576.3333320617676 391.3888874053955L576.3333320617676 488.3750446171047" stroke="#323232" stroke-width="2.0" stroke-dasharray="none" fill="none" marker-end="url(#ProcessOnMarker1062)"/><g id="ProcessOnG1064" transform="matrix(1.0,0.0,0.0,1.0,576.3333320617676,427.38196601125014)"><path id="ProcessOnPath1065" d="M0 0H103.0V25.0H0Z" fill="#fff" transform="matrix(1.0,0.0,0.0,1.0,-51.5,0.0)"/><text id="ProcessOnText1066" fill="#000000" font-size="20" x="0.0" y="20.5" font-family="微软雅黑" font-weight="bold" font-style="normal" text-decoration="none" family="微软雅黑" text-anchor="middle" size="20">9  &lt; n &lt;21</text></g></g><g id="ProcessOnG1067"><path id="ProcessOnPath1068" d="M687.3333396911621 391.3888874053955L746.3064659861794 484.73046666613664" stroke="#323232" stroke-width="2.0" stroke-dasharray="none" fill="none" marker-end="url(#ProcessOnMarker1069)"/><g id="ProcessOnG1071" transform="matrix(1.0,0.0,0.0,1.0,716.8199028386707,425.5596770357661)"><path id="ProcessOnPath1072" d="M0 0H64.0V25.0H0Z" fill="#fff" transform="matrix(1.0,0.0,0.0,1.0,-32.0,0.0)"/><text id="ProcessOnText1073" fill="#000000" font-size="20" x="0.0" y="20.5" font-family="微软雅黑" font-weight="bold" font-style="normal" text-decoration="none" family="微软雅黑" text-anchor="middle" size="20">21 &lt; n</text></g></g><g id="ProcessOnG1074" transform="matrix(1.0,0.0,0.0,1.0,375.1111183166504,229.83334159851077)" opacity="1.0"><path id="ProcessOnPath1075" d="M0.0 0.0L160.0 0.0L160.0 40.0L0.0 40.0Z" stroke="none" stroke-width="0.0" stroke-dasharray="none" opacity="1.0" fill="none"/><g id="ProcessOnG1076" transform="matrix(1.0,0.0,0.0,1.0,0.0,7.5)"><text id="ProcessOnText1077" fill="#b8b8b8" font-size="20" x="79.0" y="20.5" font-family="微软雅黑" font-weight="bold" font-style="normal" text-decoration="none" family="微软雅黑" text-anchor="middle" size="20">Node</text></g></g></g></g></svg>