<svg xmlns="http://www.w3.org/2000/svg" xmlns:xlink="http://www.w3.org/1999/xlink" id="processonSvg1000" viewBox="107.56944274902344 67.03124237060547 652.0 459.49999237060547" width="652.0" height="459.49999237060547"><defs id="ProcessOnDefs1001"><marker id="ProcessOnMarker1038" markerUnits="userSpaceOnUse" orient="auto" markerWidth="14.289086868996552" markerHeight="19.055054660878554" viewBox="-0.5877852522924731 -0.8090169943749475 14.289086868996552 19.055054660878554" refX="12.0" refY="8.71851033606433"><path id="ProcessOnPath1039" d="M0 0L12.0 8.71851033606433L0 17.43702067212866" stroke="#323232" stroke-width="2.0" fill="none" transform="matrix(1.0,0.0,0.0,1.0,0.0,0.0)"/></marker><marker id="ProcessOnMarker1047" markerUnits="userSpaceOnUse" orient="auto" markerWidth="14.289086868996552" markerHeight="19.055054660878554" viewBox="-0.5877852522924731 -0.8090169943749475 14.289086868996552 19.055054660878554" refX="12.0" refY="8.71851033606433"><path id="ProcessOnPath1048" d="M0 0L12.0 8.71851033606433L0 17.43702067212866" stroke="#323232" stroke-width="2.0" fill="none" transform="matrix(1.0,0.0,0.0,1.0,0.0,0.0)"/></marker><marker id="ProcessOnMarker1055" markerUnits="userSpaceOnUse" orient="auto" markerWidth="14.289086868996552" markerHeight="19.055054660878554" viewBox="-0.5877852522924731 -0.8090169943749475 14.289086868996552 19.055054660878554" refX="12.0" refY="8.71851033606433"><path id="ProcessOnPath1056" d="M0 0L12.0 8.71851033606433L0 17.43702067212866" stroke="#323232" stroke-width="2.0" fill="none" transform="matrix(1.0,0.0,0.0,1.0,0.0,0.0)"/></marker></defs><g id="ProcessOnG1002"><path id="ProcessOnPath1003" d="M107.56944274902344 67.03124237060547H759.5694427490234V526.5312347412109H107.56944274902344V67.03124237060547Z" fill="none"/><g id="ProcessOnG1004"><g id="ProcessOnG1005" transform="matrix(1.0,0.0,0.0,1.0,323.0138854980469,87.03124237060547)" opacity="1.0"><path id="ProcessOnPath1006" d="M0.0 100.0C0.0 -33.333333333333336 200.0 -33.333333333333336 200.0 100.0C200.0 233.33333333333334 0.0 233.33333333333334 0.0 100.0Z" stroke="#ff8000" stroke-width="2.0" stroke-dasharray="none" opacity="1.0" fill="none"/></g><g id="ProcessOnG1007" transform="matrix(1.0,0.0,0.0,1.0,395.0138854980469,202.03124237060547)" opacity="1.0"><path id="ProcessOnPath1008" d="M0.0 100.0C0.0 -33.333333333333336 200.0 -33.333333333333336 200.0 100.0C200.0 233.33333333333334 0.0 233.33333333333334 0.0 100.0Z" stroke="#66cc00" stroke-width="2.0" stroke-dasharray="none" opacity="1.0" fill="none"/></g><g id="ProcessOnG1009" transform="matrix(1.0,0.0,0.0,1.0,256.0138854980469,202.03124237060547)" opacity="1.0"><path id="ProcessOnPath1010" d="M0.0 100.0C0.0 -33.333333333333336 200.0 -33.333333333333336 200.0 100.0C200.0 233.33333333333334 0.0 233.33333333333334 0.0 100.0Z" stroke="#00cccc" stroke-width="2.0" stroke-dasharray="none" opacity="1.0" fill="none"/></g><g id="ProcessOnG1011" transform="matrix(1.0,0.0,0.0,1.0,343.0138854980469,145.03123474121094)" opacity="1.0"><path id="ProcessOnPath1012" d="M0.0 0.0L160.0 0.0L160.0 40.0L0.0 40.0Z" stroke="none" stroke-width="0.0" stroke-dasharray="none" opacity="1.0" fill="none"/><g id="ProcessOnG1013" transform="matrix(1.0,0.0,0.0,1.0,0.0,7.5)"><text id="ProcessOnText1014" fill="#737373" font-size="20" x="79.0" y="20.5" font-family="微软雅黑" font-weight="bold" font-style="normal" text-decoration="none" family="微软雅黑" text-anchor="middle" size="20">Consistency</text></g></g><g id="ProcessOnG1015" transform="matrix(1.0,0.0,0.0,1.0,247.01388549804688,287.03124237060547)" opacity="1.0"><path id="ProcessOnPath1016" d="M0.0 0.0L160.0 0.0L160.0 40.0L0.0 40.0Z" stroke="none" stroke-width="0.0" stroke-dasharray="none" opacity="1.0" fill="none"/><g id="ProcessOnG1017" transform="matrix(1.0,0.0,0.0,1.0,0.0,7.5)"><text id="ProcessOnText1018" fill="#737373" font-size="20" x="79.0" y="20.5" font-family="微软雅黑" font-weight="bold" font-style="normal" text-decoration="none" family="微软雅黑" text-anchor="middle" size="20">Availability</text></g></g><g id="ProcessOnG1019" transform="matrix(1.0,0.0,0.0,1.0,442.0138854980469,287.03124237060547)" opacity="1.0"><path id="ProcessOnPath1020" d="M0.0 0.0L160.0 0.0L160.0 40.0L0.0 40.0Z" stroke="none" stroke-width="0.0" stroke-dasharray="none" opacity="1.0" fill="none"/><g id="ProcessOnG1021" transform="matrix(1.0,0.0,0.0,1.0,0.0,-5.0)"><text id="ProcessOnText1022" fill="#737373" font-size="20" x="79.0" y="20.5" font-family="微软雅黑" font-weight="bold" font-style="normal" text-decoration="none" family="微软雅黑" text-anchor="middle" size="20">Partition</text><text id="ProcessOnText1023" fill="#737373" font-size="20" x="79.0" y="45.5" font-family="微软雅黑" font-weight="bold" font-style="normal" text-decoration="none" family="微软雅黑" text-anchor="middle" size="20">Tolerance</text></g></g><g id="ProcessOnG1024" transform="matrix(1.0,0.0,0.0,1.0,335.0138854980469,215.03123474121094)" opacity="1.0"><path id="ProcessOnPath1025" d="M0.0 0.0L72.0 0.0L72.0 41.0L0.0 41.0Z" stroke="none" stroke-width="0.0" stroke-dasharray="none" opacity="1.0" fill="none"/><g id="ProcessOnG1026" transform="matrix(1.0,0.0,0.0,1.0,0.0,10.5)"><text id="ProcessOnText1027" fill="#000000" font-size="16" x="35.0" y="16.4" font-family="微软雅黑" font-weight="bold" font-style="normal" text-decoration="none" family="微软雅黑" text-anchor="middle" size="16">CA</text></g></g><g id="ProcessOnG1028" transform="matrix(1.0,0.0,0.0,1.0,387.0138854980469,303.03123474121094)" opacity="1.0"><path id="ProcessOnPath1029" d="M0.0 0.0L72.0 0.0L72.0 41.0L0.0 41.0Z" stroke="none" stroke-width="0.0" stroke-dasharray="none" opacity="1.0" fill="none"/><g id="ProcessOnG1030" transform="matrix(1.0,0.0,0.0,1.0,0.0,10.5)"><text id="ProcessOnText1031" fill="#000000" font-size="16" x="35.0" y="16.4" font-family="微软雅黑" font-weight="bold" font-style="normal" text-decoration="none" family="微软雅黑" text-anchor="middle" size="16">AP</text></g></g><g id="ProcessOnG1032" transform="matrix(1.0,0.0,0.0,1.0,437.0138854980469,215.03123474121094)" opacity="1.0"><path id="ProcessOnPath1033" d="M0.0 0.0L72.0 0.0L72.0 41.0L0.0 41.0Z" stroke="none" stroke-width="0.0" stroke-dasharray="none" opacity="1.0" fill="none"/><g id="ProcessOnG1034" transform="matrix(1.0,0.0,0.0,1.0,0.0,10.5)"><text id="ProcessOnText1035" fill="#000000" font-size="16" x="35.0" y="16.4" font-family="微软雅黑" font-weight="bold" font-style="normal" text-decoration="none" family="微软雅黑" text-anchor="middle" size="16">CP</text></g></g><g id="ProcessOnG1036"><path id="ProcessOnPath1037" d="M497.56944274902344 225.03123474121094L615.5694427490234 159.03123474121094" stroke="#323232" stroke-width="2.0" stroke-dasharray="10.0 4.0" fill="none" marker-end="url(#ProcessOnMarker1038)"/></g><g id="ProcessOnG1040" transform="matrix(1.0,0.0,0.0,1.0,579.5694427490234,132.03123474121094)" opacity="1.0"><path id="ProcessOnPath1041" d="M0.0 0.0L160.0 0.0L160.0 40.0L0.0 40.0Z" stroke="none" stroke-width="0.0" stroke-dasharray="none" opacity="1.0" fill="none"/><g id="ProcessOnG1042" transform="matrix(1.0,0.0,0.0,1.0,0.0,-2.5)"><text id="ProcessOnText1043" fill="#000000" font-size="18" x="79.0" y="18.45" font-family="微软雅黑" font-weight="normal" font-style="normal" text-decoration="none" family="微软雅黑" text-anchor="middle" size="18">MongoDB</text><text id="ProcessOnText1044" fill="#000000" font-size="18" x="79.0" y="40.95" font-family="微软雅黑" font-weight="normal" font-style="normal" text-decoration="none" family="微软雅黑" text-anchor="middle" size="18">Redis</text></g></g><g id="ProcessOnG1045"><path id="ProcessOnPath1046" d="M347.56944274902344 224.03123474121094L247.01388549804688 157.03123474121094" stroke="#323232" stroke-width="2.0" stroke-dasharray="10.0 4.0" fill="none" marker-end="url(#ProcessOnMarker1047)"/></g><g id="ProcessOnG1049" transform="matrix(1.0,0.0,0.0,1.0,127.56944274902344,128.03123474121094)" opacity="1.0"><path id="ProcessOnPath1050" d="M0.0 0.0L160.0 0.0L160.0 40.0L0.0 40.0Z" stroke="none" stroke-width="0.0" stroke-dasharray="none" opacity="1.0" fill="none"/><g id="ProcessOnG1051" transform="matrix(1.0,0.0,0.0,1.0,0.0,8.75)"><text id="ProcessOnText1052" fill="#000000" font-size="18" x="79.0" y="18.45" font-family="微软雅黑" font-weight="normal" font-style="normal" text-decoration="none" family="微软雅黑" text-anchor="middle" size="18">RDBMS</text></g></g><g id="ProcessOnG1053"><path id="ProcessOnPath1054" d="M424.56944274902344 339.03123474121094L424.56944274902344 454.03123474121094" stroke="#323232" stroke-width="2.0" stroke-dasharray="10.0 4.0" fill="none" marker-end="url(#ProcessOnMarker1055)"/></g><g id="ProcessOnG1057" transform="matrix(1.0,0.0,0.0,1.0,346.0138854980469,464.03123474121094)" opacity="1.0"><path id="ProcessOnPath1058" d="M0.0 0.0L160.0 0.0L160.0 40.0L0.0 40.0Z" stroke="none" stroke-width="0.0" stroke-dasharray="none" opacity="1.0" fill="none"/><g id="ProcessOnG1059" transform="matrix(1.0,0.0,0.0,1.0,0.0,-2.5)"><text id="ProcessOnText1060" fill="#000000" font-size="18" x="79.0" y="18.45" font-family="微软雅黑" font-weight="normal" font-style="normal" text-decoration="none" family="微软雅黑" text-anchor="middle" size="18">CouchDB</text><text id="ProcessOnText1061" fill="#000000" font-size="18" x="79.0" y="40.95" font-family="微软雅黑" font-weight="normal" font-style="normal" text-decoration="none" family="微软雅黑" text-anchor="middle" size="18"></text></g></g></g></g></svg>