<svg xmlns="http://www.w3.org/2000/svg" xmlns:xlink="http://www.w3.org/1999/xlink" id="processonSvg1000" viewBox="189.4583282470703 45.80902099609375 716.0 646.222225189209" width="716.0" height="646.222225189209"><defs id="ProcessOnDefs1001"><marker id="ProcessOnMarker1041" markerUnits="userSpaceOnUse" orient="auto" markerWidth="14.289086868996552" markerHeight="19.055054660878554" viewBox="-0.5877852522924731 -0.8090169943749475 14.289086868996552 19.055054660878554" refX="12.0" refY="8.71851033606433"><path id="ProcessOnPath1042" d="M0 0L12.0 8.71851033606433L0 17.43702067212866" stroke="#323232" stroke-width="2.0" fill="none" transform="matrix(1.0,0.0,0.0,1.0,0.0,0.0)"/></marker><marker id="ProcessOnMarker1045" markerUnits="userSpaceOnUse" orient="auto" markerWidth="14.289086868996552" markerHeight="19.055054660878554" viewBox="-0.5877852522924731 -0.8090169943749475 14.289086868996552 19.055054660878554" refX="12.0" refY="8.71851033606433"><path id="ProcessOnPath1046" d="M0 0L12.0 8.71851033606433L0 17.43702067212866" stroke="#323232" stroke-width="2.0" fill="none" transform="matrix(1.0,0.0,0.0,1.0,0.0,0.0)"/></marker><marker id="ProcessOnMarker1049" markerUnits="userSpaceOnUse" orient="auto" markerWidth="14.289086868996552" markerHeight="19.055054660878554" viewBox="-0.5877852522924731 -0.8090169943749475 14.289086868996552 19.055054660878554" refX="12.0" refY="8.71851033606433"><path id="ProcessOnPath1050" d="M0 0L12.0 8.71851033606433L0 17.43702067212866" stroke="#323232" stroke-width="2.0" fill="none" transform="matrix(1.0,0.0,0.0,1.0,0.0,0.0)"/></marker></defs><g id="ProcessOnG1002"><path id="ProcessOnPath1003" d="M189.4583282470703 45.80902099609375H905.4583282470703V692.0312461853027H189.4583282470703V45.80902099609375Z" fill="none"/><g id="ProcessOnG1004"><g id="ProcessOnG1005" transform="matrix(1.0,0.0,0.0,1.0,334.8888931274414,104.0)" opacity="1.0"><path id="ProcessOnPath1006" d="M0.0 250.0C0.0 -83.33333333333333 500.0 -83.33333333333333 500.0 250.0C500.0 583.3333333333334 0.0 583.3333333333334 0.0 250.0Z" stroke="#323232" stroke-width="2.0" stroke-dasharray="10.0 4.0" opacity="1.0" fill="#ffffff"/></g><g id="ProcessOnG1007" transform="matrix(1.0,0.0,0.0,1.0,338.8888931274414,225.0)" opacity="1.0"><path id="ProcessOnPath1008" d="M0.0 25.72222328186035C0.0 -8.574074427286783 50.22221374511719 -8.574074427286783 50.22221374511719 25.72222328186035C50.22221374511719 60.018520991007485 0.0 60.018520991007485 0.0 25.72222328186035Z" stroke="#cfcfcf" stroke-width="2.0" stroke-dasharray="none" opacity="1.0" fill="#99ccff"/><g id="ProcessOnG1009" transform="matrix(1.0,0.0,0.0,1.0,10.0,15.722223281860352)"><text id="ProcessOnText1010" fill="#000000" font-size="16" x="14.111106872558594" y="16.4" font-family="微软雅黑" font-weight="bold" font-style="normal" text-decoration="none" family="微软雅黑" text-anchor="middle" size="16">K1</text></g></g><g id="ProcessOnG1011" transform="matrix(1.0,0.0,0.0,1.0,391.8888931274414,517.0)" opacity="1.0"><path id="ProcessOnPath1012" d="M0.0 25.72222328186035C0.0 -8.574074427286783 50.22221374511719 -8.574074427286783 50.22221374511719 25.72222328186035C50.22221374511719 60.018520991007485 0.0 60.018520991007485 0.0 25.72222328186035Z" stroke="#cfcfcf" stroke-width="2.0" stroke-dasharray="none" opacity="1.0" fill="#99ccff"/><g id="ProcessOnG1013" transform="matrix(1.0,0.0,0.0,1.0,10.0,15.722223281860352)"><text id="ProcessOnText1014" fill="#000000" font-size="16" x="14.111106872558594" y="16.4" font-family="微软雅黑" font-weight="bold" font-style="normal" text-decoration="none" family="微软雅黑" text-anchor="middle" size="16">K5</text></g></g><g id="ProcessOnG1015" transform="matrix(1.0,0.0,0.0,1.0,802.8888931274414,407.0)" opacity="1.0"><path id="ProcessOnPath1016" d="M0.0 25.72222328186035C0.0 -8.574074427286783 50.22221374511719 -8.574074427286783 50.22221374511719 25.72222328186035C50.22221374511719 60.018520991007485 0.0 60.018520991007485 0.0 25.72222328186035Z" stroke="#cfcfcf" stroke-width="2.0" stroke-dasharray="none" opacity="1.0" fill="#66cc00"/><g id="ProcessOnG1017" transform="matrix(1.0,0.0,0.0,1.0,10.0,15.722223281860352)"><text id="ProcessOnText1018" fill="#000000" font-size="16" x="14.111106872558594" y="16.4" font-family="微软雅黑" font-weight="bold" font-style="normal" text-decoration="none" family="微软雅黑" text-anchor="middle" size="16">K3</text></g></g><g id="ProcessOnG1019" transform="matrix(1.0,0.0,0.0,1.0,739.8888931274414,509.0)" opacity="1.0"><path id="ProcessOnPath1020" d="M0.0 25.72222328186035C0.0 -8.574074427286783 50.22221374511719 -8.574074427286783 50.22221374511719 25.72222328186035C50.22221374511719 60.018520991007485 0.0 60.018520991007485 0.0 25.72222328186035Z" stroke="#cfcfcf" stroke-width="2.0" stroke-dasharray="none" opacity="1.0" fill="#66cc00"/><g id="ProcessOnG1021" transform="matrix(1.0,0.0,0.0,1.0,10.0,15.722223281860352)"><text id="ProcessOnText1022" fill="#000000" font-size="16" x="14.111106872558594" y="16.4" font-family="微软雅黑" font-weight="bold" font-style="normal" text-decoration="none" family="微软雅黑" text-anchor="middle" size="16">K4</text></g></g><g id="ProcessOnG1023" transform="matrix(1.0,0.0,0.0,1.0,616.8888931274414,85.0)" opacity="1.0"><path id="ProcessOnPath1024" d="M0.0 25.72222328186035C0.0 -8.574074427286783 50.22221374511719 -8.574074427286783 50.22221374511719 25.72222328186035C50.22221374511719 60.018520991007485 0.0 60.018520991007485 0.0 25.72222328186035Z" stroke="#cfcfcf" stroke-width="2.0" stroke-dasharray="none" opacity="1.0" fill="#ffcc99"/><g id="ProcessOnG1025" transform="matrix(1.0,0.0,0.0,1.0,10.0,15.722223281860352)"><text id="ProcessOnText1026" fill="#000000" font-size="16" x="14.111106872558594" y="16.4" font-family="微软雅黑" font-weight="bold" font-style="normal" text-decoration="none" family="微软雅黑" text-anchor="middle" size="16">K2</text></g></g><g id="ProcessOnG1027" transform="matrix(1.0,0.0,0.0,1.0,413.0138854980469,108.03124237060547)" opacity="1.0"><path id="ProcessOnPath1028" d="M0.0 30.0C0.0 -10.0 60.0 -10.0 60.0 30.0C60.0 70.0 0.0 70.0 0.0 30.0Z" stroke="#cfcfcf" stroke-width="2.0" stroke-dasharray="none" opacity="1.0" fill="#99ccff"/><g id="ProcessOnG1029" transform="matrix(1.0,0.0,0.0,1.0,10.0,18.75)"><text id="ProcessOnText1030" fill="#000000" font-size="18" x="19.0" y="18.45" font-family="微软雅黑" font-weight="bold" font-style="normal" text-decoration="none" family="微软雅黑" text-anchor="middle" size="18">N1</text></g></g><g id="ProcessOnG1031" transform="matrix(1.0,0.0,0.0,1.0,735.0,150.03124237060547)" opacity="1.0"><path id="ProcessOnPath1032" d="M0.0 30.0C0.0 -10.0 60.0 -10.0 60.0 30.0C60.0 70.0 0.0 70.0 0.0 30.0Z" stroke="#cfcfcf" stroke-width="2.0" stroke-dasharray="none" opacity="1.0" fill="#ffcc99"/><g id="ProcessOnG1033" transform="matrix(1.0,0.0,0.0,1.0,10.0,18.75)"><text id="ProcessOnText1034" fill="#000000" font-size="18" x="19.0" y="18.45" font-family="微软雅黑" font-weight="bold" font-style="normal" text-decoration="none" family="微软雅黑" text-anchor="middle" size="18">N2</text></g></g><g id="ProcessOnG1035" transform="matrix(1.0,0.0,0.0,1.0,520.0138854980469,568.4444465637207)" opacity="1.0"><path id="ProcessOnPath1036" d="M0.0 30.0C0.0 -10.0 60.0 -10.0 60.0 30.0C60.0 70.0 0.0 70.0 0.0 30.0Z" stroke="#cfcfcf" stroke-width="2.0" stroke-dasharray="none" opacity="1.0" fill="#66cc00"/><g id="ProcessOnG1037" transform="matrix(1.0,0.0,0.0,1.0,10.0,18.75)"><text id="ProcessOnText1038" fill="#000000" font-size="18" x="19.0" y="18.45" font-family="微软雅黑" font-weight="bold" font-style="normal" text-decoration="none" family="微软雅黑" text-anchor="middle" size="18">N3</text></g></g><g id="ProcessOnG1039"><path id="ProcessOnPath1040" d="M885.4583282470703 444.03124618530273C837.4583282470703 604.0312461853027 738.4583282470703 672.0312461853027 554.4583282470703 663.0312461853027" stroke="#323232" stroke-width="2.0" stroke-dasharray="10.0 4.0" fill="none" marker-end="url(#ProcessOnMarker1041)"/></g><g id="ProcessOnG1043"><path id="ProcessOnPath1044" d="M667.1111068725586 65.80902099609375C731.4583282470703 69.80902099609375 761.4583282470703 93.80902099609375 802.8888931274414 138.80902099609375" stroke="#323232" stroke-width="2.0" stroke-dasharray="10.0 4.0" fill="none" marker-end="url(#ProcessOnMarker1045)"/></g><g id="ProcessOnG1047"><path id="ProcessOnPath1048" d="M375.4583282470703 575.9201354980469C267.4583282470703 534.9201354980469 209.4583282470703 225.92013549804688 399.4583282470703 101.92013549804688" stroke="#323232" stroke-width="2.0" stroke-dasharray="10.0 4.0" fill="none" marker-end="url(#ProcessOnMarker1049)"/></g></g></g></svg>