<svg xmlns="http://www.w3.org/2000/svg" xmlns:xlink="http://www.w3.org/1999/xlink" id="processonSvg1000" viewBox="168.06948852539062 57.22223472595215 576.0972213745117 583.4444465637207" width="576.0972213745117" height="583.4444465637207"><defs id="ProcessOnDefs1001"/><g id="ProcessOnG1002"><path id="ProcessOnPath1003" d="M168.06948852539062 57.22223472595215H744.1667098999023V640.6666812896729H168.06948852539062V57.22223472595215Z" fill="none"/><g id="ProcessOnG1004"><g id="ProcessOnG1005" transform="matrix(1.0,0.0,0.0,1.0,205.94449615478516,96.22223472595215)" opacity="1.0"><path id="ProcessOnPath1006" d="M0.0 250.0C0.0 -83.33333333333333 500.0 -83.33333333333333 500.0 250.0C500.0 583.3333333333334 0.0 583.3333333333334 0.0 250.0Z" stroke="#323232" stroke-width="2.0" stroke-dasharray="10.0 4.0" opacity="1.0" fill="#ffffff"/></g><g id="ProcessOnG1007" transform="matrix(1.0,0.0,0.0,1.0,209.94449615478516,217.22223472595215)" opacity="1.0"><path id="ProcessOnPath1008" d="M0.0 25.72222328186035C0.0 -8.574074427286783 50.22221374511719 -8.574074427286783 50.22221374511719 25.72222328186035C50.22221374511719 60.018520991007485 0.0 60.018520991007485 0.0 25.72222328186035Z" stroke="#cfcfcf" stroke-width="2.0" stroke-dasharray="none" opacity="1.0" fill="#99ccff"/><g id="ProcessOnG1009" transform="matrix(1.0,0.0,0.0,1.0,10.0,15.722223281860352)"><text id="ProcessOnText1010" fill="#000000" font-size="16" x="14.111106872558594" y="16.4" font-family="微软雅黑" font-weight="bold" font-style="normal" text-decoration="none" family="微软雅黑" text-anchor="middle" size="16">K1</text></g></g><g id="ProcessOnG1011" transform="matrix(1.0,0.0,0.0,1.0,262.94449615478516,509.22223472595215)" opacity="1.0"><path id="ProcessOnPath1012" d="M0.0 25.72222328186035C0.0 -8.574074427286783 50.22221374511719 -8.574074427286783 50.22221374511719 25.72222328186035C50.22221374511719 60.018520991007485 0.0 60.018520991007485 0.0 25.72222328186035Z" stroke="#cfcfcf" stroke-width="2.0" stroke-dasharray="none" opacity="1.0" fill="#00cc66"/><g id="ProcessOnG1013" transform="matrix(1.0,0.0,0.0,1.0,10.0,15.722223281860352)"><text id="ProcessOnText1014" fill="#000000" font-size="16" x="14.111106872558594" y="16.4" font-family="微软雅黑" font-weight="bold" font-style="normal" text-decoration="none" family="微软雅黑" text-anchor="middle" size="16">K5</text></g></g><g id="ProcessOnG1015" transform="matrix(1.0,0.0,0.0,1.0,673.9444961547852,399.22223472595215)" opacity="1.0"><path id="ProcessOnPath1016" d="M0.0 25.72222328186035C0.0 -8.574074427286783 50.22221374511719 -8.574074427286783 50.22221374511719 25.72222328186035C50.22221374511719 60.018520991007485 0.0 60.018520991007485 0.0 25.72222328186035Z" stroke="#cfcfcf" stroke-width="2.0" stroke-dasharray="none" opacity="1.0" fill="#99ccff"/><g id="ProcessOnG1017" transform="matrix(1.0,0.0,0.0,1.0,10.0,15.722223281860352)"><text id="ProcessOnText1018" fill="#000000" font-size="16" x="14.111106872558594" y="16.4" font-family="微软雅黑" font-weight="bold" font-style="normal" text-decoration="none" family="微软雅黑" text-anchor="middle" size="16">K3</text></g></g><g id="ProcessOnG1019" transform="matrix(1.0,0.0,0.0,1.0,610.9444961547852,501.22223472595215)" opacity="1.0"><path id="ProcessOnPath1020" d="M0.0 25.72222328186035C0.0 -8.574074427286783 50.22221374511719 -8.574074427286783 50.22221374511719 25.72222328186035C50.22221374511719 60.018520991007485 0.0 60.018520991007485 0.0 25.72222328186035Z" stroke="#cfcfcf" stroke-width="2.0" stroke-dasharray="none" opacity="1.0" fill="#99ccff"/><g id="ProcessOnG1021" transform="matrix(1.0,0.0,0.0,1.0,10.0,15.722223281860352)"><text id="ProcessOnText1022" fill="#000000" font-size="16" x="14.111106872558594" y="16.4" font-family="微软雅黑" font-weight="bold" font-style="normal" text-decoration="none" family="微软雅黑" text-anchor="middle" size="16">K4</text></g></g><g id="ProcessOnG1023" transform="matrix(1.0,0.0,0.0,1.0,487.94449615478516,77.22223472595215)" opacity="1.0"><path id="ProcessOnPath1024" d="M0.0 25.72222328186035C0.0 -8.574074427286783 50.22221374511719 -8.574074427286783 50.22221374511719 25.72222328186035C50.22221374511719 60.018520991007485 0.0 60.018520991007485 0.0 25.72222328186035Z" stroke="#cfcfcf" stroke-width="2.0" stroke-dasharray="none" opacity="1.0" fill="#99ccff"/><g id="ProcessOnG1025" transform="matrix(1.0,0.0,0.0,1.0,10.0,15.722223281860352)"><text id="ProcessOnText1026" fill="#000000" font-size="16" x="14.111106872558594" y="16.4" font-family="微软雅黑" font-weight="bold" font-style="normal" text-decoration="none" family="微软雅黑" text-anchor="middle" size="16">K2</text></g></g><g id="ProcessOnG1027" transform="matrix(1.0,0.0,0.0,1.0,391.0694885253906,560.6666812896729)" opacity="1.0"><path id="ProcessOnPath1028" d="M0.0 30.0C0.0 -10.0 60.0 -10.0 60.0 30.0C60.0 70.0 0.0 70.0 0.0 30.0Z" stroke="#cfcfcf" stroke-width="2.0" stroke-dasharray="none" opacity="1.0" fill="#99ccff"/><g id="ProcessOnG1029" transform="matrix(1.0,0.0,0.0,1.0,10.0,18.75)"><text id="ProcessOnText1030" fill="#000000" font-size="18" x="19.0" y="18.45" font-family="微软雅黑" font-weight="bold" font-style="normal" text-decoration="none" family="微软雅黑" text-anchor="middle" size="18">N1</text></g></g><g id="ProcessOnG1031" transform="matrix(1.0,0.0,0.0,1.0,188.06948852539062,399.22223472595215)" opacity="1.0"><path id="ProcessOnPath1032" d="M0.0 30.0C0.0 -10.0 60.0 -10.0 60.0 30.0C60.0 70.0 0.0 70.0 0.0 30.0Z" stroke="#cfcfcf" stroke-width="2.0" stroke-dasharray="none" opacity="1.0" fill="#66cc00"/><g id="ProcessOnG1033" transform="matrix(1.0,0.0,0.0,1.0,10.0,18.75)"><text id="ProcessOnText1034" fill="#000000" font-size="18" x="19.0" y="18.45" font-family="微软雅黑" font-weight="bold" font-style="normal" text-decoration="none" family="微软雅黑" text-anchor="middle" size="18">N2</text></g></g></g></g></svg>