<svg xmlns="http://www.w3.org/2000/svg" xmlns:xlink="http://www.w3.org/1999/xlink" id="processonSvg1000" viewBox="44.16665649413835 50.22221946716263 910.6666870117228 801.5555610656745" width="910.6666870117228" height="801.5555610656745"><defs id="ProcessOnDefs1001"><marker id="ProcessOnMarker1023" markerUnits="userSpaceOnUse" orient="auto" markerWidth="16.23606797749979" markerHeight="10.550836550532098" viewBox="-1.0 -1.3763819204711736 16.23606797749979 10.550836550532098" refX="-1.0" refY="3.8990363547948754"><path id="ProcessOnPath1024" d="M12.0 3.8990363547948754L0.0 7.798072709589751V0.0Z" stroke="#323232" stroke-width="2.0" fill="#323232" transform="matrix(1.0,0.0,0.0,1.0,0.0,0.0)"/></marker><marker id="ProcessOnMarker1027" markerUnits="userSpaceOnUse" orient="auto" markerWidth="16.23606797749979" markerHeight="10.550836550532098" viewBox="-1.0 -1.3763819204711736 16.23606797749979 10.550836550532098" refX="-1.0" refY="3.8990363547948754"><path id="ProcessOnPath1028" d="M12.0 3.8990363547948754L0.0 7.798072709589751V0.0Z" stroke="#323232" stroke-width="2.0" fill="#323232" transform="matrix(1.0,0.0,0.0,1.0,0.0,0.0)"/></marker><marker id="ProcessOnMarker1035" markerUnits="userSpaceOnUse" orient="auto" markerWidth="16.23606797749979" markerHeight="10.550836550532098" viewBox="-1.0 -1.3763819204711736 16.23606797749979 10.550836550532098" refX="-1.0" refY="3.8990363547948754"><path id="ProcessOnPath1036" d="M12.0 3.8990363547948754L0.0 7.798072709589751V0.0Z" stroke="#323232" stroke-width="2.0" fill="#323232" transform="matrix(1.0,0.0,0.0,1.0,0.0,0.0)"/></marker><marker id="ProcessOnMarker1039" markerUnits="userSpaceOnUse" orient="auto" markerWidth="16.23606797749979" markerHeight="10.550836550532098" viewBox="-1.0 -1.3763819204711736 16.23606797749979 10.550836550532098" refX="-1.0" refY="3.8990363547948754"><path id="ProcessOnPath1040" d="M12.0 3.8990363547948754L0.0 7.798072709589751V0.0Z" stroke="#323232" stroke-width="2.0" fill="#323232" transform="matrix(1.0,0.0,0.0,1.0,0.0,0.0)"/></marker><marker id="ProcessOnMarker1047" markerUnits="userSpaceOnUse" orient="auto" markerWidth="16.23606797749979" markerHeight="10.550836550532098" viewBox="-1.0 -1.3763819204711736 16.23606797749979 10.550836550532098" refX="-1.0" refY="3.8990363547948754"><path id="ProcessOnPath1048" d="M12.0 3.8990363547948754L0.0 7.798072709589751V0.0Z" stroke="#323232" stroke-width="2.0" fill="#323232" transform="matrix(1.0,0.0,0.0,1.0,0.0,0.0)"/></marker><marker id="ProcessOnMarker1051" markerUnits="userSpaceOnUse" orient="auto" markerWidth="16.23606797749979" markerHeight="10.550836550532098" viewBox="-1.0 -1.3763819204711736 16.23606797749979 10.550836550532098" refX="-1.0" refY="3.8990363547948754"><path id="ProcessOnPath1052" d="M12.0 3.8990363547948754L0.0 7.798072709589751V0.0Z" stroke="#323232" stroke-width="2.0" fill="#323232" transform="matrix(1.0,0.0,0.0,1.0,0.0,0.0)"/></marker><marker id="ProcessOnMarker1063" markerUnits="userSpaceOnUse" orient="auto" markerWidth="16.23606797749979" markerHeight="10.550836550532098" viewBox="-1.0 -1.3763819204711736 16.23606797749979 10.550836550532098" refX="-1.0" refY="3.8990363547948754"><path id="ProcessOnPath1064" d="M12.0 3.8990363547948754L0.0 7.798072709589751V0.0Z" stroke="#323232" stroke-width="2.0" fill="#323232" transform="matrix(1.0,0.0,0.0,1.0,0.0,0.0)"/></marker><marker id="ProcessOnMarker1067" markerUnits="userSpaceOnUse" orient="auto" markerWidth="16.23606797749979" markerHeight="10.550836550532098" viewBox="-1.0 -1.3763819204711736 16.23606797749979 10.550836550532098" refX="-1.0" refY="3.8990363547948754"><path id="ProcessOnPath1068" d="M12.0 3.8990363547948754L0.0 7.798072709589751V0.0Z" stroke="#323232" stroke-width="2.0" fill="#323232" transform="matrix(1.0,0.0,0.0,1.0,0.0,0.0)"/></marker><marker id="ProcessOnMarker1071" markerUnits="userSpaceOnUse" orient="auto" markerWidth="16.23606797749979" markerHeight="10.550836550532098" viewBox="-1.0 -1.3763819204711736 16.23606797749979 10.550836550532098" refX="-1.0" refY="3.8990363547948754"><path id="ProcessOnPath1072" d="M12.0 3.8990363547948754L0.0 7.798072709589751V0.0Z" stroke="#323232" stroke-width="2.0" fill="#323232" transform="matrix(1.0,0.0,0.0,1.0,0.0,0.0)"/></marker><marker id="ProcessOnMarker1075" markerUnits="userSpaceOnUse" orient="auto" markerWidth="16.23606797749979" markerHeight="10.550836550532098" viewBox="-1.0 -1.3763819204711736 16.23606797749979 10.550836550532098" refX="-1.0" refY="3.8990363547948754"><path id="ProcessOnPath1076" d="M12.0 3.8990363547948754L0.0 7.798072709589751V0.0Z" stroke="#323232" stroke-width="2.0" fill="#323232" transform="matrix(1.0,0.0,0.0,1.0,0.0,0.0)"/></marker><marker id="ProcessOnMarker1087" markerUnits="userSpaceOnUse" orient="auto" markerWidth="16.23606797749979" markerHeight="10.550836550532098" viewBox="-1.0 -1.3763819204711736 16.23606797749979 10.550836550532098" refX="-1.0" refY="3.8990363547948754"><path id="ProcessOnPath1088" d="M12.0 3.8990363547948754L0.0 7.798072709589751V0.0Z" stroke="#323232" stroke-width="2.0" fill="#323232" transform="matrix(1.0,0.0,0.0,1.0,0.0,0.0)"/></marker><marker id="ProcessOnMarker1091" markerUnits="userSpaceOnUse" orient="auto" markerWidth="16.23606797749979" markerHeight="10.550836550532098" viewBox="-1.0 -1.3763819204711736 16.23606797749979 10.550836550532098" refX="-1.0" refY="3.8990363547948754"><path id="ProcessOnPath1092" d="M12.0 3.8990363547948754L0.0 7.798072709589751V0.0Z" stroke="#323232" stroke-width="2.0" fill="#323232" transform="matrix(1.0,0.0,0.0,1.0,0.0,0.0)"/></marker><marker id="ProcessOnMarker1107" markerUnits="userSpaceOnUse" orient="auto" markerWidth="16.23606797749979" markerHeight="10.550836550532098" viewBox="-1.0 -1.3763819204711736 16.23606797749979 10.550836550532098" refX="-1.0" refY="3.8990363547948754"><path id="ProcessOnPath1108" d="M12.0 3.8990363547948754L0.0 7.798072709589751V0.0Z" stroke="#323232" stroke-width="2.0" fill="#323232" transform="matrix(1.0,0.0,0.0,1.0,0.0,0.0)"/></marker><marker id="ProcessOnMarker1111" markerUnits="userSpaceOnUse" orient="auto" markerWidth="16.23606797749979" markerHeight="10.550836550532098" viewBox="-1.0 -1.3763819204711736 16.23606797749979 10.550836550532098" refX="-1.0" refY="3.8990363547948754"><path id="ProcessOnPath1112" d="M12.0 3.8990363547948754L0.0 7.798072709589751V0.0Z" stroke="#323232" stroke-width="2.0" fill="#323232" transform="matrix(1.0,0.0,0.0,1.0,0.0,0.0)"/></marker><marker id="ProcessOnMarker1127" markerUnits="userSpaceOnUse" orient="auto" markerWidth="16.23606797749979" markerHeight="10.550836550532098" viewBox="-1.0 -1.3763819204711736 16.23606797749979 10.550836550532098" refX="-1.0" refY="3.8990363547948754"><path id="ProcessOnPath1128" d="M12.0 3.8990363547948754L0.0 7.798072709589751V0.0Z" stroke="#323232" stroke-width="2.0" fill="#323232" transform="matrix(1.0,0.0,0.0,1.0,0.0,0.0)"/></marker><marker id="ProcessOnMarker1131" markerUnits="userSpaceOnUse" orient="auto" markerWidth="16.23606797749979" markerHeight="10.550836550532098" viewBox="-1.0 -1.3763819204711736 16.23606797749979 10.550836550532098" refX="-1.0" refY="3.8990363547948754"><path id="ProcessOnPath1132" d="M12.0 3.8990363547948754L0.0 7.798072709589751V0.0Z" stroke="#323232" stroke-width="2.0" fill="#323232" transform="matrix(1.0,0.0,0.0,1.0,0.0,0.0)"/></marker><marker id="ProcessOnMarker1135" markerUnits="userSpaceOnUse" orient="auto" markerWidth="16.23606797749979" markerHeight="10.550836550532098" viewBox="-1.0 -1.3763819204711736 16.23606797749979 10.550836550532098" refX="-1.0" refY="3.8990363547948754"><path id="ProcessOnPath1136" d="M12.0 3.8990363547948754L0.0 7.798072709589751V0.0Z" stroke="#323232" stroke-width="2.0" fill="#323232" transform="matrix(1.0,0.0,0.0,1.0,0.0,0.0)"/></marker><marker id="ProcessOnMarker1139" markerUnits="userSpaceOnUse" orient="auto" markerWidth="16.23606797749979" markerHeight="10.550836550532098" viewBox="-1.0 -1.3763819204711736 16.23606797749979 10.550836550532098" refX="-1.0" refY="3.8990363547948754"><path id="ProcessOnPath1140" d="M12.0 3.8990363547948754L0.0 7.798072709589751V0.0Z" stroke="#323232" stroke-width="2.0" fill="#323232" transform="matrix(1.0,0.0,0.0,1.0,0.0,0.0)"/></marker><marker id="ProcessOnMarker1147" markerUnits="userSpaceOnUse" orient="auto" markerWidth="16.23606797749979" markerHeight="10.550836550532098" viewBox="-1.0 -1.3763819204711736 16.23606797749979 10.550836550532098" refX="-1.0" refY="3.8990363547948754"><path id="ProcessOnPath1148" d="M12.0 3.8990363547948754L0.0 7.798072709589751V0.0Z" stroke="#323232" stroke-width="2.0" fill="#323232" transform="matrix(1.0,0.0,0.0,1.0,0.0,0.0)"/></marker><marker id="ProcessOnMarker1151" markerUnits="userSpaceOnUse" orient="auto" markerWidth="16.23606797749979" markerHeight="10.550836550532098" viewBox="-1.0 -1.3763819204711736 16.23606797749979 10.550836550532098" refX="-1.0" refY="3.8990363547948754"><path id="ProcessOnPath1152" d="M12.0 3.8990363547948754L0.0 7.798072709589751V0.0Z" stroke="#323232" stroke-width="2.0" fill="#323232" transform="matrix(1.0,0.0,0.0,1.0,0.0,0.0)"/></marker><marker id="ProcessOnMarker1167" markerUnits="userSpaceOnUse" orient="auto" markerWidth="16.23606797749979" markerHeight="10.550836550532098" viewBox="-1.0 -1.3763819204711736 16.23606797749979 10.550836550532098" refX="-1.0" refY="3.8990363547948754"><path id="ProcessOnPath1168" d="M12.0 3.8990363547948754L0.0 7.798072709589751V0.0Z" stroke="#323232" stroke-width="2.0" fill="#323232" transform="matrix(1.0,0.0,0.0,1.0,0.0,0.0)"/></marker><marker id="ProcessOnMarker1171" markerUnits="userSpaceOnUse" orient="auto" markerWidth="16.23606797749979" markerHeight="10.550836550532098" viewBox="-1.0 -1.3763819204711736 16.23606797749979 10.550836550532098" refX="-1.0" refY="3.8990363547948754"><path id="ProcessOnPath1172" d="M12.0 3.8990363547948754L0.0 7.798072709589751V0.0Z" stroke="#323232" stroke-width="2.0" fill="#323232" transform="matrix(1.0,0.0,0.0,1.0,0.0,0.0)"/></marker><marker id="ProcessOnMarker1191" markerUnits="userSpaceOnUse" orient="auto" markerWidth="16.23606797749979" markerHeight="10.550836550532098" viewBox="-1.0 -1.3763819204711736 16.23606797749979 10.550836550532098" refX="-1.0" refY="3.8990363547948754"><path id="ProcessOnPath1192" d="M12.0 3.8990363547948754L0.0 7.798072709589751V0.0Z" stroke="#323232" stroke-width="2.0" fill="#323232" transform="matrix(1.0,0.0,0.0,1.0,0.0,0.0)"/></marker><marker id="ProcessOnMarker1195" markerUnits="userSpaceOnUse" orient="auto" markerWidth="16.23606797749979" markerHeight="10.550836550532098" viewBox="-1.0 -1.3763819204711736 16.23606797749979 10.550836550532098" refX="-1.0" refY="3.8990363547948754"><path id="ProcessOnPath1196" d="M12.0 3.8990363547948754L0.0 7.798072709589751V0.0Z" stroke="#323232" stroke-width="2.0" fill="#323232" transform="matrix(1.0,0.0,0.0,1.0,0.0,0.0)"/></marker></defs><g id="ProcessOnG1002"><path id="ProcessOnPath1003" d="M44.16665649413835 50.22221946716263H954.8333435058612V851.7777805328371H44.16665649413835V50.22221946716263Z" fill="none"/><g id="ProcessOnG1004"><g id="ProcessOnG1005" transform="matrix(1.0,0.0,0.0,1.0,451.83332824706804,70.22221946716263)" opacity="1.0"><path id="ProcessOnPath1006" d="M0.0 35.0C0.0 -11.666666666666666 70.0 -11.666666666666666 70.0 35.0C70.0 81.66666666666667 0.0 81.66666666666667 0.0 35.0Z" stroke="#323232" stroke-width="2.0" stroke-dasharray="none" opacity="1.0" fill="#000000"/><g id="ProcessOnG1007" transform="matrix(1.0,0.0,0.0,1.0,10.0,16.25)"><text id="ProcessOnText1008" fill="#ffffff" font-size="30" x="24.0" y="30.75" font-family="微软雅黑" font-weight="bold" font-style="normal" text-decoration="none" family="微软雅黑" text-anchor="middle" size="30">14</text></g></g><g id="ProcessOnG1009" transform="matrix(1.0,0.0,0.0,1.0,103.16665649413835,456.2222194671633)" opacity="1.0"><path id="ProcessOnPath1010" d="M0.0 35.0C0.0 -11.666666666666666 70.0 -11.666666666666666 70.0 35.0C70.0 81.66666666666667 0.0 81.66666666666667 0.0 35.0Z" stroke="#323232" stroke-width="2.0" stroke-dasharray="none" opacity="1.0" fill="#ff0000"/><g id="ProcessOnG1011" transform="matrix(1.0,0.0,0.0,1.0,10.0,16.25)"><text id="ProcessOnText1012" fill="#ffffff" font-size="30" x="24.0" y="30.75" font-family="微软雅黑" font-weight="bold" font-style="normal" text-decoration="none" family="微软雅黑" text-anchor="middle" size="30">1</text></g></g><g id="ProcessOnG1013" transform="matrix(1.0,0.0,0.0,1.0,242.83332824706804,192.22221946716377)" opacity="1.0"><path id="ProcessOnPath1014" d="M0.0 35.0C0.0 -11.666666666666666 70.0 -11.666666666666666 70.0 35.0C70.0 81.66666666666667 0.0 81.66666666666667 0.0 35.0Z" stroke="#323232" stroke-width="2.0" stroke-dasharray="none" opacity="1.0" fill="#000000"/><g id="ProcessOnG1015" transform="matrix(1.0,0.0,0.0,1.0,10.0,16.25)"><text id="ProcessOnText1016" fill="#ffffff" font-size="30" x="24.0" y="30.75" font-family="微软雅黑" font-weight="bold" font-style="normal" text-decoration="none" family="微软雅黑" text-anchor="middle" size="30">8</text></g></g><g id="ProcessOnG1017" transform="matrix(1.0,0.0,0.0,1.0,607.833328247068,329.2222194671633)" opacity="1.0"><path id="ProcessOnPath1018" d="M0.0 35.0C0.0 -11.666666666666666 70.0 -11.666666666666666 70.0 35.0C70.0 81.66666666666667 0.0 81.66666666666667 0.0 35.0Z" stroke="#323232" stroke-width="2.0" stroke-dasharray="none" opacity="1.0" fill="#ff0000"/><g id="ProcessOnG1019" transform="matrix(1.0,0.0,0.0,1.0,10.0,16.25)"><text id="ProcessOnText1020" fill="#ffffff" font-size="30" x="24.0" y="30.75" font-family="微软雅黑" font-weight="bold" font-style="normal" text-decoration="none" family="微软雅黑" text-anchor="middle" size="30">17</text></g></g><g id="ProcessOnG1021"><path id="ProcessOnPath1022" d="M461.365417133306 128.93664424779058L309.9121414520282 191.59387309985982" stroke="#323232" stroke-width="2.0" stroke-dasharray="none" fill="none" marker-end="url(#ProcessOnMarker1023)"/></g><g id="ProcessOnG1025"><path id="ProcessOnPath1026" d="M508.68617537436603 132.58391537858574L673.3772520830253 187.4097742098761" stroke="#323232" stroke-width="2.0" stroke-dasharray="none" fill="none" marker-end="url(#ProcessOnMarker1027)"/></g><g id="ProcessOnG1029" transform="matrix(1.0,0.0,0.0,1.0,337.83332824706804,329.2222194671633)" opacity="1.0"><path id="ProcessOnPath1030" d="M0.0 35.0C0.0 -11.666666666666666 70.0 -11.666666666666666 70.0 35.0C70.0 81.66666666666667 0.0 81.66666666666667 0.0 35.0Z" stroke="#323232" stroke-width="2.0" stroke-dasharray="none" opacity="1.0" fill="#000000"/><g id="ProcessOnG1031" transform="matrix(1.0,0.0,0.0,1.0,10.0,16.25)"><text id="ProcessOnText1032" fill="#ffffff" font-size="30" x="24.0" y="30.75" font-family="微软雅黑" font-weight="bold" font-style="normal" text-decoration="none" family="微软雅黑" text-anchor="middle" size="30">11</text></g></g><g id="ProcessOnG1033"><path id="ProcessOnPath1034" d="M254.11890346644122 252.6901305809256L191.98727367257388 318.16983608721097" stroke="#323232" stroke-width="2.0" stroke-dasharray="none" fill="none" marker-end="url(#ProcessOnMarker1035)"/></g><g id="ProcessOnG1037"><path id="ProcessOnPath1038" d="M297.83332824706804 255.75811785202586L361.94892885310145 318.56071782585525" stroke="#323232" stroke-width="2.0" stroke-dasharray="none" fill="none" marker-end="url(#ProcessOnMarker1039)"/></g><g id="ProcessOnG1041" transform="matrix(1.0,0.0,0.0,1.0,652.833328247068,192.22221946716377)" opacity="1.0"><path id="ProcessOnPath1042" d="M0.0 35.0C0.0 -11.666666666666666 70.0 -11.666666666666666 70.0 35.0C70.0 81.66666666666667 0.0 81.66666666666667 0.0 35.0Z" stroke="#323232" stroke-width="2.0" stroke-dasharray="none" opacity="1.0" fill="#000000"/><g id="ProcessOnG1043" transform="matrix(1.0,0.0,0.0,1.0,10.0,16.25)"><text id="ProcessOnText1044" fill="#ffffff" font-size="30" x="24.0" y="30.75" font-family="微软雅黑" font-weight="bold" font-style="normal" text-decoration="none" family="微软雅黑" text-anchor="middle" size="30">25</text></g></g><g id="ProcessOnG1045"><path id="ProcessOnPath1046" d="M620.7012104288233 391.12645924571825L584.3611144590352 446.4852837125216" stroke="#323232" stroke-width="2.0" stroke-dasharray="none" fill="none" marker-end="url(#ProcessOnMarker1047)"/></g><g id="ProcessOnG1049"><path id="ProcessOnPath1050" d="M664.2597518107173 392.4030674228743L703.6056885053079 444.09834087113296" stroke="#323232" stroke-width="2.0" stroke-dasharray="none" fill="none" marker-end="url(#ProcessOnMarker1051)"/></g><g id="ProcessOnG1053" transform="matrix(1.0,0.0,0.0,1.0,216.5000152587868,609.2222194671633)" opacity="1.0"><path id="ProcessOnPath1054" d="M0.0 35.0C0.0 -11.666666666666666 70.0 -11.666666666666666 70.0 35.0C70.0 81.66666666666667 0.0 81.66666666666667 0.0 35.0Z" stroke="#323232" stroke-width="2.0" stroke-dasharray="none" opacity="1.0" fill="#ff0000"/><g id="ProcessOnG1055" transform="matrix(1.0,0.0,0.0,1.0,10.0,16.25)"><text id="ProcessOnText1056" fill="#ffffff" font-size="30" x="24.0" y="30.75" font-family="微软雅黑" font-weight="bold" font-style="normal" text-decoration="none" family="微软雅黑" text-anchor="middle" size="30">6</text></g></g><g id="ProcessOnG1057" transform="matrix(1.0,0.0,0.0,1.0,64.16665649413835,609.2222194671633)" opacity="1.0"><path id="ProcessOnPath1058" d="M0.0 0.0L65.66668701171875 0.0L65.66668701171875 39.55556106567383L0.0 39.55556106567383Z" stroke="#323232" stroke-width="2.0" stroke-dasharray="none" opacity="1.0" fill="#000000"/><g id="ProcessOnG1059" transform="matrix(1.0,0.0,0.0,1.0,10.0,7.277780532836914)"><text id="ProcessOnText1060" fill="#ffffff" font-size="20" x="21.833343505859375" y="20.5" font-family="微软雅黑" font-weight="bold" font-style="normal" text-decoration="none" family="微软雅黑" text-anchor="middle" size="20">NIL</text></g></g><g id="ProcessOnG1061"><path id="ProcessOnPath1062" d="M117.2207140502619 518.7647633342965L100.32381386836046 594.3531230324948" stroke="#323232" stroke-width="2.0" stroke-dasharray="none" fill="none" marker-end="url(#ProcessOnMarker1063)"/></g><g id="ProcessOnG1065"><path id="ProcessOnPath1066" d="M156.07736647946786 521.3159116801269L169.8412571777532 594.2504193117583" stroke="#323232" stroke-width="2.0" stroke-dasharray="none" fill="none" marker-end="url(#ProcessOnMarker1067)"/></g><g id="ProcessOnG1069"><path id="ProcessOnPath1070" d="M230.23876375321424 671.5011723556811L202.52169338906262 777.4819150062668" stroke="#323232" stroke-width="2.0" stroke-dasharray="none" fill="none" marker-end="url(#ProcessOnMarker1071)"/></g><g id="ProcessOnG1073"><path id="ProcessOnPath1074" d="M270.9444580078102 673.0457297252685L275.0634356978478 776.9980980252919" stroke="#323232" stroke-width="2.0" stroke-dasharray="none" fill="none" marker-end="url(#ProcessOnMarker1075)"/></g><g id="ProcessOnG1077" transform="matrix(1.0,0.0,0.0,1.0,242.83332824706804,792.2222194671633)" opacity="1.0"><path id="ProcessOnPath1078" d="M0.0 0.0L65.66668701171875 0.0L65.66668701171875 39.55556106567383L0.0 39.55556106567383Z" stroke="#323232" stroke-width="2.0" stroke-dasharray="none" opacity="1.0" fill="#000000"/><g id="ProcessOnG1079" transform="matrix(1.0,0.0,0.0,1.0,10.0,7.277780532836914)"><text id="ProcessOnText1080" fill="#ffffff" font-size="20" x="21.833343505859375" y="20.5" font-family="微软雅黑" font-weight="bold" font-style="normal" text-decoration="none" family="微软雅黑" text-anchor="middle" size="20">NIL</text></g></g><g id="ProcessOnG1081" transform="matrix(1.0,0.0,0.0,1.0,282.16665649413835,456.2222194671633)" opacity="1.0"><path id="ProcessOnPath1082" d="M0.0 0.0L65.66668701171875 0.0L65.66668701171875 39.55556106567383L0.0 39.55556106567383Z" stroke="#323232" stroke-width="2.0" stroke-dasharray="none" opacity="1.0" fill="#000000"/><g id="ProcessOnG1083" transform="matrix(1.0,0.0,0.0,1.0,10.0,7.277780532836914)"><text id="ProcessOnText1084" fill="#ffffff" font-size="20" x="21.833343505859375" y="20.5" font-family="微软雅黑" font-weight="bold" font-style="normal" text-decoration="none" family="微软雅黑" text-anchor="middle" size="20">NIL</text></g></g><g id="ProcessOnG1085"><path id="ProcessOnPath1086" d="M346.131476835214 386.8494177037776L321.23796311691416 442.3216589185025" stroke="#323232" stroke-width="2.0" stroke-dasharray="none" fill="none" marker-end="url(#ProcessOnMarker1087)"/></g><g id="ProcessOnG1089"><path id="ProcessOnPath1090" d="M395.6861906331551 391.1394764442591L414.53343699131676 441.9376501669637" stroke="#323232" stroke-width="2.0" stroke-dasharray="none" fill="none" marker-end="url(#ProcessOnMarker1091)"/></g><g id="ProcessOnG1093" transform="matrix(1.0,0.0,0.0,1.0,543.1666564941384,459.2222194671633)" opacity="1.0"><path id="ProcessOnPath1094" d="M0.0 0.0L65.66668701171875 0.0L65.66668701171875 39.55556106567383L0.0 39.55556106567383Z" stroke="#323232" stroke-width="2.0" stroke-dasharray="none" opacity="1.0" fill="#000000"/><g id="ProcessOnG1095" transform="matrix(1.0,0.0,0.0,1.0,10.0,7.277780532836914)"><text id="ProcessOnText1096" fill="#ffffff" font-size="20" x="21.833343505859375" y="20.5" font-family="微软雅黑" font-weight="bold" font-style="normal" text-decoration="none" family="微软雅黑" text-anchor="middle" size="20">NIL</text></g></g><g id="ProcessOnG1097" transform="matrix(1.0,0.0,0.0,1.0,826.8333282470708,456.2222194671633)" opacity="1.0"><path id="ProcessOnPath1098" d="M0.0 35.0C0.0 -11.666666666666666 70.0 -11.666666666666666 70.0 35.0C70.0 81.66666666666667 0.0 81.66666666666667 0.0 35.0Z" stroke="#323232" stroke-width="2.0" stroke-dasharray="none" opacity="1.0" fill="#000000"/><g id="ProcessOnG1099" transform="matrix(1.0,0.0,0.0,1.0,10.0,16.25)"><text id="ProcessOnText1100" fill="#ffffff" font-size="30" x="24.0" y="30.75" font-family="微软雅黑" font-weight="bold" font-style="normal" text-decoration="none" family="微软雅黑" text-anchor="middle" size="30">27</text></g></g><g id="ProcessOnG1101" transform="matrix(1.0,0.0,0.0,1.0,677.833328247068,456.2222194671633)" opacity="1.0"><path id="ProcessOnPath1102" d="M0.0 35.0C0.0 -11.666666666666666 70.0 -11.666666666666666 70.0 35.0C70.0 81.66666666666667 0.0 81.66666666666667 0.0 35.0Z" stroke="#323232" stroke-width="2.0" stroke-dasharray="none" opacity="1.0" fill="#000000"/><g id="ProcessOnG1103" transform="matrix(1.0,0.0,0.0,1.0,10.0,16.25)"><text id="ProcessOnText1104" fill="#ffffff" font-size="30" x="24.0" y="30.75" font-family="微软雅黑" font-weight="bold" font-style="normal" text-decoration="none" family="微软雅黑" text-anchor="middle" size="30">22</text></g></g><g id="ProcessOnG1105"><path id="ProcessOnPath1106" d="M672.2341220215271 258.0762680166256L648.6522902934435 315.14111694932626" stroke="#323232" stroke-width="2.0" stroke-dasharray="none" fill="none" marker-end="url(#ProcessOnMarker1107)"/></g><g id="ProcessOnG1109"><path id="ProcessOnPath1110" d="M708.2417326253444 256.2505795021209L852.5525715429842 444.1389532524956" stroke="#323232" stroke-width="2.0" stroke-dasharray="none" fill="none" marker-end="url(#ProcessOnMarker1111)"/></g><g id="ProcessOnG1113" transform="matrix(1.0,0.0,0.0,1.0,718.1666564941384,609.2222194671633)" opacity="1.0"><path id="ProcessOnPath1114" d="M0.0 0.0L65.66668701171875 0.0L65.66668701171875 39.55556106567383L0.0 39.55556106567383Z" stroke="#323232" stroke-width="2.0" stroke-dasharray="none" opacity="1.0" fill="#000000"/><g id="ProcessOnG1115" transform="matrix(1.0,0.0,0.0,1.0,10.0,7.277780532836914)"><text id="ProcessOnText1116" fill="#ffffff" font-size="20" x="21.833343505859375" y="20.5" font-family="微软雅黑" font-weight="bold" font-style="normal" text-decoration="none" family="微软雅黑" text-anchor="middle" size="20">NIL</text></g></g><g id="ProcessOnG1117" transform="matrix(1.0,0.0,0.0,1.0,869.1666564941424,609.2222194671633)" opacity="1.0"><path id="ProcessOnPath1118" d="M0.0 0.0L65.66668701171875 0.0L65.66668701171875 39.55556106567383L0.0 39.55556106567383Z" stroke="#323232" stroke-width="2.0" stroke-dasharray="none" opacity="1.0" fill="#000000"/><g id="ProcessOnG1119" transform="matrix(1.0,0.0,0.0,1.0,10.0,7.277780532836914)"><text id="ProcessOnText1120" fill="#ffffff" font-size="20" x="21.833343505859375" y="20.5" font-family="微软雅黑" font-weight="bold" font-style="normal" text-decoration="none" family="微软雅黑" text-anchor="middle" size="20">NIL</text></g></g><g id="ProcessOnG1121" transform="matrix(1.0,0.0,0.0,1.0,799.1666564941397,609.2222194671633)" opacity="1.0"><path id="ProcessOnPath1122" d="M0.0 0.0L65.66668701171875 0.0L65.66668701171875 39.55556106567383L0.0 39.55556106567383Z" stroke="#323232" stroke-width="2.0" stroke-dasharray="none" opacity="1.0" fill="#000000"/><g id="ProcessOnG1123" transform="matrix(1.0,0.0,0.0,1.0,10.0,7.277780532836914)"><text id="ProcessOnText1124" fill="#ffffff" font-size="20" x="21.833343505859375" y="20.5" font-family="微软雅黑" font-weight="bold" font-style="normal" text-decoration="none" family="微软雅黑" text-anchor="middle" size="20">NIL</text></g></g><g id="ProcessOnG1125"><path id="ProcessOnPath1126" d="M694.8888854980446 520.9574829469723L679.048580968114 594.3292708888998" stroke="#323232" stroke-width="2.0" stroke-dasharray="none" fill="none" marker-end="url(#ProcessOnMarker1127)"/></g><g id="ProcessOnG1129"><path id="ProcessOnPath1130" d="M727.543648974563 522.7429435842521L747.0115306322514 594.5174624301517" stroke="#323232" stroke-width="2.0" stroke-dasharray="none" fill="none" marker-end="url(#ProcessOnMarker1131)"/></g><g id="ProcessOnG1133"><path id="ProcessOnPath1134" d="M842.9624619343995 520.7364071140366L833.8732673747558 594.1017486822417" stroke="#323232" stroke-width="2.0" stroke-dasharray="none" fill="none" marker-end="url(#ProcessOnMarker1135)"/></g><g id="ProcessOnG1137"><path id="ProcessOnPath1138" d="M882.0945797526438 519.2789509811694L898.7077538675946 594.3461015992973" stroke="#323232" stroke-width="2.0" stroke-dasharray="none" fill="none" marker-end="url(#ProcessOnMarker1139)"/></g><g id="ProcessOnG1141" transform="matrix(1.0,0.0,0.0,1.0,384.83332824706804,456.2222194671633)" opacity="1.0"><path id="ProcessOnPath1142" d="M0.0 35.0C0.0 -11.666666666666666 70.0 -11.666666666666666 70.0 35.0C70.0 81.66666666666667 0.0 81.66666666666667 0.0 35.0Z" stroke="#323232" stroke-width="2.0" stroke-dasharray="none" opacity="1.0" fill="#ff0000"/><g id="ProcessOnG1143" transform="matrix(1.0,0.0,0.0,1.0,10.0,16.25)"><text id="ProcessOnText1144" fill="#ffffff" font-size="30" x="24.0" y="30.75" font-family="微软雅黑" font-weight="bold" font-style="normal" text-decoration="none" family="微软雅黑" text-anchor="middle" size="30">12</text></g></g><g id="ProcessOnG1145"><path id="ProcessOnPath1146" d="M403.1448472656448 522.0936941203124L381.94294351679963 594.5985606323255" stroke="#323232" stroke-width="2.0" stroke-dasharray="none" fill="none" marker-end="url(#ProcessOnMarker1147)"/></g><g id="ProcessOnG1149"><path id="ProcessOnPath1150" d="M434.29961074216317 523.0936941203124L458.8913112407499 594.8099248780197" stroke="#323232" stroke-width="2.0" stroke-dasharray="none" fill="none" marker-end="url(#ProcessOnMarker1151)"/></g><g id="ProcessOnG1153" transform="matrix(1.0,0.0,0.0,1.0,639.833328247068,609.2222194671633)" opacity="1.0"><path id="ProcessOnPath1154" d="M0.0 35.0C0.0 -11.666666666666666 70.0 -11.666666666666666 70.0 35.0C70.0 81.66666666666667 0.0 81.66666666666667 0.0 35.0Z" stroke="#323232" stroke-width="2.0" stroke-dasharray="none" opacity="1.0" fill="#ff0000"/><g id="ProcessOnG1155" transform="matrix(1.0,0.0,0.0,1.0,10.0,16.25)"><text id="ProcessOnText1156" fill="#ffffff" font-size="30" x="24.0" y="30.75" font-family="微软雅黑" font-weight="bold" font-style="normal" text-decoration="none" family="微软雅黑" text-anchor="middle" size="30">21</text></g></g><g id="ProcessOnG1157" transform="matrix(1.0,0.0,0.0,1.0,685.1666564941384,792.2222194671633)" opacity="1.0"><path id="ProcessOnPath1158" d="M0.0 0.0L65.66668701171875 0.0L65.66668701171875 39.55556106567383L0.0 39.55556106567383Z" stroke="#323232" stroke-width="2.0" stroke-dasharray="none" opacity="1.0" fill="#000000"/><g id="ProcessOnG1159" transform="matrix(1.0,0.0,0.0,1.0,10.0,7.277780532836914)"><text id="ProcessOnText1160" fill="#ffffff" font-size="20" x="21.833343505859375" y="20.5" font-family="微软雅黑" font-weight="bold" font-style="normal" text-decoration="none" family="微软雅黑" text-anchor="middle" size="20">NIL</text></g></g><g id="ProcessOnG1161" transform="matrix(1.0,0.0,0.0,1.0,600.1666564941384,792.2222194671633)" opacity="1.0"><path id="ProcessOnPath1162" d="M0.0 0.0L65.66668701171875 0.0L65.66668701171875 39.55556106567383L0.0 39.55556106567383Z" stroke="#323232" stroke-width="2.0" stroke-dasharray="none" opacity="1.0" fill="#000000"/><g id="ProcessOnG1163" transform="matrix(1.0,0.0,0.0,1.0,10.0,7.277780532836914)"><text id="ProcessOnText1164" fill="#ffffff" font-size="20" x="21.833343505859375" y="20.5" font-family="微软雅黑" font-weight="bold" font-style="normal" text-decoration="none" family="微软雅黑" text-anchor="middle" size="20">NIL</text></g></g><g id="ProcessOnG1165"><path id="ProcessOnPath1166" d="M653.98048111977 672.5839306373744L635.6317268014238 777.2151617456227" stroke="#323232" stroke-width="2.0" stroke-dasharray="none" fill="none" marker-end="url(#ProcessOnMarker1167)"/></g><g id="ProcessOnG1169"><path id="ProcessOnPath1170" d="M691.833328247068 674.4901839183838L714.6943515966187 777.3490740013167" stroke="#323232" stroke-width="2.0" stroke-dasharray="none" fill="none" marker-end="url(#ProcessOnMarker1171)"/></g><g id="ProcessOnG1173" transform="matrix(1.0,0.0,0.0,1.0,344.8333435058571,609.2222194671633)" opacity="1.0"><path id="ProcessOnPath1174" d="M0.0 0.0L65.66668701171875 0.0L65.66668701171875 39.55556106567383L0.0 39.55556106567383Z" stroke="#323232" stroke-width="2.0" stroke-dasharray="none" opacity="1.0" fill="#000000"/><g id="ProcessOnG1175" transform="matrix(1.0,0.0,0.0,1.0,10.0,7.277780532836914)"><text id="ProcessOnText1176" fill="#ffffff" font-size="20" x="21.833343505859375" y="20.5" font-family="微软雅黑" font-weight="bold" font-style="normal" text-decoration="none" family="微软雅黑" text-anchor="middle" size="20">NIL</text></g></g><g id="ProcessOnG1177" transform="matrix(1.0,0.0,0.0,1.0,146.5000152587868,329.2222194671633)" opacity="1.0"><path id="ProcessOnPath1178" d="M0.0 35.0C0.0 -11.666666666666666 70.0 -11.666666666666666 70.0 35.0C70.0 81.66666666666667 0.0 81.66666666666667 0.0 35.0Z" stroke="#323232" stroke-width="2.0" stroke-dasharray="none" opacity="1.0" fill="#000000"/><g id="ProcessOnG1179" transform="matrix(1.0,0.0,0.0,1.0,10.0,16.25)"><text id="ProcessOnText1180" fill="#ffffff" font-size="30" x="24.0" y="30.75" font-family="微软雅黑" font-weight="bold" font-style="normal" text-decoration="none" family="微软雅黑" text-anchor="middle" size="30">5</text></g></g><g id="ProcessOnG1181" transform="matrix(1.0,0.0,0.0,1.0,139.83332824706804,609.2222194671633)" opacity="1.0"><path id="ProcessOnPath1182" d="M0.0 0.0L65.66668701171875 0.0L65.66668701171875 39.55556106567383L0.0 39.55556106567383Z" stroke="#323232" stroke-width="2.0" stroke-dasharray="none" opacity="1.0" fill="#000000"/><g id="ProcessOnG1183" transform="matrix(1.0,0.0,0.0,1.0,10.0,7.277780532836914)"><text id="ProcessOnText1184" fill="#ffffff" font-size="20" x="21.833343505859375" y="20.5" font-family="微软雅黑" font-weight="bold" font-style="normal" text-decoration="none" family="微软雅黑" text-anchor="middle" size="20">NIL</text></g></g><g id="ProcessOnG1185" transform="matrix(1.0,0.0,0.0,1.0,165.83332824706804,792.2222194671633)" opacity="1.0"><path id="ProcessOnPath1186" d="M0.0 0.0L65.66668701171875 0.0L65.66668701171875 39.55556106567383L0.0 39.55556106567383Z" stroke="#323232" stroke-width="2.0" stroke-dasharray="none" opacity="1.0" fill="#000000"/><g id="ProcessOnG1187" transform="matrix(1.0,0.0,0.0,1.0,10.0,7.277780532836914)"><text id="ProcessOnText1188" fill="#ffffff" font-size="20" x="21.833343505859375" y="20.5" font-family="微软雅黑" font-weight="bold" font-style="normal" text-decoration="none" family="微软雅黑" text-anchor="middle" size="20">NIL</text></g></g><g id="ProcessOnG1189"><path id="ProcessOnPath1190" d="M165.1250152587877 394.6554333101308L144.27791451488326 442.26549016482045" stroke="#323232" stroke-width="2.0" stroke-dasharray="none" fill="none" marker-end="url(#ProcessOnMarker1191)"/></g><g id="ProcessOnG1193"><path id="ProcessOnPath1194" d="M196.59895482881075 395.4344316591264L247.71033197717696 594.4649816483816" stroke="#323232" stroke-width="2.0" stroke-dasharray="none" fill="none" marker-end="url(#ProcessOnMarker1195)"/></g><g id="ProcessOnG1197" transform="matrix(1.0,0.0,0.0,1.0,429.8333435058571,609.2222194671629)" opacity="1.0"><path id="ProcessOnPath1198" d="M0.0 0.0L65.66668701171875 0.0L65.66668701171875 39.55556106567383L0.0 39.55556106567383Z" stroke="#323232" stroke-width="2.0" stroke-dasharray="none" opacity="1.0" fill="#000000"/><g id="ProcessOnG1199" transform="matrix(1.0,0.0,0.0,1.0,10.0,7.277780532836914)"><text id="ProcessOnText1200" fill="#ffffff" font-size="20" x="21.833343505859375" y="20.5" font-family="微软雅黑" font-weight="bold" font-style="normal" text-decoration="none" family="微软雅黑" text-anchor="middle" size="20">NIL</text></g></g></g></g></svg>