<svg xmlns="http://www.w3.org/2000/svg" xmlns:xlink="http://www.w3.org/1999/xlink" id="processonSvg1000" viewBox="126.5555419921875 35.750038146972656 813.0 780.416675567627" width="813.0" height="780.416675567627"><defs id="ProcessOnDefs1001"><marker id="ProcessOnMarker1069" markerUnits="userSpaceOnUse" orient="auto" markerWidth="14.289086868996552" markerHeight="19.055054660878554" viewBox="-0.5877852522924731 -0.8090169943749475 14.289086868996552 19.055054660878554" refX="12.0" refY="8.71851033606433"><path id="ProcessOnPath1070" d="M0 0L12.0 8.71851033606433L0 17.43702067212866" stroke="#323232" stroke-width="2.0" fill="none" transform="matrix(1.0,0.0,0.0,1.0,0.0,0.0)"/></marker><marker id="ProcessOnMarker1073" markerUnits="userSpaceOnUse" orient="auto" markerWidth="14.289086868996552" markerHeight="19.055054660878554" viewBox="-0.5877852522924731 -0.8090169943749475 14.289086868996552 19.055054660878554" refX="12.0" refY="8.71851033606433"><path id="ProcessOnPath1074" d="M0 0L12.0 8.71851033606433L0 17.43702067212866" stroke="#323232" stroke-width="2.0" fill="none" transform="matrix(1.0,0.0,0.0,1.0,0.0,0.0)"/></marker><marker id="ProcessOnMarker1077" markerUnits="userSpaceOnUse" orient="auto" markerWidth="14.289086868996552" markerHeight="19.055054660878554" viewBox="-0.5877852522924731 -0.8090169943749475 14.289086868996552 19.055054660878554" refX="12.0" refY="8.71851033606433"><path id="ProcessOnPath1078" d="M0 0L12.0 8.71851033606433L0 17.43702067212866" stroke="#323232" stroke-width="2.0" fill="none" transform="matrix(1.0,0.0,0.0,1.0,0.0,0.0)"/></marker><marker id="ProcessOnMarker1081" markerUnits="userSpaceOnUse" orient="auto" markerWidth="14.289086868996552" markerHeight="19.055054660878554" viewBox="-0.5877852522924731 -0.8090169943749475 14.289086868996552 19.055054660878554" refX="12.0" refY="8.71851033606433"><path id="ProcessOnPath1082" d="M0 0L12.0 8.71851033606433L0 17.43702067212866" stroke="#323232" stroke-width="2.0" fill="none" transform="matrix(1.0,0.0,0.0,1.0,0.0,0.0)"/></marker><marker id="ProcessOnMarker1101" markerUnits="userSpaceOnUse" orient="auto" markerWidth="16.23606797749979" markerHeight="10.550836550532098" viewBox="-1.0 -1.3763819204711736 16.23606797749979 10.550836550532098" refX="15.23606797749979" refY="3.8990363547948754"><path id="ProcessOnPath1102" d="M12.0 3.8990363547948754L0.0 7.798072709589751V0.0Z" stroke="#323232" stroke-width="2.0" fill="#323232" transform="matrix(-1.0,1.2246467991473532E-16,-1.2246467991473532E-16,-1.0,14.23606797749979,7.798072709589751)"/></marker><marker id="ProcessOnMarker1113" markerUnits="userSpaceOnUse" orient="auto" markerWidth="16.23606797749979" markerHeight="10.550836550532098" viewBox="-1.0 -1.3763819204711736 16.23606797749979 10.550836550532098" refX="15.23606797749979" refY="3.8990363547948754"><path id="ProcessOnPath1114" d="M12.0 3.8990363547948754L0.0 7.798072709589751V0.0Z" stroke="#323232" stroke-width="2.0" fill="#323232" transform="matrix(-1.0,1.2246467991473532E-16,-1.2246467991473532E-16,-1.0,14.23606797749979,7.798072709589751)"/></marker><marker id="ProcessOnMarker1141" markerUnits="userSpaceOnUse" orient="auto" markerWidth="14.289086868996552" markerHeight="19.055054660878554" viewBox="-0.5877852522924731 -0.8090169943749475 14.289086868996552 19.055054660878554" refX="12.0" refY="8.71851033606433"><path id="ProcessOnPath1142" d="M0 0L12.0 8.71851033606433L0 17.43702067212866" stroke="#323232" stroke-width="2.0" fill="none" transform="matrix(1.0,0.0,0.0,1.0,0.0,0.0)"/></marker><marker id="ProcessOnMarker1145" markerUnits="userSpaceOnUse" orient="auto" markerWidth="14.289086868996552" markerHeight="19.055054660878554" viewBox="-0.5877852522924731 -0.8090169943749475 14.289086868996552 19.055054660878554" refX="12.0" refY="8.71851033606433"><path id="ProcessOnPath1146" d="M0 0L12.0 8.71851033606433L0 17.43702067212866" stroke="#323232" stroke-width="2.0" fill="none" transform="matrix(1.0,0.0,0.0,1.0,0.0,0.0)"/></marker><marker id="ProcessOnMarker1165" markerUnits="userSpaceOnUse" orient="auto" markerWidth="14.289086868996552" markerHeight="19.055054660878554" viewBox="-0.5877852522924731 -0.8090169943749475 14.289086868996552 19.055054660878554" refX="12.0" refY="8.71851033606433"><path id="ProcessOnPath1166" d="M0 0L12.0 8.71851033606433L0 17.43702067212866" stroke="#323232" stroke-width="2.0" fill="none" transform="matrix(1.0,0.0,0.0,1.0,0.0,0.0)"/></marker><marker id="ProcessOnMarker1203" markerUnits="userSpaceOnUse" orient="auto" markerWidth="14.289086868996552" markerHeight="19.055054660878554" viewBox="-0.5877852522924731 -0.8090169943749475 14.289086868996552 19.055054660878554" refX="12.0" refY="8.71851033606433"><path id="ProcessOnPath1204" d="M0 0L12.0 8.71851033606433L0 17.43702067212866" stroke="#323232" stroke-width="2.0" fill="none" transform="matrix(1.0,0.0,0.0,1.0,0.0,0.0)"/></marker></defs><g id="ProcessOnG1002"><path id="ProcessOnPath1003" d="M126.5555419921875 35.750038146972656H939.5555419921875V816.1667137145996H126.5555419921875V35.750038146972656Z" fill="none"/><g id="ProcessOnG1004"><g id="ProcessOnG1005" transform="matrix(1.0,0.0,0.0,1.0,224.5555419921875,170.4167022705078)" opacity="1.0"><path id="ProcessOnPath1006" d="M0.0 0.0L82.0 0.0L82.0 49.0L0.0 49.0Z" stroke="#323232" stroke-width="2.0" stroke-dasharray="none" opacity="1.0" fill="#ffffff"/><g id="ProcessOnG1007" transform="matrix(1.0,0.0,0.0,1.0,10.0,14.5)"><text id="ProcessOnText1008" fill="#000000" font-size="16" x="30.0" y="16.4" font-family="微软雅黑" font-weight="bold" font-style="normal" text-decoration="none" family="微软雅黑" text-anchor="middle" size="16">index</text></g></g><g id="ProcessOnG1009" transform="matrix(1.0,0.0,0.0,1.0,324.5555419921875,132.4167022705078)" opacity="1.0"><path id="ProcessOnPath1010" d="M0.0 0.0L67.0 0.0L67.0 38.0L0.0 38.0Z" stroke="#323232" stroke-width="2.0" stroke-dasharray="none" opacity="1.0" fill="#ffffff"/><g id="ProcessOnG1011" transform="matrix(1.0,0.0,0.0,1.0,10.0,9.0)"><text id="ProcessOnText1012" fill="#000000" font-size="16" x="22.5" y="16.4" font-family="微软雅黑" font-weight="bold" font-style="normal" text-decoration="none" family="微软雅黑" text-anchor="middle" size="16">3</text></g></g><g id="ProcessOnG1013" transform="matrix(1.0,0.0,0.0,1.0,224.5555419921875,317.4167022705078)" opacity="1.0"><path id="ProcessOnPath1014" d="M0.0 0.0L167.0 0.0L167.0 49.0L0.0 49.0Z" stroke="#323232" stroke-width="2.0" stroke-dasharray="none" opacity="1.0" fill="#ffffff"/><g id="ProcessOnG1015" transform="matrix(1.0,0.0,0.0,1.0,10.0,14.5)"><text id="ProcessOnText1016" fill="#000000" font-size="16" x="72.5" y="16.4" font-family="微软雅黑" font-weight="bold" font-style="normal" text-decoration="none" family="微软雅黑" text-anchor="middle" size="16">010</text></g></g><g id="ProcessOnG1017" transform="matrix(1.0,0.0,0.0,1.0,224.5555419921875,366.4167022705078)" opacity="1.0"><path id="ProcessOnPath1018" d="M0.0 0.0L167.0 0.0L167.0 49.0L0.0 49.0Z" stroke="#323232" stroke-width="2.0" stroke-dasharray="none" opacity="1.0" fill="#ffffff"/><g id="ProcessOnG1019" transform="matrix(1.0,0.0,0.0,1.0,10.0,14.5)"><text id="ProcessOnText1020" fill="#000000" font-size="16" x="72.5" y="16.4" font-family="微软雅黑" font-weight="bold" font-style="normal" text-decoration="none" family="微软雅黑" text-anchor="middle" size="16">011</text></g></g><g id="ProcessOnG1021" transform="matrix(1.0,0.0,0.0,1.0,306.5555419921875,170.4167022705078)" opacity="1.0"><path id="ProcessOnPath1022" d="M0.0 0.0L85.0 0.0L85.0 49.0L0.0 49.0Z" stroke="#323232" stroke-width="2.0" stroke-dasharray="none" opacity="1.0" fill="#ffffff"/><g id="ProcessOnG1023" transform="matrix(1.0,0.0,0.0,1.0,10.0,14.5)"><text id="ProcessOnText1024" fill="#000000" font-size="16" x="31.5" y="16.4" font-family="微软雅黑" font-weight="bold" font-style="normal" text-decoration="none" family="微软雅黑" text-anchor="middle" size="16">*bucket</text></g></g><g id="ProcessOnG1025" transform="matrix(1.0,0.0,0.0,1.0,506.5555419921875,159.16669845581055)" opacity="1.0"><path id="ProcessOnPath1026" d="M0.0 0.0L81.0 0.0L81.0 43.50000762939453L0.0 43.50000762939453Z" stroke="#323232" stroke-width="2.0" stroke-dasharray="none" opacity="1.0" fill="#ffffff"/><g id="ProcessOnG1027" transform="matrix(1.0,0.0,0.0,1.0,10.0,11.750003814697266)"><text id="ProcessOnText1028" fill="#000000" font-size="16" x="29.5" y="16.4" font-family="微软雅黑" font-weight="bold" font-style="normal" text-decoration="none" family="微软雅黑" text-anchor="middle" size="16">32</text></g></g><g id="ProcessOnG1029" transform="matrix(1.0,0.0,0.0,1.0,584.5555419921875,159.16669845581055)" opacity="1.0"><path id="ProcessOnPath1030" d="M0.0 0.0L81.0 0.0L81.0 43.50000762939453L0.0 43.50000762939453Z" stroke="#323232" stroke-width="2.0" stroke-dasharray="none" opacity="1.0" fill="#ffffff"/><g id="ProcessOnG1031" transform="matrix(1.0,0.0,0.0,1.0,10.0,11.750003814697266)"><text id="ProcessOnText1032" fill="#000000" font-size="16" x="29.5" y="16.4" font-family="微软雅黑" font-weight="bold" font-style="normal" text-decoration="none" family="微软雅黑" text-anchor="middle" size="16">16</text></g></g><g id="ProcessOnG1033" transform="matrix(1.0,0.0,0.0,1.0,665.5555419921875,159.16669845581055)" opacity="1.0"><path id="ProcessOnPath1034" d="M0.0 0.0L81.0 0.0L81.0 43.50000762939453L0.0 43.50000762939453Z" stroke="#323232" stroke-width="2.0" stroke-dasharray="none" opacity="1.0" fill="#ffffff"/></g><g id="ProcessOnG1035" transform="matrix(1.0,0.0,0.0,1.0,746.5555419921875,159.16669845581055)" opacity="1.0"><path id="ProcessOnPath1036" d="M0.0 0.0L81.0 0.0L81.0 43.50000762939453L0.0 43.50000762939453Z" stroke="#323232" stroke-width="2.0" stroke-dasharray="none" opacity="1.0" fill="#ffffff"/></g><g id="ProcessOnG1037" transform="matrix(1.0,0.0,0.0,1.0,506.5555419921875,271.16669845581055)" opacity="1.0"><path id="ProcessOnPath1038" d="M0.0 0.0L81.0 0.0L81.0 43.50000762939453L0.0 43.50000762939453Z" stroke="#323232" stroke-width="2.0" stroke-dasharray="none" opacity="1.0" fill="#ffffff"/><g id="ProcessOnG1039" transform="matrix(1.0,0.0,0.0,1.0,10.0,11.750003814697266)"><text id="ProcessOnText1040" fill="#000000" font-size="16" x="29.5" y="16.4" font-family="微软雅黑" font-weight="bold" font-style="normal" text-decoration="none" family="微软雅黑" text-anchor="middle" size="16">1</text></g></g><g id="ProcessOnG1041" transform="matrix(1.0,0.0,0.0,1.0,665.5555419921875,271.16669845581055)" opacity="1.0"><path id="ProcessOnPath1042" d="M0.0 0.0L81.0 0.0L81.0 43.50000762939453L0.0 43.50000762939453Z" stroke="#323232" stroke-width="2.0" stroke-dasharray="none" opacity="1.0" fill="#ffffff"/></g><g id="ProcessOnG1043" transform="matrix(1.0,0.0,0.0,1.0,746.5555419921875,271.16669845581055)" opacity="1.0"><path id="ProcessOnPath1044" d="M0.0 0.0L81.0 0.0L81.0 43.50000762939453L0.0 43.50000762939453Z" stroke="#323232" stroke-width="2.0" stroke-dasharray="none" opacity="1.0" fill="#ffffff"/></g><g id="ProcessOnG1045" transform="matrix(1.0,0.0,0.0,1.0,506.5555419921875,502.4167022705078)" opacity="1.0"><path id="ProcessOnPath1046" d="M0.0 0.0L81.0 0.0L81.0 43.50000762939453L0.0 43.50000762939453Z" stroke="#323232" stroke-width="2.0" stroke-dasharray="none" opacity="1.0" fill="#ffffff"/><g id="ProcessOnG1047" transform="matrix(1.0,0.0,0.0,1.0,10.0,11.750003814697266)"><text id="ProcessOnText1048" fill="#000000" font-size="16" x="29.5" y="16.4" font-family="微软雅黑" font-weight="bold" font-style="normal" text-decoration="none" family="微软雅黑" text-anchor="middle" size="16">10</text></g></g><g id="ProcessOnG1049" transform="matrix(1.0,0.0,0.0,1.0,584.5555419921875,502.4167022705078)" opacity="1.0"><path id="ProcessOnPath1050" d="M0.0 0.0L81.0 0.0L81.0 43.50000762939453L0.0 43.50000762939453Z" stroke="#323232" stroke-width="2.0" stroke-dasharray="none" opacity="1.0" fill="#ffffff"/></g><g id="ProcessOnG1051" transform="matrix(1.0,0.0,0.0,1.0,665.5555419921875,502.4167022705078)" opacity="1.0"><path id="ProcessOnPath1052" d="M0.0 0.0L81.0 0.0L81.0 43.50000762939453L0.0 43.50000762939453Z" stroke="#323232" stroke-width="2.0" stroke-dasharray="none" opacity="1.0" fill="#ffffff"/></g><g id="ProcessOnG1053" transform="matrix(1.0,0.0,0.0,1.0,746.5555419921875,502.4167022705078)" opacity="1.0"><path id="ProcessOnPath1054" d="M0.0 0.0L81.0 0.0L81.0 43.50000762939453L0.0 43.50000762939453Z" stroke="#323232" stroke-width="2.0" stroke-dasharray="none" opacity="1.0" fill="#ffffff"/></g><g id="ProcessOnG1055" transform="matrix(1.0,0.0,0.0,1.0,506.5555419921875,613.6667060852051)" opacity="1.0"><path id="ProcessOnPath1056" d="M0.0 0.0L81.0 0.0L81.0 43.50000762939453L0.0 43.50000762939453Z" stroke="#323232" stroke-width="2.0" stroke-dasharray="none" opacity="1.0" fill="#ffffff"/><g id="ProcessOnG1057" transform="matrix(1.0,0.0,0.0,1.0,10.0,11.750003814697266)"><text id="ProcessOnText1058" fill="#000000" font-size="16" x="29.5" y="16.4" font-family="微软雅黑" font-weight="bold" font-style="normal" text-decoration="none" family="微软雅黑" text-anchor="middle" size="16">15</text></g></g><g id="ProcessOnG1059" transform="matrix(1.0,0.0,0.0,1.0,584.5555419921875,613.6667060852051)" opacity="1.0"><path id="ProcessOnPath1060" d="M0.0 0.0L81.0 0.0L81.0 43.50000762939453L0.0 43.50000762939453Z" stroke="#323232" stroke-width="2.0" stroke-dasharray="none" opacity="1.0" fill="#ffffff"/><g id="ProcessOnG1061" transform="matrix(1.0,0.0,0.0,1.0,10.0,11.750003814697266)"><text id="ProcessOnText1062" fill="#000000" font-size="16" x="29.5" y="16.4" font-family="微软雅黑" font-weight="bold" font-style="normal" text-decoration="none" family="微软雅黑" text-anchor="middle" size="16">7</text></g></g><g id="ProcessOnG1063" transform="matrix(1.0,0.0,0.0,1.0,665.5555419921875,613.6667060852051)" opacity="1.0"><path id="ProcessOnPath1064" d="M0.0 0.0L81.0 0.0L81.0 43.50000762939453L0.0 43.50000762939453Z" stroke="#323232" stroke-width="2.0" stroke-dasharray="none" opacity="1.0" fill="#ffffff"/></g><g id="ProcessOnG1065" transform="matrix(1.0,0.0,0.0,1.0,746.5555419921875,613.6667060852051)" opacity="1.0"><path id="ProcessOnPath1066" d="M0.0 0.0L81.0 0.0L81.0 43.50000762939453L0.0 43.50000762939453Z" stroke="#323232" stroke-width="2.0" stroke-dasharray="none" opacity="1.0" fill="#ffffff"/></g><g id="ProcessOnG1067"><path id="ProcessOnPath1068" d="M391.5555419921875 243.9167022705078L506.5555419921875 180.9167022705078" stroke="#323232" stroke-width="2.0" stroke-dasharray="10.0 4.0" fill="none" marker-end="url(#ProcessOnMarker1069)"/></g><g id="ProcessOnG1071"><path id="ProcessOnPath1072" d="M391.5555419921875 292.9167022705078L506.5555419921875 292.9167022705078" stroke="#323232" stroke-width="2.0" stroke-dasharray="10.0 4.0" fill="none" marker-end="url(#ProcessOnMarker1073)"/></g><g id="ProcessOnG1075"><path id="ProcessOnPath1076" d="M391.5555419921875 341.9167022705078L506.5555419921875 524.1667060852051" stroke="#323232" stroke-width="2.0" stroke-dasharray="10.0 4.0" fill="none" marker-end="url(#ProcessOnMarker1077)"/></g><g id="ProcessOnG1079"><path id="ProcessOnPath1080" d="M391.5555419921875 390.9167022705078L506.5555419921875 635.4167098999023" stroke="#323232" stroke-width="2.0" stroke-dasharray="10.0 4.0" fill="none" marker-end="url(#ProcessOnMarker1081)"/></g><g id="ProcessOnG1083" transform="matrix(1.0,0.0,0.0,1.0,833.5555419921875,160.9167022705078)" opacity="1.0"><path id="ProcessOnPath1084" d="M0.0 0.0L86.0 0.0L86.0 40.0L0.0 40.0Z" stroke="none" stroke-width="0.0" stroke-dasharray="none" opacity="1.0" fill="none"/><g id="ProcessOnG1085" transform="matrix(1.0,0.0,0.0,1.0,0.0,10.0)"><text id="ProcessOnText1086" fill="#000000" font-size="16" x="42.0" y="16.4" font-family="微软雅黑" font-weight="bold" font-style="normal" text-decoration="none" family="微软雅黑" text-anchor="middle" size="16">Bucket 1_1</text></g></g><g id="ProcessOnG1087" transform="matrix(1.0,0.0,0.0,1.0,833.5555419921875,272.9167022705078)" opacity="1.0"><path id="ProcessOnPath1088" d="M0.0 0.0L86.0 0.0L86.0 40.0L0.0 40.0Z" stroke="none" stroke-width="0.0" stroke-dasharray="none" opacity="1.0" fill="none"/><g id="ProcessOnG1089" transform="matrix(1.0,0.0,0.0,1.0,0.0,10.0)"><text id="ProcessOnText1090" fill="#000000" font-size="16" x="42.0" y="16.4" font-family="微软雅黑" font-weight="bold" font-style="normal" text-decoration="none" family="微软雅黑" text-anchor="middle" size="16">Bucket 2_1</text></g></g><g id="ProcessOnG1091" transform="matrix(1.0,0.0,0.0,1.0,827.5555419921875,504.1667060852051)" opacity="1.0"><path id="ProcessOnPath1092" d="M0.0 0.0L86.0 0.0L86.0 40.0L0.0 40.0Z" stroke="none" stroke-width="0.0" stroke-dasharray="none" opacity="1.0" fill="none"/><g id="ProcessOnG1093" transform="matrix(1.0,0.0,0.0,1.0,0.0,10.0)"><text id="ProcessOnText1094" fill="#000000" font-size="16" x="42.0" y="16.4" font-family="微软雅黑" font-weight="bold" font-style="normal" text-decoration="none" family="微软雅黑" text-anchor="middle" size="16">Bucket 3</text></g></g><g id="ProcessOnG1095" transform="matrix(1.0,0.0,0.0,1.0,827.5555419921875,615.4167098999023)" opacity="1.0"><path id="ProcessOnPath1096" d="M0.0 0.0L86.0 0.0L86.0 40.0L0.0 40.0Z" stroke="none" stroke-width="0.0" stroke-dasharray="none" opacity="1.0" fill="none"/><g id="ProcessOnG1097" transform="matrix(1.0,0.0,0.0,1.0,0.0,10.0)"><text id="ProcessOnText1098" fill="#000000" font-size="16" x="42.0" y="16.4" font-family="微软雅黑" font-weight="bold" font-style="normal" text-decoration="none" family="微软雅黑" text-anchor="middle" size="16">Bucket 4</text></g></g><g id="ProcessOnG1099"><path id="ProcessOnPath1100" d="M311.3828415549635 125.48354554910622L267.2221984863281 102.75003814697266" stroke="#323232" stroke-width="2.0" stroke-dasharray="none" fill="none" marker-start="url(#ProcessOnMarker1101)"/></g><g id="ProcessOnG1103" transform="matrix(1.0,0.0,0.0,1.0,146.5555419921875,69.75003814697266)" opacity="1.0"><path id="ProcessOnPath1104" d="M0.0 0.0L160.0 0.0L160.0 40.0L0.0 40.0Z" stroke="none" stroke-width="0.0" stroke-dasharray="none" opacity="1.0" fill="none"/><g id="ProcessOnG1105" transform="matrix(1.0,0.0,0.0,1.0,0.0,10.0)"><text id="ProcessOnText1106" fill="#000000" font-size="16" x="79.0" y="16.4" font-family="微软雅黑" font-weight="bold" font-style="normal" text-decoration="none" family="微软雅黑" text-anchor="middle" size="16">全局位深度</text></g></g><g id="ProcessOnG1107" transform="matrix(1.0,0.0,0.0,1.0,506.5555419921875,121.16669845581055)" opacity="1.0"><path id="ProcessOnPath1108" d="M0.0 0.0L67.0 0.0L67.0 38.0L0.0 38.0Z" stroke="#323232" stroke-width="2.0" stroke-dasharray="none" opacity="1.0" fill="#ffffff"/><g id="ProcessOnG1109" transform="matrix(1.0,0.0,0.0,1.0,10.0,9.0)"><text id="ProcessOnText1110" fill="#000000" font-size="16" x="22.5" y="16.4" font-family="微软雅黑" font-weight="bold" font-style="normal" text-decoration="none" family="微软雅黑" text-anchor="middle" size="16">3</text></g></g><g id="ProcessOnG1111"><path id="ProcessOnPath1112" d="M586.1927585852483 113.42020071602117L629.9027709960938 85.36457824707031" stroke="#323232" stroke-width="2.0" stroke-dasharray="none" fill="none" marker-start="url(#ProcessOnMarker1113)"/></g><g id="ProcessOnG1115" transform="matrix(1.0,0.0,0.0,1.0,595.5555419921875,55.750038146972656)" opacity="1.0"><path id="ProcessOnPath1116" d="M0.0 0.0L160.0 0.0L160.0 40.0L0.0 40.0Z" stroke="none" stroke-width="0.0" stroke-dasharray="none" opacity="1.0" fill="none"/><g id="ProcessOnG1117" transform="matrix(1.0,0.0,0.0,1.0,0.0,10.0)"><text id="ProcessOnText1118" fill="#000000" font-size="16" x="79.0" y="16.4" font-family="微软雅黑" font-weight="bold" font-style="normal" text-decoration="none" family="微软雅黑" text-anchor="middle" size="16">本地位深度</text></g></g><g id="ProcessOnG1119" transform="matrix(1.0,0.0,0.0,1.0,506.5555419921875,233.16669845581055)" opacity="1.0"><path id="ProcessOnPath1120" d="M0.0 0.0L67.0 0.0L67.0 38.0L0.0 38.0Z" stroke="#ff8000" stroke-width="2.0" stroke-dasharray="none" opacity="1.0" fill="#ffffff"/><g id="ProcessOnG1121" transform="matrix(1.0,0.0,0.0,1.0,10.0,9.0)"><text id="ProcessOnText1122" fill="#000000" font-size="16" x="22.5" y="16.4" font-family="微软雅黑" font-weight="bold" font-style="normal" text-decoration="none" family="微软雅黑" text-anchor="middle" size="16">3</text></g></g><g id="ProcessOnG1123" transform="matrix(1.0,0.0,0.0,1.0,506.5555419921875,464.4167022705078)" opacity="1.0"><path id="ProcessOnPath1124" d="M0.0 0.0L67.0 0.0L67.0 38.0L0.0 38.0Z" stroke="#323232" stroke-width="2.0" stroke-dasharray="none" opacity="1.0" fill="#ffffff"/><g id="ProcessOnG1125" transform="matrix(1.0,0.0,0.0,1.0,10.0,9.0)"><text id="ProcessOnText1126" fill="#000000" font-size="16" x="22.5" y="16.4" font-family="微软雅黑" font-weight="bold" font-style="normal" text-decoration="none" family="微软雅黑" text-anchor="middle" size="16">2</text></g></g><g id="ProcessOnG1127" transform="matrix(1.0,0.0,0.0,1.0,506.5555419921875,575.6667060852051)" opacity="1.0"><path id="ProcessOnPath1128" d="M0.0 0.0L67.0 0.0L67.0 38.0L0.0 38.0Z" stroke="#323232" stroke-width="2.0" stroke-dasharray="none" opacity="1.0" fill="#ffffff"/><g id="ProcessOnG1129" transform="matrix(1.0,0.0,0.0,1.0,10.0,9.0)"><text id="ProcessOnText1130" fill="#000000" font-size="16" x="22.5" y="16.4" font-family="微软雅黑" font-weight="bold" font-style="normal" text-decoration="none" family="微软雅黑" text-anchor="middle" size="16">2</text></g></g><g id="ProcessOnG1131" transform="matrix(1.0,0.0,0.0,1.0,224.5555419921875,513.4167022705078)" opacity="1.0"><path id="ProcessOnPath1132" d="M0.0 0.0L167.0 0.0L167.0 49.0L0.0 49.0Z" stroke="#323232" stroke-width="2.0" stroke-dasharray="none" opacity="1.0" fill="#ffffff"/><g id="ProcessOnG1133" transform="matrix(1.0,0.0,0.0,1.0,10.0,14.5)"><text id="ProcessOnText1134" fill="#000000" font-size="16" x="72.5" y="16.4" font-family="微软雅黑" font-weight="bold" font-style="normal" text-decoration="none" family="微软雅黑" text-anchor="middle" size="16">110</text></g></g><g id="ProcessOnG1135" transform="matrix(1.0,0.0,0.0,1.0,224.5555419921875,562.4167022705078)" opacity="1.0"><path id="ProcessOnPath1136" d="M0.0 0.0L167.0 0.0L167.0 49.0L0.0 49.0Z" stroke="#323232" stroke-width="2.0" stroke-dasharray="none" opacity="1.0" fill="#ffffff"/><g id="ProcessOnG1137" transform="matrix(1.0,0.0,0.0,1.0,10.0,14.5)"><text id="ProcessOnText1138" fill="#000000" font-size="16" x="72.5" y="16.4" font-family="微软雅黑" font-weight="bold" font-style="normal" text-decoration="none" family="微软雅黑" text-anchor="middle" size="16">111</text></g></g><g id="ProcessOnG1139"><path id="ProcessOnPath1140" d="M391.5555419921875 537.9167022705078L506.5555419921875 524.1667060852051" stroke="#323232" stroke-width="2.0" stroke-dasharray="10.0 4.0" fill="none" marker-end="url(#ProcessOnMarker1141)"/></g><g id="ProcessOnG1143"><path id="ProcessOnPath1144" d="M391.5555419921875 586.9167022705078L506.5555419921875 635.4167098999023" stroke="#323232" stroke-width="2.0" stroke-dasharray="10.0 4.0" fill="none" marker-end="url(#ProcessOnMarker1145)"/></g><g id="ProcessOnG1147" transform="matrix(1.0,0.0,0.0,1.0,506.5555419921875,752.6667060852051)" opacity="1.0"><path id="ProcessOnPath1148" d="M0.0 0.0L81.0 0.0L81.0 43.50000762939453L0.0 43.50000762939453Z" stroke="#323232" stroke-width="2.0" stroke-dasharray="none" opacity="1.0" fill="#ffffff"/><g id="ProcessOnG1149" transform="matrix(1.0,0.0,0.0,1.0,10.0,11.750003814697266)"><text id="ProcessOnText1150" fill="#000000" font-size="16" x="29.5" y="16.4" font-family="微软雅黑" font-weight="bold" font-style="normal" text-decoration="none" family="微软雅黑" text-anchor="middle" size="16">4</text></g></g><g id="ProcessOnG1151" transform="matrix(1.0,0.0,0.0,1.0,665.5555419921875,752.6667060852051)" opacity="1.0"><path id="ProcessOnPath1152" d="M0.0 0.0L81.0 0.0L81.0 43.50000762939453L0.0 43.50000762939453Z" stroke="#323232" stroke-width="2.0" stroke-dasharray="none" opacity="1.0" fill="#ffffff"/></g><g id="ProcessOnG1153" transform="matrix(1.0,0.0,0.0,1.0,746.5555419921875,752.6667060852051)" opacity="1.0"><path id="ProcessOnPath1154" d="M0.0 0.0L81.0 0.0L81.0 43.50000762939453L0.0 43.50000762939453Z" stroke="#323232" stroke-width="2.0" stroke-dasharray="none" opacity="1.0" fill="#ffffff"/></g><g id="ProcessOnG1155" transform="matrix(1.0,0.0,0.0,1.0,833.5555419921875,754.4167098999023)" opacity="1.0"><path id="ProcessOnPath1156" d="M0.0 0.0L86.0 0.0L86.0 40.0L0.0 40.0Z" stroke="none" stroke-width="0.0" stroke-dasharray="none" opacity="1.0" fill="none"/><g id="ProcessOnG1157" transform="matrix(1.0,0.0,0.0,1.0,0.0,10.0)"><text id="ProcessOnText1158" fill="#000000" font-size="16" x="42.0" y="16.4" font-family="微软雅黑" font-weight="bold" font-style="normal" text-decoration="none" family="微软雅黑" text-anchor="middle" size="16">Bucket 1_2</text></g></g><g id="ProcessOnG1159" transform="matrix(1.0,0.0,0.0,1.0,506.5555419921875,714.6667060852051)" opacity="1.0"><path id="ProcessOnPath1160" d="M0.0 0.0L67.0 0.0L67.0 38.0L0.0 38.0Z" stroke="#323232" stroke-width="2.0" stroke-dasharray="none" opacity="1.0" fill="#ffffff"/><g id="ProcessOnG1161" transform="matrix(1.0,0.0,0.0,1.0,10.0,9.0)"><text id="ProcessOnText1162" fill="#000000" font-size="16" x="22.5" y="16.4" font-family="微软雅黑" font-weight="bold" font-style="normal" text-decoration="none" family="微软雅黑" text-anchor="middle" size="16">3</text></g></g><g id="ProcessOnG1163"><path id="ProcessOnPath1164" d="M391.5555419921875 439.9167022705078L506.5555419921875 774.4167098999023" stroke="#323232" stroke-width="2.0" stroke-dasharray="10.0 4.0" fill="none" marker-end="url(#ProcessOnMarker1165)"/></g><g id="ProcessOnG1167" transform="matrix(1.0,0.0,0.0,1.0,587.5555419921875,752.6667060852051)" opacity="1.0"><path id="ProcessOnPath1168" d="M0.0 0.0L81.0 0.0L81.0 43.50000762939453L0.0 43.50000762939453Z" stroke="#323232" stroke-width="2.0" stroke-dasharray="none" opacity="1.0" fill="#ffffff"/><g id="ProcessOnG1169" transform="matrix(1.0,0.0,0.0,1.0,10.0,11.750003814697266)"><text id="ProcessOnText1170" fill="#000000" font-size="16" x="29.5" y="16.4" font-family="微软雅黑" font-weight="bold" font-style="normal" text-decoration="none" family="微软雅黑" text-anchor="middle" size="16">12</text></g></g><g id="ProcessOnG1171" transform="matrix(1.0,0.0,0.0,1.0,224.5555419921875,219.4167022705078)" opacity="1.0"><path id="ProcessOnPath1172" d="M0.0 0.0L167.0 0.0L167.0 49.0L0.0 49.0Z" stroke="#000000" stroke-width="2.0" stroke-dasharray="none" opacity="1.0" fill="#ffffff"/><g id="ProcessOnG1173" transform="matrix(1.0,0.0,0.0,1.0,10.0,14.5)"><text id="ProcessOnText1174" fill="#000000" font-size="16" x="72.5" y="16.4" font-family="微软雅黑" font-weight="bold" font-style="normal" text-decoration="none" family="微软雅黑" text-anchor="middle" size="16">000</text></g></g><g id="ProcessOnG1175" transform="matrix(1.0,0.0,0.0,1.0,224.5555419921875,415.4167022705078)" opacity="1.0"><path id="ProcessOnPath1176" d="M0.0 0.0L167.0 0.0L167.0 49.0L0.0 49.0Z" stroke="#000000" stroke-width="2.0" stroke-dasharray="none" opacity="1.0" fill="#ffffff"/><g id="ProcessOnG1177" transform="matrix(1.0,0.0,0.0,1.0,10.0,14.5)"><text id="ProcessOnText1178" fill="#000000" font-size="16" x="72.5" y="16.4" font-family="微软雅黑" font-weight="bold" font-style="normal" text-decoration="none" family="微软雅黑" text-anchor="middle" size="16">100</text></g></g><g id="ProcessOnG1179" transform="matrix(1.0,0.0,0.0,1.0,506.5555419921875,397.16669845581055)" opacity="1.0"><path id="ProcessOnPath1180" d="M0.0 0.0L81.0 0.0L81.0 43.50000762939453L0.0 43.50000762939453Z" stroke="#323232" stroke-width="2.0" stroke-dasharray="none" opacity="1.0" fill="#ffffff"/><g id="ProcessOnG1181" transform="matrix(1.0,0.0,0.0,1.0,10.0,11.750003814697266)"><text id="ProcessOnText1182" fill="#000000" font-size="16" x="29.5" y="16.4" font-family="微软雅黑" font-weight="bold" font-style="normal" text-decoration="none" family="微软雅黑" text-anchor="middle" size="16">5</text></g></g><g id="ProcessOnG1183" transform="matrix(1.0,0.0,0.0,1.0,584.5555419921875,397.16669845581055)" opacity="1.0"><path id="ProcessOnPath1184" d="M0.0 0.0L81.0 0.0L81.0 43.50000762939453L0.0 43.50000762939453Z" stroke="#323232" stroke-width="2.0" stroke-dasharray="none" opacity="1.0" fill="#ffffff"/><g id="ProcessOnG1185" transform="matrix(1.0,0.0,0.0,1.0,10.0,11.750003814697266)"><text id="ProcessOnText1186" fill="#000000" font-size="16" x="29.5" y="16.4" font-family="微软雅黑" font-weight="bold" font-style="normal" text-decoration="none" family="微软雅黑" text-anchor="middle" size="16">21</text></g></g><g id="ProcessOnG1187" transform="matrix(1.0,0.0,0.0,1.0,665.5555419921875,397.16669845581055)" opacity="1.0"><path id="ProcessOnPath1188" d="M0.0 0.0L81.0 0.0L81.0 43.50000762939453L0.0 43.50000762939453Z" stroke="#323232" stroke-width="2.0" stroke-dasharray="none" opacity="1.0" fill="#ffffff"/><g id="ProcessOnG1189" transform="matrix(1.0,0.0,0.0,1.0,10.0,11.750003814697266)"><text id="ProcessOnText1190" fill="#000000" font-size="16" x="29.5" y="16.4" font-family="微软雅黑" font-weight="bold" font-style="normal" text-decoration="none" family="微软雅黑" text-anchor="middle" size="16">13</text></g></g><g id="ProcessOnG1191" transform="matrix(1.0,0.0,0.0,1.0,746.5555419921875,397.16669845581055)" opacity="1.0"><path id="ProcessOnPath1192" d="M0.0 0.0L81.0 0.0L81.0 43.50000762939453L0.0 43.50000762939453Z" stroke="#323232" stroke-width="2.0" stroke-dasharray="none" opacity="1.0" fill="#ffffff"/></g><g id="ProcessOnG1193" transform="matrix(1.0,0.0,0.0,1.0,833.5555419921875,398.9167022705078)" opacity="1.0"><path id="ProcessOnPath1194" d="M0.0 0.0L86.0 0.0L86.0 40.0L0.0 40.0Z" stroke="none" stroke-width="0.0" stroke-dasharray="none" opacity="1.0" fill="none"/><g id="ProcessOnG1195" transform="matrix(1.0,0.0,0.0,1.0,0.0,10.0)"><text id="ProcessOnText1196" fill="#000000" font-size="16" x="42.0" y="16.4" font-family="微软雅黑" font-weight="bold" font-style="normal" text-decoration="none" family="微软雅黑" text-anchor="middle" size="16">Bucket 2_2</text></g></g><g id="ProcessOnG1197" transform="matrix(1.0,0.0,0.0,1.0,506.5555419921875,359.16669845581055)" opacity="1.0"><path id="ProcessOnPath1198" d="M0.0 0.0L67.0 0.0L67.0 38.0L0.0 38.0Z" stroke="#ff8000" stroke-width="2.0" stroke-dasharray="none" opacity="1.0" fill="#ffffff"/><g id="ProcessOnG1199" transform="matrix(1.0,0.0,0.0,1.0,10.0,9.0)"><text id="ProcessOnText1200" fill="#000000" font-size="16" x="22.5" y="16.4" font-family="微软雅黑" font-weight="bold" font-style="normal" text-decoration="none" family="微软雅黑" text-anchor="middle" size="16">3</text></g></g><g id="ProcessOnG1201"><path id="ProcessOnPath1202" d="M391.5555419921875 488.9167022705078L506.5555419921875 418.9167022705078" stroke="#323232" stroke-width="2.0" stroke-dasharray="10.0 4.0" fill="none" marker-end="url(#ProcessOnMarker1203)"/></g><g id="ProcessOnG1205" transform="matrix(1.0,0.0,0.0,1.0,224.5555419921875,268.4167022705078)" opacity="1.0"><path id="ProcessOnPath1206" d="M0.0 0.0L167.0 0.0L167.0 49.0L0.0 49.0Z" stroke="#ff8000" stroke-width="2.0" stroke-dasharray="none" opacity="1.0" fill="#ffffff"/><g id="ProcessOnG1207" transform="matrix(1.0,0.0,0.0,1.0,10.0,14.5)"><text id="ProcessOnText1208" fill="#000000" font-size="16" x="72.5" y="16.4" font-family="微软雅黑" font-weight="bold" font-style="normal" text-decoration="none" family="微软雅黑" text-anchor="middle" size="16">001</text></g></g><g id="ProcessOnG1209" transform="matrix(1.0,0.0,0.0,1.0,224.5555419921875,464.4167022705078)" opacity="1.0"><path id="ProcessOnPath1210" d="M0.0 0.0L167.0 0.0L167.0 49.0L0.0 49.0Z" stroke="#ff8000" stroke-width="2.0" stroke-dasharray="none" opacity="1.0" fill="#ffffff"/><g id="ProcessOnG1211" transform="matrix(1.0,0.0,0.0,1.0,10.0,14.5)"><text id="ProcessOnText1212" fill="#000000" font-size="16" x="72.5" y="16.4" font-family="微软雅黑" font-weight="bold" font-style="normal" text-decoration="none" family="微软雅黑" text-anchor="middle" size="16">101</text></g></g><g id="ProcessOnG1213" transform="matrix(1.0,0.0,0.0,1.0,584.5555419921875,271.16669845581055)" opacity="1.0"><path id="ProcessOnPath1214" d="M0.0 0.0L81.0 0.0L81.0 43.50000762939453L0.0 43.50000762939453Z" stroke="#ff8000" stroke-width="2.0" stroke-dasharray="none" opacity="1.0" fill="#ffffff"/><g id="ProcessOnG1215" transform="matrix(1.0,0.0,0.0,1.0,10.0,11.750003814697266)"><text id="ProcessOnText1216" fill="#000000" font-size="16" x="29.5" y="16.4" font-family="微软雅黑" font-weight="bold" font-style="normal" text-decoration="none" family="微软雅黑" text-anchor="middle" size="16">25</text></g></g></g></g></svg>