<svg xmlns="http://www.w3.org/2000/svg" xmlns:xlink="http://www.w3.org/1999/xlink" id="processonSvg1000" viewBox="71.22222900390625 38.416664123535156 807.0 492.1666717529297" width="807.0" height="492.1666717529297"><defs id="ProcessOnDefs1001"><marker id="ProcessOnMarker1101" markerUnits="userSpaceOnUse" orient="auto" markerWidth="14.289086868996552" markerHeight="19.055054660878554" viewBox="-0.5877852522924731 -0.8090169943749475 14.289086868996552 19.055054660878554" refX="12.0" refY="8.71851033606433"><path id="ProcessOnPath1102" d="M0 0L12.0 8.71851033606433L0 17.43702067212866" stroke="#323232" stroke-width="2.0" fill="none" transform="matrix(1.0,0.0,0.0,1.0,0.0,0.0)"/></marker><marker id="ProcessOnMarker1105" markerUnits="userSpaceOnUse" orient="auto" markerWidth="14.289086868996552" markerHeight="19.055054660878554" viewBox="-0.5877852522924731 -0.8090169943749475 14.289086868996552 19.055054660878554" refX="12.0" refY="8.71851033606433"><path id="ProcessOnPath1106" d="M0 0L12.0 8.71851033606433L0 17.43702067212866" stroke="#323232" stroke-width="2.0" fill="none" transform="matrix(1.0,0.0,0.0,1.0,0.0,0.0)"/></marker><marker id="ProcessOnMarker1109" markerUnits="userSpaceOnUse" orient="auto" markerWidth="14.289086868996552" markerHeight="19.055054660878554" viewBox="-0.5877852522924731 -0.8090169943749475 14.289086868996552 19.055054660878554" refX="12.0" refY="8.71851033606433"><path id="ProcessOnPath1110" d="M0 0L12.0 8.71851033606433L0 17.43702067212866" stroke="#323232" stroke-width="2.0" fill="none" transform="matrix(1.0,0.0,0.0,1.0,0.0,0.0)"/></marker><marker id="ProcessOnMarker1113" markerUnits="userSpaceOnUse" orient="auto" markerWidth="14.289086868996552" markerHeight="19.055054660878554" viewBox="-0.5877852522924731 -0.8090169943749475 14.289086868996552 19.055054660878554" refX="12.0" refY="8.71851033606433"><path id="ProcessOnPath1114" d="M0 0L12.0 8.71851033606433L0 17.43702067212866" stroke="#323232" stroke-width="2.0" fill="none" transform="matrix(1.0,0.0,0.0,1.0,0.0,0.0)"/></marker><marker id="ProcessOnMarker1117" markerUnits="userSpaceOnUse" orient="auto" markerWidth="14.289086868996552" markerHeight="19.055054660878554" viewBox="-0.5877852522924731 -0.8090169943749475 14.289086868996552 19.055054660878554" refX="12.0" refY="8.71851033606433"><path id="ProcessOnPath1118" d="M0 0L12.0 8.71851033606433L0 17.43702067212866" stroke="#323232" stroke-width="2.0" fill="none" transform="matrix(1.0,0.0,0.0,1.0,0.0,0.0)"/></marker><marker id="ProcessOnMarker1141" markerUnits="userSpaceOnUse" orient="auto" markerWidth="16.23606797749979" markerHeight="10.550836550532098" viewBox="-1.0 -1.3763819204711736 16.23606797749979 10.550836550532098" refX="15.23606797749979" refY="3.8990363547948754"><path id="ProcessOnPath1142" d="M12.0 3.8990363547948754L0.0 7.798072709589751V0.0Z" stroke="#323232" stroke-width="2.0" fill="#323232" transform="matrix(-1.0,1.2246467991473532E-16,-1.2246467991473532E-16,-1.0,14.23606797749979,7.798072709589751)"/></marker></defs><g id="ProcessOnG1002"><path id="ProcessOnPath1003" d="M71.22222900390625 38.416664123535156H878.2222290039062V530.5833358764648H71.22222900390625V38.416664123535156Z" fill="none"/><g id="ProcessOnG1004"><g id="ProcessOnG1005" transform="matrix(1.0,0.0,0.0,1.0,169.22222900390625,159.0833282470703)" opacity="1.0"><path id="ProcessOnPath1006" d="M0.0 0.0L82.0 0.0L82.0 49.0L0.0 49.0Z" stroke="#323232" stroke-width="2.0" stroke-dasharray="none" opacity="1.0" fill="#ffffff"/><g id="ProcessOnG1007" transform="matrix(1.0,0.0,0.0,1.0,10.0,14.5)"><text id="ProcessOnText1008" fill="#000000" font-size="16" x="30.0" y="16.4" font-family="微软雅黑" font-weight="bold" font-style="normal" text-decoration="none" family="微软雅黑" text-anchor="middle" size="16">index</text></g></g><g id="ProcessOnG1009" transform="matrix(1.0,0.0,0.0,1.0,269.22222900390625,121.08332824707031)" opacity="1.0"><path id="ProcessOnPath1010" d="M0.0 0.0L67.0 0.0L67.0 38.0L0.0 38.0Z" stroke="#323232" stroke-width="2.0" stroke-dasharray="none" opacity="1.0" fill="#ffffff"/><g id="ProcessOnG1011" transform="matrix(1.0,0.0,0.0,1.0,10.0,9.0)"><text id="ProcessOnText1012" fill="#000000" font-size="16" x="22.5" y="16.4" font-family="微软雅黑" font-weight="bold" font-style="normal" text-decoration="none" family="微软雅黑" text-anchor="middle" size="16">1</text></g></g><g id="ProcessOnG1013" transform="matrix(1.0,0.0,0.0,1.0,169.22222900390625,208.0833282470703)" opacity="1.0"><path id="ProcessOnPath1014" d="M0.0 0.0L167.0 0.0L167.0 49.0L0.0 49.0Z" stroke="#323232" stroke-width="2.0" stroke-dasharray="none" opacity="1.0" fill="#ffffff"/><g id="ProcessOnG1015" transform="matrix(1.0,0.0,0.0,1.0,10.0,14.5)"><text id="ProcessOnText1016" fill="#000000" font-size="16" x="72.5" y="16.4" font-family="微软雅黑" font-weight="bold" font-style="normal" text-decoration="none" family="微软雅黑" text-anchor="middle" size="16">0</text></g></g><g id="ProcessOnG1017" transform="matrix(1.0,0.0,0.0,1.0,169.22222900390625,257.0833282470703)" opacity="1.0"><path id="ProcessOnPath1018" d="M0.0 0.0L167.0 0.0L167.0 49.0L0.0 49.0Z" stroke="#323232" stroke-width="2.0" stroke-dasharray="none" opacity="1.0" fill="#ffffff"/><g id="ProcessOnG1019" transform="matrix(1.0,0.0,0.0,1.0,10.0,14.5)"><text id="ProcessOnText1020" fill="#000000" font-size="16" x="72.5" y="16.4" font-family="微软雅黑" font-weight="bold" font-style="normal" text-decoration="none" family="微软雅黑" text-anchor="middle" size="16">1</text></g></g><g id="ProcessOnG1021" transform="matrix(1.0,0.0,0.0,1.0,169.22222900390625,306.0833282470703)" opacity="1.0"><path id="ProcessOnPath1022" d="M0.0 0.0L167.0 0.0L167.0 49.0L0.0 49.0Z" stroke="#323232" stroke-width="2.0" stroke-dasharray="none" opacity="1.0" fill="#ffffff"/><g id="ProcessOnG1023" transform="matrix(1.0,0.0,0.0,1.0,10.0,14.5)"><text id="ProcessOnText1024" fill="#000000" font-size="16" x="72.5" y="16.4" font-family="微软雅黑" font-weight="bold" font-style="normal" text-decoration="none" family="微软雅黑" text-anchor="middle" size="16">2</text></g></g><g id="ProcessOnG1025" transform="matrix(1.0,0.0,0.0,1.0,169.22222900390625,355.0833282470703)" opacity="1.0"><path id="ProcessOnPath1026" d="M0.0 0.0L167.0 0.0L167.0 49.0L0.0 49.0Z" stroke="#323232" stroke-width="2.0" stroke-dasharray="none" opacity="1.0" fill="#ffffff"/><g id="ProcessOnG1027" transform="matrix(1.0,0.0,0.0,1.0,10.0,14.5)"><text id="ProcessOnText1028" fill="#000000" font-size="16" x="72.5" y="16.4" font-family="微软雅黑" font-weight="bold" font-style="normal" text-decoration="none" family="微软雅黑" text-anchor="middle" size="16">3</text></g></g><g id="ProcessOnG1029" transform="matrix(1.0,0.0,0.0,1.0,169.22222900390625,404.0833282470703)" opacity="1.0"><path id="ProcessOnPath1030" d="M0.0 0.0L167.0 0.0L167.0 49.0L0.0 49.0Z" stroke="#323232" stroke-width="2.0" stroke-dasharray="none" opacity="1.0" fill="#ffffff"/><g id="ProcessOnG1031" transform="matrix(1.0,0.0,0.0,1.0,10.0,14.5)"><text id="ProcessOnText1032" fill="#000000" font-size="16" x="72.5" y="16.4" font-family="微软雅黑" font-weight="bold" font-style="normal" text-decoration="none" family="微软雅黑" text-anchor="middle" size="16">4</text></g></g><g id="ProcessOnG1033" transform="matrix(1.0,0.0,0.0,1.0,251.22222900390625,159.0833282470703)" opacity="1.0"><path id="ProcessOnPath1034" d="M0.0 0.0L85.0 0.0L85.0 49.0L0.0 49.0Z" stroke="#323232" stroke-width="2.0" stroke-dasharray="none" opacity="1.0" fill="#ffffff"/><g id="ProcessOnG1035" transform="matrix(1.0,0.0,0.0,1.0,10.0,14.5)"><text id="ProcessOnText1036" fill="#000000" font-size="16" x="31.5" y="16.4" font-family="微软雅黑" font-weight="bold" font-style="normal" text-decoration="none" family="微软雅黑" text-anchor="middle" size="16">*bucket</text></g></g><g id="ProcessOnG1037" transform="matrix(1.0,0.0,0.0,1.0,451.22222900390625,161.83332443237305)" opacity="1.0"><path id="ProcessOnPath1038" d="M0.0 0.0L81.0 0.0L81.0 43.50000762939453L0.0 43.50000762939453Z" stroke="#323232" stroke-width="2.0" stroke-dasharray="none" opacity="1.0" fill="#ffffff"/><g id="ProcessOnG1039" transform="matrix(1.0,0.0,0.0,1.0,10.0,11.750003814697266)"><text id="ProcessOnText1040" fill="#000000" font-size="16" x="29.5" y="16.4" font-family="微软雅黑" font-weight="bold" font-style="normal" text-decoration="none" family="微软雅黑" text-anchor="middle" size="16">0</text></g></g><g id="ProcessOnG1041" transform="matrix(1.0,0.0,0.0,1.0,529.2222290039062,161.83332443237305)" opacity="1.0"><path id="ProcessOnPath1042" d="M0.0 0.0L81.0 0.0L81.0 43.50000762939453L0.0 43.50000762939453Z" stroke="#323232" stroke-width="2.0" stroke-dasharray="none" opacity="1.0" fill="#ffffff"/></g><g id="ProcessOnG1043" transform="matrix(1.0,0.0,0.0,1.0,610.2222290039062,161.83332443237305)" opacity="1.0"><path id="ProcessOnPath1044" d="M0.0 0.0L81.0 0.0L81.0 43.50000762939453L0.0 43.50000762939453Z" stroke="#323232" stroke-width="2.0" stroke-dasharray="none" opacity="1.0" fill="#ffffff"/></g><g id="ProcessOnG1045" transform="matrix(1.0,0.0,0.0,1.0,691.2222290039062,161.83332443237305)" opacity="1.0"><path id="ProcessOnPath1046" d="M0.0 0.0L81.0 0.0L81.0 43.50000762939453L0.0 43.50000762939453Z" stroke="#323232" stroke-width="2.0" stroke-dasharray="none" opacity="1.0" fill="#ffffff"/></g><g id="ProcessOnG1047" transform="matrix(1.0,0.0,0.0,1.0,451.22222900390625,237.0833282470703)" opacity="1.0"><path id="ProcessOnPath1048" d="M0.0 0.0L81.0 0.0L81.0 43.50000762939453L0.0 43.50000762939453Z" stroke="#323232" stroke-width="2.0" stroke-dasharray="none" opacity="1.0" fill="#ffffff"/><g id="ProcessOnG1049" transform="matrix(1.0,0.0,0.0,1.0,10.0,11.750003814697266)"><text id="ProcessOnText1050" fill="#000000" font-size="16" x="29.5" y="16.4" font-family="微软雅黑" font-weight="bold" font-style="normal" text-decoration="none" family="微软雅黑" text-anchor="middle" size="16">6</text></g></g><g id="ProcessOnG1051" transform="matrix(1.0,0.0,0.0,1.0,529.2222290039062,237.0833282470703)" opacity="1.0"><path id="ProcessOnPath1052" d="M0.0 0.0L81.0 0.0L81.0 43.50000762939453L0.0 43.50000762939453Z" stroke="#323232" stroke-width="2.0" stroke-dasharray="none" opacity="1.0" fill="#ffffff"/><g id="ProcessOnG1053" transform="matrix(1.0,0.0,0.0,1.0,10.0,11.750003814697266)"><text id="ProcessOnText1054" fill="#000000" font-size="16" x="29.5" y="16.4" font-family="微软雅黑" font-weight="bold" font-style="normal" text-decoration="none" family="微软雅黑" text-anchor="middle" size="16">1</text></g></g><g id="ProcessOnG1055" transform="matrix(1.0,0.0,0.0,1.0,610.2222290039062,237.0833282470703)" opacity="1.0"><path id="ProcessOnPath1056" d="M0.0 0.0L81.0 0.0L81.0 43.50000762939453L0.0 43.50000762939453Z" stroke="#323232" stroke-width="2.0" stroke-dasharray="none" opacity="1.0" fill="#ffffff"/></g><g id="ProcessOnG1057" transform="matrix(1.0,0.0,0.0,1.0,691.2222290039062,237.0833282470703)" opacity="1.0"><path id="ProcessOnPath1058" d="M0.0 0.0L81.0 0.0L81.0 43.50000762939453L0.0 43.50000762939453Z" stroke="#323232" stroke-width="2.0" stroke-dasharray="none" opacity="1.0" fill="#ffffff"/></g><g id="ProcessOnG1059" transform="matrix(1.0,0.0,0.0,1.0,451.22222900390625,308.83332443237305)" opacity="1.0"><path id="ProcessOnPath1060" d="M0.0 0.0L81.0 0.0L81.0 43.50000762939453L0.0 43.50000762939453Z" stroke="#323232" stroke-width="2.0" stroke-dasharray="none" opacity="1.0" fill="#ffffff"/><g id="ProcessOnG1061" transform="matrix(1.0,0.0,0.0,1.0,10.0,11.750003814697266)"><text id="ProcessOnText1062" fill="#000000" font-size="16" x="29.5" y="16.4" font-family="微软雅黑" font-weight="bold" font-style="normal" text-decoration="none" family="微软雅黑" text-anchor="middle" size="16">2</text></g></g><g id="ProcessOnG1063" transform="matrix(1.0,0.0,0.0,1.0,529.2222290039062,308.83332443237305)" opacity="1.0"><path id="ProcessOnPath1064" d="M0.0 0.0L81.0 0.0L81.0 43.50000762939453L0.0 43.50000762939453Z" stroke="#323232" stroke-width="2.0" stroke-dasharray="none" opacity="1.0" fill="#ffffff"/><g id="ProcessOnG1065" transform="matrix(1.0,0.0,0.0,1.0,10.0,11.750003814697266)"><text id="ProcessOnText1066" fill="#000000" font-size="16" x="29.5" y="16.4" font-family="微软雅黑" font-weight="bold" font-style="normal" text-decoration="none" family="微软雅黑" text-anchor="middle" size="16">7</text></g></g><g id="ProcessOnG1067" transform="matrix(1.0,0.0,0.0,1.0,610.2222290039062,308.83332443237305)" opacity="1.0"><path id="ProcessOnPath1068" d="M0.0 0.0L81.0 0.0L81.0 43.50000762939453L0.0 43.50000762939453Z" stroke="#323232" stroke-width="2.0" stroke-dasharray="none" opacity="1.0" fill="#ffffff"/></g><g id="ProcessOnG1069" transform="matrix(1.0,0.0,0.0,1.0,691.2222290039062,308.83332443237305)" opacity="1.0"><path id="ProcessOnPath1070" d="M0.0 0.0L81.0 0.0L81.0 43.50000762939453L0.0 43.50000762939453Z" stroke="#323232" stroke-width="2.0" stroke-dasharray="none" opacity="1.0" fill="#ffffff"/></g><g id="ProcessOnG1071" transform="matrix(1.0,0.0,0.0,1.0,451.22222900390625,383.0833282470703)" opacity="1.0"><path id="ProcessOnPath1072" d="M0.0 0.0L81.0 0.0L81.0 43.50000762939453L0.0 43.50000762939453Z" stroke="#323232" stroke-width="2.0" stroke-dasharray="none" opacity="1.0" fill="#ffffff"/><g id="ProcessOnG1073" transform="matrix(1.0,0.0,0.0,1.0,10.0,11.750003814697266)"><text id="ProcessOnText1074" fill="#000000" font-size="16" x="29.5" y="16.4" font-family="微软雅黑" font-weight="bold" font-style="normal" text-decoration="none" family="微软雅黑" text-anchor="middle" size="16">8</text></g></g><g id="ProcessOnG1075" transform="matrix(1.0,0.0,0.0,1.0,529.2222290039062,383.0833282470703)" opacity="1.0"><path id="ProcessOnPath1076" d="M0.0 0.0L81.0 0.0L81.0 43.50000762939453L0.0 43.50000762939453Z" stroke="#323232" stroke-width="2.0" stroke-dasharray="none" opacity="1.0" fill="#ffffff"/><g id="ProcessOnG1077" transform="matrix(1.0,0.0,0.0,1.0,10.0,11.750003814697266)"><text id="ProcessOnText1078" fill="#000000" font-size="16" x="29.5" y="16.4" font-family="微软雅黑" font-weight="bold" font-style="normal" text-decoration="none" family="微软雅黑" text-anchor="middle" size="16">13</text></g></g><g id="ProcessOnG1079" transform="matrix(1.0,0.0,0.0,1.0,610.2222290039062,383.0833282470703)" opacity="1.0"><path id="ProcessOnPath1080" d="M0.0 0.0L81.0 0.0L81.0 43.50000762939453L0.0 43.50000762939453Z" stroke="#323232" stroke-width="2.0" stroke-dasharray="none" opacity="1.0" fill="#ffffff"/><g id="ProcessOnG1081" transform="matrix(1.0,0.0,0.0,1.0,10.0,11.750003814697266)"><text id="ProcessOnText1082" fill="#000000" font-size="16" x="29.5" y="16.4" font-family="微软雅黑" font-weight="bold" font-style="normal" text-decoration="none" family="微软雅黑" text-anchor="middle" size="16">18</text></g></g><g id="ProcessOnG1083" transform="matrix(1.0,0.0,0.0,1.0,691.2222290039062,383.0833282470703)" opacity="1.0"><path id="ProcessOnPath1084" d="M0.0 0.0L81.0 0.0L81.0 43.50000762939453L0.0 43.50000762939453Z" stroke="#323232" stroke-width="2.0" stroke-dasharray="none" opacity="1.0" fill="#ffffff"/><g id="ProcessOnG1085" transform="matrix(1.0,0.0,0.0,1.0,10.0,11.750003814697266)"><text id="ProcessOnText1086" fill="#000000" font-size="16" x="29.5" y="16.4" font-family="微软雅黑" font-weight="bold" font-style="normal" text-decoration="none" family="微软雅黑" text-anchor="middle" size="16">23</text></g></g><g id="ProcessOnG1087" transform="matrix(1.0,0.0,0.0,1.0,451.22222900390625,467.0833282470703)" opacity="1.0"><path id="ProcessOnPath1088" d="M0.0 0.0L81.0 0.0L81.0 43.50000762939453L0.0 43.50000762939453Z" stroke="#323232" stroke-width="2.0" stroke-dasharray="none" opacity="1.0" fill="#ffffff"/><g id="ProcessOnG1089" transform="matrix(1.0,0.0,0.0,1.0,10.0,11.750003814697266)"><text id="ProcessOnText1090" fill="#000000" font-size="16" x="29.5" y="16.4" font-family="微软雅黑" font-weight="bold" font-style="normal" text-decoration="none" family="微软雅黑" text-anchor="middle" size="16">9</text></g></g><g id="ProcessOnG1091" transform="matrix(1.0,0.0,0.0,1.0,529.2222290039062,467.0833282470703)" opacity="1.0"><path id="ProcessOnPath1092" d="M0.0 0.0L81.0 0.0L81.0 43.50000762939453L0.0 43.50000762939453Z" stroke="#323232" stroke-width="2.0" stroke-dasharray="none" opacity="1.0" fill="#ffffff"/><g id="ProcessOnG1093" transform="matrix(1.0,0.0,0.0,1.0,10.0,11.750003814697266)"><text id="ProcessOnText1094" fill="#000000" font-size="16" x="29.5" y="16.4" font-family="微软雅黑" font-weight="bold" font-style="normal" text-decoration="none" family="微软雅黑" text-anchor="middle" size="16">4</text></g></g><g id="ProcessOnG1095" transform="matrix(1.0,0.0,0.0,1.0,610.2222290039062,467.0833282470703)" opacity="1.0"><path id="ProcessOnPath1096" d="M0.0 0.0L81.0 0.0L81.0 43.50000762939453L0.0 43.50000762939453Z" stroke="#323232" stroke-width="2.0" stroke-dasharray="none" opacity="1.0" fill="#ffffff"/></g><g id="ProcessOnG1097" transform="matrix(1.0,0.0,0.0,1.0,691.2222290039062,467.0833282470703)" opacity="1.0"><path id="ProcessOnPath1098" d="M0.0 0.0L81.0 0.0L81.0 43.50000762939453L0.0 43.50000762939453Z" stroke="#323232" stroke-width="2.0" stroke-dasharray="none" opacity="1.0" fill="#ffffff"/></g><g id="ProcessOnG1099"><path id="ProcessOnPath1100" d="M336.22222900390625 232.5833282470703L451.22222900390625 183.5833282470703" stroke="#323232" stroke-width="2.0" stroke-dasharray="10.0 4.0" fill="none" marker-end="url(#ProcessOnMarker1101)"/></g><g id="ProcessOnG1103"><path id="ProcessOnPath1104" d="M336.22222900390625 281.5833282470703L451.22222900390625 258.8333320617676" stroke="#323232" stroke-width="2.0" stroke-dasharray="10.0 4.0" fill="none" marker-end="url(#ProcessOnMarker1105)"/></g><g id="ProcessOnG1107"><path id="ProcessOnPath1108" d="M336.22222900390625 330.5833282470703L451.22222900390625 330.5833282470703" stroke="#323232" stroke-width="2.0" stroke-dasharray="10.0 4.0" fill="none" marker-end="url(#ProcessOnMarker1109)"/></g><g id="ProcessOnG1111"><path id="ProcessOnPath1112" d="M336.22222900390625 379.5833282470703L451.22222900390625 404.8333320617676" stroke="#323232" stroke-width="2.0" stroke-dasharray="10.0 4.0" fill="none" marker-end="url(#ProcessOnMarker1113)"/></g><g id="ProcessOnG1115"><path id="ProcessOnPath1116" d="M336.22222900390625 428.5833282470703L451.22222900390625 488.8333320617676" stroke="#323232" stroke-width="2.0" stroke-dasharray="10.0 4.0" fill="none" marker-end="url(#ProcessOnMarker1117)"/></g><g id="ProcessOnG1119" transform="matrix(1.0,0.0,0.0,1.0,772.2222290039062,163.5833282470703)" opacity="1.0"><path id="ProcessOnPath1120" d="M0.0 0.0L86.0 0.0L86.0 40.0L0.0 40.0Z" stroke="none" stroke-width="0.0" stroke-dasharray="none" opacity="1.0" fill="none"/><g id="ProcessOnG1121" transform="matrix(1.0,0.0,0.0,1.0,0.0,10.0)"><text id="ProcessOnText1122" fill="#000000" font-size="16" x="42.0" y="16.4" font-family="微软雅黑" font-weight="bold" font-style="normal" text-decoration="none" family="微软雅黑" text-anchor="middle" size="16">Bucket 1</text></g></g><g id="ProcessOnG1123" transform="matrix(1.0,0.0,0.0,1.0,772.2222290039062,238.83333206176758)" opacity="1.0"><path id="ProcessOnPath1124" d="M0.0 0.0L86.0 0.0L86.0 40.0L0.0 40.0Z" stroke="none" stroke-width="0.0" stroke-dasharray="none" opacity="1.0" fill="none"/><g id="ProcessOnG1125" transform="matrix(1.0,0.0,0.0,1.0,0.0,10.0)"><text id="ProcessOnText1126" fill="#000000" font-size="16" x="42.0" y="16.4" font-family="微软雅黑" font-weight="bold" font-style="normal" text-decoration="none" family="微软雅黑" text-anchor="middle" size="16">Bucket 2</text></g></g><g id="ProcessOnG1127" transform="matrix(1.0,0.0,0.0,1.0,772.2222290039062,310.5833282470703)" opacity="1.0"><path id="ProcessOnPath1128" d="M0.0 0.0L86.0 0.0L86.0 40.0L0.0 40.0Z" stroke="none" stroke-width="0.0" stroke-dasharray="none" opacity="1.0" fill="none"/><g id="ProcessOnG1129" transform="matrix(1.0,0.0,0.0,1.0,0.0,10.0)"><text id="ProcessOnText1130" fill="#000000" font-size="16" x="42.0" y="16.4" font-family="微软雅黑" font-weight="bold" font-style="normal" text-decoration="none" family="微软雅黑" text-anchor="middle" size="16">Bucket 3</text></g></g><g id="ProcessOnG1131" transform="matrix(1.0,0.0,0.0,1.0,772.2222290039062,384.8333320617676)" opacity="1.0"><path id="ProcessOnPath1132" d="M0.0 0.0L86.0 0.0L86.0 40.0L0.0 40.0Z" stroke="none" stroke-width="0.0" stroke-dasharray="none" opacity="1.0" fill="none"/><g id="ProcessOnG1133" transform="matrix(1.0,0.0,0.0,1.0,0.0,10.0)"><text id="ProcessOnText1134" fill="#000000" font-size="16" x="42.0" y="16.4" font-family="微软雅黑" font-weight="bold" font-style="normal" text-decoration="none" family="微软雅黑" text-anchor="middle" size="16">Bucket 4</text></g></g><g id="ProcessOnG1135" transform="matrix(1.0,0.0,0.0,1.0,772.2222290039062,468.8333320617676)" opacity="1.0"><path id="ProcessOnPath1136" d="M0.0 0.0L86.0 0.0L86.0 40.0L0.0 40.0Z" stroke="none" stroke-width="0.0" stroke-dasharray="none" opacity="1.0" fill="none"/><g id="ProcessOnG1137" transform="matrix(1.0,0.0,0.0,1.0,0.0,10.0)"><text id="ProcessOnText1138" fill="#000000" font-size="16" x="42.0" y="16.4" font-family="微软雅黑" font-weight="bold" font-style="normal" text-decoration="none" family="微软雅黑" text-anchor="middle" size="16">Bucket 5</text></g></g><g id="ProcessOnG1139"><path id="ProcessOnPath1140" d="M256.0495285666822 114.15017152566872L211.88888549804688 91.41666412353516" stroke="#323232" stroke-width="2.0" stroke-dasharray="none" fill="none" marker-start="url(#ProcessOnMarker1141)"/></g><g id="ProcessOnG1143" transform="matrix(1.0,0.0,0.0,1.0,91.22222900390625,58.416664123535156)" opacity="1.0"><path id="ProcessOnPath1144" d="M0.0 0.0L160.0 0.0L160.0 40.0L0.0 40.0Z" stroke="none" stroke-width="0.0" stroke-dasharray="none" opacity="1.0" fill="none"/><g id="ProcessOnG1145" transform="matrix(1.0,0.0,0.0,1.0,0.0,10.0)"><text id="ProcessOnText1146" fill="#000000" font-size="16" x="79.0" y="16.4" font-family="微软雅黑" font-weight="bold" font-style="normal" text-decoration="none" family="微软雅黑" text-anchor="middle" size="16">Hash 表个数</text></g></g></g></g></svg>