<svg xmlns="http://www.w3.org/2000/svg" xmlns:xlink="http://www.w3.org/1999/xlink" id="processonSvg1000" viewBox="36.388938903808594 109.19449615478516 1345.7777862548828 492.1666717529297" width="1345.7777862548828" height="492.1666717529297"><defs id="ProcessOnDefs1001"><marker id="ProcessOnMarker1103" markerUnits="userSpaceOnUse" orient="auto" markerWidth="14.289086868996552" markerHeight="19.055054660878554" viewBox="-0.5877852522924731 -0.8090169943749475 14.289086868996552 19.055054660878554" refX="12.0" refY="8.71851033606433"><path id="ProcessOnPath1104" d="M0 0L12.0 8.71851033606433L0 17.43702067212866" stroke="#323232" stroke-width="2.0" fill="none" transform="matrix(1.0,0.0,0.0,1.0,0.0,0.0)"/></marker><marker id="ProcessOnMarker1107" markerUnits="userSpaceOnUse" orient="auto" markerWidth="14.289086868996552" markerHeight="19.055054660878554" viewBox="-0.5877852522924731 -0.8090169943749475 14.289086868996552 19.055054660878554" refX="12.0" refY="8.71851033606433"><path id="ProcessOnPath1108" d="M0 0L12.0 8.71851033606433L0 17.43702067212866" stroke="#323232" stroke-width="2.0" fill="none" transform="matrix(1.0,0.0,0.0,1.0,0.0,0.0)"/></marker><marker id="ProcessOnMarker1111" markerUnits="userSpaceOnUse" orient="auto" markerWidth="14.289086868996552" markerHeight="19.055054660878554" viewBox="-0.5877852522924731 -0.8090169943749475 14.289086868996552 19.055054660878554" refX="12.0" refY="8.71851033606433"><path id="ProcessOnPath1112" d="M0 0L12.0 8.71851033606433L0 17.43702067212866" stroke="#323232" stroke-width="2.0" fill="none" transform="matrix(1.0,0.0,0.0,1.0,0.0,0.0)"/></marker><marker id="ProcessOnMarker1115" markerUnits="userSpaceOnUse" orient="auto" markerWidth="14.289086868996552" markerHeight="19.055054660878554" viewBox="-0.5877852522924731 -0.8090169943749475 14.289086868996552 19.055054660878554" refX="12.0" refY="8.71851033606433"><path id="ProcessOnPath1116" d="M0 0L12.0 8.71851033606433L0 17.43702067212866" stroke="#323232" stroke-width="2.0" fill="none" transform="matrix(1.0,0.0,0.0,1.0,0.0,0.0)"/></marker><marker id="ProcessOnMarker1119" markerUnits="userSpaceOnUse" orient="auto" markerWidth="14.289086868996552" markerHeight="19.055054660878554" viewBox="-0.5877852522924731 -0.8090169943749475 14.289086868996552 19.055054660878554" refX="12.0" refY="8.71851033606433"><path id="ProcessOnPath1120" d="M0 0L12.0 8.71851033606433L0 17.43702067212866" stroke="#323232" stroke-width="2.0" fill="none" transform="matrix(1.0,0.0,0.0,1.0,0.0,0.0)"/></marker><marker id="ProcessOnMarker1143" markerUnits="userSpaceOnUse" orient="auto" markerWidth="16.23606797749979" markerHeight="10.550836550532098" viewBox="-1.0 -1.3763819204711736 16.23606797749979 10.550836550532098" refX="15.23606797749979" refY="3.8990363547948754"><path id="ProcessOnPath1144" d="M12.0 3.8990363547948754L0.0 7.798072709589751V0.0Z" stroke="#323232" stroke-width="2.0" fill="#323232" transform="matrix(-1.0,1.2246467991473532E-16,-1.2246467991473532E-16,-1.0,14.23606797749979,7.798072709589751)"/></marker><marker id="ProcessOnMarker1221" markerUnits="userSpaceOnUse" orient="auto" markerWidth="14.289086868996552" markerHeight="19.055054660878554" viewBox="-0.5877852522924731 -0.8090169943749475 14.289086868996552 19.055054660878554" refX="12.0" refY="8.71851033606433"><path id="ProcessOnPath1222" d="M0 0L12.0 8.71851033606433L0 17.43702067212866" stroke="#323232" stroke-width="2.0" fill="none" transform="matrix(1.0,0.0,0.0,1.0,0.0,0.0)"/></marker><marker id="ProcessOnMarker1225" markerUnits="userSpaceOnUse" orient="auto" markerWidth="14.289086868996552" markerHeight="19.055054660878554" viewBox="-0.5877852522924731 -0.8090169943749475 14.289086868996552 19.055054660878554" refX="12.0" refY="8.71851033606433"><path id="ProcessOnPath1226" d="M0 0L12.0 8.71851033606433L0 17.43702067212866" stroke="#323232" stroke-width="2.0" fill="none" transform="matrix(1.0,0.0,0.0,1.0,0.0,0.0)"/></marker><marker id="ProcessOnMarker1229" markerUnits="userSpaceOnUse" orient="auto" markerWidth="14.289086868996552" markerHeight="19.055054660878554" viewBox="-0.5877852522924731 -0.8090169943749475 14.289086868996552 19.055054660878554" refX="12.0" refY="8.71851033606433"><path id="ProcessOnPath1230" d="M0 0L12.0 8.71851033606433L0 17.43702067212866" stroke="#323232" stroke-width="2.0" fill="none" transform="matrix(1.0,0.0,0.0,1.0,0.0,0.0)"/></marker><marker id="ProcessOnMarker1233" markerUnits="userSpaceOnUse" orient="auto" markerWidth="14.289086868996552" markerHeight="19.055054660878554" viewBox="-0.5877852522924731 -0.8090169943749475 14.289086868996552 19.055054660878554" refX="12.0" refY="8.71851033606433"><path id="ProcessOnPath1234" d="M0 0L12.0 8.71851033606433L0 17.43702067212866" stroke="#323232" stroke-width="2.0" fill="none" transform="matrix(1.0,0.0,0.0,1.0,0.0,0.0)"/></marker><marker id="ProcessOnMarker1237" markerUnits="userSpaceOnUse" orient="auto" markerWidth="14.289086868996552" markerHeight="19.055054660878554" viewBox="-0.5877852522924731 -0.8090169943749475 14.289086868996552 19.055054660878554" refX="12.0" refY="8.71851033606433"><path id="ProcessOnPath1238" d="M0 0L12.0 8.71851033606433L0 17.43702067212866" stroke="#323232" stroke-width="2.0" fill="none" transform="matrix(1.0,0.0,0.0,1.0,0.0,0.0)"/></marker></defs><g id="ProcessOnG1002"><path id="ProcessOnPath1003" d="M36.388938903808594 109.19449615478516H1382.1667251586914V601.3611679077148H36.388938903808594V109.19449615478516Z" fill="none"/><g id="ProcessOnG1004"><g id="ProcessOnG1005" transform="matrix(1.0,0.0,0.0,1.0,673.1667251586914,229.8611602783203)" opacity="1.0"><path id="ProcessOnPath1006" d="M0.0 0.0L82.0 0.0L82.0 49.0L0.0 49.0Z" stroke="#323232" stroke-width="2.0" stroke-dasharray="none" opacity="1.0" fill="#ffffff"/><g id="ProcessOnG1007" transform="matrix(1.0,0.0,0.0,1.0,10.0,14.5)"><text id="ProcessOnText1008" fill="#000000" font-size="16" x="30.0" y="16.4" font-family="微软雅黑" font-weight="bold" font-style="normal" text-decoration="none" family="微软雅黑" text-anchor="middle" size="16">index</text></g></g><g id="ProcessOnG1009" transform="matrix(1.0,0.0,0.0,1.0,773.1667251586914,191.8611602783203)" opacity="1.0"><path id="ProcessOnPath1010" d="M0.0 0.0L67.0 0.0L67.0 38.0L0.0 38.0Z" stroke="#323232" stroke-width="2.0" stroke-dasharray="none" opacity="1.0" fill="#ffffff"/><g id="ProcessOnG1011" transform="matrix(1.0,0.0,0.0,1.0,10.0,9.0)"><text id="ProcessOnText1012" fill="#000000" font-size="16" x="22.5" y="16.4" font-family="微软雅黑" font-weight="bold" font-style="normal" text-decoration="none" family="微软雅黑" text-anchor="middle" size="16">2</text></g></g><g id="ProcessOnG1013" transform="matrix(1.0,0.0,0.0,1.0,673.1667251586914,278.8611602783203)" opacity="1.0"><path id="ProcessOnPath1014" d="M0.0 0.0L167.0 0.0L167.0 49.0L0.0 49.0Z" stroke="#323232" stroke-width="2.0" stroke-dasharray="none" opacity="1.0" fill="#ffffff"/><g id="ProcessOnG1015" transform="matrix(1.0,0.0,0.0,1.0,10.0,14.5)"><text id="ProcessOnText1016" fill="#000000" font-size="16" x="72.5" y="16.4" font-family="微软雅黑" font-weight="bold" font-style="normal" text-decoration="none" family="微软雅黑" text-anchor="middle" size="16">0</text></g></g><g id="ProcessOnG1017" transform="matrix(1.0,0.0,0.0,1.0,673.1667251586914,327.8611602783203)" opacity="1.0"><path id="ProcessOnPath1018" d="M0.0 0.0L167.0 0.0L167.0 49.0L0.0 49.0Z" stroke="#323232" stroke-width="2.0" stroke-dasharray="none" opacity="1.0" fill="#ffffff"/><g id="ProcessOnG1019" transform="matrix(1.0,0.0,0.0,1.0,10.0,14.5)"><text id="ProcessOnText1020" fill="#000000" font-size="16" x="72.5" y="16.4" font-family="微软雅黑" font-weight="bold" font-style="normal" text-decoration="none" family="微软雅黑" text-anchor="middle" size="16">1</text></g></g><g id="ProcessOnG1021" transform="matrix(1.0,0.0,0.0,1.0,673.1667251586914,376.8611602783203)" opacity="1.0"><path id="ProcessOnPath1022" d="M0.0 0.0L167.0 0.0L167.0 49.0L0.0 49.0Z" stroke="#323232" stroke-width="2.0" stroke-dasharray="none" opacity="1.0" fill="#ffffff"/><g id="ProcessOnG1023" transform="matrix(1.0,0.0,0.0,1.0,10.0,14.5)"><text id="ProcessOnText1024" fill="#000000" font-size="16" x="72.5" y="16.4" font-family="微软雅黑" font-weight="bold" font-style="normal" text-decoration="none" family="微软雅黑" text-anchor="middle" size="16">2</text></g></g><g id="ProcessOnG1025" transform="matrix(1.0,0.0,0.0,1.0,673.1667251586914,425.8611602783203)" opacity="1.0"><path id="ProcessOnPath1026" d="M0.0 0.0L167.0 0.0L167.0 49.0L0.0 49.0Z" stroke="#323232" stroke-width="2.0" stroke-dasharray="none" opacity="1.0" fill="#ffffff"/><g id="ProcessOnG1027" transform="matrix(1.0,0.0,0.0,1.0,10.0,14.5)"><text id="ProcessOnText1028" fill="#000000" font-size="16" x="72.5" y="16.4" font-family="微软雅黑" font-weight="bold" font-style="normal" text-decoration="none" family="微软雅黑" text-anchor="middle" size="16">3</text></g></g><g id="ProcessOnG1029" transform="matrix(1.0,0.0,0.0,1.0,673.1667251586914,474.8611602783203)" opacity="1.0"><path id="ProcessOnPath1030" d="M0.0 0.0L167.0 0.0L167.0 49.0L0.0 49.0Z" stroke="#323232" stroke-width="2.0" stroke-dasharray="none" opacity="1.0" fill="#ffffff"/><g id="ProcessOnG1031" transform="matrix(1.0,0.0,0.0,1.0,10.0,14.5)"><text id="ProcessOnText1032" fill="#000000" font-size="16" x="72.5" y="16.4" font-family="微软雅黑" font-weight="bold" font-style="normal" text-decoration="none" family="微软雅黑" text-anchor="middle" size="16">4</text></g></g><g id="ProcessOnG1033" transform="matrix(1.0,0.0,0.0,1.0,755.1667251586914,229.8611602783203)" opacity="1.0"><path id="ProcessOnPath1034" d="M0.0 0.0L85.0 0.0L85.0 49.0L0.0 49.0Z" stroke="#323232" stroke-width="2.0" stroke-dasharray="none" opacity="1.0" fill="#ffffff"/><g id="ProcessOnG1035" transform="matrix(1.0,0.0,0.0,1.0,10.0,14.5)"><text id="ProcessOnText1036" fill="#000000" font-size="16" x="31.5" y="16.4" font-family="微软雅黑" font-weight="bold" font-style="normal" text-decoration="none" family="微软雅黑" text-anchor="middle" size="16">*bucket</text></g></g><g id="ProcessOnG1037" transform="matrix(1.0,0.0,0.0,1.0,955.1667251586914,232.61115646362305)" opacity="1.0"><path id="ProcessOnPath1038" d="M0.0 0.0L81.0 0.0L81.0 43.50000762939453L0.0 43.50000762939453Z" stroke="#323232" stroke-width="2.0" stroke-dasharray="none" opacity="1.0" fill="#ffffff"/><g id="ProcessOnG1039" transform="matrix(1.0,0.0,0.0,1.0,10.0,11.750003814697266)"><text id="ProcessOnText1040" fill="#000000" font-size="16" x="29.5" y="16.4" font-family="微软雅黑" font-weight="bold" font-style="normal" text-decoration="none" family="微软雅黑" text-anchor="middle" size="16">0</text></g></g><g id="ProcessOnG1041" transform="matrix(1.0,0.0,0.0,1.0,1033.1667251586914,232.61115646362305)" opacity="1.0"><path id="ProcessOnPath1042" d="M0.0 0.0L81.0 0.0L81.0 43.50000762939453L0.0 43.50000762939453Z" stroke="#323232" stroke-width="2.0" stroke-dasharray="none" opacity="1.0" fill="#ffffff"/><g id="ProcessOnG1043" transform="matrix(1.0,0.0,0.0,1.0,10.0,11.750003814697266)"><text id="ProcessOnText1044" fill="#ff8000" font-size="16" x="29.5" y="16.4" font-family="微软雅黑" font-weight="bold" font-style="normal" text-decoration="none" family="微软雅黑" text-anchor="middle" size="16">5</text></g></g><g id="ProcessOnG1045" transform="matrix(1.0,0.0,0.0,1.0,1114.1667251586914,232.61115646362305)" opacity="1.0"><path id="ProcessOnPath1046" d="M0.0 0.0L81.0 0.0L81.0 43.50000762939453L0.0 43.50000762939453Z" stroke="#323232" stroke-width="2.0" stroke-dasharray="none" opacity="1.0" fill="#ffffff"/></g><g id="ProcessOnG1047" transform="matrix(1.0,0.0,0.0,1.0,1195.1667251586914,232.61115646362305)" opacity="1.0"><path id="ProcessOnPath1048" d="M0.0 0.0L81.0 0.0L81.0 43.50000762939453L0.0 43.50000762939453Z" stroke="#323232" stroke-width="2.0" stroke-dasharray="none" opacity="1.0" fill="#ffffff"/></g><g id="ProcessOnG1049" transform="matrix(1.0,0.0,0.0,1.0,955.1667251586914,307.8611602783203)" opacity="1.0"><path id="ProcessOnPath1050" d="M0.0 0.0L81.0 0.0L81.0 43.50000762939453L0.0 43.50000762939453Z" stroke="#323232" stroke-width="2.0" stroke-dasharray="none" opacity="1.0" fill="#ffffff"/><g id="ProcessOnG1051" transform="matrix(1.0,0.0,0.0,1.0,10.0,11.750003814697266)"><text id="ProcessOnText1052" fill="#000000" font-size="16" x="29.5" y="16.4" font-family="微软雅黑" font-weight="bold" font-style="normal" text-decoration="none" family="微软雅黑" text-anchor="middle" size="16">6</text></g></g><g id="ProcessOnG1053" transform="matrix(1.0,0.0,0.0,1.0,1033.1667251586914,307.8611602783203)" opacity="1.0"><path id="ProcessOnPath1054" d="M0.0 0.0L81.0 0.0L81.0 43.50000762939453L0.0 43.50000762939453Z" stroke="#323232" stroke-width="2.0" stroke-dasharray="none" opacity="1.0" fill="#ffffff"/><g id="ProcessOnG1055" transform="matrix(1.0,0.0,0.0,1.0,10.0,11.750003814697266)"><text id="ProcessOnText1056" fill="#000000" font-size="16" x="29.5" y="16.4" font-family="微软雅黑" font-weight="bold" font-style="normal" text-decoration="none" family="微软雅黑" text-anchor="middle" size="16">1</text></g></g><g id="ProcessOnG1057" transform="matrix(1.0,0.0,0.0,1.0,1114.1667251586914,307.8611602783203)" opacity="1.0"><path id="ProcessOnPath1058" d="M0.0 0.0L81.0 0.0L81.0 43.50000762939453L0.0 43.50000762939453Z" stroke="#323232" stroke-width="2.0" stroke-dasharray="none" opacity="1.0" fill="#ffffff"/></g><g id="ProcessOnG1059" transform="matrix(1.0,0.0,0.0,1.0,1195.1667251586914,307.8611602783203)" opacity="1.0"><path id="ProcessOnPath1060" d="M0.0 0.0L81.0 0.0L81.0 43.50000762939453L0.0 43.50000762939453Z" stroke="#323232" stroke-width="2.0" stroke-dasharray="none" opacity="1.0" fill="#ffffff"/></g><g id="ProcessOnG1061" transform="matrix(1.0,0.0,0.0,1.0,955.1667251586914,379.61115646362305)" opacity="1.0"><path id="ProcessOnPath1062" d="M0.0 0.0L81.0 0.0L81.0 43.50000762939453L0.0 43.50000762939453Z" stroke="#323232" stroke-width="2.0" stroke-dasharray="none" opacity="1.0" fill="#ffffff"/><g id="ProcessOnG1063" transform="matrix(1.0,0.0,0.0,1.0,10.0,11.750003814697266)"><text id="ProcessOnText1064" fill="#000000" font-size="16" x="29.5" y="16.4" font-family="微软雅黑" font-weight="bold" font-style="normal" text-decoration="none" family="微软雅黑" text-anchor="middle" size="16">2</text></g></g><g id="ProcessOnG1065" transform="matrix(1.0,0.0,0.0,1.0,1033.1667251586914,379.61115646362305)" opacity="1.0"><path id="ProcessOnPath1066" d="M0.0 0.0L81.0 0.0L81.0 43.50000762939453L0.0 43.50000762939453Z" stroke="#323232" stroke-width="2.0" stroke-dasharray="none" opacity="1.0" fill="#ffffff"/><g id="ProcessOnG1067" transform="matrix(1.0,0.0,0.0,1.0,10.0,11.750003814697266)"><text id="ProcessOnText1068" fill="#000000" font-size="16" x="29.5" y="16.4" font-family="微软雅黑" font-weight="bold" font-style="normal" text-decoration="none" family="微软雅黑" text-anchor="middle" size="16">7</text></g></g><g id="ProcessOnG1069" transform="matrix(1.0,0.0,0.0,1.0,1114.1667251586914,379.61115646362305)" opacity="1.0"><path id="ProcessOnPath1070" d="M0.0 0.0L81.0 0.0L81.0 43.50000762939453L0.0 43.50000762939453Z" stroke="#323232" stroke-width="2.0" stroke-dasharray="none" opacity="1.0" fill="#ffffff"/></g><g id="ProcessOnG1071" transform="matrix(1.0,0.0,0.0,1.0,1195.1667251586914,379.61115646362305)" opacity="1.0"><path id="ProcessOnPath1072" d="M0.0 0.0L81.0 0.0L81.0 43.50000762939453L0.0 43.50000762939453Z" stroke="#323232" stroke-width="2.0" stroke-dasharray="none" opacity="1.0" fill="#ffffff"/></g><g id="ProcessOnG1073" transform="matrix(1.0,0.0,0.0,1.0,955.1667251586914,453.8611602783203)" opacity="1.0"><path id="ProcessOnPath1074" d="M0.0 0.0L81.0 0.0L81.0 43.50000762939453L0.0 43.50000762939453Z" stroke="#323232" stroke-width="2.0" stroke-dasharray="none" opacity="1.0" fill="#ffffff"/><g id="ProcessOnG1075" transform="matrix(1.0,0.0,0.0,1.0,10.0,11.750003814697266)"><text id="ProcessOnText1076" fill="#000000" font-size="16" x="29.5" y="16.4" font-family="微软雅黑" font-weight="bold" font-style="normal" text-decoration="none" family="微软雅黑" text-anchor="middle" size="16">8</text></g></g><g id="ProcessOnG1077" transform="matrix(1.0,0.0,0.0,1.0,1033.1667251586914,453.8611602783203)" opacity="1.0"><path id="ProcessOnPath1078" d="M0.0 0.0L81.0 0.0L81.0 43.50000762939453L0.0 43.50000762939453Z" stroke="#323232" stroke-width="2.0" stroke-dasharray="none" opacity="1.0" fill="#ffffff"/><g id="ProcessOnG1079" transform="matrix(1.0,0.0,0.0,1.0,10.0,11.750003814697266)"><text id="ProcessOnText1080" fill="#000000" font-size="16" x="29.5" y="16.4" font-family="微软雅黑" font-weight="bold" font-style="normal" text-decoration="none" family="微软雅黑" text-anchor="middle" size="16">13</text></g></g><g id="ProcessOnG1081" transform="matrix(1.0,0.0,0.0,1.0,1114.1667251586914,453.8611602783203)" opacity="1.0"><path id="ProcessOnPath1082" d="M0.0 0.0L81.0 0.0L81.0 43.50000762939453L0.0 43.50000762939453Z" stroke="#323232" stroke-width="2.0" stroke-dasharray="none" opacity="1.0" fill="#ffffff"/><g id="ProcessOnG1083" transform="matrix(1.0,0.0,0.0,1.0,10.0,11.750003814697266)"><text id="ProcessOnText1084" fill="#000000" font-size="16" x="29.5" y="16.4" font-family="微软雅黑" font-weight="bold" font-style="normal" text-decoration="none" family="微软雅黑" text-anchor="middle" size="16">18</text></g></g><g id="ProcessOnG1085" transform="matrix(1.0,0.0,0.0,1.0,1195.1667251586914,453.8611602783203)" opacity="1.0"><path id="ProcessOnPath1086" d="M0.0 0.0L81.0 0.0L81.0 43.50000762939453L0.0 43.50000762939453Z" stroke="#323232" stroke-width="2.0" stroke-dasharray="none" opacity="1.0" fill="#ffffff"/><g id="ProcessOnG1087" transform="matrix(1.0,0.0,0.0,1.0,10.0,11.750003814697266)"><text id="ProcessOnText1088" fill="#000000" font-size="16" x="29.5" y="16.4" font-family="微软雅黑" font-weight="bold" font-style="normal" text-decoration="none" family="微软雅黑" text-anchor="middle" size="16">23</text></g></g><g id="ProcessOnG1089" transform="matrix(1.0,0.0,0.0,1.0,955.1667251586914,537.8611602783203)" opacity="1.0"><path id="ProcessOnPath1090" d="M0.0 0.0L81.0 0.0L81.0 43.50000762939453L0.0 43.50000762939453Z" stroke="#323232" stroke-width="2.0" stroke-dasharray="none" opacity="1.0" fill="#ffffff"/><g id="ProcessOnG1091" transform="matrix(1.0,0.0,0.0,1.0,10.0,11.750003814697266)"><text id="ProcessOnText1092" fill="#000000" font-size="16" x="29.5" y="16.4" font-family="微软雅黑" font-weight="bold" font-style="normal" text-decoration="none" family="微软雅黑" text-anchor="middle" size="16">9</text></g></g><g id="ProcessOnG1093" transform="matrix(1.0,0.0,0.0,1.0,1033.1667251586914,537.8611602783203)" opacity="1.0"><path id="ProcessOnPath1094" d="M0.0 0.0L81.0 0.0L81.0 43.50000762939453L0.0 43.50000762939453Z" stroke="#323232" stroke-width="2.0" stroke-dasharray="none" opacity="1.0" fill="#ffffff"/><g id="ProcessOnG1095" transform="matrix(1.0,0.0,0.0,1.0,10.0,11.750003814697266)"><text id="ProcessOnText1096" fill="#000000" font-size="16" x="29.5" y="16.4" font-family="微软雅黑" font-weight="bold" font-style="normal" text-decoration="none" family="微软雅黑" text-anchor="middle" size="16">4</text></g></g><g id="ProcessOnG1097" transform="matrix(1.0,0.0,0.0,1.0,1114.1667251586914,537.8611602783203)" opacity="1.0"><path id="ProcessOnPath1098" d="M0.0 0.0L81.0 0.0L81.0 43.50000762939453L0.0 43.50000762939453Z" stroke="#323232" stroke-width="2.0" stroke-dasharray="none" opacity="1.0" fill="#ffffff"/></g><g id="ProcessOnG1099" transform="matrix(1.0,0.0,0.0,1.0,1195.1667251586914,537.8611602783203)" opacity="1.0"><path id="ProcessOnPath1100" d="M0.0 0.0L81.0 0.0L81.0 43.50000762939453L0.0 43.50000762939453Z" stroke="#323232" stroke-width="2.0" stroke-dasharray="none" opacity="1.0" fill="#ffffff"/></g><g id="ProcessOnG1101"><path id="ProcessOnPath1102" d="M840.1667251586914 303.3611602783203L955.1667251586914 254.3611602783203" stroke="#323232" stroke-width="2.0" stroke-dasharray="10.0 4.0" fill="none" marker-end="url(#ProcessOnMarker1103)"/></g><g id="ProcessOnG1105"><path id="ProcessOnPath1106" d="M840.1667251586914 352.3611602783203L955.1667251586914 329.6111640930176" stroke="#323232" stroke-width="2.0" stroke-dasharray="10.0 4.0" fill="none" marker-end="url(#ProcessOnMarker1107)"/></g><g id="ProcessOnG1109"><path id="ProcessOnPath1110" d="M840.1667251586914 401.3611602783203L955.1667251586914 401.3611602783203" stroke="#323232" stroke-width="2.0" stroke-dasharray="10.0 4.0" fill="none" marker-end="url(#ProcessOnMarker1111)"/></g><g id="ProcessOnG1113"><path id="ProcessOnPath1114" d="M840.1667251586914 450.3611602783203L955.1667251586914 475.6111640930176" stroke="#323232" stroke-width="2.0" stroke-dasharray="10.0 4.0" fill="none" marker-end="url(#ProcessOnMarker1115)"/></g><g id="ProcessOnG1117"><path id="ProcessOnPath1118" d="M840.1667251586914 499.3611602783203L955.1667251586914 559.6111640930176" stroke="#323232" stroke-width="2.0" stroke-dasharray="10.0 4.0" fill="none" marker-end="url(#ProcessOnMarker1119)"/></g><g id="ProcessOnG1121" transform="matrix(1.0,0.0,0.0,1.0,1276.1667251586914,234.3611602783203)" opacity="1.0"><path id="ProcessOnPath1122" d="M0.0 0.0L86.0 0.0L86.0 40.0L0.0 40.0Z" stroke="none" stroke-width="0.0" stroke-dasharray="none" opacity="1.0" fill="none"/><g id="ProcessOnG1123" transform="matrix(1.0,0.0,0.0,1.0,0.0,10.0)"><text id="ProcessOnText1124" fill="#000000" font-size="16" x="42.0" y="16.4" font-family="微软雅黑" font-weight="bold" font-style="normal" text-decoration="none" family="微软雅黑" text-anchor="middle" size="16">Bucket 1</text></g></g><g id="ProcessOnG1125" transform="matrix(1.0,0.0,0.0,1.0,1276.1667251586914,309.6111640930176)" opacity="1.0"><path id="ProcessOnPath1126" d="M0.0 0.0L86.0 0.0L86.0 40.0L0.0 40.0Z" stroke="none" stroke-width="0.0" stroke-dasharray="none" opacity="1.0" fill="none"/><g id="ProcessOnG1127" transform="matrix(1.0,0.0,0.0,1.0,0.0,10.0)"><text id="ProcessOnText1128" fill="#000000" font-size="16" x="42.0" y="16.4" font-family="微软雅黑" font-weight="bold" font-style="normal" text-decoration="none" family="微软雅黑" text-anchor="middle" size="16">Bucket 2</text></g></g><g id="ProcessOnG1129" transform="matrix(1.0,0.0,0.0,1.0,1276.1667251586914,381.3611602783203)" opacity="1.0"><path id="ProcessOnPath1130" d="M0.0 0.0L86.0 0.0L86.0 40.0L0.0 40.0Z" stroke="none" stroke-width="0.0" stroke-dasharray="none" opacity="1.0" fill="none"/><g id="ProcessOnG1131" transform="matrix(1.0,0.0,0.0,1.0,0.0,10.0)"><text id="ProcessOnText1132" fill="#000000" font-size="16" x="42.0" y="16.4" font-family="微软雅黑" font-weight="bold" font-style="normal" text-decoration="none" family="微软雅黑" text-anchor="middle" size="16">Bucket 3</text></g></g><g id="ProcessOnG1133" transform="matrix(1.0,0.0,0.0,1.0,1276.1667251586914,455.6111640930176)" opacity="1.0"><path id="ProcessOnPath1134" d="M0.0 0.0L86.0 0.0L86.0 40.0L0.0 40.0Z" stroke="none" stroke-width="0.0" stroke-dasharray="none" opacity="1.0" fill="none"/><g id="ProcessOnG1135" transform="matrix(1.0,0.0,0.0,1.0,0.0,10.0)"><text id="ProcessOnText1136" fill="#000000" font-size="16" x="42.0" y="16.4" font-family="微软雅黑" font-weight="bold" font-style="normal" text-decoration="none" family="微软雅黑" text-anchor="middle" size="16">Bucket 4</text></g></g><g id="ProcessOnG1137" transform="matrix(1.0,0.0,0.0,1.0,1276.1667251586914,539.6111640930176)" opacity="1.0"><path id="ProcessOnPath1138" d="M0.0 0.0L86.0 0.0L86.0 40.0L0.0 40.0Z" stroke="none" stroke-width="0.0" stroke-dasharray="none" opacity="1.0" fill="none"/><g id="ProcessOnG1139" transform="matrix(1.0,0.0,0.0,1.0,0.0,10.0)"><text id="ProcessOnText1140" fill="#000000" font-size="16" x="42.0" y="16.4" font-family="微软雅黑" font-weight="bold" font-style="normal" text-decoration="none" family="微软雅黑" text-anchor="middle" size="16">Bucket 5</text></g></g><g id="ProcessOnG1141"><path id="ProcessOnPath1142" d="M759.9940247214676 184.92800355691872L715.833381652832 162.19449615478516" stroke="#323232" stroke-width="2.0" stroke-dasharray="none" fill="none" marker-start="url(#ProcessOnMarker1143)"/></g><g id="ProcessOnG1145" transform="matrix(1.0,0.0,0.0,1.0,595.1667251586914,129.19449615478516)" opacity="1.0"><path id="ProcessOnPath1146" d="M0.0 0.0L160.0 0.0L160.0 40.0L0.0 40.0Z" stroke="none" stroke-width="0.0" stroke-dasharray="none" opacity="1.0" fill="none"/><g id="ProcessOnG1147" transform="matrix(1.0,0.0,0.0,1.0,0.0,10.0)"><text id="ProcessOnText1148" fill="#000000" font-size="16" x="79.0" y="16.4" font-family="微软雅黑" font-weight="bold" font-style="normal" text-decoration="none" family="微软雅黑" text-anchor="middle" size="16">Hash 表个数</text></g></g><g id="ProcessOnG1149" transform="matrix(1.0,0.0,0.0,1.0,506.1667251586914,229.8611602783203)" opacity="1.0"><path id="ProcessOnPath1150" d="M0.0 0.0L82.0 0.0L82.0 49.0L0.0 49.0Z" stroke="#323232" stroke-width="2.0" stroke-dasharray="none" opacity="1.0" fill="#ffffff"/><g id="ProcessOnG1151" transform="matrix(1.0,0.0,0.0,1.0,10.0,14.5)"><text id="ProcessOnText1152" fill="#000000" font-size="16" x="30.0" y="16.4" font-family="微软雅黑" font-weight="bold" font-style="normal" text-decoration="none" family="微软雅黑" text-anchor="middle" size="16">*bucket</text></g></g><g id="ProcessOnG1153" transform="matrix(1.0,0.0,0.0,1.0,506.1667251586914,278.8611602783203)" opacity="1.0"><path id="ProcessOnPath1154" d="M0.0 0.0L167.0 0.0L167.0 49.0L0.0 49.0Z" stroke="#323232" stroke-width="2.0" stroke-dasharray="none" opacity="1.0" fill="#ffffff"/><g id="ProcessOnG1155" transform="matrix(1.0,0.0,0.0,1.0,10.0,14.5)"><text id="ProcessOnText1156" fill="#000000" font-size="16" x="72.5" y="16.4" font-family="微软雅黑" font-weight="bold" font-style="normal" text-decoration="none" family="微软雅黑" text-anchor="middle" size="16">0</text></g></g><g id="ProcessOnG1157" transform="matrix(1.0,0.0,0.0,1.0,506.1667251586914,327.8611602783203)" opacity="1.0"><path id="ProcessOnPath1158" d="M0.0 0.0L167.0 0.0L167.0 49.0L0.0 49.0Z" stroke="#323232" stroke-width="2.0" stroke-dasharray="none" opacity="1.0" fill="#ffffff"/><g id="ProcessOnG1159" transform="matrix(1.0,0.0,0.0,1.0,10.0,14.5)"><text id="ProcessOnText1160" fill="#000000" font-size="16" x="72.5" y="16.4" font-family="微软雅黑" font-weight="bold" font-style="normal" text-decoration="none" family="微软雅黑" text-anchor="middle" size="16">1</text></g></g><g id="ProcessOnG1161" transform="matrix(1.0,0.0,0.0,1.0,506.1667251586914,376.8611602783203)" opacity="1.0"><path id="ProcessOnPath1162" d="M0.0 0.0L167.0 0.0L167.0 49.0L0.0 49.0Z" stroke="#323232" stroke-width="2.0" stroke-dasharray="none" opacity="1.0" fill="#ffffff"/><g id="ProcessOnG1163" transform="matrix(1.0,0.0,0.0,1.0,10.0,14.5)"><text id="ProcessOnText1164" fill="#000000" font-size="16" x="72.5" y="16.4" font-family="微软雅黑" font-weight="bold" font-style="normal" text-decoration="none" family="微软雅黑" text-anchor="middle" size="16">2</text></g></g><g id="ProcessOnG1165" transform="matrix(1.0,0.0,0.0,1.0,506.1667251586914,425.8611602783203)" opacity="1.0"><path id="ProcessOnPath1166" d="M0.0 0.0L167.0 0.0L167.0 49.0L0.0 49.0Z" stroke="#323232" stroke-width="2.0" stroke-dasharray="none" opacity="1.0" fill="#ffffff"/><g id="ProcessOnG1167" transform="matrix(1.0,0.0,0.0,1.0,10.0,14.5)"><text id="ProcessOnText1168" fill="#000000" font-size="16" x="72.5" y="16.4" font-family="微软雅黑" font-weight="bold" font-style="normal" text-decoration="none" family="微软雅黑" text-anchor="middle" size="16">3</text></g></g><g id="ProcessOnG1169" transform="matrix(1.0,0.0,0.0,1.0,506.1667251586914,474.8611602783203)" opacity="1.0"><path id="ProcessOnPath1170" d="M0.0 0.0L167.0 0.0L167.0 49.0L0.0 49.0Z" stroke="#323232" stroke-width="2.0" stroke-dasharray="none" opacity="1.0" fill="#ffffff"/><g id="ProcessOnG1171" transform="matrix(1.0,0.0,0.0,1.0,10.0,14.5)"><text id="ProcessOnText1172" fill="#000000" font-size="16" x="72.5" y="16.4" font-family="微软雅黑" font-weight="bold" font-style="normal" text-decoration="none" family="微软雅黑" text-anchor="middle" size="16">4</text></g></g><g id="ProcessOnG1173" transform="matrix(1.0,0.0,0.0,1.0,588.1667251586914,229.8611602783203)" opacity="1.0"><path id="ProcessOnPath1174" d="M0.0 0.0L85.0 0.0L85.0 49.0L0.0 49.0Z" stroke="#323232" stroke-width="2.0" stroke-dasharray="none" opacity="1.0" fill="#ffffff"/><g id="ProcessOnG1175" transform="matrix(1.0,0.0,0.0,1.0,10.0,14.5)"><text id="ProcessOnText1176" fill="#000000" font-size="16" x="31.5" y="16.4" font-family="微软雅黑" font-weight="bold" font-style="normal" text-decoration="none" family="微软雅黑" text-anchor="middle" size="16">index</text></g></g><g id="ProcessOnG1177" transform="matrix(1.0,0.0,0.0,1.0,56.388938903808594,229.8611602783203)" opacity="1.0"><path id="ProcessOnPath1178" d="M0.0 0.0L81.0 0.0L81.0 43.50000762939453L0.0 43.50000762939453Z" stroke="#323232" stroke-width="2.0" stroke-dasharray="none" opacity="1.0" fill="#ffffff"/></g><g id="ProcessOnG1179" transform="matrix(1.0,0.0,0.0,1.0,134.3889389038086,229.8611602783203)" opacity="1.0"><path id="ProcessOnPath1180" d="M0.0 0.0L81.0 0.0L81.0 43.50000762939453L0.0 43.50000762939453Z" stroke="#323232" stroke-width="2.0" stroke-dasharray="none" opacity="1.0" fill="#ffffff"/></g><g id="ProcessOnG1181" transform="matrix(1.0,0.0,0.0,1.0,215.3889389038086,229.8611602783203)" opacity="1.0"><path id="ProcessOnPath1182" d="M0.0 0.0L81.0 0.0L81.0 43.50000762939453L0.0 43.50000762939453Z" stroke="#323232" stroke-width="2.0" stroke-dasharray="none" opacity="1.0" fill="#ffffff"/></g><g id="ProcessOnG1183" transform="matrix(1.0,0.0,0.0,1.0,296.3889389038086,229.8611602783203)" opacity="1.0"><path id="ProcessOnPath1184" d="M0.0 0.0L81.0 0.0L81.0 43.50000762939453L0.0 43.50000762939453Z" stroke="#323232" stroke-width="2.0" stroke-dasharray="none" opacity="1.0" fill="#ffffff"/></g><g id="ProcessOnG1185" transform="matrix(1.0,0.0,0.0,1.0,56.388938903808594,305.1111640930176)" opacity="1.0"><path id="ProcessOnPath1186" d="M0.0 0.0L81.0 0.0L81.0 43.50000762939453L0.0 43.50000762939453Z" stroke="#323232" stroke-width="2.0" stroke-dasharray="none" opacity="1.0" fill="#ffffff"/></g><g id="ProcessOnG1187" transform="matrix(1.0,0.0,0.0,1.0,134.3889389038086,305.1111640930176)" opacity="1.0"><path id="ProcessOnPath1188" d="M0.0 0.0L81.0 0.0L81.0 43.50000762939453L0.0 43.50000762939453Z" stroke="#323232" stroke-width="2.0" stroke-dasharray="none" opacity="1.0" fill="#ffffff"/></g><g id="ProcessOnG1189" transform="matrix(1.0,0.0,0.0,1.0,215.3889389038086,305.1111640930176)" opacity="1.0"><path id="ProcessOnPath1190" d="M0.0 0.0L81.0 0.0L81.0 43.50000762939453L0.0 43.50000762939453Z" stroke="#323232" stroke-width="2.0" stroke-dasharray="none" opacity="1.0" fill="#ffffff"/></g><g id="ProcessOnG1191" transform="matrix(1.0,0.0,0.0,1.0,296.3889389038086,305.1111640930176)" opacity="1.0"><path id="ProcessOnPath1192" d="M0.0 0.0L81.0 0.0L81.0 43.50000762939453L0.0 43.50000762939453Z" stroke="#323232" stroke-width="2.0" stroke-dasharray="none" opacity="1.0" fill="#ffffff"/></g><g id="ProcessOnG1193" transform="matrix(1.0,0.0,0.0,1.0,56.388938903808594,376.8611602783203)" opacity="1.0"><path id="ProcessOnPath1194" d="M0.0 0.0L81.0 0.0L81.0 43.50000762939453L0.0 43.50000762939453Z" stroke="#323232" stroke-width="2.0" stroke-dasharray="none" opacity="1.0" fill="#ffffff"/></g><g id="ProcessOnG1195" transform="matrix(1.0,0.0,0.0,1.0,134.3889389038086,376.8611602783203)" opacity="1.0"><path id="ProcessOnPath1196" d="M0.0 0.0L81.0 0.0L81.0 43.50000762939453L0.0 43.50000762939453Z" stroke="#323232" stroke-width="2.0" stroke-dasharray="none" opacity="1.0" fill="#ffffff"/></g><g id="ProcessOnG1197" transform="matrix(1.0,0.0,0.0,1.0,215.3889389038086,376.8611602783203)" opacity="1.0"><path id="ProcessOnPath1198" d="M0.0 0.0L81.0 0.0L81.0 43.50000762939453L0.0 43.50000762939453Z" stroke="#323232" stroke-width="2.0" stroke-dasharray="none" opacity="1.0" fill="#ffffff"/></g><g id="ProcessOnG1199" transform="matrix(1.0,0.0,0.0,1.0,296.3889389038086,376.8611602783203)" opacity="1.0"><path id="ProcessOnPath1200" d="M0.0 0.0L81.0 0.0L81.0 43.50000762939453L0.0 43.50000762939453Z" stroke="#323232" stroke-width="2.0" stroke-dasharray="none" opacity="1.0" fill="#ffffff"/></g><g id="ProcessOnG1201" transform="matrix(1.0,0.0,0.0,1.0,56.388938903808594,451.1111640930176)" opacity="1.0"><path id="ProcessOnPath1202" d="M0.0 0.0L81.0 0.0L81.0 43.50000762939453L0.0 43.50000762939453Z" stroke="#323232" stroke-width="2.0" stroke-dasharray="none" opacity="1.0" fill="#ffffff"/><g id="ProcessOnG1203" transform="matrix(1.0,0.0,0.0,1.0,10.0,11.750003814697266)"><text id="ProcessOnText1204" fill="#ff8000" font-size="16" x="29.5" y="16.4" font-family="微软雅黑" font-weight="bold" font-style="normal" text-decoration="none" family="微软雅黑" text-anchor="middle" size="16">3</text></g></g><g id="ProcessOnG1205" transform="matrix(1.0,0.0,0.0,1.0,134.3889389038086,451.1111640930176)" opacity="1.0"><path id="ProcessOnPath1206" d="M0.0 0.0L81.0 0.0L81.0 43.50000762939453L0.0 43.50000762939453Z" stroke="#323232" stroke-width="2.0" stroke-dasharray="none" opacity="1.0" fill="#ffffff"/></g><g id="ProcessOnG1207" transform="matrix(1.0,0.0,0.0,1.0,215.3889389038086,451.1111640930176)" opacity="1.0"><path id="ProcessOnPath1208" d="M0.0 0.0L81.0 0.0L81.0 43.50000762939453L0.0 43.50000762939453Z" stroke="#323232" stroke-width="2.0" stroke-dasharray="none" opacity="1.0" fill="#ffffff"/></g><g id="ProcessOnG1209" transform="matrix(1.0,0.0,0.0,1.0,296.3889389038086,451.1111640930176)" opacity="1.0"><path id="ProcessOnPath1210" d="M0.0 0.0L81.0 0.0L81.0 43.50000762939453L0.0 43.50000762939453Z" stroke="#323232" stroke-width="2.0" stroke-dasharray="none" opacity="1.0" fill="#ffffff"/></g><g id="ProcessOnG1211" transform="matrix(1.0,0.0,0.0,1.0,56.388938903808594,535.1111640930176)" opacity="1.0"><path id="ProcessOnPath1212" d="M0.0 0.0L81.0 0.0L81.0 43.50000762939453L0.0 43.50000762939453Z" stroke="#323232" stroke-width="2.0" stroke-dasharray="none" opacity="1.0" fill="#ffffff"/></g><g id="ProcessOnG1213" transform="matrix(1.0,0.0,0.0,1.0,134.3889389038086,535.1111640930176)" opacity="1.0"><path id="ProcessOnPath1214" d="M0.0 0.0L81.0 0.0L81.0 43.50000762939453L0.0 43.50000762939453Z" stroke="#323232" stroke-width="2.0" stroke-dasharray="none" opacity="1.0" fill="#ffffff"/></g><g id="ProcessOnG1215" transform="matrix(1.0,0.0,0.0,1.0,215.3889389038086,535.1111640930176)" opacity="1.0"><path id="ProcessOnPath1216" d="M0.0 0.0L81.0 0.0L81.0 43.50000762939453L0.0 43.50000762939453Z" stroke="#323232" stroke-width="2.0" stroke-dasharray="none" opacity="1.0" fill="#ffffff"/></g><g id="ProcessOnG1217" transform="matrix(1.0,0.0,0.0,1.0,296.3889389038086,535.1111640930176)" opacity="1.0"><path id="ProcessOnPath1218" d="M0.0 0.0L81.0 0.0L81.0 43.50000762939453L0.0 43.50000762939453Z" stroke="#323232" stroke-width="2.0" stroke-dasharray="none" opacity="1.0" fill="#ffffff"/></g><g id="ProcessOnG1219"><path id="ProcessOnPath1220" d="M506.1667251586914 303.3611602783203L377.3889389038086 251.61116409301758" stroke="#323232" stroke-width="2.0" stroke-dasharray="10.0 4.0" fill="none" marker-end="url(#ProcessOnMarker1221)"/></g><g id="ProcessOnG1223"><path id="ProcessOnPath1224" d="M506.1667251586914 352.3611602783203L377.3889389038086 326.86116790771484" stroke="#323232" stroke-width="2.0" stroke-dasharray="10.0 4.0" fill="none" marker-end="url(#ProcessOnMarker1225)"/></g><g id="ProcessOnG1227"><path id="ProcessOnPath1228" d="M506.1667251586914 401.3611602783203L377.3889389038086 398.6111640930176" stroke="#323232" stroke-width="2.0" stroke-dasharray="10.0 4.0" fill="none" marker-end="url(#ProcessOnMarker1229)"/></g><g id="ProcessOnG1231"><path id="ProcessOnPath1232" d="M506.1667251586914 450.3611602783203L377.3889389038086 472.86116790771484" stroke="#323232" stroke-width="2.0" stroke-dasharray="10.0 4.0" fill="none" marker-end="url(#ProcessOnMarker1233)"/></g><g id="ProcessOnG1235"><path id="ProcessOnPath1236" d="M506.1667251586914 499.3611602783203L377.3889389038086 556.8611679077148" stroke="#323232" stroke-width="2.0" stroke-dasharray="10.0 4.0" fill="none" marker-end="url(#ProcessOnMarker1237)"/></g></g></g></svg>