<svg xmlns="http://www.w3.org/2000/svg" xmlns:xlink="http://www.w3.org/1999/xlink" id="processonSvg1000" viewBox="64.34721374511719 134.3645782470703 657.6666717529297 332.0" width="657.6666717529297" height="332.0"><defs id="ProcessOnDefs1001"><marker id="ProcessOnMarker1093" markerUnits="userSpaceOnUse" orient="auto" markerWidth="14.289086868996552" markerHeight="19.055054660878554" viewBox="-0.5877852522924731 -0.8090169943749475 14.289086868996552 19.055054660878554" refX="1.1135163644116066" refY="8.71851033606433"><path id="ProcessOnPath1094" d="M0 0L12.0 8.71851033606433L0 17.43702067212866" stroke="#323232" stroke-width="2.0" fill="none" transform="matrix(-1.0,1.2246467991473532E-16,-1.2246467991473532E-16,-1.0,13.113516364411606,17.43702067212866)"/></marker></defs><g id="ProcessOnG1002"><path id="ProcessOnPath1003" d="M64.34721374511719 134.3645782470703H722.0138854980469V466.3645782470703H64.34721374511719V134.3645782470703Z" fill="none"/><g id="ProcessOnG1004"><g id="ProcessOnG1005" transform="matrix(1.0,0.0,0.0,1.0,212.01388549804688,154.3645782470703)" opacity="1.0"><path id="ProcessOnPath1006" d="M0.0 0.0L98.0 0.0L98.0 59.0L0.0 59.0Z" stroke="#323232" stroke-width="2.0" stroke-dasharray="none" opacity="1.0" fill="#ffffff"/><g id="ProcessOnG1007" transform="matrix(1.0,0.0,0.0,1.0,10.0,18.25)"><text id="ProcessOnText1008" fill="#000000" font-size="18" x="38.0" y="18.45" font-family="微软雅黑" font-weight="bold" font-style="normal" text-decoration="none" family="微软雅黑" text-anchor="middle" size="18">h0</text></g></g><g id="ProcessOnG1009" transform="matrix(1.0,0.0,0.0,1.0,310.0138854980469,154.3645782470703)" opacity="1.0"><path id="ProcessOnPath1010" d="M0.0 0.0L392.0 0.0L392.0 59.0L0.0 59.0Z" stroke="#323232" stroke-width="2.0" stroke-dasharray="none" opacity="1.0" fill="#ffffff"/><g id="ProcessOnG1011" transform="matrix(1.0,0.0,0.0,1.0,10.0,18.25)"><text id="ProcessOnText1012" fill="#000000" font-size="18" x="185.0" y="18.45" font-family="微软雅黑" font-weight="bold" font-style="normal" text-decoration="none" family="微软雅黑" text-anchor="middle" size="18">Buckets</text></g></g><g id="ProcessOnG1013" transform="matrix(1.0,0.0,0.0,1.0,212.01388549804688,213.3645782470703)" opacity="1.0"><path id="ProcessOnPath1014" d="M0.0 0.0L98.0 0.0L98.0 59.0L0.0 59.0Z" stroke="#323232" stroke-width="2.0" stroke-dasharray="none" opacity="1.0" fill="#ffffff"/><g id="ProcessOnG1015" transform="matrix(1.0,0.0,0.0,1.0,10.0,18.25)"><text id="ProcessOnText1016" fill="#000000" font-size="18" x="38.0" y="18.45" font-family="微软雅黑" font-weight="bold" font-style="normal" text-decoration="none" family="微软雅黑" text-anchor="middle" size="18">00</text></g></g><g id="ProcessOnG1017" transform="matrix(1.0,0.0,0.0,1.0,310.0138854980469,213.3645782470703)" opacity="1.0"><path id="ProcessOnPath1018" d="M0.0 0.0L98.0 0.0L98.0 59.0L0.0 59.0Z" stroke="#323232" stroke-width="2.0" stroke-dasharray="none" opacity="1.0" fill="#ffffff"/><g id="ProcessOnG1019" transform="matrix(1.0,0.0,0.0,1.0,10.0,18.25)"><text id="ProcessOnText1020" fill="#000000" font-size="18" x="38.0" y="18.45" font-family="微软雅黑" font-weight="bold" font-style="normal" text-decoration="none" family="微软雅黑" text-anchor="middle" size="18">32</text></g></g><g id="ProcessOnG1021" transform="matrix(1.0,0.0,0.0,1.0,408.0138854980469,213.3645782470703)" opacity="1.0"><path id="ProcessOnPath1022" d="M0.0 0.0L98.0 0.0L98.0 59.0L0.0 59.0Z" stroke="#323232" stroke-width="2.0" stroke-dasharray="none" opacity="1.0" fill="#ffffff"/><g id="ProcessOnG1023" transform="matrix(1.0,0.0,0.0,1.0,10.0,18.25)"><text id="ProcessOnText1024" fill="#000000" font-size="18" x="38.0" y="18.45" font-family="微软雅黑" font-weight="bold" font-style="normal" text-decoration="none" family="微软雅黑" text-anchor="middle" size="18">44</text></g></g><g id="ProcessOnG1025" transform="matrix(1.0,0.0,0.0,1.0,506.0138854980469,213.3645782470703)" opacity="1.0"><path id="ProcessOnPath1026" d="M0.0 0.0L98.0 0.0L98.0 59.0L0.0 59.0Z" stroke="#323232" stroke-width="2.0" stroke-dasharray="none" opacity="1.0" fill="#ffffff"/><g id="ProcessOnG1027" transform="matrix(1.0,0.0,0.0,1.0,10.0,18.25)"><text id="ProcessOnText1028" fill="#000000" font-size="18" x="38.0" y="18.45" font-family="微软雅黑" font-weight="bold" font-style="normal" text-decoration="none" family="微软雅黑" text-anchor="middle" size="18">36</text></g></g><g id="ProcessOnG1029" transform="matrix(1.0,0.0,0.0,1.0,604.0138854980469,213.3645782470703)" opacity="1.0"><path id="ProcessOnPath1030" d="M0.0 0.0L98.0 0.0L98.0 59.0L0.0 59.0Z" stroke="#323232" stroke-width="2.0" stroke-dasharray="none" opacity="1.0" fill="#ffffff"/></g><g id="ProcessOnG1031" transform="matrix(1.0,0.0,0.0,1.0,212.01388549804688,272.3645782470703)" opacity="1.0"><path id="ProcessOnPath1032" d="M0.0 0.0L98.0 0.0L98.0 59.0L0.0 59.0Z" stroke="#323232" stroke-width="2.0" stroke-dasharray="none" opacity="1.0" fill="#ffffff"/><g id="ProcessOnG1033" transform="matrix(1.0,0.0,0.0,1.0,10.0,18.25)"><text id="ProcessOnText1034" fill="#000000" font-size="18" x="38.0" y="18.45" font-family="微软雅黑" font-weight="bold" font-style="normal" text-decoration="none" family="微软雅黑" text-anchor="middle" size="18">01</text></g></g><g id="ProcessOnG1035" transform="matrix(1.0,0.0,0.0,1.0,310.0138854980469,272.3645782470703)" opacity="1.0"><path id="ProcessOnPath1036" d="M0.0 0.0L98.0 0.0L98.0 59.0L0.0 59.0Z" stroke="#323232" stroke-width="2.0" stroke-dasharray="none" opacity="1.0" fill="#ffffff"/><g id="ProcessOnG1037" transform="matrix(1.0,0.0,0.0,1.0,10.0,18.25)"><text id="ProcessOnText1038" fill="#000000" font-size="18" x="38.0" y="18.45" font-family="微软雅黑" font-weight="bold" font-style="normal" text-decoration="none" family="微软雅黑" text-anchor="middle" size="18">9</text></g></g><g id="ProcessOnG1039" transform="matrix(1.0,0.0,0.0,1.0,408.0138854980469,272.3645782470703)" opacity="1.0"><path id="ProcessOnPath1040" d="M0.0 0.0L98.0 0.0L98.0 59.0L0.0 59.0Z" stroke="#323232" stroke-width="2.0" stroke-dasharray="none" opacity="1.0" fill="#ffffff"/><g id="ProcessOnG1041" transform="matrix(1.0,0.0,0.0,1.0,10.0,18.25)"><text id="ProcessOnText1042" fill="#000000" font-size="18" x="38.0" y="18.45" font-family="微软雅黑" font-weight="bold" font-style="normal" text-decoration="none" family="微软雅黑" text-anchor="middle" size="18">25</text></g></g><g id="ProcessOnG1043" transform="matrix(1.0,0.0,0.0,1.0,506.0138854980469,272.3645782470703)" opacity="1.0"><path id="ProcessOnPath1044" d="M0.0 0.0L98.0 0.0L98.0 59.0L0.0 59.0Z" stroke="#323232" stroke-width="2.0" stroke-dasharray="none" opacity="1.0" fill="#ffffff"/><g id="ProcessOnG1045" transform="matrix(1.0,0.0,0.0,1.0,10.0,18.25)"><text id="ProcessOnText1046" fill="#000000" font-size="18" x="38.0" y="18.45" font-family="微软雅黑" font-weight="bold" font-style="normal" text-decoration="none" family="微软雅黑" text-anchor="middle" size="18">5</text></g></g><g id="ProcessOnG1047" transform="matrix(1.0,0.0,0.0,1.0,212.01388549804688,331.3645782470703)" opacity="1.0"><path id="ProcessOnPath1048" d="M0.0 0.0L98.0 0.0L98.0 59.0L0.0 59.0Z" stroke="#323232" stroke-width="2.0" stroke-dasharray="none" opacity="1.0" fill="#ffffff"/><g id="ProcessOnG1049" transform="matrix(1.0,0.0,0.0,1.0,10.0,18.25)"><text id="ProcessOnText1050" fill="#000000" font-size="18" x="38.0" y="18.45" font-family="微软雅黑" font-weight="bold" font-style="normal" text-decoration="none" family="微软雅黑" text-anchor="middle" size="18">10</text></g></g><g id="ProcessOnG1051" transform="matrix(1.0,0.0,0.0,1.0,310.0138854980469,331.3645782470703)" opacity="1.0"><path id="ProcessOnPath1052" d="M0.0 0.0L98.0 0.0L98.0 59.0L0.0 59.0Z" stroke="#323232" stroke-width="2.0" stroke-dasharray="none" opacity="1.0" fill="#ffffff"/><g id="ProcessOnG1053" transform="matrix(1.0,0.0,0.0,1.0,10.0,18.25)"><text id="ProcessOnText1054" fill="#000000" font-size="18" x="38.0" y="18.45" font-family="微软雅黑" font-weight="bold" font-style="normal" text-decoration="none" family="微软雅黑" text-anchor="middle" size="18">14</text></g></g><g id="ProcessOnG1055" transform="matrix(1.0,0.0,0.0,1.0,408.0138854980469,331.3645782470703)" opacity="1.0"><path id="ProcessOnPath1056" d="M0.0 0.0L98.0 0.0L98.0 59.0L0.0 59.0Z" stroke="#323232" stroke-width="2.0" stroke-dasharray="none" opacity="1.0" fill="#ffffff"/><g id="ProcessOnG1057" transform="matrix(1.0,0.0,0.0,1.0,10.0,18.25)"><text id="ProcessOnText1058" fill="#000000" font-size="18" x="38.0" y="18.45" font-family="微软雅黑" font-weight="bold" font-style="normal" text-decoration="none" family="微软雅黑" text-anchor="middle" size="18">18</text></g></g><g id="ProcessOnG1059" transform="matrix(1.0,0.0,0.0,1.0,506.0138854980469,331.3645782470703)" opacity="1.0"><path id="ProcessOnPath1060" d="M0.0 0.0L98.0 0.0L98.0 59.0L0.0 59.0Z" stroke="#323232" stroke-width="2.0" stroke-dasharray="none" opacity="1.0" fill="#ffffff"/><g id="ProcessOnG1061" transform="matrix(1.0,0.0,0.0,1.0,10.0,18.25)"><text id="ProcessOnText1062" fill="#000000" font-size="18" x="38.0" y="18.45" font-family="微软雅黑" font-weight="bold" font-style="normal" text-decoration="none" family="微软雅黑" text-anchor="middle" size="18">10</text></g></g><g id="ProcessOnG1063" transform="matrix(1.0,0.0,0.0,1.0,604.0138854980469,331.3645782470703)" opacity="1.0"><path id="ProcessOnPath1064" d="M0.0 0.0L98.0 0.0L98.0 59.0L0.0 59.0Z" stroke="#323232" stroke-width="2.0" stroke-dasharray="none" opacity="1.0" fill="#ffffff"/><g id="ProcessOnG1065" transform="matrix(1.0,0.0,0.0,1.0,10.0,18.25)"><text id="ProcessOnText1066" fill="#000000" font-size="18" x="38.0" y="18.45" font-family="微软雅黑" font-weight="bold" font-style="normal" text-decoration="none" family="微软雅黑" text-anchor="middle" size="18">30</text></g></g><g id="ProcessOnG1067" transform="matrix(1.0,0.0,0.0,1.0,212.01388549804688,387.3645782470703)" opacity="1.0"><path id="ProcessOnPath1068" d="M0.0 0.0L98.0 0.0L98.0 59.0L0.0 59.0Z" stroke="#323232" stroke-width="2.0" stroke-dasharray="none" opacity="1.0" fill="#ffffff"/><g id="ProcessOnG1069" transform="matrix(1.0,0.0,0.0,1.0,10.0,18.25)"><text id="ProcessOnText1070" fill="#000000" font-size="18" x="38.0" y="18.45" font-family="微软雅黑" font-weight="bold" font-style="normal" text-decoration="none" family="微软雅黑" text-anchor="middle" size="18">11</text></g></g><g id="ProcessOnG1071" transform="matrix(1.0,0.0,0.0,1.0,310.0138854980469,387.3645782470703)" opacity="1.0"><path id="ProcessOnPath1072" d="M0.0 0.0L98.0 0.0L98.0 59.0L0.0 59.0Z" stroke="#323232" stroke-width="2.0" stroke-dasharray="none" opacity="1.0" fill="#ffffff"/><g id="ProcessOnG1073" transform="matrix(1.0,0.0,0.0,1.0,10.0,18.25)"><text id="ProcessOnText1074" fill="#000000" font-size="18" x="38.0" y="18.45" font-family="微软雅黑" font-weight="bold" font-style="normal" text-decoration="none" family="微软雅黑" text-anchor="middle" size="18">31</text></g></g><g id="ProcessOnG1075" transform="matrix(1.0,0.0,0.0,1.0,408.0138854980469,387.3645782470703)" opacity="1.0"><path id="ProcessOnPath1076" d="M0.0 0.0L98.0 0.0L98.0 59.0L0.0 59.0Z" stroke="#323232" stroke-width="2.0" stroke-dasharray="none" opacity="1.0" fill="#ffffff"/><g id="ProcessOnG1077" transform="matrix(1.0,0.0,0.0,1.0,10.0,18.25)"><text id="ProcessOnText1078" fill="#000000" font-size="18" x="38.0" y="18.45" font-family="微软雅黑" font-weight="bold" font-style="normal" text-decoration="none" family="微软雅黑" text-anchor="middle" size="18">35</text></g></g><g id="ProcessOnG1079" transform="matrix(1.0,0.0,0.0,1.0,506.0138854980469,387.3645782470703)" opacity="1.0"><path id="ProcessOnPath1080" d="M0.0 0.0L98.0 0.0L98.0 59.0L0.0 59.0Z" stroke="#323232" stroke-width="2.0" stroke-dasharray="none" opacity="1.0" fill="#ffffff"/><g id="ProcessOnG1081" transform="matrix(1.0,0.0,0.0,1.0,10.0,18.25)"><text id="ProcessOnText1082" fill="#000000" font-size="18" x="38.0" y="18.45" font-family="微软雅黑" font-weight="bold" font-style="normal" text-decoration="none" family="微软雅黑" text-anchor="middle" size="18">7</text></g></g><g id="ProcessOnG1083" transform="matrix(1.0,0.0,0.0,1.0,604.0138854980469,387.3645782470703)" opacity="1.0"><path id="ProcessOnPath1084" d="M0.0 0.0L98.0 0.0L98.0 59.0L0.0 59.0Z" stroke="#323232" stroke-width="2.0" stroke-dasharray="none" opacity="1.0" fill="#ffffff"/><g id="ProcessOnG1085" transform="matrix(1.0,0.0,0.0,1.0,10.0,18.25)"><text id="ProcessOnText1086" fill="#000000" font-size="18" x="38.0" y="18.45" font-family="微软雅黑" font-weight="bold" font-style="normal" text-decoration="none" family="微软雅黑" text-anchor="middle" size="18">11</text></g></g><g id="ProcessOnG1087" transform="matrix(1.0,0.0,0.0,1.0,84.34721374511719,222.8645782470703)" opacity="1.0"><path id="ProcessOnPath1088" d="M0.0 0.0L70.0 0.0L70.0 40.0L0.0 40.0Z" stroke="none" stroke-width="0.0" stroke-dasharray="none" opacity="1.0" fill="none"/><g id="ProcessOnG1089" transform="matrix(1.0,0.0,0.0,1.0,0.0,8.75)"><text id="ProcessOnText1090" fill="#000000" font-size="18" x="34.0" y="18.45" font-family="微软雅黑" font-weight="bold" font-style="normal" text-decoration="none" family="微软雅黑" text-anchor="middle" size="18">Next</text></g></g><g id="ProcessOnG1091"><path id="ProcessOnPath1092" d="M212.01388549804688 242.8645782470703L179.18054962158203 242.8645782470703L179.18054962158203 242.8645782470703L146.3472137451172 242.8645782470703" stroke="#323232" stroke-width="2.0" stroke-dasharray="10.0 4.0" fill="none" marker-start="url(#ProcessOnMarker1093)"/></g><g id="ProcessOnG1095" transform="matrix(1.0,0.0,0.0,1.0,604.0138854980469,272.3645782470703)" opacity="1.0"><path id="ProcessOnPath1096" d="M0.0 0.0L98.0 0.0L98.0 59.0L0.0 59.0Z" stroke="#ff8000" stroke-width="2.0" stroke-dasharray="none" opacity="1.0" fill="#ffffff"/><g id="ProcessOnG1097" transform="matrix(1.0,0.0,0.0,1.0,10.0,18.25)"><text id="ProcessOnText1098" fill="#000000" font-size="18" x="38.0" y="18.45" font-family="微软雅黑" font-weight="bold" font-style="normal" text-decoration="none" family="微软雅黑" text-anchor="middle" size="18">37</text></g></g></g></g></svg>