<svg xmlns="http://www.w3.org/2000/svg" xmlns:xlink="http://www.w3.org/1999/xlink" id="processonSvg1000" viewBox="80.34721374511719 126.36457824707031 1068.6666717529297 568.0" width="1068.6666717529297" height="568.0"><defs id="ProcessOnDefs1001"><marker id="ProcessOnMarker1079" markerUnits="userSpaceOnUse" orient="auto" markerWidth="14.289086868996552" markerHeight="19.055054660878554" viewBox="-0.5877852522924731 -0.8090169943749475 14.289086868996552 19.055054660878554" refX="12.0" refY="8.71851033606433"><path id="ProcessOnPath1080" d="M0 0L12.0 8.71851033606433L0 17.43702067212866" stroke="#323232" stroke-width="2.0" fill="none" transform="matrix(1.0,0.0,0.0,1.0,0.0,0.0)"/></marker><marker id="ProcessOnMarker1119" markerUnits="userSpaceOnUse" orient="auto" markerWidth="14.289086868996552" markerHeight="19.055054660878554" viewBox="-0.5877852522924731 -0.8090169943749475 14.289086868996552 19.055054660878554" refX="1.1135163644116066" refY="8.71851033606433"><path id="ProcessOnPath1120" d="M0 0L12.0 8.71851033606433L0 17.43702067212866" stroke="#ff8000" stroke-width="2.0" fill="none" transform="matrix(-1.0,1.2246467991473532E-16,-1.2246467991473532E-16,-1.0,13.113516364411606,17.43702067212866)"/></marker><marker id="ProcessOnMarker1165" markerUnits="userSpaceOnUse" orient="auto" markerWidth="14.289086868996552" markerHeight="19.055054660878554" viewBox="-0.5877852522924731 -0.8090169943749475 14.289086868996552 19.055054660878554" refX="12.0" refY="8.71851033606433"><path id="ProcessOnPath1166" d="M0 0L12.0 8.71851033606433L0 17.43702067212866" stroke="#323232" stroke-width="2.0" fill="none" transform="matrix(1.0,0.0,0.0,1.0,0.0,0.0)"/></marker><marker id="ProcessOnMarker1193" markerUnits="userSpaceOnUse" orient="auto" markerWidth="14.289086868996552" markerHeight="19.055054660878554" viewBox="-0.5877852522924731 -0.8090169943749475 14.289086868996552 19.055054660878554" refX="12.0" refY="8.71851033606433"><path id="ProcessOnPath1194" d="M0 0L12.0 8.71851033606433L0 17.43702067212866" stroke="#323232" stroke-width="2.0" fill="none" transform="matrix(1.0,0.0,0.0,1.0,0.0,0.0)"/></marker></defs><g id="ProcessOnG1002"><path id="ProcessOnPath1003" d="M80.34721374511719 126.36457824707031H1149.0138854980469V694.3645782470703H80.34721374511719V126.36457824707031Z" fill="none"/><g id="ProcessOnG1004"><g id="ProcessOnG1005" transform="matrix(1.0,0.0,0.0,1.0,328.0138854980469,146.3645782470703)" opacity="1.0"><path id="ProcessOnPath1006" d="M0.0 0.0L98.0 0.0L98.0 59.0L0.0 59.0Z" stroke="#323232" stroke-width="2.0" stroke-dasharray="none" opacity="1.0" fill="#ffffff"/><g id="ProcessOnG1007" transform="matrix(1.0,0.0,0.0,1.0,10.0,18.25)"><text id="ProcessOnText1008" fill="#000000" font-size="18" x="38.0" y="18.45" font-family="微软雅黑" font-weight="bold" font-style="normal" text-decoration="none" family="微软雅黑" text-anchor="middle" size="18">h0</text></g></g><g id="ProcessOnG1009" transform="matrix(1.0,0.0,0.0,1.0,426.0138854980469,146.3645782470703)" opacity="1.0"><path id="ProcessOnPath1010" d="M0.0 0.0L392.0 0.0L392.0 59.0L0.0 59.0Z" stroke="#323232" stroke-width="2.0" stroke-dasharray="none" opacity="1.0" fill="#ffffff"/><g id="ProcessOnG1011" transform="matrix(1.0,0.0,0.0,1.0,10.0,18.25)"><text id="ProcessOnText1012" fill="#000000" font-size="18" x="185.0" y="18.45" font-family="微软雅黑" font-weight="bold" font-style="normal" text-decoration="none" family="微软雅黑" text-anchor="middle" size="18">Buckets</text></g></g><g id="ProcessOnG1013" transform="matrix(1.0,0.0,0.0,1.0,328.0138854980469,205.3645782470703)" opacity="1.0"><path id="ProcessOnPath1014" d="M0.0 0.0L98.0 0.0L98.0 59.0L0.0 59.0Z" stroke="#323232" stroke-width="2.0" stroke-dasharray="none" opacity="1.0" fill="#ffffff"/><g id="ProcessOnG1015" transform="matrix(1.0,0.0,0.0,1.0,10.0,18.25)"><text id="ProcessOnText1016" fill="#000000" font-size="18" x="38.0" y="18.45" font-family="微软雅黑" font-weight="bold" font-style="normal" text-decoration="none" family="微软雅黑" text-anchor="middle" size="18">00</text></g></g><g id="ProcessOnG1017" transform="matrix(1.0,0.0,0.0,1.0,426.0138854980469,205.3645782470703)" opacity="1.0"><path id="ProcessOnPath1018" d="M0.0 0.0L98.0 0.0L98.0 59.0L0.0 59.0Z" stroke="#323232" stroke-width="2.0" stroke-dasharray="none" opacity="1.0" fill="#ffffff"/><g id="ProcessOnG1019" transform="matrix(1.0,0.0,0.0,1.0,10.0,18.25)"><text id="ProcessOnText1020" fill="#000000" font-size="18" x="38.0" y="18.45" font-family="微软雅黑" font-weight="bold" font-style="normal" text-decoration="none" family="微软雅黑" text-anchor="middle" size="18">32</text></g></g><g id="ProcessOnG1021" transform="matrix(1.0,0.0,0.0,1.0,524.0138854980469,205.3645782470703)" opacity="1.0"><path id="ProcessOnPath1022" d="M0.0 0.0L98.0 0.0L98.0 59.0L0.0 59.0Z" stroke="#323232" stroke-width="2.0" stroke-dasharray="none" opacity="1.0" fill="#ffffff"/></g><g id="ProcessOnG1023" transform="matrix(1.0,0.0,0.0,1.0,622.0138854980469,205.3645782470703)" opacity="1.0"><path id="ProcessOnPath1024" d="M0.0 0.0L98.0 0.0L98.0 59.0L0.0 59.0Z" stroke="#323232" stroke-width="2.0" stroke-dasharray="none" opacity="1.0" fill="#ffffff"/></g><g id="ProcessOnG1025" transform="matrix(1.0,0.0,0.0,1.0,720.0138854980469,205.3645782470703)" opacity="1.0"><path id="ProcessOnPath1026" d="M0.0 0.0L98.0 0.0L98.0 59.0L0.0 59.0Z" stroke="#323232" stroke-width="2.0" stroke-dasharray="none" opacity="1.0" fill="#ffffff"/></g><g id="ProcessOnG1027" transform="matrix(1.0,0.0,0.0,1.0,328.0138854980469,264.3645782470703)" opacity="1.0"><path id="ProcessOnPath1028" d="M0.0 0.0L98.0 0.0L98.0 59.0L0.0 59.0Z" stroke="#323232" stroke-width="2.0" stroke-dasharray="none" opacity="1.0" fill="#ffffff"/><g id="ProcessOnG1029" transform="matrix(1.0,0.0,0.0,1.0,10.0,18.25)"><text id="ProcessOnText1030" fill="#000000" font-size="18" x="38.0" y="18.45" font-family="微软雅黑" font-weight="bold" font-style="normal" text-decoration="none" family="微软雅黑" text-anchor="middle" size="18">01</text></g></g><g id="ProcessOnG1031" transform="matrix(1.0,0.0,0.0,1.0,426.0138854980469,264.3645782470703)" opacity="1.0"><path id="ProcessOnPath1032" d="M0.0 0.0L98.0 0.0L98.0 59.0L0.0 59.0Z" stroke="#323232" stroke-width="2.0" stroke-dasharray="none" opacity="1.0" fill="#ffffff"/><g id="ProcessOnG1033" transform="matrix(1.0,0.0,0.0,1.0,10.0,18.25)"><text id="ProcessOnText1034" fill="#000000" font-size="18" x="38.0" y="18.45" font-family="微软雅黑" font-weight="bold" font-style="normal" text-decoration="none" family="微软雅黑" text-anchor="middle" size="18">9</text></g></g><g id="ProcessOnG1035" transform="matrix(1.0,0.0,0.0,1.0,524.0138854980469,264.3645782470703)" opacity="1.0"><path id="ProcessOnPath1036" d="M0.0 0.0L98.0 0.0L98.0 59.0L0.0 59.0Z" stroke="#323232" stroke-width="2.0" stroke-dasharray="none" opacity="1.0" fill="#ffffff"/><g id="ProcessOnG1037" transform="matrix(1.0,0.0,0.0,1.0,10.0,18.25)"><text id="ProcessOnText1038" fill="#000000" font-size="18" x="38.0" y="18.45" font-family="微软雅黑" font-weight="bold" font-style="normal" text-decoration="none" family="微软雅黑" text-anchor="middle" size="18">25</text></g></g><g id="ProcessOnG1039" transform="matrix(1.0,0.0,0.0,1.0,328.0138854980469,323.3645782470703)" opacity="1.0"><path id="ProcessOnPath1040" d="M0.0 0.0L98.0 0.0L98.0 59.0L0.0 59.0Z" stroke="#323232" stroke-width="2.0" stroke-dasharray="none" opacity="1.0" fill="#ffffff"/><g id="ProcessOnG1041" transform="matrix(1.0,0.0,0.0,1.0,10.0,18.25)"><text id="ProcessOnText1042" fill="#000000" font-size="18" x="38.0" y="18.45" font-family="微软雅黑" font-weight="bold" font-style="normal" text-decoration="none" family="微软雅黑" text-anchor="middle" size="18">10</text></g></g><g id="ProcessOnG1043" transform="matrix(1.0,0.0,0.0,1.0,426.0138854980469,323.3645782470703)" opacity="1.0"><path id="ProcessOnPath1044" d="M0.0 0.0L98.0 0.0L98.0 59.0L0.0 59.0Z" stroke="#323232" stroke-width="2.0" stroke-dasharray="none" opacity="1.0" fill="#ffffff"/><g id="ProcessOnG1045" transform="matrix(1.0,0.0,0.0,1.0,10.0,18.25)"><text id="ProcessOnText1046" fill="#000000" font-size="18" x="38.0" y="18.45" font-family="微软雅黑" font-weight="bold" font-style="normal" text-decoration="none" family="微软雅黑" text-anchor="middle" size="18">18</text></g></g><g id="ProcessOnG1047" transform="matrix(1.0,0.0,0.0,1.0,524.0138854980469,323.3645782470703)" opacity="1.0"><path id="ProcessOnPath1048" d="M0.0 0.0L98.0 0.0L98.0 59.0L0.0 59.0Z" stroke="#323232" stroke-width="2.0" stroke-dasharray="none" opacity="1.0" fill="#ffffff"/><g id="ProcessOnG1049" transform="matrix(1.0,0.0,0.0,1.0,10.0,18.25)"><text id="ProcessOnText1050" fill="#000000" font-size="18" x="38.0" y="18.45" font-family="微软雅黑" font-weight="bold" font-style="normal" text-decoration="none" family="微软雅黑" text-anchor="middle" size="18">10</text></g></g><g id="ProcessOnG1051" transform="matrix(1.0,0.0,0.0,1.0,622.0138854980469,323.3645782470703)" opacity="1.0"><path id="ProcessOnPath1052" d="M0.0 0.0L98.0 0.0L98.0 59.0L0.0 59.0Z" stroke="#323232" stroke-width="2.0" stroke-dasharray="none" opacity="1.0" fill="#ffffff"/></g><g id="ProcessOnG1053" transform="matrix(1.0,0.0,0.0,1.0,720.0138854980469,323.3645782470703)" opacity="1.0"><path id="ProcessOnPath1054" d="M0.0 0.0L98.0 0.0L98.0 59.0L0.0 59.0Z" stroke="#323232" stroke-width="2.0" stroke-dasharray="none" opacity="1.0" fill="#ffffff"/></g><g id="ProcessOnG1055" transform="matrix(1.0,0.0,0.0,1.0,328.0138854980469,379.3645782470703)" opacity="1.0"><path id="ProcessOnPath1056" d="M0.0 0.0L98.0 0.0L98.0 59.0L0.0 59.0Z" stroke="#323232" stroke-width="2.0" stroke-dasharray="none" opacity="1.0" fill="#ffffff"/><g id="ProcessOnG1057" transform="matrix(1.0,0.0,0.0,1.0,10.0,18.25)"><text id="ProcessOnText1058" fill="#000000" font-size="18" x="38.0" y="18.45" font-family="微软雅黑" font-weight="bold" font-style="normal" text-decoration="none" family="微软雅黑" text-anchor="middle" size="18">11</text></g></g><g id="ProcessOnG1059" transform="matrix(1.0,0.0,0.0,1.0,426.0138854980469,379.3645782470703)" opacity="1.0"><path id="ProcessOnPath1060" d="M0.0 0.0L98.0 0.0L98.0 59.0L0.0 59.0Z" stroke="#323232" stroke-width="2.0" stroke-dasharray="none" opacity="1.0" fill="#ffffff"/><g id="ProcessOnG1061" transform="matrix(1.0,0.0,0.0,1.0,10.0,18.25)"><text id="ProcessOnText1062" fill="#000000" font-size="18" x="38.0" y="18.45" font-family="微软雅黑" font-weight="bold" font-style="normal" text-decoration="none" family="微软雅黑" text-anchor="middle" size="18">35</text></g></g><g id="ProcessOnG1063" transform="matrix(1.0,0.0,0.0,1.0,524.0138854980469,379.3645782470703)" opacity="1.0"><path id="ProcessOnPath1064" d="M0.0 0.0L98.0 0.0L98.0 59.0L0.0 59.0Z" stroke="#323232" stroke-width="2.0" stroke-dasharray="none" opacity="1.0" fill="#ffffff"/><g id="ProcessOnG1065" transform="matrix(1.0,0.0,0.0,1.0,10.0,18.25)"><text id="ProcessOnText1066" fill="#000000" font-size="18" x="38.0" y="18.45" font-family="微软雅黑" font-weight="bold" font-style="normal" text-decoration="none" family="微软雅黑" text-anchor="middle" size="18">11</text></g></g><g id="ProcessOnG1067" transform="matrix(1.0,0.0,0.0,1.0,622.0138854980469,379.3645782470703)" opacity="1.0"><path id="ProcessOnPath1068" d="M0.0 0.0L98.0 0.0L98.0 59.0L0.0 59.0Z" stroke="#323232" stroke-width="2.0" stroke-dasharray="none" opacity="1.0" fill="#ffffff"/><g id="ProcessOnG1069" transform="matrix(1.0,0.0,0.0,1.0,10.0,18.25)"><text id="ProcessOnText1070" fill="#000000" font-size="18" x="38.0" y="18.45" font-family="微软雅黑" font-weight="bold" font-style="normal" text-decoration="none" family="微软雅黑" text-anchor="middle" size="18">43</text></g></g><g id="ProcessOnG1071" transform="matrix(1.0,0.0,0.0,1.0,720.0138854980469,379.3645782470703)" opacity="1.0"><path id="ProcessOnPath1072" d="M0.0 0.0L98.0 0.0L98.0 59.0L0.0 59.0Z" stroke="#323232" stroke-width="2.0" stroke-dasharray="none" opacity="1.0" fill="#ffffff"/></g><g id="ProcessOnG1073" transform="matrix(1.0,0.0,0.0,1.0,873.0138854980469,146.3645782470703)" opacity="1.0"><path id="ProcessOnPath1074" d="M0.0 0.0L98.0 0.0L98.0 59.0L0.0 59.0Z" stroke="#323232" stroke-width="2.0" stroke-dasharray="10.0 4.0" opacity="1.0" fill="#ffffff"/><g id="ProcessOnG1075" transform="matrix(1.0,0.0,0.0,1.0,10.0,18.25)"><text id="ProcessOnText1076" fill="#000000" font-size="18" x="38.0" y="18.45" font-family="微软雅黑" font-weight="bold" font-style="normal" text-decoration="none" family="微软雅黑" text-anchor="middle" size="18">overflow</text></g></g><g id="ProcessOnG1077"><path id="ProcessOnPath1078" d="M818.0138854980469 175.8645782470703L845.5138854980469 175.8645782470703L845.5138854980469 175.8645782470703L873.0138854980469 175.8645782470703" stroke="#323232" stroke-width="2.0" stroke-dasharray="10.0 4.0" fill="none" marker-end="url(#ProcessOnMarker1079)"/></g><g id="ProcessOnG1081" transform="matrix(1.0,0.0,0.0,1.0,328.0138854980469,438.3645782470703)" opacity="1.0"><path id="ProcessOnPath1082" d="M0.0 0.0L98.0 0.0L98.0 59.0L0.0 59.0Z" stroke="#323232" stroke-width="2.0" stroke-dasharray="none" opacity="1.0" fill="#ffffff"/><g id="ProcessOnG1083" transform="matrix(1.0,0.0,0.0,1.0,10.0,18.25)"><text id="ProcessOnText1084" fill="#000000" font-size="18" x="38.0" y="18.45" font-family="微软雅黑" font-weight="bold" font-style="normal" text-decoration="none" family="微软雅黑" text-anchor="middle" size="18">00</text></g></g><g id="ProcessOnG1085" transform="matrix(1.0,0.0,0.0,1.0,622.0138854980469,438.3645782470703)" opacity="1.0"><path id="ProcessOnPath1086" d="M0.0 0.0L98.0 0.0L98.0 59.0L0.0 59.0Z" stroke="#323232" stroke-width="2.0" stroke-dasharray="none" opacity="1.0" fill="#ffffff"/></g><g id="ProcessOnG1087" transform="matrix(1.0,0.0,0.0,1.0,720.0138854980469,438.3645782470703)" opacity="1.0"><path id="ProcessOnPath1088" d="M0.0 0.0L98.0 0.0L98.0 59.0L0.0 59.0Z" stroke="#323232" stroke-width="2.0" stroke-dasharray="none" opacity="1.0" fill="#ffffff"/></g><g id="ProcessOnG1089" transform="matrix(1.0,0.0,0.0,1.0,100.34721374511719,214.8645782470703)" opacity="1.0"><path id="ProcessOnPath1090" d="M0.0 0.0L70.0 0.0L70.0 40.0L0.0 40.0Z" stroke="none" stroke-width="0.0" stroke-dasharray="none" opacity="1.0" fill="none"/><g id="ProcessOnG1091" transform="matrix(1.0,0.0,0.0,1.0,0.0,8.75)"><text id="ProcessOnText1092" fill="#000000" font-size="18" x="34.0" y="18.45" font-family="微软雅黑" font-weight="bold" font-style="normal" text-decoration="none" family="微软雅黑" text-anchor="middle" size="18">Next</text></g></g><g id="ProcessOnG1093" transform="matrix(1.0,0.0,0.0,1.0,230.01388549804688,146.3645782470703)" opacity="1.0"><path id="ProcessOnPath1094" d="M0.0 0.0L98.0 0.0L98.0 59.0L0.0 59.0Z" stroke="#323232" stroke-width="2.0" stroke-dasharray="none" opacity="1.0" fill="#ffffff"/><g id="ProcessOnG1095" transform="matrix(1.0,0.0,0.0,1.0,10.0,18.25)"><text id="ProcessOnText1096" fill="#000000" font-size="18" x="38.0" y="18.45" font-family="微软雅黑" font-weight="bold" font-style="normal" text-decoration="none" family="微软雅黑" text-anchor="middle" size="18">h1</text></g></g><g id="ProcessOnG1097" transform="matrix(1.0,0.0,0.0,1.0,230.01388549804688,205.3645782470703)" opacity="1.0"><path id="ProcessOnPath1098" d="M0.0 0.0L98.0 0.0L98.0 59.0L0.0 59.0Z" stroke="#323232" stroke-width="2.0" stroke-dasharray="none" opacity="1.0" fill="#ffffff"/><g id="ProcessOnG1099" transform="matrix(1.0,0.0,0.0,1.0,10.0,18.25)"><text id="ProcessOnText1100" fill="#000000" font-size="18" x="38.0" y="18.45" font-family="微软雅黑" font-weight="bold" font-style="normal" text-decoration="none" family="微软雅黑" text-anchor="middle" size="18">000</text></g></g><g id="ProcessOnG1101" transform="matrix(1.0,0.0,0.0,1.0,230.01388549804688,264.3645782470703)" opacity="1.0"><path id="ProcessOnPath1102" d="M0.0 0.0L98.0 0.0L98.0 59.0L0.0 59.0Z" stroke="#323232" stroke-width="2.0" stroke-dasharray="none" opacity="1.0" fill="#ffffff"/><g id="ProcessOnG1103" transform="matrix(1.0,0.0,0.0,1.0,10.0,18.25)"><text id="ProcessOnText1104" fill="#000000" font-size="18" x="38.0" y="18.45" font-family="微软雅黑" font-weight="bold" font-style="normal" text-decoration="none" family="微软雅黑" text-anchor="middle" size="18">001</text></g></g><g id="ProcessOnG1105" transform="matrix(1.0,0.0,0.0,1.0,230.01388549804688,323.3645782470703)" opacity="1.0"><path id="ProcessOnPath1106" d="M0.0 0.0L98.0 0.0L98.0 59.0L0.0 59.0Z" stroke="#323232" stroke-width="2.0" stroke-dasharray="none" opacity="1.0" fill="#ffffff"/><g id="ProcessOnG1107" transform="matrix(1.0,0.0,0.0,1.0,10.0,18.25)"><text id="ProcessOnText1108" fill="#000000" font-size="18" x="38.0" y="18.45" font-family="微软雅黑" font-weight="bold" font-style="normal" text-decoration="none" family="微软雅黑" text-anchor="middle" size="18">010</text></g></g><g id="ProcessOnG1109" transform="matrix(1.0,0.0,0.0,1.0,230.01388549804688,379.3645782470703)" opacity="1.0"><path id="ProcessOnPath1110" d="M0.0 0.0L98.0 0.0L98.0 59.0L0.0 59.0Z" stroke="#323232" stroke-width="2.0" stroke-dasharray="none" opacity="1.0" fill="#ffffff"/><g id="ProcessOnG1111" transform="matrix(1.0,0.0,0.0,1.0,10.0,18.25)"><text id="ProcessOnText1112" fill="#000000" font-size="18" x="38.0" y="18.45" font-family="微软雅黑" font-weight="bold" font-style="normal" text-decoration="none" family="微软雅黑" text-anchor="middle" size="18">011</text></g></g><g id="ProcessOnG1113" transform="matrix(1.0,0.0,0.0,1.0,230.01388549804688,438.3645782470703)" opacity="1.0"><path id="ProcessOnPath1114" d="M0.0 0.0L98.0 0.0L98.0 59.0L0.0 59.0Z" stroke="#323232" stroke-width="2.0" stroke-dasharray="none" opacity="1.0" fill="#ffffff"/><g id="ProcessOnG1115" transform="matrix(1.0,0.0,0.0,1.0,10.0,18.25)"><text id="ProcessOnText1116" fill="#000000" font-size="18" x="38.0" y="18.45" font-family="微软雅黑" font-weight="bold" font-style="normal" text-decoration="none" family="微软雅黑" text-anchor="middle" size="18">100</text></g></g><g id="ProcessOnG1117"><path id="ProcessOnPath1118" d="M227.01388549804688 235.8645782470703L195.5694351196289 235.8645782470703L195.5694351196289 235.8645782470703L164.12498474121094 235.8645782470703" stroke="#ff8000" stroke-width="2.0" stroke-dasharray="10.0 4.0" fill="none" marker-start="url(#ProcessOnMarker1119)"/></g><g id="ProcessOnG1121" transform="matrix(1.0,0.0,0.0,1.0,426.0138854980469,438.3645782470703)" opacity="1.0"><path id="ProcessOnPath1122" d="M0.0 0.0L98.0 0.0L98.0 59.0L0.0 59.0Z" stroke="#000000" stroke-width="2.0" stroke-dasharray="none" opacity="1.0" fill="#ffffff"/><g id="ProcessOnG1123" transform="matrix(1.0,0.0,0.0,1.0,10.0,18.25)"><text id="ProcessOnText1124" fill="#000000" font-size="18" x="38.0" y="18.45" font-family="微软雅黑" font-weight="bold" font-style="normal" text-decoration="none" family="微软雅黑" text-anchor="middle" size="18">44</text></g></g><g id="ProcessOnG1125" transform="matrix(1.0,0.0,0.0,1.0,524.0138854980469,438.3645782470703)" opacity="1.0"><path id="ProcessOnPath1126" d="M0.0 0.0L98.0 0.0L98.0 59.0L0.0 59.0Z" stroke="#000000" stroke-width="2.0" stroke-dasharray="none" opacity="1.0" fill="#ffffff"/><g id="ProcessOnG1127" transform="matrix(1.0,0.0,0.0,1.0,10.0,18.25)"><text id="ProcessOnText1128" fill="#000000" font-size="18" x="38.0" y="18.45" font-family="微软雅黑" font-weight="bold" font-style="normal" text-decoration="none" family="微软雅黑" text-anchor="middle" size="18">36</text></g></g><g id="ProcessOnG1129" transform="matrix(1.0,0.0,0.0,1.0,328.0138854980469,497.3645782470703)" opacity="1.0"><path id="ProcessOnPath1130" d="M0.0 0.0L98.0 0.0L98.0 59.0L0.0 59.0Z" stroke="#323232" stroke-width="2.0" stroke-dasharray="none" opacity="1.0" fill="#ffffff"/><g id="ProcessOnG1131" transform="matrix(1.0,0.0,0.0,1.0,10.0,18.25)"><text id="ProcessOnText1132" fill="#000000" font-size="18" x="38.0" y="18.45" font-family="微软雅黑" font-weight="bold" font-style="normal" text-decoration="none" family="微软雅黑" text-anchor="middle" size="18">01</text></g></g><g id="ProcessOnG1133" transform="matrix(1.0,0.0,0.0,1.0,720.0138854980469,497.3645782470703)" opacity="1.0"><path id="ProcessOnPath1134" d="M0.0 0.0L98.0 0.0L98.0 59.0L0.0 59.0Z" stroke="#323232" stroke-width="2.0" stroke-dasharray="none" opacity="1.0" fill="#ffffff"/></g><g id="ProcessOnG1135" transform="matrix(1.0,0.0,0.0,1.0,230.01388549804688,497.3645782470703)" opacity="1.0"><path id="ProcessOnPath1136" d="M0.0 0.0L98.0 0.0L98.0 59.0L0.0 59.0Z" stroke="#323232" stroke-width="2.0" stroke-dasharray="none" opacity="1.0" fill="#ffffff"/><g id="ProcessOnG1137" transform="matrix(1.0,0.0,0.0,1.0,10.0,18.25)"><text id="ProcessOnText1138" fill="#000000" font-size="18" x="38.0" y="18.45" font-family="微软雅黑" font-weight="bold" font-style="normal" text-decoration="none" family="微软雅黑" text-anchor="middle" size="18">101</text></g></g><g id="ProcessOnG1139" transform="matrix(1.0,0.0,0.0,1.0,426.0138854980469,497.3645782470703)" opacity="1.0"><path id="ProcessOnPath1140" d="M0.0 0.0L98.0 0.0L98.0 59.0L0.0 59.0Z" stroke="#000000" stroke-width="2.0" stroke-dasharray="none" opacity="1.0" fill="#ffffff"/><g id="ProcessOnG1141" transform="matrix(1.0,0.0,0.0,1.0,10.0,18.25)"><text id="ProcessOnText1142" fill="#000000" font-size="18" x="38.0" y="18.45" font-family="微软雅黑" font-weight="bold" font-style="normal" text-decoration="none" family="微软雅黑" text-anchor="middle" size="18">5</text></g></g><g id="ProcessOnG1143" transform="matrix(1.0,0.0,0.0,1.0,524.0138854980469,497.3645782470703)" opacity="1.0"><path id="ProcessOnPath1144" d="M0.0 0.0L98.0 0.0L98.0 59.0L0.0 59.0Z" stroke="#000000" stroke-width="2.0" stroke-dasharray="none" opacity="1.0" fill="#ffffff"/><g id="ProcessOnG1145" transform="matrix(1.0,0.0,0.0,1.0,10.0,18.25)"><text id="ProcessOnText1146" fill="#000000" font-size="18" x="38.0" y="18.45" font-family="微软雅黑" font-weight="bold" font-style="normal" text-decoration="none" family="微软雅黑" text-anchor="middle" size="18">37</text></g></g><g id="ProcessOnG1147" transform="matrix(1.0,0.0,0.0,1.0,622.0138854980469,497.3645782470703)" opacity="1.0"><path id="ProcessOnPath1148" d="M0.0 0.0L98.0 0.0L98.0 59.0L0.0 59.0Z" stroke="#000000" stroke-width="2.0" stroke-dasharray="none" opacity="1.0" fill="#ffffff"/><g id="ProcessOnG1149" transform="matrix(1.0,0.0,0.0,1.0,10.0,18.25)"><text id="ProcessOnText1150" fill="#000000" font-size="18" x="38.0" y="18.45" font-family="微软雅黑" font-weight="bold" font-style="normal" text-decoration="none" family="微软雅黑" text-anchor="middle" size="18">29</text></g></g><g id="ProcessOnG1151" transform="matrix(1.0,0.0,0.0,1.0,622.0138854980469,264.3645782470703)" opacity="1.0"><path id="ProcessOnPath1152" d="M0.0 0.0L98.0 0.0L98.0 59.0L0.0 59.0Z" stroke="#000000" stroke-width="2.0" stroke-dasharray="none" opacity="1.0" fill="#ffffff"/><g id="ProcessOnG1153" transform="matrix(1.0,0.0,0.0,1.0,10.0,18.25)"><text id="ProcessOnText1154" fill="#000000" font-size="18" x="38.0" y="18.45" font-family="微软雅黑" font-weight="bold" font-style="normal" text-decoration="none" family="微软雅黑" text-anchor="middle" size="18">17</text></g></g><g id="ProcessOnG1155" transform="matrix(1.0,0.0,0.0,1.0,720.0138854980469,264.3645782470703)" opacity="1.0"><path id="ProcessOnPath1156" d="M0.0 0.0L98.0 0.0L98.0 59.0L0.0 59.0Z" stroke="#000000" stroke-width="2.0" stroke-dasharray="none" opacity="1.0" fill="#ffffff"/><g id="ProcessOnG1157" transform="matrix(1.0,0.0,0.0,1.0,10.0,18.25)"><text id="ProcessOnText1158" fill="#000000" font-size="18" x="38.0" y="18.45" font-family="微软雅黑" font-weight="bold" font-style="normal" text-decoration="none" family="微软雅黑" text-anchor="middle" size="18">33</text></g></g><g id="ProcessOnG1159" transform="matrix(1.0,0.0,0.0,1.0,873.0138854980469,264.3645782470703)" opacity="1.0"><path id="ProcessOnPath1160" d="M0.0 0.0L98.0 0.0L98.0 59.0L0.0 59.0Z" stroke="#000000" stroke-width="2.0" stroke-dasharray="none" opacity="1.0" fill="#ffffff"/><g id="ProcessOnG1161" transform="matrix(1.0,0.0,0.0,1.0,10.0,18.25)"><text id="ProcessOnText1162" fill="#000000" font-size="18" x="38.0" y="18.45" font-family="微软雅黑" font-weight="bold" font-style="normal" text-decoration="none" family="微软雅黑" text-anchor="middle" size="18">41</text></g></g><g id="ProcessOnG1163"><path id="ProcessOnPath1164" d="M818.0138854980469 293.8645782470703L845.5138854980469 293.8645782470703L845.5138854980469 293.8645782470703L873.0138854980469 293.8645782470703" stroke="#323232" stroke-width="2.0" stroke-dasharray="10.0 4.0" fill="none" marker-end="url(#ProcessOnMarker1165)"/></g><g id="ProcessOnG1167" transform="matrix(1.0,0.0,0.0,1.0,328.0138854980469,556.3645782470703)" opacity="1.0"><path id="ProcessOnPath1168" d="M0.0 0.0L98.0 0.0L98.0 59.0L0.0 59.0Z" stroke="#323232" stroke-width="2.0" stroke-dasharray="none" opacity="1.0" fill="#ffffff"/><g id="ProcessOnG1169" transform="matrix(1.0,0.0,0.0,1.0,10.0,18.25)"><text id="ProcessOnText1170" fill="#000000" font-size="18" x="38.0" y="18.45" font-family="微软雅黑" font-weight="bold" font-style="normal" text-decoration="none" family="微软雅黑" text-anchor="middle" size="18">10</text></g></g><g id="ProcessOnG1171" transform="matrix(1.0,0.0,0.0,1.0,720.0138854980469,556.3645782470703)" opacity="1.0"><path id="ProcessOnPath1172" d="M0.0 0.0L98.0 0.0L98.0 59.0L0.0 59.0Z" stroke="#323232" stroke-width="2.0" stroke-dasharray="none" opacity="1.0" fill="#ffffff"/></g><g id="ProcessOnG1173" transform="matrix(1.0,0.0,0.0,1.0,230.01388549804688,556.3645782470703)" opacity="1.0"><path id="ProcessOnPath1174" d="M0.0 0.0L98.0 0.0L98.0 59.0L0.0 59.0Z" stroke="#323232" stroke-width="2.0" stroke-dasharray="none" opacity="1.0" fill="#ffffff"/><g id="ProcessOnG1175" transform="matrix(1.0,0.0,0.0,1.0,10.0,18.25)"><text id="ProcessOnText1176" fill="#000000" font-size="18" x="38.0" y="18.45" font-family="微软雅黑" font-weight="bold" font-style="normal" text-decoration="none" family="微软雅黑" text-anchor="middle" size="18">110</text></g></g><g id="ProcessOnG1177" transform="matrix(1.0,0.0,0.0,1.0,524.0138854980469,556.3645782470703)" opacity="1.0"><path id="ProcessOnPath1178" d="M0.0 0.0L98.0 0.0L98.0 59.0L0.0 59.0Z" stroke="#000000" stroke-width="2.0" stroke-dasharray="none" opacity="1.0" fill="#ffffff"/><g id="ProcessOnG1179" transform="matrix(1.0,0.0,0.0,1.0,10.0,18.25)"><text id="ProcessOnText1180" fill="#000000" font-size="18" x="38.0" y="18.45" font-family="微软雅黑" font-weight="bold" font-style="normal" text-decoration="none" family="微软雅黑" text-anchor="middle" size="18">30</text></g></g><g id="ProcessOnG1181" transform="matrix(1.0,0.0,0.0,1.0,622.0138854980469,556.3645782470703)" opacity="1.0"><path id="ProcessOnPath1182" d="M0.0 0.0L98.0 0.0L98.0 59.0L0.0 59.0Z" stroke="#000000" stroke-width="2.0" stroke-dasharray="none" opacity="1.0" fill="#ffffff"/></g><g id="ProcessOnG1183" transform="matrix(1.0,0.0,0.0,1.0,426.0138854980469,556.3645782470703)" opacity="1.0"><path id="ProcessOnPath1184" d="M0.0 0.0L98.0 0.0L98.0 59.0L0.0 59.0Z" stroke="#000000" stroke-width="2.0" stroke-dasharray="none" opacity="1.0" fill="#ffffff"/><g id="ProcessOnG1185" transform="matrix(1.0,0.0,0.0,1.0,10.0,18.25)"><text id="ProcessOnText1186" fill="#000000" font-size="18" x="38.0" y="18.45" font-family="微软雅黑" font-weight="bold" font-style="normal" text-decoration="none" family="微软雅黑" text-anchor="middle" size="18">14</text></g></g><g id="ProcessOnG1187" transform="matrix(1.0,0.0,0.0,1.0,1031.0138854980469,264.3645782470703)" opacity="1.0"><path id="ProcessOnPath1188" d="M0.0 0.0L98.0 0.0L98.0 59.0L0.0 59.0Z" stroke="#ff8000" stroke-width="2.0" stroke-dasharray="none" opacity="1.0" fill="#ffffff"/><g id="ProcessOnG1189" transform="matrix(1.0,0.0,0.0,1.0,10.0,18.25)"><text id="ProcessOnText1190" fill="#000000" font-size="18" x="38.0" y="18.45" font-family="微软雅黑" font-weight="bold" font-style="normal" text-decoration="none" family="微软雅黑" text-anchor="middle" size="18">57</text></g></g><g id="ProcessOnG1191"><path id="ProcessOnPath1192" d="M971.0138854980469 293.8645782470703L1001.0138854980469 293.8645782470703L1001.0138854980469 293.8645782470703L1031.0138854980469 293.8645782470703" stroke="#323232" stroke-width="2.0" stroke-dasharray="10.0 4.0" fill="none" marker-end="url(#ProcessOnMarker1193)"/></g><g id="ProcessOnG1195" transform="matrix(1.0,0.0,0.0,1.0,328.0138854980469,615.3645782470703)" opacity="1.0"><path id="ProcessOnPath1196" d="M0.0 0.0L98.0 0.0L98.0 59.0L0.0 59.0Z" stroke="#323232" stroke-width="2.0" stroke-dasharray="none" opacity="1.0" fill="#ffffff"/><g id="ProcessOnG1197" transform="matrix(1.0,0.0,0.0,1.0,10.0,18.25)"><text id="ProcessOnText1198" fill="#000000" font-size="18" x="38.0" y="18.45" font-family="微软雅黑" font-weight="bold" font-style="normal" text-decoration="none" family="微软雅黑" text-anchor="middle" size="18">11</text></g></g><g id="ProcessOnG1199" transform="matrix(1.0,0.0,0.0,1.0,720.0138854980469,615.3645782470703)" opacity="1.0"><path id="ProcessOnPath1200" d="M0.0 0.0L98.0 0.0L98.0 59.0L0.0 59.0Z" stroke="#323232" stroke-width="2.0" stroke-dasharray="none" opacity="1.0" fill="#ffffff"/></g><g id="ProcessOnG1201" transform="matrix(1.0,0.0,0.0,1.0,230.01388549804688,615.3645782470703)" opacity="1.0"><path id="ProcessOnPath1202" d="M0.0 0.0L98.0 0.0L98.0 59.0L0.0 59.0Z" stroke="#323232" stroke-width="2.0" stroke-dasharray="none" opacity="1.0" fill="#ffffff"/><g id="ProcessOnG1203" transform="matrix(1.0,0.0,0.0,1.0,10.0,18.25)"><text id="ProcessOnText1204" fill="#000000" font-size="18" x="38.0" y="18.45" font-family="微软雅黑" font-weight="bold" font-style="normal" text-decoration="none" family="微软雅黑" text-anchor="middle" size="18">111</text></g></g><g id="ProcessOnG1205" transform="matrix(1.0,0.0,0.0,1.0,622.0138854980469,615.3645782470703)" opacity="1.0"><path id="ProcessOnPath1206" d="M0.0 0.0L98.0 0.0L98.0 59.0L0.0 59.0Z" stroke="#000000" stroke-width="2.0" stroke-dasharray="none" opacity="1.0" fill="#ffffff"/></g><g id="ProcessOnG1207" transform="matrix(1.0,0.0,0.0,1.0,426.0138854980469,615.3645782470703)" opacity="1.0"><path id="ProcessOnPath1208" d="M0.0 0.0L98.0 0.0L98.0 59.0L0.0 59.0Z" stroke="#ff8000" stroke-width="2.0" stroke-dasharray="none" opacity="1.0" fill="#ffffff"/><g id="ProcessOnG1209" transform="matrix(1.0,0.0,0.0,1.0,10.0,18.25)"><text id="ProcessOnText1210" fill="#000000" font-size="18" x="38.0" y="18.45" font-family="微软雅黑" font-weight="bold" font-style="normal" text-decoration="none" family="微软雅黑" text-anchor="middle" size="18">31</text></g></g><g id="ProcessOnG1211" transform="matrix(1.0,0.0,0.0,1.0,524.0138854980469,615.3645782470703)" opacity="1.0"><path id="ProcessOnPath1212" d="M0.0 0.0L98.0 0.0L98.0 59.0L0.0 59.0Z" stroke="#ff8000" stroke-width="2.0" stroke-dasharray="none" opacity="1.0" fill="#ffffff"/><g id="ProcessOnG1213" transform="matrix(1.0,0.0,0.0,1.0,10.0,18.25)"><text id="ProcessOnText1214" fill="#000000" font-size="18" x="38.0" y="18.45" font-family="微软雅黑" font-weight="bold" font-style="normal" text-decoration="none" family="微软雅黑" text-anchor="middle" size="18">7</text></g></g></g></g></svg>