<svg xmlns="http://www.w3.org/2000/svg" xmlns:xlink="http://www.w3.org/1999/xlink" id="processonSvg1000" viewBox="77.2346148071 47.00000000000023 1019.7792706909469 653.6979064941404" width="1019.7792706909469" height="653.6979064941404"><defs id="ProcessOnDefs1001"><marker id="ProcessOnMarker1019" markerUnits="userSpaceOnUse" orient="auto" markerWidth="16.23606797749979" markerHeight="10.550836550532098" viewBox="-1.0 -1.3763819204711736 16.23606797749979 10.550836550532098" refX="-1.0" refY="3.8990363547948754"><path id="ProcessOnPath1020" d="M12.0 3.8990363547948754L0.0 7.798072709589751V0.0Z" stroke="#323232" stroke-width="2.0" fill="#323232" transform="matrix(1.0,0.0,0.0,1.0,0.0,0.0)"/></marker><marker id="ProcessOnMarker1023" markerUnits="userSpaceOnUse" orient="auto" markerWidth="16.23606797749979" markerHeight="10.550836550532098" viewBox="-1.0 -1.3763819204711736 16.23606797749979 10.550836550532098" refX="-1.0" refY="3.8990363547948754"><path id="ProcessOnPath1024" d="M12.0 3.8990363547948754L0.0 7.798072709589751V0.0Z" stroke="#323232" stroke-width="2.0" fill="#323232" transform="matrix(1.0,0.0,0.0,1.0,0.0,0.0)"/></marker><marker id="ProcessOnMarker1027" markerUnits="userSpaceOnUse" orient="auto" markerWidth="16.23606797749979" markerHeight="10.550836550532098" viewBox="-1.0 -1.3763819204711736 16.23606797749979 10.550836550532098" refX="-1.0" refY="3.8990363547948754"><path id="ProcessOnPath1028" d="M12.0 3.8990363547948754L0.0 7.798072709589751V0.0Z" stroke="#323232" stroke-width="2.0" fill="#323232" transform="matrix(1.0,0.0,0.0,1.0,0.0,0.0)"/></marker><marker id="ProcessOnMarker1031" markerUnits="userSpaceOnUse" orient="auto" markerWidth="16.23606797749979" markerHeight="10.550836550532098" viewBox="-1.0 -1.3763819204711736 16.23606797749979 10.550836550532098" refX="-1.0" refY="3.8990363547948754"><path id="ProcessOnPath1032" d="M12.0 3.8990363547948754L0.0 7.798072709589751V0.0Z" stroke="#323232" stroke-width="2.0" fill="#323232" transform="matrix(1.0,0.0,0.0,1.0,0.0,0.0)"/></marker><marker id="ProcessOnMarker1043" markerUnits="userSpaceOnUse" orient="auto" markerWidth="16.23606797749979" markerHeight="10.550836550532098" viewBox="-1.0 -1.3763819204711736 16.23606797749979 10.550836550532098" refX="-1.0" refY="3.8990363547948754"><path id="ProcessOnPath1044" d="M12.0 3.8990363547948754L0.0 7.798072709589751V0.0Z" stroke="#323232" stroke-width="2.0" fill="#323232" transform="matrix(1.0,0.0,0.0,1.0,0.0,0.0)"/></marker><marker id="ProcessOnMarker1047" markerUnits="userSpaceOnUse" orient="auto" markerWidth="16.23606797749979" markerHeight="10.550836550532098" viewBox="-1.0 -1.3763819204711736 16.23606797749979 10.550836550532098" refX="-1.0" refY="3.8990363547948754"><path id="ProcessOnPath1048" d="M12.0 3.8990363547948754L0.0 7.798072709589751V0.0Z" stroke="#323232" stroke-width="2.0" fill="#323232" transform="matrix(1.0,0.0,0.0,1.0,0.0,0.0)"/></marker><marker id="ProcessOnMarker1075" markerUnits="userSpaceOnUse" orient="auto" markerWidth="16.23606797749979" markerHeight="10.550836550532098" viewBox="-1.0 -1.3763819204711736 16.23606797749979 10.550836550532098" refX="-1.0" refY="3.8990363547948754"><path id="ProcessOnPath1076" d="M12.0 3.8990363547948754L0.0 7.798072709589751V0.0Z" stroke="#323232" stroke-width="2.0" fill="#323232" transform="matrix(1.0,0.0,0.0,1.0,0.0,0.0)"/></marker><marker id="ProcessOnMarker1079" markerUnits="userSpaceOnUse" orient="auto" markerWidth="16.23606797749979" markerHeight="10.550836550532098" viewBox="-1.0 -1.3763819204711736 16.23606797749979 10.550836550532098" refX="-1.0" refY="3.8990363547948754"><path id="ProcessOnPath1080" d="M12.0 3.8990363547948754L0.0 7.798072709589751V0.0Z" stroke="#323232" stroke-width="2.0" fill="#323232" transform="matrix(1.0,0.0,0.0,1.0,0.0,0.0)"/></marker><marker id="ProcessOnMarker1083" markerUnits="userSpaceOnUse" orient="auto" markerWidth="16.23606797749979" markerHeight="10.550836550532098" viewBox="-1.0 -1.3763819204711736 16.23606797749979 10.550836550532098" refX="-1.0" refY="3.8990363547948754"><path id="ProcessOnPath1084" d="M12.0 3.8990363547948754L0.0 7.798072709589751V0.0Z" stroke="#323232" stroke-width="2.0" fill="#323232" transform="matrix(1.0,0.0,0.0,1.0,0.0,0.0)"/></marker><marker id="ProcessOnMarker1087" markerUnits="userSpaceOnUse" orient="auto" markerWidth="16.23606797749979" markerHeight="10.550836550532098" viewBox="-1.0 -1.3763819204711736 16.23606797749979 10.550836550532098" refX="-1.0" refY="3.8990363547948754"><path id="ProcessOnPath1088" d="M12.0 3.8990363547948754L0.0 7.798072709589751V0.0Z" stroke="#323232" stroke-width="2.0" fill="#323232" transform="matrix(1.0,0.0,0.0,1.0,0.0,0.0)"/></marker><marker id="ProcessOnMarker1095" markerUnits="userSpaceOnUse" orient="auto" markerWidth="14.289086868996552" markerHeight="19.055054660878554" viewBox="-0.5877852522924731 -0.8090169943749475 14.289086868996552 19.055054660878554" refX="12.0" refY="8.71851033606433"><path id="ProcessOnPath1096" d="M0 0L12.0 8.71851033606433L0 17.43702067212866" stroke="#323232" stroke-width="2.0" fill="none" transform="matrix(1.0,0.0,0.0,1.0,0.0,0.0)"/></marker><marker id="ProcessOnMarker1118" markerUnits="userSpaceOnUse" orient="auto" markerWidth="16.23606797749979" markerHeight="10.550836550532098" viewBox="-1.0 -1.3763819204711736 16.23606797749979 10.550836550532098" refX="-1.0" refY="3.8990363547948754"><path id="ProcessOnPath1119" d="M12.0 3.8990363547948754L0.0 7.798072709589751V0.0Z" stroke="#323232" stroke-width="2.0" fill="#323232" transform="matrix(1.0,0.0,0.0,1.0,0.0,0.0)"/></marker><marker id="ProcessOnMarker1122" markerUnits="userSpaceOnUse" orient="auto" markerWidth="16.23606797749979" markerHeight="10.550836550532098" viewBox="-1.0 -1.3763819204711736 16.23606797749979 10.550836550532098" refX="-1.0" refY="3.8990363547948754"><path id="ProcessOnPath1123" d="M12.0 3.8990363547948754L0.0 7.798072709589751V0.0Z" stroke="#323232" stroke-width="2.0" fill="#323232" transform="matrix(1.0,0.0,0.0,1.0,0.0,0.0)"/></marker><marker id="ProcessOnMarker1126" markerUnits="userSpaceOnUse" orient="auto" markerWidth="16.23606797749979" markerHeight="10.550836550532098" viewBox="-1.0 -1.3763819204711736 16.23606797749979 10.550836550532098" refX="-1.0" refY="3.8990363547948754"><path id="ProcessOnPath1127" d="M12.0 3.8990363547948754L0.0 7.798072709589751V0.0Z" stroke="#323232" stroke-width="2.0" fill="#323232" transform="matrix(1.0,0.0,0.0,1.0,0.0,0.0)"/></marker><marker id="ProcessOnMarker1130" markerUnits="userSpaceOnUse" orient="auto" markerWidth="16.23606797749979" markerHeight="10.550836550532098" viewBox="-1.0 -1.3763819204711736 16.23606797749979 10.550836550532098" refX="-1.0" refY="3.8990363547948754"><path id="ProcessOnPath1131" d="M12.0 3.8990363547948754L0.0 7.798072709589751V0.0Z" stroke="#323232" stroke-width="2.0" fill="#323232" transform="matrix(1.0,0.0,0.0,1.0,0.0,0.0)"/></marker><marker id="ProcessOnMarker1138" markerUnits="userSpaceOnUse" orient="auto" markerWidth="16.23606797749979" markerHeight="10.550836550532098" viewBox="-1.0 -1.3763819204711736 16.23606797749979 10.550836550532098" refX="-1.0" refY="3.8990363547948754"><path id="ProcessOnPath1139" d="M12.0 3.8990363547948754L0.0 7.798072709589751V0.0Z" stroke="#323232" stroke-width="2.0" fill="#323232" transform="matrix(1.0,0.0,0.0,1.0,0.0,0.0)"/></marker><marker id="ProcessOnMarker1142" markerUnits="userSpaceOnUse" orient="auto" markerWidth="16.23606797749979" markerHeight="10.550836550532098" viewBox="-1.0 -1.3763819204711736 16.23606797749979 10.550836550532098" refX="-1.0" refY="3.8990363547948754"><path id="ProcessOnPath1143" d="M12.0 3.8990363547948754L0.0 7.798072709589751V0.0Z" stroke="#323232" stroke-width="2.0" fill="#323232" transform="matrix(1.0,0.0,0.0,1.0,0.0,0.0)"/></marker><marker id="ProcessOnMarker1170" markerUnits="userSpaceOnUse" orient="auto" markerWidth="16.23606797749979" markerHeight="10.550836550532098" viewBox="-1.0 -1.3763819204711736 16.23606797749979 10.550836550532098" refX="-1.0" refY="3.8990363547948754"><path id="ProcessOnPath1171" d="M12.0 3.8990363547948754L0.0 7.798072709589751V0.0Z" stroke="#323232" stroke-width="2.0" fill="#323232" transform="matrix(1.0,0.0,0.0,1.0,0.0,0.0)"/></marker><marker id="ProcessOnMarker1174" markerUnits="userSpaceOnUse" orient="auto" markerWidth="16.23606797749979" markerHeight="10.550836550532098" viewBox="-1.0 -1.3763819204711736 16.23606797749979 10.550836550532098" refX="-1.0" refY="3.8990363547948754"><path id="ProcessOnPath1175" d="M12.0 3.8990363547948754L0.0 7.798072709589751V0.0Z" stroke="#323232" stroke-width="2.0" fill="#323232" transform="matrix(1.0,0.0,0.0,1.0,0.0,0.0)"/></marker><marker id="ProcessOnMarker1178" markerUnits="userSpaceOnUse" orient="auto" markerWidth="16.23606797749979" markerHeight="10.550836550532098" viewBox="-1.0 -1.3763819204711736 16.23606797749979 10.550836550532098" refX="-1.0" refY="3.8990363547948754"><path id="ProcessOnPath1179" d="M12.0 3.8990363547948754L0.0 7.798072709589751V0.0Z" stroke="#323232" stroke-width="2.0" fill="#323232" transform="matrix(1.0,0.0,0.0,1.0,0.0,0.0)"/></marker><marker id="ProcessOnMarker1186" markerUnits="userSpaceOnUse" orient="auto" markerWidth="16.23606797749979" markerHeight="10.550836550532098" viewBox="-1.0 -1.3763819204711736 16.23606797749979 10.550836550532098" refX="-1.0" refY="3.8990363547948754"><path id="ProcessOnPath1187" d="M12.0 3.8990363547948754L0.0 7.798072709589751V0.0Z" stroke="#323232" stroke-width="2.0" fill="#323232" transform="matrix(1.0,0.0,0.0,1.0,0.0,0.0)"/></marker></defs><g id="ProcessOnG1002"><path id="ProcessOnPath1003" d="M77.2346148071 47.00000000000023H1097.0138854980469V700.6979064941406H77.2346148071V47.00000000000023Z" fill="none"/><g id="ProcessOnG1004"><g id="ProcessOnG1005" transform="matrix(1.0,0.0,0.0,1.0,319.0,67.00000000000023)" opacity="1.0"><path id="ProcessOnPath1006" d="M0.0 35.0C0.0 -11.666666666666666 70.0 -11.666666666666666 70.0 35.0C70.0 81.66666666666667 0.0 81.66666666666667 0.0 35.0Z" stroke="#323232" stroke-width="2.0" stroke-dasharray="none" opacity="1.0" fill="#cfcfcf"/><g id="ProcessOnG1007" transform="matrix(1.0,0.0,0.0,1.0,10.0,16.25)"><text id="ProcessOnText1008" fill="#ffffff" font-size="30" x="24.0" y="30.75" font-family="微软雅黑" font-weight="bold" font-style="normal" text-decoration="none" family="微软雅黑" text-anchor="middle" size="30">P</text></g></g><g id="ProcessOnG1009" transform="matrix(1.0,0.0,0.0,1.0,231.0,203.99999999999977)" opacity="1.0"><path id="ProcessOnPath1010" d="M0.0 35.0C0.0 -11.666666666666666 70.0 -11.666666666666666 70.0 35.0C70.0 81.66666666666667 0.0 81.66666666666667 0.0 35.0Z" stroke="#323232" stroke-width="2.0" stroke-dasharray="none" opacity="1.0" fill="#000000"/><g id="ProcessOnG1011" transform="matrix(1.0,0.0,0.0,1.0,10.0,16.25)"><text id="ProcessOnText1012" fill="#ffffff" font-size="30" x="24.0" y="30.75" font-family="微软雅黑" font-weight="bold" font-style="normal" text-decoration="none" family="微软雅黑" text-anchor="middle" size="30">N</text></g></g><g id="ProcessOnG1013" transform="matrix(1.0,0.0,0.0,1.0,407.0,203.99999999999977)" opacity="1.0"><path id="ProcessOnPath1014" d="M0.0 35.0C0.0 -11.666666666666666 70.0 -11.666666666666666 70.0 35.0C70.0 81.66666666666667 0.0 81.66666666666667 0.0 35.0Z" stroke="#323232" stroke-width="2.0" stroke-dasharray="none" opacity="1.0" fill="#000000"/><g id="ProcessOnG1015" transform="matrix(1.0,0.0,0.0,1.0,10.0,16.25)"><text id="ProcessOnText1016" fill="#ffffff" font-size="30" x="24.0" y="30.75" font-family="微软雅黑" font-weight="bold" font-style="normal" text-decoration="none" family="微软雅黑" text-anchor="middle" size="30">S</text></g></g><g id="ProcessOnG1017"><path id="ProcessOnPath1018" d="M331.86788218175525 128.90423977855517L276.0467574109132 192.5457242506887" stroke="#323232" stroke-width="2.0" stroke-dasharray="none" fill="none" marker-end="url(#ProcessOnMarker1019)"/></g><g id="ProcessOnG1021"><path id="ProcessOnPath1022" d="M375.4264235636492 130.18084795571122L431.7960677677944 192.68551660854425" stroke="#323232" stroke-width="2.0" stroke-dasharray="none" fill="none" marker-end="url(#ProcessOnMarker1023)"/></g><g id="ProcessOnG1025"><path id="ProcessOnPath1026" d="M239.84410771364176 262.9284111947314L214.0361787631629 312.62106362700683" stroke="#323232" stroke-width="2.0" stroke-dasharray="none" fill="none" marker-end="url(#ProcessOnMarker1027)"/></g><g id="ProcessOnG1029"><path id="ProcessOnPath1030" d="M458.1686489745655 270.32973366909073L482.0974937730378 317.4171735194125" stroke="#323232" stroke-width="2.0" stroke-dasharray="none" fill="none" marker-end="url(#ProcessOnMarker1031)"/></g><g id="ProcessOnG1033" transform="matrix(1.0,0.0,0.0,1.0,174.01388549804688,326.14234924316406)" opacity="1.0"><path id="ProcessOnPath1034" d="M33.0 0.0L66.0 50.55555725097656L0.0 50.55555725097656Z" stroke="#323232" stroke-width="2.0" stroke-dasharray="none" opacity="1.0" fill="#ffffff"/><g id="ProcessOnG1035" transform="matrix(1.0,0.0,0.0,1.0,10.0,19.09722328186035)"><text id="ProcessOnText1036" fill="#000000" font-size="20" x="22.0" y="20.5" font-family="微软雅黑" font-weight="bold" font-style="normal" text-decoration="none" family="微软雅黑" text-anchor="middle" size="20">T1</text></g></g><g id="ProcessOnG1037" transform="matrix(1.0,0.0,0.0,1.0,265.0138854980469,326.14234924316406)" opacity="1.0"><path id="ProcessOnPath1038" d="M35.0 0.0L70.0 50.55555725097656L0.0 50.55555725097656Z" stroke="#323232" stroke-width="2.0" stroke-dasharray="none" opacity="1.0" fill="#ffffff"/><g id="ProcessOnG1039" transform="matrix(1.0,0.0,0.0,1.0,10.0,19.09722328186035)"><text id="ProcessOnText1040" fill="#000000" font-size="20" x="24.0" y="20.5" font-family="微软雅黑" font-weight="bold" font-style="normal" text-decoration="none" family="微软雅黑" text-anchor="middle" size="20">T2</text></g></g><g id="ProcessOnG1041"><path id="ProcessOnPath1042" d="M283.7460307128248 269.4234258820541L295.8133099323125 311.49677201549736" stroke="#323232" stroke-width="2.0" stroke-dasharray="none" fill="none" marker-end="url(#ProcessOnMarker1043)"/></g><g id="ProcessOnG1045"><path id="ProcessOnPath1046" d="M425.0138854980469 269.41029843559517L403.30819454012715 317.1311698741779" stroke="#323232" stroke-width="2.0" stroke-dasharray="none" fill="none" marker-end="url(#ProcessOnMarker1047)"/></g><g id="ProcessOnG1049" transform="matrix(1.0,0.0,0.0,1.0,362.0,330.9999999999998)" opacity="1.0"><path id="ProcessOnPath1050" d="M0.0 35.0C0.0 -11.666666666666666 70.0 -11.666666666666666 70.0 35.0C70.0 81.66666666666667 0.0 81.66666666666667 0.0 35.0Z" stroke="#323232" stroke-width="2.0" stroke-dasharray="none" opacity="1.0" fill="#ff0000"/><g id="ProcessOnG1051" transform="matrix(1.0,0.0,0.0,1.0,10.0,16.25)"><text id="ProcessOnText1052" fill="#ffffff" font-size="30" x="24.0" y="30.75" font-family="微软雅黑" font-weight="bold" font-style="normal" text-decoration="none" family="微软雅黑" text-anchor="middle" size="30">SL</text></g></g><g id="ProcessOnG1053" transform="matrix(1.0,0.0,0.0,1.0,454.0,330.9999999999998)" opacity="1.0"><path id="ProcessOnPath1054" d="M0.0 35.0C0.0 -11.666666666666666 70.0 -11.666666666666666 70.0 35.0C70.0 81.66666666666667 0.0 81.66666666666667 0.0 35.0Z" stroke="#323232" stroke-width="2.0" stroke-dasharray="none" opacity="1.0" fill="#000000"/><g id="ProcessOnG1055" transform="matrix(1.0,0.0,0.0,1.0,10.0,16.25)"><text id="ProcessOnText1056" fill="#ffffff" font-size="30" x="24.0" y="30.75" font-family="微软雅黑" font-weight="bold" font-style="normal" text-decoration="none" family="微软雅黑" text-anchor="middle" size="30">SR</text></g></g><g id="ProcessOnG1057" transform="matrix(1.0,0.0,0.0,1.0,301.0,479.14234924316406)" opacity="1.0"><path id="ProcessOnPath1058" d="M33.0 0.0L66.0 50.55555725097656L0.0 50.55555725097656Z" stroke="#323232" stroke-width="2.0" stroke-dasharray="none" opacity="1.0" fill="#ffffff"/><g id="ProcessOnG1059" transform="matrix(1.0,0.0,0.0,1.0,10.0,19.09722328186035)"><text id="ProcessOnText1060" fill="#000000" font-size="20" x="22.0" y="20.5" font-family="微软雅黑" font-weight="bold" font-style="normal" text-decoration="none" family="微软雅黑" text-anchor="middle" size="20">T3</text></g></g><g id="ProcessOnG1061" transform="matrix(1.0,0.0,0.0,1.0,370.0138854980469,479.14234924316406)" opacity="1.0"><path id="ProcessOnPath1062" d="M33.0 0.0L66.0 50.55555725097656L0.0 50.55555725097656Z" stroke="#323232" stroke-width="2.0" stroke-dasharray="none" opacity="1.0" fill="#ffffff"/><g id="ProcessOnG1063" transform="matrix(1.0,0.0,0.0,1.0,10.0,19.09722328186035)"><text id="ProcessOnText1064" fill="#000000" font-size="20" x="22.0" y="20.5" font-family="微软雅黑" font-weight="bold" font-style="normal" text-decoration="none" family="微软雅黑" text-anchor="middle" size="20">T4</text></g></g><g id="ProcessOnG1065" transform="matrix(1.0,0.0,0.0,1.0,436.0138854980469,479.14234924316406)" opacity="1.0"><path id="ProcessOnPath1066" d="M33.0 0.0L66.0 50.55555725097656L0.0 50.55555725097656Z" stroke="#323232" stroke-width="2.0" stroke-dasharray="none" opacity="1.0" fill="#ffffff"/><g id="ProcessOnG1067" transform="matrix(1.0,0.0,0.0,1.0,10.0,19.09722328186035)"><text id="ProcessOnText1068" fill="#000000" font-size="20" x="22.0" y="20.5" font-family="微软雅黑" font-weight="bold" font-style="normal" text-decoration="none" family="微软雅黑" text-anchor="middle" size="20">T5</text></g></g><g id="ProcessOnG1069" transform="matrix(1.0,0.0,0.0,1.0,502.0138854980469,479.14234924316406)" opacity="1.0"><path id="ProcessOnPath1070" d="M33.0 0.0L66.0 50.55555725097656L0.0 50.55555725097656Z" stroke="#323232" stroke-width="2.0" stroke-dasharray="none" opacity="1.0" fill="#ffffff"/><g id="ProcessOnG1071" transform="matrix(1.0,0.0,0.0,1.0,10.0,19.09722328186035)"><text id="ProcessOnText1072" fill="#000000" font-size="20" x="22.0" y="20.5" font-family="微软雅黑" font-weight="bold" font-style="normal" text-decoration="none" family="微软雅黑" text-anchor="middle" size="20">T6</text></g></g><g id="ProcessOnG1073"><path id="ProcessOnPath1074" d="M376.7346148071 394.24045036127364L340.8501284906268 465.5330323214043" stroke="#323232" stroke-width="2.0" stroke-dasharray="none" fill="none" marker-end="url(#ProcessOnMarker1075)"/></g><g id="ProcessOnG1077"><path id="ProcessOnPath1078" d="M397.0 400.9999999999998L401.84476510275783 463.95120297580445" stroke="#323232" stroke-width="2.0" stroke-dasharray="none" fill="none" marker-end="url(#ProcessOnMarker1079)"/></g><g id="ProcessOnG1081"><path id="ProcessOnPath1082" d="M479.82561881376455 398.93642571011713L471.04929327945206 464.0428498283361" stroke="#323232" stroke-width="2.0" stroke-dasharray="none" fill="none" marker-end="url(#ProcessOnMarker1083)"/></g><g id="ProcessOnG1085"><path id="ProcessOnPath1086" d="M507.5138854980469 396.0998302827873L530.2241743962552 464.67872469824556" stroke="#323232" stroke-width="2.0" stroke-dasharray="none" fill="none" marker-end="url(#ProcessOnMarker1087)"/></g><g id="ProcessOnG1089" transform="matrix(1.0,0.0,0.0,1.0,151.0,180.99999999999977)" opacity="1.0"><path id="ProcessOnPath1090" d="M0.0 35.0C0.0 -11.666666666666666 70.0 -11.666666666666666 70.0 35.0C70.0 81.66666666666667 0.0 81.66666666666667 0.0 35.0Z" stroke="#323232" stroke-width="2.0" stroke-dasharray="none" opacity="1.0" fill="#000000"/><g id="ProcessOnG1091" transform="matrix(1.0,0.0,0.0,1.0,10.0,16.25)"><text id="ProcessOnText1092" fill="#ffffff" font-size="30" x="24.0" y="30.75" font-family="微软雅黑" font-weight="bold" font-style="normal" text-decoration="none" family="微软雅黑" text-anchor="middle" size="30">X</text></g></g><g id="ProcessOnG1093"><path id="ProcessOnPath1094" d="M164.45534411615316 188.61281875987459L107.01388549804688 116.69790649414062" stroke="#323232" stroke-width="2.0" stroke-dasharray="10.0 4.0" fill="none" marker-end="url(#ProcessOnMarker1095)"/><g id="ProcessOnG1097" transform="matrix(1.0,0.0,0.0,1.0,135.7346148071,140.1553626270076)"><path id="ProcessOnPath1098" d="M0 0H77.0V25.0H0Z" fill="#fff" transform="matrix(1.0,0.0,0.0,1.0,-38.5,0.0)"/><text id="ProcessOnText1099" fill="#000000" font-size="20" x="0.0" y="20.5" font-family="微软雅黑" font-weight="bold" font-style="normal" text-decoration="none" family="微软雅黑" text-anchor="middle" size="20">remove</text></g></g><g id="ProcessOnG1100" transform="matrix(1.0,0.0,0.0,1.0,557.7916564941406,253.2534637451172)" opacity="1.0"><path id="ProcessOnPath1101" d="M0.0 25.656356964111254L54.12673187255871 25.656356964111254L54.12673187255871 0.0L93.0 38.87326812744129L54.12673187255871 77.74653625488259L54.12673187255871 52.09017929077134L0.0 52.09017929077134L0.0 25.656356964111254Z" stroke="#323232" stroke-width="2.0" stroke-dasharray="none" opacity="1.0" fill="#ffffff"/><g id="ProcessOnG1102" transform="matrix(1.0,0.0,0.0,1.0,0.0,27.623268127441293)"><text id="ProcessOnText1103" fill="#000000" font-size="18" x="45.5" y="18.45" font-family="微软雅黑" font-weight="bold" font-style="normal" text-decoration="none" family="微软雅黑" text-anchor="middle" size="18">情形 5</text></g></g><g id="ProcessOnG1104" transform="matrix(1.0,0.0,0.0,1.0,809.0,67.00000000000023)" opacity="1.0"><path id="ProcessOnPath1105" d="M0.0 35.0C0.0 -11.666666666666666 70.0 -11.666666666666666 70.0 35.0C70.0 81.66666666666667 0.0 81.66666666666667 0.0 35.0Z" stroke="#323232" stroke-width="2.0" stroke-dasharray="none" opacity="1.0" fill="#cfcfcf"/><g id="ProcessOnG1106" transform="matrix(1.0,0.0,0.0,1.0,10.0,16.25)"><text id="ProcessOnText1107" fill="#ffffff" font-size="30" x="24.0" y="30.75" font-family="微软雅黑" font-weight="bold" font-style="normal" text-decoration="none" family="微软雅黑" text-anchor="middle" size="30">P</text></g></g><g id="ProcessOnG1108" transform="matrix(1.0,0.0,0.0,1.0,721.0,203.99999999999977)" opacity="1.0"><path id="ProcessOnPath1109" d="M0.0 35.0C0.0 -11.666666666666666 70.0 -11.666666666666666 70.0 35.0C70.0 81.66666666666667 0.0 81.66666666666667 0.0 35.0Z" stroke="#323232" stroke-width="2.0" stroke-dasharray="none" opacity="1.0" fill="#000000"/><g id="ProcessOnG1110" transform="matrix(1.0,0.0,0.0,1.0,10.0,16.25)"><text id="ProcessOnText1111" fill="#ffffff" font-size="30" x="24.0" y="30.75" font-family="微软雅黑" font-weight="bold" font-style="normal" text-decoration="none" family="微软雅黑" text-anchor="middle" size="30">N</text></g></g><g id="ProcessOnG1112" transform="matrix(1.0,0.0,0.0,1.0,914.0,330.9999999999998)" opacity="1.0"><path id="ProcessOnPath1113" d="M0.0 35.0C0.0 -11.666666666666666 70.0 -11.666666666666666 70.0 35.0C70.0 81.66666666666667 0.0 81.66666666666667 0.0 35.0Z" stroke="#323232" stroke-width="2.0" stroke-dasharray="none" opacity="1.0" fill="#ff0000"/><g id="ProcessOnG1114" transform="matrix(1.0,0.0,0.0,1.0,10.0,16.25)"><text id="ProcessOnText1115" fill="#ffffff" font-size="30" x="24.0" y="30.75" font-family="微软雅黑" font-weight="bold" font-style="normal" text-decoration="none" family="微软雅黑" text-anchor="middle" size="30">S</text></g></g><g id="ProcessOnG1116"><path id="ProcessOnPath1117" d="M821.8678821817552 128.90423977855517L766.0467574109132 192.5457242506887" stroke="#323232" stroke-width="2.0" stroke-dasharray="none" fill="none" marker-end="url(#ProcessOnMarker1118)"/></g><g id="ProcessOnG1120"><path id="ProcessOnPath1121" d="M865.4264235636492 130.18084795571122L898.2996947063551 197.31629887833867" stroke="#323232" stroke-width="2.0" stroke-dasharray="none" fill="none" marker-end="url(#ProcessOnMarker1122)"/></g><g id="ProcessOnG1124"><path id="ProcessOnPath1125" d="M729.8441077136417 262.9284111947314L704.0361787631629 312.62106362700683" stroke="#323232" stroke-width="2.0" stroke-dasharray="none" fill="none" marker-end="url(#ProcessOnMarker1126)"/></g><g id="ProcessOnG1128"><path id="ProcessOnPath1129" d="M965.1686489745655 397.32973366909073L990.627101539768 464.8850798850075" stroke="#323232" stroke-width="2.0" stroke-dasharray="none" fill="none" marker-end="url(#ProcessOnMarker1130)"/></g><g id="ProcessOnG1132" transform="matrix(1.0,0.0,0.0,1.0,664.0138854980469,326.14234924316406)" opacity="1.0"><path id="ProcessOnPath1133" d="M33.0 0.0L66.0 50.55555725097656L0.0 50.55555725097656Z" stroke="#323232" stroke-width="2.0" stroke-dasharray="none" opacity="1.0" fill="#ffffff"/><g id="ProcessOnG1134" transform="matrix(1.0,0.0,0.0,1.0,10.0,19.09722328186035)"><text id="ProcessOnText1135" fill="#000000" font-size="20" x="22.0" y="20.5" font-family="微软雅黑" font-weight="bold" font-style="normal" text-decoration="none" family="微软雅黑" text-anchor="middle" size="20">T1</text></g></g><g id="ProcessOnG1136"><path id="ProcessOnPath1137" d="M773.7460307128248 269.4234258820541L784.2969935853939 311.3666096026368" stroke="#323232" stroke-width="2.0" stroke-dasharray="none" fill="none" marker-end="url(#ProcessOnMarker1138)"/></g><g id="ProcessOnG1140"><path id="ProcessOnPath1141" d="M932.0138854980469 396.41029843559517L909.7291979660373 464.6588257073313" stroke="#323232" stroke-width="2.0" stroke-dasharray="none" fill="none" marker-end="url(#ProcessOnMarker1142)"/></g><g id="ProcessOnG1144" transform="matrix(1.0,0.0,0.0,1.0,870.0,210.99999999999977)" opacity="1.0"><path id="ProcessOnPath1145" d="M0.0 35.0C0.0 -11.666666666666666 70.0 -11.666666666666666 70.0 35.0C70.0 81.66666666666667 0.0 81.66666666666667 0.0 35.0Z" stroke="#323232" stroke-width="2.0" stroke-dasharray="none" opacity="1.0" fill="#000000"/><g id="ProcessOnG1146" transform="matrix(1.0,0.0,0.0,1.0,10.0,16.25)"><text id="ProcessOnText1147" fill="#ffffff" font-size="30" x="24.0" y="30.75" font-family="微软雅黑" font-weight="bold" font-style="normal" text-decoration="none" family="微软雅黑" text-anchor="middle" size="30">SL</text></g></g><g id="ProcessOnG1148" transform="matrix(1.0,0.0,0.0,1.0,961.0,479.14234924316406)" opacity="1.0"><path id="ProcessOnPath1149" d="M0.0 35.0C0.0 -11.666666666666666 70.0 -11.666666666666666 70.0 35.0C70.0 81.66666666666667 0.0 81.66666666666667 0.0 35.0Z" stroke="#323232" stroke-width="2.0" stroke-dasharray="none" opacity="1.0" fill="#000000"/><g id="ProcessOnG1150" transform="matrix(1.0,0.0,0.0,1.0,10.0,16.25)"><text id="ProcessOnText1151" fill="#ffffff" font-size="30" x="24.0" y="30.75" font-family="微软雅黑" font-weight="bold" font-style="normal" text-decoration="none" family="微软雅黑" text-anchor="middle" size="30">SR</text></g></g><g id="ProcessOnG1152" transform="matrix(1.0,0.0,0.0,1.0,831.0,326.14234924316406)" opacity="1.0"><path id="ProcessOnPath1153" d="M33.0 0.0L66.0 50.55555725097656L0.0 50.55555725097656Z" stroke="#323232" stroke-width="2.0" stroke-dasharray="none" opacity="1.0" fill="#ffffff"/><g id="ProcessOnG1154" transform="matrix(1.0,0.0,0.0,1.0,10.0,19.09722328186035)"><text id="ProcessOnText1155" fill="#000000" font-size="20" x="22.0" y="20.5" font-family="微软雅黑" font-weight="bold" font-style="normal" text-decoration="none" family="微软雅黑" text-anchor="middle" size="20">T3</text></g></g><g id="ProcessOnG1156" transform="matrix(1.0,0.0,0.0,1.0,872.0,479.14234924316406)" opacity="1.0"><path id="ProcessOnPath1157" d="M33.0 0.0L66.0 50.55555725097656L0.0 50.55555725097656Z" stroke="#323232" stroke-width="2.0" stroke-dasharray="none" opacity="1.0" fill="#ffffff"/><g id="ProcessOnG1158" transform="matrix(1.0,0.0,0.0,1.0,10.0,19.09722328186035)"><text id="ProcessOnText1159" fill="#000000" font-size="20" x="22.0" y="20.5" font-family="微软雅黑" font-weight="bold" font-style="normal" text-decoration="none" family="微软雅黑" text-anchor="middle" size="20">T4</text></g></g><g id="ProcessOnG1160" transform="matrix(1.0,0.0,0.0,1.0,925.0138854980469,630.1423492431641)" opacity="1.0"><path id="ProcessOnPath1161" d="M33.0 0.0L66.0 50.55555725097656L0.0 50.55555725097656Z" stroke="#323232" stroke-width="2.0" stroke-dasharray="none" opacity="1.0" fill="#ffffff"/><g id="ProcessOnG1162" transform="matrix(1.0,0.0,0.0,1.0,10.0,19.09722328186035)"><text id="ProcessOnText1163" fill="#000000" font-size="20" x="22.0" y="20.5" font-family="微软雅黑" font-weight="bold" font-style="normal" text-decoration="none" family="微软雅黑" text-anchor="middle" size="20">T5</text></g></g><g id="ProcessOnG1164" transform="matrix(1.0,0.0,0.0,1.0,1011.0138854980469,630.1423492431641)" opacity="1.0"><path id="ProcessOnPath1165" d="M33.0 0.0L66.0 50.55555725097656L0.0 50.55555725097656Z" stroke="#323232" stroke-width="2.0" stroke-dasharray="none" opacity="1.0" fill="#ffffff"/><g id="ProcessOnG1166" transform="matrix(1.0,0.0,0.0,1.0,10.0,19.09722328186035)"><text id="ProcessOnText1167" fill="#000000" font-size="20" x="22.0" y="20.5" font-family="微软雅黑" font-weight="bold" font-style="normal" text-decoration="none" family="微软雅黑" text-anchor="middle" size="20">T6</text></g></g><g id="ProcessOnG1168"><path id="ProcessOnPath1169" d="M884.7346148071 274.24045036127364L869.6523888977305 311.9935589357276" stroke="#323232" stroke-width="2.0" stroke-dasharray="none" fill="none" marker-end="url(#ProcessOnMarker1170)"/></g><g id="ProcessOnG1172"><path id="ProcessOnPath1173" d="M986.8256188137645 547.0787749532815L963.0068872358091 615.7476383720941" stroke="#323232" stroke-width="2.0" stroke-dasharray="none" fill="none" marker-end="url(#ProcessOnMarker1174)"/></g><g id="ProcessOnG1176"><path id="ProcessOnPath1177" d="M1014.5138854980469 544.2421795259515L1039.0651764729676 615.7323511029805" stroke="#323232" stroke-width="2.0" stroke-dasharray="none" fill="none" marker-end="url(#ProcessOnMarker1178)"/></g><g id="ProcessOnG1180" transform="matrix(1.0,0.0,0.0,1.0,755.0138854980469,326.14234924316406)" opacity="1.0"><path id="ProcessOnPath1181" d="M33.0 0.0L66.0 50.55555725097656L0.0 50.55555725097656Z" stroke="#323232" stroke-width="2.0" stroke-dasharray="none" opacity="1.0" fill="#ffffff"/><g id="ProcessOnG1182" transform="matrix(1.0,0.0,0.0,1.0,10.0,19.09722328186035)"><text id="ProcessOnText1183" fill="#000000" font-size="20" x="22.0" y="20.5" font-family="微软雅黑" font-weight="bold" font-style="normal" text-decoration="none" family="微软雅黑" text-anchor="middle" size="20">T2</text></g></g><g id="ProcessOnG1184"><path id="ProcessOnPath1185" d="M927.2931561889937 273.5737862377385L943.612851017488 316.7481091340405" stroke="#323232" stroke-width="2.0" stroke-dasharray="none" fill="none" marker-end="url(#ProcessOnMarker1186)"/></g></g></g></svg>